<?xml version="1.0" encoding="UTF-8"?><svg id="Layer_1" xmlns="http://www.w3.org/2000/svg" viewBox="0 0 758 346"><defs><style>.cls-1,.cls-2{fill:none;}.cls-3{fill:#fff;}.cls-4{fill:#dff941;}.cls-5{fill:#1e1d08;}.cls-6{fill:#565613;}.cls-2{stroke:#d6fb00;stroke-miterlimit:10;stroke-width:8.77px;}</style></defs><rect class="cls-1" width="758" height="346"/><path class="cls-5" d="m169.05,56.55h-79.9c-16.8,0-30.5,13.7-30.5,30.5v180.7c0,16.8,13.6,30.5,30.5,30.5h116.6c16.8,0,30.5-13.6,30.5-30.5V118.05c-.5-1.1-.9-2.1-1.3-3.3l-52.9-52.9c-3.5-3.4-8.2-5.3-13-5.3Z"/><path class="cls-3" d="m337.15,153.35c36.8,0,61,23.3,61,58.7s-24.3,58.7-61,58.7h-48.5v-117.4h48.5Zm-25,21.9v73.7h24.8c24.8,0,36.8-15.5,36.8-36.8s-12-36.8-36.8-36.8h-24.8v-.1Z"/><path class="cls-3" d="m497.05,230.15c0,24.5-18.7,42.8-44.1,42.8s-43.9-18.3-43.9-42.8,18.6-42.8,43.9-42.8c25.4,0,44.1,18.2,44.1,42.8Zm-65.6,0c0,13.2,9.2,22.4,21.6,22.4s21.6-9.2,21.6-22.4-9.3-22.4-21.6-22.4-21.6,9.2-21.6,22.4Z"/><path class="cls-3" d="m585.75,202.65l-15.8,13.2c-5-5.3-10.2-8.1-17.4-8.1-11.3,0-20.4,8.9-20.4,22.4s9,22.4,20.3,22.4c7,0,13.1-3.2,17.7-8.2l15.6,13.3c-7.6,9.8-19,15.3-32.6,15.3-25.9,0-43.3-18.1-43.3-42.8s17.4-42.8,43.3-42.8c13.6,0,25.1,5.5,32.6,15.3Z"/><path class="cls-3" d="m659.85,212.15c-6.5-3.2-16.8-6.5-25.9-6.6-8.3,0-12.5,2.9-12.5,7.4s5.9,5.9,13.3,7l7.2,1.1c17.6,2.7,27.4,10.6,27.4,24.3,0,16.8-13.8,27.6-37.3,27.6-11.1,0-25.6-2.1-36.2-9.6l8.6-16.6c7,4.6,15.4,8,27.7,8,10.2,0,15-2.8,15-7.6,0-3.9-4.1-6.1-13.5-7.5l-6.6-.9c-18.8-2.6-28.1-10.8-28.1-24.7,0-16.7,12.9-26.6,34.3-26.6,13,0,23.2,2.4,34,7.7l-7.4,17Z"/><path class="cls-3" d="m330.95,122.65h-9.7l-4-10.6h-19.5l-4,10.6h-9.5l17.8-45.7h11.1l17.8,45.7Zm-30-19h13.2l-6.6-17.7-6.6,17.7Z"/><path class="cls-3" d="m387.45,102.55v20.2h-8.5v-17.4c0-4.6-2.3-7.1-6.2-7.1s-6.7,2.4-6.7,7.2v17.4h-8.5v-17.4c0-4.6-2.3-7.1-6.2-7.1s-6.7,2.4-6.7,7.2v17.4h-8.5v-31.9h8.3v3.7c2.3-3.4,5.7-4.6,9.3-4.6,4.6,0,8.3,2.1,10.5,5.4,2.5-4,6.6-5.4,10.7-5.4,7.5,0,12.5,5,12.5,12.4Z"/><path class="cls-3" d="m429.25,106.85c0,9.5-6.6,16.7-15.3,16.7-4.2,0-7.2-1.7-9.3-4.1v16.3h-8.5v-44.7h8.3v3.5c2.1-2.6,5.1-4.3,9.4-4.3,8.8-.1,15.4,7.1,15.4,16.6Zm-25.1,0c0,5,3.3,8.7,8.1,8.7s8.2-3.9,8.2-8.7-3.1-8.7-8.2-8.7c-4.8,0-8.1,3.7-8.1,8.7Z"/><path class="cls-3" d="m465.65,106.85c0,1-.1,2.2-.2,2.9h-22.4c.9,4.6,4.1,6.6,8.1,6.6,2.7,0,5.7-1.1,8-3l5,5.5c-3.6,3.3-8.2,4.8-13.5,4.8-9.7,0-16.4-6.6-16.4-16.6s6.5-16.8,16-16.8c9.1-.1,15.4,6.7,15.4,16.6Zm-22.6-3h14c-.8-4.1-3.2-6.3-6.9-6.3-4,0-6.3,2.4-7.1,6.3Z"/><path class="cls-3" d="m494.25,90.85l-1.3,8.5c-1.4-.6-3.4-1-5.2-1-4,0-6.7,2.4-6.7,7.1v17.3h-8.5v-31.7h8.3v3.5c2-3,5-4.3,8.9-4.3,1.9-.1,3.3.2,4.5.6Z"/><path class="cls-3" d="m509.65,80.65c0,3.1-2.4,5.4-5.5,5.4s-5.4-2.4-5.4-5.4,2.4-5.5,5.4-5.5c3.2,0,5.5,2.5,5.5,5.5Zm-1.1,42h-8.5v-31.6h8.5v31.6Z"/><path class="cls-3" d="m540.45,98.65h-11.5v11.6c0,4,2.1,5.4,4.7,5.4,2,0,4.2-1,5.9-2.1l3.1,6.7c-2.8,1.9-6,3.3-10.5,3.3-7.8,0-11.9-4.4-11.9-12.6v-12.3h-6.1v-7.6h6.1v-9.4h8.5v9.4h11.5v7.6h.2Z"/><path class="cls-3" d="m555.95,135.85h-9.3l11.1-19.9-13.7-24.9h9.7l8.7,16.3,8.4-16.3h9.3l-24.2,44.8Z"/><path class="cls-6" d="m58.65,241.25c0,49.1,13.6,53.5,30.5,53.5h116.6c16.8,0,30.5-13.6,30.5-30.5v-116.7c-.5-1.1,0,11.7-1.3,5L58.65,241.25Z"/><path class="cls-2" d="m168.05,53.05h-79.8c-16.8,0-30.5,13.6-30.5,30.5v180.7c0,16.8,13.6,30.5,30.5,30.5h116.6c16.8,0,30.5-13.6,30.5-30.5V114.65c0-1.4-.3-2-1.3-3.3l-52.9-52.9c-3.6-3.4-8.3-5.4-13.1-5.4Z"/><g id="Icon_Dark_BG"><path class="cls-4" d="m187.25,163.15c-5.6,0-10.2,4.6-10.2,10.2s4.6,10.2,10.2,10.2,10.2-4.6,10.2-10.2-4.6-10.2-10.2-10.2Z"/><path class="cls-3" d="m170.95,186.55l-16.8,9c.1.8.2,1.6.2,2.4,0,8.9-7.3,16.2-16.3,16.2s-16.2-7.3-16.2-16.3,7.3-16.2,16.3-16.2c4.7,0,9,2.1,11.9,5.3l15.7-8.4-20.9-31.6h-.5c-4.8,0-8.7-3.9-8.7-8.7s3.9-8.7,8.7-8.7,8.7,3.9,8.7,8.7c0,1.7-.5,3.2-1.3,4.5l12.2,18.4c6.5-5.5,10.6-13.8,10.7-23,0-16.7-13.5-30.3-30.2-30.3s-30.3,13.5-30.3,30.2c0,8.8,3.8,16.8,9.8,22.4-15.1,5.7-25.9,20.3-25.9,37.4,0,22.1,17.9,40.1,40,40.1,12.2,0,23.2-5.5,30.6-14.2l5.9,8.9h27.1l-30.7-46.1Z"/></g></svg>