<svg id="Layer_1" data-name="Layer 1" xmlns="http://www.w3.org/2000/svg" viewBox="0 0 714.01 263.07"><defs><style>.cls-1{fill:#dff200;}.cls-2{fill:#fff;}</style></defs><rect class="cls-1" x="2.67" y="2.28" width="258.53" height="258.53" rx="129.26"/><circle cx="179.95" cy="129.87" r="13.81"/><path d="M160.49,145.11,138.59,157a20.34,20.34,0,0,1,.34,3.6,19.93,19.93,0,1,1-4.35-12.4L155.15,137,128.44,96.66a10.17,10.17,0,0,1-1.67.15,10.36,10.36,0,1,1,8.71-4.8l15.94,24.09,1.06-.72a38.74,38.74,0,1,0-52.74-1.19A50.18,50.18,0,1,0,157.25,193l7.05,10.57h34.87Z"/><path class="cls-2" d="M387.89,63.91l0,.08,6,14.72h6.71L378.74,25.4h-7.66L349.19,78.71h6.52l6-14.8Zm-23.68-6.14,10.61-26L385.51,58H364.13Z"/><path class="cls-2" d="M450.33,47.43a10,10,0,0,1,7.6,2.84c1.8,1.89,2.71,4.56,2.71,7.93V78.71h5.82V56.34a13.86,13.86,0,0,0-4.18-10.5,15.3,15.3,0,0,0-10.93-4,17.64,17.64,0,0,0-7.91,1.83,12.78,12.78,0,0,0-5.51,5.39l-.12.23-.13-.23a12.69,12.69,0,0,0-5.11-5.21,16.5,16.5,0,0,0-8.23-2,17.2,17.2,0,0,0-6.87,1.41,12.21,12.21,0,0,0-4.9,3.9l-.26.34V42.59h-5.78V78.71h5.86V58.36a10.53,10.53,0,0,1,3.14-7.94,10.94,10.94,0,0,1,7.78-3,10,10,0,0,1,7.59,2.84c1.78,1.89,2.69,4.56,2.69,7.93V78.71h5.82V58.36a10.49,10.49,0,0,1,3.14-7.94A10.92,10.92,0,0,1,450.33,47.43Z"/><path class="cls-2" d="M496.13,79.43A17.23,17.23,0,0,0,509,74.07a18.61,18.61,0,0,0,5.18-13.44A18.58,18.58,0,0,0,509,47.21a17.3,17.3,0,0,0-12.85-5.34c-5.36,0-9.65,1.88-12.76,5.58l-.25.29V42.59h-5.86V94.05h5.86V73.56l.25.3C486.48,77.56,490.77,79.43,496.13,79.43Zm-13.39-18.8a13.37,13.37,0,0,1,3.58-9.49,12.87,12.87,0,0,1,18.28,0,13.36,13.36,0,0,1,3.59,9.45,13.46,13.46,0,0,1-3.55,9.49,12.92,12.92,0,0,1-18.32,0A13.4,13.4,0,0,1,482.74,60.63Z"/><path class="cls-2" d="M554.68,62.65a17.15,17.15,0,0,0,.12-2.13c0-5.44-1.65-10-4.82-13.42a15.83,15.83,0,0,0-12.15-5.23A17.12,17.12,0,0,0,525,47.16a18.8,18.8,0,0,0-5.07,13.51c0,5.54,1.72,10.1,5.11,13.55a17.67,17.67,0,0,0,13.15,5.21A20.7,20.7,0,0,0,553,73.79l.06-.05-3.14-4-.07.07a16.36,16.36,0,0,1-11.33,4.49,12.71,12.71,0,0,1-8.56-3,12.54,12.54,0,0,1-4-8.37l0-.16h28.79ZM526,58l0-.17a13.14,13.14,0,0,1,3.77-7.7,11,11,0,0,1,8-3,10.44,10.44,0,0,1,7.58,3,12.66,12.66,0,0,1,3.54,7.75l0,.16Z"/><path class="cls-2" d="M586.28,43.09a16,16,0,0,0-6.63-1.22,12.62,12.62,0,0,0-6.1,1.51,13.15,13.15,0,0,0-4.23,3.72l-.25.34V42.59h-5.79V78.71h5.82V58.51a11.82,11.82,0,0,1,2.68-8.07,8.76,8.76,0,0,1,6.88-3,12.82,12.82,0,0,1,6.18,1.43l.1.06,1.41-5.76Z"/><path class="cls-2" d="M595.81,24.21a4.13,4.13,0,0,0-3.08,1.26,4.25,4.25,0,0,0-1.23,3.1,4.2,4.2,0,0,0,4.31,4.31,4.26,4.26,0,0,0,3.1-1.23,4.42,4.42,0,0,0,0-6.18A4.23,4.23,0,0,0,595.81,24.21Z"/><rect class="cls-2" x="592.88" y="42.59" width="5.86" height="36.12"/><path class="cls-2" d="M616.41,76.08c2.14,2.23,5.24,3.35,9.19,3.35a17.34,17.34,0,0,0,10.71-3.58l.06,0-2.74-4.43-.08,0a12.51,12.51,0,0,1-7.5,2.53,6.83,6.83,0,0,1-5.14-2c-1.26-1.32-1.91-3.34-1.91-6V47.89h15.22l-3.17-5.3H619V31.17h-5.82V42.59h-7.85v5.3h7.85V66.06C613.18,70.49,614.27,73.87,616.41,76.08Z"/><polygon class="cls-2" points="669.03 42.59 656.9 63.81 642.87 42.59 636.2 42.59 653.82 69.19 639.64 94.05 646.1 94.05 675.45 42.59 669.03 42.59"/><path class="cls-2" d="M392.47,117.25c37.25,0,60.88,22.25,60.88,57.05s-23.63,57-60.88,57h-43V117.25Zm-29.83,12.39V219h29.83c30.89,0,47.11-17.93,47.11-44.66,0-26.89-16.22-44.66-47.11-44.66Z"/><path class="cls-2" d="M546.67,192.72c0,22.9-17.44,40.18-40.67,40.18s-40.58-17.28-40.58-40.18,17.35-40.1,40.58-40.1S546.67,169.9,546.67,192.72Zm-68.87,0c0,16.7,12.15,28.77,28.2,28.77s28.2-12.07,28.2-28.77S522,164,506,164,477.8,176.09,477.8,192.72Z"/><path class="cls-2" d="M628.74,164.76,620.91,173c-5.78-5.63-12.71-9-21.1-9-15.49,0-27.22,12.06-27.22,28.69s11.73,28.77,27.22,28.77a30.88,30.88,0,0,0,21.35-9.05l7.58,8.31c-7,7.91-17.2,12.15-28.61,12.15-23.71,0-39.93-17.28-39.93-40.18s16.22-40.1,39.93-40.1C611.54,152.62,621.81,156.86,628.74,164.76Z"/><path class="cls-2" d="M698.09,170.55c-5-3.42-14.83-7.25-25.26-7.25-11,0-18.26,4.64-18.26,12.14,0,6.44,5.63,9.62,15.73,10.84l9.13,1.14c16.38,2.12,25.92,8.88,25.92,21.52,0,14.67-13.21,23.87-34,23.87-9.94,0-22.41-2.44-32.19-9.86l5.62-9.12c5.87,4.56,13.7,8.39,26.74,8.39s21.27-4.32,21.27-12.47c0-6.19-5.22-9.94-16.14-11.25l-9.21-1.06c-17.36-2.11-25.51-9.86-25.51-21.35,0-14.59,12.31-23.39,30.81-23.39,12.14,0,23.22,3.43,30.64,8.4Z"/></svg>