<svg id="Layer_1" data-name="Layer 1" xmlns="http://www.w3.org/2000/svg" viewBox="0 0 1758.55 263.07"><defs><style>.cls-1{fill:#dff200;}.cls-2{fill:#fff;}</style></defs><rect class="cls-1" x="2.67" y="2.28" width="258.53" height="258.53" rx="129.26"/><circle cx="179.95" cy="129.87" r="13.81"/><path d="M160.49,145.11,138.59,157a20.34,20.34,0,0,1,.34,3.6,19.93,19.93,0,1,1-4.35-12.4L155.15,137,128.44,96.66a10.17,10.17,0,0,1-1.67.15,10.36,10.36,0,1,1,8.71-4.8l15.94,24.09,1.06-.72a38.74,38.74,0,1,0-52.74-1.19A50.18,50.18,0,1,0,157.25,193l7.05,10.57h34.87Z"/><path class="cls-2" d="M383.89,184,364.6,203.62v27.27H349.53V125.41H364.6v58.92l57.26-58.92H439L394,172.88l47.91,58H424.27Z"/><path class="cls-2" d="M521.09,159.09q9,8.82,9,25.84v46H515.59v-44.3q0-11.59-5.58-17.48t-16-5.88q-11.75,0-18.53,6.86t-6.78,19.66v41.14H454.26V151h13.86v12.05A28.24,28.24,0,0,1,480,153.59a41.31,41.31,0,0,1,16.95-3.31Q512.13,150.28,521.09,159.09Z"/><path class="cls-2" d="M570.14,226.52A38.23,38.23,0,0,1,555.29,212a44,44,0,0,1,0-42,37.78,37.78,0,0,1,14.85-14.47,46.55,46.55,0,0,1,42.72,0,37.88,37.88,0,0,1,14.76,14.47,44,44,0,0,1,0,42,38.33,38.33,0,0,1-14.76,14.54,45.85,45.85,0,0,1-42.72,0Zm35.18-10.92a25,25,0,0,0,9.57-9.95,32.83,32.83,0,0,0,0-29.38,24.46,24.46,0,0,0-9.57-9.87,29.14,29.14,0,0,0-27.58,0,25,25,0,0,0-9.64,9.87,32.25,32.25,0,0,0,0,29.38,25.56,25.56,0,0,0,9.64,9.95,28.63,28.63,0,0,0,27.58,0Z"/><path class="cls-2" d="M771.6,151l-29.83,79.86H727.9l-23-60.57-23.36,60.57H667.63L637.94,151h13.72l23.2,63.59L699,151h12.21l23.65,63.89L758.64,151Z"/><path class="cls-2" d="M786.22,119.08h14.46V230.89H786.22Z"/><path class="cls-2" d="M900.13,195.78H835.34a25,25,0,0,0,9.27,17q7.9,6.4,19.66,6.4,14.31,0,23.06-9.64l8,9.34a34.93,34.93,0,0,1-13.48,9.64,50.82,50.82,0,0,1-40.46-1.88,37.13,37.13,0,0,1-15.15-14.54,41.76,41.76,0,0,1-5.35-21.1,42.4,42.4,0,0,1,5.2-20.94,37.31,37.31,0,0,1,14.32-14.55A40.8,40.8,0,0,1,861,150.28a40,40,0,0,1,20.41,5.19,36.57,36.57,0,0,1,14,14.55,44.35,44.35,0,0,1,5.05,21.39A42.06,42.06,0,0,1,900.13,195.78Zm-56.58-27a25.49,25.49,0,0,0-8.21,16.58h51.23a25.67,25.67,0,0,0-8.21-16.5,24.82,24.82,0,0,0-17.4-6.41Q850.55,162.48,843.55,168.81Z"/><path class="cls-2" d="M995.82,119.08V230.89H982V218.24a31.37,31.37,0,0,1-12.21,10.09,37.83,37.83,0,0,1-16.27,3.47,42,42,0,0,1-20.8-5.13,36.67,36.67,0,0,1-14.39-14.39,46.16,46.16,0,0,1,0-42.57,36.93,36.93,0,0,1,14.39-14.31,42,42,0,0,1,20.8-5.12,38.26,38.26,0,0,1,15.82,3.24,30.74,30.74,0,0,1,12.05,9.56v-44ZM968.4,215.6a24.89,24.89,0,0,0,9.64-9.95,32.91,32.91,0,0,0,0-29.38,24.37,24.37,0,0,0-9.64-9.87,29,29,0,0,0-27.51,0,25,25,0,0,0-9.64,9.87,32.25,32.25,0,0,0,0,29.38,25.56,25.56,0,0,0,9.64,9.95,28.49,28.49,0,0,0,27.51,0Z"/><path class="cls-2" d="M1099.64,151v69q0,20.94-10.4,31t-31,10a74.26,74.26,0,0,1-21.55-3.09q-10.25-3.09-16.57-8.81L1027,238a40.83,40.83,0,0,0,13.79,7.61,52.29,52.29,0,0,0,17,2.79q14,0,20.72-6.63t6.71-20.19v-6.33a32,32,0,0,1-12.59,9.27,41.89,41.89,0,0,1-16.2,3.09,43.62,43.62,0,0,1-20.72-4.9A36.51,36.51,0,0,1,1021.13,209a41,41,0,0,1,0-40.24,36,36,0,0,1,14.54-13.63,44.16,44.16,0,0,1,20.72-4.82,42.37,42.37,0,0,1,16.81,3.31,31.24,31.24,0,0,1,12.73,9.8V151Zm-27.5,60.57a24.49,24.49,0,0,0,9.8-9.26,26,26,0,0,0,3.54-13.49q0-11.59-7.69-18.76t-19.74-7.16q-12.21,0-19.89,7.16t-7.68,18.76a25.87,25.87,0,0,0,3.54,13.49,24.4,24.4,0,0,0,9.79,9.26,29.84,29.84,0,0,0,14.24,3.32A29.51,29.51,0,0,0,1072.14,211.6Z"/><path class="cls-2" d="M1199.09,195.78H1134.3a25.07,25.07,0,0,0,9.26,17q7.92,6.4,19.67,6.4,14.31,0,23-9.64l8,9.34a35,35,0,0,1-13.49,9.64,50.82,50.82,0,0,1-40.46-1.88,37.1,37.1,0,0,1-15.14-14.54,41.66,41.66,0,0,1-5.35-21.1A42.29,42.29,0,0,1,1125,170a37.31,37.31,0,0,1,14.32-14.55,40.79,40.79,0,0,1,20.56-5.19,40,40,0,0,1,20.42,5.19,36.57,36.57,0,0,1,14,14.55,44.35,44.35,0,0,1,5,21.39A41.59,41.59,0,0,1,1199.09,195.78Zm-56.58-27a25.49,25.49,0,0,0-8.21,16.58h51.23a25.67,25.67,0,0,0-8.21-16.5q-7-6.4-17.41-6.41T1142.51,168.81Z"/><path class="cls-2" d="M1280.69,225.09a51.52,51.52,0,0,1-20-19.29,56.49,56.49,0,0,1,0-55.3,51.44,51.44,0,0,1,20-19.29,58.69,58.69,0,0,1,28.63-7,59.87,59.87,0,0,1,22.61,4.14,46.47,46.47,0,0,1,17.48,12.28l-9.8,9.49q-11.91-12.5-29.68-12.5a43.07,43.07,0,0,0-21.25,5.27,38.2,38.2,0,0,0-14.84,14.54,42.8,42.8,0,0,0,0,41.44,38.13,38.13,0,0,0,14.84,14.54,43,43,0,0,0,21.25,5.28A39.37,39.37,0,0,0,1339.68,206l9.8,9.49a46.89,46.89,0,0,1-17.56,12.36,59.43,59.43,0,0,1-22.68,4.22A58.23,58.23,0,0,1,1280.69,225.09Z"/><path class="cls-2" d="M1437.48,195.78h-64.8a25.12,25.12,0,0,0,9.27,17q7.9,6.4,19.66,6.4,14.33,0,23.06-9.64l8,9.34a34.93,34.93,0,0,1-13.48,9.64,50.82,50.82,0,0,1-40.46-1.88,37,37,0,0,1-15.14-14.54,41.66,41.66,0,0,1-5.35-21.1,42.39,42.39,0,0,1,5.19-20.94,37.31,37.31,0,0,1,14.32-14.55,40.83,40.83,0,0,1,20.57-5.19,40,40,0,0,1,20.42,5.19,36.62,36.62,0,0,1,14,14.55,44.35,44.35,0,0,1,5,21.39A41.59,41.59,0,0,1,1437.48,195.78Zm-56.59-27a25.49,25.49,0,0,0-8.21,16.58h51.23a25.67,25.67,0,0,0-8.21-16.5,24.82,24.82,0,0,0-17.4-6.41Q1387.9,162.48,1380.89,168.81Z"/><path class="cls-2" d="M1524.65,159.09q9,8.82,9,25.84v46h-14.46v-44.3q0-11.59-5.58-17.48t-16-5.88q-11.74,0-18.53,6.86t-6.78,19.66v41.14h-14.47V151h13.86v12.05a28.24,28.24,0,0,1,11.83-9.49,41.31,41.31,0,0,1,17-3.31Q1515.69,150.28,1524.65,159.09Z"/><path class="cls-2" d="M1605.34,226.22a21.66,21.66,0,0,1-7.83,4.15,32.92,32.92,0,0,1-9.65,1.43q-12.06,0-18.68-6.48t-6.63-18.54V162.93H1549V151h13.57V133.55H1577V151h22.91v11.9H1577v43.25q0,6.48,3.24,9.94t9.27,3.47a17.38,17.38,0,0,0,11.3-3.77Z"/><path class="cls-2" d="M1692,195.78h-64.79a25,25,0,0,0,9.27,17q7.9,6.4,19.66,6.4,14.31,0,23.06-9.64l8,9.34a34.93,34.93,0,0,1-13.48,9.64,50.82,50.82,0,0,1-40.46-1.88,37.13,37.13,0,0,1-15.15-14.54,41.76,41.76,0,0,1-5.35-21.1,42.4,42.4,0,0,1,5.2-20.94,37.31,37.31,0,0,1,14.32-14.55,40.83,40.83,0,0,1,20.57-5.19,40,40,0,0,1,20.41,5.19,36.57,36.57,0,0,1,14,14.55,44.35,44.35,0,0,1,5,21.39A39.43,39.43,0,0,1,1692,195.78Zm-56.58-27a25.49,25.49,0,0,0-8.21,16.58h51.23a25.67,25.67,0,0,0-8.21-16.5,24.82,24.82,0,0,0-17.4-6.41Q1642.4,162.48,1635.4,168.81Z"/><path class="cls-2" d="M1737.34,153.89q7.38-3.62,17.93-3.61v14a28.3,28.3,0,0,0-3.31-.15q-11.76,0-18.46,7t-6.71,20v39.78h-14.46V151h13.86v13.41A24.69,24.69,0,0,1,1737.34,153.89Z"/><path class="cls-2" d="M390.89,63.91l0,.08,6,14.72h6.71L381.74,25.4h-7.66L352.19,78.71h6.52l6-14.8Zm-23.68-6.14,10.61-26L388.51,58H367.13Z"/><path class="cls-2" d="M453.33,47.43a10,10,0,0,1,7.6,2.84c1.8,1.89,2.71,4.56,2.71,7.93V78.71h5.82V56.34a13.86,13.86,0,0,0-4.18-10.5,15.3,15.3,0,0,0-10.93-4,17.64,17.64,0,0,0-7.91,1.83,12.78,12.78,0,0,0-5.51,5.39l-.12.23-.13-.23a12.69,12.69,0,0,0-5.11-5.21,16.5,16.5,0,0,0-8.23-2,17.2,17.2,0,0,0-6.87,1.41,12.21,12.21,0,0,0-4.9,3.9l-.26.34V42.59h-5.78V78.71h5.86V58.36a10.53,10.53,0,0,1,3.14-7.94,10.94,10.94,0,0,1,7.78-3,10,10,0,0,1,7.59,2.84c1.78,1.89,2.69,4.56,2.69,7.93V78.71h5.82V58.36a10.49,10.49,0,0,1,3.14-7.94A10.92,10.92,0,0,1,453.33,47.43Z"/><path class="cls-2" d="M499.13,79.43A17.23,17.23,0,0,0,512,74.07a18.61,18.61,0,0,0,5.18-13.44A18.58,18.58,0,0,0,512,47.21a17.3,17.3,0,0,0-12.85-5.34c-5.36,0-9.65,1.88-12.76,5.58l-.25.29V42.59h-5.86V94.05h5.86V73.56l.25.3C489.48,77.56,493.77,79.43,499.13,79.43Zm-13.39-18.8a13.37,13.37,0,0,1,3.58-9.49,12.87,12.87,0,0,1,18.28,0,13.36,13.36,0,0,1,3.59,9.45,13.46,13.46,0,0,1-3.55,9.49,12.92,12.92,0,0,1-18.32,0A13.4,13.4,0,0,1,485.74,60.63Z"/><path class="cls-2" d="M557.68,62.65a17.15,17.15,0,0,0,.12-2.13c0-5.44-1.65-10-4.82-13.42a15.83,15.83,0,0,0-12.15-5.23A17.12,17.12,0,0,0,528,47.16a18.8,18.8,0,0,0-5.07,13.51c0,5.54,1.72,10.1,5.11,13.55a17.67,17.67,0,0,0,13.15,5.21A20.7,20.7,0,0,0,556,73.79l.06-.05-3.14-4-.07.07a16.36,16.36,0,0,1-11.33,4.49,12.71,12.71,0,0,1-8.56-3,12.54,12.54,0,0,1-4-8.37l0-.16h28.79ZM529,58l0-.17a13.14,13.14,0,0,1,3.77-7.7,11,11,0,0,1,8-3,10.44,10.44,0,0,1,7.58,3,12.66,12.66,0,0,1,3.54,7.75l0,.16Z"/><path class="cls-2" d="M589.28,43.09a16,16,0,0,0-6.63-1.22,12.62,12.62,0,0,0-6.1,1.51,13.15,13.15,0,0,0-4.23,3.72l-.25.34V42.59h-5.79V78.71h5.82V58.51a11.82,11.82,0,0,1,2.68-8.07,8.76,8.76,0,0,1,6.88-3,12.82,12.82,0,0,1,6.18,1.43l.1.06,1.41-5.76Z"/><path class="cls-2" d="M598.81,24.21a4.13,4.13,0,0,0-3.08,1.26,4.25,4.25,0,0,0-1.23,3.1,4.2,4.2,0,0,0,4.31,4.31,4.26,4.26,0,0,0,3.1-1.23,4.42,4.42,0,0,0,0-6.18A4.23,4.23,0,0,0,598.81,24.21Z"/><rect class="cls-2" x="595.88" y="42.59" width="5.86" height="36.12"/><path class="cls-2" d="M619.41,76.08c2.14,2.23,5.24,3.35,9.19,3.35a17.34,17.34,0,0,0,10.71-3.58l.06,0-2.74-4.43-.08,0a12.51,12.51,0,0,1-7.5,2.53,6.83,6.83,0,0,1-5.14-2c-1.26-1.32-1.91-3.34-1.91-6V47.89h15.22l-3.17-5.3H622V31.17h-5.82V42.59h-7.85v5.3h7.85V66.06C616.18,70.49,617.27,73.87,619.41,76.08Z"/><polygon class="cls-2" points="672.03 42.59 659.9 63.81 645.87 42.59 639.2 42.59 656.82 69.19 642.64 94.05 649.1 94.05 678.45 42.59 672.03 42.59"/></svg>