<?xml version="1.0" encoding="UTF-8"?>
<svg id="Layer_1" xmlns="http://www.w3.org/2000/svg" xmlns:xlink="http://www.w3.org/1999/xlink" version="1.1" viewBox="0 0 899 522">
  <!-- Generator: Adobe Illustrator 29.6.0, SVG Export Plug-In . SVG Version: 2.1.1 Build 207)  -->
  <defs>
    <style>
      .st0 {
        fill: none;
      }

      .st1 {
        fill: #edff95;
      }

      .st2, .st3 {
        fill: #007383;
      }

      .st4, .st5 {
        fill: #54d3de;
      }

      .st6, .st3, .st7, .st5, .st8, .st9 {
        fill-rule: evenodd;
      }

      .st6, .st10 {
        fill: #004b57;
      }

      .st7, .st11 {
        fill: #abf4f7;
      }

      .st12 {
        fill: #646900;
      }

      .st13, .st8 {
        fill: #00a0b2;
      }

      .st14, .st9 {
        fill: #0c0c0c;
      }

      .st15 {
        clip-path: url(#clippath);
      }
    </style>
    <clipPath id="clippath">
      <rect class="st0" x=".61" width="898" height="522"/>
    </clipPath>
  </defs>
  <g class="st15">
    <g>
      <path class="st1" d="M349.3,378.51v32.33h-28.38v-32.33h28.38ZM633.06,378.51v32.33h-28.38v-32.33h28.38ZM264.17,313.85h56.75v64.66h-56.75v-64.66ZM547.93,313.85h56.75v64.66h-56.75v-64.66Z"/>
      <path class="st12" d="M633.06,378.51h-28.38v-64.66s28.38,0,28.38,0v64.66Z"/>
      <path class="st12" d="M349.3,378.51h-28.38v-64.66h28.38v64.66Z"/>
      <path class="st7" d="M519.56,1089.74h28.38v32.32h28.38v64.66h-28.38v64.66h-28.38v32.33h-28.38v32.32h-28.38v32.33h-141.88v-32.33h-28.37v-32.32h-28.38v-96.99h28.38v-32.33h56.75v-32.33h28.37v-32.32h28.38v-32.33h113.5v32.33Z"/>
      <path class="st11" d="M718.19,1057.41h-28.37v-32.33h28.37v32.33Z"/>
      <path class="st11" d="M746.56,1025.08h-28.38v-32.33h28.38v32.33Z"/>
      <path class="st7" d="M547.93,831.11v-32.33h28.38v129.31h-28.38v32.33h-28.38v32.33h-85.13v-32.33h-28.38v-32.33h-28.37v-129.31h28.37v-32.33h141.88v64.66Z"/>
      <path class="st11" d="M774.94,960.42h-28.38v-193.97h28.38v193.97Z"/>
      <path class="st11" d="M746.56,766.45h-28.38v-129.31h28.38v129.31Z"/>
      <path class="st11" d="M462.8,669.47h-28.38v-64.66h28.38v64.66Z"/>
      <path class="st11" d="M434.43,507.82h28.38v64.66h-56.75v32.33h-56.75v-32.33h-28.38v-64.66h28.38v-32.33h85.13v32.33Z"/>
      <path class="st7" d="M604.69,507.82h28.38v64.66s-28.38,0-28.38,0v-32.33,64.66h-56.75v-32.33h-56.75v-64.66h28.38v-32.33h85.13v32.33ZM576.31,540.15h28.38,0s-28.37,0-28.37,0Z"/>
      <path class="st11" d="M774.94,604.81h-28.38v-32.33h28.38v32.33Z"/>
      <path class="st11" d="M831.69,540.15h-56.75v-32.33h56.75v32.33Z"/>
      <path class="st11" d="M860.07,475.49h-85.13v-32.33h85.13v32.33Z"/>
      <path class="st11" d="M803.32,410.84h-28.38v-32.33h28.38v32.33Z"/>
      <path class="st11" d="M774.94,378.51h-28.38v-32.33h28.38v32.33Z"/>
      <path class="st11" d="M689.81,152.21h28.38v129.31h-28.38v-96.99h-28.37v-32.33h-28.38v-32.33h56.75v32.33Z"/>
      <path class="st2" d="M-133.09,1283.71h-28.38v64.66h-56.75s0,32.32,0,32.32h-85.13v-32.32h28.38v-32.33h56.75v-32.33h28.38v-32.33h56.75v32.33Z"/>
      <path class="st2" d="M689.81,1154.39h-28.38v32.33h-28.38v129.32h28.38v32.32h-56.75s0-32.33,0-32.33h-56.75v-32.32h28.38v-64.66h28.37v-64.66h28.38v-32.32h28.38v-32.33h28.38v64.65Z"/>
      <path class="st3" d="M93.92,928.1h28.37v32.33h-56.75v32.33h-28.37v129.31h28.37v32.33h-28.37,56.75v32.33h85.13v64.66h-28.38v32.33h-56.75v-32.33H8.79v-64.66h-28.38v-32.33h-28.37v-161.64h28.37v-64.66h56.75v-32.33h56.75v32.33Z"/>
      <path class="st2" d="M-104.72,1251.38h-28.38v-32.33h28.38v32.33Z"/>
      <path class="st2" d="M179.04,863.44h28.38v64.66h28.38v32.33h28.38v32.33h28.37v64.66h-28.37v-32.33h-28.38v-32.33h-28.38v-32.33h-28.38v-64.66h-28.38v-161.65h28.38v129.32Z"/>
      <path class="st2" d="M377.67,992.75h-56.75v-32.33h56.75v32.33Z"/>
      <path class="st2" d="M661.44,928.09h-28.38v64.66h-56.75v-32.33h28.37v-64.66h28.38v-64.66h28.38v96.98Z"/>
      <path class="st2" d="M320.92,928.09h28.38v32.33h-28.38,0s-28.38,0-28.38,0v-64.66h28.38v32.33Z"/>
      <path class="st2" d="M235.79,701.79h-28.38v32.33h-28.38v-64.66h28.38v-32.32h28.38v64.65Z"/>
      <path class="st2" d="M65.54,572.48H-19.59v-32.33h56.75v-32.33h28.38v64.66Z"/>
      <path class="st2" d="M93.92,410.84h-28.37v-32.33h-28.38v-32.33h56.75v64.66Z"/>
      <path class="st2" d="M122.29,346.18h-28.38v-32.33h28.38v32.33Z"/>
      <path class="st2" d="M264.17,216.87h-28.38v-64.66h28.38v64.66Z"/>
      <path class="st2" d="M377.68,55.23h170.25v32.33h56.75v64.66s-28.37,0-28.37,0v32.33h-56.75v-64.66h-56.75v32.33h-56.75v-32.33h-56.75v-32.33h-85.13v-32.33h56.75V22.9h56.75v32.33Z"/>
      <path class="st2" d="M633.06,119.88h-28.38v-32.33s28.38,0,28.38,0v32.33Z"/>
      <path class="st13" d="M661.43,1283.71h28.38v32.33h-56.75v-129.32h28.38v96.99Z"/>
      <path class="st8" d="M150.66,992.75h28.38v32.33h28.37v32.33h-28.37v129.31h-85.13v-32.33h-28.37v-32.32h-28.38v-64.66h0v-32.33h0v-32.33h56.75v-32.33h56.75v32.33ZM65.53,1057.41h0v-32.33h0v32.33Z"/>
      <path class="st13" d="M661.43,960.42h28.38v64.66h-28.38,28.38v32.33h-56.75v-32.33h-28.38v-32.33h28.38v-64.66h28.37v32.33Z"/>
      <path class="st13" d="M235.79,766.45h28.38v64.66h28.38v129.31h28.38v64.66h-28.38v-32.33h-28.38v-32.33h-28.38v-32.33h-28.38v-64.66h-28.37v-129.31h28.37v-32.33h28.38v64.66Z"/>
      <path class="st13" d="M718.18,992.75h-28.38v-32.33s28.38,0,28.38,0v32.33Z"/>
      <path class="st13" d="M93.91,992.75h-28.38v-32.33h28.38v32.33Z"/>
      <path class="st13" d="M718.18,798.78h28.37v96.98h0v32.33h-28.38v-32.33,64.66s-56.75,0-56.75,0v-32.33s0-193.97,0-193.97h28.38v-32.33h28.38v96.99Z"/>
      <path class="st13" d="M264.17,766.45h-28.37v-32.33h28.37v32.33Z"/>
      <path class="st13" d="M434.43,669.47h85.13v-32.33h85.13v32.33h-56.75v32.33h-28.38v-32.33s0,32.33,0,32.33h-113.5v-32.33h-56.75v-32.33h85.13v32.33Z"/>
      <path class="st13" d="M235.79,410.84h28.38v64.65-32.33h141.88v32.33h-56.75v32.33h-28.38v32.33h-28.37v-32.33,64.66s28.37,0,28.37,0v32.33h-56.75s0-32.33,0-32.33h-28.37v-32.33h-28.38,28.37v96.99h-28.38v-96.99h-28.37v-64.66h28.37v32.33-32.33s-28.37,0-28.37,0v-32.33h28.37v-64.66s28.38,0,28.38,0v32.33Z"/>
      <path class="st13" d="M633.06,637.14h-28.38v-32.33h28.38v32.33Z"/>
      <path class="st13" d="M349.3,637.14h-28.38v-32.33h28.38v32.33Z"/>
      <path class="st8" d="M746.56,378.51h28.38v64.66h-28.38v-32.33h0v32.33h0v64.66h-28.38v64.66h-28.38v32.33h-56.75v-96.99h-28.37v-32.33h-56.76v-32.33h141.88v-32.33h28.38v-64.65h28.38v32.33ZM661.43,540.15h0s0-64.65,0-64.65v64.65Z"/>
      <path class="st8" d="M519.55,410.84h28.38v32.33h-141.88v-32.33h28.38v-64.66h85.13v64.66Z"/>
      <path class="st13" d="M491.17,184.54h0v64.66h56.75v-32.33h85.13v64.66h-368.89v-32.33h56.75v-32.33h56.75v-32.33h28.38v32.33h56.75v-64.66s28.37,0,28.37,0v32.33Z"/>
      <path class="st13" d="M377.67,216.87h-28.38v-32.33h28.38v32.33Z"/>
      <path class="st13" d="M576.3,87.55h-28.38v-32.33h-170.26V22.89h198.63v64.66Z"/>
      <path class="st13" d="M604.68,87.55h-28.38v-32.33h28.38v32.33Z"/>
      <path class="st4" d="M-303.35,1380.69h-28.38v-32.32h28.38v32.32Z"/>
      <path class="st4" d="M-274.98,1348.37h-28.38v-32.33h28.38v32.33Z"/>
      <path class="st4" d="M-218.22,1316.04h-56.75v-32.33h56.75v32.33Z"/>
      <path class="st4" d="M-189.85,1251.38v32.33h-56.75v-32.33h56.75Z"/>
      <path class="st4" d="M-133.09,1251.38h-56.75v-32.33h56.75v32.33Z"/>
      <path class="st4" d="M235.79,1089.73h28.38v32.33h28.38v64.66h-28.38v96.99h28.38v32.32h28.38v32.33h141.88v-32.33h28.38v-32.32h28.37v-32.33h28.38v-64.66h28.38v-32.33h28.38v64.66h-28.38v64.66h-28.38v32.33h-28.38v32.32h-28.37v32.33h-28.38v32.33h-28.38v32.33h-170.26v-32.33h-28.38v-32.33h-56.75v-32.33h28.37v-193.97h-28.37v-96.98h56.75v32.32Z"/>
      <path class="st4" d="M8.79,1380.69h-28.38v-32.33H8.79v32.33Z"/>
      <path class="st4" d="M-19.59,1348.36h-28.38v-32.33h28.38v32.33Z"/>
      <path class="st4" d="M-47.97,1316.03h-28.37s0-64.65,0-64.65h28.37v64.65Z"/>
      <path class="st4" d="M689.81,1283.71h-28.38v-129.32h28.38v129.32Z"/>
      <path class="st4" d="M-104.72,1186.72h28.38v64.66h-28.38v-32.33h-28.37v-258.63s28.37,0,28.37,0v226.3Z"/>
      <path class="st4" d="M689.81,1089.74h-28.38v-32.33h28.38v32.33Z"/>
      <path class="st5" d="M774.94,572.48h-28.38v64.66h-28.38v64.66h-28.38v32.33h-28.38v96.98h-28.38v64.66h-28.38v64.66h-28.38v32.33h-28.38v32.33h-56.75,28.37v32.33h-113.5v-32.33h-28.38v-64.66h-28.38v-32.33h-28.37v-32.33h-28.38v-161.64s0,0,0,0h-56.75s0-161.64,0-161.64h28.38v32.33h56.75v32.33h28.38v32.33h56.75s0,32.33,0,32.33h141.88v-32.33h56.75v-32.33h28.38v-32.33h56.75v-32.33h28.37v-64.66h28.38v-64.66h28.38v129.31ZM491.17,766.45h-85.13v32.33h-28.38v129.32h28.38v32.33h28.37v32.33h85.13v-32.33h28.38v-32.33h28.38v-129.31h-28.38v-32.33h-56.75ZM604.68,798.78h0s0-32.33,0-32.33v32.33Z"/>
      <path class="st4" d="M718.18,1025.08h-28.38v-32.33h28.38v32.33Z"/>
      <path class="st4" d="M746.56,992.75h-28.38v-64.66h28.38v64.66Z"/>
      <path class="st4" d="M-76.34,960.42h-28.38v-64.66h28.38v64.66Z"/>
      <path class="st4" d="M-47.97,895.77h-28.37s0-64.66,0-64.66h28.38v64.66Z"/>
      <path class="st4" d="M-19.59,831.11h-28.38v-64.66h28.38v64.66Z"/>
      <path class="st4" d="M292.54,831.11h-28.38v-96.99h28.38s0,96.99,0,96.99Z"/>
      <path class="st4" d="M746.56,798.78h-28.38v-32.33h28.38v32.33Z"/>
      <path class="st4" d="M8.79,766.45h-28.38v-32.33H8.79v32.33Z"/>
      <path class="st4" d="M37.16,734.12H8.79v-32.33h28.37v32.33Z"/>
      <path class="st4" d="M65.54,701.8h-28.38v-32.33h28.38v32.33Z"/>
      <path class="st4" d="M122.29,637.14h-28.37v32.33h-28.37v-32.33h28.37v-32.33h28.38v32.33Z"/>
      <path class="st4" d="M150.66,604.81h-28.38v-32.33h28.38v32.33Z"/>
      <path class="st4" d="M122.29,540.15h-56.75v-32.33h56.75v32.33Z"/>
      <path class="st4" d="M122.29,475.5H37.16v-32.33h85.13v32.33Z"/>
      <path class="st4" d="M150.66,410.84h-28.37v-32.33h28.37v32.33Z"/>
      <path class="st4" d="M179.04,378.51h-28.38v-64.66h28.38v64.66Z"/>
      <path class="st4" d="M207.42,313.85h-28.37v-64.66h28.37v64.66Z"/>
      <path class="st4" d="M661.43,249.19h28.38v32.33h-56.75v-64.66h-28.38v-32.33h28.38v-32.33h28.38v96.98Z"/>
      <path class="st4" d="M235.79,249.19h-28.38s0-96.98,0-96.98h28.38v96.98Z"/>
      <path class="st4" d="M320.92,152.21h56.75v32.33h-28.38v32.33h-28.37v32.33h-28.38v-96.98h-56.75v-32.33h85.13v32.33Z"/>
      <path class="st14" d="M179.04,1413.02h0v-32.33h56.75v64.66H65.53v-32.33h-28.38v-32.33h141.88v32.33Z"/>
      <path class="st14" d="M576.3,1380.69h85.13v64.66h-170.25v-32.33h28.37-56.75v-32.33h113.51Z"/>
      <path class="st9" d="M349.29,992.75h28.38v32.33h28.37v64.66h-28.37v32.32h-28.38v32.33h-56.75v-32.33h-28.38v-64.65h28.38v-32.33h28.38v-32.33h28.38Z"/>
      <path class="st14" d="M604.67,1025.08h28.38v32.33h28.38v64.65h-28.38v32.33h-56.75v-32.33h-28.38v-32.32h-28.38v-64.66h28.38v-32.33h56.75v32.33Z"/>
      <path class="st14" d="M519.55,507.82h-28.37v64.66h56.75v32.33h-141.88v-32.33h56.75v-64.66h-28.38v-32.33h85.13v32.33Z"/>
      <path class="st9" d="M292.54,313.85h-28.37v64.66h56.75v32.33h28.38v-96.98h-56.75v-32.33h425.63v32.33h0v96.99h-28.38v32.33h-141.89v-32.33h-28.37v-64.66h-85.13v64.66h-28.38s0,32.33,0,32.33h-141.88v-32.33h-28.37v-64.65h-28.38v-64.66h85.12v32.33ZM547.93,378.51h28.37v32.33h0v-32.33h28.38v32.33h28.37v-96.98h-85.13v64.66Z"/>
      <path class="st14" d="M746.56,346.18h-28.38v-64.66h28.38v64.66Z"/>
      <path class="st14" d="M292.55,216.87h-28.38v-64.66h28.38v64.66Z"/>
      <path class="st14" d="M689.81,216.87h-28.38v-32.33h28.38v32.33Z"/>
      <path class="st10" d="M264.16,1477.68H65.53v-32.33h170.26v-32.33h28.38v64.66Z"/>
      <path class="st10" d="M689.81,1477.68h-198.64v-32.33h170.26v-32.33h28.38v64.66Z"/>
      <path class="st10" d="M65.53,1445.35h-28.37v-32.33h28.37v32.33Z"/>
      <path class="st10" d="M491.17,1445.35h-28.38v-32.33h28.38v32.33Z"/>
      <path class="st10" d="M604.67,1348.36h56.76v32.33h-170.26v-32.33h28.38v-32.32h85.13v32.32Z"/>
      <path class="st10" d="M434.42,637.14h-85.13v-32.33h85.13v32.33Z"/>
      <path class="st10" d="M604.67,637.14h-85.13v-32.33h85.13v32.33Z"/>
      <path class="st10" d="M349.29,604.81h-28.38v-32.33h28.38v32.33Z"/>
      <path class="st10" d="M633.05,604.81h-28.38v-32.33h28.38v32.33Z"/>
      <path class="st10" d="M320.92,572.48h-28.38v-32.33h28.38v32.33Z"/>
      <path class="st10" d="M547.92,475.5h-141.88v-32.33h141.88v32.33Z"/>
      <path class="st10" d="M292.54,249.2h-28.38v32.33h-56.75v-32.33h28.38v-32.33h56.75v32.33Z"/>
      <path class="st10" d="M349.29,119.88h56.75v32.33h56.75v-32.33h56.75v64.66h56.75v-32.33h28.38v-32.33h28.38v64.66h-28.38v32.33h-56.75v32.33h-56.75v-96.99h-28.38v64.66h-56.75v-32.33h-28.38v-32.33h-56.75v-32.33h-85.13v-32.33h113.51v32.33Z"/>
      <path class="st10" d="M689.8,249.2h-28.38v-32.33h28.38v32.33Z"/>
      <path class="st10" d="M235.79,152.21h-28.38v-32.33h28.38v32.33Z"/>
      <path class="st6" d="M-19.6,1380.69h-28.37v32.33h-85.13v-32.33h0v32.33h0v32.33h-170.26v-32.33h-28.38v-32.33h113.5v-32.33h56.75v-64.65h28.37v-32.33h56.75v-64.66h-28.37v-226.3h28.37v-64.66h28.38v-64.66h28.37v-64.66H8.78v-32.33h28.38v-32.33h28.37v-32.33h28.38v-32.33h28.38v-32.33h28.38v-32.33h-28.38v32.33h-28.38v32.33h-28.38v32.33h-28.37v-32.33H8.78v-64.66h56.75v-32.33h56.75v-32.33h-56.75v-32.33h56.75s0-32.33,0-32.33h-28.38v-96.98h28.38v-64.66h28.38v-64.66h28.38v-64.66h28.38v96.99h-28.38v64.66h-28.38v64.66h-28.38v32.33h28.38v-32.33h28.38v-64.66h28.38v32.33h28.38v32.33h-28.38v64.66h-28.38v96.99h28.38v129.32h-28.38v64.66h-28.38v161.64h28.38v64.65h0s28.38,0,28.38,0v32.33h28.38v32.33h28.38v64.66h-28.38v-32.33h-28.38v-32.33h-28.38v-32.33h-28.38v-32.33h-28.38v-32.33h-28.38v-32.33h-56.75v32.33H-19.6v64.66h-28.37v161.64h28.37v32.33H8.78v64.66h85.13v32.33h56.75v-32.33h28.38v-96.99h28.38v193.97h-28.38v32.33H37.16v32.33H8.78v-64.66h-28.38v-32.32h-28.37v-64.66h-28.37v64.65s28.37.01,28.37.01v32.32h28.37v32.33ZM-76.35,1348.36v32.33h0v-32.33h0Z"/>
    </g>
  </g>
</svg>