<?xml version="1.0" encoding="UTF-8"?><svg id="Layer_1" xmlns="http://www.w3.org/2000/svg" viewBox="0 0 20 17.5"><defs><style>.cls-1{stroke-width:0px;}</style></defs><path class="cls-1" d="m12.24.04c1.02.2,1.68,1.19,1.47,2.21l-.09.45c-.21,1.04-.59,2.04-1.12,2.94h5.62c1.04,0,1.87.84,1.87,1.88,0,.72-.41,1.35-1.01,1.66.43.34.7.87.7,1.46,0,.91-.66,1.68-1.52,1.84.17.29.27.62.27.97,0,.83-.54,1.54-1.29,1.78.03.13.04.27.04.41,0,1.04-.84,1.88-1.88,1.88h-3.81c-.74,0-1.46-.22-2.08-.63l-1.5-1c-1.04-.7-1.67-1.87-1.67-3.12v-4.34c0-1.14.52-2.21,1.41-2.93l.29-.23c1.04-.83,1.74-1.99,2-3.29l.09-.45c.2-1.02,1.19-1.68,2.21-1.47h0ZM1.25,6.25h2.5c.69,0,1.25.56,1.25,1.25v8.75c0,.69-.56,1.25-1.25,1.25H1.25c-.69,0-1.25-.56-1.25-1.25V7.5c0-.69.56-1.25,1.25-1.25Z"/></svg>