<svg id="Layer_1" data-name="Layer 1" xmlns="http://www.w3.org/2000/svg" viewBox="0 0 180 80"><defs><style>.cls-1{fill:#e8edef;isolation:isolate;}.cls-2{fill:#0c0c0c;}.cls-3{fill:none;}</style></defs><path class="cls-1" d="M73.94,66.07l.65,1.83a1.9,1.9,0,0,0,2.6,1.24l8.67-3.08a1.9,1.9,0,0,0,1.24-2.6l-.65-1.83a2.13,2.13,0,0,0-2.6-1.24l-8.67,3.08A1.9,1.9,0,0,0,73.94,66.07ZM63.23,35.89a1.91,1.91,0,0,0,2.6,1.24l8.67-3.08a1.91,1.91,0,0,0,1.23-2.6l-.65-1.83a1.9,1.9,0,0,0-2.6-1.24l-8.67,3.08a1.9,1.9,0,0,0-1.23,2.6Zm-11,19.85.65,1.84a1.92,1.92,0,0,0,2.6,1.24l27.35-9.71a1.91,1.91,0,0,0,1.23-2.6l-.65-1.83a2.11,2.11,0,0,0-2.6-1.24L53.49,53.15A1.89,1.89,0,0,0,52.25,55.74Z"/><path class="cls-2" d="M81.9,35.08l10.94,7.29L93,55.62a3,3,0,0,0,4.75,2.26l10.3-8.26,12.67,4a2.86,2.86,0,0,0,3.57-3.71l-4.56-12.56,7.63-10.78A2.84,2.84,0,0,0,125,22.05l-13.25.48-8-10.59a2.78,2.78,0,0,0-5,.93L95.15,25.59,82.53,30A2.85,2.85,0,0,0,81.9,35.08Z"/><rect class="cls-3" width="180" height="80"/></svg>