<?xml version="1.0" encoding="UTF-8"?><svg id="Layer_1" xmlns="http://www.w3.org/2000/svg" viewBox="0 0 12.34 16.52"><defs><style>.cls-1{fill:none;stroke:#d6fb00;stroke-miterlimit:10;stroke-width:.75px;}.cls-2{fill:#565613;}.cls-2,.cls-3,.cls-4,.cls-5{stroke-width:0px;}.cls-3{fill:#1e1d08;}.cls-4{fill:#dff941;}.cls-5{fill:#fff;}</style></defs><path class="cls-3" d="m7.64.6H2.42C1.33.6.43,1.5.43,2.59v11.79c0,1.1.89,1.99,1.99,1.99h7.61c1.1,0,1.99-.89,1.99-1.99V4.62c-.03-.07-.06-.14-.08-.22l-3.45-3.45c-.23-.22-.54-.35-.85-.35h0Z"/><path class="cls-2" d="m.43,12.66c0,3.2.89,3.49,1.99,3.49h7.61c1.1,0,1.99-.89,1.99-1.99v-7.62c-.03-.07,0,.76-.08.33L.43,12.66Z"/><path class="cls-1" d="m7.57.38H2.37C1.27.38.38,1.26.38,2.37v11.79c0,1.1.89,1.99,1.99,1.99h7.61c1.1,0,1.99-.89,1.99-1.99V4.39c0-.09-.02-.13-.08-.22l-3.45-3.45c-.23-.22-.54-.35-.85-.35h0Z"/><g id="Icon_Dark_BG"><path class="cls-4" d="m8.83,7.56c-.37,0-.67.3-.67.67s.3.67.67.67.67-.3.67-.67-.3-.67-.67-.67Z"/><path class="cls-5" d="m7.76,9.09l-1.1.59c0,.05.01.1.01.16,0,.58-.48,1.06-1.06,1.06s-1.06-.48-1.06-1.06.48-1.06,1.06-1.06c.31,0,.59.14.78.35l1.02-.55-1.36-2.06h-.03c-.31,0-.57-.25-.57-.57s.25-.57.57-.57.57.25.57.57c0,.11-.03.21-.08.29l.8,1.2c.42-.36.69-.9.7-1.5,0-1.09-.88-1.98-1.97-1.98s-1.98.88-1.98,1.97c0,.57.25,1.1.64,1.46-.99.37-1.69,1.32-1.69,2.44,0,1.44,1.17,2.62,2.61,2.62.8,0,1.51-.36,2-.93l.38.58h1.77l-2-3.01h0Z"/></g></svg>