<svg id="Layer_1" data-name="Layer 1" xmlns="http://www.w3.org/2000/svg" viewBox="0 0 387.07 172.03"><defs><style>.cls-1{fill:none;}.cls-2{fill:#0c0c0c;}.cls-3{fill:#dff200;}.cls-4{fill:#fff;}</style></defs><rect class="cls-1" width="387.07" height="172.03"/><g id="LOGOS"><path class="cls-2" d="M193.54,138.66h0A52.65,52.65,0,0,1,140.89,86h0a52.65,52.65,0,0,1,52.65-52.65h0A52.65,52.65,0,0,1,246.18,86h0A52.64,52.64,0,0,1,193.54,138.66Z"/><path class="cls-3" d="M213,80a5,5,0,1,0,5,5A5,5,0,0,0,213,80Z"/><path class="cls-4" d="M204.92,91.55,196.6,96a8,8,0,1,1-1.93-4.12l7.73-4.16L192,72h-.24a4.33,4.33,0,1,1,3.62-2l6,9.07a15,15,0,1,0-19.68-.44,19.77,19.77,0,1,0,22,31.28l2.93,4.4H220Z"/></g></svg>