<?xml version="1.0" encoding="UTF-8"?><svg id="Layer_1" xmlns="http://www.w3.org/2000/svg" xmlns:xlink="http://www.w3.org/1999/xlink" viewBox="0 0 540 226"><defs><style>.cls-1{fill:none;}.cls-2{stroke:#d6fb00;stroke-miterlimit:10;stroke-width:17.13px;}.cls-2,.cls-3{fill:#0c0c0c;}.cls-4{fill:#dff941;}.cls-5{fill:#fff;}.cls-6{fill:#d6fb00;isolation:isolate;opacity:.15;}.cls-7{clip-path:url(#clippath);}</style><clipPath id="clippath"><rect class="cls-1" x="10" y="6.87" width="520" height="212.26"/></clipPath></defs><g class="cls-7"><path class="cls-3" d="M206.54,99.78h40.52c30.76,0,51.06,19.52,51.06,49.16s-20.3,49.16-51.06,49.16h-40.52v-98.32ZM246.85,118.11h-20.72v61.66h20.72c20.72,0,30.76-12.99,30.76-30.83s-10.04-30.83-30.76-30.83ZM346.97,128.22c21.21,0,36.87,15.31,36.87,35.82s-15.66,35.82-36.87,35.82-36.73-15.31-36.73-35.82,15.59-35.82,36.73-35.82ZM346.97,145.29c-10.32,0-18.05,7.72-18.05,18.75s7.72,18.75,18.05,18.75,18.12-7.73,18.12-18.75-7.8-18.75-18.12-18.75ZM430.83,128.22c11.38,0,21,4.64,27.25,12.85l-13.21,11.03c-4.14-4.42-8.57-6.81-14.54-6.81-9.48,0-17.07,7.44-17.07,18.75s7.51,18.75,17,18.75c5.9,0,10.96-2.67,14.82-6.88l13.06,11.17c-6.39,8.22-15.94,12.78-27.32,12.78-21.7,0-36.24-15.17-36.24-35.82s14.54-35.82,36.24-35.82ZM526.36,134.75l-6.18,14.26c-5.4-2.67-14.05-5.48-21.7-5.55-6.95,0-10.47,2.46-10.47,6.18,0,3.93,4.92,4.92,11.1,5.83l6.04.91c14.75,2.25,22.97,8.85,22.97,20.37,0,14.05-11.52,23.11-31.25,23.11-9.27,0-21.42-1.76-30.27-8.01l7.23-13.91c5.83,3.86,12.92,6.67,23.18,6.67,8.5,0,12.57-2.39,12.57-6.39,0-3.3-3.44-5.13-11.31-6.25l-5.55-.77c-15.73-2.18-23.53-9.06-23.53-20.65,0-13.98,10.81-22.26,28.72-22.26,10.88,0,19.38,2.04,28.44,6.46Z"/><path class="cls-3" d="M227.04,34.59l14.9,38.28h-8.15l-3.34-8.91h-16.32l-3.34,8.91h-7.96l14.9-38.28h9.3ZM222.31,42.14l-5.55,14.79h11.07l-5.52-14.79ZM278.76,45.66c6.23,0,10.44,4.18,10.44,10.34v16.87h-7.11v-14.57c0-3.83-1.94-5.93-5.17-5.93s-5.6,2-5.6,5.99v14.52h-7.14v-14.57c0-3.83-1.91-5.93-5.17-5.93-3.06,0-5.61,2-5.61,5.99v14.52h-7.14v-26.49h6.94v3.12c1.89-2.82,4.78-3.83,7.79-3.83,3.83,0,6.97,1.72,8.75,4.54,2.05-3.36,5.52-4.54,9-4.54ZM311.35,45.66c7.33,0,12.85,5.99,12.85,13.94s-5.52,13.94-12.82,13.94c-3.55,0-6.07-1.39-7.79-3.45v13.7h-7.11v-37.43h6.97v2.93c1.72-2.16,4.27-3.64,7.9-3.64ZM310.04,52.31c-4.05,0-6.81,3.12-6.81,7.3s2.76,7.3,6.81,7.3,6.84-3.25,6.84-7.3-2.62-7.3-6.84-7.3ZM341.77,45.66c7.63,0,12.85,5.66,12.88,13.92,0,.82-.05,1.8-.14,2.41h-18.78c.77,3.83,3.45,5.5,6.81,5.5,2.3,0,4.78-.93,6.7-2.54l4.18,4.59c-3.01,2.76-6.84,4.02-11.29,4.02-8.12,0-13.75-5.52-13.75-13.86s5.47-14.03,13.4-14.03ZM341.72,51.81c-3.36,0-5.33,2.02-5.96,5.3h11.73c-.66-3.39-2.71-5.3-5.77-5.3ZM374.83,45.66c1.53,0,2.73.22,3.72.57l-1.07,7.08c-1.18-.52-2.87-.85-4.32-.85-3.31,0-5.58,2.02-5.58,5.96v14.44h-7.14v-26.49h6.92v2.9c1.67-2.49,4.21-3.61,7.46-3.61ZM390.55,46.37v26.49h-7.14v-26.49h7.14ZM386.94,33.11c2.57,0,4.57,2.02,4.57,4.59s-2,4.54-4.57,4.54-4.54-1.97-4.54-4.54,1.97-4.59,4.54-4.59ZM417.27,46.37v6.34h-9.6v9.68c0,3.31,1.75,4.51,3.96,4.51,1.7,0,3.53-.85,4.98-1.72l2.62,5.58c-2.32,1.59-5,2.79-8.78,2.79-6.56,0-9.93-3.72-9.93-10.58v-10.25h-5.11v-6.34h5.11v-7.87h7.14v7.87h9.6ZM450.53,46.37l-20.26,37.54h-7.82l9.27-16.68-11.43-20.86h8.09l7.27,13.62,7.05-13.62h7.82Z"/><path class="cls-2" d="M106.36,13.78H39.54c-14.1,0-25.52,11.42-25.52,25.52v151.23c0,14.09,11.42,25.51,25.51,25.51h97.57c14.09,0,25.51-11.42,25.51-25.51v-125.23c-.39-.94-.74-1.78-1.13-2.73l-44.29-44.29c-2.87-2.87-6.77-4.49-10.84-4.49Z"/><path class="cls-6" d="M106.36,16.68H39.54c-14.1,0-25.52,11.43-25.52,25.52v151.23c0,14.09,11.42,25.51,25.51,25.51h97.57c14.09,0,25.51-11.42,25.51-25.51v-125.23c-.39-.94-.74-1.78-1.13-2.73l-44.29-44.29c-2.87-2.87-6.77-4.49-10.84-4.49Z"/><path class="cls-6" d="M14.02,145.81c-5.6,64.84,11.42,70.23,25.51,70.23h97.57c14.09,0,25.51-11.42,25.51-25.51v-97.68c-.39-.94,0-5.27-1.13-10.9L14.02,145.81Z"/><path class="cls-4" d="M119.21,109.76c-4.56,0-8.27,3.71-8.27,8.27s3.71,8.26,8.27,8.26,8.26-3.71,8.26-8.26c-.03-4.56-3.73-8.27-8.26-8.27Z"/><path class="cls-5" d="M105.98,128.75l-13.68,7.35c.11.66.14,1.33.14,1.99,0,7.27-5.94,13.19-13.21,13.19s-13.19-5.94-13.19-13.24,5.94-13.19,13.21-13.19c3.84,0,7.29,1.69,9.7,4.31l12.77-6.86-17-25.7c-.14,0-.25.03-.39.03-3.92,0-7.1-3.18-7.1-7.1s3.18-7.1,7.1-7.1,7.1,3.18,7.1,7.1c0,1.35-.42,2.57-1.05,3.65l9.92,14.98c5.28-4.51,8.65-11.19,8.68-18.66.03-13.57-11-24.62-24.57-24.65-13.57-.03-24.62,11-24.65,24.57,0,7.18,3.07,13.68,7.98,18.18-12.27,4.64-21.04,16.5-21.06,30.37-.03,17.94,14.54,32.56,32.48,32.59,9.95.03,18.88-4.45,24.85-11.53l4.81,7.24h22.03l-24.88-37.53h0Z"/></g><rect class="cls-1" width="540" height="226"/></svg>