<?xml version="1.0" encoding="UTF-8"?><svg id="Layer_1" xmlns="http://www.w3.org/2000/svg" xmlns:xlink="http://www.w3.org/1999/xlink" viewBox="0 0 708 230"><defs><style>.cls-1,.cls-2{fill:none;}.cls-3{fill:#007552;}.cls-4,.cls-5,.cls-6{fill:#fff;}.cls-7,.cls-8{fill:#0c0c0c;}.cls-9{fill:#0f0f0f;}.cls-10,.cls-11,.cls-12{fill:#a3a3a3;}.cls-5,.cls-2{stroke:#a3a3a3;stroke-miterlimit:10;stroke-width:.5px;}.cls-11{opacity:.15;}.cls-8{opacity:.2;}.cls-6{filter:url(#drop-shadow-35);}.cls-12{opacity:.6;}</style><filter id="drop-shadow-35" filterUnits="userSpaceOnUse"><feOffset dx="0" dy="0"/><feGaussianBlur result="blur" stdDeviation="5"/><feFlood flood-color="#000" flood-opacity=".5"/><feComposite in2="blur" operator="in"/><feComposite in="SourceGraphic"/></filter></defs><g><rect class="cls-6" x="20" y="19.92" width="668" height="190.16"/><g><rect class="cls-2" x="584.14" y="29.92" width="45" height="12.86"/><rect class="cls-3" x="633" y="29.92" width="45" height="12.86"/><g><path class="cls-4" d="M648.55,38.14l.28-.63c.3,.22,.76,.38,1.19,.38,.49,0,.69-.16,.69-.39,0-.67-2.09-.21-2.09-1.55,0-.61,.49-1.12,1.52-1.12,.45,0,.92,.11,1.25,.32l-.26,.63c-.33-.19-.68-.28-1-.28-.49,0-.68,.18-.68,.41,0,.66,2.09,.21,2.09,1.53,0,.6-.5,1.12-1.53,1.12-.57,0-1.15-.17-1.47-.42Z"/><path class="cls-4" d="M654.49,37.72h-1.67l-.32,.77h-.85l1.6-3.6h.82l1.61,3.6h-.87l-.32-.77Zm-.26-.63l-.57-1.38-.57,1.38h1.14Z"/><path class="cls-4" d="M659.32,34.9l-1.56,3.6h-.82l-1.55-3.6h.9l1.1,2.57,1.11-2.57h.83Z"/><path class="cls-4" d="M662.4,37.83v.67h-2.79v-3.6h2.72v.67h-1.89v.78h1.67v.65h-1.67v.83h1.96Z"/></g><g><path class="cls-7" d="M597.93,36.69c0-1.08,.83-1.86,1.95-1.86,.62,0,1.14,.23,1.48,.64l-.53,.49c-.24-.28-.55-.42-.91-.42-.67,0-1.15,.47-1.15,1.15s.48,1.15,1.15,1.15c.36,0,.66-.14,.91-.43l.53,.49c-.34,.42-.86,.64-1.49,.64-1.12,0-1.95-.78-1.95-1.86Z"/><path class="cls-7" d="M601.92,34.9h.83v2.92h1.8v.68h-2.64v-3.6Z"/><path class="cls-7" d="M604.74,36.69c0-1.07,.83-1.86,1.97-1.86s1.97,.79,1.97,1.86-.84,1.86-1.97,1.86-1.97-.79-1.97-1.86Zm3.1,0c0-.68-.48-1.15-1.13-1.15s-1.13,.47-1.13,1.15,.48,1.15,1.13,1.15,1.13-.47,1.13-1.15Z"/><path class="cls-7" d="M609.02,38.14l.28-.63c.3,.22,.76,.38,1.19,.38,.49,0,.69-.16,.69-.39,0-.67-2.09-.21-2.09-1.55,0-.61,.49-1.12,1.52-1.12,.45,0,.92,.11,1.25,.32l-.26,.63c-.33-.19-.68-.28-1-.28-.49,0-.68,.18-.68,.41,0,.66,2.09,.21,2.09,1.53,0,.6-.5,1.12-1.53,1.12-.57,0-1.15-.17-1.47-.42Z"/><path class="cls-7" d="M615.37,37.83v.67h-2.79v-3.6h2.72v.67h-1.89v.78h1.67v.65h-1.67v.83h1.96Z"/></g></g><g><path class="cls-9" d="M37.83,52.9v.82h-6.37v-9h6.17v.82h-5.22v3.2h4.66v.81h-4.66v3.34h5.42Z"/><path class="cls-9" d="M45.95,44.18v9.54h-.88v-1.34c-.55,.91-1.49,1.4-2.61,1.4-1.93,0-3.37-1.4-3.37-3.45s1.44-3.43,3.37-3.43c1.08,0,2.01,.46,2.57,1.34v-4.06h.91Zm-.9,6.16c0-1.58-1.08-2.64-2.51-2.64s-2.52,1.05-2.52,2.64,1.08,2.64,2.52,2.64,2.51-1.05,2.51-2.64Z"/><path class="cls-9" d="M48.28,44.82c0-.35,.3-.64,.67-.64s.67,.28,.67,.63c0,.37-.28,.67-.67,.67s-.67-.29-.67-.66Zm.21,2.14h.91v6.77h-.91v-6.77Z"/><path class="cls-9" d="M55.51,53.31c-.36,.32-.9,.48-1.43,.48-1.27,0-1.98-.72-1.98-1.97v-4.09h-1.21v-.77h1.21v-1.48h.91v1.48h2.06v.77h-2.06v4.04c0,.8,.41,1.23,1.17,1.23,.37,0,.75-.12,1-.35l.32,.66Z"/><path class="cls-9" d="M59.85,50.34c0-2.02,1.47-3.43,3.49-3.43,1.14,0,2.11,.45,2.65,1.34l-.68,.46c-.46-.68-1.18-1-1.97-1-1.48,0-2.56,1.05-2.56,2.64s1.08,2.64,2.56,2.64c.78,0,1.5-.31,1.97-.99l.68,.46c-.54,.87-1.51,1.34-2.65,1.34-2.02,0-3.49-1.43-3.49-3.45Z"/><path class="cls-9" d="M72.88,49.53v4.19h-.88v-1.05c-.41,.69-1.21,1.12-2.33,1.12-1.53,0-2.47-.8-2.47-1.97,0-1.04,.67-1.92,2.61-1.92h2.15v-.41c0-1.16-.66-1.79-1.92-1.79-.87,0-1.7,.31-2.25,.8l-.41-.68c.68-.58,1.69-.91,2.75-.91,1.75,0,2.74,.88,2.74,2.62Zm-.91,2.16v-1.11h-2.12c-1.31,0-1.74,.51-1.74,1.21,0,.78,.63,1.27,1.71,1.27s1.79-.49,2.15-1.38Z"/><path class="cls-9" d="M86.52,49.8v3.92h-.91v-3.83c0-1.43-.72-2.16-1.94-2.16-1.39,0-2.26,.9-2.26,2.44v3.55h-.91v-3.83c0-1.43-.72-2.16-1.96-2.16-1.38,0-2.26,.9-2.26,2.44v3.55h-.91v-6.77h.88v1.24c.48-.81,1.35-1.29,2.48-1.29s1.99,.48,2.41,1.43c.49-.87,1.45-1.43,2.68-1.43,1.65,0,2.73,.95,2.73,2.89Z"/><path class="cls-9" d="M95.86,50.34c0,2.06-1.44,3.45-3.37,3.45-1.08,0-2.01-.46-2.57-1.34v3.77h-.91v-9.26h.87v1.34c.55-.9,1.49-1.39,2.61-1.39,1.93,0,3.37,1.39,3.37,3.43Zm-.91,0c0-1.57-1.09-2.64-2.52-2.64s-2.52,1.07-2.52,2.64,1.08,2.64,2.52,2.64,2.52-1.05,2.52-2.64Z"/><path class="cls-9" d="M102.78,49.53v4.19h-.87v-1.05c-.41,.69-1.21,1.12-2.33,1.12-1.53,0-2.47-.8-2.47-1.97,0-1.04,.67-1.92,2.61-1.92h2.15v-.41c0-1.16-.66-1.79-1.92-1.79-.87,0-1.7,.31-2.25,.8l-.41-.68c.68-.58,1.69-.91,2.75-.91,1.75,0,2.74,.88,2.74,2.62Zm-.91,2.16v-1.11h-2.12c-1.31,0-1.74,.51-1.74,1.21,0,.78,.63,1.27,1.71,1.27s1.79-.49,2.15-1.38Z"/><path class="cls-9" d="M105.06,44.82c0-.35,.3-.64,.67-.64s.67,.28,.67,.63c0,.37-.28,.67-.67,.67s-.67-.29-.67-.66Zm.21,2.14h.91v6.77h-.91v-6.77Z"/><path class="cls-9" d="M114.99,46.95v5.94c0,2.33-1.15,3.38-3.38,3.38-1.23,0-2.44-.37-3.15-1.04l.46-.7c.64,.58,1.62,.93,2.66,.93,1.71,0,2.5-.78,2.5-2.46v-.86c-.57,.86-1.53,1.31-2.64,1.31-1.93,0-3.4-1.35-3.4-3.29s1.47-3.27,3.4-3.27c1.13,0,2.11,.46,2.68,1.35v-1.3h.87Zm-.89,3.22c0-1.47-1.08-2.47-2.57-2.47s-2.56,1-2.56,2.47,1.07,2.48,2.56,2.48,2.57-1.02,2.57-2.48Z"/><path class="cls-9" d="M123.77,49.8v3.92h-.91v-3.83c0-1.43-.75-2.16-2.03-2.16-1.45,0-2.37,.9-2.37,2.44v3.55h-.91v-6.77h.88v1.25c.49-.82,1.4-1.3,2.57-1.3,1.65,0,2.78,.95,2.78,2.89Z"/><path class="cls-9" d="M134.72,49.53v4.19h-.87v-1.05c-.41,.69-1.21,1.12-2.33,1.12-1.53,0-2.47-.8-2.47-1.97,0-1.04,.67-1.92,2.61-1.92h2.15v-.41c0-1.16-.66-1.79-1.92-1.79-.87,0-1.7,.31-2.25,.8l-.41-.68c.68-.58,1.68-.91,2.75-.91,1.75,0,2.74,.88,2.74,2.62Zm-.91,2.16v-1.11h-2.12c-1.31,0-1.74,.51-1.74,1.21,0,.78,.63,1.27,1.71,1.27s1.79-.49,2.15-1.38Z"/><path class="cls-9" d="M140.76,53.31c-.36,.32-.9,.48-1.43,.48-1.27,0-1.98-.72-1.98-1.97v-4.09h-1.21v-.77h1.21v-1.48h.91v1.48h2.06v.77h-2.06v4.04c0,.8,.41,1.23,1.17,1.23,.37,0,.75-.12,1-.35l.32,.66Z"/><path class="cls-9" d="M145.8,53.31c-.36,.32-.9,.48-1.43,.48-1.27,0-1.98-.72-1.98-1.97v-4.09h-1.21v-.77h1.21v-1.48h.91v1.48h2.06v.77h-2.06v4.04c0,.8,.41,1.23,1.17,1.23,.37,0,.75-.12,1-.35l.32,.66Z"/><path class="cls-9" d="M150.87,46.9v.89c-.08,0-.15-.01-.22-.01-1.41,0-2.28,.9-2.28,2.5v3.45h-.91v-6.77h.88v1.33c.42-.9,1.29-1.38,2.53-1.38Z"/><path class="cls-9" d="M152.3,44.82c0-.35,.3-.64,.67-.64s.67,.28,.67,.63c0,.37-.28,.67-.67,.67s-.67-.29-.67-.66Zm.21,2.14h.91v6.77h-.91v-6.77Z"/><path class="cls-9" d="M162.82,50.34c0,2.05-1.44,3.45-3.37,3.45-1.12,0-2.06-.49-2.61-1.4v1.34h-.88v-9.54h.91v4.06c.57-.88,1.49-1.34,2.57-1.34,1.93,0,3.37,1.39,3.37,3.43Zm-.91,0c0-1.58-1.09-2.64-2.52-2.64s-2.52,1.05-2.52,2.64,1.08,2.64,2.52,2.64,2.52-1.05,2.52-2.64Z"/><path class="cls-9" d="M170.78,46.95v6.77h-.88v-1.24c-.48,.82-1.35,1.3-2.43,1.3-1.72,0-2.86-.96-2.86-2.91v-3.92h.91v3.83c0,1.44,.75,2.17,2.03,2.17,1.41,0,2.3-.91,2.3-2.46v-3.55h.91Z"/><path class="cls-9" d="M176.9,53.31c-.36,.32-.9,.48-1.43,.48-1.27,0-1.98-.72-1.98-1.97v-4.09h-1.21v-.77h1.21v-1.48h.91v1.48h2.06v.77h-2.06v4.04c0,.8,.41,1.23,1.17,1.23,.37,0,.75-.12,1-.35l.32,.66Z"/><path class="cls-9" d="M184.2,50.62h-5.66c.1,1.42,1.18,2.35,2.66,2.35,.82,0,1.56-.3,2.07-.89l.51,.59c-.6,.72-1.54,1.11-2.61,1.11-2.11,0-3.55-1.44-3.55-3.45s1.4-3.43,3.31-3.43,3.28,1.4,3.28,3.43c0,.08-.01,.18-.01,.28Zm-5.66-.68h4.8c-.12-1.33-1.08-2.25-2.41-2.25s-2.28,.93-2.39,2.25Z"/><path class="cls-9" d="M185.14,52.95l.41-.72c.54,.42,1.45,.76,2.41,.76,1.29,0,1.81-.44,1.81-1.11,0-1.76-4.39-.37-4.39-3.05,0-1.11,.95-1.93,2.68-1.93,.88,0,1.83,.25,2.39,.63l-.4,.73c-.59-.41-1.3-.58-1.99-.58-1.22,0-1.76,.48-1.76,1.12,0,1.83,4.39,.45,4.39,3.05,0,1.17-1.03,1.93-2.79,1.93-1.12,0-2.2-.36-2.75-.84Z"/></g><g><path class="cls-9" d="M30.3,33.78c0-1.63,1.25-2.79,2.93-2.79,.93,0,1.71,.34,2.22,.96l-.8,.74c-.36-.42-.82-.63-1.36-.63-1.01,0-1.73,.71-1.73,1.73s.72,1.73,1.73,1.73c.54,0,1-.22,1.36-.64l.8,.74c-.51,.63-1.29,.96-2.23,.96-1.68,0-2.93-1.17-2.93-2.79Z"/><path class="cls-9" d="M39.86,34.11v2.37h-1.13v-.52c-.22,.38-.66,.58-1.27,.58-.97,0-1.55-.54-1.55-1.26s.52-1.24,1.78-1.24h.96c0-.52-.31-.82-.96-.82-.44,0-.9,.15-1.2,.39l-.43-.84c.46-.32,1.13-.5,1.79-.5,1.27,0,2,.59,2,1.84Zm-1.2,1.06v-.42h-.83c-.56,0-.74,.21-.74,.49,0,.3,.25,.5,.68,.5,.4,0,.75-.19,.89-.56Z"/><path class="cls-9" d="M47.96,34.1v2.38h-1.2v-2.19c0-.67-.3-.98-.79-.98-.54,0-.92,.35-.92,1.09v2.08h-1.2v-2.19c0-.67-.29-.98-.79-.98-.53,0-.91,.35-.91,1.09v2.08h-1.2v-4.15h1.15v.48c.31-.35,.77-.54,1.31-.54,.58,0,1.07,.22,1.37,.68,.33-.42,.87-.68,1.5-.68,.99,0,1.7,.57,1.7,1.84Z"/><path class="cls-9" d="M53.56,34.4c0,1.3-.9,2.14-2.07,2.14-.52,0-.94-.16-1.25-.5v1.94h-1.2v-5.65h1.15v.48c.3-.36,.75-.54,1.31-.54,1.17,0,2.07,.83,2.07,2.14Zm-1.22,0c0-.72-.46-1.15-1.06-1.15s-1.06,.43-1.06,1.15,.46,1.15,1.06,1.15,1.06-.43,1.06-1.15Z"/><path class="cls-9" d="M57.97,34.11v2.37h-1.13v-.52c-.22,.38-.66,.58-1.27,.58-.97,0-1.55-.54-1.55-1.26s.52-1.24,1.78-1.24h.96c0-.52-.31-.82-.96-.82-.44,0-.9,.15-1.2,.39l-.43-.84c.46-.32,1.13-.5,1.79-.5,1.27,0,2,.59,2,1.84Zm-1.2,1.06v-.42h-.83c-.56,0-.74,.21-.74,.49,0,.3,.25,.5,.68,.5,.4,0,.75-.19,.89-.56Z"/><path class="cls-9" d="M58.91,31.08c0-.38,.3-.67,.75-.67s.75,.28,.75,.65c0,.4-.3,.69-.75,.69s-.75-.29-.75-.67Zm.15,1.25h1.2v4.15h-1.2v-4.15Z"/><path class="cls-9" d="M65.66,32.33v3.46c0,1.54-.83,2.25-2.33,2.25-.79,0-1.55-.19-2.04-.57l.48-.87c.35,.29,.93,.47,1.47,.47,.85,0,1.22-.39,1.22-1.13v-.18c-.32,.35-.77,.52-1.31,.52-1.15,0-2.08-.79-2.08-2.01s.93-2.01,2.08-2.01c.58,0,1.06,.19,1.37,.59v-.53h1.14Zm-1.19,1.95c0-.61-.46-1.02-1.09-1.02s-1.1,.41-1.1,1.02,.46,1.02,1.1,1.02,1.09-.41,1.09-1.02Z"/><path class="cls-9" d="M71.03,34.1v2.38h-1.2v-2.19c0-.67-.31-.98-.84-.98-.58,0-1,.36-1,1.12v2.05h-1.2v-4.15h1.15v.49c.32-.36,.81-.55,1.37-.55,.98,0,1.72,.57,1.72,1.84Z"/><path class="cls-9" d="M79.34,31.08v5.4h-1.03l-2.69-3.28v3.28h-1.24v-5.4h1.03l2.69,3.28v-3.28h1.24Z"/><path class="cls-9" d="M84.21,34.11v2.37h-1.13v-.52c-.22,.38-.66,.58-1.27,.58-.97,0-1.55-.54-1.55-1.26s.52-1.24,1.78-1.24h.96c0-.52-.31-.82-.96-.82-.44,0-.9,.15-1.2,.39l-.43-.84c.46-.32,1.13-.5,1.79-.5,1.27,0,2,.59,2,1.84Zm-1.2,1.06v-.42h-.83c-.56,0-.74,.21-.74,.49,0,.3,.25,.5,.68,.5,.4,0,.75-.19,.89-.56Z"/><path class="cls-9" d="M92.31,34.1v2.38h-1.2v-2.19c0-.67-.3-.98-.79-.98-.54,0-.92,.35-.92,1.09v2.08h-1.2v-2.19c0-.67-.29-.98-.79-.98-.53,0-.91,.35-.91,1.09v2.08h-1.2v-4.15h1.15v.48c.31-.35,.77-.54,1.31-.54,.58,0,1.07,.22,1.37,.68,.33-.42,.87-.68,1.5-.68,.99,0,1.7,.57,1.7,1.84Z"/><path class="cls-9" d="M97.48,34.74h-3.14c.12,.52,.56,.83,1.19,.83,.44,0,.76-.13,1.04-.4l.64,.69c-.39,.44-.97,.67-1.71,.67-1.44,0-2.37-.9-2.37-2.14s.95-2.14,2.22-2.14,2.16,.82,2.16,2.15c0,.09-.02,.22-.02,.32Zm-3.16-.7h2.05c-.08-.53-.48-.87-1.02-.87s-.94,.33-1.03,.87Z"/></g><rect class="cls-12" x="24" y="61.77" width="660" height=".32"/><rect class="cls-11" x="20" y="130.83" width="668" height="20.5"/><rect class="cls-12" x="35.16" y="140.83" width="18" height=".5" transform="translate(-96.92 185.24) rotate(-90)"/><rect class="cls-12" x="191.16" y="140.83" width="18" height=".5" transform="translate(59.08 341.24) rotate(-90)"/><rect class="cls-12" x="344.87" y="140.58" width="18" height="1" transform="translate(212.8 494.95) rotate(-90)"/><rect class="cls-12" x="516.16" y="140.83" width="18" height=".5" transform="translate(384.08 666.24) rotate(-90)"/><rect class="cls-12" x="345.87" y="140.58" width="18" height="1" transform="translate(213.8 495.95) rotate(-90)"/><rect class="cls-12" x="35.16" y="160.83" width="18" height=".5" transform="translate(-116.92 205.24) rotate(-90)"/><rect class="cls-12" x="344.87" y="160.58" width="18" height="1" transform="translate(192.8 514.95) rotate(-90)"/><rect class="cls-12" x="516.16" y="160.83" width="18" height=".5" transform="translate(364.08 686.24) rotate(-90)"/><rect class="cls-12" x="345.87" y="160.58" width="18" height="1" transform="translate(193.8 515.95) rotate(-90)"/><rect class="cls-12" x="344.87" y="180.58" width="18" height="1" transform="translate(172.8 534.95) rotate(-90)"/><rect class="cls-12" x="516.16" y="180.83" width="18" height=".5" transform="translate(344.08 706.24) rotate(-90)"/><rect class="cls-12" x="345.87" y="180.58" width="18" height="1" transform="translate(173.8 535.95) rotate(-90)"/><rect class="cls-12" x="20" y="130.83" width="668" height=".5"/><g><path class="cls-9" d="M535.08,143.36l.33-.73c.35,.26,.88,.44,1.39,.44,.58,0,.81-.19,.81-.45,0-.79-2.44-.25-2.44-1.8,0-.71,.58-1.31,1.77-1.31,.53,0,1.07,.13,1.46,.37l-.3,.74c-.39-.22-.79-.33-1.16-.33-.58,0-.8,.22-.8,.48,0,.77,2.44,.24,2.44,1.78,0,.7-.58,1.3-1.78,1.3-.67,0-1.34-.2-1.71-.49Z"/><path class="cls-9" d="M538.97,141.67c0-1.25,.97-2.17,2.3-2.17s2.3,.92,2.3,2.17-.98,2.17-2.3,2.17-2.3-.92-2.3-2.17Zm3.61,0c0-.8-.56-1.34-1.31-1.34s-1.31,.54-1.31,1.34,.56,1.34,1.31,1.34,1.31-.55,1.31-1.34Z"/><path class="cls-9" d="M544.27,141.92v-2.35h.97v2.31c0,.8,.35,1.13,.94,1.13s.94-.33,.94-1.13v-2.31h.96v2.35c0,1.24-.71,1.92-1.9,1.92s-1.9-.68-1.9-1.92Z"/><path class="cls-9" d="M551.7,143.77l-.81-1.17h-.89v1.17h-.97v-4.2h1.82c1.12,0,1.82,.58,1.82,1.52,0,.63-.32,1.09-.86,1.33l.94,1.35h-1.04Zm-.91-3.41h-.79v1.46h.79c.59,0,.89-.28,.89-.73s-.3-.73-.89-.73Z"/><path class="cls-9" d="M553.18,141.67c0-1.26,.97-2.17,2.28-2.17,.73,0,1.33,.26,1.73,.74l-.62,.58c-.28-.32-.64-.49-1.06-.49-.79,0-1.34,.55-1.34,1.34s.56,1.34,1.34,1.34c.42,0,.77-.17,1.06-.5l.62,.58c-.4,.49-1,.75-1.73,.75-1.3,0-2.27-.91-2.27-2.17Z"/><path class="cls-9" d="M561.09,142.99v.78h-3.25v-4.2h3.17v.78h-2.21v.91h1.95v.76h-1.95v.97h2.29Z"/><path class="cls-9" d="M566.33,142.87h-1.95l-.37,.9h-1l1.87-4.2h.96l1.88,4.2h-1.02l-.37-.9Zm-.31-.74l-.67-1.61-.67,1.61h1.33Z"/><path class="cls-9" d="M568.82,140.36h-1.34v-.79h3.66v.79h-1.34v3.41h-.97v-3.41Z"/><path class="cls-9" d="M572.58,140.36h-1.34v-.79h3.66v.79h-1.34v3.41h-.97v-3.41Z"/><path class="cls-9" d="M578.1,143.77l-.81-1.17h-.89v1.17h-.97v-4.2h1.82c1.12,0,1.82,.58,1.82,1.52,0,.63-.32,1.09-.86,1.33l.94,1.35h-1.04Zm-.91-3.41h-.79v1.46h.79c.59,0,.89-.28,.89-.73s-.3-.73-.89-.73Z"/><path class="cls-9" d="M579.83,139.57h.97v4.2h-.97v-4.2Z"/><path class="cls-9" d="M585.65,142.62c0,.73-.58,1.14-1.68,1.14h-2.17v-4.2h2.05c1.05,0,1.59,.44,1.59,1.09,0,.42-.22,.74-.56,.92,.47,.15,.77,.51,.77,1.04Zm-2.88-2.32v.99h.97c.47,0,.73-.17,.73-.5s-.26-.49-.73-.49h-.97Zm1.91,2.22c0-.35-.27-.52-.77-.52h-1.13v1.04h1.13c.5,0,.77-.16,.77-.52Z"/><path class="cls-9" d="M586.35,141.92v-2.35h.97v2.31c0,.8,.35,1.13,.94,1.13s.94-.33,.94-1.13v-2.31h.96v2.35c0,1.24-.71,1.92-1.9,1.92s-1.9-.68-1.9-1.92Z"/><path class="cls-9" d="M591.92,140.36h-1.34v-.79h3.66v.79h-1.34v3.41h-.97v-3.41Z"/><path class="cls-9" d="M598,142.99v.78h-3.25v-4.2h3.17v.78h-2.21v.91h1.95v.76h-1.95v.97h2.28Z"/></g><g><path class="cls-9" d="M54.59,139.57h1.91c1.37,0,2.31,.83,2.31,2.1s-.94,2.1-2.31,2.1h-1.91v-4.2Zm1.86,3.4c.83,0,1.38-.5,1.38-1.3s-.55-1.3-1.38-1.3h-.89v2.6h.89Z"/><path class="cls-9" d="M62.79,142.99v.78h-3.25v-4.2h3.17v.78h-2.21v.91h1.95v.76h-1.95v.97h2.28Z"/><path class="cls-9" d="M63.24,143.36l.33-.73c.35,.26,.88,.44,1.39,.44,.58,0,.81-.19,.81-.45,0-.79-2.44-.25-2.44-1.8,0-.71,.58-1.31,1.77-1.31,.53,0,1.07,.13,1.46,.37l-.3,.74c-.39-.22-.79-.33-1.16-.33-.58,0-.8,.22-.8,.48,0,.77,2.44,.24,2.44,1.78,0,.7-.58,1.3-1.78,1.3-.67,0-1.34-.2-1.71-.49Z"/><path class="cls-9" d="M68.21,140.36h-1.34v-.79h3.66v.79h-1.34v3.41h-.97v-3.41Z"/><path class="cls-9" d="M71.05,139.57h.97v4.2h-.97v-4.2Z"/><path class="cls-9" d="M76.86,139.57v4.2h-.8l-2.09-2.55v2.55h-.96v-4.2h.8l2.09,2.55v-2.55h.96Z"/><path class="cls-9" d="M80.63,142.87h-1.95l-.37,.9h-1l1.87-4.2h.96l1.88,4.2h-1.02l-.37-.9Zm-.31-.74l-.67-1.61-.67,1.61h1.33Z"/><path class="cls-9" d="M83.12,140.36h-1.34v-.79h3.66v.79h-1.34v3.41h-.97v-3.41Z"/><path class="cls-9" d="M85.96,139.57h.97v4.2h-.97v-4.2Z"/><path class="cls-9" d="M87.66,141.67c0-1.25,.97-2.17,2.3-2.17s2.3,.92,2.3,2.17-.98,2.17-2.3,2.17-2.3-.92-2.3-2.17Zm3.61,0c0-.8-.56-1.34-1.31-1.34s-1.31,.54-1.31,1.34,.56,1.34,1.31,1.34,1.31-.55,1.31-1.34Z"/><path class="cls-9" d="M96.84,139.57v4.2h-.8l-2.09-2.55v2.55h-.96v-4.2h.8l2.09,2.55v-2.55h.96Z"/><path class="cls-9" d="M102.3,142.87h-1.95l-.37,.9h-1l1.87-4.2h.96l1.88,4.2h-1.02l-.37-.9Zm-.31-.74l-.67-1.61-.67,1.61h1.33Z"/><path class="cls-9" d="M104.79,140.36h-1.34v-.79h3.66v.79h-1.34v3.41h-.97v-3.41Z"/><path class="cls-9" d="M108.56,140.36h-1.34v-.79h3.66v.79h-1.34v3.41h-.97v-3.41Z"/><path class="cls-9" d="M114.07,143.77l-.81-1.17h-.89v1.17h-.97v-4.2h1.82c1.12,0,1.82,.58,1.82,1.52,0,.63-.32,1.09-.86,1.33l.94,1.35h-1.04Zm-.91-3.41h-.79v1.46h.79c.59,0,.89-.28,.89-.73s-.3-.73-.89-.73Z"/><path class="cls-9" d="M115.8,139.57h.97v4.2h-.97v-4.2Z"/><path class="cls-9" d="M121.62,142.62c0,.73-.58,1.14-1.68,1.14h-2.17v-4.2h2.05c1.05,0,1.59,.44,1.59,1.09,0,.42-.22,.74-.56,.92,.47,.15,.77,.51,.77,1.04Zm-2.88-2.32v.99h.97c.47,0,.73-.17,.73-.5s-.26-.49-.73-.49h-.97Zm1.91,2.22c0-.35-.27-.52-.77-.52h-1.13v1.04h1.13c.5,0,.77-.16,.77-.52Z"/><path class="cls-9" d="M122.33,141.92v-2.35h.97v2.31c0,.8,.35,1.13,.94,1.13s.94-.33,.94-1.13v-2.31h.96v2.35c0,1.24-.71,1.92-1.9,1.92s-1.9-.68-1.9-1.92Z"/><path class="cls-9" d="M127.89,140.36h-1.34v-.79h3.66v.79h-1.34v3.41h-.97v-3.41Z"/><path class="cls-9" d="M133.98,142.99v.78h-3.25v-4.2h3.17v.78h-2.21v.91h1.95v.76h-1.95v.97h2.29Z"/></g><g><path class="cls-9" d="M364.54,143.36l.33-.73c.35,.26,.88,.44,1.39,.44,.58,0,.81-.19,.81-.45,0-.79-2.44-.25-2.44-1.8,0-.71,.58-1.31,1.77-1.31,.53,0,1.07,.13,1.46,.37l-.3,.74c-.39-.22-.79-.33-1.16-.33-.58,0-.8,.22-.8,.48,0,.77,2.44,.24,2.44,1.78,0,.7-.58,1.3-1.78,1.3-.67,0-1.34-.2-1.71-.49Z"/><path class="cls-9" d="M368.44,141.67c0-1.25,.97-2.17,2.3-2.17s2.3,.92,2.3,2.17-.98,2.17-2.3,2.17-2.3-.92-2.3-2.17Zm3.61,0c0-.8-.56-1.34-1.31-1.34s-1.31,.54-1.31,1.34,.56,1.34,1.31,1.34,1.31-.55,1.31-1.34Z"/><path class="cls-9" d="M373.73,141.92v-2.35h.97v2.31c0,.8,.35,1.13,.94,1.13s.94-.33,.94-1.13v-2.31h.96v2.35c0,1.24-.71,1.92-1.9,1.92s-1.9-.68-1.9-1.92Z"/><path class="cls-9" d="M381.17,143.77l-.81-1.17h-.89v1.17h-.97v-4.2h1.82c1.12,0,1.82,.58,1.82,1.52,0,.63-.32,1.09-.86,1.33l.94,1.35h-1.04Zm-.91-3.41h-.79v1.46h.79c.59,0,.89-.28,.89-.73s-.3-.73-.89-.73Z"/><path class="cls-9" d="M382.64,141.67c0-1.26,.97-2.17,2.28-2.17,.73,0,1.33,.26,1.73,.74l-.62,.58c-.28-.32-.64-.49-1.06-.49-.79,0-1.34,.55-1.34,1.34s.56,1.34,1.34,1.34c.42,0,.77-.17,1.06-.5l.62,.58c-.4,.49-1,.75-1.73,.75-1.3,0-2.27-.91-2.27-2.17Z"/><path class="cls-9" d="M390.55,142.99v.78h-3.25v-4.2h3.17v.78h-2.21v.91h1.95v.76h-1.95v.97h2.28Z"/><path class="cls-9" d="M393.89,140.36h-1.34v-.79h3.66v.79h-1.34v3.41h-.97v-3.41Z"/><path class="cls-9" d="M399.29,142.87h-1.95l-.37,.9h-1l1.87-4.2h.96l1.88,4.2h-1.02l-.37-.9Zm-.31-.74l-.67-1.61-.67,1.61h1.33Z"/><path class="cls-9" d="M404.97,142.62c0,.73-.58,1.14-1.68,1.14h-2.17v-4.2h2.05c1.05,0,1.59,.44,1.59,1.09,0,.42-.22,.74-.56,.92,.47,.15,.77,.51,.77,1.04Zm-2.88-2.32v.99h.97c.47,0,.73-.17,.73-.5s-.26-.49-.73-.49h-.97Zm1.91,2.22c0-.35-.27-.52-.77-.52h-1.13v1.04h1.13c.5,0,.77-.16,.77-.52Z"/><path class="cls-9" d="M405.71,139.57h.97v3.41h2.1v.79h-3.08v-4.2Z"/><path class="cls-9" d="M412.58,142.99v.78h-3.25v-4.2h3.17v.78h-2.21v.91h1.95v.76h-1.95v.97h2.29Z"/></g><g><path class="cls-9" d="M210.13,142.08l.84-.08c.05,.28,.15,.49,.31,.62s.37,.2,.63,.2c.28,0,.49-.06,.63-.18s.21-.26,.21-.42c0-.1-.03-.19-.09-.26s-.16-.13-.31-.19c-.1-.04-.33-.1-.69-.19-.46-.12-.79-.26-.98-.42-.26-.24-.4-.53-.4-.87,0-.22,.06-.42,.19-.61s.3-.34,.54-.44,.52-.15,.85-.15c.54,0,.94,.12,1.22,.35s.42,.55,.43,.95l-.87,.04c-.04-.22-.12-.38-.24-.48s-.3-.15-.55-.15-.45,.05-.59,.16c-.09,.07-.14,.15-.14,.27,0,.1,.04,.19,.13,.26,.11,.09,.38,.19,.8,.29s.73,.2,.94,.31,.36,.25,.47,.44,.17,.41,.17,.68c0,.25-.07,.48-.21,.69s-.33,.37-.58,.48-.56,.16-.93,.16c-.54,0-.96-.12-1.25-.38s-.46-.62-.52-1.1Z"/><path class="cls-9" d="M215.32,143.47v-3.57h-1.27v-.73h3.41v.73h-1.27v3.57h-.87Z"/><path class="cls-9" d="M221.44,143.47h-.94l-.38-.97h-1.72l-.35,.97h-.92l1.67-4.29h.92l1.72,4.29Zm-1.6-1.7l-.59-1.59-.58,1.59h1.17Z"/><path class="cls-9" d="M222.42,143.47v-3.57h-1.27v-.73h3.41v.73h-1.27v3.57h-.87Z"/><path class="cls-9" d="M225.12,139.18h.87v2.33c0,.37,.01,.61,.03,.72,.04,.18,.12,.32,.26,.42s.33,.16,.57,.16,.43-.05,.56-.15,.2-.22,.23-.37,.04-.39,.04-.73v-2.38h.87v2.26c0,.52-.02,.88-.07,1.09s-.13,.39-.26,.54-.29,.26-.5,.35-.49,.13-.83,.13c-.41,0-.72-.05-.93-.14s-.38-.22-.5-.37-.2-.31-.24-.48c-.06-.25-.08-.61-.08-1.09v-2.29Z"/><path class="cls-9" d="M229.24,142.08l.84-.08c.05,.28,.15,.49,.31,.62s.37,.2,.63,.2c.28,0,.49-.06,.63-.18s.21-.26,.21-.42c0-.1-.03-.19-.09-.26s-.16-.13-.31-.19c-.1-.04-.33-.1-.69-.19-.46-.12-.79-.26-.98-.42-.26-.24-.4-.53-.4-.87,0-.22,.06-.42,.19-.61s.3-.34,.54-.44,.52-.15,.85-.15c.54,0,.94,.12,1.22,.35s.42,.55,.43,.95l-.87,.04c-.04-.22-.12-.38-.24-.48s-.3-.15-.55-.15-.45,.05-.59,.16c-.09,.07-.14,.15-.14,.27,0,.1,.04,.19,.13,.26,.11,.09,.38,.19,.8,.29s.73,.2,.94,.31,.36,.25,.47,.44,.17,.41,.17,.68c0,.25-.07,.48-.21,.69s-.33,.37-.58,.48-.56,.16-.93,.16c-.54,0-.96-.12-1.25-.38s-.46-.62-.52-1.1Z"/></g><g><path class="cls-9" d="M538.32,182.43h-2.58c.07,.56,.52,.93,1.15,.93,.37,0,.68-.13,.92-.38l.32,.37c-.29,.34-.73,.52-1.25,.52-1.03,0-1.71-.68-1.71-1.62s.68-1.62,1.59-1.62,1.57,.66,1.57,1.64c0,.05,0,.12-.01,.17Zm-2.58-.41h2.04c-.06-.53-.46-.91-1.02-.91s-.96,.37-1.02,.91Z"/><path class="cls-9" d="M544.41,182v1.83h-.58v-1.76c0-.62-.3-.93-.82-.93-.58,0-.95,.37-.95,1.05v1.64h-.58v-1.76c0-.62-.3-.93-.82-.93-.58,0-.95,.37-.95,1.05v1.64h-.58v-3.18h.55v.47c.23-.32,.62-.5,1.1-.5s.89,.19,1.1,.59c.24-.36,.68-.59,1.22-.59,.77,0,1.3,.44,1.3,1.38Z"/><path class="cls-9" d="M547.99,181.91v1.92h-.55v-.42c-.19,.29-.55,.46-1.04,.46-.72,0-1.18-.38-1.18-.94,0-.51,.33-.93,1.28-.93h.91v-.11c0-.49-.28-.77-.85-.77-.38,0-.76,.13-1.01,.34l-.24-.43c.33-.26,.8-.41,1.31-.41,.87,0,1.36,.42,1.36,1.29Zm-.58,.95v-.44h-.89c-.57,0-.73,.22-.73,.49,0,.32,.26,.52,.7,.52s.77-.2,.92-.56Z"/><path class="cls-9" d="M548.96,179.67c0-.21,.17-.38,.39-.38s.39,.16,.39,.37c0,.22-.16,.38-.39,.38s-.39-.16-.39-.37Zm.1,.98h.58v3.18h-.58v-3.18Z"/><path class="cls-9" d="M550.73,179.38h.58v4.45h-.58v-4.45Z"/></g><g><path class="cls-9" d="M538.75,162.24c0,.98-.68,1.62-1.61,1.62-.45,0-.85-.17-1.11-.52v1.64h-.58v-4.34h.55v.5c.26-.35,.67-.53,1.13-.53,.93,0,1.61,.65,1.61,1.62Zm-.58,0c0-.67-.46-1.12-1.07-1.12s-1.07,.44-1.07,1.12,.46,1.12,1.07,1.12,1.07-.44,1.07-1.12Z"/><path class="cls-9" d="M542.57,162v1.83h-.58v-1.76c0-.62-.31-.93-.86-.93-.61,0-1.01,.37-1.01,1.05v1.64h-.58v-4.45h.58v1.72c.24-.31,.64-.48,1.12-.48,.77,0,1.32,.44,1.32,1.38Z"/><path class="cls-9" d="M543.36,162.24c0-.95,.7-1.62,1.66-1.62s1.65,.67,1.65,1.62-.7,1.62-1.65,1.62-1.66-.68-1.66-1.62Zm2.72,0c0-.68-.46-1.12-1.07-1.12s-1.07,.44-1.07,1.12,.46,1.12,1.07,1.12,1.07-.44,1.07-1.12Z"/><path class="cls-9" d="M550.48,162v1.83h-.58v-1.76c0-.62-.31-.93-.86-.93-.61,0-1.01,.37-1.01,1.05v1.64h-.58v-3.18h.55v.48c.23-.32,.64-.51,1.15-.51,.77,0,1.32,.44,1.32,1.38Z"/><path class="cls-9" d="M554.43,162.43h-2.58c.07,.56,.52,.93,1.15,.93,.37,0,.68-.13,.92-.38l.32,.37c-.29,.34-.73,.52-1.25,.52-1.03,0-1.71-.68-1.71-1.62s.68-1.62,1.6-1.62,1.57,.66,1.57,1.64c0,.05,0,.12-.01,.17Zm-2.58-.41h2.04c-.06-.53-.46-.91-1.02-.91s-.96,.37-1.02,.91Z"/></g><g><path class="cls-9" d="M368.9,183.83v-3.06s-1.52,2.55-1.52,2.55h-.28l-1.52-2.53v3.04h-.58v-4.2h.49l1.75,2.95,1.73-2.95h.49v4.2s-.57,0-.57,0Z"/><path class="cls-9" d="M373.51,182.43h-2.58c.07,.56,.52,.93,1.15,.93,.37,0,.68-.13,.92-.38l.32,.37c-.29,.34-.73,.52-1.25,.52-1.03,0-1.71-.68-1.71-1.62s.68-1.62,1.59-1.62,1.57,.66,1.57,1.64c0,.05,0,.12-.01,.17Zm-2.58-.41h2.04c-.06-.53-.46-.91-1.02-.91s-.96,.37-1.02,.91Z"/><path class="cls-9" d="M376.03,180.62v.56s-.09,0-.13,0c-.62,0-1,.38-1,1.07v1.58h-.58v-3.18h.55v.53c.2-.37,.6-.56,1.16-.56Z"/><path class="cls-9" d="M379.75,180.65v2.75c0,1.12-.57,1.63-1.65,1.63-.58,0-1.17-.16-1.52-.47l.28-.44c.29,.25,.76,.41,1.22,.41,.75,0,1.09-.35,1.09-1.07v-.25c-.28,.33-.69,.49-1.15,.49-.92,0-1.61-.62-1.61-1.54s.7-1.54,1.61-1.54c.47,0,.91,.17,1.17,.52v-.49h.55Zm-.56,1.51c0-.62-.46-1.03-1.09-1.03s-1.1,.41-1.1,1.03,.46,1.04,1.1,1.04,1.09-.43,1.09-1.04Z"/><path class="cls-9" d="M383.71,182.43h-2.58c.07,.56,.52,.93,1.15,.93,.37,0,.68-.13,.92-.38l.32,.37c-.29,.34-.73,.52-1.25,.52-1.03,0-1.71-.68-1.71-1.62s.68-1.62,1.6-1.62,1.57,.66,1.57,1.64c0,.05,0,.12-.01,.17Zm-2.58-.41h2.04c-.06-.53-.46-.91-1.02-.91s-.96,.37-1.02,.91Z"/><path class="cls-9" d="M387.52,179.38v4.45h-.55v-.5c-.26,.36-.67,.54-1.13,.54-.93,0-1.61-.65-1.61-1.62s.68-1.62,1.61-1.62c.45,0,.85,.17,1.11,.51v-1.75h.58Zm-.57,2.86c0-.68-.46-1.12-1.07-1.12s-1.07,.44-1.07,1.12,.46,1.12,1.07,1.12,1.07-.44,1.07-1.12Z"/><path class="cls-9" d="M388.07,183.83h3v.37h-3v-.37Z"/><path class="cls-9" d="M391.18,181.73c0-1.24,.95-2.15,2.22-2.15,.65,0,1.21,.22,1.6,.65l-.39,.38c-.32-.34-.72-.5-1.18-.5-.95,0-1.65,.68-1.65,1.61s.7,1.61,1.65,1.61c.46,0,.86-.16,1.18-.5l.39,.38c-.38,.43-.95,.66-1.6,.66-1.27,0-2.22-.91-2.22-2.15Z"/><path class="cls-9" d="M398.63,180.65v3.18h-.55v-.48c-.23,.33-.63,.52-1.08,.52-.82,0-1.37-.45-1.37-1.39v-1.83h.58v1.76c0,.62,.31,.94,.86,.94,.6,0,.98-.37,.98-1.06v-1.64h.58Z"/><path class="cls-9" d="M399.33,183.49l.24-.46c.27,.19,.7,.33,1.12,.33,.53,0,.76-.16,.76-.43,0-.71-2.01-.1-2.01-1.36,0-.57,.51-.95,1.33-.95,.41,0,.88,.11,1.16,.29l-.25,.46c-.29-.19-.61-.25-.92-.25-.5,0-.75,.19-.75,.44,0,.75,2.02,.14,2.02,1.37,0,.58-.53,.94-1.37,.94-.53,0-1.05-.16-1.31-.37Z"/><path class="cls-9" d="M404.52,183.64c-.17,.15-.44,.22-.7,.22-.64,0-1.01-.35-1.01-1v-1.74h-.54v-.47h.54v-.7h.58v.7h.91v.47h-.91v1.72c0,.34,.18,.53,.5,.53,.17,0,.33-.05,.45-.15l.18,.41Z"/><path class="cls-9" d="M404.82,182.24c0-.95,.7-1.62,1.65-1.62s1.65,.67,1.65,1.62-.7,1.62-1.65,1.62-1.65-.68-1.65-1.62Zm2.72,0c0-.68-.46-1.12-1.07-1.12s-1.07,.44-1.07,1.12,.46,1.12,1.07,1.12,1.07-.44,1.07-1.12Z"/><path class="cls-9" d="M414.2,182v1.83h-.58v-1.76c0-.62-.3-.93-.82-.93-.58,0-.95,.37-.95,1.05v1.64h-.58v-1.76c0-.62-.3-.93-.82-.93-.58,0-.95,.37-.95,1.05v1.64h-.58v-3.18h.55v.47c.23-.32,.62-.5,1.1-.5s.89,.19,1.1,.59c.24-.36,.68-.59,1.22-.59,.77,0,1.3,.44,1.3,1.38Z"/><path class="cls-9" d="M418.14,182.43h-2.58c.07,.56,.52,.93,1.15,.93,.37,0,.68-.13,.92-.38l.32,.37c-.29,.34-.73,.52-1.25,.52-1.03,0-1.71-.68-1.71-1.62s.68-1.62,1.6-1.62,1.57,.66,1.57,1.64c0,.05,0,.12-.01,.17Zm-2.58-.41h2.04c-.06-.53-.46-.91-1.02-.91s-.96,.37-1.02,.91Z"/><path class="cls-9" d="M420.66,180.62v.56s-.09,0-.13,0c-.62,0-1,.38-1,1.07v1.58h-.58v-3.18h.55v.53c.2-.37,.6-.56,1.16-.56Z"/><path class="cls-9" d="M421,183.49l.24-.46c.27,.19,.7,.33,1.12,.33,.53,0,.76-.16,.76-.43,0-.71-2.01-.1-2.01-1.36,0-.57,.51-.95,1.33-.95,.41,0,.88,.11,1.16,.29l-.25,.46c-.29-.19-.61-.25-.92-.25-.5,0-.75,.19-.75,.44,0,.75,2.02,.14,2.02,1.37,0,.58-.53,.94-1.37,.94-.53,0-1.05-.16-1.31-.37Z"/></g><g><path class="cls-9" d="M368.9,163.83v-3.06s-1.52,2.55-1.52,2.55h-.28l-1.52-2.53v3.04h-.58v-4.2h.49l1.75,2.95,1.73-2.95h.49v4.2s-.57,0-.57,0Z"/><path class="cls-9" d="M373.51,162.43h-2.58c.07,.56,.52,.93,1.15,.93,.37,0,.68-.13,.92-.38l.32,.37c-.29,.34-.73,.52-1.25,.52-1.03,0-1.71-.68-1.71-1.62s.68-1.62,1.59-1.62,1.57,.66,1.57,1.64c0,.05,0,.12-.01,.17Zm-2.58-.41h2.04c-.06-.53-.46-.91-1.02-.91s-.96,.37-1.02,.91Z"/><path class="cls-9" d="M376.03,160.62v.56s-.09,0-.13,0c-.62,0-1,.38-1,1.07v1.58h-.58v-3.18h.55v.53c.2-.37,.6-.56,1.16-.56Z"/><path class="cls-9" d="M379.75,160.65v2.75c0,1.12-.57,1.63-1.65,1.63-.58,0-1.17-.16-1.52-.47l.28-.44c.29,.25,.76,.41,1.22,.41,.75,0,1.09-.35,1.09-1.07v-.25c-.28,.33-.69,.49-1.15,.49-.92,0-1.61-.62-1.61-1.54s.7-1.54,1.61-1.54c.47,0,.91,.17,1.17,.52v-.49h.55Zm-.56,1.51c0-.62-.46-1.03-1.09-1.03s-1.1,.41-1.1,1.03,.46,1.04,1.1,1.04,1.09-.43,1.09-1.04Z"/><path class="cls-9" d="M383.71,162.43h-2.58c.07,.56,.52,.93,1.15,.93,.37,0,.68-.13,.92-.38l.32,.37c-.29,.34-.73,.52-1.25,.52-1.03,0-1.71-.68-1.71-1.62s.68-1.62,1.6-1.62,1.57,.66,1.57,1.64c0,.05,0,.12-.01,.17Zm-2.58-.41h2.04c-.06-.53-.46-.91-1.02-.91s-.96,.37-1.02,.91Z"/><path class="cls-9" d="M387.52,159.38v4.45h-.55v-.5c-.26,.36-.67,.54-1.13,.54-.93,0-1.61-.65-1.61-1.62s.68-1.62,1.61-1.62c.45,0,.85,.17,1.11,.51v-1.75h.58Zm-.57,2.86c0-.68-.46-1.12-1.07-1.12s-1.07,.44-1.07,1.12,.46,1.12,1.07,1.12,1.07-.44,1.07-1.12Z"/><path class="cls-9" d="M388.07,163.83h3v.37h-3v-.37Z"/><path class="cls-9" d="M391.18,161.73c0-1.24,.95-2.15,2.22-2.15,.65,0,1.21,.22,1.6,.65l-.39,.38c-.32-.34-.72-.5-1.18-.5-.95,0-1.65,.68-1.65,1.61s.7,1.61,1.65,1.61c.46,0,.86-.16,1.18-.5l.39,.38c-.38,.43-.95,.66-1.6,.66-1.27,0-2.22-.91-2.22-2.15Z"/><path class="cls-9" d="M398.63,160.65v3.18h-.55v-.48c-.23,.33-.63,.52-1.08,.52-.82,0-1.37-.45-1.37-1.39v-1.83h.58v1.76c0,.62,.31,.94,.86,.94,.6,0,.98-.37,.98-1.06v-1.64h.58Z"/><path class="cls-9" d="M399.33,163.49l.24-.46c.27,.19,.7,.33,1.12,.33,.53,0,.76-.16,.76-.43,0-.71-2.01-.1-2.01-1.36,0-.57,.51-.95,1.33-.95,.41,0,.88,.11,1.16,.29l-.25,.46c-.29-.19-.61-.25-.92-.25-.5,0-.75,.19-.75,.44,0,.75,2.02,.14,2.02,1.37,0,.58-.53,.94-1.37,.94-.53,0-1.05-.16-1.31-.37Z"/><path class="cls-9" d="M404.52,163.64c-.17,.15-.44,.22-.7,.22-.64,0-1.01-.35-1.01-1v-1.74h-.54v-.47h.54v-.7h.58v.7h.91v.47h-.91v1.72c0,.34,.18,.53,.5,.53,.17,0,.33-.05,.45-.15l.18,.41Z"/><path class="cls-9" d="M404.82,162.24c0-.95,.7-1.62,1.65-1.62s1.65,.67,1.65,1.62-.7,1.62-1.65,1.62-1.65-.68-1.65-1.62Zm2.72,0c0-.68-.46-1.12-1.07-1.12s-1.07,.44-1.07,1.12,.46,1.12,1.07,1.12,1.07-.44,1.07-1.12Z"/><path class="cls-9" d="M414.2,162v1.83h-.58v-1.76c0-.62-.3-.93-.82-.93-.58,0-.95,.37-.95,1.05v1.64h-.58v-1.76c0-.62-.3-.93-.82-.93-.58,0-.95,.37-.95,1.05v1.64h-.58v-3.18h.55v.47c.23-.32,.62-.5,1.1-.5s.89,.19,1.1,.59c.24-.36,.68-.59,1.22-.59,.77,0,1.3,.44,1.3,1.38Z"/><path class="cls-9" d="M418.14,162.43h-2.58c.07,.56,.52,.93,1.15,.93,.37,0,.68-.13,.92-.38l.32,.37c-.29,.34-.73,.52-1.25,.52-1.03,0-1.71-.68-1.71-1.62s.68-1.62,1.6-1.62,1.57,.66,1.57,1.64c0,.05,0,.12-.01,.17Zm-2.58-.41h2.04c-.06-.53-.46-.91-1.02-.91s-.96,.37-1.02,.91Z"/><path class="cls-9" d="M420.66,160.62v.56s-.09,0-.13,0c-.62,0-1,.38-1,1.07v1.58h-.58v-3.18h.55v.53c.2-.37,.6-.56,1.16-.56Z"/><path class="cls-9" d="M421,163.49l.24-.46c.27,.19,.7,.33,1.12,.33,.53,0,.76-.16,.76-.43,0-.71-2.01-.1-2.01-1.36,0-.57,.51-.95,1.33-.95,.41,0,.88,.11,1.16,.29l-.25,.46c-.29-.19-.61-.25-.92-.25-.5,0-.75,.19-.75,.44,0,.75,2.02,.14,2.02,1.37,0,.58-.53,.94-1.37,.94-.53,0-1.05-.16-1.31-.37Z"/></g><g><path class="cls-9" d="M31.9,119.51l.3-.62c.42,.38,1.13,.65,1.85,.65,.97,0,1.38-.38,1.38-.86,0-1.37-3.39-.5-3.39-2.58,0-.86,.67-1.6,2.14-1.6,.66,0,1.34,.18,1.8,.5l-.26,.64c-.49-.31-1.04-.46-1.54-.46-.95,0-1.36,.4-1.36,.89,0,1.37,3.39,.51,3.39,2.57,0,.86-.69,1.59-2.17,1.59-.86,0-1.7-.29-2.14-.7Z"/><path class="cls-9" d="M41.08,118.29h-3.44c.1,.74,.7,1.24,1.54,1.24,.5,0,.91-.17,1.22-.51l.42,.5c-.38,.45-.97,.69-1.67,.69-1.37,0-2.28-.9-2.28-2.17s.9-2.16,2.13-2.16,2.09,.88,2.09,2.18c0,.06,0,.16-.02,.23Zm-3.44-.55h2.72c-.08-.71-.62-1.21-1.36-1.21s-1.28,.5-1.36,1.21Z"/><path class="cls-9" d="M42.16,114.22h.77v5.93h-.77v-5.93Z"/><path class="cls-9" d="M48.21,118.29h-3.44c.1,.74,.7,1.24,1.54,1.24,.5,0,.91-.17,1.22-.51l.42,.5c-.38,.45-.97,.69-1.67,.69-1.37,0-2.28-.9-2.28-2.17s.9-2.16,2.13-2.16,2.09,.88,2.09,2.18c0,.06,0,.16-.02,.23Zm-3.44-.55h2.72c-.08-.71-.62-1.21-1.36-1.21s-1.28,.5-1.36,1.21Z"/><path class="cls-9" d="M48.9,118.03c0-1.26,.94-2.16,2.24-2.16,.76,0,1.39,.31,1.73,.9l-.58,.38c-.27-.42-.69-.61-1.15-.61-.83,0-1.46,.58-1.46,1.49s.62,1.49,1.46,1.49c.46,0,.88-.19,1.15-.61l.58,.37c-.34,.59-.97,.91-1.73,.91-1.3,0-2.24-.9-2.24-2.17Z"/><path class="cls-9" d="M56.29,119.9c-.23,.2-.58,.29-.93,.29-.86,0-1.34-.47-1.34-1.33v-2.33h-.72v-.63h.72v-.93h.77v.93h1.22v.63h-1.22v2.29c0,.46,.24,.71,.66,.71,.22,0,.44-.07,.6-.2l.24,.55Z"/><path class="cls-9" d="M62.73,117.59v2.56h-.73v-.56c-.26,.38-.73,.61-1.39,.61-.96,0-1.57-.51-1.57-1.25,0-.68,.44-1.24,1.7-1.24h1.21v-.15c0-.65-.38-1.02-1.13-1.02-.5,0-1.02,.18-1.34,.46l-.32-.58c.44-.35,1.07-.54,1.75-.54,1.16,0,1.81,.56,1.81,1.72Zm-.77,1.26v-.59h-1.18c-.76,0-.98,.3-.98,.66,0,.42,.35,.69,.94,.69s1.03-.26,1.22-.75Z"/><path class="cls-9" d="M66.54,119.9c-.23,.2-.58,.29-.93,.29-.86,0-1.34-.47-1.34-1.33v-2.33h-.72v-.63h.72v-.93h.77v.93h1.22v.63h-1.22v2.29c0,.46,.24,.71,.66,.71,.22,0,.44-.07,.6-.2l.24,.55Z"/><path class="cls-9" d="M69.75,119.9c-.23,.2-.58,.29-.93,.29-.86,0-1.34-.47-1.34-1.33v-2.33h-.72v-.63h.72v-.93h.77v.93h1.22v.63h-1.22v2.29c0,.46,.24,.71,.66,.71,.22,0,.44-.07,.6-.2l.24,.55Z"/><path class="cls-9" d="M72.96,115.87v.74c-.06,0-.12,0-.18,0-.82,0-1.33,.5-1.33,1.43v2.11h-.77v-4.24h.74v.71c.27-.5,.8-.75,1.54-.75Z"/><path class="cls-9" d="M73.77,114.6c0-.28,.22-.5,.52-.5s.52,.22,.52,.49c0,.29-.22,.51-.52,.51s-.52-.22-.52-.5Zm.14,1.31h.77v4.24h-.77v-4.24Z"/><path class="cls-9" d="M80.53,118.03c0,1.29-.9,2.17-2.14,2.17-.62,0-1.17-.24-1.51-.72v.67h-.74v-5.93h.77v2.33c.35-.46,.88-.68,1.48-.68,1.24,0,2.14,.86,2.14,2.16Zm-.78,0c0-.9-.62-1.49-1.43-1.49s-1.42,.58-1.42,1.49,.62,1.49,1.42,1.49,1.43-.59,1.43-1.49Z"/><path class="cls-9" d="M85.54,115.91v4.24h-.73v-.64c-.31,.44-.84,.69-1.44,.69-1.1,0-1.82-.6-1.82-1.85v-2.44h.77v2.35c0,.83,.42,1.25,1.14,1.25,.8,0,1.31-.5,1.31-1.41v-2.19h.77Z"/><path class="cls-9" d="M89.39,119.9c-.23,.2-.58,.29-.93,.29-.86,0-1.34-.47-1.34-1.33v-2.33h-.72v-.63h.72v-.93h.77v.93h1.22v.63h-1.22v2.29c0,.46,.24,.71,.66,.71,.22,0,.44-.07,.6-.2l.24,.55Z"/><path class="cls-9" d="M93.99,118.29h-3.44c.1,.74,.7,1.24,1.54,1.24,.5,0,.91-.17,1.22-.51l.42,.5c-.38,.45-.97,.69-1.67,.69-1.37,0-2.28-.9-2.28-2.17s.9-2.16,2.13-2.16,2.09,.88,2.09,2.18c0,.06,0,.16-.02,.23Zm-3.44-.55h2.72c-.08-.71-.62-1.21-1.36-1.21s-1.28,.5-1.36,1.21Z"/><path class="cls-9" d="M94.54,119.7l.32-.61c.36,.26,.94,.44,1.49,.44,.71,0,1.01-.22,1.01-.58,0-.95-2.68-.13-2.68-1.81,0-.76,.68-1.27,1.77-1.27,.55,0,1.18,.14,1.54,.38l-.33,.61c-.38-.25-.81-.34-1.22-.34-.67,0-1,.25-1,.58,0,1,2.69,.18,2.69,1.83,0,.77-.7,1.25-1.83,1.25-.7,0-1.4-.22-1.75-.5Z"/></g><g><rect class="cls-5" x="30.3" y="87.65" width="128.7" height="12.87"/><path class="cls-10" d="M149.72,95.64l-2.19-2.19c-.15-.15-.15-.4,0-.55l.36-.36c.15-.15,.4-.15,.55,0l1.55,1.55,1.55-1.55c.15-.15,.4-.15,.55,0l.37,.36c.15,.15,.15,.4,0,.55l-2.19,2.19c-.15,.15-.4,.15-.55,0Z"/><g><path class="cls-9" d="M40.94,95.09h-2.51l-.54,1.21h-.5l2.06-4.51h.47l2.06,4.51h-.5l-.54-1.21Zm-.17-.39l-1.08-2.42-1.08,2.42h2.16Z"/><path class="cls-9" d="M44.38,96.09c-.18,.16-.45,.24-.71,.24-.64,0-.99-.36-.99-.98v-2.05h-.61v-.39h.61v-.74h.46v.74h1.03v.39h-1.03v2.02c0,.4,.21,.62,.59,.62,.19,0,.37-.06,.5-.17l.16,.33Z"/><path class="cls-9" d="M46.91,96.09c-.18,.16-.45,.24-.71,.24-.64,0-.99-.36-.99-.98v-2.05h-.61v-.39h.61v-.74h.46v.74h1.03v.39h-1.03v2.02c0,.4,.21,.62,.59,.62,.19,0,.37-.06,.5-.17l.16,.33Z"/><path class="cls-9" d="M50.56,94.74h-2.83c.05,.71,.59,1.18,1.33,1.18,.41,0,.78-.15,1.04-.44l.26,.3c-.3,.36-.77,.55-1.31,.55-1.06,0-1.78-.72-1.78-1.73s.7-1.72,1.66-1.72,1.64,.7,1.64,1.72c0,.04,0,.09,0,.14Zm-2.83-.34h2.4c-.06-.66-.54-1.13-1.2-1.13s-1.14,.46-1.2,1.13Z"/><path class="cls-9" d="M54.62,94.33v1.96h-.46v-1.92c0-.71-.37-1.08-1.02-1.08-.73,0-1.18,.45-1.18,1.22v1.78h-.46v-3.39h.44v.62c.25-.41,.7-.65,1.29-.65,.82,0,1.39,.48,1.39,1.45Z"/><path class="cls-9" d="M57.64,96.09c-.18,.16-.45,.24-.71,.24-.64,0-.99-.36-.99-.98v-2.05h-.61v-.39h.61v-.74h.46v.74h1.03v.39h-1.03v2.02c0,.4,.21,.62,.59,.62,.19,0,.37-.06,.5-.17l.16,.33Z"/><path class="cls-9" d="M58.37,91.84c0-.17,.15-.32,.33-.32s.33,.14,.33,.32c0,.19-.14,.33-.33,.33s-.33-.15-.33-.33Zm.1,1.07h.46v3.39h-.46v-3.39Z"/><path class="cls-9" d="M63.05,92.91l-1.51,3.39h-.47l-1.5-3.39h.48l1.27,2.88,1.28-2.88h.45Z"/><path class="cls-9" d="M66.54,94.74h-2.83c.05,.71,.59,1.18,1.33,1.18,.41,0,.78-.15,1.04-.44l.26,.3c-.3,.36-.77,.55-1.31,.55-1.06,0-1.78-.72-1.78-1.73s.7-1.72,1.65-1.72,1.64,.7,1.64,1.72c0,.04,0,.09,0,.14Zm-2.83-.34h2.4c-.06-.66-.54-1.13-1.2-1.13s-1.14,.46-1.2,1.13Z"/></g></g><g><path class="cls-9" d="M30.63,79.48l.3-.62c.42,.38,1.13,.65,1.85,.65,.97,0,1.38-.38,1.38-.86,0-1.37-3.39-.5-3.39-2.58,0-.86,.67-1.6,2.14-1.6,.66,0,1.33,.18,1.8,.5l-.26,.64c-.49-.31-1.04-.46-1.54-.46-.95,0-1.36,.4-1.36,.89,0,1.37,3.39,.51,3.39,2.57,0,.86-.69,1.59-2.17,1.59-.86,0-1.69-.29-2.14-.7Z"/><path class="cls-9" d="M39.81,78.26h-3.44c.1,.74,.7,1.24,1.54,1.24,.5,0,.91-.17,1.22-.51l.42,.5c-.38,.45-.97,.69-1.67,.69-1.37,0-2.28-.9-2.28-2.17s.9-2.16,2.13-2.16,2.1,.88,2.1,2.18c0,.06,0,.16-.02,.23Zm-3.44-.55h2.72c-.08-.71-.62-1.22-1.36-1.22s-1.28,.5-1.36,1.22Z"/><path class="cls-9" d="M40.89,74.19h.77v5.93h-.77v-5.93Z"/><path class="cls-9" d="M46.94,78.26h-3.44c.1,.74,.7,1.24,1.54,1.24,.5,0,.91-.17,1.22-.51l.42,.5c-.38,.45-.97,.69-1.67,.69-1.37,0-2.28-.9-2.28-2.17s.9-2.16,2.13-2.16,2.1,.88,2.1,2.18c0,.06,0,.16-.02,.23Zm-3.44-.55h2.72c-.08-.71-.62-1.22-1.36-1.22s-1.28,.5-1.36,1.22Z"/><path class="cls-9" d="M47.63,78.01c0-1.26,.94-2.16,2.24-2.16,.76,0,1.39,.31,1.73,.9l-.58,.38c-.27-.42-.69-.61-1.15-.61-.83,0-1.46,.58-1.46,1.49s.62,1.5,1.46,1.5c.46,0,.88-.19,1.15-.61l.58,.37c-.34,.59-.97,.91-1.73,.91-1.3,0-2.24-.9-2.24-2.17Z"/><path class="cls-9" d="M55.03,79.88c-.23,.2-.58,.3-.93,.3-.86,0-1.34-.47-1.34-1.33v-2.33h-.72v-.63h.72v-.93h.77v.93h1.21v.63h-1.21v2.29c0,.46,.24,.71,.66,.71,.22,0,.44-.07,.6-.2l.24,.55Z"/><path class="cls-9" d="M62.11,74.19v5.93h-.74v-.67c-.34,.48-.89,.72-1.51,.72-1.24,0-2.14-.87-2.14-2.17s.9-2.16,2.14-2.16c.6,0,1.13,.22,1.48,.68v-2.33h.77Zm-.76,3.81c0-.9-.62-1.49-1.42-1.49s-1.43,.58-1.43,1.49,.62,1.5,1.43,1.5,1.42-.59,1.42-1.5Z"/><path class="cls-9" d="M67.38,78.26h-3.44c.1,.74,.7,1.24,1.54,1.24,.5,0,.91-.17,1.22-.51l.42,.5c-.38,.45-.97,.69-1.67,.69-1.37,0-2.28-.9-2.28-2.17s.9-2.16,2.13-2.16,2.1,.88,2.1,2.18c0,.06,0,.16-.02,.23Zm-3.44-.55h2.72c-.08-.71-.62-1.22-1.36-1.22s-1.28,.5-1.36,1.22Z"/><path class="cls-9" d="M67.93,79.68l.32-.61c.36,.26,.94,.44,1.49,.44,.71,0,1.01-.22,1.01-.58,0-.95-2.68-.13-2.68-1.81,0-.76,.68-1.27,1.77-1.27,.55,0,1.18,.14,1.54,.38l-.33,.61c-.38-.25-.81-.34-1.22-.34-.67,0-1,.25-1,.58,0,1,2.69,.18,2.69,1.83,0,.77-.7,1.25-1.83,1.25-.7,0-1.4-.22-1.75-.5Z"/><path class="cls-9" d="M74.85,79.88c-.23,.2-.58,.3-.93,.3-.86,0-1.34-.47-1.34-1.33v-2.33h-.72v-.63h.72v-.93h.77v.93h1.22v.63h-1.22v2.29c0,.46,.24,.71,.66,.71,.22,0,.44-.07,.6-.2l.24,.55Z"/><path class="cls-9" d="M75.65,74.58c0-.28,.22-.5,.52-.5s.52,.22,.52,.49c0,.29-.22,.51-.52,.51s-.52-.22-.52-.5Zm.14,1.31h.77v4.24h-.77v-4.24Z"/><path class="cls-9" d="M82.03,77.69v2.44h-.77v-2.35c0-.83-.42-1.24-1.14-1.24-.82,0-1.34,.49-1.34,1.41v2.18h-.77v-4.24h.74v.64c.31-.43,.86-.68,1.53-.68,1.03,0,1.76,.59,1.76,1.84Z"/><path class="cls-9" d="M86.82,77.57v2.56h-.73v-.56c-.26,.38-.73,.61-1.39,.61-.96,0-1.57-.51-1.57-1.25,0-.68,.44-1.24,1.7-1.24h1.22v-.15c0-.65-.38-1.02-1.14-1.02-.5,0-1.02,.18-1.34,.46l-.32-.58c.44-.35,1.07-.54,1.75-.54,1.16,0,1.81,.56,1.81,1.72Zm-.77,1.26v-.59h-1.18c-.76,0-.98,.3-.98,.66,0,.42,.35,.69,.94,.69s1.03-.26,1.22-.75Z"/><path class="cls-9" d="M90.63,79.88c-.23,.2-.58,.3-.93,.3-.86,0-1.34-.47-1.34-1.33v-2.33h-.72v-.63h.72v-.93h.77v.93h1.22v.63h-1.22v2.29c0,.46,.24,.71,.66,.71,.22,0,.44-.07,.6-.2l.24,.55Z"/><path class="cls-9" d="M91.42,74.58c0-.28,.22-.5,.52-.5s.52,.22,.52,.49c0,.29-.22,.51-.52,.51s-.52-.22-.52-.5Zm.14,1.31h.77v4.24h-.77v-4.24Z"/><path class="cls-9" d="M93.4,78.01c0-1.26,.94-2.16,2.21-2.16s2.2,.9,2.2,2.16-.93,2.17-2.2,2.17-2.21-.9-2.21-2.17Zm3.63,0c0-.9-.61-1.49-1.42-1.49s-1.43,.58-1.43,1.49,.62,1.5,1.43,1.5,1.42-.59,1.42-1.5Z"/><path class="cls-9" d="M102.89,77.69v2.44h-.77v-2.35c0-.83-.42-1.24-1.14-1.24-.82,0-1.34,.49-1.34,1.41v2.18h-.77v-4.24h.74v.64c.31-.43,.86-.68,1.53-.68,1.03,0,1.76,.59,1.76,1.84Z"/></g><rect class="cls-11" x="43.91" y="151.08" width="309.29" height="40"/><rect class="cls-12" x="191.16" y="160.83" width="18" height=".5" transform="translate(39.08 361.24) rotate(-90)"/><rect class="cls-12" x="35.16" y="180.83" width="18" height=".5" transform="translate(-136.92 225.24) rotate(-90)"/><rect class="cls-12" x="191.16" y="180.83" width="18" height=".5" transform="translate(19.08 381.24) rotate(-90)"/><rect class="cls-12" x="20" y="150.83" width="667.75" height=".5"/><rect class="cls-12" x="20" y="170.83" width="667.75" height=".5"/><g><path class="cls-9" d="M57.93,181.24c0,.98-.68,1.62-1.61,1.62-.45,0-.85-.17-1.11-.52v1.64h-.58v-4.34h.55v.5c.26-.35,.67-.53,1.13-.53,.93,0,1.61,.65,1.61,1.62Zm-.58,0c0-.67-.46-1.12-1.07-1.12s-1.07,.44-1.07,1.12,.46,1.12,1.07,1.12,1.07-.44,1.07-1.12Z"/><path class="cls-9" d="M61.74,181v1.83h-.58v-1.76c0-.62-.31-.93-.86-.93-.61,0-1.01,.37-1.01,1.05v1.64h-.58v-4.45h.58v1.72c.24-.31,.64-.48,1.12-.48,.77,0,1.32,.44,1.32,1.38Z"/><path class="cls-9" d="M62.54,181.24c0-.95,.7-1.62,1.65-1.62s1.65,.67,1.65,1.62-.7,1.62-1.65,1.62-1.65-.68-1.65-1.62Zm2.72,0c0-.68-.46-1.12-1.07-1.12s-1.07,.44-1.07,1.12,.46,1.12,1.07,1.12,1.07-.44,1.07-1.12Z"/><path class="cls-9" d="M69.66,181v1.83h-.58v-1.76c0-.62-.31-.93-.86-.93-.61,0-1.01,.37-1.01,1.05v1.64h-.58v-3.18h.55v.48c.23-.32,.64-.51,1.15-.51,.77,0,1.32,.44,1.32,1.38Z"/><path class="cls-9" d="M73.61,181.43h-2.58c.07,.56,.52,.93,1.15,.93,.37,0,.68-.13,.92-.38l.32,.37c-.29,.34-.73,.52-1.25,.52-1.03,0-1.71-.68-1.71-1.62s.68-1.62,1.59-1.62,1.57,.66,1.57,1.64c0,.05,0,.12-.01,.17Zm-2.58-.41h2.04c-.06-.53-.46-.91-1.02-.91s-.96,.37-1.02,.91Z"/></g><rect class="cls-12" x="20" y="190.83" width="667.75" height=".5"/><g><path class="cls-9" d="M210.2,180.73c0-1.23,.95-2.15,2.24-2.15s2.22,.91,2.22,2.15-.95,2.15-2.22,2.15-2.24-.92-2.24-2.15Zm3.86,0c0-.93-.7-1.61-1.62-1.61s-1.64,.68-1.64,1.61,.7,1.61,1.64,1.61,1.62-.68,1.62-1.61Z"/><path class="cls-9" d="M218.79,181.24c0,.98-.68,1.62-1.61,1.62-.45,0-.85-.17-1.11-.52v1.64h-.58v-4.34h.55v.5c.26-.35,.67-.53,1.13-.53,.93,0,1.61,.65,1.61,1.62Zm-.58,0c0-.67-.46-1.12-1.07-1.12s-1.07,.44-1.07,1.12,.46,1.12,1.07,1.12,1.07-.44,1.07-1.12Z"/><path class="cls-9" d="M221.38,182.64c-.17,.15-.44,.22-.7,.22-.64,0-1.01-.35-1.01-1v-1.75h-.54v-.47h.54v-.7h.58v.7h.91v.47h-.91v1.72c0,.34,.18,.53,.5,.53,.17,0,.33-.05,.45-.15l.18,.41Z"/><path class="cls-9" d="M221.97,178.67c0-.21,.17-.38,.39-.38s.39,.16,.39,.37c0,.22-.16,.38-.39,.38s-.39-.16-.39-.37Zm.1,.98h.58v3.18h-.58v-3.18Z"/><path class="cls-9" d="M223.45,181.24c0-.95,.7-1.62,1.65-1.62s1.65,.67,1.65,1.62-.7,1.62-1.65,1.62-1.65-.68-1.65-1.62Zm2.72,0c0-.68-.46-1.12-1.07-1.12s-1.07,.44-1.07,1.12,.46,1.12,1.07,1.12,1.07-.44,1.07-1.12Z"/><path class="cls-9" d="M230.57,181v1.83h-.58v-1.76c0-.62-.31-.93-.86-.93-.61,0-1.01,.37-1.01,1.05v1.64h-.58v-3.18h.55v.48c.23-.32,.64-.51,1.15-.51,.77,0,1.32,.44,1.32,1.38Z"/><path class="cls-9" d="M234.16,180.91v1.92h-.55v-.42c-.19,.29-.55,.46-1.04,.46-.72,0-1.18-.38-1.18-.94,0-.51,.33-.93,1.28-.93h.91v-.11c0-.49-.28-.77-.85-.77-.38,0-.76,.13-1.01,.34l-.24-.43c.33-.26,.8-.41,1.31-.41,.87,0,1.36,.42,1.36,1.29Zm-.58,.95v-.44h-.89c-.57,0-.73,.22-.73,.49,0,.32,.26,.52,.7,.52s.77-.2,.92-.56Z"/><path class="cls-9" d="M235.23,178.38h.58v4.45h-.58v-4.45Z"/></g><g><path class="cls-9" d="M210.2,160.73c0-1.23,.95-2.15,2.24-2.15s2.22,.91,2.22,2.15-.95,2.15-2.22,2.15-2.24-.92-2.24-2.15Zm3.86,0c0-.93-.7-1.61-1.62-1.61s-1.64,.68-1.64,1.61,.7,1.61,1.64,1.61,1.62-.68,1.62-1.61Z"/><path class="cls-9" d="M218.79,161.24c0,.98-.68,1.62-1.61,1.62-.45,0-.85-.17-1.11-.52v1.64h-.58v-4.34h.55v.5c.26-.35,.67-.53,1.13-.53,.93,0,1.61,.65,1.61,1.62Zm-.58,0c0-.67-.46-1.12-1.07-1.12s-1.07,.44-1.07,1.12,.46,1.12,1.07,1.12,1.07-.44,1.07-1.12Z"/><path class="cls-9" d="M221.38,162.64c-.17,.15-.44,.22-.7,.22-.64,0-1.01-.35-1.01-1v-1.74h-.54v-.47h.54v-.7h.58v.7h.91v.47h-.91v1.72c0,.34,.18,.53,.5,.53,.17,0,.33-.05,.45-.15l.18,.41Z"/><path class="cls-9" d="M221.97,158.67c0-.21,.17-.38,.39-.38s.39,.16,.39,.37c0,.22-.16,.38-.39,.38s-.39-.16-.39-.37Zm.1,.98h.58v3.18h-.58v-3.18Z"/><path class="cls-9" d="M223.45,161.24c0-.95,.7-1.62,1.65-1.62s1.65,.67,1.65,1.62-.7,1.62-1.65,1.62-1.65-.68-1.65-1.62Zm2.72,0c0-.68-.46-1.12-1.07-1.12s-1.07,.44-1.07,1.12,.46,1.12,1.07,1.12,1.07-.44,1.07-1.12Z"/><path class="cls-9" d="M230.57,161v1.83h-.58v-1.76c0-.62-.31-.93-.86-.93-.61,0-1.01,.37-1.01,1.05v1.64h-.58v-3.18h.55v.48c.23-.32,.64-.51,1.15-.51,.77,0,1.32,.44,1.32,1.38Z"/><path class="cls-9" d="M234.16,160.91v1.92h-.55v-.42c-.19,.29-.55,.46-1.04,.46-.72,0-1.18-.38-1.18-.94,0-.51,.33-.93,1.28-.93h.91v-.11c0-.49-.28-.77-.85-.77-.38,0-.76,.13-1.01,.34l-.24-.43c.33-.26,.8-.41,1.31-.41,.87,0,1.36,.42,1.36,1.29Zm-.58,.95v-.44h-.89c-.57,0-.73,.22-.73,.49,0,.32,.26,.52,.7,.52s.77-.2,.92-.56Z"/><path class="cls-9" d="M235.23,158.38h.58v4.45h-.58v-4.45Z"/></g><g><path class="cls-9" d="M57.5,161.43h-2.58c.07,.56,.52,.93,1.15,.93,.37,0,.68-.13,.92-.38l.32,.37c-.29,.34-.73,.52-1.25,.52-1.03,0-1.71-.68-1.71-1.62s.68-1.62,1.6-1.62,1.57,.66,1.57,1.64c0,.05,0,.12-.01,.17Zm-2.58-.41h2.04c-.06-.53-.46-.91-1.02-.91s-.96,.37-1.02,.91Z"/><path class="cls-9" d="M63.58,161v1.83h-.58v-1.76c0-.62-.3-.93-.82-.93-.58,0-.95,.37-.95,1.05v1.64h-.58v-1.76c0-.62-.3-.93-.82-.93-.58,0-.95,.37-.95,1.05v1.64h-.58v-3.18h.55v.47c.23-.32,.62-.5,1.1-.5s.89,.19,1.1,.59c.24-.36,.68-.59,1.22-.59,.77,0,1.3,.44,1.3,1.38Z"/><path class="cls-9" d="M67.17,160.91v1.92h-.55v-.42c-.19,.29-.55,.46-1.04,.46-.72,0-1.18-.38-1.18-.94,0-.51,.33-.93,1.28-.93h.91v-.11c0-.49-.28-.77-.85-.77-.38,0-.76,.13-1.01,.34l-.24-.43c.33-.26,.8-.41,1.31-.41,.87,0,1.36,.42,1.36,1.29Zm-.58,.95v-.44h-.89c-.57,0-.73,.22-.73,.49,0,.32,.26,.52,.7,.52s.77-.2,.92-.56Z"/><path class="cls-9" d="M68.14,158.67c0-.21,.17-.38,.39-.38s.39,.16,.39,.37c0,.22-.16,.38-.39,.38s-.39-.16-.39-.37Zm.1,.98h.58v3.18h-.58v-3.18Z"/><path class="cls-9" d="M69.91,158.38h.58v4.45h-.58v-4.45Z"/></g><g><path class="cls-10" d="M512.56,183.94l-2.19-2.19c-.15-.15-.15-.4,0-.55l.36-.36c.15-.15,.4-.15,.55,0l1.55,1.55,1.55-1.55c.15-.15,.4-.15,.55,0l.37,.36c.15,.15,.15,.4,0,.55l-2.19,2.19c-.15,.15-.4,.15-.55,0Z"/><path class="cls-10" d="M512.56,163.94l-2.19-2.19c-.15-.15-.15-.4,0-.55l.36-.36c.15-.15,.4-.15,.55,0l1.55,1.55,1.55-1.55c.15-.15,.4-.15,.55,0l.37,.36c.15,.15,.15,.4,0,.55l-2.19,2.19c-.15,.15-.4,.15-.55,0Z"/></g><g><path class="cls-10" d="M674.9,183.94l-2.19-2.19c-.15-.15-.15-.4,0-.55l.36-.36c.15-.15,.4-.15,.55,0l1.55,1.55,1.55-1.55c.15-.15,.4-.15,.55,0l.37,.36c.15,.15,.15,.4,0,.55l-2.19,2.19c-.15,.15-.4,.15-.55,0Z"/><path class="cls-10" d="M674.9,163.94l-2.19-2.19c-.15-.15-.15-.4,0-.55l.36-.36c.15-.15,.4-.15,.55,0l1.55,1.55,1.55-1.55c.15-.15,.4-.15,.55,0l.37,.36c.15,.15,.15,.4,0,.55l-2.19,2.19c-.15,.15-.4,.15-.55,0Z"/></g><path class="cls-8" d="M34.83,157.08h-6.29c-.47,0-.86,.38-.86,.86v6.29c0,.47,.38,.86,.86,.86h6.29c.47,0,.86-.38,.86-.86v-6.29c0-.47-.38-.86-.86-.86Zm-.11,7.14h-6.07c-.06,0-.11-.05-.11-.11v-6.07c0-.06,.05-.11,.11-.11h6.07c.06,0,.11,.05,.11,.11v6.07c0,.06-.05,.11-.11,.11Z"/><path class="cls-3" d="M35.22,185.58h-7.08c-.53,0-.97-.43-.97-.97v-7.08c0-.53,.43-.97,.97-.97h7.08c.53,0,.97,.43,.97,.97v7.08c0,.53-.43,.97-.97,.97Zm-4.12-1.97l3.7-3.7c.13-.13,.13-.33,0-.46l-.46-.46c-.13-.13-.33-.13-.46,0l-3.02,3.02-1.41-1.41c-.13-.13-.33-.13-.46,0l-.46,.46c-.13,.13-.13,.33,0,.46l2.09,2.09c.13,.13,.33,.13,.46,0h0Z"/></g><rect class="cls-1" width="708" height="230"/></svg>