<?xml version="1.0" encoding="UTF-8"?><svg id="Layer_1" xmlns="http://www.w3.org/2000/svg" viewBox="0 0 1120 760"><defs><style>.cls-1,.cls-2,.cls-3{fill:none;}.cls-4{fill:#00a6f2;}.cls-5{fill:#fff;}.cls-6{fill:#c1272d;}.cls-7{fill:#c9e500;}.cls-8,.cls-9{fill:#0c0c0c;}.cls-2{opacity:.25;stroke-width:4px;}.cls-2,.cls-3{stroke:#000;stroke-miterlimit:10;}.cls-9{opacity:.2;}</style></defs><rect class="cls-1" x="10" y="10" width="1100" height="740"/><rect class="cls-1" width="1120" height="760"/><line class="cls-2" x1="430" y1="166.8" x2="430" y2="666.8"/><rect class="cls-5" x="556" y="447.3" width="8" height="19"/><rect class="cls-5" x="556" y="527.3" width="8" height="19"/><g><path class="cls-8" d="M215.65,471.09l-3.25,9.8h-1.93l-2.42-7.26-2.47,7.26h-1.95l-3.25-9.8h1.89l2.44,7.45,2.54-7.45h1.68l2.48,7.49,2.51-7.49h1.74Z"/><path class="cls-8" d="M223.4,477.71h-5.87c.21,1.09,1.12,1.79,2.42,1.79,.84,0,1.5-.27,2.03-.81l.94,1.08c-.67,.8-1.72,1.22-3.01,1.22-2.51,0-4.13-1.61-4.13-3.84s1.64-3.82,3.87-3.82,3.78,1.53,3.78,3.87c0,.14-.01,.35-.03,.52Zm-5.88-1.16h4.25c-.14-1.08-.97-1.82-2.12-1.82s-1.96,.73-2.13,1.82Z"/><path class="cls-8" d="M233.05,477.15c0,2.33-1.61,3.84-3.8,3.84-1.02,0-1.89-.35-2.48-1.06v.97h-1.67v-10.39h1.75v3.82c.6-.67,1.44-.99,2.39-.99,2.19,0,3.8,1.5,3.8,3.82Zm-1.78,0c0-1.43-.95-2.34-2.21-2.34s-2.23,.91-2.23,2.34,.97,2.34,2.23,2.34,2.21-.91,2.21-2.34Z"/><path class="cls-8" d="M246.51,477.15c0,2.33-1.61,3.84-3.79,3.84-1.02,0-1.89-.35-2.48-1.06v.97h-1.67v-10.39h1.75v3.82c.6-.67,1.44-.99,2.4-.99,2.18,0,3.79,1.5,3.79,3.82Zm-1.78,0c0-1.43-.95-2.34-2.21-2.34s-2.23,.91-2.23,2.34,.97,2.34,2.23,2.34,2.21-.91,2.21-2.34Z"/><path class="cls-8" d="M252.5,473.33v1.67c-.15-.03-.28-.04-.41-.04-1.33,0-2.17,.78-2.17,2.31v3.63h-1.75v-7.48h1.67v1.09c.5-.78,1.42-1.18,2.66-1.18Z"/><path class="cls-8" d="M253.3,477.15c0-2.24,1.68-3.82,3.98-3.82s3.99,1.58,3.99,3.82-1.67,3.84-3.99,3.84-3.98-1.6-3.98-3.84Zm6.21,0c0-1.43-.95-2.34-2.23-2.34s-2.21,.91-2.21,2.34,.95,2.34,2.21,2.34,2.23-.91,2.23-2.34Z"/><path class="cls-8" d="M274.4,473.41l-2.76,7.48h-1.68l-1.93-5.15-1.96,5.15h-1.68l-2.75-7.48h1.65l1.98,5.52,2.06-5.52h1.47l2.02,5.55,2.03-5.55h1.55Z"/><path class="cls-8" d="M274.65,480.15l.67-1.33c.66,.43,1.67,.74,2.61,.74,1.11,0,1.57-.31,1.57-.83,0-1.43-4.62-.08-4.62-3.07,0-1.42,1.28-2.34,3.29-2.34,1,0,2.13,.24,2.8,.64l-.67,1.33c-.71-.42-1.43-.56-2.14-.56-1.06,0-1.57,.35-1.57,.84,0,1.51,4.62,.17,4.62,3.1,0,1.4-1.29,2.31-3.39,2.31-1.25,0-2.49-.36-3.17-.84Z"/><path class="cls-8" d="M289.72,477.71h-5.87c.21,1.09,1.12,1.79,2.42,1.79,.84,0,1.5-.27,2.03-.81l.94,1.08c-.67,.8-1.72,1.22-3.01,1.22-2.51,0-4.13-1.61-4.13-3.84s1.64-3.82,3.87-3.82,3.78,1.53,3.78,3.87c0,.14-.01,.35-.03,.52Zm-5.88-1.16h4.24c-.14-1.08-.97-1.82-2.12-1.82s-1.96,.73-2.13,1.82Z"/><path class="cls-8" d="M295.75,473.33v1.67c-.15-.03-.28-.04-.41-.04-1.33,0-2.17,.78-2.17,2.31v3.63h-1.75v-7.48h1.67v1.09c.5-.78,1.42-1.18,2.66-1.18Z"/><path class="cls-8" d="M313.67,476.61v4.29h-1.75v-4.06c0-1.33-.62-1.98-1.68-1.98-1.15,0-1.95,.76-1.95,2.24v3.8h-1.75v-4.06c0-1.33-.62-1.98-1.68-1.98-1.16,0-1.95,.76-1.95,2.24v3.8h-1.75v-7.48h1.67v.95c.56-.67,1.43-1.04,2.45-1.04,1.09,0,2,.41,2.52,1.25,.6-.77,1.61-1.25,2.8-1.25,1.81,0,3.07,1.02,3.07,3.28Z"/><path class="cls-8" d="M322.17,476.51v4.38h-1.65v-.91c-.42,.64-1.23,1.01-2.35,1.01-1.71,0-2.79-.94-2.79-2.24s.84-2.23,3.11-2.23h1.93v-.11c0-1.02-.62-1.62-1.86-1.62-.84,0-1.71,.28-2.27,.74l-.69-1.27c.8-.62,1.96-.92,3.17-.92,2.16,0,3.4,1.02,3.4,3.18Zm-1.75,2.04v-.87h-1.81c-1.19,0-1.51,.45-1.51,.99,0,.63,.53,1.04,1.43,1.04s1.6-.39,1.89-1.16Z"/><path class="cls-8" d="M327.46,477.68l-1.3,1.23v1.97h-1.75v-10.39h1.75v6.28l3.63-3.36h2.1l-3.12,3.14,3.42,4.34h-2.13l-2.59-3.21Z"/><path class="cls-8" d="M340,477.71h-5.87c.21,1.09,1.12,1.79,2.42,1.79,.84,0,1.5-.27,2.03-.81l.94,1.08c-.67,.8-1.72,1.22-3.01,1.22-2.51,0-4.13-1.61-4.13-3.84s1.64-3.82,3.87-3.82,3.78,1.53,3.78,3.87c0,.14-.01,.35-.03,.52Zm-5.88-1.16h4.25c-.14-1.08-.97-1.82-2.12-1.82s-1.96,.73-2.13,1.82Z"/><path class="cls-8" d="M340.85,480.15l.67-1.33c.66,.43,1.67,.74,2.61,.74,1.11,0,1.57-.31,1.57-.83,0-1.43-4.62-.08-4.62-3.07,0-1.42,1.28-2.34,3.29-2.34,1,0,2.13,.24,2.8,.64l-.67,1.33c-.71-.42-1.43-.56-2.14-.56-1.06,0-1.57,.35-1.57,.84,0,1.51,4.62,.17,4.62,3.1,0,1.4-1.29,2.31-3.39,2.31-1.25,0-2.49-.36-3.17-.84Z"/><path class="cls-8" d="M352.12,479.86l.63-1.42c.78,.63,2.03,1.08,3.24,1.08,1.53,0,2.17-.55,2.17-1.27,0-2.12-5.83-.73-5.83-4.37,0-1.58,1.26-2.93,3.95-2.93,1.18,0,2.41,.31,3.26,.87l-.57,1.41c-.88-.52-1.85-.77-2.7-.77-1.51,0-2.13,.59-2.13,1.33,0,2.09,5.81,.73,5.81,4.33,0,1.57-1.28,2.91-3.96,2.91-1.53,0-3.05-.48-3.87-1.18Z"/><path class="cls-8" d="M368.12,478.62h-4.9l-.97,2.27h-1.88l4.41-9.8h1.79l4.43,9.8h-1.91l-.98-2.27Zm-.6-1.43l-1.85-4.29-1.83,4.29h3.68Z"/><path class="cls-8" d="M381.25,480.89v-6.5l-3.24,5.38h-.81l-3.22-5.29v6.42h-1.74v-9.8h1.5l3.89,6.5,3.82-6.5h1.5v9.8h-1.71Z"/><path class="cls-8" d="M385.61,471.09h1.82v8.26h5.13v1.54h-6.95v-9.8Z"/><path class="cls-8" d="M402.02,473.33v1.67c-.15-.03-.28-.04-.41-.04-1.33,0-2.17,.78-2.17,2.31v3.63h-1.75v-7.48h1.67v1.09c.5-.78,1.41-1.18,2.66-1.18Z"/><path class="cls-8" d="M410.44,477.71h-5.87c.21,1.09,1.12,1.79,2.42,1.79,.84,0,1.5-.27,2.03-.81l.94,1.08c-.67,.8-1.72,1.22-3.01,1.22-2.51,0-4.13-1.61-4.13-3.84s1.64-3.82,3.87-3.82,3.78,1.53,3.78,3.87c0,.14-.01,.35-.03,.52Zm-5.88-1.16h4.24c-.14-1.08-.97-1.82-2.12-1.82s-1.96,.73-2.13,1.82Z"/><path class="cls-8" d="M419.45,473.41v10.2h-1.75v-3.63c-.6,.69-1.44,1.01-2.39,1.01-2.19,0-3.78-1.51-3.78-3.84s1.6-3.82,3.78-3.82c1.02,0,1.89,.35,2.48,1.06v-.98h1.67Zm-1.72,3.74c0-1.43-.95-2.34-2.23-2.34s-2.21,.91-2.21,2.34,.95,2.34,2.21,2.34,2.23-.91,2.23-2.34Z"/><path class="cls-8" d="M428.99,473.41v7.48h-1.67v-.95c-.56,.69-1.44,1.05-2.41,1.05-1.92,0-3.22-1.05-3.22-3.31v-4.27h1.75v4.03c0,1.36,.64,2,1.75,2,1.22,0,2.04-.76,2.04-2.26v-3.78h1.75Z"/><path class="cls-8" d="M438.28,477.71h-5.87c.21,1.09,1.12,1.79,2.42,1.79,.84,0,1.5-.27,2.03-.81l.94,1.08c-.67,.8-1.72,1.22-3.01,1.22-2.51,0-4.13-1.61-4.13-3.84s1.64-3.82,3.87-3.82,3.78,1.53,3.78,3.87c0,.14-.01,.35-.03,.52Zm-5.88-1.16h4.24c-.14-1.08-.97-1.82-2.12-1.82s-1.96,.73-2.13,1.82Z"/><path class="cls-8" d="M439.13,480.15l.67-1.33c.66,.43,1.67,.74,2.61,.74,1.11,0,1.57-.31,1.57-.83,0-1.43-4.62-.08-4.62-3.07,0-1.42,1.28-2.34,3.29-2.34,1,0,2.13,.24,2.8,.64l-.67,1.33c-.71-.42-1.43-.56-2.14-.56-1.06,0-1.57,.35-1.57,.84,0,1.51,4.62,.17,4.62,3.1,0,1.4-1.29,2.31-3.39,2.31-1.25,0-2.49-.36-3.17-.84Z"/><path class="cls-8" d="M451.69,480.49c-.42,.34-1.05,.5-1.68,.5-1.64,0-2.58-.87-2.58-2.52v-3.6h-1.23v-1.4h1.23v-1.71h1.75v1.71h2v1.4h-2v3.56c0,.73,.36,1.12,1.04,1.12,.36,0,.71-.1,.98-.31l.49,1.25Z"/><path class="cls-8" d="M461.49,480.49c-.42,.34-1.05,.5-1.68,.5-1.64,0-2.58-.87-2.58-2.52v-3.6h-1.23v-1.4h1.23v-1.71h1.75v1.71h2v1.4h-2v3.56c0,.73,.37,1.12,1.04,1.12,.36,0,.71-.1,.98-.31l.49,1.25Z"/><path class="cls-8" d="M462.06,477.15c0-2.24,1.68-3.82,3.98-3.82s3.99,1.58,3.99,3.82-1.67,3.84-3.99,3.84-3.98-1.6-3.98-3.84Zm6.21,0c0-1.43-.95-2.34-2.23-2.34s-2.21,.91-2.21,2.34,.95,2.34,2.21,2.34,2.23-.91,2.23-2.34Z"/><path class="cls-8" d="M475.74,471.09h1.82v9.8h-1.82v-9.8Z"/><path class="cls-8" d="M487.37,470.5v10.39h-1.68v-.97c-.59,.71-1.46,1.06-2.48,1.06-2.17,0-3.78-1.51-3.78-3.84s1.61-3.82,3.78-3.82c.97,0,1.82,.32,2.41,1.01v-3.84h1.75Zm-1.72,6.65c0-1.43-.97-2.34-2.23-2.34s-2.23,.91-2.23,2.34,.97,2.34,2.23,2.34,2.23-.91,2.23-2.34Z"/><path class="cls-8" d="M498.03,474.57c0,2.16-1.6,3.49-4.17,3.49h-2.21v2.83h-1.82v-9.8h4.03c2.58,0,4.17,1.32,4.17,3.49Zm-1.83,0c0-1.23-.83-1.95-2.42-1.95h-2.13v3.89h2.13c1.6,0,2.42-.71,2.42-1.95Z"/></g><path class="cls-8" d="M940,116.8c5.8,0,10.5-4.7,10.5-10.5s-4.7-10.5-10.5-10.5-10.5,4.7-10.5,10.5,4.7,10.5,10.5,10.5Zm7.35,2.62h-1.37c-1.82,.84-3.85,1.31-5.98,1.31s-4.15-.48-5.98-1.31h-1.37c-6.09,0-11.03,4.94-11.03,11.02v3.41c0,2.17,1.76,3.94,3.94,3.94h28.88c2.17,0,3.94-1.76,3.94-3.94v-3.41c0-6.09-4.94-11.02-11.02-11.02Z"/><line class="cls-2" x1="180" y1="166.8" x2="180" y2="666.8"/><line class="cls-2" x1="940" y1="166.8" x2="940" y2="666.8"/><g><rect class="cls-8" x="145" y="81.8" width="70" height="70" rx="35" ry="35"/><g><path class="cls-7" d="M193,113.15c-1.84,0-3.33,1.5-3.33,3.33s1.5,3.33,3.33,3.33,3.33-1.5,3.33-3.33-1.5-3.33-3.33-3.33Z"/><path class="cls-5" d="M187.66,120.82l-5.53,2.97c.04,.26,.06,.53,.06,.8,0,2.94-2.4,5.33-5.34,5.33-2.94,0-5.33-2.4-5.33-5.34s2.4-5.33,5.34-5.33c1.58,0,3.01,.7,3.98,1.8l5.14-2.77-6.91-10.44c-.05,0-.11,0-.16,0-1.58,0-2.87-1.28-2.87-2.87s1.28-2.87,2.87-2.87,2.87,1.28,2.87,2.87c0,.58-.17,1.11-.47,1.56l3.99,6.03c2.17-1.82,3.57-4.55,3.57-7.6,0-5.48-4.44-9.95-9.93-9.96-5.48,0-9.95,4.44-9.96,9.93,0,2.9,1.24,5.52,3.23,7.35-4.96,1.88-8.5,6.67-8.51,12.28-.01,7.25,5.87,13.15,13.12,13.17,4.02,0,7.63-1.8,10.04-4.65l1.95,2.93h8.88l-10.05-15.19Z"/></g></g><g><line class="cls-3" x1="190" y1="216.8" x2="544.98" y2="216.8"/><polygon points="543.96 220.29 550 216.8 543.96 213.31 543.96 220.29"/></g><g><line class="cls-3" x1="190" y1="456.8" x2="924.98" y2="456.8"/><polygon points="923.96 460.29 930 456.8 923.96 453.31 923.96 460.29"/></g><g><line class="cls-3" x1="190" y1="616.8" x2="544.98" y2="616.8"/><polygon points="543.96 620.29 550 616.8 543.96 613.31 543.96 620.29"/></g><g><line class="cls-3" x1="930" y1="536.8" x2="195.02" y2="536.8"/><polygon points="196.04 533.31 190 536.8 196.04 540.29 196.04 533.31"/></g><g><path class="cls-8" d="M655.05,551.09h1.82v9.8h-1.82v-9.8Z"/><path class="cls-8" d="M666.68,550.5v10.39h-1.68v-.97c-.59,.71-1.46,1.06-2.48,1.06-2.17,0-3.78-1.51-3.78-3.84s1.61-3.82,3.78-3.82c.97,0,1.82,.32,2.41,1.01v-3.84h1.75Zm-1.72,6.65c0-1.43-.97-2.34-2.23-2.34s-2.23,.91-2.23,2.34,.97,2.34,2.23,2.34,2.23-.91,2.23-2.34Z"/><path class="cls-8" d="M677.35,554.57c0,2.16-1.6,3.49-4.17,3.49h-2.21v2.83h-1.82v-9.8h4.03c2.58,0,4.17,1.32,4.17,3.49Zm-1.83,0c0-1.23-.83-1.95-2.42-1.95h-2.13v3.89h2.13c1.6,0,2.42-.71,2.42-1.95Z"/><path class="cls-8" d="M682.14,560.15l.67-1.33c.66,.43,1.67,.74,2.61,.74,1.11,0,1.57-.31,1.57-.83,0-1.43-4.62-.08-4.62-3.07,0-1.42,1.27-2.34,3.29-2.34,1,0,2.13,.24,2.8,.64l-.67,1.33c-.71-.42-1.43-.56-2.14-.56-1.06,0-1.57,.35-1.57,.84,0,1.51,4.62,.17,4.62,3.1,0,1.4-1.29,2.31-3.39,2.31-1.25,0-2.49-.36-3.17-.84Z"/><path class="cls-8" d="M697.21,557.71h-5.87c.21,1.09,1.12,1.79,2.42,1.79,.84,0,1.5-.27,2.03-.81l.94,1.08c-.67,.8-1.72,1.22-3.01,1.22-2.51,0-4.13-1.61-4.13-3.84s1.64-3.82,3.87-3.82,3.78,1.53,3.78,3.87c0,.14-.01,.35-.03,.52Zm-5.88-1.16h4.24c-.14-1.08-.97-1.82-2.12-1.82s-1.96,.73-2.13,1.82Z"/><path class="cls-8" d="M706.28,556.61v4.29h-1.75v-4.06c0-1.33-.66-1.98-1.78-1.98-1.25,0-2.09,.76-2.09,2.26v3.78h-1.75v-7.48h1.67v.97c.57-.69,1.48-1.05,2.58-1.05,1.79,0,3.12,1.02,3.12,3.28Z"/><path class="cls-8" d="M715.9,550.5v10.39h-1.68v-.97c-.59,.71-1.46,1.06-2.48,1.06-2.17,0-3.78-1.51-3.78-3.84s1.61-3.82,3.78-3.82c.97,0,1.82,.32,2.41,1.01v-3.84h1.75Zm-1.72,6.65c0-1.43-.97-2.34-2.23-2.34s-2.23,.91-2.23,2.34,.97,2.34,2.23,2.34,2.23-.91,2.23-2.34Z"/><path class="cls-8" d="M717.34,560.15l.67-1.33c.66,.43,1.67,.74,2.61,.74,1.11,0,1.57-.31,1.57-.83,0-1.43-4.62-.08-4.62-3.07,0-1.42,1.28-2.34,3.29-2.34,1,0,2.13,.24,2.8,.64l-.67,1.33c-.71-.42-1.43-.56-2.14-.56-1.06,0-1.57,.35-1.57,.84,0,1.51,4.62,.17,4.62,3.1,0,1.4-1.29,2.31-3.39,2.31-1.25,0-2.49-.36-3.17-.84Z"/><path class="cls-8" d="M728.61,559.86l.63-1.42c.79,.63,2.03,1.08,3.24,1.08,1.53,0,2.17-.55,2.17-1.27,0-2.12-5.83-.73-5.83-4.37,0-1.58,1.26-2.93,3.95-2.93,1.18,0,2.41,.31,3.26,.87l-.57,1.41c-.88-.52-1.85-.77-2.7-.77-1.51,0-2.13,.59-2.13,1.33,0,2.09,5.81,.73,5.81,4.33,0,1.57-1.27,2.91-3.96,2.91-1.53,0-3.05-.48-3.87-1.18Z"/><path class="cls-8" d="M744.6,558.62h-4.9l-.97,2.27h-1.88l4.41-9.8h1.79l4.43,9.8h-1.91l-.98-2.27Zm-.6-1.43l-1.85-4.29-1.83,4.29h3.68Z"/><path class="cls-8" d="M757.73,560.89v-6.5l-3.24,5.38h-.81l-3.22-5.29v6.42h-1.74v-9.8h1.5l3.89,6.5,3.82-6.5h1.5v9.8h-1.71Z"/><path class="cls-8" d="M762.1,551.09h1.82v8.26h5.13v1.54h-6.95v-9.8Z"/><path class="cls-8" d="M778.51,553.33v1.67c-.15-.03-.28-.04-.41-.04-1.33,0-2.17,.78-2.17,2.31v3.63h-1.75v-7.48h1.67v1.09c.5-.78,1.41-1.18,2.66-1.18Z"/><path class="cls-8" d="M786.92,557.71h-5.87c.21,1.09,1.12,1.79,2.42,1.79,.84,0,1.5-.27,2.03-.81l.94,1.08c-.67,.8-1.72,1.22-3.01,1.22-2.51,0-4.13-1.61-4.13-3.84s1.64-3.82,3.87-3.82,3.78,1.53,3.78,3.87c0,.14-.01,.35-.03,.52Zm-5.88-1.16h4.24c-.14-1.08-.97-1.82-2.12-1.82s-1.96,.73-2.13,1.82Z"/><path class="cls-8" d="M787.77,560.15l.67-1.33c.66,.43,1.67,.74,2.61,.74,1.11,0,1.57-.31,1.57-.83,0-1.43-4.62-.08-4.62-3.07,0-1.42,1.27-2.34,3.29-2.34,1,0,2.13,.24,2.8,.64l-.67,1.33c-.71-.42-1.43-.56-2.14-.56-1.06,0-1.57,.35-1.57,.84,0,1.51,4.62,.17,4.62,3.1,0,1.4-1.29,2.31-3.39,2.31-1.25,0-2.49-.36-3.17-.84Z"/><path class="cls-8" d="M803.78,557.15c0,2.33-1.61,3.84-3.8,3.84-.95,0-1.79-.32-2.4-1.01v3.63h-1.75v-10.2h1.67v.98c.59-.71,1.46-1.06,2.48-1.06,2.19,0,3.8,1.51,3.8,3.82Zm-1.78,0c0-1.43-.95-2.34-2.21-2.34s-2.23,.91-2.23,2.34,.97,2.34,2.23,2.34,2.21-.91,2.21-2.34Z"/><path class="cls-8" d="M804.82,557.15c0-2.24,1.68-3.82,3.98-3.82s3.99,1.58,3.99,3.82-1.67,3.84-3.99,3.84-3.98-1.6-3.98-3.84Zm6.21,0c0-1.43-.95-2.34-2.23-2.34s-2.21,.91-2.21,2.34,.95,2.34,2.21,2.34,2.23-.91,2.23-2.34Z"/><path class="cls-8" d="M821.84,556.61v4.29h-1.75v-4.06c0-1.33-.66-1.98-1.78-1.98-1.25,0-2.09,.76-2.09,2.26v3.78h-1.75v-7.48h1.67v.97c.57-.69,1.48-1.05,2.58-1.05,1.79,0,3.12,1.02,3.12,3.28Z"/><path class="cls-8" d="M823.2,560.15l.67-1.33c.66,.43,1.67,.74,2.61,.74,1.11,0,1.57-.31,1.57-.83,0-1.43-4.62-.08-4.62-3.07,0-1.42,1.27-2.34,3.29-2.34,1,0,2.13,.24,2.8,.64l-.67,1.33c-.71-.42-1.43-.56-2.14-.56-1.06,0-1.57,.35-1.57,.84,0,1.51,4.62,.17,4.62,3.1,0,1.4-1.29,2.31-3.39,2.31-1.25,0-2.49-.36-3.17-.84Z"/><path class="cls-8" d="M838.27,557.71h-5.87c.21,1.09,1.12,1.79,2.42,1.79,.84,0,1.5-.27,2.03-.81l.94,1.08c-.67,.8-1.72,1.22-3.01,1.22-2.51,0-4.13-1.61-4.13-3.84s1.64-3.82,3.87-3.82,3.78,1.53,3.78,3.87c0,.14-.01,.35-.03,.52Zm-5.88-1.16h4.24c-.14-1.08-.97-1.82-2.12-1.82s-1.96,.73-2.13,1.82Z"/><path class="cls-8" d="M848.34,560.49c-.42,.34-1.05,.5-1.68,.5-1.64,0-2.58-.87-2.58-2.52v-3.6h-1.23v-1.4h1.23v-1.71h1.75v1.71h2v1.4h-2v3.56c0,.73,.37,1.12,1.04,1.12,.36,0,.71-.1,.98-.31l.49,1.25Z"/><path class="cls-8" d="M848.91,557.15c0-2.24,1.68-3.82,3.98-3.82s3.99,1.58,3.99,3.82-1.67,3.84-3.99,3.84-3.98-1.6-3.98-3.84Zm6.21,0c0-1.43-.95-2.34-2.23-2.34s-2.21,.91-2.21,2.34,.95,2.34,2.21,2.34,2.23-.91,2.23-2.34Z"/><path class="cls-8" d="M870.36,557.15c0,2.33-1.61,3.84-3.79,3.84-1.02,0-1.89-.35-2.48-1.06v.97h-1.67v-10.39h1.75v3.82c.6-.67,1.44-.99,2.4-.99,2.18,0,3.79,1.5,3.79,3.82Zm-1.78,0c0-1.43-.95-2.34-2.21-2.34s-2.23,.91-2.23,2.34,.97,2.34,2.23,2.34,2.21-.91,2.21-2.34Z"/><path class="cls-8" d="M876.35,553.33v1.67c-.15-.03-.28-.04-.41-.04-1.33,0-2.17,.78-2.17,2.31v3.63h-1.75v-7.48h1.67v1.09c.5-.78,1.42-1.18,2.66-1.18Z"/><path class="cls-8" d="M877.15,557.15c0-2.24,1.68-3.82,3.98-3.82s3.99,1.58,3.99,3.82-1.67,3.84-3.99,3.84-3.98-1.6-3.98-3.84Zm6.21,0c0-1.43-.95-2.34-2.23-2.34s-2.21,.91-2.21,2.34,.95,2.34,2.21,2.34,2.23-.91,2.23-2.34Z"/><path class="cls-8" d="M898.25,553.41l-2.76,7.48h-1.68l-1.93-5.15-1.96,5.15h-1.68l-2.75-7.48h1.65l1.98,5.52,2.06-5.52h1.47l2.02,5.55,2.03-5.55h1.55Z"/><path class="cls-8" d="M898.5,560.15l.67-1.33c.66,.43,1.67,.74,2.61,.74,1.11,0,1.57-.31,1.57-.83,0-1.43-4.62-.08-4.62-3.07,0-1.42,1.28-2.34,3.29-2.34,1,0,2.13,.24,2.8,.64l-.67,1.33c-.71-.42-1.43-.56-2.14-.56-1.06,0-1.57,.35-1.57,.84,0,1.51,4.62,.17,4.62,3.1,0,1.4-1.29,2.31-3.39,2.31-1.25,0-2.49-.36-3.17-.84Z"/><path class="cls-8" d="M913.56,557.71h-5.87c.21,1.09,1.12,1.79,2.42,1.79,.84,0,1.5-.27,2.03-.81l.94,1.08c-.67,.8-1.72,1.22-3.01,1.22-2.51,0-4.13-1.61-4.13-3.84s1.64-3.82,3.87-3.82,3.78,1.53,3.78,3.87c0,.14-.01,.35-.03,.52Zm-5.88-1.16h4.24c-.14-1.08-.97-1.82-2.12-1.82s-1.96,.73-2.13,1.82Z"/><path class="cls-8" d="M919.6,553.33v1.67c-.15-.03-.28-.04-.41-.04-1.33,0-2.17,.78-2.17,2.31v3.63h-1.75v-7.48h1.67v1.09c.5-.78,1.42-1.18,2.66-1.18Z"/></g><g><path class="cls-8" d="M201.23,636.62v-5.53h1.82v5.46c0,2.02,.91,2.89,2.49,2.89s2.48-.87,2.48-2.89v-5.46h1.79v5.53c0,2.86-1.61,4.41-4.29,4.41s-4.3-1.56-4.3-4.41Z"/><path class="cls-8" d="M211.34,640.15l.67-1.33c.66,.43,1.67,.74,2.61,.74,1.11,0,1.57-.31,1.57-.83,0-1.43-4.62-.08-4.62-3.07,0-1.42,1.27-2.34,3.29-2.34,.99,0,2.13,.24,2.8,.64l-.67,1.33c-.71-.42-1.43-.56-2.14-.56-1.06,0-1.57,.35-1.57,.84,0,1.51,4.62,.17,4.62,3.1,0,1.4-1.29,2.31-3.39,2.31-1.25,0-2.49-.36-3.17-.84Z"/><path class="cls-8" d="M226.41,637.71h-5.87c.21,1.09,1.12,1.79,2.42,1.79,.84,0,1.5-.27,2.03-.81l.94,1.08c-.67,.8-1.72,1.22-3.01,1.22-2.51,0-4.13-1.61-4.13-3.84s1.64-3.82,3.87-3.82,3.78,1.53,3.78,3.87c0,.14-.01,.35-.03,.52Zm-5.88-1.16h4.25c-.14-1.08-.97-1.82-2.12-1.82s-1.96,.73-2.13,1.82Z"/><path class="cls-8" d="M232.44,633.33v1.67c-.15-.03-.28-.04-.41-.04-1.33,0-2.17,.78-2.17,2.31v3.63h-1.75v-7.48h1.67v1.09c.5-.78,1.41-1.18,2.66-1.18Z"/><path class="cls-8" d="M237.24,637.15c0-2.24,1.68-3.82,4.05-3.82,1.46,0,2.62,.6,3.19,1.74l-1.34,.78c-.45-.71-1.12-1.04-1.86-1.04-1.29,0-2.27,.9-2.27,2.34s.98,2.34,2.27,2.34c.74,0,1.42-.32,1.86-1.04l1.34,.78c-.58,1.12-1.74,1.75-3.19,1.75-2.37,0-4.05-1.6-4.05-3.84Z"/><path class="cls-8" d="M245.26,637.15c0-2.24,1.68-3.82,3.98-3.82s3.99,1.58,3.99,3.82-1.67,3.84-3.99,3.84-3.98-1.6-3.98-3.84Zm6.21,0c0-1.43-.95-2.34-2.23-2.34s-2.21,.91-2.21,2.34,.95,2.34,2.21,2.34,2.23-.91,2.23-2.34Z"/><path class="cls-8" d="M267.42,636.61v4.29h-1.75v-4.06c0-1.33-.62-1.98-1.68-1.98-1.15,0-1.95,.76-1.95,2.24v3.8h-1.75v-4.06c0-1.33-.62-1.98-1.68-1.98-1.16,0-1.95,.76-1.95,2.24v3.8h-1.75v-7.48h1.67v.95c.56-.67,1.43-1.04,2.45-1.04,1.09,0,2,.41,2.52,1.25,.6-.77,1.61-1.25,2.8-1.25,1.81,0,3.07,1.02,3.07,3.28Z"/><path class="cls-8" d="M277.59,637.15c0,2.33-1.61,3.84-3.8,3.84-.95,0-1.79-.32-2.39-1.01v3.63h-1.75v-10.2h1.67v.98c.59-.71,1.46-1.06,2.48-1.06,2.19,0,3.8,1.51,3.8,3.82Zm-1.78,0c0-1.43-.95-2.34-2.21-2.34s-2.23,.91-2.23,2.34,.97,2.34,2.23,2.34,2.21-.91,2.21-2.34Z"/><path class="cls-8" d="M279.25,630.5h1.75v10.39h-1.75v-10.39Z"/><path class="cls-8" d="M290.3,637.71h-5.87c.21,1.09,1.12,1.79,2.42,1.79,.84,0,1.5-.27,2.03-.81l.94,1.08c-.67,.8-1.72,1.22-3.01,1.22-2.51,0-4.13-1.61-4.13-3.84s1.64-3.82,3.87-3.82,3.78,1.53,3.78,3.87c0,.14-.01,.35-.03,.52Zm-5.88-1.16h4.24c-.14-1.08-.97-1.82-2.12-1.82s-1.96,.73-2.13,1.82Z"/><path class="cls-8" d="M296.5,640.49c-.42,.34-1.05,.5-1.68,.5-1.64,0-2.58-.87-2.58-2.52v-3.6h-1.23v-1.4h1.23v-1.71h1.75v1.71h2v1.4h-2v3.56c0,.73,.36,1.12,1.04,1.12,.36,0,.71-.1,.98-.31l.49,1.25Z"/><path class="cls-8" d="M304.7,637.71h-5.87c.21,1.09,1.12,1.79,2.42,1.79,.84,0,1.5-.27,2.03-.81l.94,1.08c-.67,.8-1.72,1.22-3.01,1.22-2.51,0-4.13-1.61-4.13-3.84s1.64-3.82,3.87-3.82,3.78,1.53,3.78,3.87c0,.14-.01,.35-.03,.52Zm-5.88-1.16h4.25c-.14-1.08-.97-1.82-2.12-1.82s-1.96,.73-2.13,1.82Z"/><path class="cls-8" d="M305.55,640.15l.67-1.33c.66,.43,1.67,.74,2.61,.74,1.11,0,1.57-.31,1.57-.83,0-1.43-4.62-.08-4.62-3.07,0-1.42,1.27-2.34,3.29-2.34,.99,0,2.13,.24,2.8,.64l-.67,1.33c-.71-.42-1.43-.56-2.14-.56-1.06,0-1.57,.35-1.57,.84,0,1.51,4.62,.17,4.62,3.1,0,1.4-1.29,2.31-3.39,2.31-1.25,0-2.49-.36-3.17-.84Z"/><path class="cls-8" d="M317.47,630.5h1.75v10.39h-1.75v-10.39Z"/><path class="cls-8" d="M320.9,637.15c0-2.24,1.68-3.82,3.98-3.82s3.99,1.58,3.99,3.82-1.67,3.84-3.99,3.84-3.98-1.6-3.98-3.84Zm6.21,0c0-1.43-.95-2.34-2.23-2.34s-2.21,.91-2.21,2.34,.95,2.34,2.21,2.34,2.23-.91,2.23-2.34Z"/><path class="cls-8" d="M337.97,633.41v6.35c0,2.72-1.42,3.95-4.03,3.95-1.4,0-2.79-.36-3.64-1.06l.78-1.32c.66,.55,1.72,.9,2.76,.9,1.65,0,2.38-.76,2.38-2.27v-.39c-.62,.67-1.5,.99-2.51,.99-2.14,0-3.78-1.46-3.78-3.63s1.64-3.6,3.78-3.6c1.05,0,1.97,.34,2.59,1.08v-.99h1.67Zm-1.72,3.52c0-1.26-.95-2.12-2.27-2.12s-2.28,.85-2.28,2.12,.95,2.14,2.28,2.14,2.27-.87,2.27-2.14Z"/><path class="cls-8" d="M340.03,631.13c0-.59,.48-1.05,1.12-1.05s1.12,.43,1.12,1.01c0,.62-.46,1.09-1.12,1.09s-1.12-.46-1.12-1.05Zm.24,2.28h1.75v7.48h-1.75v-7.48Z"/><path class="cls-8" d="M351.68,636.61v4.29h-1.75v-4.06c0-1.33-.66-1.98-1.78-1.98-1.25,0-2.09,.76-2.09,2.26v3.78h-1.75v-7.48h1.67v.97c.57-.69,1.48-1.05,2.58-1.05,1.79,0,3.12,1.02,3.12,3.28Z"/><path class="cls-8" d="M362.26,640.49c-.42,.34-1.05,.5-1.68,.5-1.64,0-2.58-.87-2.58-2.52v-3.6h-1.23v-1.4h1.23v-1.71h1.75v1.71h2v1.4h-2v3.56c0,.73,.36,1.12,1.04,1.12,.37,0,.71-.1,.98-.31l.49,1.25Z"/><path class="cls-8" d="M362.83,637.15c0-2.24,1.68-3.82,3.98-3.82s3.99,1.58,3.99,3.82-1.67,3.84-3.99,3.84-3.98-1.6-3.98-3.84Zm6.21,0c0-1.43-.95-2.34-2.23-2.34s-2.21,.91-2.21,2.34,.95,2.34,2.21,2.34,2.23-.91,2.23-2.34Z"/><path class="cls-8" d="M382.87,638.62h-4.9l-.97,2.27h-1.88l4.41-9.8h1.79l4.43,9.8h-1.9l-.98-2.27Zm-.6-1.43l-1.85-4.29-1.84,4.29h3.68Z"/><path class="cls-8" d="M399.34,636.61v4.29h-1.75v-4.06c0-1.33-.62-1.98-1.68-1.98-1.15,0-1.95,.76-1.95,2.24v3.8h-1.75v-4.06c0-1.33-.62-1.98-1.68-1.98-1.16,0-1.95,.76-1.95,2.24v3.8h-1.75v-7.48h1.67v.95c.56-.67,1.43-1.04,2.45-1.04,1.09,0,2,.41,2.52,1.25,.6-.77,1.61-1.25,2.8-1.25,1.81,0,3.07,1.02,3.07,3.28Z"/><path class="cls-8" d="M409.51,637.15c0,2.33-1.61,3.84-3.8,3.84-.95,0-1.79-.32-2.39-1.01v3.63h-1.75v-10.2h1.67v.98c.59-.71,1.46-1.06,2.48-1.06,2.19,0,3.8,1.51,3.8,3.82Zm-1.78,0c0-1.43-.95-2.34-2.21-2.34s-2.23,.91-2.23,2.34,.97,2.34,2.23,2.34,2.21-.91,2.21-2.34Z"/><path class="cls-8" d="M418.18,637.71h-5.87c.21,1.09,1.12,1.79,2.42,1.79,.84,0,1.5-.27,2.03-.81l.94,1.08c-.67,.8-1.72,1.22-3.01,1.22-2.51,0-4.13-1.61-4.13-3.84s1.64-3.82,3.87-3.82,3.78,1.53,3.78,3.87c0,.14-.01,.35-.03,.52Zm-5.88-1.16h4.25c-.14-1.08-.97-1.82-2.12-1.82s-1.96,.73-2.13,1.82Z"/><path class="cls-8" d="M424.21,633.33v1.67c-.15-.03-.28-.04-.41-.04-1.33,0-2.17,.78-2.17,2.31v3.63h-1.75v-7.48h1.67v1.09c.5-.78,1.42-1.18,2.66-1.18Z"/><path class="cls-8" d="M425.45,631.13c0-.59,.48-1.05,1.12-1.05s1.12,.43,1.12,1.01c0,.62-.46,1.09-1.12,1.09s-1.12-.46-1.12-1.05Zm.24,2.28h1.75v7.48h-1.75v-7.48Z"/><path class="cls-8" d="M434.23,640.49c-.42,.34-1.05,.5-1.68,.5-1.64,0-2.58-.87-2.58-2.52v-3.6h-1.23v-1.4h1.23v-1.71h1.75v1.71h2v1.4h-2v3.56c0,.73,.36,1.12,1.04,1.12,.36,0,.71-.1,.98-.31l.49,1.25Z"/><path class="cls-8" d="M442.54,633.41l-3.5,8.08c-.69,1.7-1.64,2.21-2.89,2.21-.74,0-1.53-.25-2-.69l.7-1.29c.34,.32,.81,.52,1.29,.52,.62,0,.98-.29,1.32-1.04l.13-.29-3.26-7.51h1.82l2.35,5.53,2.37-5.53h1.68Z"/></g><g><path class="cls-8" d="M201.23,236.62v-5.53h1.82v5.46c0,2.02,.91,2.89,2.49,2.89s2.48-.87,2.48-2.89v-5.46h1.79v5.53c0,2.86-1.61,4.41-4.29,4.41s-4.3-1.56-4.3-4.41Z"/><path class="cls-8" d="M211.34,240.15l.67-1.33c.66,.43,1.67,.74,2.61,.74,1.11,0,1.57-.31,1.57-.83,0-1.43-4.62-.08-4.62-3.07,0-1.41,1.28-2.34,3.29-2.34,.99,0,2.13,.24,2.8,.64l-.67,1.33c-.71-.42-1.43-.56-2.14-.56-1.06,0-1.57,.35-1.57,.84,0,1.51,4.62,.17,4.62,3.1,0,1.4-1.29,2.31-3.39,2.31-1.25,0-2.49-.36-3.17-.84Z"/><path class="cls-8" d="M226.41,237.71h-5.87c.21,1.09,1.12,1.79,2.42,1.79,.84,0,1.5-.27,2.03-.81l.94,1.08c-.67,.8-1.72,1.22-3.01,1.22-2.51,0-4.13-1.61-4.13-3.84s1.64-3.82,3.87-3.82,3.78,1.53,3.78,3.87c0,.14-.01,.35-.03,.52Zm-5.88-1.16h4.25c-.14-1.08-.97-1.82-2.12-1.82s-1.96,.73-2.13,1.82Z"/><path class="cls-8" d="M232.44,233.33v1.67c-.15-.03-.28-.04-.41-.04-1.33,0-2.17,.78-2.17,2.31v3.63h-1.75v-7.48h1.67v1.09c.5-.78,1.42-1.18,2.66-1.18Z"/><path class="cls-8" d="M244.12,236.51v4.38h-1.65v-.91c-.42,.64-1.23,1.01-2.35,1.01-1.71,0-2.79-.94-2.79-2.24s.84-2.23,3.11-2.23h1.93v-.11c0-1.02-.62-1.62-1.86-1.62-.84,0-1.71,.28-2.27,.74l-.69-1.27c.8-.62,1.96-.92,3.17-.92,2.16,0,3.4,1.02,3.4,3.18Zm-1.75,2.04v-.87h-1.81c-1.19,0-1.51,.45-1.51,.99,0,.63,.53,1.04,1.43,1.04s1.6-.39,1.89-1.16Z"/><path class="cls-8" d="M245.81,237.15c0-2.24,1.68-3.82,4.05-3.82,1.46,0,2.62,.6,3.19,1.74l-1.34,.78c-.45-.71-1.12-1.04-1.86-1.04-1.29,0-2.27,.9-2.27,2.34s.98,2.34,2.27,2.34c.74,0,1.42-.32,1.86-1.04l1.34,.78c-.57,1.12-1.74,1.75-3.19,1.75-2.37,0-4.05-1.6-4.05-3.84Z"/><path class="cls-8" d="M253.83,237.15c0-2.24,1.68-3.82,4.05-3.82,1.46,0,2.62,.6,3.19,1.74l-1.34,.78c-.45-.71-1.12-1.04-1.86-1.04-1.29,0-2.27,.9-2.27,2.34s.98,2.34,2.27,2.34c.74,0,1.41-.32,1.86-1.04l1.34,.78c-.57,1.12-1.74,1.75-3.19,1.75-2.37,0-4.05-1.6-4.05-3.84Z"/><path class="cls-8" d="M269.47,237.71h-5.87c.21,1.09,1.12,1.79,2.42,1.79,.84,0,1.5-.27,2.03-.81l.94,1.08c-.67,.8-1.72,1.22-3.01,1.22-2.51,0-4.13-1.61-4.13-3.84s1.64-3.82,3.87-3.82,3.78,1.53,3.78,3.87c0,.14-.01,.35-.03,.52Zm-5.88-1.16h4.24c-.14-1.08-.97-1.82-2.12-1.82s-1.96,.73-2.13,1.82Z"/><path class="cls-8" d="M270.32,240.15l.67-1.33c.66,.43,1.67,.74,2.61,.74,1.11,0,1.57-.31,1.57-.83,0-1.43-4.62-.08-4.62-3.07,0-1.41,1.27-2.34,3.29-2.34,1,0,2.13,.24,2.8,.64l-.67,1.33c-.71-.42-1.43-.56-2.14-.56-1.06,0-1.57,.35-1.57,.84,0,1.51,4.62,.17,4.62,3.1,0,1.4-1.29,2.31-3.39,2.31-1.25,0-2.49-.36-3.17-.84Z"/><path class="cls-8" d="M277.53,240.15l.67-1.33c.66,.43,1.67,.74,2.61,.74,1.11,0,1.57-.31,1.57-.83,0-1.43-4.62-.08-4.62-3.07,0-1.41,1.28-2.34,3.29-2.34,.99,0,2.13,.24,2.8,.64l-.67,1.33c-.71-.42-1.43-.56-2.14-.56-1.06,0-1.57,.35-1.57,.84,0,1.51,4.62,.17,4.62,3.1,0,1.4-1.29,2.31-3.39,2.31-1.25,0-2.49-.36-3.17-.84Z"/><path class="cls-8" d="M292.6,237.71h-5.87c.21,1.09,1.12,1.79,2.42,1.79,.84,0,1.5-.27,2.03-.81l.94,1.08c-.67,.8-1.72,1.22-3.01,1.22-2.51,0-4.13-1.61-4.13-3.84s1.64-3.82,3.87-3.82,3.78,1.53,3.78,3.87c0,.14-.01,.35-.03,.52Zm-5.88-1.16h4.25c-.14-1.08-.97-1.82-2.12-1.82s-1.96,.73-2.13,1.82Z"/><path class="cls-8" d="M293.45,240.15l.67-1.33c.66,.43,1.67,.74,2.61,.74,1.11,0,1.57-.31,1.57-.83,0-1.43-4.62-.08-4.62-3.07,0-1.41,1.28-2.34,3.29-2.34,.99,0,2.13,.24,2.8,.64l-.67,1.33c-.71-.42-1.43-.56-2.14-.56-1.06,0-1.57,.35-1.57,.84,0,1.51,4.62,.17,4.62,3.1,0,1.4-1.29,2.31-3.39,2.31-1.25,0-2.49-.36-3.17-.84Z"/><path class="cls-8" d="M311.91,238.62h-4.9l-.97,2.27h-1.88l4.41-9.81h1.79l4.43,9.81h-1.9l-.98-2.27Zm-.6-1.43l-1.85-4.29-1.84,4.29h3.68Z"/><path class="cls-8" d="M328.37,236.61v4.29h-1.75v-4.06c0-1.33-.62-1.98-1.68-1.98-1.15,0-1.95,.76-1.95,2.24v3.8h-1.75v-4.06c0-1.33-.62-1.98-1.68-1.98-1.16,0-1.95,.76-1.95,2.24v3.8h-1.75v-7.48h1.67v.95c.56-.67,1.43-1.04,2.45-1.04,1.09,0,2,.41,2.52,1.25,.6-.77,1.61-1.25,2.8-1.25,1.81,0,3.07,1.02,3.07,3.28Z"/><path class="cls-8" d="M338.55,237.15c0,2.33-1.61,3.84-3.8,3.84-.95,0-1.79-.32-2.39-1.01v3.63h-1.75v-10.2h1.67v.98c.59-.71,1.46-1.06,2.48-1.06,2.19,0,3.8,1.51,3.8,3.82Zm-1.78,0c0-1.43-.95-2.34-2.21-2.34s-2.23,.91-2.23,2.34,.97,2.34,2.23,2.34,2.21-.91,2.21-2.34Z"/><path class="cls-8" d="M347.21,237.71h-5.87c.21,1.09,1.12,1.79,2.42,1.79,.84,0,1.5-.27,2.03-.81l.94,1.08c-.67,.8-1.72,1.22-3.01,1.22-2.51,0-4.13-1.61-4.13-3.84s1.64-3.82,3.87-3.82,3.78,1.53,3.78,3.87c0,.14-.01,.35-.03,.52Zm-5.88-1.16h4.25c-.14-1.08-.97-1.82-2.12-1.82s-1.96,.73-2.13,1.82Z"/><path class="cls-8" d="M353.25,233.33v1.67c-.15-.03-.28-.04-.41-.04-1.33,0-2.17,.78-2.17,2.31v3.63h-1.75v-7.48h1.67v1.09c.5-.78,1.42-1.18,2.66-1.18Z"/><path class="cls-8" d="M354.49,231.13c0-.59,.48-1.05,1.12-1.05s1.12,.43,1.12,1.01c0,.62-.46,1.09-1.12,1.09s-1.12-.46-1.12-1.05Zm.24,2.28h1.75v7.48h-1.75v-7.48Z"/><path class="cls-8" d="M363.27,240.49c-.42,.34-1.05,.5-1.68,.5-1.64,0-2.58-.87-2.58-2.52v-3.6h-1.23v-1.4h1.23v-1.71h1.75v1.71h2v1.4h-2v3.56c0,.73,.36,1.12,1.04,1.12,.36,0,.71-.1,.98-.31l.49,1.25Z"/><path class="cls-8" d="M371.57,233.41l-3.5,8.08c-.69,1.7-1.64,2.21-2.89,2.21-.74,0-1.53-.25-2-.69l.7-1.29c.34,.32,.81,.52,1.29,.52,.62,0,.98-.29,1.32-1.04l.13-.29-3.26-7.51h1.82l2.35,5.53,2.37-5.53h1.68Z"/><path class="cls-8" d="M378.46,233.02v.45h2.06v1.4h-2v6.02h-1.75v-6.02h-1.23v-1.4h1.23v-.48c0-1.57,.94-2.59,2.68-2.59,.6,0,1.19,.13,1.58,.41l-.49,1.32c-.27-.18-.6-.31-.97-.31-.73,0-1.11,.41-1.11,1.2Z"/><path class="cls-8" d="M387.14,233.33v1.67c-.15-.03-.28-.04-.41-.04-1.33,0-2.17,.78-2.17,2.31v3.63h-1.75v-7.48h1.67v1.09c.5-.78,1.41-1.18,2.66-1.18Z"/><path class="cls-8" d="M387.93,237.15c0-2.24,1.68-3.82,3.98-3.82s3.99,1.58,3.99,3.82-1.67,3.84-3.99,3.84-3.98-1.6-3.98-3.84Zm6.21,0c0-1.43-.95-2.34-2.23-2.34s-2.21,.91-2.21,2.34,.95,2.34,2.21,2.34,2.23-.91,2.23-2.34Z"/><path class="cls-8" d="M410.09,236.61v4.29h-1.75v-4.06c0-1.33-.62-1.98-1.68-1.98-1.15,0-1.95,.76-1.95,2.24v3.8h-1.75v-4.06c0-1.33-.62-1.98-1.68-1.98-1.16,0-1.95,.76-1.95,2.24v3.8h-1.75v-7.48h1.67v.95c.56-.67,1.43-1.04,2.45-1.04,1.09,0,2,.41,2.52,1.25,.6-.77,1.61-1.25,2.8-1.25,1.81,0,3.07,1.02,3.07,3.28Z"/><path class="cls-8" d="M427.85,233.41l-2.76,7.48h-1.68l-1.93-5.15-1.96,5.15h-1.68l-2.75-7.48h1.65l1.98,5.52,2.06-5.52h1.47l2.02,5.55,2.03-5.55h1.55Z"/><path class="cls-8" d="M435.85,237.71h-5.87c.21,1.09,1.12,1.79,2.42,1.79,.84,0,1.5-.27,2.03-.81l.94,1.08c-.67,.8-1.72,1.22-3.01,1.22-2.51,0-4.13-1.61-4.13-3.84s1.64-3.82,3.87-3.82,3.78,1.53,3.78,3.87c0,.14-.01,.35-.03,.52Zm-5.88-1.16h4.25c-.14-1.08-.97-1.82-2.12-1.82s-1.96,.73-2.13,1.82Z"/><path class="cls-8" d="M445.49,237.15c0,2.33-1.61,3.84-3.79,3.84-1.02,0-1.89-.35-2.48-1.06v.97h-1.67v-10.39h1.75v3.82c.6-.67,1.44-.99,2.4-.99,2.18,0,3.79,1.5,3.79,3.82Zm-1.78,0c0-1.43-.95-2.34-2.21-2.34s-2.23,.91-2.23,2.34,.97,2.34,2.23,2.34,2.21-.91,2.21-2.34Z"/><path class="cls-8" d="M458.96,237.15c0,2.33-1.61,3.84-3.8,3.84-1.02,0-1.89-.35-2.48-1.06v.97h-1.67v-10.39h1.75v3.82c.6-.67,1.44-.99,2.39-.99,2.19,0,3.8,1.5,3.8,3.82Zm-1.78,0c0-1.43-.95-2.34-2.21-2.34s-2.23,.91-2.23,2.34,.97,2.34,2.23,2.34,2.21-.91,2.21-2.34Z"/><path class="cls-8" d="M464.95,233.33v1.67c-.15-.03-.28-.04-.41-.04-1.33,0-2.17,.78-2.17,2.31v3.63h-1.75v-7.48h1.67v1.09c.5-.78,1.42-1.18,2.66-1.18Z"/><path class="cls-8" d="M465.75,237.15c0-2.24,1.68-3.82,3.98-3.82s3.99,1.58,3.99,3.82-1.67,3.84-3.99,3.84-3.98-1.6-3.98-3.84Zm6.21,0c0-1.43-.95-2.34-2.23-2.34s-2.21,.91-2.21,2.34,.95,2.34,2.21,2.34,2.23-.91,2.23-2.34Z"/><path class="cls-8" d="M486.85,233.41l-2.76,7.48h-1.68l-1.93-5.15-1.96,5.15h-1.68l-2.75-7.48h1.65l1.97,5.52,2.06-5.52h1.47l2.02,5.55,2.03-5.55h1.55Z"/><path class="cls-8" d="M487.09,240.15l.67-1.33c.66,.43,1.67,.74,2.61,.74,1.11,0,1.57-.31,1.57-.83,0-1.43-4.62-.08-4.62-3.07,0-1.41,1.27-2.34,3.29-2.34,.99,0,2.13,.24,2.8,.64l-.67,1.33c-.71-.42-1.43-.56-2.14-.56-1.06,0-1.57,.35-1.57,.84,0,1.51,4.62,.17,4.62,3.1,0,1.4-1.29,2.31-3.39,2.31-1.25,0-2.49-.36-3.17-.84Z"/><path class="cls-8" d="M502.16,237.71h-5.87c.21,1.09,1.12,1.79,2.42,1.79,.84,0,1.5-.27,2.03-.81l.94,1.08c-.67,.8-1.72,1.22-3.01,1.22-2.51,0-4.13-1.61-4.13-3.84s1.64-3.82,3.87-3.82,3.78,1.53,3.78,3.87c0,.14-.01,.35-.03,.52Zm-5.88-1.16h4.25c-.14-1.08-.97-1.82-2.12-1.82s-1.96,.73-2.13,1.82Z"/><path class="cls-8" d="M508.2,233.33v1.67c-.15-.03-.28-.04-.41-.04-1.33,0-2.17,.78-2.17,2.31v3.63h-1.75v-7.48h1.67v1.09c.5-.78,1.41-1.18,2.66-1.18Z"/></g><g><line class="cls-3" x1="550" y1="296.8" x2="195.02" y2="296.8"/><polygon points="196.04 293.31 190 296.8 196.04 300.29 196.04 293.31"/></g><g><path class="cls-8" d="M207.75,318.62h-4.9l-.97,2.27h-1.88l4.41-9.81h1.79l4.43,9.81h-1.91l-.98-2.27Zm-.6-1.43l-1.85-4.29-1.83,4.29h3.68Z"/><path class="cls-8" d="M224.21,316.61v4.29h-1.75v-4.06c0-1.33-.62-1.98-1.68-1.98-1.15,0-1.95,.76-1.95,2.24v3.8h-1.75v-4.06c0-1.33-.62-1.98-1.68-1.98-1.16,0-1.95,.76-1.95,2.24v3.8h-1.75v-7.48h1.67v.95c.56-.67,1.43-1.04,2.45-1.04,1.09,0,2,.41,2.52,1.25,.6-.77,1.61-1.25,2.8-1.25,1.81,0,3.07,1.02,3.07,3.28Z"/><path class="cls-8" d="M234.39,317.15c0,2.33-1.61,3.84-3.8,3.84-.95,0-1.79-.32-2.4-1.01v3.63h-1.75v-10.2h1.67v.98c.59-.71,1.46-1.06,2.48-1.06,2.19,0,3.8,1.51,3.8,3.82Zm-1.78,0c0-1.43-.95-2.34-2.21-2.34s-2.23,.91-2.23,2.34,.97,2.34,2.23,2.34,2.21-.91,2.21-2.34Z"/><path class="cls-8" d="M243.05,317.71h-5.87c.21,1.09,1.12,1.79,2.42,1.79,.84,0,1.5-.27,2.03-.81l.94,1.08c-.67,.8-1.72,1.22-3.01,1.22-2.51,0-4.13-1.61-4.13-3.84s1.64-3.82,3.87-3.82,3.78,1.53,3.78,3.87c0,.14-.01,.35-.03,.52Zm-5.88-1.16h4.24c-.14-1.08-.97-1.82-2.12-1.82s-1.96,.73-2.13,1.82Z"/><path class="cls-8" d="M249.09,313.33v1.67c-.15-.03-.28-.04-.41-.04-1.33,0-2.17,.78-2.17,2.31v3.63h-1.75v-7.48h1.67v1.09c.5-.78,1.42-1.18,2.66-1.18Z"/><path class="cls-8" d="M250.33,311.13c0-.59,.48-1.05,1.12-1.05s1.12,.43,1.12,1.01c0,.62-.46,1.09-1.12,1.09s-1.12-.46-1.12-1.05Zm.24,2.28h1.75v7.48h-1.75v-7.48Z"/><path class="cls-8" d="M259.11,320.49c-.42,.34-1.05,.5-1.68,.5-1.64,0-2.58-.87-2.58-2.52v-3.6h-1.23v-1.4h1.23v-1.71h1.75v1.71h2v1.4h-2v3.56c0,.73,.37,1.12,1.04,1.12,.36,0,.71-.1,.98-.31l.49,1.25Z"/><path class="cls-8" d="M267.41,313.41l-3.5,8.08c-.69,1.7-1.64,2.21-2.88,2.21-.74,0-1.53-.25-2-.69l.7-1.29c.34,.32,.81,.52,1.29,.52,.62,0,.98-.29,1.32-1.04l.13-.29-3.26-7.51h1.82l2.35,5.53,2.37-5.53h1.68Z"/><path class="cls-8" d="M279.69,310.5v10.39h-1.68v-.97c-.59,.71-1.46,1.06-2.48,1.06-2.17,0-3.78-1.51-3.78-3.84s1.61-3.82,3.78-3.82c.97,0,1.82,.32,2.41,1.01v-3.84h1.75Zm-1.72,6.65c0-1.43-.97-2.34-2.23-2.34s-2.23,.91-2.23,2.34,.97,2.34,2.23,2.34,2.23-.91,2.23-2.34Z"/><path class="cls-8" d="M281.75,311.13c0-.59,.48-1.05,1.12-1.05s1.12,.43,1.12,1.01c0,.62-.46,1.09-1.12,1.09s-1.12-.46-1.12-1.05Zm.24,2.28h1.75v7.48h-1.75v-7.48Z"/><path class="cls-8" d="M285.17,320.15l.67-1.33c.66,.43,1.67,.74,2.61,.74,1.11,0,1.57-.31,1.57-.83,0-1.43-4.62-.08-4.62-3.07,0-1.41,1.27-2.34,3.29-2.34,1,0,2.13,.24,2.8,.64l-.67,1.33c-.71-.42-1.43-.56-2.14-.56-1.06,0-1.57,.35-1.57,.84,0,1.51,4.62,.17,4.62,3.1,0,1.4-1.29,2.31-3.39,2.31-1.25,0-2.49-.36-3.17-.84Z"/><path class="cls-8" d="M301.18,317.15c0,2.33-1.61,3.84-3.8,3.84-.95,0-1.79-.32-2.4-1.01v3.63h-1.75v-10.2h1.67v.98c.59-.71,1.46-1.06,2.48-1.06,2.19,0,3.8,1.51,3.8,3.82Zm-1.78,0c0-1.43-.95-2.34-2.21-2.34s-2.23,.91-2.23,2.34,.97,2.34,2.23,2.34,2.21-.91,2.21-2.34Z"/><path class="cls-8" d="M302.84,310.5h1.75v10.39h-1.75v-10.39Z"/><path class="cls-8" d="M313.15,316.51v4.38h-1.65v-.91c-.42,.64-1.23,1.01-2.35,1.01-1.71,0-2.79-.94-2.79-2.24s.84-2.23,3.11-2.23h1.93v-.11c0-1.02-.62-1.62-1.86-1.62-.84,0-1.71,.28-2.27,.74l-.69-1.27c.8-.62,1.96-.92,3.17-.92,2.16,0,3.4,1.02,3.4,3.18Zm-1.75,2.04v-.87h-1.81c-1.19,0-1.51,.45-1.51,.99,0,.63,.53,1.04,1.43,1.04s1.6-.39,1.89-1.16Z"/><path class="cls-8" d="M322.25,313.41l-3.5,8.08c-.69,1.7-1.64,2.21-2.89,2.21-.74,0-1.53-.25-2-.69l.7-1.29c.34,.32,.81,.52,1.29,.52,.62,0,.98-.29,1.32-1.04l.13-.29-3.26-7.51h1.82l2.35,5.53,2.37-5.53h1.68Z"/><path class="cls-8" d="M322.39,320.15l.67-1.33c.66,.43,1.67,.74,2.61,.74,1.11,0,1.57-.31,1.57-.83,0-1.43-4.62-.08-4.62-3.07,0-1.41,1.28-2.34,3.29-2.34,1,0,2.13,.24,2.8,.64l-.67,1.33c-.71-.42-1.43-.56-2.14-.56-1.06,0-1.57,.35-1.57,.84,0,1.51,4.62,.17,4.62,3.1,0,1.4-1.29,2.31-3.39,2.31-1.25,0-2.49-.36-3.17-.84Z"/><path class="cls-8" d="M338.81,320.49c-.42,.34-1.05,.5-1.68,.5-1.64,0-2.58-.87-2.58-2.52v-3.6h-1.23v-1.4h1.23v-1.71h1.75v1.71h2v1.4h-2v3.56c0,.73,.36,1.12,1.04,1.12,.36,0,.71-.1,.98-.31l.49,1.25Z"/><path class="cls-8" d="M347.62,316.61v4.29h-1.75v-4.06c0-1.33-.66-1.98-1.78-1.98-1.25,0-2.09,.76-2.09,2.26v3.78h-1.75v-10.39h1.75v3.78c.57-.62,1.46-.95,2.49-.95,1.79,0,3.12,1.02,3.12,3.28Z"/><path class="cls-8" d="M356.91,317.71h-5.87c.21,1.09,1.12,1.79,2.42,1.79,.84,0,1.5-.27,2.03-.81l.94,1.08c-.67,.8-1.72,1.22-3.01,1.22-2.51,0-4.13-1.61-4.13-3.84s1.64-3.82,3.87-3.82,3.78,1.53,3.78,3.87c0,.14-.01,.35-.03,.52Zm-5.88-1.16h4.25c-.14-1.08-.97-1.82-2.12-1.82s-1.96,.73-2.13,1.82Z"/><path class="cls-8" d="M362.48,310.5h1.75v10.39h-1.75v-10.39Z"/><path class="cls-8" d="M365.91,317.15c0-2.24,1.68-3.82,3.98-3.82s3.99,1.58,3.99,3.82-1.67,3.84-3.99,3.84-3.98-1.6-3.98-3.84Zm6.21,0c0-1.43-.95-2.34-2.23-2.34s-2.21,.91-2.21,2.34,.95,2.34,2.21,2.34,2.23-.91,2.23-2.34Z"/><path class="cls-8" d="M382.98,313.41v6.35c0,2.72-1.41,3.95-4.03,3.95-1.4,0-2.79-.36-3.64-1.06l.79-1.32c.66,.55,1.72,.9,2.76,.9,1.65,0,2.38-.76,2.38-2.27v-.39c-.62,.67-1.5,.99-2.51,.99-2.14,0-3.78-1.46-3.78-3.63s1.64-3.6,3.78-3.6c1.05,0,1.97,.34,2.59,1.08v-.99h1.67Zm-1.72,3.52c0-1.26-.95-2.12-2.27-2.12s-2.28,.85-2.28,2.12,.95,2.14,2.28,2.14,2.27-.87,2.27-2.14Z"/><path class="cls-8" d="M385.04,311.13c0-.59,.48-1.05,1.12-1.05s1.12,.43,1.12,1.01c0,.62-.46,1.09-1.12,1.09s-1.12-.46-1.12-1.05Zm.24,2.28h1.75v7.48h-1.75v-7.48Z"/><path class="cls-8" d="M396.69,316.61v4.29h-1.75v-4.06c0-1.33-.66-1.98-1.78-1.98-1.25,0-2.09,.76-2.09,2.26v3.78h-1.75v-7.48h1.67v.97c.57-.69,1.49-1.05,2.58-1.05,1.79,0,3.12,1.02,3.12,3.28Z"/><path class="cls-8" d="M410.72,317.15c0,2.33-1.61,3.84-3.8,3.84-.95,0-1.79-.32-2.39-1.01v3.63h-1.75v-10.2h1.67v.98c.59-.71,1.46-1.06,2.48-1.06,2.19,0,3.8,1.51,3.8,3.82Zm-1.78,0c0-1.43-.95-2.34-2.21-2.34s-2.23,.91-2.23,2.34,.97,2.34,2.23,2.34,2.21-.91,2.21-2.34Z"/><path class="cls-8" d="M418.54,316.51v4.38h-1.65v-.91c-.42,.64-1.23,1.01-2.35,1.01-1.71,0-2.79-.94-2.79-2.24s.84-2.23,3.11-2.23h1.93v-.11c0-1.02-.62-1.62-1.86-1.62-.84,0-1.71,.28-2.27,.74l-.69-1.27c.8-.62,1.96-.92,3.17-.92,2.16,0,3.4,1.02,3.4,3.18Zm-1.75,2.04v-.87h-1.81c-1.19,0-1.51,.45-1.51,.99,0,.63,.53,1.04,1.43,1.04s1.6-.39,1.89-1.16Z"/><path class="cls-8" d="M428.27,313.41v6.35c0,2.72-1.41,3.95-4.03,3.95-1.4,0-2.79-.36-3.64-1.06l.79-1.32c.66,.55,1.72,.9,2.76,.9,1.65,0,2.38-.76,2.38-2.27v-.39c-.62,.67-1.5,.99-2.51,.99-2.14,0-3.78-1.46-3.78-3.63s1.64-3.6,3.78-3.6c1.05,0,1.97,.34,2.59,1.08v-.99h1.67Zm-1.72,3.52c0-1.26-.95-2.12-2.27-2.12s-2.28,.85-2.28,2.12,.95,2.14,2.28,2.14,2.27-.87,2.27-2.14Z"/><path class="cls-8" d="M437.57,317.71h-5.87c.21,1.09,1.12,1.79,2.42,1.79,.84,0,1.5-.27,2.03-.81l.94,1.08c-.67,.8-1.72,1.22-3.01,1.22-2.51,0-4.13-1.61-4.13-3.84s1.64-3.82,3.87-3.82,3.78,1.53,3.78,3.87c0,.14-.01,.35-.03,.52Zm-5.88-1.16h4.25c-.14-1.08-.97-1.82-2.12-1.82s-1.96,.73-2.13,1.82Z"/></g><g><line class="cls-3" x1="190" y1="376.8" x2="544.98" y2="376.8"/><polygon points="543.96 380.29 550 376.8 543.96 373.31 543.96 380.29"/></g><g><line class="cls-3" x1="570" y1="376.8" x2="924.98" y2="376.8"/><polygon points="923.96 380.29 930 376.8 923.96 373.31 923.96 380.29"/></g><g><path class="cls-8" d="M745.9,398.62h-4.9l-.97,2.27h-1.88l4.41-9.8h1.79l4.43,9.8h-1.91l-.98-2.27Zm-.6-1.43l-1.85-4.29-1.83,4.29h3.68Z"/><path class="cls-8" d="M762.37,396.61v4.29h-1.75v-4.06c0-1.33-.62-1.98-1.68-1.98-1.15,0-1.95,.76-1.95,2.24v3.8h-1.75v-4.06c0-1.33-.62-1.98-1.68-1.98-1.16,0-1.95,.76-1.95,2.24v3.8h-1.75v-7.48h1.67v.95c.56-.67,1.43-1.04,2.45-1.04,1.09,0,2,.41,2.52,1.25,.6-.77,1.61-1.25,2.8-1.25,1.81,0,3.07,1.02,3.07,3.28Z"/><path class="cls-8" d="M772.54,397.15c0,2.33-1.61,3.84-3.79,3.84-.95,0-1.79-.32-2.4-1.01v3.63h-1.75v-10.2h1.67v.98c.59-.71,1.46-1.06,2.48-1.06,2.18,0,3.79,1.51,3.79,3.82Zm-1.78,0c0-1.43-.95-2.34-2.21-2.34s-2.23,.91-2.23,2.34,.97,2.34,2.23,2.34,2.21-.91,2.21-2.34Z"/><path class="cls-8" d="M781.21,397.71h-5.87c.21,1.09,1.12,1.79,2.42,1.79,.84,0,1.5-.27,2.03-.81l.94,1.08c-.67,.8-1.72,1.22-3.01,1.22-2.51,0-4.13-1.61-4.13-3.84s1.64-3.82,3.87-3.82,3.78,1.53,3.78,3.87c0,.14-.01,.35-.03,.52Zm-5.88-1.16h4.25c-.14-1.08-.97-1.82-2.12-1.82s-1.96,.73-2.13,1.82Z"/><path class="cls-8" d="M787.24,393.33v1.67c-.15-.03-.28-.04-.41-.04-1.33,0-2.17,.78-2.17,2.31v3.63h-1.75v-7.48h1.67v1.09c.5-.78,1.41-1.18,2.66-1.18Z"/><path class="cls-8" d="M788.49,391.13c0-.59,.48-1.05,1.12-1.05s1.12,.43,1.12,1.01c0,.62-.46,1.09-1.12,1.09s-1.12-.46-1.12-1.05Zm.24,2.28h1.75v7.48h-1.75v-7.48Z"/><path class="cls-8" d="M797.27,400.49c-.42,.34-1.05,.5-1.68,.5-1.64,0-2.58-.87-2.58-2.52v-3.6h-1.23v-1.4h1.23v-1.71h1.75v1.71h2v1.4h-2v3.56c0,.73,.36,1.12,1.04,1.12,.36,0,.71-.1,.98-.31l.49,1.25Z"/><path class="cls-8" d="M805.57,393.41l-3.5,8.08c-.69,1.7-1.64,2.21-2.88,2.21-.74,0-1.53-.25-2-.69l.7-1.29c.34,.32,.81,.52,1.29,.52,.62,0,.98-.29,1.32-1.04l.12-.29-3.26-7.51h1.82l2.35,5.53,2.37-5.53h1.68Z"/><path class="cls-8" d="M814.85,393.33v1.67c-.15-.03-.28-.04-.41-.04-1.33,0-2.17,.78-2.17,2.31v3.63h-1.75v-7.48h1.67v1.09c.5-.78,1.41-1.18,2.66-1.18Z"/><path class="cls-8" d="M823.26,397.71h-5.87c.21,1.09,1.12,1.79,2.42,1.79,.84,0,1.5-.27,2.03-.81l.94,1.08c-.67,.8-1.72,1.22-3.01,1.22-2.51,0-4.13-1.61-4.13-3.84s1.64-3.82,3.87-3.82,3.78,1.53,3.78,3.87c0,.14-.01,.35-.03,.52Zm-5.88-1.16h4.24c-.14-1.08-.97-1.82-2.12-1.82s-1.96,.73-2.13,1.82Z"/><path class="cls-8" d="M832.3,390.5v10.39h-1.68v-.97c-.59,.71-1.46,1.06-2.48,1.06-2.17,0-3.78-1.51-3.78-3.84s1.61-3.82,3.78-3.82c.97,0,1.82,.32,2.41,1.01v-3.84h1.75Zm-1.72,6.65c0-1.43-.97-2.34-2.23-2.34s-2.23,.91-2.23,2.34,.97,2.34,2.23,2.34,2.23-.91,2.23-2.34Z"/><path class="cls-8" d="M834.35,391.13c0-.59,.48-1.05,1.12-1.05s1.12,.43,1.12,1.01c0,.62-.46,1.09-1.12,1.09s-1.12-.46-1.12-1.05Zm.24,2.28h1.75v7.48h-1.75v-7.48Z"/><path class="cls-8" d="M842.96,393.33v1.67c-.15-.03-.28-.04-.41-.04-1.33,0-2.17,.78-2.17,2.31v3.63h-1.75v-7.48h1.67v1.09c.5-.78,1.42-1.18,2.66-1.18Z"/><path class="cls-8" d="M851.38,397.71h-5.87c.21,1.09,1.12,1.79,2.42,1.79,.84,0,1.5-.27,2.03-.81l.94,1.08c-.67,.8-1.72,1.22-3.01,1.22-2.51,0-4.13-1.61-4.13-3.84s1.64-3.82,3.87-3.82,3.78,1.53,3.78,3.87c0,.14-.01,.35-.03,.52Zm-5.88-1.16h4.25c-.14-1.08-.97-1.82-2.12-1.82s-1.96,.73-2.13,1.82Z"/><path class="cls-8" d="M852.46,397.15c0-2.24,1.68-3.82,4.05-3.82,1.46,0,2.62,.6,3.19,1.74l-1.34,.78c-.45-.71-1.12-1.04-1.86-1.04-1.29,0-2.27,.9-2.27,2.34s.98,2.34,2.27,2.34c.74,0,1.42-.32,1.86-1.04l1.34,.78c-.58,1.12-1.74,1.75-3.19,1.75-2.37,0-4.05-1.6-4.05-3.84Z"/><path class="cls-8" d="M865.81,400.49c-.42,.34-1.05,.5-1.68,.5-1.64,0-2.58-.87-2.58-2.52v-3.6h-1.23v-1.4h1.23v-1.71h1.75v1.71h2v1.4h-2v3.56c0,.73,.36,1.12,1.04,1.12,.36,0,.71-.1,.98-.31l.49,1.25Z"/><path class="cls-8" d="M866.39,400.15l.67-1.33c.66,.43,1.67,.74,2.61,.74,1.11,0,1.57-.31,1.57-.83,0-1.43-4.62-.08-4.62-3.07,0-1.42,1.28-2.34,3.29-2.34,1,0,2.13,.24,2.8,.64l-.67,1.33c-.71-.42-1.43-.56-2.14-.56-1.06,0-1.57,.35-1.57,.84,0,1.51,4.62,.17,4.62,3.1,0,1.4-1.29,2.31-3.39,2.31-1.25,0-2.49-.36-3.17-.84Z"/><path class="cls-8" d="M882.82,400.49c-.42,.34-1.05,.5-1.68,.5-1.64,0-2.58-.87-2.58-2.52v-3.6h-1.23v-1.4h1.23v-1.71h1.75v1.71h2v1.4h-2v3.56c0,.73,.36,1.12,1.04,1.12,.36,0,.71-.1,.98-.31l.49,1.25Z"/><path class="cls-8" d="M883.39,397.15c0-2.24,1.68-3.82,3.98-3.82s3.99,1.58,3.99,3.82-1.67,3.84-3.99,3.84-3.98-1.6-3.98-3.84Zm6.21,0c0-1.43-.95-2.34-2.23-2.34s-2.21,.91-2.21,2.34,.95,2.34,2.21,2.34,2.23-.91,2.23-2.34Z"/><path class="cls-8" d="M897.07,391.09h1.82v9.8h-1.82v-9.8Z"/><path class="cls-8" d="M908.69,390.5v10.39h-1.68v-.97c-.59,.71-1.46,1.06-2.48,1.06-2.17,0-3.78-1.51-3.78-3.84s1.61-3.82,3.78-3.82c.97,0,1.82,.32,2.41,1.01v-3.84h1.75Zm-1.72,6.65c0-1.43-.97-2.34-2.23-2.34s-2.23,.91-2.23,2.34,.97,2.34,2.23,2.34,2.23-.91,2.23-2.34Z"/><path class="cls-8" d="M919.36,394.57c0,2.16-1.6,3.49-4.17,3.49h-2.21v2.83h-1.82v-9.8h4.03c2.58,0,4.17,1.32,4.17,3.49Zm-1.83,0c0-1.23-.83-1.95-2.42-1.95h-2.13v3.89h2.13c1.6,0,2.42-.71,2.42-1.95Z"/></g><g><path class="cls-8" d="M201.23,396.62v-5.53h1.82v5.46c0,2.02,.91,2.89,2.49,2.89s2.48-.87,2.48-2.89v-5.46h1.79v5.53c0,2.86-1.61,4.41-4.29,4.41s-4.3-1.56-4.3-4.41Z"/><path class="cls-8" d="M211.34,400.15l.67-1.33c.66,.43,1.67,.74,2.61,.74,1.11,0,1.57-.31,1.57-.83,0-1.43-4.62-.08-4.62-3.07,0-1.42,1.28-2.34,3.29-2.34,1,0,2.13,.24,2.8,.64l-.67,1.33c-.71-.42-1.43-.56-2.14-.56-1.06,0-1.57,.35-1.57,.84,0,1.51,4.62,.17,4.62,3.1,0,1.4-1.29,2.31-3.39,2.31-1.25,0-2.49-.36-3.17-.84Z"/><path class="cls-8" d="M226.41,397.71h-5.87c.21,1.09,1.12,1.79,2.42,1.79,.84,0,1.5-.27,2.03-.81l.94,1.08c-.67,.8-1.72,1.22-3.01,1.22-2.51,0-4.13-1.61-4.13-3.84s1.64-3.82,3.87-3.82,3.78,1.53,3.78,3.87c0,.14-.01,.35-.03,.52Zm-5.88-1.16h4.24c-.14-1.08-.97-1.82-2.12-1.82s-1.96,.73-2.13,1.82Z"/><path class="cls-8" d="M232.44,393.33v1.67c-.15-.03-.28-.04-.41-.04-1.33,0-2.17,.78-2.17,2.31v3.63h-1.75v-7.48h1.67v1.09c.5-.78,1.42-1.18,2.66-1.18Z"/><path class="cls-8" d="M244.86,397.71h-5.87c.21,1.09,1.12,1.79,2.42,1.79,.84,0,1.5-.27,2.03-.81l.94,1.08c-.67,.8-1.72,1.22-3.01,1.22-2.51,0-4.13-1.61-4.13-3.84s1.64-3.82,3.87-3.82,3.78,1.53,3.78,3.87c0,.14-.01,.35-.03,.52Zm-5.88-1.16h4.25c-.14-1.08-.97-1.82-2.12-1.82s-1.96,.73-2.13,1.82Z"/><path class="cls-8" d="M253.93,396.61v4.29h-1.75v-4.06c0-1.33-.66-1.98-1.78-1.98-1.25,0-2.09,.76-2.09,2.26v3.78h-1.75v-7.48h1.67v.97c.57-.69,1.49-1.05,2.58-1.05,1.79,0,3.12,1.02,3.12,3.28Z"/><path class="cls-8" d="M260.65,400.49c-.42,.34-1.05,.5-1.68,.5-1.64,0-2.58-.87-2.58-2.52v-3.6h-1.23v-1.4h1.23v-1.71h1.75v1.71h2v1.4h-2v3.56c0,.73,.36,1.12,1.04,1.12,.37,0,.71-.1,.98-.31l.49,1.25Z"/><path class="cls-8" d="M268.84,397.71h-5.87c.21,1.09,1.12,1.79,2.42,1.79,.84,0,1.5-.27,2.03-.81l.94,1.08c-.67,.8-1.72,1.22-3.01,1.22-2.51,0-4.13-1.61-4.13-3.84s1.64-3.82,3.87-3.82,3.78,1.53,3.78,3.87c0,.14-.01,.35-.03,.52Zm-5.88-1.16h4.24c-.14-1.08-.97-1.82-2.12-1.82s-1.96,.73-2.13,1.82Z"/><path class="cls-8" d="M274.87,393.33v1.67c-.15-.03-.28-.04-.41-.04-1.33,0-2.17,.78-2.17,2.31v3.63h-1.75v-7.48h1.67v1.09c.5-.78,1.42-1.18,2.66-1.18Z"/><path class="cls-8" d="M275.53,400.15l.67-1.33c.66,.43,1.67,.74,2.61,.74,1.11,0,1.57-.31,1.57-.83,0-1.43-4.62-.08-4.62-3.07,0-1.42,1.28-2.34,3.29-2.34,1,0,2.13,.24,2.8,.64l-.67,1.33c-.71-.42-1.43-.56-2.14-.56-1.06,0-1.57,.35-1.57,.84,0,1.51,4.62,.17,4.62,3.1,0,1.4-1.29,2.31-3.39,2.31-1.25,0-2.49-.36-3.17-.84Z"/><path class="cls-8" d="M291.95,400.49c-.42,.34-1.05,.5-1.68,.5-1.64,0-2.58-.87-2.58-2.52v-3.6h-1.23v-1.4h1.23v-1.71h1.75v1.71h2v1.4h-2v3.56c0,.73,.36,1.12,1.04,1.12,.36,0,.71-.1,.98-.31l.49,1.25Z"/><path class="cls-8" d="M300.76,396.61v4.29h-1.75v-4.06c0-1.33-.66-1.98-1.78-1.98-1.25,0-2.09,.76-2.09,2.26v3.78h-1.75v-10.39h1.75v3.78c.57-.62,1.46-.95,2.49-.95,1.79,0,3.12,1.02,3.12,3.28Z"/><path class="cls-8" d="M310.06,397.71h-5.87c.21,1.09,1.12,1.79,2.42,1.79,.84,0,1.5-.27,2.03-.81l.94,1.08c-.67,.8-1.72,1.22-3.01,1.22-2.51,0-4.13-1.61-4.13-3.84s1.64-3.82,3.87-3.82,3.78,1.53,3.78,3.87c0,.14-.01,.35-.03,.52Zm-5.88-1.16h4.25c-.14-1.08-.97-1.82-2.12-1.82s-1.96,.73-2.13,1.82Z"/><path class="cls-8" d="M311.52,391.13c0-.59,.48-1.05,1.12-1.05s1.12,.43,1.12,1.01c0,.62-.46,1.09-1.12,1.09s-1.12-.46-1.12-1.05Zm.24,2.28h1.75v7.48h-1.75v-7.48Z"/><path class="cls-8" d="M320.14,393.33v1.67c-.15-.03-.28-.04-.41-.04-1.33,0-2.17,.78-2.17,2.31v3.63h-1.75v-7.48h1.67v1.09c.5-.78,1.42-1.18,2.66-1.18Z"/><path class="cls-8" d="M332.55,397.71h-5.87c.21,1.09,1.12,1.79,2.42,1.79,.84,0,1.5-.27,2.03-.81l.94,1.08c-.67,.8-1.72,1.22-3.01,1.22-2.51,0-4.13-1.61-4.13-3.84s1.64-3.82,3.87-3.82,3.78,1.53,3.78,3.87c0,.14-.01,.35-.03,.52Zm-5.88-1.16h4.24c-.14-1.08-.97-1.82-2.12-1.82s-1.96,.73-2.13,1.82Z"/><path class="cls-8" d="M346.77,396.61v4.29h-1.75v-4.06c0-1.33-.62-1.98-1.68-1.98-1.15,0-1.95,.76-1.95,2.24v3.8h-1.75v-4.06c0-1.33-.62-1.98-1.68-1.98-1.16,0-1.95,.76-1.95,2.24v3.8h-1.75v-7.48h1.67v.95c.56-.67,1.43-1.04,2.45-1.04,1.09,0,2,.41,2.52,1.25,.6-.77,1.61-1.25,2.8-1.25,1.81,0,3.07,1.02,3.07,3.28Z"/><path class="cls-8" d="M355.26,396.51v4.38h-1.65v-.91c-.42,.64-1.23,1.01-2.35,1.01-1.71,0-2.79-.94-2.79-2.24s.84-2.23,3.11-2.23h1.93v-.11c0-1.02-.62-1.62-1.86-1.62-.84,0-1.71,.28-2.27,.74l-.69-1.27c.8-.62,1.96-.92,3.17-.92,2.16,0,3.4,1.02,3.4,3.18Zm-1.75,2.04v-.87h-1.81c-1.19,0-1.51,.45-1.51,.99,0,.63,.53,1.04,1.43,1.04s1.6-.39,1.89-1.16Z"/><path class="cls-8" d="M357.26,391.13c0-.59,.48-1.05,1.12-1.05s1.12,.43,1.12,1.01c0,.62-.46,1.09-1.12,1.09s-1.12-.46-1.12-1.05Zm.24,2.28h1.75v7.48h-1.75v-7.48Z"/><path class="cls-8" d="M361.54,390.5h1.75v10.39h-1.75v-10.39Z"/><path class="cls-8" d="M375.72,396.51v4.38h-1.65v-.91c-.42,.64-1.23,1.01-2.35,1.01-1.71,0-2.79-.94-2.79-2.24s.84-2.23,3.11-2.23h1.93v-.11c0-1.02-.62-1.62-1.86-1.62-.84,0-1.71,.28-2.27,.74l-.69-1.27c.8-.62,1.96-.92,3.17-.92,2.16,0,3.4,1.02,3.4,3.18Zm-1.75,2.04v-.87h-1.81c-1.19,0-1.51,.45-1.51,.99,0,.63,.53,1.04,1.43,1.04s1.6-.39,1.89-1.16Z"/><path class="cls-8" d="M385.35,390.5v10.39h-1.68v-.97c-.59,.71-1.46,1.06-2.48,1.06-2.17,0-3.78-1.51-3.78-3.84s1.61-3.82,3.78-3.82c.97,0,1.82,.32,2.41,1.01v-3.84h1.75Zm-1.72,6.65c0-1.43-.97-2.34-2.23-2.34s-2.23,.91-2.23,2.34,.97,2.34,2.23,2.34,2.23-.91,2.23-2.34Z"/><path class="cls-8" d="M394.97,390.5v10.39h-1.68v-.97c-.59,.71-1.46,1.06-2.48,1.06-2.17,0-3.78-1.51-3.78-3.84s1.61-3.82,3.78-3.82c.97,0,1.82,.32,2.41,1.01v-3.84h1.75Zm-1.72,6.65c0-1.43-.97-2.34-2.23-2.34s-2.23,.91-2.23,2.34,.97,2.34,2.23,2.34,2.23-.91,2.23-2.34Z"/><path class="cls-8" d="M401.59,393.33v1.67c-.15-.03-.28-.04-.41-.04-1.33,0-2.17,.78-2.17,2.31v3.63h-1.75v-7.48h1.67v1.09c.5-.78,1.41-1.18,2.66-1.18Z"/><path class="cls-8" d="M410,397.71h-5.87c.21,1.09,1.12,1.79,2.42,1.79,.84,0,1.5-.27,2.03-.81l.94,1.08c-.67,.8-1.72,1.22-3.01,1.22-2.51,0-4.13-1.61-4.13-3.84s1.64-3.82,3.87-3.82,3.78,1.53,3.78,3.87c0,.14-.01,.35-.03,.52Zm-5.88-1.16h4.24c-.14-1.08-.97-1.82-2.12-1.82s-1.96,.73-2.13,1.82Z"/><path class="cls-8" d="M410.85,400.15l.67-1.33c.66,.43,1.67,.74,2.61,.74,1.11,0,1.57-.31,1.57-.83,0-1.43-4.62-.08-4.62-3.07,0-1.42,1.27-2.34,3.29-2.34,1,0,2.13,.24,2.8,.64l-.67,1.33c-.71-.42-1.43-.56-2.14-.56-1.06,0-1.57,.35-1.57,.84,0,1.51,4.62,.17,4.62,3.1,0,1.4-1.29,2.31-3.39,2.31-1.25,0-2.49-.36-3.17-.84Z"/><path class="cls-8" d="M418.06,400.15l.67-1.33c.66,.43,1.67,.74,2.61,.74,1.11,0,1.57-.31,1.57-.83,0-1.43-4.62-.08-4.62-3.07,0-1.42,1.27-2.34,3.29-2.34,.99,0,2.13,.24,2.8,.64l-.67,1.33c-.71-.42-1.43-.56-2.14-.56-1.06,0-1.57,.35-1.57,.84,0,1.51,4.62,.17,4.62,3.1,0,1.4-1.29,2.31-3.39,2.31-1.25,0-2.49-.36-3.17-.84Z"/></g><g><line class="cls-3" x1="950" y1="456.8" x2="990" y2="456.8"/><line class="cls-3" x1="950" y1="536.8" x2="990" y2="536.8"/><line class="cls-3" x1="990" y1="537.3" x2="990" y2="456.3"/></g><g><path class="cls-8" d="M951.23,556.62v-5.53h1.82v5.46c0,2.02,.91,2.89,2.49,2.89s2.48-.87,2.48-2.89v-5.46h1.79v5.53c0,2.86-1.61,4.41-4.29,4.41s-4.3-1.55-4.3-4.41Z"/><path class="cls-8" d="M961.34,560.15l.67-1.33c.66,.43,1.67,.74,2.61,.74,1.11,0,1.57-.31,1.57-.83,0-1.43-4.62-.08-4.62-3.07,0-1.41,1.27-2.34,3.29-2.34,.99,0,2.13,.24,2.8,.64l-.67,1.33c-.71-.42-1.43-.56-2.14-.56-1.06,0-1.57,.35-1.57,.84,0,1.51,4.62,.17,4.62,3.1,0,1.4-1.29,2.31-3.39,2.31-1.25,0-2.49-.36-3.17-.84Z"/><path class="cls-8" d="M976.41,557.71h-5.87c.21,1.09,1.12,1.79,2.42,1.79,.84,0,1.5-.27,2.03-.81l.94,1.08c-.67,.8-1.72,1.22-3.01,1.22-2.51,0-4.13-1.61-4.13-3.84s1.64-3.82,3.87-3.82,3.78,1.53,3.78,3.87c0,.14-.01,.35-.03,.52Zm-5.88-1.16h4.25c-.14-1.08-.97-1.82-2.12-1.82s-1.96,.73-2.13,1.82Z"/><path class="cls-8" d="M982.44,553.33v1.67c-.15-.03-.28-.04-.41-.04-1.33,0-2.17,.78-2.17,2.31v3.63h-1.75v-7.48h1.67v1.09c.5-.78,1.41-1.18,2.66-1.18Z"/><path class="cls-8" d="M987.62,551.13c0-.59,.48-1.05,1.12-1.05s1.12,.43,1.12,1.01c0,.62-.46,1.09-1.12,1.09s-1.12-.46-1.12-1.05Zm.24,2.28h1.75v7.48h-1.75v-7.48Z"/><path class="cls-8" d="M991.05,560.15l.67-1.33c.66,.43,1.67,.74,2.61,.74,1.11,0,1.57-.31,1.57-.83,0-1.43-4.62-.08-4.62-3.07,0-1.41,1.27-2.34,3.29-2.34,1,0,2.13,.24,2.8,.64l-.67,1.33c-.71-.42-1.43-.56-2.14-.56-1.06,0-1.57,.35-1.57,.84,0,1.51,4.62,.17,4.62,3.1,0,1.4-1.29,2.31-3.39,2.31-1.25,0-2.49-.36-3.17-.84Z"/><path class="cls-8" d="M957.41,573.31v4.38h-1.65v-.91c-.42,.64-1.23,1.01-2.35,1.01-1.71,0-2.79-.94-2.79-2.24s.84-2.23,3.11-2.23h1.93v-.11c0-1.02-.62-1.62-1.86-1.62-.84,0-1.71,.28-2.27,.74l-.69-1.27c.8-.62,1.96-.92,3.17-.92,2.16,0,3.4,1.02,3.4,3.18Zm-1.75,2.04v-.87h-1.81c-1.19,0-1.51,.45-1.51,.99,0,.63,.53,1.04,1.43,1.04s1.6-.39,1.89-1.16Z"/><path class="cls-8" d="M966.89,570.21v7.48h-1.67v-.95c-.56,.69-1.44,1.05-2.41,1.05-1.92,0-3.22-1.05-3.22-3.31v-4.27h1.75v4.03c0,1.36,.64,2,1.75,2,1.22,0,2.04-.76,2.04-2.25v-3.78h1.75Z"/><path class="cls-8" d="M973.68,577.29c-.42,.34-1.05,.5-1.68,.5-1.64,0-2.58-.87-2.58-2.52v-3.6h-1.23v-1.4h1.23v-1.71h1.75v1.71h2v1.4h-2v3.56c0,.73,.36,1.12,1.04,1.12,.37,0,.71-.1,.98-.31l.49,1.25Z"/><path class="cls-8" d="M982.49,573.41v4.29h-1.75v-4.06c0-1.33-.66-1.98-1.78-1.98-1.25,0-2.09,.76-2.09,2.26v3.78h-1.75v-10.39h1.75v3.78c.57-.62,1.46-.95,2.49-.95,1.79,0,3.12,1.02,3.12,3.28Z"/><path class="cls-8" d="M984.16,573.95c0-2.24,1.68-3.82,3.98-3.82s3.99,1.58,3.99,3.82-1.67,3.84-3.99,3.84-3.98-1.6-3.98-3.84Zm6.21,0c0-1.43-.95-2.34-2.23-2.34s-2.21,.91-2.21,2.34,.95,2.34,2.21,2.34,2.23-.91,2.23-2.34Z"/><path class="cls-8" d="M998.14,570.13v1.67c-.15-.03-.28-.04-.41-.04-1.33,0-2.17,.78-2.17,2.31v3.63h-1.75v-7.48h1.67v1.09c.5-.78,1.42-1.18,2.66-1.18Z"/><path class="cls-8" d="M999.38,567.93c0-.59,.48-1.05,1.12-1.05s1.12,.43,1.12,1.01c0,.62-.46,1.09-1.12,1.09s-1.12-.46-1.12-1.05Zm.24,2.28h1.75v7.48h-1.75v-7.48Z"/><path class="cls-8" d="M1009.5,576.29v1.4h-6.46v-1.11l4.11-4.97h-4.02v-1.4h6.26v1.11l-4.12,4.97h4.23Z"/><path class="cls-8" d="M1018,574.51h-5.87c.21,1.09,1.12,1.79,2.42,1.79,.84,0,1.5-.27,2.03-.81l.94,1.08c-.67,.8-1.72,1.22-3.01,1.22-2.51,0-4.13-1.61-4.13-3.84s1.64-3.82,3.87-3.82,3.78,1.53,3.78,3.87c0,.14-.01,.35-.03,.52Zm-5.88-1.16h4.25c-.14-1.08-.97-1.82-2.12-1.82s-1.96,.73-2.13,1.82Z"/><path class="cls-8" d="M1027.03,567.3v10.39h-1.68v-.97c-.59,.71-1.46,1.06-2.48,1.06-2.17,0-3.78-1.51-3.78-3.84s1.61-3.82,3.78-3.82c.97,0,1.82,.32,2.41,1.01v-3.84h1.75Zm-1.72,6.65c0-1.43-.97-2.34-2.23-2.34s-2.23,.91-2.23,2.34,.97,2.34,2.23,2.34,2.23-.91,2.23-2.34Z"/><path class="cls-8" d="M959.09,590.75c0,2.33-1.61,3.84-3.79,3.84-1.02,0-1.89-.35-2.48-1.06v.97h-1.67v-10.39h1.75v3.82c.6-.67,1.44-.99,2.4-.99,2.18,0,3.79,1.5,3.79,3.82Zm-1.78,0c0-1.43-.95-2.34-2.21-2.34s-2.23,.91-2.23,2.34,.97,2.34,2.23,2.34,2.21-.91,2.21-2.34Z"/><path class="cls-8" d="M967.55,587.01l-3.5,8.08c-.69,1.69-1.64,2.21-2.89,2.21-.74,0-1.53-.25-2-.69l.7-1.29c.34,.32,.81,.52,1.29,.52,.62,0,.98-.29,1.32-1.04l.13-.29-3.26-7.51h1.82l2.35,5.53,2.37-5.53h1.68Z"/><path class="cls-8" d="M972.67,584.69h1.82v9.81h-1.82v-9.81Z"/><path class="cls-8" d="M984.29,584.1v10.39h-1.68v-.97c-.59,.71-1.46,1.06-2.48,1.06-2.17,0-3.78-1.51-3.78-3.84s1.61-3.82,3.78-3.82c.97,0,1.82,.32,2.41,1.01v-3.84h1.75Zm-1.72,6.65c0-1.43-.97-2.34-2.23-2.34s-2.23,.91-2.23,2.34,.97,2.34,2.23,2.34,2.23-.91,2.23-2.34Z"/><path class="cls-8" d="M994.96,588.18c0,2.16-1.6,3.49-4.17,3.49h-2.21v2.83h-1.82v-9.81h4.03c2.58,0,4.17,1.32,4.17,3.49Zm-1.83,0c0-1.23-.83-1.95-2.42-1.95h-2.13v3.89h2.13c1.6,0,2.42-.71,2.42-1.95Z"/></g><rect class="cls-6" x="556" y="207.3" width="8" height="19"/><rect class="cls-6" x="176" y="287.3" width="8" height="19"/><rect class="cls-6" x="556" y="367.3" width="8" height="19"/><rect class="cls-6" x="936" y="367.3" width="8" height="19"/><rect class="cls-6" x="936" y="447.3" width="8" height="19"/><rect class="cls-6" x="936" y="527.3" width="8" height="19"/><rect class="cls-6" x="176" y="526.87" width="8" height="19"/><rect class="cls-6" x="556" y="607.3" width="8" height="19"/><g><path class="cls-8" d="M737.69,476.62v-5.53h1.82v5.46c0,2.02,.91,2.89,2.49,2.89s2.48-.87,2.48-2.89v-5.46h1.79v5.53c0,2.86-1.61,4.41-4.29,4.41s-4.3-1.56-4.3-4.41Z"/><path class="cls-8" d="M747.8,480.15l.67-1.33c.66,.43,1.67,.74,2.61,.74,1.11,0,1.57-.31,1.57-.83,0-1.43-4.62-.08-4.62-3.07,0-1.42,1.27-2.34,3.29-2.34,.99,0,2.13,.24,2.8,.64l-.67,1.33c-.71-.42-1.43-.56-2.14-.56-1.06,0-1.57,.35-1.57,.84,0,1.51,4.62,.17,4.62,3.1,0,1.4-1.29,2.31-3.39,2.31-1.25,0-2.49-.36-3.17-.84Z"/><path class="cls-8" d="M762.87,477.71h-5.87c.21,1.09,1.12,1.79,2.42,1.79,.84,0,1.5-.27,2.03-.81l.94,1.08c-.67,.8-1.72,1.22-3.01,1.22-2.51,0-4.13-1.61-4.13-3.84s1.64-3.82,3.87-3.82,3.78,1.53,3.78,3.87c0,.14-.01,.35-.03,.52Zm-5.88-1.16h4.25c-.14-1.08-.97-1.82-2.12-1.82s-1.96,.73-2.13,1.82Z"/><path class="cls-8" d="M768.9,473.33v1.67c-.15-.03-.28-.04-.41-.04-1.33,0-2.17,.78-2.17,2.31v3.63h-1.75v-7.48h1.67v1.09c.5-.78,1.41-1.18,2.66-1.18Z"/><path class="cls-8" d="M780.58,476.51v4.38h-1.65v-.91c-.42,.64-1.23,1.01-2.35,1.01-1.71,0-2.79-.94-2.79-2.24s.84-2.23,3.11-2.23h1.93v-.11c0-1.02-.62-1.62-1.86-1.62-.84,0-1.71,.28-2.27,.74l-.69-1.27c.8-.62,1.96-.92,3.17-.92,2.16,0,3.4,1.02,3.4,3.18Zm-1.75,2.04v-.87h-1.81c-1.19,0-1.51,.45-1.51,.99,0,.63,.53,1.04,1.43,1.04s1.6-.39,1.89-1.16Z"/><path class="cls-8" d="M790.06,473.41v7.48h-1.67v-.95c-.56,.69-1.44,1.05-2.41,1.05-1.92,0-3.22-1.05-3.22-3.31v-4.27h1.75v4.03c0,1.36,.64,2,1.75,2,1.22,0,2.05-.76,2.05-2.26v-3.78h1.75Z"/><path class="cls-8" d="M796.85,480.49c-.42,.34-1.05,.5-1.68,.5-1.64,0-2.58-.87-2.58-2.52v-3.6h-1.23v-1.4h1.23v-1.71h1.75v1.71h2v1.4h-2v3.56c0,.73,.36,1.12,1.04,1.12,.36,0,.71-.1,.98-.31l.49,1.25Z"/><path class="cls-8" d="M805.65,476.61v4.29h-1.75v-4.06c0-1.33-.66-1.98-1.78-1.98-1.25,0-2.09,.76-2.09,2.26v3.78h-1.75v-10.39h1.75v3.78c.57-.62,1.46-.95,2.49-.95,1.79,0,3.12,1.02,3.12,3.28Z"/><path class="cls-8" d="M814.95,477.71h-5.87c.21,1.09,1.12,1.79,2.42,1.79,.84,0,1.5-.27,2.03-.81l.94,1.08c-.67,.8-1.72,1.22-3.01,1.22-2.51,0-4.13-1.61-4.13-3.84s1.64-3.82,3.87-3.82,3.78,1.53,3.78,3.87c0,.14-.01,.35-.03,.52Zm-5.88-1.16h4.24c-.14-1.08-.97-1.82-2.12-1.82s-1.96,.73-2.13,1.82Z"/><path class="cls-8" d="M824.02,476.61v4.29h-1.75v-4.06c0-1.33-.66-1.98-1.78-1.98-1.25,0-2.09,.76-2.09,2.26v3.78h-1.75v-7.48h1.67v.97c.57-.69,1.49-1.05,2.58-1.05,1.79,0,3.12,1.02,3.12,3.28Z"/><path class="cls-8" d="M830.74,480.49c-.42,.34-1.05,.5-1.68,.5-1.64,0-2.58-.87-2.58-2.52v-3.6h-1.23v-1.4h1.23v-1.71h1.75v1.71h2v1.4h-2v3.56c0,.73,.37,1.12,1.04,1.12,.36,0,.71-.1,.98-.31l.49,1.25Z"/><path class="cls-8" d="M831.94,471.13c0-.59,.48-1.05,1.12-1.05s1.12,.43,1.12,1.01c0,.62-.46,1.09-1.12,1.09s-1.12-.46-1.12-1.05Zm.24,2.28h1.75v7.48h-1.75v-7.48Z"/><path class="cls-8" d="M835.61,477.15c0-2.24,1.68-3.82,4.05-3.82,1.46,0,2.62,.6,3.19,1.74l-1.34,.78c-.45-.71-1.12-1.04-1.86-1.04-1.29,0-2.27,.9-2.27,2.34s.98,2.34,2.27,2.34c.74,0,1.42-.32,1.86-1.04l1.34,.78c-.57,1.12-1.74,1.75-3.19,1.75-2.37,0-4.05-1.6-4.05-3.84Z"/><path class="cls-8" d="M850.62,476.51v4.38h-1.65v-.91c-.42,.64-1.23,1.01-2.35,1.01-1.71,0-2.79-.94-2.79-2.24s.84-2.23,3.11-2.23h1.93v-.11c0-1.02-.62-1.62-1.86-1.62-.84,0-1.71,.28-2.27,.74l-.69-1.27c.8-.62,1.96-.92,3.17-.92,2.16,0,3.4,1.02,3.4,3.18Zm-1.75,2.04v-.87h-1.81c-1.19,0-1.51,.45-1.51,.99,0,.63,.53,1.04,1.43,1.04s1.6-.39,1.89-1.16Z"/><path class="cls-8" d="M857.35,480.49c-.42,.34-1.05,.5-1.68,.5-1.64,0-2.58-.87-2.58-2.52v-3.6h-1.23v-1.4h1.23v-1.71h1.75v1.71h2v1.4h-2v3.56c0,.73,.36,1.12,1.04,1.12,.37,0,.71-.1,.98-.31l.49,1.25Z"/><path class="cls-8" d="M865.54,477.71h-5.87c.21,1.09,1.12,1.79,2.42,1.79,.84,0,1.5-.27,2.03-.81l.94,1.08c-.67,.8-1.72,1.22-3.01,1.22-2.51,0-4.13-1.61-4.13-3.84s1.64-3.82,3.87-3.82,3.78,1.53,3.78,3.87c0,.14-.01,.35-.03,.52Zm-5.88-1.16h4.24c-.14-1.08-.97-1.82-2.12-1.82s-1.96,.73-2.13,1.82Z"/><path class="cls-8" d="M866.39,480.15l.67-1.33c.66,.43,1.67,.74,2.61,.74,1.11,0,1.57-.31,1.57-.83,0-1.43-4.62-.08-4.62-3.07,0-1.42,1.28-2.34,3.29-2.34,1,0,2.13,.24,2.8,.64l-.67,1.33c-.71-.42-1.43-.56-2.14-.56-1.06,0-1.57,.35-1.57,.84,0,1.51,4.62,.17,4.62,3.1,0,1.4-1.29,2.31-3.39,2.31-1.25,0-2.49-.36-3.17-.84Z"/><path class="cls-8" d="M882.82,480.49c-.42,.34-1.05,.5-1.68,.5-1.64,0-2.58-.87-2.58-2.52v-3.6h-1.23v-1.4h1.23v-1.71h1.75v1.71h2v1.4h-2v3.56c0,.73,.36,1.12,1.04,1.12,.36,0,.71-.1,.98-.31l.49,1.25Z"/><path class="cls-8" d="M883.39,477.15c0-2.24,1.68-3.82,3.98-3.82s3.99,1.58,3.99,3.82-1.67,3.84-3.99,3.84-3.98-1.6-3.98-3.84Zm6.21,0c0-1.43-.95-2.34-2.23-2.34s-2.21,.91-2.21,2.34,.95,2.34,2.21,2.34,2.23-.91,2.23-2.34Z"/><path class="cls-8" d="M897.07,471.09h1.82v9.8h-1.82v-9.8Z"/><path class="cls-8" d="M908.69,470.5v10.39h-1.68v-.97c-.59,.71-1.46,1.06-2.48,1.06-2.17,0-3.78-1.51-3.78-3.84s1.61-3.82,3.78-3.82c.97,0,1.82,.32,2.41,1.01v-3.84h1.75Zm-1.72,6.65c0-1.43-.97-2.34-2.23-2.34s-2.23,.91-2.23,2.34,.97,2.34,2.23,2.34,2.23-.91,2.23-2.34Z"/><path class="cls-8" d="M919.36,474.57c0,2.16-1.6,3.49-4.17,3.49h-2.21v2.83h-1.82v-9.8h4.03c2.58,0,4.17,1.32,4.17,3.49Zm-1.83,0c0-1.23-.83-1.95-2.42-1.95h-2.13v3.89h2.13c1.6,0,2.42-.71,2.42-1.95Z"/></g><g><line class="cls-3" x1="171.74" y1="536.79" x2="131.74" y2="536.79"/><line class="cls-3" x1="171.74" y1="616.79" x2="131.74" y2="616.79"/><line class="cls-3" x1="131.74" y1="617.29" x2="131.74" y2="536.29"/></g><g><path class="cls-8" d="M129.83,638.62h-4.9l-.97,2.27h-1.88l4.41-9.81h1.79l4.43,9.81h-1.9l-.98-2.27Zm-.6-1.43l-1.85-4.29-1.83,4.29h3.68Z"/><path class="cls-8" d="M133.1,637.15c0-2.24,1.68-3.82,4.05-3.82,1.46,0,2.62,.6,3.19,1.74l-1.34,.78c-.45-.71-1.12-1.04-1.86-1.04-1.29,0-2.27,.9-2.27,2.34s.98,2.34,2.27,2.34c.74,0,1.42-.32,1.86-1.04l1.34,.78c-.57,1.12-1.74,1.75-3.19,1.75-2.37,0-4.05-1.6-4.05-3.84Z"/><path class="cls-8" d="M141.12,637.15c0-2.24,1.68-3.82,4.05-3.82,1.46,0,2.62,.6,3.19,1.74l-1.34,.78c-.45-.71-1.12-1.04-1.86-1.04-1.29,0-2.27,.9-2.27,2.34s.98,2.34,2.27,2.34c.74,0,1.41-.32,1.86-1.04l1.34,.78c-.57,1.12-1.74,1.75-3.19,1.75-2.37,0-4.05-1.6-4.05-3.84Z"/><path class="cls-8" d="M156.76,637.71h-5.87c.21,1.09,1.12,1.79,2.42,1.79,.84,0,1.5-.27,2.03-.81l.94,1.08c-.67,.8-1.72,1.22-3.01,1.22-2.51,0-4.13-1.61-4.13-3.84s1.64-3.82,3.87-3.82,3.78,1.53,3.78,3.87c0,.14-.01,.35-.03,.52Zm-5.88-1.16h4.24c-.14-1.08-.97-1.82-2.12-1.82s-1.96,.73-2.13,1.82Z"/><path class="cls-8" d="M157.61,640.15l.67-1.33c.66,.43,1.67,.74,2.61,.74,1.11,0,1.57-.31,1.57-.83,0-1.43-4.62-.08-4.62-3.07,0-1.42,1.27-2.34,3.29-2.34,1,0,2.13,.24,2.8,.64l-.67,1.33c-.71-.42-1.43-.56-2.14-.56-1.06,0-1.57,.35-1.57,.84,0,1.51,4.62,.17,4.62,3.1,0,1.4-1.29,2.31-3.39,2.31-1.25,0-2.49-.36-3.17-.84Z"/><path class="cls-8" d="M164.82,640.15l.67-1.33c.66,.43,1.67,.74,2.61,.74,1.11,0,1.57-.31,1.57-.83,0-1.43-4.62-.08-4.62-3.07,0-1.42,1.28-2.34,3.29-2.34,.99,0,2.13,.24,2.8,.64l-.67,1.33c-.71-.42-1.43-.56-2.14-.56-1.06,0-1.57,.35-1.57,.84,0,1.51,4.62,.17,4.62,3.1,0,1.4-1.29,2.31-3.39,2.31-1.25,0-2.49-.36-3.17-.84Z"/><path class="cls-8" d="M135.78,657.29c-.42,.34-1.05,.5-1.68,.5-1.64,0-2.58-.87-2.58-2.52v-3.6h-1.23v-1.4h1.23v-1.71h1.75v1.71h2v1.4h-2v3.56c0,.73,.36,1.12,1.04,1.12,.36,0,.71-.1,.98-.31l.49,1.25Z"/><path class="cls-8" d="M136.35,653.95c0-2.24,1.68-3.82,3.98-3.82s3.99,1.58,3.99,3.82-1.67,3.84-3.99,3.84-3.98-1.6-3.98-3.84Zm6.21,0c0-1.43-.95-2.34-2.23-2.34s-2.21,.91-2.21,2.34,.95,2.34,2.21,2.34,2.23-.91,2.23-2.34Z"/><path class="cls-8" d="M149.05,654.48l-1.3,1.23v1.97h-1.75v-10.39h1.75v6.28l3.63-3.36h2.1l-3.12,3.14,3.42,4.34h-2.13l-2.59-3.21Z"/><path class="cls-8" d="M161.59,654.51h-5.87c.21,1.09,1.12,1.79,2.42,1.79,.84,0,1.5-.27,2.03-.81l.94,1.08c-.67,.8-1.72,1.22-3.01,1.22-2.51,0-4.13-1.61-4.13-3.84s1.64-3.82,3.87-3.82,3.78,1.53,3.78,3.87c0,.14-.01,.35-.03,.52Zm-5.88-1.16h4.24c-.14-1.08-.97-1.82-2.12-1.82s-1.96,.73-2.13,1.82Z"/><path class="cls-8" d="M170.67,653.41v4.29h-1.75v-4.06c0-1.33-.66-1.98-1.78-1.98-1.25,0-2.09,.76-2.09,2.26v3.78h-1.75v-7.48h1.67v.97c.57-.69,1.48-1.05,2.58-1.05,1.79,0,3.12,1.02,3.12,3.28Z"/><path class="cls-8" d="M117.39,670.75c0-2.24,1.68-3.82,4.05-3.82,1.46,0,2.62,.6,3.19,1.74l-1.34,.78c-.45-.71-1.12-1.04-1.86-1.04-1.29,0-2.27,.9-2.27,2.34s.98,2.34,2.27,2.34c.74,0,1.42-.32,1.86-1.04l1.34,.78c-.58,1.12-1.74,1.75-3.19,1.75-2.37,0-4.05-1.6-4.05-3.84Z"/><path class="cls-8" d="M130.47,666.93v1.67c-.15-.03-.28-.04-.41-.04-1.33,0-2.17,.78-2.17,2.31v3.63h-1.75v-7.48h1.67v1.09c.5-.78,1.42-1.18,2.66-1.18Z"/><path class="cls-8" d="M138.89,671.31h-5.87c.21,1.09,1.12,1.79,2.42,1.79,.84,0,1.5-.27,2.03-.81l.94,1.08c-.67,.8-1.72,1.22-3.01,1.22-2.51,0-4.13-1.61-4.13-3.84s1.64-3.82,3.87-3.82,3.78,1.53,3.78,3.87c0,.14-.01,.35-.03,.52Zm-5.88-1.16h4.25c-.14-1.08-.97-1.82-2.12-1.82s-1.96,.73-2.13,1.82Z"/><path class="cls-8" d="M146.64,670.11v4.38h-1.65v-.91c-.42,.64-1.23,1.01-2.35,1.01-1.71,0-2.79-.94-2.79-2.24s.84-2.23,3.11-2.23h1.93v-.11c0-1.02-.62-1.62-1.86-1.62-.84,0-1.71,.28-2.27,.74l-.69-1.27c.8-.62,1.96-.92,3.17-.92,2.16,0,3.4,1.02,3.4,3.18Zm-1.75,2.04v-.87h-1.81c-1.19,0-1.51,.45-1.51,.99,0,.63,.53,1.04,1.43,1.04s1.6-.39,1.89-1.16Z"/><path class="cls-8" d="M153.37,674.09c-.42,.34-1.05,.5-1.68,.5-1.64,0-2.58-.87-2.58-2.52v-3.6h-1.23v-1.4h1.23v-1.71h1.75v1.71h2v1.4h-2v3.56c0,.73,.36,1.12,1.04,1.12,.36,0,.71-.1,.98-.31l.49,1.25Z"/><path class="cls-8" d="M161.57,671.31h-5.87c.21,1.09,1.12,1.79,2.42,1.79,.84,0,1.5-.27,2.03-.81l.94,1.08c-.67,.8-1.72,1.22-3.01,1.22-2.51,0-4.13-1.61-4.13-3.84s1.64-3.82,3.87-3.82,3.78,1.53,3.78,3.87c0,.14-.01,.35-.03,.52Zm-5.88-1.16h4.25c-.14-1.08-.97-1.82-2.12-1.82s-1.96,.73-2.13,1.82Z"/><path class="cls-8" d="M170.6,664.1v10.39h-1.68v-.97c-.59,.71-1.46,1.06-2.48,1.06-2.17,0-3.78-1.51-3.78-3.84s1.61-3.82,3.78-3.82c.97,0,1.82,.32,2.41,1.01v-3.84h1.75Zm-1.72,6.65c0-1.43-.97-2.34-2.23-2.34s-2.23,.91-2.23,2.34,.97,2.34,2.23,2.34,2.23-.91,2.23-2.34Z"/></g><rect class="cls-9" x="556" y="539.3" width="8" height="1"/><rect class="cls-9" x="556" y="533.3" width="8" height="1"/><rect class="cls-9" x="556" y="459.3" width="8" height="1"/><rect class="cls-9" x="556" y="453.3" width="8" height="1"/><rect class="cls-6" x="176" y="607.3" width="8" height="19"/><line class="cls-2" x1="690" y1="166.8" x2="690" y2="666.8"/><g><path class="cls-4" d="M612.71,274.15c12.5,0,22.64,10.14,22.64,22.64s-10.14,22.64-22.64,22.64c-9.08,0-11.68-3.18-36.56-20.28-1.53-1.18-1.53-3.54,0-4.72,24.88-17.1,27.48-20.28,36.56-20.28Z"/><path class="cls-5" d="M618.49,303.45v4.27h-17.1v-3.39l8.73-8.24c2-1.91,2.36-3.07,2.36-4.17,0-1.78-1.23-2.81-3.62-2.81-1.94,0-3.59,.74-4.69,2.26l-3.81-2.46c1.75-2.55,4.91-4.2,8.98-4.2,5.04,0,8.4,2.58,8.4,6.69,0,2.2-.61,4.2-3.78,7.14l-5.2,4.91h9.73Z"/></g><g><path class="cls-4" d="M127.29,479.44c-12.5,0-22.64-10.14-22.64-22.64s10.14-22.64,22.64-22.64c9.08,0,11.68,3.18,36.56,20.28,1.53,1.18,1.53,3.54,0,4.72-24.88,17.1-27.48,20.28-36.56,20.28Z"/><path class="cls-5" d="M136.67,461.67c0,4.01-2.94,7.5-9.4,7.5-3.13,0-6.43-.87-8.63-2.42l2.07-4.01c1.71,1.29,4.07,2.04,6.43,2.04,2.62,0,4.23-1.1,4.23-2.94s-1.16-2.94-5.27-2.94h-5.79l1.16-12.73h13.8v4.2h-9.44l-.36,4.3h1.84c6.69,0,9.34,3.01,9.34,7.01Z"/></g><g><path class="cls-4" d="M82.29,599.44c-12.5,0-22.64-10.14-22.64-22.64s10.14-22.64,22.64-22.64c9.08,0,11.68,3.18,36.56,20.28,1.53,1.18,1.53,3.54,0,4.72-24.88,17.1-27.48,20.28-36.56,20.28Z"/><path class="cls-5" d="M91.89,566.16v3.39l-8.4,19.23h-5.69l8.11-18.36h-7.5v3.68h-4.65v-7.95h18.13Z"/></g><g><path class="cls-4" d="M127.29,399.44c-12.5,0-22.64-10.14-22.64-22.64s10.14-22.64,22.64-22.64c9.08,0,11.68,3.18,36.56,20.28,1.53,1.18,1.53,3.54,0,4.72-24.88,17.1-27.48,20.28-36.56,20.28Z"/><path class="cls-5" d="M136.34,381.87c0,3.81-2.94,7.3-9.37,7.3-3.17,0-6.43-.87-8.63-2.42l2.04-4.01c1.71,1.29,4.1,2.04,6.46,2.04,2.62,0,4.23-1.07,4.23-2.91,0-1.71-1.26-2.78-4.23-2.78h-2.39v-3.46l4.65-5.27h-9.63v-4.2h15.84v3.39l-5.11,5.82c4.07,.65,6.14,3.17,6.14,6.5Z"/></g><g><path class="cls-4" d="M127.29,239.44c-12.5,0-22.64-10.14-22.64-22.64s10.14-22.64,22.64-22.64c9.08,0,11.68,3.18,36.56,20.28,1.53,1.18,1.53,3.54,0,4.72-24.88,17.1-27.48,20.28-36.56,20.28Z"/><path class="cls-5" d="M131.58,206.16v22.62h-5.24v-18.42h-4.52v-4.2h9.76Z"/></g><g><path class="cls-4" d="M612.71,594.15c12.5,0,22.64,10.14,22.64,22.64s-10.14,22.64-22.64,22.64c-9.08,0-11.68-3.18-36.56-20.28-1.53-1.18-1.53-3.54,0-4.72,24.88-17.1,27.48-20.28,36.56-20.28Z"/><path class="cls-5" d="M619.4,621.16c0,4.27-3.81,6.95-9.57,6.95s-9.5-2.68-9.5-6.95c0-2.42,1.26-4.23,3.43-5.33-1.68-1.03-2.62-2.62-2.62-4.65,0-3.98,3.55-6.46,8.69-6.46s8.76,2.49,8.76,6.46c0,2.04-.97,3.62-2.65,4.65,2.2,1.1,3.46,2.91,3.46,5.33Zm-5.3-.16c0-2-1.65-3.23-4.27-3.23s-4.2,1.23-4.2,3.23,1.62,3.26,4.2,3.26,4.27-1.26,4.27-3.26Zm-7.76-9.6c0,1.71,1.36,2.78,3.49,2.78s3.55-1.07,3.55-2.78-1.42-2.84-3.55-2.84-3.49,1.07-3.49,2.84Z"/></g><g><path class="cls-4" d="M1037.71,474.15c12.5,0,22.64,10.14,22.64,22.64s-10.14,22.64-22.64,22.64c-9.08,0-11.68-3.18-36.56-20.28-1.53-1.18-1.53-3.54,0-4.72,24.88-17.1,27.48-20.28,36.56-20.28Z"/><path class="cls-5" d="M1044.51,500.58c0,4.62-3.78,7.53-8.56,7.53-6.24,0-10.12-3.91-10.12-11.21,0-7.82,4.72-12.18,11.54-12.18,2.39,0,4.72,.55,6.3,1.55l-1.94,3.85c-1.26-.84-2.71-1.13-4.23-1.13-3.78,0-6.21,2.23-6.37,6.56,1.33-1.32,3.23-2,5.59-2,4.36,0,7.79,2.78,7.79,7.05Zm-5.07,.26c0-2.07-1.52-3.39-3.85-3.39s-3.91,1.42-3.91,3.39,1.45,3.36,3.97,3.36c2.23,0,3.78-1.29,3.78-3.36Z"/></g><g><path class="cls-4" d="M992.71,354.15c12.5,0,22.64,10.14,22.64,22.64s-10.14,22.64-22.64,22.64c-9.08,0-11.68-3.18-36.56-20.28-1.53-1.18-1.53-3.54,0-4.72,24.88-17.1,27.48-20.28,36.56-20.28Z"/><path class="cls-5" d="M1000.71,382.97h-3.68v4.75h-5.11v-4.75h-12.18v-3.52l10.67-14.35h5.49l-9.89,13.61h6.08v-4.23h4.94v4.23h3.68v4.27Z"/></g></svg>