<svg id="Layer_1" data-name="Layer 1" xmlns="http://www.w3.org/2000/svg" viewBox="0 0 387.07 172.03"><defs><style>.cls-1,.cls-31,.cls-37,.cls-38,.cls-39,.cls-40{fill:none;}.cls-2{fill:#0c0c0c;}.cls-3,.cls-9{fill:#e8e8e8;}.cls-4,.cls-53,.cls-54,.cls-55,.cls-57,.cls-58,.cls-59,.cls-60,.cls-61{fill:#fff;}.cls-5,.cls-6{fill:#747474;}.cls-19,.cls-6,.cls-7{opacity:0.8;}.cls-11,.cls-12,.cls-13,.cls-15,.cls-16,.cls-17,.cls-19,.cls-21,.cls-22,.cls-23,.cls-24,.cls-25,.cls-26,.cls-27,.cls-28,.cls-29,.cls-30,.cls-35,.cls-43,.cls-46,.cls-47,.cls-48,.cls-49,.cls-50,.cls-51,.cls-52,.cls-53,.cls-54,.cls-55,.cls-57,.cls-58,.cls-59,.cls-6,.cls-60,.cls-61,.cls-7,.cls-8,.cls-9{isolation:isolate;}.cls-12,.cls-13,.cls-14,.cls-15,.cls-16,.cls-17,.cls-21,.cls-22,.cls-23,.cls-24,.cls-25,.cls-26,.cls-27,.cls-28,.cls-29,.cls-30,.cls-35,.cls-46,.cls-47,.cls-48,.cls-49,.cls-50,.cls-51,.cls-7{fill:#0f0f0f;}.cls-36,.cls-43,.cls-44,.cls-52,.cls-8{fill:#a3a3a3;}.cls-8,.cls-9{opacity:0.6;}.cls-10{fill:#ffd636;}.cls-12,.cls-13{font-size:3.92px;}.cls-12,.cls-13,.cls-15,.cls-16,.cls-17,.cls-21,.cls-22,.cls-23,.cls-24,.cls-25,.cls-26,.cls-27,.cls-28,.cls-29,.cls-30,.cls-35,.cls-46,.cls-47,.cls-48,.cls-49,.cls-50{font-family:Montserrat-Bold, Montserrat;}.cls-12,.cls-13,.cls-15,.cls-16,.cls-17,.cls-21,.cls-22,.cls-23,.cls-24,.cls-25,.cls-26,.cls-27,.cls-28,.cls-29,.cls-30,.cls-35,.cls-46,.cls-47,.cls-48,.cls-49,.cls-50,.cls-51,.cls-53,.cls-54,.cls-55{font-weight:700;}.cls-13{letter-spacing:-0.02em;}.cls-15,.cls-16,.cls-17{font-size:1.96px;}.cls-15{letter-spacing:-0.01em;}.cls-17,.cls-57{letter-spacing:-0.01em;}.cls-18{fill:#007552;}.cls-19,.cls-20{fill:#e44f00;}.cls-21,.cls-22,.cls-23,.cls-24,.cls-25,.cls-26,.cls-27,.cls-35,.cls-59,.cls-60,.cls-61{font-size:2.83px;}.cls-21{letter-spacing:-0.06em;}.cls-23,.cls-60{letter-spacing:-0.01em;}.cls-24{letter-spacing:-0.03em;}.cls-25,.cls-61{letter-spacing:-0.02em;}.cls-26{letter-spacing:0.01em;}.cls-27{letter-spacing:-0.05em;}.cls-28,.cls-29,.cls-30{font-size:3.49px;}.cls-28{letter-spacing:-0.01em;}.cls-29{letter-spacing:-0.05em;}.cls-31,.cls-36,.cls-37,.cls-38,.cls-39,.cls-40{stroke:#a3a3a3;}.cls-31,.cls-36,.cls-37,.cls-38,.cls-39,.cls-40,.cls-41{stroke-miterlimit:10;stroke-width:0.5px;}.cls-32{fill:#213752;}.cls-33,.cls-41{fill:#4b6a8e;}.cls-34{fill:#009669;}.cls-35{letter-spacing:0.01em;}.cls-37{stroke-dasharray:2.02 2.02 2.02 2.02;}.cls-38{stroke-dasharray:2.02 2.02 2.02 2.02 2.02 2.02;}.cls-39{stroke-dasharray:1.82 1.82 1.82 1.82;}.cls-40{stroke-dasharray:1.82 1.82 1.82 1.82 1.82 1.82;}.cls-41{stroke:#4b6a8e;}.cls-42,.cls-43{opacity:0.4;}.cls-45{fill:#81a0c2;}.cls-46,.cls-47,.cls-48{font-size:3.05px;}.cls-47{letter-spacing:0.01em;}.cls-48{letter-spacing:-0.02em;}.cls-49,.cls-50,.cls-51,.cls-53{font-size:1.74px;}.cls-50{letter-spacing:0.01em;}.cls-51,.cls-53,.cls-54,.cls-55{font-family:Arial-BoldMT, Arial;}.cls-52{opacity:0.25;}.cls-54{font-size:2.18px;}.cls-55{font-size:1.53px;}.cls-56{fill:#ddf85b;}.cls-57,.cls-58{font-size:6.54px;font-family:Montserrat-SemiBoldItalic, Montserrat;font-weight:600;font-style:italic;}.cls-59,.cls-60,.cls-61{font-family:Montserrat-Medium, Montserrat;font-weight:500;}.cls-62{fill:#dff200;}</style></defs><rect class="cls-1" width="387.07" height="172.03"/><rect class="cls-2" x="73.68" y="5.39" width="239.71" height="17.43"/><rect class="cls-3" x="73.68" y="22.82" width="239.71" height="143.83"/><rect class="cls-4" x="256.73" y="27.18" width="52.3" height="8.72"/><path class="cls-5" d="M306.64,32.65l-.6-.59a.12.12,0,0,0-.1-.05h-.1a1.23,1.23,0,1,0-1.73.22,1.22,1.22,0,0,0,1.51,0v.1a.14.14,0,0,0,.05.1l.59.6a.15.15,0,0,0,.2,0l.17-.17a.14.14,0,0,0,0-.2ZM304.87,32a.76.76,0,1,1,.76-.76.76.76,0,0,1-.76.76h0Z"/><rect class="cls-6" x="258.91" y="30.67" width="8.72" height="1.74"/><rect class="cls-6" x="268.72" y="30.67" width="13.08" height="1.74"/><rect class="cls-4" x="256.73" y="61.17" width="52.3" height="10.9"/><path class="cls-7" d="M260,66l-1-1a.16.16,0,0,1,0-.22h0l.21-.22a.17.17,0,0,1,.22,0h0l.67.67,1.43-1.43a.17.17,0,0,1,.22,0h0l.22.22a.14.14,0,0,1,0,.21h0L260.19,66a.15.15,0,0,1-.21,0h0Z"/><rect class="cls-7" x="263.58" y="64.22" width="8.72" height="1.31"/><rect class="cls-8" x="263.58" y="66.62" width="6.54" height="1.31"/><rect class="cls-8" x="290.82" y="66.62" width="13.08" height="1.31"/><rect class="cls-8" x="271.21" y="66.62" width="13.08" height="1.31"/><rect class="cls-8" x="285.38" y="66.62" width="4.36" height="1.31"/><rect class="cls-9" x="263.58" y="69.02" width="13.08" height="1.31"/><rect class="cls-7" x="273.39" y="64.22" width="8.72" height="1.31"/><rect class="cls-7" x="283.2" y="64.22" width="8.72" height="1.31"/><rect class="cls-4" x="256.73" y="129.16" width="52.3" height="10.9"/><path class="cls-7" d="M260,134l-1-1a.16.16,0,0,1,0-.22h0l.21-.22a.16.16,0,0,1,.22,0h0l.67.67,1.43-1.43a.17.17,0,0,1,.22,0h0l.22.22a.14.14,0,0,1,0,.21h0L260.19,134a.15.15,0,0,1-.21,0h0Z"/><rect class="cls-7" x="263.58" y="132.21" width="8.72" height="1.31"/><rect class="cls-8" x="263.58" y="134.61" width="6.54" height="1.31"/><rect class="cls-8" x="271.21" y="134.61" width="13.08" height="1.31"/><rect class="cls-8" x="285.38" y="134.61" width="4.36" height="1.31"/><rect class="cls-9" x="263.58" y="137.01" width="13.08" height="1.31"/><rect class="cls-7" x="273.39" y="132.21" width="8.72" height="1.31"/><rect class="cls-7" x="283.2" y="132.21" width="8.72" height="1.31"/><rect class="cls-8" x="290.82" y="134.61" width="4.36" height="1.31"/><rect class="cls-8" x="296.27" y="134.61" width="4.36" height="1.31"/><rect class="cls-4" x="256.73" y="36.55" width="52.3" height="23.97"/><path class="cls-7" d="M260.72,39.15a.29.29,0,1,1-.28-.29.29.29,0,0,1,.28.29Zm-.28,2.19a.29.29,0,0,0-.29.29.29.29,0,0,0,.57,0h0A.29.29,0,0,0,260.44,41.34Zm1.24-1.24a.29.29,0,0,0-.29.29.28.28,0,0,0,.28.29.29.29,0,0,0,.29-.29h0a.29.29,0,0,0-.28-.28Zm-2.2.29a.28.28,0,0,0-.29-.28.29.29,0,0,0-.28.28.29.29,0,1,0,.57,0h0Zm.08.59a.29.29,0,1,0,0,.57.28.28,0,0,0,.29-.28h0a.3.3,0,0,0-.28-.3h0Zm1.74,0a.3.3,0,0,0-.29.28.29.29,0,0,0,.29.29.28.28,0,0,0,.29-.28h0a.3.3,0,0,0-.28-.3Zm-1.74-1.74a.28.28,0,0,0-.29.28.29.29,0,0,0,.29.29.3.3,0,0,0,.29-.28h0a.3.3,0,0,0-.28-.3h0Z"/><rect class="cls-7" x="263.58" y="39.73" width="8.72" height="1.31"/><rect class="cls-8" x="263.58" y="42.13" width="6.54" height="1.31"/><rect class="cls-8" x="290.82" y="42.13" width="13.08" height="1.31"/><rect class="cls-8" x="271.21" y="42.13" width="13.08" height="1.31"/><rect class="cls-8" x="285.38" y="42.13" width="4.36" height="1.31"/><rect class="cls-9" x="263.58" y="55.42" width="13.08" height="1.31"/><rect class="cls-7" x="273.39" y="39.73" width="8.72" height="1.31"/><rect class="cls-8" x="269.03" y="44.74" width="13.08" height="1.31"/><path class="cls-7" d="M266.36,46l-.57-.56a.11.11,0,0,1,0-.13l.12-.12s.09,0,.12,0h0l.39.38.82-.82a.09.09,0,0,1,.12,0h0l.12.13a.09.09,0,0,1,0,.12l-1,1a.07.07,0,0,1-.12,0Z"/><rect class="cls-8" x="269.03" y="47.14" width="13.08" height="1.31"/><path class="cls-7" d="M266.36,48.42l-.57-.57a.09.09,0,0,1,0-.12l.12-.12a.08.08,0,0,1,.12,0h0l.39.38.82-.82a.09.09,0,0,1,.12,0h0l.12.12a.11.11,0,0,1,0,.13l-1,1a.09.09,0,0,1-.12,0Z"/><rect class="cls-8" x="269.03" y="49.54" width="13.08" height="1.31"/><path class="cls-7" d="M266.36,50.82l-.57-.57a.09.09,0,0,1,0-.12l.12-.13a.09.09,0,0,1,.12,0h0l.39.38.82-.81a.07.07,0,0,1,.12,0h0l.12.12a.09.09,0,0,1,0,.12l-1,1a.09.09,0,0,1-.12,0Z"/><rect class="cls-8" x="269.03" y="51.93" width="13.08" height="1.31"/><path class="cls-7" d="M266.8,51.88a.17.17,0,0,1-.17.16.16.16,0,1,1,0-.32A.17.17,0,0,1,266.8,51.88Zm-.17,1.25a.17.17,0,0,0-.16.17.16.16,0,0,0,.16.16h0a.17.17,0,0,0,.17-.16A.18.18,0,0,0,266.63,53.13Zm.71-.71a.17.17,0,0,0-.16.17.16.16,0,0,0,.16.16.17.17,0,0,0,.17-.16A.18.18,0,0,0,267.34,52.42Zm-1.25.17a.17.17,0,0,0-.16-.17.18.18,0,0,0-.17.17.17.17,0,0,0,.17.16h0A.16.16,0,0,0,266.09,52.59Zm.05.34a.16.16,0,1,0,0,.32.16.16,0,1,0,0-.32Zm1,0a.16.16,0,1,0,0,.32h0a.16.16,0,1,0,0-.32Zm-1-1a.16.16,0,1,0,0,.32h0a.16.16,0,1,0,0-.32Z"/><rect class="cls-4" x="256.73" y="108.9" width="52.3" height="19.61"/><path class="cls-10" d="M261.93,113.36a.26.26,0,0,1-.1.35.27.27,0,0,1-.12,0h-2.54a.26.26,0,0,1-.26-.26.56.56,0,0,1,0-.12l1.27-2.21a.26.26,0,0,1,.43,0l1.28,2.21Zm-1.49-.46a.25.25,0,1,0,0,.49.24.24,0,0,0,.24-.24h0A.25.25,0,0,0,260.44,112.9Zm-.23-.87,0,.72a.07.07,0,0,0,.07.06h.26a.06.06,0,0,0,.06-.06l0-.72a.06.06,0,0,0-.06-.06h-.34a.05.05,0,0,0-.06.06Z"/><rect class="cls-7" x="263.58" y="111.73" width="8.72" height="1.31"/><rect class="cls-8" x="277.75" y="114.13" width="6.54" height="1.31"/><rect class="cls-8" x="290.82" y="114.13" width="13.08" height="1.31"/><rect class="cls-8" x="263.58" y="114.13" width="13.08" height="1.31"/><rect class="cls-8" x="285.38" y="114.13" width="4.36" height="1.31"/><rect class="cls-7" x="273.39" y="111.73" width="8.72" height="1.31"/><rect class="cls-9" x="263.58" y="125.02" width="13.08" height="1.31"/><rect class="cls-8" x="269.03" y="116.74" width="13.08" height="1.31"/><path class="cls-7" d="M266.36,118l-.57-.57a.09.09,0,0,1,0-.12l.12-.12a.07.07,0,0,1,.12,0l.39.38.82-.82a.09.09,0,0,1,.12,0l.12.12a.11.11,0,0,1,0,.13l-1,1a.09.09,0,0,1-.12,0Z"/><rect class="cls-8" x="269.03" y="119.14" width="13.08" height="1.31"/><path class="cls-7" d="M266.36,120.42l-.57-.57a.09.09,0,0,1,0-.12l.12-.13a.09.09,0,0,1,.12,0l.39.39.82-.82a.07.07,0,0,1,.12,0l.12.12a.11.11,0,0,1,0,.13l-1,1a.09.09,0,0,1-.12,0Z"/><rect class="cls-8" x="269.03" y="121.75" width="13.08" height="1.31"/><path class="cls-10" d="M267.49,123a.14.14,0,0,1-.05.19.12.12,0,0,1-.08,0h-1.45a.14.14,0,0,1-.13-.21l.73-1.26a.15.15,0,0,1,.2-.06.1.1,0,0,1,.05.06l.73,1.26Zm-.86-.27a.15.15,0,0,0-.14.14.14.14,0,0,0,.14.14.14.14,0,0,0,.14-.14.14.14,0,0,0-.14-.14Zm-.13-.5,0,.42a0,0,0,0,0,0,0h.15a0,0,0,0,0,.05,0h0l0-.42,0,0h-.21s0,0,0,0h0Z"/><rect class="cls-4" x="256.73" y="97.35" width="52.3" height="10.9"/><path class="cls-7" d="M260,102.14l-1-1a.15.15,0,0,1,0-.21h0l.21-.22a.16.16,0,0,1,.22,0h0l.67.67,1.43-1.43a.16.16,0,0,1,.22,0h0l.22.22a.14.14,0,0,1,0,.21h0l-1.74,1.75a.15.15,0,0,1-.21,0h0Z"/><rect class="cls-7" x="263.58" y="100.4" width="8.72" height="1.31"/><rect class="cls-8" x="263.58" y="102.8" width="6.54" height="1.31"/><rect class="cls-8" x="271.21" y="102.8" width="13.08" height="1.31"/><rect class="cls-8" x="285.38" y="102.8" width="4.36" height="1.31"/><rect class="cls-9" x="263.58" y="105.19" width="13.08" height="1.31"/><rect class="cls-7" x="273.39" y="100.4" width="8.72" height="1.31"/><rect class="cls-7" x="283.2" y="100.4" width="8.72" height="1.31"/><rect class="cls-8" x="290.82" y="102.8" width="4.36" height="1.31"/><rect class="cls-8" x="296.27" y="102.8" width="4.36" height="1.31"/><rect class="cls-4" x="77.95" y="45.48" width="174.33" height="37.48"/><g class="cls-11"><text class="cls-12" transform="translate(79.04 31.63)">Sti</text><text class="cls-13" transform="translate(84.43 31.63)">t</text><text class="cls-12" transform="translate(86.07 31.63)">c</text><text class="cls-12" transform="translate(88.37 31.63)">h</text></g><path class="cls-14" d="M249.4,105.31a.32.32,0,0,1,.32.32.31.31,0,0,1-.32.31.32.32,0,0,1,0-.63Zm-.31-.46a.32.32,0,0,0,.31.33.32.32,0,0,0,0-.64h0a.31.31,0,0,0-.31.31Zm0,1.55a.31.31,0,0,0,.31.32.32.32,0,1,0,0-.63h0a.31.31,0,0,0-.31.31Z"/><path class="cls-14" d="M249.4,112.29a.31.31,0,0,1,.32.31.32.32,0,0,1-.32.32.32.32,0,0,1,0-.63Zm-.31-.46a.32.32,0,1,0,.63,0,.32.32,0,0,0-.31-.32h0a.31.31,0,0,0-.31.32Zm0,1.55a.32.32,0,0,0,.31.32.32.32,0,0,0,0-.64h0a.31.31,0,0,0-.31.31Z"/><g class="cls-11"><text class="cls-15" transform="translate(218.96 78.32)">E</text><text class="cls-16" transform="translate(220.27 78.32)">xplo</text><text class="cls-17" transform="translate(224.66 78.32)">r</text><text class="cls-16" transform="translate(225.49 78.32)">e Ampe</text><text class="cls-16" transform="translate(233.43 78.32)">r</text><text class="cls-16" transform="translate(234.27 78.32)">i</text><text class="cls-17" transform="translate(234.86 78.32)">t</text><text class="cls-16" transform="translate(235.69 78.32)">y IDs</text></g><rect class="cls-18" x="237.03" y="28.05" width="15.25" height="4.36"/><rect class="cls-4" x="242.48" y="29.58" width="4.36" height="1.31"/><rect class="cls-1" x="71.5" y="3.21" width="244.07" height="165.62"/><rect class="cls-4" x="256.73" y="152.26" width="52.3" height="10.9"/><path class="cls-7" d="M260,157.06l-1-1a.16.16,0,0,1,0-.22h0l.21-.22a.17.17,0,0,1,.22,0h0l.67.67,1.43-1.43a.16.16,0,0,1,.22,0h0l.22.21a.16.16,0,0,1,0,.22h0l-1.74,1.75a.15.15,0,0,1-.21,0h0Z"/><rect class="cls-7" x="263.58" y="155.31" width="8.72" height="1.31"/><rect class="cls-8" x="263.58" y="157.71" width="6.54" height="1.31"/><rect class="cls-8" x="271.21" y="157.71" width="13.08" height="1.31"/><rect class="cls-8" x="285.38" y="157.71" width="4.36" height="1.31"/><rect class="cls-9" x="263.58" y="160.11" width="13.08" height="1.31"/><rect class="cls-7" x="273.39" y="155.31" width="8.72" height="1.31"/><rect class="cls-7" x="283.2" y="155.31" width="8.72" height="1.31"/><rect class="cls-8" x="290.82" y="157.71" width="4.36" height="1.31"/><rect class="cls-8" x="296.27" y="157.71" width="4.36" height="1.31"/><rect class="cls-4" x="256.73" y="72.72" width="52.3" height="23.97"/><rect class="cls-7" x="263.58" y="75.55" width="8.72" height="1.31"/><rect class="cls-8" x="269.03" y="77.94" width="6.54" height="1.31"/><rect class="cls-8" x="290.82" y="77.94" width="13.08" height="1.31"/><rect class="cls-8" x="276.66" y="77.94" width="13.08" height="1.31"/><rect class="cls-8" x="263.58" y="77.94" width="4.36" height="1.31"/><rect class="cls-7" x="278.84" y="75.55" width="8.72" height="1.31"/><rect class="cls-7" x="273.39" y="75.55" width="4.36" height="1.31"/><rect class="cls-9" x="263.58" y="93.85" width="13.08" height="1.31"/><rect class="cls-8" x="269.03" y="83.83" width="13.08" height="1.31"/><path class="cls-7" d="M266.36,87.5l-.57-.56a.11.11,0,0,1,0-.13l.12-.12a.09.09,0,0,1,.12,0l.39.38.82-.82a.09.09,0,0,1,.12,0l.12.13a.07.07,0,0,1,0,.12l-1,1a.08.08,0,0,1-.12,0Z"/><rect class="cls-8" x="269.03" y="86.23" width="13.08" height="1.31"/><rect class="cls-8" x="269.03" y="88.62" width="13.08" height="1.31"/><rect class="cls-8" x="269.03" y="91.02" width="13.08" height="1.31"/><path class="cls-7" d="M266.8,88.57a.17.17,0,0,1-.17.16.16.16,0,0,1-.16-.16.17.17,0,0,1,.16-.17A.18.18,0,0,1,266.8,88.57Zm-.17,1.25a.16.16,0,0,0-.16.16.17.17,0,0,0,.16.17.18.18,0,0,0,.17-.17A.17.17,0,0,0,266.63,89.82Zm.71-.71a.17.17,0,0,0-.16.17.16.16,0,0,0,.16.16.17.17,0,0,0,.17-.16A.18.18,0,0,0,267.34,89.11Zm-1.25.17a.17.17,0,0,0-.16-.17.18.18,0,0,0-.17.17.17.17,0,0,0,.17.16A.16.16,0,0,0,266.09,89.28Zm.05.33a.17.17,0,0,0-.17.17.16.16,0,0,0,.17.16h0a.16.16,0,0,0,.16-.16A.17.17,0,0,0,266.14,89.61Zm1,0a.18.18,0,0,0-.17.17.17.17,0,0,0,.17.16.16.16,0,0,0,.16-.16.17.17,0,0,0-.16-.17Zm-1-1a.16.16,0,0,0-.17.16.16.16,0,0,0,.17.17.16.16,0,0,0,.16-.17.16.16,0,0,0-.16-.16Z"/><rect class="cls-19" x="263.58" y="80.56" width="6.54" height="1.31"/><rect class="cls-19" x="285.59" y="80.56" width="13.08" height="1.31"/><rect class="cls-19" x="271.21" y="80.56" width="13.08" height="1.31"/><rect class="cls-19" x="299.76" y="80.56" width="4.36" height="1.31"/><path class="cls-20" d="M262,76.21a1.53,1.53,0,1,1-1.52-1.53A1.53,1.53,0,0,1,262,76.21Zm-1.52.31a.28.28,0,1,0,.28.28h0a.28.28,0,0,0-.27-.29h0Zm-.27-1,0,.84a.08.08,0,0,0,.08.07h.3a.07.07,0,0,0,.07-.07l0-.84a.06.06,0,0,0-.06-.08h-.4a.07.07,0,0,0-.07.07Z"/><path class="cls-20" d="M267.51,91.68a.88.88,0,1,1-.88-.87A.87.87,0,0,1,267.51,91.68Zm-.88.18a.16.16,0,0,0-.16.16.16.16,0,0,0,.16.16.17.17,0,1,0,0-.33h0Zm-.15-.58,0,.47a0,0,0,0,0,0,0h.17a0,0,0,0,0,0,0l0-.47a0,0,0,0,0,0,0h-.22a0,0,0,0,0,0,0h0Z"/><path class="cls-20" d="M267.51,84.49a.88.88,0,1,1-.88-.87A.87.87,0,0,1,267.51,84.49Zm-.88.17a.17.17,0,0,0-.16.17.16.16,0,0,0,.16.16.17.17,0,1,0,0-.33Zm-.15-.57,0,.47a0,0,0,0,0,0,0h.17a0,0,0,0,0,0,0l0-.47a0,0,0,0,0,0,0h-.22a0,0,0,0,0,0,0h0Z"/><rect class="cls-18" x="224.88" y="29.58" width="7.85" height="1.31"/><rect class="cls-18" x="213.11" y="29.58" width="7.41" height="1.31"/><rect class="cls-4" x="195.62" y="34.81" width="56.66" height="8.72"/><rect class="cls-4" x="136.79" y="34.81" width="56.66" height="8.72"/><rect class="cls-4" x="77.95" y="34.81" width="56.66" height="8.72"/><g class="cls-11"><text class="cls-21" transform="translate(86.66 41.8)">T</text><text class="cls-22" transform="translate(88.26 41.8)">od</text><text class="cls-23" transform="translate(92.08 41.8)">a</text><text class="cls-24" transform="translate(93.8 41.8)">y</text><text class="cls-22" transform="translate(95.4 41.8)">, 3:</text><text class="cls-22" transform="translate(99.36 41.8)">5</text><text class="cls-22" transform="translate(101.04 41.8)">3 </text><text class="cls-23" transform="translate(103.51 41.8)">P</text><text class="cls-22" transform="translate(105.56 41.8)">M</text></g><g class="cls-11"><text class="cls-22" transform="translate(145.5 41.8)">6 minu</text><text class="cls-25" transform="translate(155.84 41.8)">t</text><text class="cls-22" transform="translate(157.02 41.8)">es, 13 se</text><text class="cls-23" transform="translate(168.74 41.8)">c</text><text class="cls-22" transform="translate(170.39 41.8)">o</text><text class="cls-26" transform="translate(172.25 41.8)">n</text><text class="cls-22" transform="translate(174.22 41.8)">ds</text></g><rect class="cls-4" x="77.95" y="84.93" width="174.33" height="56.66"/><g class="cls-11"><text class="cls-23" transform="translate(81.11 89.95)">S</text><text class="cls-22" transform="translate(82.89 89.95)">TI</text><text class="cls-23" transform="translate(85.57 89.95)">T</text><text class="cls-22" transform="translate(87.29 89.95)">CHED SOURCES</text></g><rect class="cls-8" x="92.11" y="36.94" width="13.08" height="1.31"/><rect class="cls-8" x="86.67" y="36.94" width="4.36" height="1.31"/><rect class="cls-8" x="145.5" y="36.94" width="13.08" height="1.31"/><rect class="cls-8" x="159.67" y="36.94" width="4.36" height="1.31"/><g class="cls-11"><text class="cls-22" transform="translate(204.34 41.8)">2</text><text class="cls-22" transform="translate(206 41.8)">6</text><text class="cls-27" transform="translate(207.8 41.8)">7</text><text class="cls-25" transform="translate(209.42 41.8)">.</text><text class="cls-22" transform="translate(210.11 41.8)">1k</text></g><rect class="cls-8" x="214.15" y="36.94" width="13.08" height="1.31"/><rect class="cls-8" x="204.34" y="36.94" width="8.72" height="1.31"/><rect class="cls-8" x="228.31" y="36.94" width="13.08" height="1.31"/><g class="cls-11"><text class="cls-25" transform="translate(80.33 49.66)">O</text><text class="cls-23" transform="translate(82.66 49.66)">V</text><text class="cls-22" transform="translate(84.73 49.66)">ER</text><text class="cls-23" transform="translate(88.71 49.66)">V</text><text class="cls-22" transform="translate(90.79 49.66)">I</text><text class="cls-23" transform="translate(91.72 49.66)">E</text><text class="cls-22" transform="translate(93.59 49.66)">W</text></g><rect class="cls-8" x="80.33" y="53.21" width="13.08" height="1.31"/><rect class="cls-8" x="145.27" y="53.21" width="13.08" height="1.31"/><rect class="cls-8" x="159" y="53.21" width="4.36" height="1.31"/><rect class="cls-8" x="135.9" y="53.21" width="8.72" height="1.31"/><rect class="cls-8" x="122.17" y="53.21" width="13.08" height="1.31"/><rect class="cls-8" x="112.8" y="53.21" width="8.72" height="1.31"/><rect class="cls-8" x="94.06" y="53.21" width="13.08" height="1.31"/><rect class="cls-8" x="107.79" y="53.21" width="4.36" height="1.31"/><rect class="cls-8" x="80.33" y="51.31" width="169.54" height="0.11"/><rect class="cls-8" x="156.95" y="93.28" width="9.59" height="1.31"/><rect class="cls-8" x="191.81" y="93.28" width="8.72" height="1.31"/><rect class="cls-8" x="81.11" y="93.28" width="13.08" height="1.31"/><rect class="cls-8" x="186.8" y="93.28" width="4.36" height="1.31"/><rect class="cls-8" x="176.56" y="93.28" width="9.59" height="1.31"/><rect class="cls-8" x="167.19" y="93.28" width="8.72" height="1.31"/><rect class="cls-8" x="151.93" y="93.28" width="4.36" height="1.31"/><rect class="cls-8" x="141.69" y="93.28" width="9.59" height="1.31"/><rect class="cls-8" x="132.32" y="93.28" width="8.72" height="1.31"/><rect class="cls-8" x="118.59" y="93.28" width="13.08" height="1.31"/><rect class="cls-8" x="113.58" y="93.28" width="4.36" height="1.31"/><rect class="cls-8" x="94.84" y="93.28" width="13.08" height="1.31"/><rect class="cls-8" x="108.57" y="93.28" width="4.36" height="1.31"/><rect class="cls-8" x="81.11" y="91.6" width="169.54" height="0.11"/><g class="cls-11"><text class="cls-22" transform="translate(106.22 64.04)">2</text><text class="cls-22" transform="translate(107.89 64.04)">6</text><text class="cls-27" transform="translate(109.68 64.04)">7</text><text class="cls-25" transform="translate(111.3 64.04)">.</text><text class="cls-22" transform="translate(111.99 64.04)">1k</text></g><rect class="cls-8" x="100.72" y="59.18" width="8.72" height="1.31"/><rect class="cls-8" x="90.91" y="59.18" width="8.72" height="1.31"/><rect class="cls-8" x="110.53" y="59.18" width="4.36" height="1.31"/><g class="cls-11"><text class="cls-28" transform="translate(217.95 65.57)">5</text><text class="cls-29" transform="translate(219.98 65.57)">7</text><text class="cls-30" transform="translate(221.97 65.57)">.9%</text></g><rect class="cls-8" x="211.41" y="59.18" width="13.08" height="1.31"/><rect class="cls-8" x="225.58" y="59.18" width="8.72" height="1.31"/><rect class="cls-31" x="211.41" y="75.57" width="34.87" height="4.36"/><path class="cls-32" d="M98.42,120.63l-10,13.78a17,17,0,0,1-3.77-23.79h0a16.52,16.52,0,0,1,13.78-7Z"/><path class="cls-33" d="M98.42,120.63l10,13.78a16.77,16.77,0,0,1-20,0Z"/><path class="cls-34" d="M98.42,120.63l13.78-10a17,17,0,0,1-3.77,23.79h0Z"/><path d="M98.42,120.63v-17a16.5,16.5,0,0,1,13.78,7Z"/><rect class="cls-7" x="81.11" y="98.7" width="8.72" height="1.31"/><rect class="cls-7" x="95.46" y="98.7" width="8.72" height="1.31"/><rect class="cls-7" x="90.44" y="98.7" width="4.36" height="1.31"/><g class="cls-11"><text class="cls-22" transform="translate(106.22 71.81)">11</text><text class="cls-35" transform="translate(108.44 71.81)">2</text><text class="cls-22" transform="translate(110.14 71.81)">.5k</text></g><rect class="cls-8" x="99.52" y="66.94" width="9.81" height="1.31"/><rect class="cls-8" x="89.61" y="66.94" width="8.72" height="1.31"/><rect class="cls-8" x="110.53" y="66.94" width="4.36" height="1.31"/><rect class="cls-36" x="118.92" y="59.09" width="87.17" height="4.79"/><polyline class="cls-31" points="206.08 71.43 206.08 71.65 205.87 71.65"/><line class="cls-37" x1="205.43" y1="71.65" x2="203.88" y2="71.65"/><line class="cls-38" x1="203.66" y1="71.65" x2="119.35" y2="71.65"/><polyline class="cls-31" points="119.14 71.65 118.92 71.65 118.92 71.43"/><line class="cls-39" x1="118.92" y1="71.03" x2="118.92" y2="69.65"/><line class="cls-40" x1="118.92" y1="69.45" x2="118.92" y2="67.27"/><polyline class="cls-31" points="118.92 67.07 118.92 66.86 119.14 66.86"/><line class="cls-37" x1="119.58" y1="66.85" x2="121.12" y2="66.85"/><line class="cls-38" x1="121.34" y1="66.85" x2="205.65" y2="66.85"/><polyline class="cls-31" points="205.87 66.86 206.08 66.86 206.08 67.07"/><line class="cls-39" x1="206.08" y1="67.47" x2="206.08" y2="68.86"/><line class="cls-40" x1="206.08" y1="69.05" x2="206.08" y2="71.23"/><rect class="cls-41" x="118.92" y="66.85" width="38.79" height="4.79"/><g class="cls-42"><rect class="cls-43" x="211.41" y="68.16" width="13.08" height="0.65"/><rect class="cls-43" x="231.02" y="72.52" width="4.36" height="0.65"/><rect class="cls-43" x="220.78" y="72.52" width="9.59" height="0.65"/><rect class="cls-43" x="211.41" y="72.52" width="8.72" height="0.65"/><rect class="cls-43" x="234.51" y="70.34" width="8.72" height="0.65"/><rect class="cls-43" x="220.78" y="70.34" width="13.08" height="0.65"/><rect class="cls-43" x="211.41" y="70.34" width="8.72" height="0.65"/><rect class="cls-43" x="225.14" y="68.16" width="13.08" height="0.65"/><rect class="cls-43" x="238.87" y="68.16" width="4.36" height="0.65"/></g><rect class="cls-43" x="126.94" y="75.03" width="9.15" height="0.65"/><rect class="cls-43" x="121.93" y="75.03" width="4.36" height="0.65"/><rect class="cls-43" x="146.12" y="75.03" width="8.72" height="0.65"/><rect class="cls-43" x="136.74" y="75.03" width="8.72" height="0.65"/><rect class="cls-43" x="155.49" y="75.03" width="4.36" height="0.65"/><rect class="cls-44" x="118.92" y="79.28" width="1.74" height="1.74"/><rect class="cls-33" x="118.92" y="74.48" width="1.74" height="1.74"/><rect class="cls-43" x="121.93" y="79.82" width="9.15" height="0.65"/><rect class="cls-43" x="131.73" y="79.82" width="4.36" height="0.65"/><rect class="cls-43" x="146.12" y="79.82" width="8.72" height="0.65"/><rect class="cls-43" x="136.74" y="79.82" width="8.72" height="0.65"/><rect class="cls-43" x="169.87" y="79.82" width="4.36" height="0.65"/><rect class="cls-43" x="155.49" y="79.82" width="8.72" height="0.65"/><rect class="cls-43" x="164.86" y="79.82" width="4.36" height="0.65"/><rect class="cls-43" x="160.5" y="75.03" width="8.72" height="0.65"/><rect class="cls-43" x="118.92" y="77.7" width="87.17" height="0.11"/><rect class="cls-32" x="124.08" y="104.04" width="3.05" height="3.05"/><rect class="cls-8" x="142.77" y="104.91" width="13.08" height="1.31"/><rect class="cls-8" x="129.38" y="104.91" width="13.08" height="1.31"/><rect class="cls-8" x="233.06" y="98.7" width="13.08" height="1.31"/><rect class="cls-8" x="213.45" y="98.7" width="13.08" height="1.31"/><rect class="cls-8" x="193.84" y="98.7" width="13.08" height="1.31"/><rect class="cls-43" x="124.08" y="108.78" width="122.03" height="0.11"/><rect class="cls-45" x="124.08" y="117.11" width="3.05" height="3.05"/><rect class="cls-34" x="124.08" y="110.58" width="3.05" height="3.05"/><rect class="cls-33" x="124.08" y="123.65" width="3.05" height="3.05"/><rect class="cls-8" x="124.08" y="98.7" width="13.08" height="1.31"/><rect class="cls-43" x="124.08" y="121.85" width="122.03" height="0.11"/><rect class="cls-43" x="124.08" y="115.32" width="122.03" height="0.11"/><rect class="cls-43" x="124.08" y="128.39" width="122.03" height="0.11"/><rect class="cls-8" x="142.77" y="124.52" width="11.33" height="1.31"/><rect class="cls-8" x="129.38" y="124.52" width="13.08" height="1.31"/><rect class="cls-8" x="140.15" y="117.99" width="13.08" height="1.31"/><rect class="cls-8" x="129.38" y="117.99" width="10.46" height="1.31"/><rect class="cls-8" x="141.02" y="111.45" width="12.2" height="1.31"/><rect class="cls-8" x="129.38" y="111.45" width="11.33" height="1.31"/><rect class="cls-8" x="202.56" y="124.52" width="4.36" height="1.31"/><rect class="cls-8" x="202.56" y="117.99" width="4.36" height="1.31"/><rect class="cls-8" x="202.56" y="111.45" width="4.36" height="1.31"/><rect class="cls-8" x="202.56" y="104.91" width="4.36" height="1.31"/><rect class="cls-8" x="240.47" y="124.52" width="5.67" height="1.31"/><rect class="cls-8" x="240.47" y="117.99" width="5.67" height="1.31"/><rect class="cls-8" x="240.47" y="111.45" width="5.67" height="1.31"/><rect class="cls-8" x="240.47" y="104.91" width="5.67" height="1.31"/><rect class="cls-8" x="222.17" y="124.52" width="4.36" height="1.31"/><rect class="cls-8" x="222.17" y="117.99" width="4.36" height="1.31"/><rect class="cls-8" x="222.17" y="111.45" width="4.36" height="1.31"/><rect class="cls-8" x="222.17" y="104.91" width="4.36" height="1.31"/><rect class="cls-4" x="77.95" y="143.55" width="174.33" height="23.1"/><text class="cls-22" transform="translate(87.65 149.89)">FEED:SOURCE</text><rect class="cls-32" x="81.11" y="146.6" width="4.36" height="4.36"/><g class="cls-11"><text class="cls-46" transform="translate(240.22 149.95)">3</text><text class="cls-47" transform="translate(242.01 149.95)">2</text><text class="cls-48" transform="translate(243.84 149.95)">.</text><text class="cls-46" transform="translate(244.59 149.95)">1%</text></g><rect class="cls-8" x="215.37" y="148.12" width="13.08" height="1.31"/><rect class="cls-8" x="229.54" y="148.12" width="8.72" height="1.31"/><rect class="cls-32" x="88.84" y="164.51" width="22.23" height="1.31"/><rect class="cls-44" x="88.84" y="157.64" width="56.66" height="1.31"/><g class="cls-11"><text class="cls-49" transform="translate(81.22 158.95)">183</text><text class="cls-50" transform="translate(84.08 158.95)">.</text><text class="cls-49" transform="translate(84.56 158.95)">2k</text></g><rect class="cls-8" x="81.22" y="154.88" width="8.72" height="1.31"/><rect class="cls-8" x="91.03" y="154.88" width="4.36" height="1.31"/><rect class="cls-8" x="81.11" y="152.93" width="169.54" height="0.11"/><g class="cls-11"><text class="cls-49" transform="translate(81.22 165.82)">3</text><text class="cls-50" transform="translate(82.25 165.82)">8</text><text class="cls-49" transform="translate(83.42 165.82)">.4k</text></g><rect class="cls-8" x="81.22" y="161.75" width="8.72" height="1.31"/><rect class="cls-8" x="91.03" y="161.75" width="4.36" height="1.31"/><rect class="cls-32" x="169.61" y="156.33" width="2.62" height="2.62"/><rect class="cls-45" x="159.15" y="156.33" width="2.62" height="2.62"/><rect class="cls-34" x="164.38" y="156.33" width="2.62" height="2.62"/><rect class="cls-33" x="153.92" y="156.33" width="2.62" height="2.62"/><text class="cls-51" transform="translate(168.75 157) rotate(180)">+</text><text class="cls-51" transform="translate(163.52 157) rotate(180)">+</text><text class="cls-51" transform="translate(158.29 157) rotate(180)">+</text><rect class="cls-32" x="169.61" y="163.2" width="2.62" height="2.62"/><rect class="cls-45" x="164.38" y="163.2" width="2.62" height="2.62"/><rect class="cls-33" x="159.15" y="163.2" width="2.62" height="2.62"/><text class="cls-51" transform="translate(168.75 163.87) rotate(180)">+</text><text class="cls-51" transform="translate(163.52 163.87) rotate(180)">+</text><rect class="cls-52" x="176.15" y="155.75" width="0.11" height="10.9"/><rect class="cls-52" x="180.51" y="155.75" width="0.11" height="10.9"/><rect class="cls-52" x="184.87" y="155.75" width="0.11" height="10.9"/><rect class="cls-52" x="189.22" y="155.75" width="0.11" height="10.9"/><rect class="cls-52" x="193.58" y="155.75" width="0.11" height="10.9"/><rect class="cls-52" x="197.94" y="155.75" width="0.11" height="10.9"/><rect class="cls-52" x="202.3" y="155.75" width="0.11" height="10.9"/><rect class="cls-52" x="206.66" y="155.75" width="0.11" height="10.9"/><rect class="cls-52" x="211.02" y="155.75" width="0.11" height="10.9"/><rect class="cls-52" x="215.37" y="155.75" width="0.11" height="10.9"/><rect class="cls-52" x="219.73" y="155.75" width="0.11" height="10.9"/><rect class="cls-52" x="224.09" y="155.75" width="0.11" height="10.9"/><rect class="cls-52" x="228.45" y="155.75" width="0.11" height="10.9"/><rect class="cls-52" x="232.81" y="155.75" width="0.11" height="10.9"/><rect class="cls-52" x="237.17" y="155.75" width="0.11" height="10.9"/><rect class="cls-52" x="241.52" y="155.75" width="0.11" height="10.9"/><rect class="cls-52" x="245.88" y="155.75" width="0.11" height="10.9"/><rect class="cls-32" x="176.15" y="156.99" width="71.91" height="1.31"/><rect class="cls-32" x="176.15" y="163.85" width="54.92" height="1.31"/><path class="cls-44" d="M198.21,37.23a.45.45,0,0,0-.49.4.46.46,0,0,0,.41.49.45.45,0,0,0,.49-.41v-.05A.43.43,0,0,0,198.21,37.23Zm0,1.49a.46.46,0,0,0-.49.41.45.45,0,0,0,.9.07v0a.43.43,0,0,0-.41-.43Zm0,1.49a.46.46,0,0,0-.49.41.45.45,0,0,0,.9.07v0A.42.42,0,0,0,198.21,40.21Zm3.81.15H199.3a.14.14,0,0,0-.14.14v.3a.15.15,0,0,0,.14.15H202a.14.14,0,0,0,.14-.15h0v-.3a.14.14,0,0,0-.14-.14Zm0-3H199.3a.16.16,0,0,0-.14.16v.29a.15.15,0,0,0,.14.15H202a.15.15,0,0,0,.14-.15v-.29a.15.15,0,0,0-.13-.16h0Zm0,1.5H199.3a.15.15,0,0,0-.14.15v.29a.15.15,0,0,0,.14.15H202a.14.14,0,0,0,.14-.15h0V39a.14.14,0,0,0-.13-.15h0Z"/><path class="cls-44" d="M141.14,37.2a2.18,2.18,0,1,0,2.18,2.18A2.18,2.18,0,0,0,141.14,37.2Zm.51,3.08-.78-.56a.11.11,0,0,1,0-.09V38.15a.1.1,0,0,1,.1-.1h.43a.1.1,0,0,1,.1.1v1.21l.56.41a.1.1,0,0,1,0,.15l-.25.33a.1.1,0,0,1-.14,0Z"/><path class="cls-44" d="M216.5,65.19a.17.17,0,0,1,0,.23L216,66a.15.15,0,0,1-.23,0,.16.16,0,0,1-.05-.11v-.27h-.4s0,0-.06,0l-.48-.52.36-.39.36.39h.22v-.27a.18.18,0,0,1,.17-.17.16.16,0,0,1,.11,0Zm-3.35-1.25h.57l.36.38.37-.38-.49-.52-.06,0h-.75a.07.07,0,0,0-.08.08v.38A.08.08,0,0,0,213.15,63.94Zm2.53,0v.28a.18.18,0,0,0,.17.17.16.16,0,0,0,.11,0l.55-.54a.18.18,0,0,0,0-.24L216,63a.17.17,0,0,0-.23,0,.16.16,0,0,0,0,.11v.28h-.4l-.06,0L213.72,65h-.57a.08.08,0,0,0-.08.08v.38a.08.08,0,0,0,.08.09h.75a.06.06,0,0,0,.06,0L215.47,64Z"/><path class="cls-44" d="M83.88,37.31l0,.7a2.12,2.12,0,0,0-3-.24A2.09,2.09,0,0,0,80.23,39a.11.11,0,0,0,.08.12h.44a.11.11,0,0,0,.1-.08,1.5,1.5,0,0,1,1.81-1.11,1.52,1.52,0,0,1,.89.62l-.87,0a.1.1,0,0,0-.11.1h0V39a.11.11,0,0,0,.1.1h1.71a.11.11,0,0,0,.1-.1h0V37.3a.11.11,0,0,0-.1-.1H84a.1.1,0,0,0-.1.1h0ZM82.3,40.88a1.5,1.5,0,0,1-1.24-.65l.87,0a.11.11,0,0,0,.11-.1v-.41a.09.09,0,0,0-.1-.1H80.23a.09.09,0,0,0-.1.1h0v1.71a.1.1,0,0,0,.1.1h.4a.11.11,0,0,0,.11-.1h0l0-.71a2.11,2.11,0,0,0,3.68-1,.1.1,0,0,0-.08-.11h-.44a.1.1,0,0,0-.1.08,1.51,1.51,0,0,1-1.46,1.13Z"/><text class="cls-53" transform="translate(125.12 106.2)">1</text><text class="cls-54" transform="translate(82.68 149.52)">1</text><text class="cls-53" transform="translate(125.12 112.74)">2</text><text class="cls-53" transform="translate(125.12 119.28)">3</text><text class="cls-53" transform="translate(125.12 125.81)">4</text><text class="cls-55" transform="translate(170.44 158.28)">1</text><text class="cls-55" transform="translate(165.27 158.22)">2</text><text class="cls-55" transform="translate(165.27 165.09)">3</text><text class="cls-55" transform="translate(160.04 165.09)">4</text><text class="cls-55" transform="translate(170.5 165.09)">1</text><text class="cls-55" transform="translate(160.04 158.22)">3</text><text class="cls-55" transform="translate(154.81 158.22)">4</text><rect class="cls-4" x="256.73" y="140.71" width="52.3" height="10.9"/><path class="cls-7" d="M260,145.51l-1-1a.16.16,0,0,1,0-.22h0l.21-.22a.17.17,0,0,1,.22,0h0l.67.67,1.43-1.43a.16.16,0,0,1,.22,0h0l.22.22a.14.14,0,0,1,0,.21h0l-1.74,1.75a.15.15,0,0,1-.21,0h0Z"/><rect class="cls-7" x="263.58" y="143.76" width="8.72" height="1.31"/><rect class="cls-8" x="263.58" y="146.16" width="6.54" height="1.31"/><rect class="cls-8" x="290.82" y="146.16" width="13.08" height="1.31"/><rect class="cls-8" x="271.21" y="146.16" width="13.08" height="1.31"/><rect class="cls-8" x="285.38" y="146.16" width="4.36" height="1.31"/><rect class="cls-9" x="263.58" y="148.56" width="13.08" height="1.31"/><rect class="cls-7" x="273.39" y="143.76" width="8.72" height="1.31"/><rect class="cls-7" x="283.2" y="143.76" width="8.72" height="1.31"/><rect class="cls-56" x="109.02" y="21.51" width="8.72" height="1.31"/><path class="cls-4" d="M271,13.47a.63.63,0,0,1,.63.63.63.63,0,1,1-1.26,0,.63.63,0,0,1,.63-.63Zm-.63-.91a.63.63,0,0,0,.63.63.64.64,0,0,0,.64-.63.64.64,0,0,0-.63-.64h0a.64.64,0,0,0-.63.64Zm0,3.09a.63.63,0,0,0,.63.63A.63.63,0,1,0,271,15h0a.63.63,0,0,0-.63.63Z"/><path class="cls-4" d="M265.11,14.1a1.75,1.75,0,1,1-1.74-1.74A1.74,1.74,0,0,1,265.11,14.1Zm-1.7-1.16a.91.91,0,0,0-.82.44.11.11,0,0,0,0,.12l.25.18a.08.08,0,0,0,.11,0c.13-.16.22-.25.41-.25s.32.09.32.23-.09.16-.23.24-.39.22-.39.49v0c0,.05,0,.09.09.09h.39a.09.09,0,0,0,.09-.09h0c0-.2.58-.22.58-.75A.79.79,0,0,0,263.41,12.94Zm0,1.74a.32.32,0,0,0-.32.33.32.32,0,0,0,.32.32.33.33,0,0,0,.32-.33.32.32,0,0,0-.32-.32Z"/><g class="cls-11"><text class="cls-57" transform="translate(283.45 16.08)">A</text><text class="cls-58" transform="translate(288.28 16.08)">CME</text></g><g class="cls-11"><text class="cls-59" transform="translate(92.2 15)">Sou</text><text class="cls-60" transform="translate(97.67 15)">r</text><text class="cls-60" transform="translate(98.8 15)">c</text><text class="cls-59" transform="translate(100.4 15)">es</text></g><g class="cls-11"><text class="cls-59" transform="translate(109.2 15)">Sti</text><text class="cls-61" transform="translate(112.92 15)">t</text><text class="cls-60" transform="translate(114.04 15)">c</text><text class="cls-59" transform="translate(115.64 15)">h</text></g><g class="cls-11"><text class="cls-61" transform="translate(122.71 15)">C</text><text class="cls-59" transform="translate(124.71 15)">us</text><text class="cls-61" transform="translate(128.04 15)">t</text><text class="cls-59" transform="translate(129.16 15)">o</text><text class="cls-59" transform="translate(130.96 15)">m</text><text class="cls-59" transform="translate(133.97 15)">er 360</text></g><g class="cls-11"><text class="cls-59" transform="translate(148.2 15)">Seg</text><text class="cls-59" transform="translate(153.65 15)">m</text><text class="cls-59" transform="translate(156.66 15)">ents</text></g><text class="cls-59" transform="translate(168.03 15)">Destinations</text><g id="LOGOS"><path class="cls-2" d="M83,20.64h0a6.54,6.54,0,0,1-6.54-6.54h0A6.53,6.53,0,0,1,83,7.57h0A6.53,6.53,0,0,1,89.5,14.1h0A6.54,6.54,0,0,1,83,20.64Z"/><path class="cls-62" d="M85.37,13.36a.62.62,0,0,0-.62.62A.62.62,0,0,0,86,14h0A.62.62,0,0,0,85.37,13.36Z"/><path class="cls-4" d="M84.37,14.79l-1,.56v.15a1,1,0,0,1-2,0,1,1,0,0,1,1.74-.67l1-.52-1.29-2h0a.53.53,0,0,1-.53-.53.53.53,0,1,1,1.06,0,.6.6,0,0,1-.08.29l.73,1.13a1.82,1.82,0,0,0,.67-1.42,1.86,1.86,0,0,0-3.71,0,1.89,1.89,0,0,0,.6,1.38,2.45,2.45,0,1,0,1.76,4.58,2.56,2.56,0,0,0,1-.7l.36.55h1.66Z"/></g><path class="cls-4" d="M309.23,13.56l-.12-.11a.08.08,0,0,0-.1,0h0l-1.07,1.06-1.07-1.06a.07.07,0,0,0-.1,0h0l-.11.12a.07.07,0,0,0,0,.1h0l1.23,1.23a.07.07,0,0,0,.1,0h0l1.24-1.23a.07.07,0,0,0,0-.1h0Z"/><path class="cls-4" d="M257,15.53l-.76-.76a.21.21,0,0,0-.13,0H256a1.58,1.58,0,1,0-.27.27v.13a.21.21,0,0,0,.05.13l.77.76a.19.19,0,0,0,.26,0h0l.21-.22A.19.19,0,0,0,257,15.53Zm-2.27-.81a1,1,0,1,1,1-1h0a1,1,0,0,1-1,1Z"/></svg>