<svg id="Layer_1" data-name="Layer 1" xmlns="http://www.w3.org/2000/svg" viewBox="0 0 387.07 172.03"><defs><style>.cls-1{fill:#8fdd7a;isolation:isolate;}.cls-2{fill:#0c0c0c;}.cls-3{fill:none;}</style></defs><path class="cls-1" d="M262.67,98.8A2.39,2.39,0,0,0,260.24,97h-7.51A28,28,0,0,0,247.65,88l3.75-6.63c.23-.22.23-.67.23-1.11a2.51,2.51,0,0,0-.67-1.76,36,36,0,0,0-13-7.3,2.13,2.13,0,0,0-2.66.89l-3.75,6.41a31.5,31.5,0,0,0-10.61,0l-3.53-6.41a2.43,2.43,0,0,0-2.88-.89,33.4,33.4,0,0,0-12.81,7.3,2,2,0,0,0-.89,1.76,1.71,1.71,0,0,0,.45,1.11L205,88A25,25,0,0,0,199.7,97h-7.51A2.15,2.15,0,0,0,190,98.8a32.17,32.17,0,0,0,0,15,2.15,2.15,0,0,0,2.21,1.77h7.51a25.15,25.15,0,0,0,5.3,9.06l-3.75,6.63a1.69,1.69,0,0,0-.45,1.1,2,2,0,0,0,.89,1.77,33.51,33.51,0,0,0,12.81,7.29,2.43,2.43,0,0,0,2.88-.88l3.53-6.41a32.2,32.2,0,0,0,10.61,0l3.75,6.41a2.55,2.55,0,0,0,2.66,1.1,40.27,40.27,0,0,0,13-7.51,2.53,2.53,0,0,0,.67-1.77c0-.44,0-.88-.23-1.1l-3.75-6.63a28.2,28.2,0,0,0,5.08-9.06h7.51a2.4,2.4,0,0,0,2.43-1.77,42.48,42.48,0,0,0,0-15Zm-36.46,18.12a10.61,10.61,0,1,1,10.61-10.6A10.61,10.61,0,0,1,226.21,116.92Z"/><path class="cls-2" d="M193.29,76.49l-6.41-3.76a43.23,43.23,0,0,0,.45-5.3,43.22,43.22,0,0,0-.45-5.31l6.41-3.75a2.39,2.39,0,0,0,1.11-2.65,40.16,40.16,0,0,0-7.52-13,2.5,2.5,0,0,0-1.76-.66,1.66,1.66,0,0,0-1.11.22l-6.63,4a25.13,25.13,0,0,0-9.06-5.3V33.4A2.39,2.39,0,0,0,166.55,31a43.06,43.06,0,0,0-15,0,2.39,2.39,0,0,0-1.77,2.43v7.51a25.21,25.21,0,0,0-9.06,5.3l-6.63-4A1.65,1.65,0,0,0,133,42a2.52,2.52,0,0,0-1.77.66,36.19,36.19,0,0,0-7.29,13,2,2,0,0,0,.88,2.65l6.41,3.75a43.2,43.2,0,0,0-.44,5.31,43.2,43.2,0,0,0,.44,5.3l-6.41,3.76a2,2,0,0,0-.88,2.65,36.15,36.15,0,0,0,7.29,13,2.49,2.49,0,0,0,1.77.67,1.65,1.65,0,0,0,1.1-.22l6.63-3.76a33.55,33.55,0,0,0,9.06,5.3v7.3a2.4,2.4,0,0,0,1.77,2.43,43.06,43.06,0,0,0,15,0,2.4,2.4,0,0,0,1.77-2.43v-7.3a33.39,33.39,0,0,0,9.06-5.3L184,92.62a1.66,1.66,0,0,0,1.11.22,2.46,2.46,0,0,0,1.76-.67,36,36,0,0,0,7.3-13A2,2,0,0,0,193.29,76.49ZM159,78a10.61,10.61,0,0,1,0-21.21A10.61,10.61,0,1,1,159,78Z"/><rect class="cls-3" width="387.07" height="172.03"/></svg>