<?xml version="1.0" encoding="UTF-8"?><svg id="Layer_1" xmlns="http://www.w3.org/2000/svg" viewBox="0 0 180 80"><defs><style>.cls-1{fill:none;}.cls-2{fill:#fff;fill-rule:evenodd;}</style></defs><rect class="cls-1" width="180" height="80"/><path class="cls-2" d="M114.7,7.18h-49.4c-4.55,0-8.23,3.67-8.23,8.21v49.23c0,4.53,3.69,8.21,8.23,8.21h49.4c4.55,0,8.23-3.67,8.23-8.21V15.38c0-4.53-3.69-8.21-8.23-8.21ZM98.78,19.21c0-1.21.98-2.19,2.2-2.19s2.2.98,2.2,2.19v29.23c0,1.21-.98,2.19-2.2,2.19s-2.2-.98-2.2-2.19v-29.23ZM87.8,18.11c0-1.21.98-2.19,2.2-2.19s2.2.98,2.2,2.19v31.73c0,1.21-.98,2.19-2.2,2.19s-2.2-.98-2.2-2.19v-31.73ZM76.83,19.21c0-1.21.98-2.19,2.2-2.19s2.19.98,2.19,2.19v29.23c0,1.21-.98,2.19-2.19,2.19s-2.2-.98-2.2-2.19v-29.23ZM65.85,23.59c0-1.21.98-2.19,2.19-2.19s2.2.98,2.2,2.19v19.68c0,1.21-.98,2.19-2.2,2.19s-2.19-.98-2.19-2.19v-19.68ZM113.38,56.96c-.34.29-8.47,7.09-23.38,7.09s-23.04-6.8-23.38-7.09c-.92-.79-1.03-2.17-.24-3.09.79-.91,2.17-1.02,3.09-.24.13.11,7.39,6.04,20.53,6.04s20.45-5.98,20.52-6.04c.92-.79,2.31-.68,3.09.24.79.92.69,2.3-.23,3.09ZM114.15,43.27c0,1.21-.98,2.19-2.2,2.19s-2.19-.98-2.19-2.19v-19.68c0-1.21.98-2.19,2.19-2.19s2.2.98,2.2,2.19v19.68Z"/></svg>