<?xml version="1.0" encoding="UTF-8"?><svg id="Layer_1" xmlns="http://www.w3.org/2000/svg" xmlns:xlink="http://www.w3.org/1999/xlink" viewBox="0 0 180 80"><defs><style>.cls-1{fill:none;}.cls-2{clip-path:url(#clippath);}.cls-3{fill:#b61acc;}.cls-3,.cls-4{fill-rule:evenodd;}.cls-4{fill:#fff;}</style><clipPath id="clippath"><rect class="cls-1" x="60" y="10" width="60" height="60"/></clipPath></defs><rect class="cls-1" width="180" height="80"/><rect class="cls-1" width="180" height="80"/><g class="cls-2"><g><path class="cls-3" d="M81.04,16.7l-5.06-5.04c-.12-.13-.27-.23-.44-.3-.17-.07-.34-.11-.52-.1h-13.63c-.18,0-.36,.03-.52,.1-.17,.07-.32,.16-.44,.29-.13,.13-.23,.27-.3,.44-.07,.16-.1,.34-.1,.52V56.23c0,.36,.14,.71,.4,.97,.26,.26,.6,.4,.97,.4h27.25v8.18h-16.36c-.33,.04-.63,.21-.85,.45-.22,.25-.34,.57-.34,.9s.12,.65,.34,.9c.22,.25,.52,.41,.85,.45h35.46c.18,0,.35-.03,.52-.1,.16-.07,.31-.16,.44-.29s.22-.27,.29-.44c.07-.16,.1-.34,.1-.52,0-.18-.03-.36-.1-.52-.07-.17-.16-.32-.29-.44-.12-.13-.27-.23-.44-.3-.16-.07-.34-.1-.52-.1h-16.36v-8.18h27.25c.36,0,.71-.14,.97-.4s.4-.6,.4-.97V18.06c0-.36-.14-.71-.4-.97-.26-.26-.6-.4-.97-.4h-37.59Z"/><path class="cls-3" d="M61.39,65.78c-.27,0-.54,.07-.77,.22-.23,.15-.41,.36-.51,.61-.11,.25-.14,.53-.09,.79,.05,.27,.18,.51,.37,.71,.19,.19,.43,.33,.7,.38,.27,.05,.54,.03,.79-.07,.25-.1,.47-.28,.62-.5,.15-.23,.23-.49,.23-.76,0-.18-.03-.36-.1-.52-.07-.17-.16-.32-.29-.44-.13-.13-.27-.23-.44-.3-.16-.07-.34-.1-.52-.1Z"/><path class="cls-3" d="M66.84,65.78c-.27,0-.53,.08-.76,.23-.22,.15-.4,.36-.5,.61-.1,.25-.13,.52-.08,.79,.05,.27,.18,.51,.37,.7,.19,.19,.43,.32,.7,.37,.27,.05,.54,.03,.79-.08,.25-.1,.46-.28,.61-.5,.15-.22,.23-.49,.23-.76,0-.18-.03-.36-.1-.53-.07-.17-.17-.32-.3-.45-.13-.13-.28-.23-.45-.3-.17-.07-.35-.1-.53-.1Z"/><path class="cls-3" d="M113.35,65.78c-.27,0-.54,.07-.77,.22-.23,.15-.41,.36-.51,.61-.11,.25-.14,.53-.09,.79,.05,.27,.18,.51,.37,.71,.19,.19,.43,.33,.7,.38,.27,.05,.54,.03,.79-.07,.25-.1,.47-.28,.62-.5,.15-.23,.23-.49,.23-.76,0-.18-.03-.36-.1-.52-.07-.17-.16-.32-.29-.44-.12-.13-.27-.23-.44-.3-.16-.07-.34-.1-.52-.1Z"/><path class="cls-3" d="M118.63,65.78c-.27,0-.53,.08-.76,.23-.22,.15-.4,.36-.5,.61-.1,.25-.13,.52-.08,.79,.05,.27,.18,.51,.37,.7s.43,.32,.7,.37c.27,.05,.54,.03,.79-.08,.25-.1,.46-.28,.61-.5,.15-.22,.23-.49,.23-.76,0-.18-.03-.36-.1-.53-.07-.17-.17-.32-.3-.45-.13-.13-.28-.23-.45-.3-.17-.07-.35-.1-.53-.1Z"/><path class="cls-4" d="M108.22,33.61c-.39-.17-.82-.24-1.25-.22-.44-.03-.88,.06-1.27,.26-.12,.07-.22,.18-.3,.3-.08,.12-.12,.26-.13,.4,.01,.21,.1,.4,.24,.55,.23,.21,.53,.36,.84,.41l2.4,.67c.79,.17,1.49,.59,2.02,1.2,.46,.56,.7,1.27,.67,1.99,0,.68-.2,1.34-.58,1.9-.42,.55-1,.97-1.66,1.2-.76,.3-1.58,.45-2.4,.43-.99,.03-1.97-.15-2.88-.53-.76-.25-1.41-.75-1.85-1.42v-.22c0-.05,.03-.1,.06-.14,.03-.04,.07-.08,.11-.1l1.37-.94c.09-.03,.19-.03,.29,0,.08-.03,.16-.03,.24,0,.28,.41,.65,.74,1.08,.98,.46,.21,.96,.31,1.46,.29,.5,.02,1-.07,1.46-.26,.16-.07,.29-.18,.38-.32,.09-.14,.14-.31,.15-.48,0-.46-.38-.79-1.1-.98l-2.4-.6c-.8-.18-1.52-.6-2.06-1.2-.45-.52-.71-1.17-.74-1.85-.03-.68,.16-1.36,.55-1.92,.4-.55,.95-.99,1.58-1.25,.76-.33,1.58-.48,2.4-.46,.82,0,1.63,.15,2.4,.43,.64,.23,1.2,.63,1.63,1.15,.02,.09,.02,.18,0,.26,.02,.05,.02,.11,0,.17l-1.49,.98h-.14s-.14,0-.24-.19c-.25-.22-.53-.4-.84-.53Zm-11.66,.34c-.31-.24-.69-.37-1.08-.36h-1.49s-.09,0-.13,0c-.04,.01-.08,.04-.11,.07-.03,.03-.05,.07-.07,.11-.01,.04-.01,.09,0,.13v2.14c-.01,.08-.01,.16,0,.24,.06,.02,.13,.02,.19,0h1.66c.19,.01,.38-.02,.56-.08s.34-.17,.47-.3c.13-.13,.23-.28,.3-.45,.07-.17,.1-.35,.09-.53,.02-.19,0-.39-.09-.57-.08-.18-.19-.34-.35-.46l.05,.07Zm3.05,2.93c-.36,.52-.86,.93-1.44,1.18-.67,.29-1.4,.43-2.14,.41h-2.16c-.12,0-.17,0-.17,.14v3.67s.04,.1,.04,.16-.01,.11-.04,.16c-.05,.02-.11,.03-.17,.03s-.11-.01-.17-.03h-2.23s-.09,.03-.13,.03-.09-.01-.13-.03c-.02-.04-.03-.09-.03-.13s0-.09,.03-.13v-10.46c0-.22,0-.31,.26-.31h4.8c.77,0,1.54,.13,2.25,.41,.64,.23,1.2,.65,1.61,1.2,.4,.57,.61,1.25,.6,1.94-.02,.66-.22,1.29-.58,1.85l-.22-.07Zm-20.82-5.09s0-.07,0-.11c0-.04,.02-.07,.05-.1,.02-.03,.05-.05,.08-.07,.03-.02,.07-.03,.11-.03h8.88s.08,0,.11,0c.04,0,.07,.02,.1,.05,.03,.02,.06,.05,.08,.08,.02,.03,.03,.07,.04,.11v1.61c0,.17,0,.24-.31,.24h-2.71c-.12,0-.17,0-.17,.14v8.56c0,.22,0,.31-.26,.31h-2.54c-.17,0-.26,0-.26-.29v-8.49c0-.06,0-.11,0-.17h-2.9c-.22,0-.31,0-.31-.24l.02-1.61Zm-10.15-.24c.06-.02,.13-.02,.19,0h7.72c.17,0,.24,0,.24,.29v1.56s0,.09-.02,.13c-.02,.04-.04,.08-.07,.11-.03,.03-.07,.06-.11,.07-.04,.02-.09,.02-.13,.02h-4.56c-.08-.02-.16-.02-.24,0-.02,.07-.02,.15,0,.22v1.85c0,.19,0,.29,.24,.29h3s.07,0,.11,.01c.03,.01,.06,.03,.09,.06,.03,.03,.04,.06,.06,.09,.01,.03,.02,.07,.01,.11v1.61c0,.14,0,.22-.24,.22h-3.12s-.06,0-.09,0c-.03,0-.05,.03-.07,.05-.02,.02-.04,.05-.05,.07,0,.03-.01,.06,0,.09v3.89s.05,.1,.05,.16-.02,.11-.05,.16c-.05,.02-.11,.03-.17,.03s-.11-.01-.17-.03h-2.21s-.07,.01-.11,.01c-.04,0-.07-.01-.11-.03s-.06-.04-.09-.07c-.02-.03-.04-.06-.05-.1v-10.63c-.04-.06-.07-.14-.07-.22h.02Z"/></g></g></svg>