<svg id="Layer_1" data-name="Layer 1" xmlns="http://www.w3.org/2000/svg" xmlns:xlink="http://www.w3.org/1999/xlink" viewBox="0 0 180 80"><defs><style>.cls-1{fill:#fff;}.cls-1,.cls-3{fill-rule:evenodd;}.cls-2{fill:none;}.cls-3{fill:#002855;}.cls-4{mask:url(#mask);}.cls-5{mask:url(#mask-2-2);}</style><mask id="mask" x="103.59" y="67.69" width="8.05" height="8.03" maskUnits="userSpaceOnUse"><g id="mask-2"><polygon id="path-1" class="cls-1" points="103.59 67.69 111.64 67.69 111.64 75.72 103.59 75.72 103.59 67.69"/></g></mask><mask id="mask-2-2" x="45.31" y="3.88" width="88.3" height="71.85" maskUnits="userSpaceOnUse"><g id="mask-4"><polygon id="path-3" class="cls-1" points="45.31 75.72 133.61 75.72 133.61 3.88 45.31 3.88 45.31 75.72"/></g></mask></defs><rect class="cls-2" width="180" height="80"/><g id="FINAL"><g id="footer-desktop"><g id="NAV"><g id="footer-logo"><path id="Fill-1" class="cls-3" d="M99.58,30.94a27.14,27.14,0,0,0-54.27,0V58H72.44A27.1,27.1,0,0,0,99.58,30.94M84.07,26.75a3.34,3.34,0,1,1-3.35,3.34,3.34,3.34,0,0,1,3.35-3.34m0,9A3.34,3.34,0,1,1,80.72,39a3.35,3.35,0,0,1,3.35-3.34M58.26,34.54h0V19.82h5.9V34.53h0a4.14,4.14,0,1,0,4.14-4.12H66.53V24.53H68.3a10,10,0,1,1-10,10"/><polygon id="Fill-3" class="cls-3" points="99.58 73.23 97.74 67.91 95.58 67.91 98.47 75.51 100.7 75.51 103.59 67.91 101.43 67.91 99.58 73.23"/><g id="Group-7"><g class="cls-4"><path id="Fill-5" class="cls-3" d="M107.61,67.69a4,4,0,1,0,2.86,1.17,3.85,3.85,0,0,0-2.86-1.17m1.48,5.52a2,2,0,0,1-1.48.6,2,2,0,0,1-1.47-.6,2,2,0,0,1-.58-1.5,2.07,2.07,0,0,1,.58-1.51,2,2,0,0,1,1.47-.59,2,2,0,0,1,1.48.59,2.07,2.07,0,0,1,.59,1.51,2,2,0,0,1-.59,1.5"/></g></g><g class="cls-5"><polygon id="Fill-8" class="cls-3" points="112.69 75.51 114.65 75.51 114.65 67.91 112.69 67.91 112.69 75.51"/></g><g class="cls-5"><path id="Fill-10" class="cls-3" d="M120.94,73.51a2.06,2.06,0,0,1-1.06.27,2,2,0,0,1-1.46-.59,2,2,0,0,1-.58-1.48,2.07,2.07,0,0,1,.58-1.5,2,2,0,0,1,1.46-.58,2,2,0,0,1,1,.27,1.7,1.7,0,0,1,.69.74l1.69-1a3.45,3.45,0,0,0-1.38-1.43,4,4,0,1,0,0,7,3.72,3.72,0,0,0,1.41-1.43l-1.7-1a1.65,1.65,0,0,1-.69.74"/></g><g class="cls-5"><path id="Fill-11" class="cls-3" d="M128,67.69a4.07,4.07,0,0,0-2.87,6.89,4.1,4.1,0,0,0,3,1.14,3.77,3.77,0,0,0,3.31-1.62l-1.58-.92a2,2,0,0,1-1.7.77,2,2,0,0,1-2.15-1.43h5.74a4.75,4.75,0,0,0,.07-.81,4,4,0,0,0-1.09-2.86A3.62,3.62,0,0,0,128,67.69ZM126,71a1.92,1.92,0,0,1,.69-1.13,2.2,2.2,0,0,1,2.5,0,1.82,1.82,0,0,1,.69,1.15Z"/></g><g class="cls-5"><path id="Fill-12" class="cls-3" d="M49.73,67.67a2.94,2.94,0,0,0-2.46,1.11V64.84h-2V75.49h2v-.9a2.94,2.94,0,0,0,2.46,1.11,3.49,3.49,0,0,0,2.63-1.16,4.3,4.3,0,0,0,0-5.7,3.47,3.47,0,0,0-2.63-1.17m1.15,5.56a2.2,2.2,0,0,1-3,0,2.11,2.11,0,0,1-.59-1.54,2.14,2.14,0,0,1,.59-1.55,2.2,2.2,0,0,1,3,0,2.1,2.1,0,0,1,.6,1.55,2.08,2.08,0,0,1-.6,1.54"/></g><g class="cls-5"><path id="Fill-13" class="cls-3" d="M60.85,68.78a3,3,0,0,0-2.48-1.11,3.45,3.45,0,0,0-2.61,1.17,4.3,4.3,0,0,0,0,5.7,3.48,3.48,0,0,0,2.61,1.16,3,3,0,0,0,2.48-1.11v.9h2v-7.6h-2Zm-.6,4.45a2.2,2.2,0,0,1-3,0,2.11,2.11,0,0,1-.59-1.54,2.14,2.14,0,0,1,.59-1.55,2.2,2.2,0,0,1,3,0,2.1,2.1,0,0,1,.6,1.55,2.08,2.08,0,0,1-.6,1.54Z"/></g><g class="cls-5"><polygon id="Fill-14" class="cls-3" points="70.08 69.19 70.08 67.89 64.39 67.89 64.39 69.72 67.44 69.72 64.24 74.18 64.24 75.49 70.23 75.49 70.23 73.65 66.86 73.65 70.08 69.19"/></g><g class="cls-5"><path id="Fill-15" class="cls-3" d="M77.28,68.78a3,3,0,0,0-2.48-1.11,3.42,3.42,0,0,0-2.61,1.17,4.27,4.27,0,0,0,0,5.7A3.45,3.45,0,0,0,74.8,75.7a3,3,0,0,0,2.48-1.11v.9h2v-7.6h-2Zm-.6,4.45a2.07,2.07,0,0,1-1.52.6,2,2,0,0,1-1.5-.6,2.08,2.08,0,0,1-.6-1.54,2.1,2.1,0,0,1,.6-1.55,2,2,0,0,1,1.5-.6,2.07,2.07,0,0,1,1.52.6,2.1,2.1,0,0,1,.6,1.55,2.08,2.08,0,0,1-.6,1.54Z"/></g><g class="cls-5"><path id="Fill-16" class="cls-3" d="M86.7,68.78a3,3,0,0,0-2.48-1.11,3.42,3.42,0,0,0-2.61,1.17,4.27,4.27,0,0,0,0,5.7,3.45,3.45,0,0,0,2.61,1.16,3,3,0,0,0,2.48-1.11v.9h2v-7.6h-2Zm-.61,4.45a2,2,0,0,1-1.51.6,2,2,0,0,1-1.5-.6,2.08,2.08,0,0,1-.6-1.54,2.1,2.1,0,0,1,.6-1.55,2,2,0,0,1,1.5-.6,2,2,0,0,1,1.51.6,2.11,2.11,0,0,1,.61,1.55,2.09,2.09,0,0,1-.61,1.54Z"/></g><g class="cls-5"><path id="Fill-17" class="cls-3" d="M92.18,69.19v-1.3h-2v7.6h2V71.85a1.73,1.73,0,0,1,.71-1.56,2.3,2.3,0,0,1,1.61-.37V67.73a2.7,2.7,0,0,0-1.41.37,2.1,2.1,0,0,0-.91,1.09"/></g><g class="cls-5"><path id="Fill-18" class="cls-3" d="M131.69,67.7a1,1,0,1,1,1,1,.95.95,0,0,1-1-1Zm1.74,0a.77.77,0,0,0-.78-.78.79.79,0,1,0,.78.78Zm-.91.18v.4h-.26V67.16h.47a.34.34,0,0,1,.37.34.36.36,0,0,1-.21.33l.26.44h-.31l-.21-.4Zm.12-.2c.11,0,.19,0,.19-.17s-.07-.14-.19-.14h-.12v.31Z"/></g></g></g></g></g></svg>