<svg id="Layer_1" data-name="Layer 1" xmlns="http://www.w3.org/2000/svg" viewBox="0 0 180 80"><defs><style>.cls-1{fill:none;}.cls-2{fill:#424242;}.cls-2,.cls-3{fill-rule:evenodd;}.cls-3{fill:#53bad3;}</style></defs><rect class="cls-1" width="180" height="80"/><rect class="cls-1" width="180" height="80"/><g id="Page-1"><g id="horizontal"><g id="recharge-horiz-full_color" data-name="recharge-horiz-full color"><path id="Fill-1" class="cls-2" d="M70,37.81a2.82,2.82,0,0,0,0-3.67,2.78,2.78,0,0,0-2-.68H63.3v5H68A2.78,2.78,0,0,0,70,37.81Zm4.25,10.25H70.8l-3.52-6.83h-4v6.83H60.35V30.73H68a5.83,5.83,0,0,1,4.25,1.44A5.12,5.12,0,0,1,73.68,36,5.39,5.39,0,0,1,72.83,39a4.66,4.66,0,0,1-2.54,1.82Z"/><path id="Fill-3" class="cls-2" d="M80.91,37.47a3.26,3.26,0,0,0-2.27.8,3.52,3.52,0,0,0-1.12,2.15h6.73a3.46,3.46,0,0,0-1.07-2.15A3.21,3.21,0,0,0,80.91,37.47Zm6.2,5.1H77.47a3.75,3.75,0,0,0,1.1,2.4,3.34,3.34,0,0,0,2.44.9,3.45,3.45,0,0,0,1.8-.49A2.77,2.77,0,0,0,84,44.06h2.93a6,6,0,0,1-2.18,3.11,6.19,6.19,0,0,1-3.78,1.19,6,6,0,0,1-4.57-1.88,6.73,6.73,0,0,1-1.75-4.77A6.69,6.69,0,0,1,76.37,37a6.37,6.37,0,0,1,9,0,6.69,6.69,0,0,1,1.73,4.71Z"/><path id="Fill-5" class="cls-2" d="M110,29.75v7a4.17,4.17,0,0,1,3.69-1.66,4.44,4.44,0,0,1,3.48,1.36,5.26,5.26,0,0,1,1.23,3.64v8h-2.9V40.47a3.22,3.22,0,0,0-.63-2.11,2.25,2.25,0,0,0-1.89-.77,2.83,2.83,0,0,0-2.18.83,3.2,3.2,0,0,0-.8,2.32v7.32h-2.9V29.75Z"/><path id="Fill-7" class="cls-2" d="M129,42.13l-3.37.52c-1.58.24-2.37.84-2.37,1.79q0,1.65,2.25,1.65a3.53,3.53,0,0,0,2.59-.9,3.08,3.08,0,0,0,.9-2.26Zm-4.08,6.23a4.66,4.66,0,0,1-3.34-1,3.65,3.65,0,0,1-1.1-2.79q0-3.3,4.86-4L129,40v-.19c0-1.55-.9-2.32-2.71-2.32-1.58,0-2.48.63-2.69,1.88h-2.83a4.59,4.59,0,0,1,1.55-3.06,7.36,7.36,0,0,1,8.13,0,4.47,4.47,0,0,1,1.38,3.49v5.84a6.1,6.1,0,0,0,.37,2.39h-2.76s0-.06-.06-.18a5.56,5.56,0,0,1-.08-.6c0-.28,0-.57,0-.88A4.82,4.82,0,0,1,124.94,48.36Z"/><path id="Fill-9" class="cls-2" d="M141.49,35.29V38a5.14,5.14,0,0,0-.66,0c-2.19,0-3.28,1.18-3.28,3.52v6.59h-2.9V35.39h2.68v1.76a3.94,3.94,0,0,1,3.74-1.88Z"/><path id="Fill-11" class="cls-2" d="M152.54,41.49a3.92,3.92,0,0,0-1-2.76,3.57,3.57,0,0,0-5.1,0,4.36,4.36,0,0,0,0,5.51,3.53,3.53,0,0,0,5.1,0,3.91,3.91,0,0,0,1-2.75m.1-4.29V35.39h2.69V47.53a5.85,5.85,0,0,1-1.6,4.23,5.94,5.94,0,0,1-4.46,1.65,5.88,5.88,0,0,1-4.09-1.34A5,5,0,0,1,143.46,49h2.9c.36,1.29,1.35,1.93,3,1.93a3.06,3.06,0,0,0,2.28-.82,2.92,2.92,0,0,0,.82-2.18v-2a4.44,4.44,0,0,1-4,2,5.32,5.32,0,0,1-4.23-1.84,6.7,6.7,0,0,1-1.6-4.56,6.69,6.69,0,0,1,1.6-4.55,5.32,5.32,0,0,1,4.23-1.84,4.62,4.62,0,0,1,4.23,2.1"/><path id="Fill-13" class="cls-2" d="M163.57,37.47a3.26,3.26,0,0,0-2.27.8,3.53,3.53,0,0,0-1.13,2.15h6.74a3.51,3.51,0,0,0-1.07-2.15A3.21,3.21,0,0,0,163.57,37.47Zm6.2,5.1h-9.65a3.8,3.8,0,0,0,1.1,2.4,3.38,3.38,0,0,0,2.45.9,3.45,3.45,0,0,0,1.8-.49,2.77,2.77,0,0,0,1.15-1.32h2.93a5.91,5.91,0,0,1-2.19,3.11,6.14,6.14,0,0,1-3.77,1.19A6,6,0,0,1,159,46.48a6.77,6.77,0,0,1-1.74-4.77A6.65,6.65,0,0,1,159,37a6.37,6.37,0,0,1,9,0,6.69,6.69,0,0,1,1.72,4.71Z"/><path id="Fill-15" class="cls-2" d="M100.89,44.67a5.54,5.54,0,0,1-3.38,1A5.17,5.17,0,0,1,93.42,44a6.67,6.67,0,0,1-1.49-4.55,6.6,6.6,0,0,1,1.49-4.53,5.16,5.16,0,0,1,4.09-1.69,5.54,5.54,0,0,1,3.38,1,4.84,4.84,0,0,1,1.66,2.26l2.73-1.47a7.49,7.49,0,0,0-2.21-2.85,8.66,8.66,0,0,0-5.56-1.82,8.35,8.35,0,0,0-6.28,2.53,9,9,0,0,0-2.45,6.54A9.07,9.07,0,0,0,91.23,46a8.35,8.35,0,0,0,6.28,2.53,8.66,8.66,0,0,0,5.56-1.82,7.58,7.58,0,0,0,2.06-2.52l-2.72-1.46a4.75,4.75,0,0,1-1.52,1.92"/><g id="Group-21"><path id="Fill-17" class="cls-3" d="M31.15,29.05l-9,4.68,2.72,1.54,8.5-5Zm8.92,4.67-3.94-2.06-8.6,5.1,3.61,2Zm-9.76,6.49L26.7,38.16v3.69l-2.61-1.48V36.68l-2.77-1.57v10.7l9,5ZM41,45.77V35.08l-9,5.13V50.93ZM19.7,33.19l11.45-6,11.43,6V46.71L31.21,53.23,19.7,46.76Z"/><path id="Fill-19" class="cls-3" d="M42.5,22.46c-.36-.88-.71-1.71-1.07-2.58l1.69-.7,2.72,6.54L39,26.3c0-.6-.1-1.2-.15-1.82l2.94-.25a17.76,17.76,0,0,0-8.12-3.13,18.64,18.64,0,0,0-14.49,4.07A19.07,19.07,0,1,0,44.34,53.76l1.25,1.31A20.89,20.89,0,0,1,13.38,29a20.31,20.31,0,0,1,13.18-9.35A20.65,20.65,0,0,1,42.5,22.46"/></g></g></g></g></svg>