<?xml version="1.0" encoding="UTF-8"?><svg id="Layer_1" xmlns="http://www.w3.org/2000/svg" viewBox="0 0 180 80"><defs><style>.cls-1{fill:none;}</style></defs><rect class="cls-1" width="180" height="80"/><rect class="cls-1" width="180" height="80"/><path d="M88.29,28.86v17.18c0,10.86-8.34,14.4-12.13,15.41-1.01,.25-2.53-.25-3.03-1.77-.25-1.26,.51-2.53,1.77-3.03,3.79-1.01,8.34-3.79,8.34-10.61V28.86c0-1.26,1.01-2.53,2.53-2.53,1.26,0,2.53,1.01,2.53,2.53Zm-42.19,20.97c1.01,2.02-1.01,4.8-3.54,3.28,0,0-9.6-6.32-16.67-9.09l-4.29,8.08c-.25,.76-2.02,2.02-3.54,1.01-11.87-6.82-9.6-20.21,5.3-15.66l6.06-11.62c1.26-2.02,3.79-1.52,4.55,0l12.13,24Zm-25.01-7.58c-9.6-2.78-4.55,3.79-2.53,5.05l2.53-5.05Zm16.42,1.77l-6.06-11.37-3.28,6.82c2.27,.76,7.33,3.54,9.35,4.55Zm37.89-4.29c0,7.58-6.06,13.64-13.64,13.64h-8.08c-1.52,0-2.53-1.26-2.53-2.53V28.86c0-1.52,1.26-2.53,2.53-2.53h8.08c7.58,0,13.64,6.06,13.64,13.39Zm-5.05,0c0-4.55-3.79-8.34-8.34-8.34h-5.56v16.92h5.56c4.55,0,8.34-3.79,8.34-8.59Zm44.46-10.86v12.63c0,4.04-2.78,6.82-6.82,6.82s-6.82-2.78-6.82-6.82v-12.63c0-3.28-5.05-3.28-5.05,0v12.63c0,6.82,5.05,11.87,11.87,11.87s11.87-5.05,11.87-11.87v-12.63c0-3.28-5.05-3.28-5.05,0Zm54.06-2.53h-18.69c-3.28,0-3.28,5.05,0,5.05h6.82v19.45c0,3.28,5.05,3.28,5.05,0V31.38h6.82c3.54,0,3.54-5.05,0-5.05Zm-38.9,6.57c.25-2.27,4.8-3.54,8.59-.25,2.53,2.02,5.81-1.01,3.54-3.79-4.29-4.8-17.18-4.55-17.18,4.55,0,9.6,14.9,7.58,13.39,13.14-.76,2.53-6.57,3.54-9.35-.25-2.27-3.28-6.32,0-4.29,2.78,5.81,8.34,18.95,4.8,18.95-3.28,0-9.35-13.89-7.58-13.64-12.88Z"/></svg>