<svg id="Layer_1" data-name="Layer 1" xmlns="http://www.w3.org/2000/svg" viewBox="0 0 180 80"><defs><style>.cls-1{fill:none;}.cls-2{fill:#0089d6;}</style></defs><rect class="cls-1" width="180" height="80"/><g id="layer1"><g id="layer1-1"><path id="path21" class="cls-2" d="M38.11,60.36,52,57.9l.13,0L45,49.38c-3.92-4.67-7.13-8.51-7.13-8.53s7.37-20.34,7.41-20.41,5,8.64,12.16,21C64.09,53,69.59,62.54,69.65,62.63l.09.16H24.37Zm87-2.06c-3.45-.22-5.46-2.18-6-5.86-.14-1-.14-1-.16-7.37V38.92h3l0,5.95c0,5.37,0,6,.06,6.37a5.7,5.7,0,0,0,1.33,3.3,3.83,3.83,0,0,0,2.14,1.12,7.81,7.81,0,0,0,2,0,4.45,4.45,0,0,0,2.33-1.26,6.18,6.18,0,0,0,1.57-3l.09-.41V39h3.12V57.86h-3.09v-1.5a13.47,13.47,0,0,0,0-1.49,1.42,1.42,0,0,0-.18.27,6.33,6.33,0,0,1-2.39,2.4,6.65,6.65,0,0,1-3.93.76Zm35.05,0a8.06,8.06,0,0,1-3.55-1.16,8.65,8.65,0,0,1-3.9-6.73,16.4,16.4,0,0,1,0-3.42,11.18,11.18,0,0,1,2.19-5.47,10.29,10.29,0,0,1,1.32-1.32,8.16,8.16,0,0,1,3.37-1.61,10.87,10.87,0,0,1,2.74-.16,7.15,7.15,0,0,1,4.85,2.49,9.53,9.53,0,0,1,2,5.92c0,.39,0,1.07,0,1.51l0,.81H155.71v.3a7.4,7.4,0,0,0,.6,2.82,6.27,6.27,0,0,0,1.36,2,6,6,0,0,0,3.4,1.44,12.85,12.85,0,0,0,2.21-.09,9.36,9.36,0,0,0,4.18-1.72l.29-.22s.05.25.05,1.4V56.5l-.31.19A11.1,11.1,0,0,1,163,58.25a26.56,26.56,0,0,1-2.84,0Zm5.82-12a6.06,6.06,0,0,0-1.55-4.08,4.28,4.28,0,0,0-2.36-1.15,7,7,0,0,0-1.83.05,4.81,4.81,0,0,0-2.5,1.33,6.85,6.85,0,0,0-1.66,2.65,10,10,0,0,0-.32,1.31l0,.16H166ZM75.25,57.81l5-13.26,5-13.21h3.24l.13.34c.41,1,10.08,26.15,10.08,26.16s-.78,0-1.72,0H95.33l-1.39-3.71-1.39-3.71H81.33l0,.12c0,.07-.62,1.74-1.32,3.71l-1.28,3.59H77a7.84,7.84,0,0,1-1.71,0Zm16.27-10.2s-.93-2.55-2.08-5.65c-2.14-5.8-2.26-6.15-2.43-7.08-.08-.44-.12-.45-.17-.05a9.05,9.05,0,0,1-.29,1.27c-.06.18-1,2.83-2.15,5.89s-2,5.58-2,5.6,2.06,0,4.58,0Zm8.3,9.76v-.48l5.59-7.68L111,41.52h-5.06l-5.06,0V38.92h14.63v.87l-5.59,7.73c-3.07,4.24-5.59,7.73-5.59,7.74h11v2.59H99.82Zm41,.46s0-4.27,0-9.46V38.92h3.05v1.95c0,1.07,0,2,0,2a1.52,1.52,0,0,0,.16-.39,6.81,6.81,0,0,1,1.71-2.63,4.39,4.39,0,0,1,2.41-1.2,5.51,5.51,0,0,1,1,0,4.53,4.53,0,0,1,1.4.2l.13,0V42l-.36-.18a3.85,3.85,0,0,0-2-.41,3.66,3.66,0,0,0-1.21.24,3.83,3.83,0,0,0-1.93,1.57,9.19,9.19,0,0,0-1.28,3.68c0,.22,0,2.05,0,5.66v5.33h-1.5C141.53,57.86,140.84,57.85,140.83,57.83ZM10.89,57.77s3.36-5.85,7.47-13l7.48-12.95,8.71-7.31c4.79-4,8.72-7.32,8.74-7.32a2.51,2.51,0,0,1-.14.35c-.1.2-4.35,9.33-9.46,20.29L24.4,57.77H17.64C13.93,57.79,10.89,57.78,10.89,57.77Z"/></g></g></svg>