<?xml version="1.0" encoding="UTF-8"?><svg id="Layer_1" xmlns="http://www.w3.org/2000/svg" viewBox="0 0 180 80"><defs><style>.cls-1{fill:none;}.cls-2{fill:#f90;fill-rule:evenodd;}.cls-3{fill:#fff;}</style></defs><path class="cls-3" d="M67.92,31.72c0,1.25.13,2.25.37,3,.27.74.61,1.55,1.08,2.42.17.27.24.54.24.77,0,.34-.2.67-.64,1.01l-2.12,1.41c-.3.2-.61.3-.88.3-.34,0-.67-.17-1.01-.47-.47-.5-.88-1.04-1.21-1.58-.34-.57-.67-1.21-1.04-1.99-2.63,3.1-5.92,4.64-9.89,4.64-2.83,0-5.08-.81-6.73-2.42-1.65-1.62-2.49-3.77-2.49-6.46,0-2.86,1.01-5.18,3.06-6.93,2.05-1.75,4.78-2.63,8.25-2.63,1.14,0,2.32.1,3.57.27,1.25.17,2.52.44,3.87.74v-2.46c0-2.56-.54-4.34-1.58-5.38-1.08-1.04-2.89-1.55-5.49-1.55-1.18,0-2.39.13-3.63.44-1.25.3-2.46.67-3.63,1.14-.54.24-.94.37-1.18.44-.24.07-.4.1-.54.1-.47,0-.71-.34-.71-1.04v-1.65c0-.54.07-.94.24-1.18s.47-.47.94-.71c1.18-.61,2.59-1.11,4.24-1.51,1.65-.44,3.4-.64,5.25-.64,4,0,6.93.91,8.82,2.73,1.85,1.82,2.79,4.58,2.79,8.28v10.9h.07ZM54.26,36.84c1.11,0,2.25-.2,3.47-.61,1.21-.4,2.29-1.14,3.2-2.15.54-.64.94-1.35,1.14-2.15s.34-1.78.34-2.93v-1.41c-.98-.24-2.02-.44-3.1-.57-1.08-.13-2.12-.2-3.16-.2-2.25,0-3.9.44-5.01,1.35-1.11.91-1.65,2.19-1.65,3.87,0,1.58.4,2.76,1.25,3.57.81.84,1.99,1.25,3.53,1.25ZM81.28,40.47c-.61,0-1.01-.1-1.28-.34-.27-.2-.5-.67-.71-1.31l-7.91-26.02c-.2-.67-.3-1.11-.3-1.35,0-.54.27-.84.81-.84h3.3c.64,0,1.08.1,1.31.34.27.2.47.67.67,1.31l5.65,22.28,5.25-22.28c.17-.67.37-1.11.64-1.31.27-.2.74-.34,1.35-.34h2.69c.64,0,1.08.1,1.35.34.27.2.5.67.64,1.31l5.32,22.55,5.82-22.55c.2-.67.44-1.11.67-1.31.27-.2.71-.34,1.31-.34h3.13c.54,0,.84.27.84.84,0,.17-.03.34-.07.54-.03.2-.1.47-.24.84l-8.11,26.02c-.2.67-.44,1.11-.71,1.31s-.71.34-1.28.34h-2.89c-.64,0-1.08-.1-1.35-.34s-.5-.67-.64-1.35l-5.22-21.71-5.18,21.67c-.17.67-.37,1.11-.64,1.35-.27.24-.74.34-1.35.34h-2.89ZM124.53,41.38c-1.75,0-3.5-.2-5.18-.61-1.68-.4-3-.84-3.87-1.35-.54-.3-.91-.64-1.04-.94-.13-.3-.2-.64-.2-.94v-1.72c0-.71.27-1.04.77-1.04.2,0,.4.03.61.1.2.07.5.2.84.34,1.14.5,2.39.91,3.7,1.18,1.35.27,2.66.4,4,.4,2.12,0,3.77-.37,4.91-1.11,1.14-.74,1.75-1.82,1.75-3.2,0-.94-.3-1.72-.91-2.36-.61-.64-1.75-1.21-3.4-1.75l-4.88-1.51c-2.46-.77-4.27-1.92-5.38-3.43-1.11-1.48-1.68-3.13-1.68-4.88,0-1.41.3-2.66.91-3.74.61-1.08,1.41-2.02,2.42-2.76,1.01-.77,2.15-1.35,3.5-1.75,1.35-.4,2.76-.57,4.24-.57.74,0,1.51.03,2.25.13.77.1,1.48.24,2.19.37.67.17,1.31.34,1.92.54.61.2,1.08.4,1.41.61.47.27.81.54,1.01.84.2.27.3.64.3,1.11v1.58c0,.71-.27,1.08-.77,1.08-.27,0-.71-.13-1.28-.4-1.92-.88-4.07-1.31-6.46-1.31-1.92,0-3.43.3-4.48.94s-1.58,1.62-1.58,3c0,.94.34,1.75,1.01,2.39.67.64,1.92,1.28,3.7,1.85l4.78,1.51c2.42.77,4.17,1.85,5.22,3.23,1.04,1.38,1.55,2.96,1.55,4.71,0,1.45-.3,2.76-.88,3.9-.61,1.14-1.41,2.15-2.46,2.96-1.04.84-2.29,1.45-3.74,1.88-1.51.47-3.1.71-4.81.71Z"/><path class="cls-2" d="M130.89,57.74c-11.07,8.18-27.16,12.52-40.99,12.52-19.39,0-36.85-7.17-50.05-19.08-1.04-.94-.1-2.22,1.14-1.48,14.27,8.28,31.87,13.29,50.08,13.29,12.28,0,25.78-2.56,38.2-7.81,1.85-.84,3.43,1.21,1.62,2.56Z"/><path class="cls-2" d="M135.5,52.49c-1.41-1.82-9.36-.88-12.96-.44-1.08.13-1.25-.81-.27-1.51,6.33-4.44,16.73-3.16,17.94-1.68,1.21,1.51-.34,11.91-6.26,16.89-.91.77-1.78.37-1.38-.64,1.35-3.33,4.34-10.84,2.93-12.62Z"/><rect class="cls-1" width="180" height="80"/></svg>