<?xml version="1.0" encoding="UTF-8"?><svg id="Layer_1" xmlns="http://www.w3.org/2000/svg" viewBox="0 0 180 80"><defs><style>.cls-1{fill:none;}.cls-2{fill:#fff;}.cls-3{fill:#9bcbea;}</style></defs><rect class="cls-1" width="180" height="80"/><rect class="cls-1" width="180" height="80"/><g><path class="cls-3" d="M68.23,33.77c1.08,1.21,1.85,2.7,2.18,4.35,.86-4.26,4.62-7.47,9.14-7.47s8.28,3.21,9.14,7.47v-7.47l9.32,9.32,9.35-9.32v7.47c.86-4.26,4.62-7.47,9.14-7.47,3.71,0,6.91,2.17,8.41,5.3V5.09H55.09V30.65h6.18c2.77,0,5.25,1.2,6.96,3.12Z"/><path class="cls-3" d="M116.5,49.3c-4.51,0-8.28-3.21-9.14-7.47v7.47h-3.14v-11.15l-6.21,6.23-6.23-6.23v11.15h-3.09v-7.47c-.86,4.26-4.62,7.47-9.14,7.47s-8.28-3.21-9.14-7.47c-.33,1.65-1.1,3.14-2.18,4.35-1.71,1.91-4.19,3.12-6.96,3.12h-6.18v25.61H124.91v-30.91c-1.5,3.14-4.7,5.3-8.41,5.3Z"/><path class="cls-3" d="M79.55,46.2c3.44,0,6.22-2.79,6.22-6.22s-2.79-6.22-6.22-6.22-6.22,2.79-6.22,6.22,2.79,6.22,6.22,6.22Z"/><path class="cls-3" d="M67.49,39.98c0-3.3-2.57-6-5.81-6.21h-3.5v12.41h3.5c3.25-.21,5.82-2.91,5.82-6.21Z"/><path class="cls-3" d="M116.5,46.2c3.44,0,6.22-2.79,6.22-6.22s-2.79-6.22-6.22-6.22-6.22,2.79-6.22,6.22,2.79,6.22,6.22,6.22Z"/><path class="cls-2" d="M68.23,46.18c1.08-1.21,1.85-2.7,2.18-4.35,.86,4.26,4.62,7.47,9.14,7.47s8.28-3.21,9.14-7.47v7.47h3.09v-11.15l6.23,6.23,6.21-6.23v11.15h3.14v-7.47c.86,4.26,4.62,7.47,9.14,7.47,3.71,0,6.91-2.17,8.41-5.3v-8.04c-1.5-3.14-4.7-5.3-8.41-5.3-4.51,0-8.28,3.21-9.14,7.47v-7.47l-9.35,9.32-9.32-9.32v7.47c-.86-4.26-4.62-7.47-9.14-7.47s-8.28,3.21-9.14,7.47c-.33-1.65-1.1-3.14-2.18-4.35-1.71-1.91-4.19-3.12-6.96-3.12h-6.18v18.65h6.18c2.77,0,5.25-1.2,6.96-3.12Zm48.27-12.43c3.44,0,6.22,2.79,6.22,6.22s-2.79,6.22-6.22,6.22-6.22-2.79-6.22-6.22,2.79-6.22,6.22-6.22Zm-36.95,0c3.44,0,6.22,2.79,6.22,6.22s-2.79,6.22-6.22,6.22-6.22-2.79-6.22-6.22,2.79-6.22,6.22-6.22Zm-21.37,.01h3.5c3.25,.21,5.81,2.91,5.81,6.21s-2.57,6-5.82,6.21h-3.5v-12.41Z"/></g></svg>