<svg id="Layer_1" data-name="Layer 1" xmlns="http://www.w3.org/2000/svg" viewBox="0 0 180 80"><defs><style>.cls-1{fill:none;}.cls-2{fill:#48b8f0;}.cls-3{fill:#1c2b36;}</style></defs><rect class="cls-1" width="180" height="80"/><rect class="cls-1" width="180" height="80"/><path class="cls-2" d="M56.39,49.09h9.19L49.17,14.81,32.76,49.09H42L49.17,34Z"/><path class="cls-3" d="M71.74,49.09h9.19L64.52,14.81l-6.2,13,4.59,9.62,1.61-3.34Z"/><path class="cls-2" d="M89.53,31.07a7.24,7.24,0,0,1,5.93,2.71V31.34H100v17H95.46V45.91a7.26,7.26,0,0,1-6,2.79c-4.52,0-8.13-3.54-8.13-8.84S85,31.07,89.53,31.07Zm1.14,3.77A4.63,4.63,0,0,0,86,39.78a4.76,4.76,0,0,0,4.71,5.07,4.7,4.7,0,0,0,4.75-5A4.65,4.65,0,0,0,90.67,34.84Z"/><path class="cls-2" d="M89.49,49.36c-5.1,0-8.83-4-8.83-9.54s3.73-9.46,8.87-9.46a8.31,8.31,0,0,1,5.22,1.69V30.64h5.93V49.09h-6V47.64A8.33,8.33,0,0,1,89.49,49.36Zm0-17.58c-4.4,0-7.46,3.29-7.46,8S85.21,48,89.49,48a6.65,6.65,0,0,0,5.38-2.47l1.25-1.77v4h3.15V32.05H96.12V35.9l-1.25-1.73A6.51,6.51,0,0,0,89.53,31.78Zm1.14,13.78a5.52,5.52,0,0,1-5.42-5.78,5.35,5.35,0,0,1,5.42-5.65c3.57,0,5.42,2.87,5.42,5.73S94.24,45.56,90.67,45.56Zm0-10a4,4,0,0,0-4,4.24,4,4,0,0,0,4,4.36,4,4,0,0,0,4-4.32A4,4,0,0,0,90.67,35.54Z"/><path class="cls-2" d="M110,48.38h-4.51v-17H110V34a6.36,6.36,0,0,1,5.5-2.9v4.55h-1.18c-2.67,0-4.28,1-4.28,4.28v8.48Z"/><path class="cls-2" d="M110.73,49.09H104.8V30.64h5.93v1.45a7.15,7.15,0,0,1,4.79-1.73h.71v5.93h-1.89c-2.63,0-3.61,1-3.61,3.57Zm-4.52-1.41h3.11V39.86c0-3.33,1.64-5,5-5h.47V31.81a5.54,5.54,0,0,0-4.2,2.56l-1.29,2V32.05h-3.1V47.68Z"/><path class="cls-2" d="M142,39c0-2.75-1.57-4.2-4-4.2s-4,1.45-4,4.2v9.42h-4.51V31H134v2.43a6.88,6.88,0,0,1,5.38-2.35c4.16,0,7.15,2.59,7.15,7.3v10H142L142,39Z"/><path class="cls-2" d="M147.24,49.09h-5.93V38.37a3,3,0,0,0-3.26-2.9c-2.16,0-3.33,1.25-3.33,3.49V49.05h-5.93V30.32h5.93v1.53a7.94,7.94,0,0,1,4.67-1.45c4.75,0,7.85,3.14,7.85,8Zm-4.51-1.41h3.1V38.37c0-4.12-2.4-6.59-6.44-6.59a6.13,6.13,0,0,0-4.83,2.12l-1.26,1.57V31.74h-3.1V47.68h3.1V39c0-3,1.81-4.91,4.75-4.91s4.68,1.89,4.68,4.91v.71h0v8Z"/><path class="cls-2" d="M120,31h4.52V48.38H120Z"/><path class="cls-2" d="M125.26,49.09h-5.93V30.32h5.93Zm-4.52-1.41h3.1V31.74h-3.1Z"/><circle class="cls-2" cx="122.35" cy="24.24" r="2.32"/><path class="cls-2" d="M122.35,27.26a3,3,0,1,1,3-3A3,3,0,0,1,122.35,27.26Zm0-4.63a1.61,1.61,0,1,0,0,3.22A1.6,1.6,0,0,0,124,24.24,1.64,1.64,0,0,0,122.35,22.63Z"/><path d="M32.17,63.73l1.26-1.37a4.78,4.78,0,0,0,.9.71,2.5,2.5,0,0,0,1.29.35,1.52,1.52,0,0,0,.59-.12,1.42,1.42,0,0,0,.47-.31.84.84,0,0,0,.2-.51.86.86,0,0,0-.47-.75,4.92,4.92,0,0,0-1.49-.51,3.72,3.72,0,0,1-1.65-.86,2.16,2.16,0,0,1-.63-1.61A2.68,2.68,0,0,1,33,57.41a3,3,0,0,1,1.06-1,3.91,3.91,0,0,1,1.77-.35,4.24,4.24,0,0,1,1.49.23,4.69,4.69,0,0,1,1,.51c.24.2.4.32.51.43l-1.13,1.26c-.2-.16-.44-.31-.75-.51a2,2,0,0,0-1.1-.27A1.37,1.37,0,0,0,35,58a.69.69,0,0,0-.36.59.8.8,0,0,0,.47.71,5.93,5.93,0,0,0,1.3.47,6.68,6.68,0,0,1,1.22.47,3.09,3.09,0,0,1,1,.86A2.74,2.74,0,0,1,39,62.52a2.4,2.4,0,0,1-.43,1.37,3.16,3.16,0,0,1-1.18.94,3.88,3.88,0,0,1-1.69.36,6.15,6.15,0,0,1-1.53-.2,4.83,4.83,0,0,1-1.14-.55A2.53,2.53,0,0,1,32.17,63.73Z"/><path d="M51.49,65.19a4.38,4.38,0,0,1-1.77-.36,3.89,3.89,0,0,1-1.41-1,4.34,4.34,0,0,1-1-1.45A4.54,4.54,0,0,1,47,60.63a4.66,4.66,0,0,1,.35-1.8,5.11,5.11,0,0,1,1-1.46,4,4,0,0,1,1.41-1,4.63,4.63,0,0,1,3.53,0,4.15,4.15,0,0,1,1.42,1,4.73,4.73,0,0,1,.94,5,5.24,5.24,0,0,1-.94,1.45,4.41,4.41,0,0,1-1.42,1A4.36,4.36,0,0,1,51.49,65.19Zm0-1.85A2,2,0,0,0,52.78,63a2.64,2.64,0,0,0,.83-1,3.33,3.33,0,0,0,.27-1.38,3,3,0,0,0-.27-1.33,2.49,2.49,0,0,0-.83-1,2.23,2.23,0,0,0-1.29-.36,2.26,2.26,0,0,0-1.3.36,2.48,2.48,0,0,0-.86,1A3,3,0,0,0,49,60.59,3.36,3.36,0,0,0,49.33,62a2.11,2.11,0,0,0,.86,1A2.07,2.07,0,0,0,51.49,63.34Z"/><path d="M64.25,65V56.31h5.81V58H66.21v2h2.9v1.69h-2.9V65h-2Z"/><path d="M80.38,65V58H77.59V56.31h7.54V58H82.34V65Z"/><path d="M94.67,65l-2.16-8.64h2.08l1.26,6.24,1.53-6h1.77l1.53,6,1.26-6.24h2L101.74,65h-2L98.21,59.3,96.71,65Z"/><path d="M110.45,65l3.22-8.64h2.16L119,65h-2.12l-.66-2h-3l-.66,2Zm3.15-3.49h2.12l-1.06-3.26Z"/><path d="M126.83,65V56.31h3.22a3.62,3.62,0,0,1,1.68.36A2.61,2.61,0,0,1,133.11,59a2.89,2.89,0,0,1-.36,1.45,2.57,2.57,0,0,1-1.06,1l1.93,3.45h-2.16l-1.61-3.18h-1.1v3.18h-1.92Zm1.92-4.71H130a1.28,1.28,0,0,0,.86-.32,1.24,1.24,0,0,0,0-1.64A1.21,1.21,0,0,0,130,58h-1.22Z"/><path d="M141.63,65V56.31h5.89V58h-3.93v1.69h3.06v1.65h-3.06v1.84h4.24v1.73h-6.2Z"/></svg>