<?xml version="1.0" encoding="UTF-8"?><svg id="Layer_1" xmlns="http://www.w3.org/2000/svg" viewBox="0 0 180 80"><defs><style>.cls-1{fill:none;}.cls-2{fill:#1a2022;}.cls-2,.cls-3{fill-rule:evenodd;}.cls-3{fill:#ff4876;}</style></defs><rect class="cls-1" width="180" height="80"/><path class="cls-2" d="M135.05,47.11c4.18,0,7.57-3.33,7.57-7.42s-3.4-7.42-7.57-7.42-7.57,3.33-7.57,7.42,3.4,7.42,7.57,7.42ZM142.62,21.25h3.59v29.4h-3.59v-2.94c-2.07,1.88-4.74,2.91-7.57,2.91-6.15,0-11.16-4.91-11.16-10.93s5.01-10.94,11.16-10.94c2.83,0,5.5,1.03,7.57,2.91v-10.42ZM60.66,46.98c4.17,0,7.57-3.33,7.57-7.42s-3.4-7.42-7.57-7.42-7.57,3.33-7.57,7.42,3.4,7.42,7.57,7.42ZM53.09,31.54c2.07-1.88,4.74-2.91,7.57-2.91,6.15,0,11.16,4.91,11.16,10.93s-5.01,10.94-11.16,10.94c-2.83,0-5.5-1.03-7.57-2.91v10.42h-3.59v-29.4h3.59v2.94ZM78.66,37.85c.81-3.32,3.82-5.71,7.25-5.71s6.22,2.33,6.98,5.71h-14.23ZM85.91,28.6c-6.06,0-10.99,4.95-10.99,11.02s4.93,11.03,10.99,11.03c3.39,0,6.51-1.27,8.55-3.5l1.06-1.16.14-.15-.15-.14-2.3-2.12-.15-.14-.14.15-1.06,1.16c-1.35,1.47-3.57,2.35-5.95,2.35-3.43,0-6.44-2.39-7.25-5.71h17.95v-1.77c0-6.18-4.7-11.02-10.71-11.02ZM167.41,39.63c0,4.12-3.4,7.48-7.57,7.48s-7.57-3.36-7.57-7.48,3.4-7.48,7.57-7.48,7.57,3.36,7.57,7.48ZM159.84,28.6c-6.15,0-11.16,4.95-11.16,11.03s5.01,11.02,11.16,11.02,11.16-4.95,11.16-11.02-5.01-11.03-11.16-11.03ZM109.94,28.6c-2.49,0-4.87.95-6.74,2.68v-2.68h-3.49v22.05h3.49v-11.25c0-4.01,3.02-7.28,6.74-7.28s6.74,3.27,6.74,7.28v11.25h3.49v-11.25c0-5.95-4.59-10.8-10.23-10.8Z"/><path class="cls-3" d="M9,42.25h16.87v16.5l16.88-16.5v-16.5h-16.88l-16.87,16.5Z"/></svg>