<svg id="Layer_1" data-name="Layer 1" xmlns="http://www.w3.org/2000/svg" viewBox="0 0 180 80"><defs><style>.cls-1{fill:none;}.cls-2{fill:#be1e2d;}</style></defs><rect class="cls-1" width="180" height="80"/><rect class="cls-1" width="180" height="80"/><path class="cls-2" d="M120.9,45.89a25,25,0,0,0-25,25c0,1.84,1.53,2.48,3.37,2.48s3.37-.64,3.37-2.48a18.28,18.28,0,0,1,18.26-18.26c1.84,0,2.37-1.49,2.37-3.37s-.53-3.33-2.41-3.33"/><path class="cls-2" d="M120.9,31.56A39.33,39.33,0,0,0,81.62,70.85c0,1.84,1.52,2.48,3.36,2.48s3.37-.64,3.37-2.48a32.63,32.63,0,0,1,32.59-32.58c1.84,0,2.37-1.49,2.37-3.37s-.53-3.34-2.41-3.34"/><path class="cls-2" d="M120.9,23.16c1.85,0,2.38-1.52,2.38-3.37s-.53-3.37-2.38-3.37a55.46,55.46,0,0,0-10.6,1c-.07-.14-5.74-8.47-6.7-10-1.31-2.17-8.44.81-8.12,3,.28,1.92,1.21,9.65,1.42,11.56a56,56,0,0,0-9.11,5.67C86,26.6,79.28,22.49,77.93,21.6c-2.09-1.42-7.31,4.26-6.14,6.13,1,1.6,5,8.05,6.07,9.83A55.48,55.48,0,0,0,72,46.88c-1.71-.18-10-1.1-11.67-1.38-2.48-.43-4.86,7-3,8.12s10.07,6.63,10.07,6.63v0a55.56,55.56,0,0,0-1.06,10.64c0,1.84,1.49,2.48,3.37,2.48s3.37-.64,3.37-2.48A47.93,47.93,0,0,1,120.9,23.16"/></svg>