<svg id="Layer_1" data-name="Layer 1" xmlns="http://www.w3.org/2000/svg" viewBox="0 0 180 80"><defs><style>.cls-1{fill:none;}.cls-2{fill:#333;}.cls-3{fill:#fcb400;}.cls-4{fill:#18bfff;}.cls-5{fill:#f82b60;}</style></defs><rect class="cls-1" width="180" height="80"/><rect class="cls-1" width="180" height="80"/><path class="cls-2" d="M74.5,42.58l-2.73-7.36a.35.35,0,0,0-.65,0l-2.73,7.36a.35.35,0,0,0,.33.47h5.46a.34.34,0,0,0,.32-.47m1.27,4.14H67.13a.34.34,0,0,0-.32.23l-1.7,4.58a.35.35,0,0,1-.33.22H61a.34.34,0,0,1-.32-.47l8.62-21.46a.33.33,0,0,1,.32-.22h3.58a.33.33,0,0,1,.32.22l8.62,21.46a.34.34,0,0,1-.32.47H78.12a.35.35,0,0,1-.33-.22L76.09,47a.34.34,0,0,0-.32-.23m8.16-9.59h3.2a.35.35,0,0,1,.35.35V51.41a.35.35,0,0,1-.35.35h-3.2a.35.35,0,0,1-.34-.35V37.48a.35.35,0,0,1,.34-.35m15.22,3.39a.35.35,0,0,1-.34.35h-.1A4.67,4.67,0,0,0,95.23,42a5.26,5.26,0,0,0-1.11,3.76v5.64a.35.35,0,0,1-.35.35H90.61a.35.35,0,0,1-.35-.35V37.48a.35.35,0,0,1,.35-.35h3.13a.35.35,0,0,1,.35.35v2.75h.06A5.15,5.15,0,0,1,96,37.61a4.88,4.88,0,0,1,3-.92h.15Zm8.76-.13a.35.35,0,0,0-.35.35v5.79a1.87,1.87,0,0,0,.35,1.27,1.58,1.58,0,0,0,1.2.38h.32a.35.35,0,0,1,.35.34v2.92a.35.35,0,0,1-.35.35h-1.36a4.51,4.51,0,0,1-3.26-1.1,4.26,4.26,0,0,1-1.14-3.24V40.74a.35.35,0,0,0-.35-.35h-2a.34.34,0,0,1-.34-.34V37.48a.35.35,0,0,1,.34-.35h2a.35.35,0,0,0,.35-.34V31.62a.34.34,0,0,1,.34-.34h3.2a.35.35,0,0,1,.35.34v5.17a.34.34,0,0,0,.35.34h2.31a.35.35,0,0,1,.35.35v2.57a.35.35,0,0,1-.35.34Zm14.65,7a4.57,4.57,0,0,0,0-6,4.17,4.17,0,0,0-5.73,0,4.6,4.6,0,0,0,0,6,4.17,4.17,0,0,0,5.73,0m-7.39,3.89a6.57,6.57,0,0,1-2.55-2.67,8.86,8.86,0,0,1-.93-4.2,8.84,8.84,0,0,1,.93-4.19,6.66,6.66,0,0,1,2.55-2.68,7.08,7.08,0,0,1,3.55-.91,6.1,6.1,0,0,1,2.93.66,5,5,0,0,1,1.94,1.87h.07V37.48a.35.35,0,0,1,.34-.35h3.17a.35.35,0,0,1,.35.35V51.41a.35.35,0,0,1-.35.34H124a.34.34,0,0,1-.34-.34V49.7h-.07a5,5,0,0,1-1.94,1.86,6,6,0,0,1-2.93.67,7.09,7.09,0,0,1-3.55-.92m25.53-3.89a4.6,4.6,0,0,0,0-6,4.17,4.17,0,0,0-5.73,0,4.6,4.6,0,0,0,0,6,4.17,4.17,0,0,0,5.73,0m-4.81,4.14a5,5,0,0,1-1.95-1.86h-.06v1.71a.35.35,0,0,1-.35.34h-3.2a.35.35,0,0,1-.35-.34V29.94a.35.35,0,0,1,.35-.34h3.2a.35.35,0,0,1,.35.34v9.25h.06a5.07,5.07,0,0,1,1.95-1.87,6.07,6.07,0,0,1,2.93-.66,7.07,7.07,0,0,1,3.54.91,6.54,6.54,0,0,1,2.55,2.68,8.84,8.84,0,0,1,.93,4.19,8.86,8.86,0,0,1-.93,4.2,6.45,6.45,0,0,1-2.55,2.67,7.08,7.08,0,0,1-3.54.92,6,6,0,0,1-2.93-.67m15.35.2H148a.35.35,0,0,1-.34-.35V29.94a.34.34,0,0,1,.34-.34h3.21a.34.34,0,0,1,.34.34V51.41a.35.35,0,0,1-.34.35m7.55-11.24a3.05,3.05,0,0,0-1.08,1.79.34.34,0,0,0,.34.42h6.09a.34.34,0,0,0,.34-.39,2.81,2.81,0,0,0-.95-1.77,3.45,3.45,0,0,0-2.35-.78,3.72,3.72,0,0,0-2.39.73m7.8-1.82a8.27,8.27,0,0,1,1.87,5.77v.42a.35.35,0,0,1-.35.34H157.93a.35.35,0,0,0-.34.41,3.54,3.54,0,0,0,1.23,2.21,4.29,4.29,0,0,0,2.83.93,5.91,5.91,0,0,0,4.08-1.72.35.35,0,0,1,.52.06l1.56,2.23a.35.35,0,0,1-.06.46,11.3,11.3,0,0,1-2.52,1.68,8.17,8.17,0,0,1-3.58.74,8.48,8.48,0,0,1-4.15-1,6.79,6.79,0,0,1-2.75-2.72,8.23,8.23,0,0,1-1-4.07,8.53,8.53,0,0,1,.95-4.08,6.78,6.78,0,0,1,2.66-2.75,7.82,7.82,0,0,1,4-1,6.74,6.74,0,0,1,5.22,2M87.9,32a2.37,2.37,0,1,1-2.37-2.36A2.37,2.37,0,0,1,87.9,32"/><path class="cls-3" d="M29.77,23.36,14.55,29.65a1,1,0,0,0,0,1.89L29.85,37.6a5.6,5.6,0,0,0,4.18,0l15.29-6.06a1,1,0,0,0,0-1.89L34.11,23.36a5.63,5.63,0,0,0-4.34,0"/><path class="cls-4" d="M33.3,40.91V56.05a1,1,0,0,0,1.39,1l17-6.61a1,1,0,0,0,.65-1V34.3a1,1,0,0,0-1.4-.94L33.94,40a1,1,0,0,0-.64.94"/><path class="cls-5" d="M29.32,41.7l-5.05,2.44-.52.24L13.08,49.5a1.09,1.09,0,0,1-1.54-.92V34.37a1,1,0,0,1,.33-.69,1.57,1.57,0,0,1,.26-.19,1.11,1.11,0,0,1,.93-.07l16.18,6.41a1,1,0,0,1,.08,1.87"/><path d="M29.32,41.7l-5.05,2.44L11.87,33.68a1.57,1.57,0,0,1,.26-.19,1.11,1.11,0,0,1,.93-.07l16.18,6.41a1,1,0,0,1,.08,1.87"/></svg>