<svg id="Layer_1" data-name="Layer 1" xmlns="http://www.w3.org/2000/svg" viewBox="0 0 180 80"><defs><style>.cls-1{fill:none;}.cls-2{fill:#0061ff;}</style></defs><rect class="cls-1" width="180" height="80"/><rect class="cls-1" width="180" height="80"/><rect id="bounding_box" data-name="bounding box" class="cls-1" x="136.54" y="25.81" width="105.99" height="105.99"/><path class="cls-2" d="M24.36,29.5l-9.92,6.33,9.92,6.33L14.44,48.5,4.52,42.11l9.92-6.33L4.52,29.5l9.92-6.33Zm-10,21,9.92-6.33,9.93,6.33L24.3,56.83Zm10-8.39,9.92-6.33L24.36,29.5l9.87-6.33,9.92,6.33-9.92,6.33,9.92,6.33L34.23,48.5Z"/><path d="M51.9,29.5h8c5.12,0,9.34,3,9.34,9.71v1.42c0,6.81-4,9.87-9.18,9.87H51.9Zm4.49,3.8V46.65h3.43c2.9,0,4.85-1.9,4.85-6.12V39.42c0-4.22-2.06-6.12-5-6.12Zm15.25.21h3.59l.58,4c.68-2.69,2.42-4.12,5.59-4.12h1.11v4.54H80.66c-3.64,0-4.54,1.27-4.54,4.85v7.81H71.69v-17ZM83.4,42.37V41.9c0-5.7,3.65-8.81,8.61-8.81s8.6,3.11,8.6,8.81v.47C100.61,48,97.18,51,92,51,86.52,50.92,83.4,48,83.4,42.37Zm12.67,0V41.9c0-3.17-1.58-5.07-4.12-5.07s-4.11,1.75-4.11,5.07v.42c0,3.06,1.58,4.8,4.11,4.8S96.07,45.38,96.07,42.32Zm6.86-8.81h3.69l.42,3.22a5.73,5.73,0,0,1,5.6-3.64c4.32,0,7.17,3.11,7.17,8.86v.48c0,5.59-3.16,8.55-7.17,8.55a5.58,5.58,0,0,1-5.44-3.17v8.6h-4.32l.05-22.9Zm12.4,8.81V42c0-3.37-1.74-5.06-4.06-5.06-2.48,0-4.12,1.9-4.12,5.06v.32c0,3,1.58,4.91,4.06,4.91S115.33,45.49,115.33,42.32Zm11,5.07L126,50.5h-3.8V27.81h4.32v8.71a5.57,5.57,0,0,1,5.55-3.43c4.06,0,7.07,2.85,7.07,8.49v.53c0,5.65-2.85,8.87-7.18,8.87A5.65,5.65,0,0,1,126.36,47.39Zm8.23-5.28v-.42c0-3.11-1.69-4.86-4.06-4.86s-4.12,2-4.12,4.91v.37c0,3.17,1.64,5,4.06,5C133.06,47.12,134.59,45.49,134.59,42.11Zm6.44.26V41.9c0-5.7,3.64-8.81,8.6-8.81s8.6,3.11,8.6,8.81v.47c0,5.6-3.48,8.61-8.6,8.61C144.14,50.92,141,48,141,42.37Zm12.71,0V41.9c0-3.17-1.58-5.07-4.11-5.07s-4.12,1.75-4.12,5.07v.42c0,3.06,1.58,4.8,4.12,4.8S153.74,45.38,153.74,42.32ZM164,41.69l-6-8.18h5.12l3.43,5.12,3.48-5.12h5.07l-6.07,8.13,6.38,8.86h-5l-3.9-5.65-3.8,5.65h-5.23Z"/></svg>