<?xml version="1.0" encoding="UTF-8"?><svg id="Layer_1" xmlns="http://www.w3.org/2000/svg" viewBox="0 0 180 80"><defs><style>.cls-1{fill:none;}.cls-2{fill:#2a55dd;}</style></defs><rect class="cls-1" width="180" height="80"/><path class="cls-2" d="m52.04,33.04l-5.56,15.2h3.47l1.18-3.33h5.84s1.19,3.33,1.19,3.33h3.48l-5.56-15.2h-4.03Zm.07,9.1l1.93-5.45v.02s.09.23.09.23l1.86,5.21h-3.87Z"/><path class="cls-2" d="m73.51,33.04h-3.09v15.2h3.09v-15.2Z"/><path class="cls-2" d="m20.04,28L2.37,45.67l6.28,6.28.05.05c2.76-3.2,6.83-5.22,11.38-5.22,2.56,0,4.97.64,7.08,1.77.47.25.92.53,1.36.82.22.15.43.3.64.46.84.64,1.61,1.36,2.3,2.16l6.28-6.28-2.2-2.2-15.51-15.51Zm.02,7.24c.98,0,1.78.8,1.78,1.78s-.8,1.78-1.78,1.78-1.78-.8-1.78-1.78.8-1.78,1.78-1.78Zm11.43,14.74c-.47-.45-.96-.87-1.47-1.26-.23-.17-.47-.34-.7-.51-.48-.32-.98-.63-1.49-.9-2.37-1.27-5.04-1.94-7.75-1.94-2.11,0-4.18.41-6.09,1.17,3.82-2.78,8.52-4.43,13.6-4.43,1.76,0,3.48.2,5.12.57l1.83,1.83,1.21,1.21-4.26,4.26h0Z"/><path class="cls-2" d="m175.26,33.04c-1.31,0-2.37,1.06-2.37,2.37s1.06,2.37,2.37,2.37,2.37-1.06,2.37-2.37-1.06-2.37-2.37-2.37Zm0,4.37c-1.11,0-2-.9-2-2s.9-2,2-2c1.1,0,2,.9,2,2,0,1.11-.9,2-2,2Z"/><path class="cls-2" d="m149.19,33.04h-3.09v15.2h3.09v-15.2Z"/><path class="cls-2" d="m164.82,33.04h-5.81v15.2h3.09v-4.56h2.72c2.94,0,5.33-2.35,5.33-5.24v-.15c0-2.9-2.38-5.24-5.33-5.24Zm2.24,5.39c0,1.22-1,2.2-2.24,2.2h-2.72v-4.56h2.72c1.24,0,2.24.99,2.24,2.2v.15h0Z"/><path class="cls-2" d="m89.37,33.04h-5.64l-.17,15.2h3.09v-4.56h2.28l2.22,4.65,3.53.02-2.65-5.4c.31-.18.63-.4.68-.44,1.27-1,1.99-2.49,1.99-4.08v-.15c0-2.9-2.39-5.25-5.33-5.25h0Zm2.24,5.39c0,1.22-1,2.2-2.24,2.2h-2.72v-4.56h2.72c1.24,0,2.24.99,2.24,2.2v.15h0Z"/><path class="cls-2" d="m176.02,34.99c0-.23-.09-.62-.7-.62h-.78v2.08h.34v-.83h.35l.49.83h.39l-.54-.88c.26-.06.45-.3.45-.58Zm-.73.32h-.4v-.65h.4c.25,0,.38.11.38.32s-.12.32-.38.32h0Z"/><path class="cls-2" d="m108.65,36c.2-.12.43-.21.69-.25.25-.04.5-.07.74-.07.47,0,.97.12,1.48.36.49.23.89.53,1.2.91l2.23-2.35c-.65-.58-1.41-1.03-2.26-1.33-.88-.31-1.74-.46-2.58-.46-.7,0-1.4.09-2.08.26-.68.18-1.31.45-1.85.83-.54.38-.99.86-1.32,1.44-.33.58-.5,1.29-.5,2.11,0,.67.11,1.24.32,1.7.22.46.5.86.86,1.19.35.33.76.6,1.21.81.46.21.93.4,1.4.55.51.16.94.3,1.33.43.39.14.72.29.99.45.27.16.47.35.62.56.15.21.22.46.22.75s-.06.57-.18.79c-.12.22-.28.4-.47.53-.2.13-.43.23-.69.28-.26.06-.52.09-.79.09-.6,0-1.21-.16-1.82-.46-.58-.3-1.06-.66-1.43-1.1l-2.29,2.33c.65.66,1.47,1.19,2.44,1.55.99.37,2.04.56,3.1.56.73,0,1.44-.1,2.13-.3.68-.19,1.3-.5,1.83-.9.53-.4.96-.92,1.27-1.54.31-.62.47-1.36.47-2.21,0-.73-.15-1.36-.44-1.85-.29-.49-.67-.91-1.11-1.25-.45-.34-.95-.61-1.49-.81-.55-.2-1.08-.39-1.59-.56-.34-.11-.66-.22-.96-.33-.28-.11-.53-.23-.74-.35-.21-.13-.37-.29-.49-.46-.11-.18-.17-.4-.17-.67,0-.31.07-.57.21-.76.14-.2.31-.36.51-.48h0Z"/><path class="cls-2" d="m133.59,39.23h-5.57v-6.19h-3.09v15.2h3.09v-5.97h5.57v5.97h3.09v-15.2h-3.09v6.19Z"/></svg>