<svg id="Layer_1" data-name="Layer 1" xmlns="http://www.w3.org/2000/svg" viewBox="0 0 180 80"><defs><style>.cls-1{fill:none;}</style></defs><rect class="cls-1" width="180" height="80"/><polygon points="88.05 17.64 88.05 45.93 64.62 45.93 88.05 17.64"/><path d="M88.05,7.48a11.72,11.72,0,1,1-23.43,0Z"/><path d="M91.91,45.93a11.72,11.72,0,0,1,23.44,0Z"/><polygon points="91.91 35.77 91.91 7.48 115.35 7.48 91.91 35.77"/><path d="M105,70.13a4.56,4.56,0,0,0,3.25-1.25l1.61,1.74a6.34,6.34,0,0,1-4.83,1.9c-3.93,0-6.47-2.6-6.47-6.13a6,6,0,0,1,5.9-6.14h.21c3.9,0,6.12,3,5.92,7.09h-9.22a3.33,3.33,0,0,0,3.63,2.8m2.81-4.76a3,3,0,0,0-3.11-2.78,3.17,3.17,0,0,0-3.33,2.78Z"/><polygon points="44.48 70 51.58 62.79 44.65 62.79 44.65 60.53 54.87 60.53 54.87 62.84 47.77 70.05 54.96 70.05 54.96 72.31 44.48 72.31 44.48 70"/><path d="M62.93,70.13a4.58,4.58,0,0,0,3.25-1.25l1.61,1.74A6.36,6.36,0,0,1,63,72.52c-3.93,0-6.47-2.6-6.47-6.13a6,6,0,0,1,5.9-6.14h.21c3.9,0,6.11,3,5.92,7.09H59.3a3.33,3.33,0,0,0,3.63,2.8m2.81-4.76a3,3,0,0,0-3.11-2.78,3.16,3.16,0,0,0-3.33,2.78Z"/><path d="M83.84,66.39a5.9,5.9,0,0,1,5.92-6.13A5.09,5.09,0,0,1,93.68,62v-7h2.51v17.2H93.68V70.65a5,5,0,0,1-4,1.86,5.93,5.93,0,0,1-5.89-6.12m10,0a3.74,3.74,0,1,0-3.73,3.84,3.72,3.72,0,0,0,3.73-3.84"/><path d="M112.24,69.78l2.28-1.18a3.36,3.36,0,0,0,3,1.72c1.42,0,2.16-.73,2.16-1.55s-1.37-1.16-2.87-1.47c-2-.42-4.09-1.08-4.09-3.51,0-1.86,1.77-3.58,4.57-3.55a5.43,5.43,0,0,1,4.76,2.28L120,63.68a3,3,0,0,0-2.65-1.35c-1.34,0-2,.66-2,1.42s1.09,1.08,2.79,1.46c1.94.42,4.14,1.06,4.14,3.51,0,1.62-1.42,3.81-4.78,3.79a5.55,5.55,0,0,1-5.18-2.73"/><polygon points="129.02 67.05 127.03 69.21 127.03 72.28 124.52 72.28 124.52 55.08 127.03 55.08 127.03 66.34 132.35 60.49 135.4 60.49 130.79 65.54 135.52 72.28 132.68 72.28 129.02 67.05"/><path d="M76.26,60.26c-3,0-5.47,1.93-5.47,5.13v6.88h2.55V65.71a2.8,2.8,0,0,1,3-3.09c1.9,0,2.84,1.16,2.84,3.09v6.56h2.54V65.39c0-3.2-2.51-5.13-5.48-5.13"/></svg>