<?xml version="1.0" encoding="UTF-8"?><svg id="Layer_1" xmlns="http://www.w3.org/2000/svg" viewBox="0 0 180 80"><defs><style>.cls-1{fill:none;}.cls-1,.cls-2{stroke-width:0px;}.cls-2{fill:#0c0c0c;}</style></defs><rect class="cls-1" width="180" height="80"/><path class="cls-2" d="m87.3,12.79c1.62-1.15,3.79-1.15,5.41,0,3.29,2.27,7.31,3.82,11.33,3.82s8.1-1.58,11.31-3.82h0c1.74-1.24,4.11-1.14,5.73.25,2.11,1.74,4.75,3.07,7.4,3.68,2.51.58,4.08,3.1,3.49,5.61s-3.1,4.08-5.61,3.49c-3.58-.83-6.56-2.41-8.51-3.65-4.24,2.28-8.99,3.79-13.81,3.79s-8.86-1.45-11.75-2.76c-.85-.39-1.62-.77-2.28-1.13-.66.35-1.42.75-2.28,1.13-2.89,1.32-7.09,2.76-11.75,2.76s-9.58-1.51-13.81-3.77c-1.96,1.23-4.93,2.82-8.51,3.65-2.51.58-5.03-.98-5.61-3.49s.98-5.03,3.49-5.61c2.63-.63,5.29-1.96,7.38-3.7,1.62-1.39,3.99-1.48,5.73-.25h0c3.25,2.24,7.4,3.82,11.33,3.82s8.04-1.55,11.33-3.82Zm5.41,42.1c3.29,2.27,7.31,3.82,11.33,3.82s8.1-1.58,11.31-3.82h0c1.74-1.24,4.11-1.14,5.73.25,2.11,1.74,4.75,3.07,7.4,3.68,2.51.58,4.08,3.1,3.49,5.61s-3.1,4.08-5.61,3.49c-3.58-.83-6.56-2.41-8.51-3.65-4.24,2.28-8.99,3.79-13.81,3.79s-8.86-1.45-11.75-2.76c-.85-.39-1.62-.77-2.28-1.13-.66.35-1.42.75-2.28,1.13-2.89,1.32-7.09,2.76-11.75,2.76s-9.58-1.51-13.81-3.77c-1.96,1.23-4.93,2.82-8.51,3.65-2.51.58-5.03-.98-5.61-3.49s.98-5.03,3.49-5.61c2.65-.61,5.29-1.94,7.4-3.68,1.62-1.37,3.99-1.48,5.73-.25h0c3.23,2.22,7.38,3.8,11.31,3.8s8.04-1.55,11.33-3.82c1.62-1.15,3.79-1.15,5.41,0Zm0-21.05c3.29,2.27,7.31,3.82,11.33,3.82s8.1-1.58,11.31-3.82h0c1.74-1.24,4.11-1.14,5.73.25,2.11,1.74,4.75,3.07,7.4,3.68,2.51.58,4.08,3.1,3.49,5.61s-3.1,4.08-5.61,3.49c-3.58-.83-6.56-2.41-8.51-3.65-4.24,2.28-8.99,3.79-13.81,3.79s-8.86-1.45-11.75-2.76c-.85-.39-1.62-.77-2.28-1.13-.66.35-1.42.75-2.28,1.13-2.89,1.32-7.09,2.76-11.75,2.76s-9.58-1.51-13.81-3.77c-1.96,1.23-4.93,2.82-8.51,3.65-2.51.58-5.03-.98-5.61-3.49s.98-5.03,3.49-5.61c2.65-.61,5.29-1.94,7.4-3.68,1.62-1.39,3.99-1.48,5.73-.25h0c3.23,2.22,7.38,3.8,11.31,3.8s8.04-1.55,11.33-3.82c1.62-1.15,3.79-1.15,5.41,0Z"/></svg>