<?xml version="1.0" encoding="UTF-8"?><svg id="Layer_1" xmlns="http://www.w3.org/2000/svg" viewBox="0 0 180 80"><defs><style>.cls-1{fill:none;}.cls-2{fill:#0037ff;}.cls-3{fill:#0cf;}.cls-4{fill:#fc7f10;}.cls-5{fill:#861dff;}.cls-6{fill:#3be081;}</style></defs><rect class="cls-1" width="180" height="80"/><path class="cls-6" d="m22.74,41.87v4.59c7.06,0,12.79-5.73,12.79-12.81h-4.57c-.03,4.54-3.68,8.2-8.22,8.22Z"/><path class="cls-2" d="m22.74,54.5c-4.51,0-8.15-3.66-8.15-8.15s3.63-8.17,8.15-8.17h0v-4.54c-7.03-.03-12.71,5.65-12.74,12.68,0,7.03,5.68,12.71,12.68,12.74h.05v-4.57Z"/><path class="cls-3" d="m22.74,54.5v4.57c7.03,0,12.71-5.68,12.71-12.71h-4.57c0,4.49-3.66,8.15-8.15,8.15Z"/><path class="cls-5" d="m22.74,29.08v4.57c7.03,0,12.71-5.68,12.71-12.71h-4.57c0,4.49-3.66,8.15-8.15,8.15Z"/><path class="cls-4" d="m35.53,29.08v4.57c7.03,0,12.71-5.68,12.71-12.71h-4.57c0,4.49-3.66,8.15-8.15,8.15Z"/><path d="m69.46,39.95h2.33l.54,1.25c.29-.26.62-.49.96-.7.36-.18.75-.34,1.14-.47.49-.16.99-.23,1.5-.21.78,0,1.56.16,2.26.47.73.31,1.35.78,1.89,1.35.54.6.99,1.3,1.3,2.05.65,1.66.65,3.53,0,5.19-.31.75-.75,1.45-1.3,2.05-.54.57-1.17,1.04-1.89,1.35-.7.31-1.48.49-2.26.49-.47,0-.93-.05-1.4-.18-.36-.1-.7-.26-1.04-.42-.31-.18-.62-.39-.88-.62v5.53h-3.16v-17.12h0Zm6.07,9.81c.86.03,1.69-.31,2.26-.93.62-.62.91-1.45.91-2.52.05-.93-.29-1.84-.91-2.52-1.25-1.25-3.27-1.25-4.51,0h0c-.6.62-.91,1.48-.91,2.52s.31,1.89.91,2.52c.6.62,1.43.96,2.26.93h0Z"/><path d="m89.48,52.79c-.6,0-1.17-.1-1.74-.31-.52-.21-.99-.52-1.35-.93-.39-.42-.67-.91-.88-1.43-.23-.6-.34-1.25-.31-1.87v-5.4h-1.95v-2.62h.83c1.01,0,1.53-.52,1.53-1.53v-1.79h2.75v3.04h2.75v2.91h-2.75v5.27c-.08.91.62,1.71,1.53,1.79h.62c.08,0,.18-.03.26-.05s.16-.05.23-.08v2.75c-.13.05-.29.1-.44.13-.36.1-.73.16-1.09.13Z"/><path d="m95.42,38.44c-1.01.03-1.87-.78-1.89-1.79s.78-1.87,1.79-1.89,1.87.78,1.89,1.79c0,.49-.18.99-.54,1.35-.31.34-.78.54-1.25.54Zm-1.66,1.5h3.16v12.71h-3.16v-12.71Z"/><path d="m99.96,39.95h2.33l.54,1.25c.26-.26.54-.49.86-.7.31-.18.62-.34.93-.47.39-.16.83-.23,1.25-.21.57-.03,1.12.08,1.66.26.39.16.78.34,1.14.57.31.23.6.49.8.83.31-.31.65-.6,1.01-.83.39-.23.78-.42,1.19-.57.49-.18,1.01-.26,1.53-.26,1.37,0,2.49.44,3.32,1.32.83.88,1.25,2.18,1.25,3.92v7.6h-3.19v-7.32c.03-.67-.18-1.32-.62-1.82-.7-.8-1.89-.88-2.7-.21h0c-.08.05-.13.13-.21.21-.44.49-.65,1.14-.62,1.82v7.32h-3.14v-7.32c.03-.67-.18-1.32-.62-1.82-.7-.8-1.89-.88-2.7-.21h0c-.08.05-.13.13-.21.21-.44.49-.65,1.14-.62,1.82v7.32h-3.16v-12.71h-.03Z"/><path d="m122.35,38.44c-1.01.03-1.87-.78-1.89-1.79s.78-1.87,1.79-1.89,1.87.78,1.89,1.79c.03.52-.18.99-.54,1.35-.31.34-.78.54-1.25.54Zm-1.66,1.5h3.19v12.71h-3.19v-12.71Z"/><path d="m126.21,50.04l5.53-7.03h-5.53v-3.06h9.52v2.62l-5.53,7.06h5.78v3.04h-9.81v-2.62h.03Z"/><path d="m144.03,52.79c-.83,0-1.69-.18-2.44-.52s-1.43-.8-2.02-1.4-1.06-1.3-1.37-2.05c-.67-1.61-.67-3.45,0-5.06.34-.75.8-1.45,1.37-2.05.57-.6,1.27-1.06,2.02-1.4,1.53-.67,3.24-.67,4.8-.05.73.31,1.37.75,1.95,1.32.57.6,1.01,1.3,1.32,2.05.34.83.49,1.74.49,2.65,0,.16,0,.29-.03.42s-.05.29-.05.42-.03.29-.05.42h-8.85c.13.62.47,1.17.93,1.58.54.44,1.25.67,1.97.62.36,0,.73-.03,1.06-.13.26-.08.49-.18.73-.34.21-.13.39-.31.54-.49h3.32c-.18.52-.44.99-.75,1.43-.34.49-.78.93-1.25,1.3-.49.39-1.06.7-1.66.93-.7.26-1.37.39-2.05.36Zm3.04-7.44c-.31-1.69-1.92-2.78-3.61-2.46-1.25.23-2.23,1.22-2.46,2.46h6.07Z"/><path d="m152.44,35.25h3.16v17.41h-3.16v-17.41Z"/><path d="m160.45,57.22c-.16,0-.29,0-.44-.03-.1,0-.23-.03-.34-.05s-.23-.05-.34-.08v-2.62c.57.03,1.14-.13,1.61-.47.39-.31.67-.73.88-1.19l.29-.7-4.82-12.14h3.32l3.16,8.27,2.91-8.27h3.32c-.91,2.31-1.71,4.41-2.46,6.3-.31.8-.62,1.61-.93,2.36s-.57,1.48-.8,2.1-.44,1.17-.6,1.58-.26.67-.31.75c-.26.65-.57,1.3-.93,1.92-.26.47-.6.91-.99,1.27-.31.31-.7.57-1.14.73-.44.18-.91.26-1.37.26Z"/><path d="m57.7,33.64c-5.29,0-9.57,4.28-9.57,9.57s4.28,9.57,9.57,9.57,9.57-4.28,9.57-9.57h0c0-5.29-4.28-9.57-9.57-9.57h0Zm0,15.82c-3.45.05-6.28-2.72-6.33-6.17s2.72-6.28,6.17-6.33,6.28,2.72,6.33,6.17v.1c0,3.42-2.75,6.2-6.17,6.23h0Z"/></svg>