<?xml version="1.0" encoding="UTF-8"?><svg id="Layer_1" xmlns="http://www.w3.org/2000/svg" viewBox="0 0 180 80"><defs><style>.cls-1{fill:none;}.cls-2{fill:#00b6ef;fill-rule:evenodd;}</style></defs><rect class="cls-1" width="180" height="80"/><rect class="cls-1" width="180" height="80"/><path class="cls-2" d="M25.62,24.2h-5.37c-.12,0-.24,0-.36,.12-.24,.12-.36,.36-.36,.6v29.57h-2.27V24.92c0-.36-.24-.72-.6-.72h-3.58c-.36,0-.6,.36-.6,.72v30.17c0,.36,.24,.6,.6,.72,.36,0,.72-.24,.72-.6V25.51h2.27v29.57c0,.36,.24,.6,.6,.6h3.58c.36,0,.6-.24,.6-.6V25.99c0-.24,.24-.48,.48-.48h4.29c5.6,0,10.02,4.53,10.02,10.25s-4.41,10.25-10.02,10.25h-1.19v-1.91h.6c4.53,0,8.23-3.7,8.35-8.11,.12-4.65-3.82-8.47-8.47-8.47h-1.19c-.36,0-.6,.24-.6,.6v3.22c0,.24,.12,.48,.36,.6,.12,.12,.24,.12,.36,.12h.6c1.91,0,3.46,1.43,3.58,3.34,.12,1.91-1.43,3.46-3.34,3.58h-.95c-.36,0-.6,.24-.72,.6,0,.36,.24,.72,.6,.72h.83c2.62,0,4.77-2.03,4.77-4.53,.12-2.62-2.03-4.77-4.65-4.89h-.24v-2.15h.48c3.93,0,7.27,3.22,7.15,7.15,0,3.82-3.22,6.92-7.03,6.92h-1.19c-.36,0-.6,.24-.6,.6v3.22c0,.36,.24,.6,.6,.6h1.91c6.32,0,11.33-5.01,11.33-11.45s-5.01-11.57-11.33-11.57Zm42.33,12.64h2.27c.12,0,.24,.12,.24,.12l2.03,7.03h0l2.15-7.03c0-.12,.12-.12,.24-.12h2.38c.12,0,.24,.12,.24,.12l2.15,7.03h0l2.15-7.03c0-.12,.12-.12,.24-.12h2.15c.12,0,.24,.12,.24,.36l-3.22,9.18c-.12,.36-.48,.6-.72,.6h-1.43c-.36,0-.72-.24-.83-.6l-2.15-6.56h0l-2.15,6.56c-.12,.36-.48,.6-.83,.6h-1.43c-.36,0-.6-.24-.72-.6l-3.22-9.18c-.12-.24,0-.36,.24-.36q-.12,0,0,0h0Zm-13.23-3.34c-.48-.36-.95-.72-1.55-.95-.6-.24-1.31-.36-1.91-.36h-5.01c-.24,0-.36,.24-.36,.36h0v13.95c0,.12,.12,.36,.36,.36h2.03c.12,0,.36-.12,.36-.36v-5.37h2.86c.72,0,1.31-.12,1.91-.36s1.07-.6,1.55-.95c.36-.36,.72-.83,.95-1.43s.36-1.19,.36-1.79-.12-1.19-.36-1.79c-.48-.36-.83-.83-1.19-1.31h0Zm-2.03,5.01c-.48,.36-1.07,.6-1.79,.6h-2.5v-4.17c0-.24,.24-.48,.48-.48h2.03c.72,0,1.43,.24,1.79,.6,.48,.36,.72,.95,.72,1.67s-.24,1.31-.72,1.79Zm12.64-.48c-.48-.48-1.07-.83-1.67-1.07-.72-.24-1.43-.36-2.15-.36s-1.43,.12-2.15,.36c-.6,.24-1.19,.6-1.67,1.07-.48,.48-.83,1.07-1.07,1.67-.24,.72-.36,1.43-.36,2.15s.12,1.43,.36,2.15c.24,.6,.6,1.19,1.07,1.67s1.07,.83,1.67,1.07c.6,.24,1.31,.36,2.15,.36s1.43-.12,2.15-.36c.6-.24,1.19-.6,1.67-1.07s.83-1.07,1.07-1.67c.24-.72,.36-1.43,.36-2.15s-.12-1.55-.36-2.15c-.12-.6-.6-1.19-1.07-1.67Zm-1.19,5.13c-.12,.36-.36,.72-.6,.95-.24,.24-.6,.48-.95,.6-.72,.24-1.43,.24-2.15,0-.36-.12-.6-.36-.95-.6-.24-.24-.48-.6-.6-.95-.12-.48-.24-.83-.24-1.31s.12-.95,.24-1.31c.12-.36,.36-.72,.6-.95s.6-.48,.95-.6c.72-.24,1.43-.24,2.15,0,.36,.12,.6,.36,.95,.6,.24,.24,.48,.6,.6,.95s.24,.83,.24,1.31-.12,.95-.24,1.31Zm25.99-6.56c-.6,0-1.31,.12-1.91,.36s-1.07,.6-1.55,1.07c-.48,.48-.83,.95-1.07,1.67-.24,.72-.48,1.43-.36,2.15,0,.83,.12,1.55,.48,2.27s.72,1.19,1.19,1.67,1.07,.83,1.67,1.07c.6,.24,1.31,.36,2.03,.36,.6,0,1.19-.12,1.67-.24s.95-.36,1.31-.72c.6-.48,1.19-1.07,1.43-1.91v-.12l-.12-.12-1.67-.48q-.12,0-.24,.12c-.12,.36-.48,.72-.72,.95-.36,.36-.95,.48-1.67,.48-.36,0-.72-.12-1.07-.24s-.6-.24-.83-.48c-.24-.24-.48-.48-.6-.83-.12-.24-.24-.48-.24-.83q0-.12,.12-.24t.24-.12h7.15v-.72c0-1.55-.48-2.86-1.31-3.82-1.19-.83-2.38-1.31-3.93-1.31h0Zm2.38,4.17s-.12,.12-.24,.12h-4.17c-.12,0-.24,0-.36-.12s-.12-.24-.12-.36c.12-.48,.36-.83,.6-1.19,.24-.24,.48-.36,.72-.48,.36-.12,.6-.24,1.07-.24,.36,0,.83,.12,1.07,.24,.36,.12,.6,.24,.72,.48,.24,.24,.36,.48,.48,.72,.12,.12,.12,.36,.12,.48,.24,.12,.24,.24,.12,.36h0Zm34.22,2.98l-1.07-.36c-.24-.12-.6,0-.72,.36-.12,.24-.36,.48-.48,.6-.24,.24-.48,.36-.72,.48-.36,.12-.72,.12-.95,.12-.36,0-.72-.12-1.07-.24s-.6-.36-.95-.6c-.24-.24-.48-.6-.6-.95s-.24-.83-.24-1.31,.12-.95,.24-1.31,.36-.72,.6-.95,.6-.48,.95-.6,.72-.24,1.07-.24c.72,0,1.31,.24,1.67,.6,.24,.24,.36,.36,.48,.6s.48,.36,.72,.24l1.07-.36c.36-.12,.48-.48,.36-.72v-.12c-.12-.12-.12-.24-.24-.48-.24-.36-.6-.72-.95-1.07-.48-.36-.95-.6-1.43-.72-.6-.24-1.19-.36-1.91-.24-.72,0-1.43,.12-2.15,.36-.6,.24-1.19,.6-1.67,1.07s-.83,1.07-1.07,1.67c-.24,.72-.36,1.43-.36,2.15,0,1.43,.6,2.74,1.55,3.82,.48,.48,1.07,.83,1.67,1.07,.6,.24,1.31,.36,2.15,.36,.72,0,1.31-.12,1.79-.24s.95-.48,1.43-.72c.48-.36,.95-.95,1.19-1.43,.12-.24,0-.6-.36-.83h0Zm10.61-5.96c-.36-.36-.72-.6-1.19-.83s-1.07-.36-1.67-.36c-.48,0-.95,.12-1.43,.24-.48,.12-.95,.48-1.19,.83l-.24,.36v-5.72c0-.12-.12-.24-.24-.24h-1.91c-.12,0-.24,.12-.24,.24v14.31c0,.12,.12,.24,.24,.24h1.91c.12,0,.24-.12,.24-.24v-5.6c0-.6,.24-1.19,.6-1.55,.36-.48,.83-.6,1.55-.6s1.31,.24,1.55,.6c.36,.48,.48,.95,.48,1.55v5.6c0,.12,.12,.24,.24,.24h1.91c.12,0,.24-.12,.24-.24h0v-6.08c0-.6-.12-1.07-.24-1.55,0-.48-.24-.83-.6-1.19h0Zm12.16,.24c-.48-.48-1.07-.83-1.67-1.07-.72-.24-1.43-.36-2.15-.36s-1.43,.12-2.15,.36c-.6,.24-1.19,.6-1.67,1.07s-.83,1.07-1.07,1.67c-.24,.72-.36,1.43-.36,2.15s.12,1.43,.36,2.15c.24,.6,.6,1.19,1.07,1.67s1.07,.83,1.67,1.07c.72,.24,1.43,.36,2.15,.36s1.43-.12,2.15-.36c.6-.24,1.19-.6,1.67-1.07s.83-1.07,1.07-1.67c.24-.72,.36-1.43,.36-2.15s-.12-1.43-.36-2.15c-.24-.6-.6-1.19-1.07-1.67Zm-1.31,5.13c-.12,.36-.36,.72-.6,.95-.24,.24-.6,.48-.95,.6-.72,.24-1.43,.24-2.15,0-.36-.12-.6-.36-.95-.6-.24-.24-.48-.6-.6-.95-.12-.48-.24-.83-.24-1.31s.12-.95,.24-1.31,.36-.72,.6-.95,.6-.48,.95-.6c.72-.24,1.43-.24,2.15,0,.36,.12,.6,.36,.95,.6,.24,.24,.48,.6,.6,.95s.24,.83,.24,1.31,0,.95-.24,1.31Zm13.47-5.13c-.48-.48-1.07-.83-1.67-1.07-.72-.24-1.43-.36-2.15-.36s-1.43,.12-2.15,.36c-.6,.24-1.19,.6-1.67,1.07s-.83,1.07-1.07,1.67c-.24,.72-.36,1.43-.36,2.15s.12,1.43,.36,2.15c.24,.6,.6,1.19,1.07,1.67s1.07,.83,1.67,1.07c.6,.24,1.31,.36,2.15,.36s1.43-.12,2.15-.36c.6-.24,1.19-.6,1.67-1.07s.83-1.07,1.07-1.67c.24-.72,.36-1.43,.36-2.15s-.12-1.55-.36-2.15c-.24-.6-.6-1.19-1.07-1.67Zm-1.19,5.13c-.12,.36-.36,.72-.6,.95-.24,.24-.6,.48-.95,.6-.72,.24-1.43,.24-2.15,0-.36-.12-.6-.36-.95-.6-.24-.24-.48-.6-.6-.95-.12-.48-.24-.83-.24-1.31s.12-.95,.24-1.31,.36-.72,.6-.95,.6-.48,.95-.6c.72-.24,1.43-.24,2.15,0,.36,.12,.6,.36,.95,.6,.24,.24,.48,.6,.6,.95s.24,.83,.24,1.31-.12,.95-.24,1.31Zm6.68-11.09h-1.91c-.24,0-.36,.12-.36,.36v14.31c0,.12,.12,.36,.36,.36h1.91c.24,0,.36-.12,.36-.36v-14.31c0-.24-.12-.36-.36-.36Zm-63.31,4.77c-1.55,0-2.5,.24-3.34,1.55l-.36,.72v-1.91c0-.12-.12-.12-.12-.12h-2.15c-.12,0-.12,.12-.12,.12v9.54c0,.12,.12,.24,.24,.24h2.15c.12,0,.24-.12,.24-.24v-3.93c0-2.38,1.91-3.46,3.82-3.46v-2.38l-.36-.12h0Zm12.04,4.77c-.12-.48-.36-.83-.72-1.19-.36-.36-.72-.72-1.19-.95s-1.07-.48-1.67-.6l-2.03-.36c-.6-.12-1.07-.36-1.31-.72s-.48-.72-.48-1.19c0-.24,.12-.6,.24-.83s.24-.48,.48-.6c.24-.24,.48-.36,.83-.48,.36-.12,.6-.12,.95-.12,.48,0,.95,.12,1.31,.24,.36,.12,.6,.36,.83,.6,.24,.24,.36,.48,.48,.72,.12,.24,.36,.36,.6,.36l1.07-.36c.12,0,.24-.12,.36-.24,.12-.12,.12-.24,0-.36s-.12-.36-.24-.48c-.24-.48-.48-.83-.95-1.19-.36-.36-.83-.6-1.43-.83-.48-.36-1.19-.48-2.03-.48-.6,0-1.31,.12-1.91,.36-.6,.24-1.07,.48-1.55,.95-.48,.36-.83,.83-1.07,1.31-.24,.48-.36,1.07-.36,1.67,0,1.07,.36,1.91,.95,2.62,.6,.72,1.55,1.19,2.62,1.31l2.03,.36c.6,.12,1.07,.36,1.43,.72,.36,.36,.48,.72,.48,1.19,0,.6-.24,1.07-.72,1.43-.48,.36-1.07,.6-1.91,.6-.6,0-1.07-.12-1.43-.24-.36-.12-.72-.36-1.07-.6-.36-.36-.6-.83-.83-1.31-.12-.24-.24-.36-.48-.36h-.12l-1.19,.36c-.24,.12-.48,.36-.36,.6h0c.12,.24,.12,.48,.24,.83,.24,.48,.6,.95,1.07,1.43,.48,.48,1.07,.83,1.67,1.07,.72,.24,1.43,.36,2.38,.36,.83,0,1.55-.12,2.15-.36,.6-.24,1.19-.6,1.55-.95s.72-.83,.95-1.31c.24-.48,.36-1.07,.36-1.55,.36-.6,.24-1.07,0-1.43h0Z"/></svg>