<svg id="Layer_1" data-name="Layer 1" xmlns="http://www.w3.org/2000/svg" viewBox="0 0 180 80"><defs><style>.cls-1{fill:none;}</style></defs><rect class="cls-1" width="180" height="80"/><rect class="cls-1" width="180" height="80"/><path d="M20.61,60.33a7.3,7.3,0,1,1-7.3-7.3,7.29,7.29,0,0,1,7.3,7.3"/><path d="M45,60.46a5.22,5.22,0,1,1-5.22-5.21A5.23,5.23,0,0,1,45,60.46"/><path d="M63.87,60.46a2.35,2.35,0,1,1-2.34-2.35,2.34,2.34,0,0,1,2.34,2.35"/><path d="M38.33,45a2.2,2.2,0,0,1-2.22-2.21V33.09c0-3.25-1.56-5.86-5.08-5.86a5.65,5.65,0,0,0-5.73,5.86v9.52a2.12,2.12,0,0,1-2.22,2.21,2.19,2.19,0,0,1-2.21-2.21V33c0-3.25-1.7-5.86-5.21-5.86S10.18,29.84,10.18,33v9.52A2.12,2.12,0,0,1,8,44.69a2.19,2.19,0,0,1-2.22-2.21V25.67A2.23,2.23,0,0,1,8,23.32a2.09,2.09,0,0,1,2.21,2.35v1.56a7.64,7.64,0,0,1,6.78-4,7.85,7.85,0,0,1,7.3,4.3,8.94,8.94,0,0,1,8-4.3c5.73,0,8.6,4,8.6,9.64v9.91A2.44,2.44,0,0,1,38.33,45"/><path d="M46.93,45a2.19,2.19,0,0,1-2.21-2.21V25.67a2.12,2.12,0,0,1,2.21-2.22,2.2,2.2,0,0,1,2.22,2.22V42.74A2.2,2.2,0,0,1,46.93,45Zm0-30.1a2.61,2.61,0,1,1-2.61,2.61,2.62,2.62,0,0,1,2.61-2.61Z"/><path d="M61.79,31.14l5.73-7A2.09,2.09,0,0,1,69,23.45a1.94,1.94,0,0,1,1.57,3.26l-6.26,7.43,6.39,7.55A1.7,1.7,0,0,1,71.17,43a2,2,0,0,1-2,2,1.85,1.85,0,0,1-1.56-.78L61.92,37l-5.74,7.17a1.85,1.85,0,0,1-1.56.78,2,2,0,0,1-2-2,1.68,1.68,0,0,1,.53-1.31l6.38-7.55-6.25-7.43a1.94,1.94,0,0,1,1.56-3.26,1.86,1.86,0,0,1,1.43.65l5.48,7"/><path d="M85.37,27C81.46,27,79,30.36,79,34.27s2.6,7.29,6.38,7.29,6.39-2.86,6.39-7.29S89.28,27,85.37,27Zm.92,18.24A8.26,8.26,0,0,1,79,41V51.73a2.12,2.12,0,0,1-2.22,2.21,2.19,2.19,0,0,1-2.21-2.21V25.67a2,2,0,0,1,2.08-2.22,2.23,2.23,0,0,1,2.22,2.35v1.69a8.64,8.64,0,0,1,7.43-4.17c5.47,0,9.9,4.56,9.9,11s-4.43,10.94-9.9,10.94Z"/><path d="M109,27.1c-3.78,0-6.51,3.26-6.51,7.17,0,4.17,2.21,7.16,6.51,7.16,3.91,0,6.52-3.38,6.52-7.16C115.35,29.71,112.74,27.1,109,27.1Zm11,15.64A2.12,2.12,0,0,1,117.69,45a2.19,2.19,0,0,1-2.21-2.21V41.69a8.42,8.42,0,0,1-6.91,3.52c-6.65,0-10.56-5-10.56-10.94a10.64,10.64,0,0,1,11.08-11c6.91,0,11,4.56,11,11v8.47Z"/><path d="M133.33,23.19a9.87,9.87,0,0,1,10,10v9.52a2.22,2.22,0,0,1-4.43,0v-10a5.47,5.47,0,0,0-10.94,0v10a2.22,2.22,0,0,1-4.43,0V33.22a9.58,9.58,0,0,1,9.77-10"/><path d="M156.79,26.84a6.06,6.06,0,0,0-6,5.34h11.73C162.13,29.18,160,26.84,156.79,26.84Zm9.9,7.43A1.47,1.47,0,0,1,165,35.83H150.79a6,6,0,0,0,6.39,5.73,7.36,7.36,0,0,0,5.47-2.34,2.26,2.26,0,0,1,1.43-.78,1.78,1.78,0,0,1,1.83,1.82,2.31,2.31,0,0,1-.52,1.3,11.54,11.54,0,0,1-8.47,3.52c-7.17,0-10.82-4.95-10.82-10.94a10.55,10.55,0,0,1,10.69-10.95c6,0,9.9,4.95,9.9,11.08Z"/><path d="M172,45a2.19,2.19,0,0,1-2.21-2.21V14.59A2.12,2.12,0,0,1,172,12.37a2.2,2.2,0,0,1,2.22,2.22V42.74A2.19,2.19,0,0,1,172,45"/></svg>