<?xml version="1.0" encoding="UTF-8"?><svg id="Layer_1" xmlns="http://www.w3.org/2000/svg" viewBox="0 0 180 80"><defs><style>.cls-1{fill:none;}.cls-2{fill:#25d366;fill-rule:evenodd;}</style></defs><rect class="cls-1" width="180" height="80"/><rect class="cls-1" width="180" height="80"/><path class="cls-2" d="M112.73,17.14c-6.03-6.04-14.05-9.36-22.59-9.37-17.6,0-31.93,14.33-31.94,31.93,0,5.63,1.47,11.12,4.26,15.97l-4.53,16.55,16.93-4.44c4.66,2.55,9.92,3.89,15.26,3.89h.01c17.6,0,31.93-14.33,31.94-31.94,0-8.53-3.32-16.56-9.35-22.59h0Zm-22.59,49.14h-.01c-4.76,0-9.43-1.28-13.51-3.7l-.97-.58-10.05,2.64,2.68-9.8-.63-1c-2.66-4.23-4.06-9.11-4.06-14.13,0-14.64,11.91-26.54,26.56-26.54,7.09,0,13.75,2.77,18.77,7.79,5.01,5.02,7.77,11.69,7.77,18.78,0,14.64-11.91,26.54-26.54,26.54h0Zm14.56-19.88c-.8-.4-4.72-2.33-5.45-2.6-.73-.27-1.26-.4-1.79,.4-.53,.8-2.06,2.6-2.53,3.13-.47,.53-.93,.6-1.73,.2-.8-.4-3.37-1.24-6.42-3.96-2.37-2.12-3.97-4.73-4.44-5.53-.47-.8-.05-1.23,.35-1.63,.36-.36,.8-.93,1.2-1.4,.4-.47,.53-.8,.8-1.33,.27-.53,.13-1-.07-1.4-.2-.4-1.79-4.33-2.46-5.92-.65-1.56-1.31-1.34-1.79-1.37-.47-.02-1-.03-1.53-.03s-1.4,.2-2.13,1c-.73,.8-2.79,2.73-2.79,6.66s2.86,7.72,3.26,8.26c.4,.53,5.63,8.59,13.63,12.05,1.9,.82,3.39,1.31,4.55,1.68,1.91,.61,3.65,.52,5.03,.32,1.53-.23,4.72-1.93,5.39-3.79,.66-1.86,.66-3.46,.47-3.79s-.73-.53-1.53-.93h0Z"/></svg>