<svg id="Layer_1" data-name="Layer 1" xmlns="http://www.w3.org/2000/svg" viewBox="0 0 180 80"><defs><style>.cls-1{fill:none;}.cls-2{fill-rule:evenodd;}</style></defs><rect class="cls-1" width="180" height="80"/><rect class="cls-1" width="180" height="80"/><path class="cls-2" d="M114.7,7.18H65.3a8.21,8.21,0,0,0-8.23,8.2V64.62a8.21,8.21,0,0,0,8.23,8.2h49.4a8.21,8.21,0,0,0,8.23-8.2V15.38A8.21,8.21,0,0,0,114.7,7.18Zm-15.92,12a2.2,2.2,0,0,1,4.39,0V48.45a2.2,2.2,0,0,1-4.39,0Zm-11-1.1a2.2,2.2,0,0,1,4.4,0V49.83a2.2,2.2,0,0,1-4.4,0Zm-11,1.1a2.2,2.2,0,0,1,4.39,0V48.45a2.2,2.2,0,0,1-4.39,0Zm-11,4.38a2.2,2.2,0,0,1,4.39,0V43.27a2.2,2.2,0,0,1-4.39,0ZM113.38,57c-.33.3-8.47,7.1-23.38,7.1S67,57.26,66.62,57a2.19,2.19,0,1,1,2.85-3.32c.12.11,7.39,6,20.53,6,13.3,0,20.45-6,20.52-6a2.21,2.21,0,0,1,3.1.24A2.18,2.18,0,0,1,113.38,57Zm.77-13.69a2.2,2.2,0,0,1-4.39,0V23.59a2.2,2.2,0,0,1,4.39,0Z"/></svg>