<svg id="Layer_1" data-name="Layer 1" xmlns="http://www.w3.org/2000/svg" viewBox="0 0 180 80"><defs><style>.cls-1{fill:none;}.cls-2,.cls-4{fill-rule:evenodd;}.cls-3{fill:#2ca01c;}.cls-4{fill:#fff;}</style></defs><rect class="cls-1" width="180" height="80"/><rect class="cls-1" width="180" height="80"/><g id="Page-1"><g id="Logotype"><g id="qb-logo"><g id="Group"><path id="Shape" class="cls-2" d="M162.12,47.28c0-.29-.26-.4-.51-.4h-.49v1.38h.25v-.58h.18l.32.58h.3l-.37-.6a.39.39,0,0,0,.32-.38Zm-.75.2v-.39h.22c.13,0,.28,0,.28.19s-.16.2-.3.2Zm.23-1.13a1.23,1.23,0,0,0-1.23,1.23,1.23,1.23,0,1,0,1.23-1.23Zm0,2.26a1,1,0,1,1,1-1,1,1,0,0,1-1,1Zm-79-2c-1.8,0-2.71-1.61-2.71-3.17a2.72,2.72,0,0,1,4.73-2.17l1.9-1.9a5.71,5.71,0,1,0-3.95,9.76,5.41,5.41,0,0,0,4-1.43l-1.85-2a2.89,2.89,0,0,1-2.12.9ZM71.93,48.78h2.95V38.07H71.93V48.78Zm-5.37-4.84a2.46,2.46,0,0,1-2.35,2.62c-1.17,0-1.8-.84-1.8-2.57V38.07H59.46v6.65c0,2.21,1.1,4.36,4,4.36a4.23,4.23,0,0,0,3.14-1.9h0v1.6h2.82V38.07h-3v5.87ZM54.13,39.43h-.06a4.58,4.58,0,0,0-3.38-1.66,5.34,5.34,0,0,0-5.33,5.61c0,3.31,2.14,5.7,5.19,5.7A4.75,4.75,0,0,0,54,47.49H54v6.57H57v-16H54.13v1.36Zm-2.86,7.13a3,3,0,0,1-2.87-3.18,2.93,2.93,0,0,1,2.87-3.13,3,3,0,0,1,2.84,3.18,3,3,0,0,1-2.84,3.13Zm67.23-8.79a5.52,5.52,0,0,0-5.8,5.61,5.8,5.8,0,0,0,11.6,0,5.52,5.52,0,0,0-5.8-5.61Zm0,8.79a2.9,2.9,0,0,1-2.8-3.18,2.82,2.82,0,1,1,5.6,0,2.89,2.89,0,0,1-2.8,3.18Zm36.9-4.37c-1.52-.36-2.05-.56-2.05-1.18,0-.85,1.07-1,1.56-1a3.3,3.3,0,0,1,2.34,1.07L159,39.37a5.25,5.25,0,0,0-4.06-1.6c-2.14,0-4.38,1.08-4.38,3.48,0,2.07,1.62,2.69,3.2,3.07S156,45,156,45.66c0,1-1.12,1.16-1.51,1.16a3.84,3.84,0,0,1-2.69-1.27L150,47.37a6,6,0,0,0,4.37,1.74c2.89,0,4.6-1.38,4.6-3.65s-2.1-2.91-3.59-3.27Zm-5.58-4.12H146l-3.81,4.45h-.07V32.17h-2.95V48.78h2.95V43.5h.07l3.95,5.28H150l-4.59-5.85,4.37-4.86Zm-43.77-.3a4.62,4.62,0,0,0-3.28,1.47h-.06V32.17H99.76V48.78h2.83V47.27h0A4,4,0,0,0,106,49.08a5.38,5.38,0,0,0,5.36-5.7,5.32,5.32,0,0,0-5.3-5.61Zm-.58,8.79a3,3,0,0,1-2.84-3.13,3,3,0,0,1,2.84-3.18,2.93,2.93,0,0,1,2.86,3.13,3,3,0,0,1-2.86,3.18Zm-6.82-8.49h-3.8L91,42.52H91V32.17H88V48.78h3V43.5H91l4,5.28h3.88l-4.59-5.85,4.37-4.86Zm32.82-.3a5.52,5.52,0,0,0-5.8,5.61,5.8,5.8,0,0,0,11.6,0,5.52,5.52,0,0,0-5.8-5.61Zm0,8.79a2.9,2.9,0,0,1-2.8-3.18,2.82,2.82,0,1,1,5.6,0,2.89,2.89,0,0,1-2.8,3.18Z"/><ellipse id="Oval" class="cls-3" cx="29.61" cy="38.4" rx="12.43" ry="12.46"/><path id="Shape-2" data-name="Shape" class="cls-4" d="M20.62,38.4a4.85,4.85,0,0,0,4.84,4.85h.69v-1.8h-.69a3,3,0,0,1,0-6.09h1.66v9.41a1.8,1.8,0,0,0,1.8,1.8v-13H25.46a4.84,4.84,0,0,0-4.84,4.84Zm13.13-4.84h-.69v1.8h.69a3,3,0,0,1,0,6.09H32.09V32a1.79,1.79,0,0,0-1.79-1.8v13h3.45a4.85,4.85,0,0,0,0-9.69Z"/><path id="Shape-3" data-name="Shape" class="cls-2" d="M57.53,28.78a.82.82,0,1,0-.82-.82.82.82,0,0,0,.82.82Zm-4.9.56a1.84,1.84,0,0,0-1.69,1h0V29.5H49.63v5.44H51V32a1.33,1.33,0,0,1,1.26-1.48c.88,0,1,.81,1,1.45v3h1.35v-3.4a2,2,0,0,0-2-2.2Zm-5.76,5.6h1.36V29.49H46.87v5.45ZM71.6,28.78a.82.82,0,1,0-.82-.82.82.82,0,0,0,.82.82Zm-2.21.71V30.7h1.53v4.24h1.36V30.7H73.8V29.49Zm-2.31,5.45h1.36V29.49H67.08v5.45ZM55.33,30.7h1.52v4.24h1.36V30.7h1.53V29.49H55.33V30.7Zm9,1.79A1.34,1.34,0,0,1,63.06,34c-.87,0-1-.81-1-1.46v-3H60.68v3.4a2,2,0,0,0,2,2.2,1.85,1.85,0,0,0,1.69-1h0v.87h1.29V29.49H64.33v3Z"/></g></g></g></g></svg>