<svg id="Layer_1" data-name="Layer 1" xmlns="http://www.w3.org/2000/svg" viewBox="0 0 180 80"><defs><style>.cls-1{fill:none;}.cls-2{fill:#95bf47;}.cls-3{fill:#5e8e3e;}.cls-4{fill:#fff;}</style></defs><rect class="cls-1" width="180" height="80"/><rect class="cls-1" width="180" height="80"/><path class="cls-2" d="M46.72,26.49a.38.38,0,0,0-.37-.33L43.2,26.1s-2.52-2.43-2.76-2.7a1,1,0,0,0-.91-.12l-1.28.39a8.7,8.7,0,0,0-.61-1.49,4.27,4.27,0,0,0-3.79-2.61h0a1.23,1.23,0,0,0-.33,0c-.06-.06-.09-.12-.16-.15a3.34,3.34,0,0,0-2.64-1.06c-2,.06-4.06,1.55-5.73,4.16a16.93,16.93,0,0,0-2.31,5.95c-2.34.73-4,1.24-4,1.24-1.18.37-1.21.4-1.36,1.52-.06.85-3.16,24.8-3.16,24.8l26,4.49,11.26-2.79S46.75,26.71,46.72,26.49ZM37,24.1q-.91.27-2,.63a11.37,11.37,0,0,0-.6-3.7C35.88,21.27,36.64,23,37,24.1Zm-3.37,1-4.34,1.33a10.42,10.42,0,0,1,2.18-4.24,4.5,4.5,0,0,1,1.46-1.07A8.91,8.91,0,0,1,33.58,25.13Zm-2.8-5.37a2,2,0,0,1,1.22.33,5.43,5.43,0,0,0-1.58,1.24A11.89,11.89,0,0,0,27.72,27l-3.55,1.09C24.9,24.76,27.66,19.85,30.78,19.76Z"/><path class="cls-3" d="M46.35,26.16,43.2,26.1s-2.52-2.43-2.76-2.7a.5.5,0,0,0-.34-.15v37.3l11.26-2.79s-4.58-31-4.61-31.27A.44.44,0,0,0,46.35,26.16Z"/><path class="cls-4" d="M33.85,32l-1.3,4.88a7.37,7.37,0,0,0-3.19-.54c-2.55.15-2.55,1.76-2.55,2.15.15,2.19,5.89,2.67,6.22,7.8.24,4-2.12,6.8-5.58,7A8.5,8.5,0,0,1,21,51.05l.88-3.73s2.31,1.73,4.13,1.6a1.61,1.61,0,0,0,1.58-1.73c-.18-2.85-4.86-2.67-5.16-7.37-.24-4,2.34-7.92,8-8.29A6.81,6.81,0,0,1,33.85,32Z"/><path id="s" d="M66.6,42.37c-1.31-.7-2-1.31-2-2.13,0-1,.94-1.7,2.39-1.7a8.68,8.68,0,0,1,3.22.7l1.19-3.64s-1.1-.85-4.31-.85c-4.5,0-7.62,2.58-7.62,6.19,0,2.07,1.45,3.61,3.4,4.74,1.57.88,2.12,1.51,2.12,2.46s-.79,1.76-2.25,1.76a10,10,0,0,1-4.21-1.13l-1.28,3.64a9.59,9.59,0,0,0,5.07,1.28c4.61,0,7.95-2.28,7.95-6.37C70.27,45.1,68.6,43.52,66.6,42.37Z"/><path id="h" d="M85,34.69a6.92,6.92,0,0,0-5.43,2.73l-.06,0,2-10.32H76.34l-5,26.29h5.13l1.7-9c.67-3.4,2.43-5.49,4.07-5.49,1.15,0,1.61.79,1.61,1.91a11.73,11.73,0,0,1-.21,2.28L81.68,53.36h5.13l2-10.63a20.51,20.51,0,0,0,.36-3.37C89.21,36.45,87.69,34.69,85,34.69Z"/><path id="o" d="M100.84,34.69c-6.2,0-10.29,5.58-10.29,11.81,0,4,2.45,7.19,7.07,7.19,6.07,0,10.17-5.43,10.17-11.81C107.82,38.21,105.66,34.69,100.84,34.69ZM98.32,49.77c-1.76,0-2.49-1.48-2.49-3.37,0-2.94,1.51-7.73,4.31-7.73,1.82,0,2.43,1.57,2.43,3.09C102.57,44.92,101,49.77,98.32,49.77Z"/><path id="p" d="M121,34.69a7,7,0,0,0-5.43,3.06h-.07l.31-2.76h-4.55c-.22,1.85-.64,4.71-1,6.83L106.6,60.64h5.13L113.16,53h.12a6,6,0,0,0,3,.67c6,0,10-6.19,10-12.44C126.27,37.79,124.72,34.69,121,34.69ZM116,49.83a3.25,3.25,0,0,1-2.12-.75l.85-4.8c.6-3.22,2.27-5.34,4.06-5.34,1.58,0,2.07,1.46,2.07,2.82C120.9,45.1,118.92,49.83,116,49.83Z"/><path id="dot" d="M133.61,27.31a2.94,2.94,0,0,0-2.94,3,2.38,2.38,0,0,0,2.43,2.58h.06a2.89,2.89,0,0,0,3-3A2.45,2.45,0,0,0,133.61,27.31Z"/><polygon id="i" points="126.42 53.33 131.55 53.33 135.04 35.11 129.88 35.11 126.42 53.33"/><path id="f" d="M148.12,35.08h-3.58l.18-.85c.31-1.76,1.34-3.3,3.07-3.3a5.25,5.25,0,0,1,1.64.27l1-4a6.66,6.66,0,0,0-2.79-.45,7.69,7.69,0,0,0-5,1.7,9.6,9.6,0,0,0-3,5.82l-.15.85h-2.4L136.32,39h2.39L136,53.36h5.13L143.84,39h3.55Z"/><path id="y" d="M160.51,35.11s-3.22,8.11-4.65,12.54h-.06c-.09-1.43-1.27-12.54-1.27-12.54h-5.41l3.1,16.73a1.14,1.14,0,0,1-.12.85,9.08,9.08,0,0,1-2.79,3.09,11.69,11.69,0,0,1-2.92,1.46l1.43,4.37a11.79,11.79,0,0,0,5-2.79c2.33-2.19,4.52-5.59,6.74-10.2l6.28-13.51Z"/></svg>