<svg id="Layer_1" data-name="Layer 1" xmlns="http://www.w3.org/2000/svg" xmlns:xlink="http://www.w3.org/1999/xlink" viewBox="0 0 180 80"><defs><style>.cls-1{fill:none;}.cls-2,.cls-3{fill-rule:evenodd;}.cls-2{fill:url(#radial-gradient);}.cls-3{fill:#273347;}</style><radialGradient id="radial-gradient" cx="-308.13" cy="1291.58" r="0.83" gradientTransform="matrix(-18.78, 11.25, 11.43, 19.07, -20521.25, -21125.09)" gradientUnits="userSpaceOnUse"><stop offset="0" stop-color="#ffb900"/><stop offset="0.75" stop-color="#fa5c86"/><stop offset="1" stop-color="#f95353"/></radialGradient></defs><rect class="cls-1" width="180" height="80"/><rect class="cls-1" width="180" height="80"/><g id="dots-wrapper"><path id="dots" class="cls-2" d="M32.72,31.37A7.68,7.68,0,1,1,25,23.7a7.67,7.67,0,0,1,7.68,7.67ZM15.07,41a7.67,7.67,0,1,0,7.68,7.67A7.67,7.67,0,0,0,15.07,41ZM35,41a7.67,7.67,0,1,0,7.68,7.67A7.66,7.66,0,0,0,35,41Z"/></g><g id="Text"><path id="Fill-1" class="cls-3" d="M69.71,48.54a2.76,2.76,0,0,0,2.59,2.59h.92a.66.66,0,0,0,.65-.65V30.18h0a.66.66,0,0,0-.65-.62H70.36a.66.66,0,0,0-.65.62h0v1.65a9.19,9.19,0,0,0-7.29-3.06,11.41,11.41,0,0,0,0,22.82h0c2.77,0,5.79-1.07,7.29-3.05Zm-7.28-.94a7.42,7.42,0,1,1,7.25-7.42,7.34,7.34,0,0,1-7.25,7.42Z"/><path id="Fill-2" class="cls-3" d="M116.33,48.54a2.76,2.76,0,0,0,2.59,2.59h.92a.66.66,0,0,0,.65-.65V30.18h0a.66.66,0,0,0-.65-.62H117a.66.66,0,0,0-.65.62h0v1.65A9.19,9.19,0,0,0,109,28.77a11.41,11.41,0,0,0,0,22.82h0c2.77,0,5.79-1.07,7.29-3.05Zm-7.28-.94a7.42,7.42,0,1,1,7.25-7.42,7.34,7.34,0,0,1-7.25,7.42Z"/><path id="Fill-3" class="cls-3" d="M168.45,48.54A2.76,2.76,0,0,0,171,51.13H172a.66.66,0,0,0,.65-.65V30.18h0a.66.66,0,0,0-.65-.62H169.1a.66.66,0,0,0-.65.62h0v1.65a9.19,9.19,0,0,0-7.29-3.06,11.41,11.41,0,1,0,0,22.82h0c2.77,0,5.79-1.07,7.29-3.05Zm-7.28-.94a7.42,7.42,0,1,1,7.25-7.42,7.34,7.34,0,0,1-7.25,7.42Z"/><path id="Fill-4" class="cls-3" d="M146.13,49.24V38.74h0c0-5.92-3.74-9.92-9.69-9.92a7.28,7.28,0,0,0-6,3.06,2.39,2.39,0,0,0-2.58-2.27h-.93a.66.66,0,0,0-.65.66V48.59h0v2h0a.65.65,0,0,0,.64.62h2.87l.12,0H130l.06,0,.08,0,0,0,.08-.06h0l.08-.09h0a.62.62,0,0,0,.12-.35h0v-12a5.76,5.76,0,0,1,11.51,0v10h0v2h0a.66.66,0,0,0,.65.62h2.86l.13,0h0l.07,0,.06,0,0,0,.08-.06h0l.07-.09h0a.7.7,0,0,0,.12-.35h0V49.24h0"/><path id="Fill-5" class="cls-3" d="M80.71,45.63a10.5,10.5,0,0,0,6,2c1.91,0,3.88-1,3.88-2.71,0-2.3-4.3-2.66-7-3.58s-5-2.82-5-5.89c0-4.7,4.19-6.65,8.1-6.65a12.18,12.18,0,0,1,6.69,2,.66.66,0,0,1,.23.93L92,34a.62.62,0,0,1-.93.2,7.94,7.94,0,0,0-4.4-1.38c-2.39,0-3.82,1.1-3.82,2.47,0,1.63,1.86,2.15,4,2.71,3.82,1,8,2.26,8,6.94,0,4.14-3.88,6.7-8.16,6.7A13.72,13.72,0,0,1,78.38,49a.71.71,0,0,1-.15-.94l1.58-2.25a.63.63,0,0,1,.9-.15"/></g></svg>