<svg id="Layer_1" data-name="Layer 1" xmlns="http://www.w3.org/2000/svg" xmlns:xlink="http://www.w3.org/1999/xlink" viewBox="0 0 180 80"><defs><style>.cls-1{fill:none;}.cls-2{fill:#253858;}.cls-3{fill:#2684ff;}.cls-4{fill:url(#linear-gradient);}.cls-5{fill:url(#linear-gradient-2);}</style><linearGradient id="linear-gradient" x1="17.13" y1="475.72" x2="12.7" y2="471.29" gradientTransform="matrix(1, 0, 0, -1, 0, 509.33)" gradientUnits="userSpaceOnUse"><stop offset="0.18" stop-color="#0052cc"/><stop offset="1" stop-color="#2684ff"/></linearGradient><linearGradient id="linear-gradient-2" x1="18.3" y1="462.99" x2="22.73" y2="467.41" xlink:href="#linear-gradient"/></defs><rect class="cls-1" width="180" height="80"/><rect class="cls-1" width="180" height="80"/><g id="Layer_2" data-name="Layer 2"><g id="Blue"><path class="cls-2" d="M38.28,31.82h2.24V43.21c0,3-1.32,5.1-4.41,5.1a7.9,7.9,0,0,1-2.69-.43V45.7a6.27,6.27,0,0,0,2.31.43c1.9,0,2.55-1.14,2.55-2.77Z"/><path class="cls-2" d="M44.61,30.94a1.41,1.41,0,0,1,1.5,1.3v.2a1.5,1.5,0,0,1-3,0h0a1.41,1.41,0,0,1,1.3-1.5Zm-1.1,4.79h2.15V48.2H43.51Z"/><path class="cls-2" d="M48.9,35.73H51v2.19a4.12,4.12,0,0,1,4.41-2.37v2.1c-2.74-.29-4.41.55-4.41,3.19V48.2H48.9Z"/><path class="cls-2" d="M65.45,46a4.38,4.38,0,0,1-4.21,2.49c-3.32,0-5-2.81-5-6.48s1.75-6.48,5.24-6.48a4.08,4.08,0,0,1,4,2.44V35.73H67.6V48.19H65.45Zm-3.64.5c1.92,0,3.64-1.22,3.64-4v-1c0-2.77-1.57-4-3.4-4-2.42,0-3.67,1.6-3.67,4.49s1.21,4.5,3.43,4.5Z"/><path class="cls-2" d="M80.29,48.44a11.45,11.45,0,0,1-5.91-1.27V44.88a13.92,13.92,0,0,0,6,1.37c2.47,0,3.4-1,3.4-2.42s-.9-2.22-4-3C76.11,40,74.46,38.69,74.46,36s1.94-4.43,5.76-4.43a9.74,9.74,0,0,1,5,1.19V35a10.19,10.19,0,0,0-5.1-1.24c-2.14,0-3.42.75-3.42,2.24s1.05,2,3.94,2.74c3.47.88,5.41,2,5.41,4.94S84.35,48.44,80.29,48.44Z"/><path class="cls-2" d="M87.94,41.94c0-3.74,2.19-6.46,5.93-6.46s5.89,2.72,5.89,6.46-2.17,6.51-5.89,6.51S87.94,45.68,87.94,41.94Zm2.1,0c0,2.36,1.17,4.51,3.83,4.51s3.79-2.15,3.79-4.51-1.14-4.46-3.79-4.46-3.82,2.09-3.82,4.46Z"/><path class="cls-2" d="M105.22,35.73h3.21v2h-3.21V48.19h-2.1V37.71h-2v-2h2V34.37c0-2.32,1.29-3.89,4-3.89a4.75,4.75,0,0,1,1.45.2v2a6.86,6.86,0,0,0-1.35-.13,1.78,1.78,0,0,0-2,1.9Z"/><path class="cls-2" d="M115.69,46.1a6.26,6.26,0,0,0,1.35-.18V48a5.08,5.08,0,0,1-1.45.2c-2.67,0-4-1.57-4-3.89V37.72h-2v-2h2V33.08h2.09v2.65H117v2h-3.31v6.55A1.75,1.75,0,0,0,115.69,46.1Z"/><path class="cls-2" d="M117.64,35.73H120l3.58,10.57,3.64-10.57h2l3.64,10.57,3.59-10.57h2.37l-4.59,12.46h-2.74l-2.14-6-1.14-3.84-1.13,3.84-2.17,6h-2.75Z"/><path class="cls-2" d="M148.67,46a4.37,4.37,0,0,1-4.21,2.49c-3.31,0-5-2.81-5-6.48s1.74-6.48,5.23-6.48a4.09,4.09,0,0,1,4,2.44V35.73h2.14V48.19h-2.14Zm-3.64.5c1.93,0,3.64-1.22,3.64-4v-1c0-2.77-1.56-4-3.4-4-2.4,0-3.66,1.61-3.66,4.5s1.21,4.49,3.43,4.49Z"/><path class="cls-2" d="M154.06,35.73h2.09v2.19a4.14,4.14,0,0,1,4.42-2.37v2.1c-2.74-.29-4.42.55-4.42,3.19V48.2h-2.09Z"/><path class="cls-2" d="M168.12,48.44c-4.66,0-6.7-2.69-6.7-6.51s2.09-6.46,5.88-6.46,5.38,2.67,5.38,6.46v1h-9.09c.3,2.12,1.67,3.49,4.61,3.49a10.9,10.9,0,0,0,3.79-.68v2A8.92,8.92,0,0,1,168.12,48.44Zm-4.56-7.36h6.95c-.12-2.32-1.17-3.64-3.31-3.64s-3.42,1.46-3.64,3.62Z"/><path class="cls-3" d="M27.83,39.4l-9.24-9.24-.89-.89h0l-7,7h0L7.56,39.4a.85.85,0,0,0,0,1.2L13.92,47l3.78,3.78,7-6.95.11-.11,3.07-3.07A.85.85,0,0,0,27.83,39.4ZM17.7,43.17,14.52,40l3.18-3.17L20.87,40Z"/><path class="cls-4" d="M17.7,36.83a5.35,5.35,0,0,1,0-7.54l-6.94,6.94L14.51,40Z"/><path class="cls-5" d="M20.88,40,17.7,43.17a5.36,5.36,0,0,1,0,7.56h0l7-7Z"/></g></g></svg>