<?xml version="1.0" encoding="UTF-8"?><svg id="Layer_1" xmlns="http://www.w3.org/2000/svg" viewBox="0 0 180 80"><defs><style>.cls-1{fill:none;}.cls-2{fill:#fff;}</style></defs><rect class="cls-1" width="180" height="80"/><path class="cls-2" d="M53.57,39.42c2.02-.06,3.94.87,5.14,2.48v-19.65c0-.26-.22-.47-.48-.47-.1,0-.19.03-.27.09l-24.32,17.77h.65c2.52,0,3.82,1.61,3.82,3.37.05,1.2-.61,2.31-1.69,2.84-.1.04-.15.16-.1.27.02.05.06.08.1.1,1.2.54,1.97,1.74,1.94,3.06,0,2-1.31,3.59-3.86,3.59h-6.94c-.14,0-.26-.12-.26-.26v-8.36l-18.13,13.22c-.18.13-.23.39-.09.57.08.11.21.17.34.17h48.88c.23,0,.41-.18.42-.41v-6.69c-1.39,1.31-3.24,2.02-5.14,1.99-3.9,0-7.09-2.68-7.09-6.85s3.19-6.85,7.09-6.85ZM43.88,52.63c0,.13-.11.24-.24.24h-2.36c-.13,0-.24-.11-.24-.24v-12.76c0-.13.11-.24.24-.24h2.36c.13,0,.24.11.24.24v12.76ZM30.12,44.63v-2.38c0-.07.06-.13.13-.13,0,0,0,0,0,0h3.4c.96,0,1.55.57,1.55,1.39s-.58,1.39-1.55,1.39h-3.27c-.14,0-.26-.11-.26-.25,0,0,0,0,0,0ZM30.12,50.13v-2.49c0-.14.11-.26.25-.26,0,0,0,0,0,0h3.4c1.1,0,1.69.67,1.69,1.51,0,.95-.63,1.51-1.69,1.51h-3.4c-.14,0-.26-.12-.26-.26,0,0,0,0,0,0ZM56.93,43.52l1.78-.97v2.99h-5.55c-.15,0-.28.13-.28.28h0v1.9c0,.15.13.28.28.28h3.01c.12,0,.21.09.21.21v1.28c0,.06-.03.13-.07.17-.78.61-1.74.94-2.73.94-2.43,0-4.18-1.85-4.18-4.35s1.75-4.35,4.18-4.35c1.18.01,2.29.58,3,1.53.08.11.23.14.36.08ZM60.78,46.24c0-4.09,2.94-6.85,6.72-6.85,2.04-.05,3.95,1,5,2.75.07.1.04.24-.07.31,0,0-.01,0-.02,0l-1.51.82c-.1.05-.22.02-.28-.08-.68-1.07-1.85-1.73-3.12-1.75-2.53,0-4.41,1.99-4.41,4.79s1.88,4.79,4.41,4.79c1.27-.03,2.44-.69,3.12-1.75.06-.1.18-.13.28-.08l1.52.79c.11.05.16.18.12.29,0,.02-.02.03-.03.05-.99,1.5-2.55,2.79-5.01,2.79-3.78,0-6.72-2.79-6.72-6.87ZM73.8,46.24c0-3.29,1.88-5.86,4.72-6.62,4.82-1.29,9.25,3.22,8.2,8.25-.56,3.07-3.26,5.28-6.39,5.21-3.84.01-6.54-2.89-6.54-6.85ZM84.6,46.24c0-2.74-1.69-4.79-4.25-4.79s-4.25,2.06-4.25,4.79,1.65,4.79,4.25,4.79,4.25-2.06,4.25-4.79ZM100.67,52.7v-10.06l-4.03,10.15s-.06.07-.1.07h-.84s-.09-.03-.1-.07l-4.05-10.15v10.07c0,.08-.07.15-.16.16h-2.02c-.09,0-.16-.07-.16-.16v-12.93c0-.09.07-.16.16-.16h2.91c.13,0,.24.08.29.2l3.54,9.09,3.52-9.08c.05-.12.16-.2.29-.2h2.91c.09,0,.16.07.16.16v12.93c0,.08-.07.15-.16.16h-2.02c-.09,0-.15-.08-.15-.17h0ZM123.6,52.61v-12.75c0-.13.11-.24.24-.24h8.61c.13,0,.24.11.24.24v1.57c0,.13-.11.24-.24.24h-6.29c-.13,0-.24.11-.24.24v2.94c0,.13.11.24.24.24h6.15c.13,0,.24.11.24.24v1.57c0,.13-.11.24-.24.24h-6.15c-.13,0-.24.11-.24.24v3.21c0,.13.11.24.24.24h6.28c.13,0,.24.11.24.24v1.57c0,.13-.11.24-.24.24h-8.61c-.13,0-.24-.11-.24-.24h0ZM143.51,52.74l-2.78-4.72c-.04-.07-.12-.12-.21-.12h-1.95c-.13,0-.24.11-.24.24v4.5c0,.13-.11.24-.24.24h-1.85c-.13,0-.24-.11-.24-.24v-12.77c0-.13.11-.24.24-.24h5.59c2.63,0,4.36,1.69,4.36,4.15,0,2.18-1.35,3.45-2.83,3.82-.13.03-.21.16-.18.28,0,.03.02.05.03.07l2.86,4.55c.07.11.04.26-.08.33-.04.02-.08.04-.13.04h-2.14c-.09,0-.17-.04-.21-.12h0ZM143.8,43.74c0-1.27-.96-2.09-2.27-2.09h-2.97c-.13,0-.24.11-.24.24v3.74c0,.13.11.24.24.24,0,0,0,0,0,0h2.97c1.31,0,2.26-.83,2.26-2.12h0ZM161.91,52.62v-12.76c0-.13.1-.23.23-.24,0,0,0,0,0,0h8.63c.13,0,.23.1.23.23,0,0,0,0,0,0v1.58c0,.13-.1.23-.23.23h-6.3c-.13,0-.23.1-.24.23v2.95c0,.13.11.23.24.23h6.16c.13,0,.23.1.24.23,0,0,0,0,0,0v1.58c0,.13-.1.23-.23.23,0,0,0,0,0,0h-6.16c-.13,0-.23.1-.24.23v3.23c0,.13.11.23.24.23h6.3c.13,0,.23.1.23.23h0v1.58c0,.13-.1.23-.23.23h-8.63c-.13,0-.23-.1-.23-.23h0s0-.01,0-.01ZM147.89,46.2c0-4.09,2.94-6.85,6.72-6.85,2.04-.05,3.95,1.01,5,2.76.07.1.04.24-.07.3,0,0-.01,0-.02.01l-1.51.82c-.1.05-.22.02-.28-.08-.68-1.07-1.85-1.73-3.12-1.75-2.53,0-4.41,1.98-4.41,4.79s1.88,4.77,4.41,4.77c1.27-.03,2.44-.68,3.12-1.75.06-.09.18-.13.28-.08l1.52.8c.11.05.16.19.11.3,0,.01-.01.03-.02.04-.99,1.5-2.55,2.79-5.01,2.79-3.78-.01-6.71-2.79-6.71-6.86ZM117.85,52.71v-10.07l-4.02,10.15s-.06.07-.1.07h-.84s-.09-.03-.1-.07l-4.05-10.15v10.07c0,.09-.07.16-.16.16h-2.02c-.09,0-.16-.07-.16-.16v-12.93c0-.09.07-.16.16-.16h2.91c.13,0,.24.08.29.2l3.53,9.09,3.54-9.08c.05-.12.17-.19.29-.2h2.92c.09,0,.16.07.16.16,0,0,0,0,0,0v12.93c0,.09-.07.16-.16.16h-2.02c-.09,0-.16-.07-.16-.16,0,0,0,0,0,0h0Z"/></svg>