<svg id="Layer_1" data-name="Layer 1" xmlns="http://www.w3.org/2000/svg" viewBox="0 0 180 80"><defs><style>.cls-1{fill:none;}.cls-2{fill:#aecbfa;}.cls-2,.cls-3,.cls-4{fill-rule:evenodd;}.cls-3{fill:#669df6;}.cls-4{fill:#4285f4;}</style></defs><rect class="cls-1" width="180" height="80"/><rect class="cls-1" width="180" height="80"/><g id="Shape"><path class="cls-2" d="M73.27,36.28v8.35a15.55,15.55,0,0,0,5.43,5.53V36.28Z"/><path class="cls-3" d="M83.3,28.6V52.51a24.43,24.43,0,0,0,3.52.19,28.11,28.11,0,0,0,3.18,0V28.6Z"/><path class="cls-2" d="M95.2,39.55V50a15.85,15.85,0,0,0,5.4-5.78V39.55Z"/><path class="cls-4" d="M108.22,53.71l-4.51,4.51a1.35,1.35,0,0,0,0,1.89l0,0L115,71.36a1.32,1.32,0,0,0,1.87,0l4.54-4.54a1.32,1.32,0,0,0,0-1.87L110.13,53.71a1.35,1.35,0,0,0-1.89,0l0,0"/><path class="cls-3" d="M86.82,8.25A28.58,28.58,0,1,0,115.4,36.82,28.57,28.57,0,0,0,86.82,8.25m0,49.81a21.21,21.21,0,1,1,.07,0h-.07"/></g></svg>