<?xml version="1.0" encoding="UTF-8"?><svg id="Layer_1" xmlns="http://www.w3.org/2000/svg" viewBox="0 0 180 80"><defs><style>.cls-1{fill:none;}.cls-2{fill-rule:evenodd;}.cls-2,.cls-3{fill:#fff;}</style></defs><rect class="cls-1" width="180" height="80"/><path class="cls-2" d="M161.01,40.99c0-10.1-4.89-18.07-14.24-18.07s-15.07,7.97-15.07,17.99c0,11.88,6.71,17.87,16.33,17.87,4.69,0,8.25-1.07,10.93-2.56v-7.89c-2.68,1.34-5.76,2.17-9.67,2.17s-7.22-1.34-7.65-6h19.29c0-.51.08-2.56.08-3.51ZM141.53,37.24c0-4.46,2.72-6.31,5.21-6.31s4.97,1.85,4.97,6.31h-10.18Z"/><path class="cls-2" d="M116.47,22.92c-3.87,0-6.35,1.81-7.73,3.08l-.51-2.45h-8.68v46l9.86-2.09.04-11.17c1.42,1.03,3.51,2.49,6.98,2.49,7.06,0,13.49-5.68,13.49-18.19-.04-11.44-6.55-17.67-13.45-17.67ZM114.11,50.1c-2.33,0-3.71-.83-4.66-1.85l-.04-14.64c1.03-1.14,2.45-1.93,4.69-1.93,3.59,0,6.08,4.02,6.08,9.19s-2.45,9.23-6.08,9.23Z"/><polygon class="cls-2" points="85.98 20.59 95.88 18.46 95.88 10.45 85.98 12.54 85.98 20.59"/><rect class="cls-3" x="85.98" y="23.59" width="9.9" height="34.52"/><path class="cls-2" d="M75.36,26.51l-.63-2.92h-8.52v34.52h9.86v-23.4c2.33-3.04,6.27-2.49,7.5-2.05v-9.07c-1.26-.47-5.88-1.34-8.21,2.92Z"/><path class="cls-2" d="M55.64,15.03l-9.63,2.05-.04,31.6c0,5.84,4.38,10.14,10.22,10.14,3.24,0,5.6-.59,6.9-1.3v-8.01c-1.26.51-7.5,2.33-7.5-3.51v-14.01h7.5v-8.4h-7.5l.04-8.56Z"/><path class="cls-2" d="M28.97,33.61c0-1.54,1.26-2.13,3.35-2.13,3,0,6.79.91,9.78,2.52v-9.27c-3.27-1.3-6.51-1.81-9.78-1.81-8.01,0-13.33,4.18-13.33,11.17,0,10.89,14.99,9.15,14.99,13.85,0,1.81-1.58,2.41-3.79,2.41-3.27,0-7.46-1.34-10.77-3.16v9.39c3.67,1.58,7.38,2.25,10.77,2.25,8.21,0,13.85-4.06,13.85-11.13-.04-11.76-15.07-9.67-15.07-14.08Z"/></svg>