<?xml version="1.0" encoding="UTF-8"?><svg id="Layer_1" xmlns="http://www.w3.org/2000/svg" viewBox="0 0 180 80"><defs><style>.cls-1{fill:none;}.cls-1,.cls-2{stroke-width:0px;}.cls-2{fill:#fff;}</style></defs><rect class="cls-1" width="180" height="80"/><path class="cls-2" d="m26.78,51.92l2.25-5.05c2.8,2.25,7.25,3.85,11.55,3.85,5.45,0,7.75-1.95,7.75-4.55,0-7.55-20.8-2.6-20.8-15.6,0-5.65,4.5-10.45,14.1-10.45,4.2,0,8.6,1.1,11.65,3.1l-2.05,5.05c-3.15-1.85-6.6-2.75-9.65-2.75-5.4,0-7.6,2.1-7.6,4.75,0,7.45,20.75,2.6,20.75,15.45,0,5.6-4.55,10.4-14.15,10.4-5.45,0-10.9-1.7-13.8-4.2Z"/><path class="cls-2" d="m67.68,26.07v10.65h16.9v5.5h-16.9v13.4h-6.5V20.62h25.55v5.45h-19.05Z"/><path class="cls-2" d="m100.38,26.12h-11.6v-5.5h29.7v5.5h-11.6v29.5h-6.5v-29.5Z"/><path class="cls-2" d="m152.68,33.07c0,7.7-5.7,12.45-14.9,12.45h-7.9v10.1h-6.5V20.62h14.4c9.2,0,14.9,4.7,14.9,12.45Zm-6.55,0c0-4.4-2.95-6.95-8.65-6.95h-7.6v13.9h7.6c5.7,0,8.65-2.55,8.65-6.95Z"/></svg>