<svg id="Layer_1" data-name="Layer 1" xmlns="http://www.w3.org/2000/svg" viewBox="0 0 180 80"><defs><style>.cls-1{fill:none;}.cls-2{fill:#2a2941;}.cls-3{fill:#7856ff;}</style></defs><rect class="cls-1" width="180" height="80"/><g id="Logo_Dark_Stack_1" data-name="Logo Dark Stack 1"><path class="cls-2" d="M113.73,36.25c-.83,0-1.46.18-1.46.94v.74c0,.77.63,1,1.46,1s1.46-.19,1.46-1v-.74C115.19,36.43,114.55,36.25,113.73,36.25Z"/><path class="cls-2" d="M114.32,40.38h-1.16a.7.7,0,0,0-.7.7h0v10a.7.7,0,0,0,.7.7h1.16a.7.7,0,0,0,.7-.7v-10a.71.71,0,0,0-.69-.7Z"/><path class="cls-2" d="M80.38,40.27a4.46,4.46,0,0,0-3.76,1.92,3.49,3.49,0,0,0-3.34-1.92,4,4,0,0,0-3.4,1.92V41.08a.7.7,0,0,0-.7-.7H68a.7.7,0,0,0-.7.7v10a.7.7,0,0,0,.7.7h1.16a.69.69,0,0,0,.7-.69h0v-5.7c0-1.71,1-2.77,2.39-2.77s2.26,1,2.26,2.7v5.77a.69.69,0,0,0,.69.7h1.17a.69.69,0,0,0,.69-.7v-5.7c0-1.79,1-2.77,2.39-2.77s2.26.95,2.26,2.72v5.75a.7.7,0,0,0,.7.7h1.16a.7.7,0,0,0,.7-.7h0V44.53C84.29,41.81,82.81,40.27,80.38,40.27Z"/><path class="cls-2" d="M48,39.22a4.91,4.91,0,0,1,3,1,.68.68,0,0,0,.89-.06l.89-.9a.65.65,0,0,0,.2-.51.67.67,0,0,0-.25-.49A7.64,7.64,0,1,0,48,51.9a7.51,7.51,0,0,0,4.76-1.67.67.67,0,0,0,.11-.94l0,0-.9-.9a.65.65,0,0,0-.47-.2.68.68,0,0,0-.41.14,5,5,0,0,1-3,1,5,5,0,0,1,0-10.08Z"/><path class="cls-2" d="M127.11,40.38H126a.7.7,0,0,0-.7.7h0V42.2a4.34,4.34,0,0,0-3.8-1.92c-2.62,0-5.18,2.07-5.18,5.79v0c0,3.7,2.53,5.79,5.18,5.79a4.5,4.5,0,0,0,3.8-1.89l0,0v1a3.62,3.62,0,0,1-3.56,3.68,3.44,3.44,0,0,1-3-1.58.7.7,0,0,0-1-.24h0l-.49.32a.71.71,0,0,0-.24,1,5.5,5.5,0,0,0,4.82,2.61,5.68,5.68,0,0,0,6-5.81V41.08a.69.69,0,0,0-.69-.7ZM125,46.11a3.32,3.32,0,0,1-3.14,3.57c-1.69,0-3-1.37-3-3.57v0c0-2.16,1.34-3.57,3-3.57A3.31,3.31,0,0,1,125,46.07Z"/><path class="cls-2" d="M135.64,40.28a4,4,0,0,0-3.49,1.91V41.08a.69.69,0,0,0-.69-.7h-1.17a.7.7,0,0,0-.69.7v10a.69.69,0,0,0,.69.7h1.16a.72.72,0,0,0,.7-.8V45a2.46,2.46,0,1,1,4.91,0h0v6.11a.69.69,0,0,0,.69.7h1.16a.7.7,0,0,0,.7-.7V44.54C139.61,42,138.16,40.28,135.64,40.28Z"/><path class="cls-2" d="M92.44,40.28a4.35,4.35,0,0,0-3.8,1.91V41.08a.69.69,0,0,0-.7-.69H86.78a.7.7,0,0,0-.7.69h0V55.74a.7.7,0,0,0,.7.69h1.16a.69.69,0,0,0,.7-.69V50a4.52,4.52,0,0,0,3.8,1.92c2.65,0,5.18-2.09,5.18-5.79v0C97.62,42.35,95.07,40.28,92.44,40.28ZM95,46.11a3.32,3.32,0,0,1-3.14,3.57c-1.69,0-3-1.37-3-3.57v0c0-2.16,1.35-3.57,3-3.57A3.31,3.31,0,0,1,95,46.07Z"/><path class="cls-2" d="M65.63,50h0a.48.48,0,0,1-.48-.49V41.08a.7.7,0,0,0-.7-.69H63.28a.7.7,0,0,0-.7.69v1.11a4.32,4.32,0,0,0-3.8-1.91c-2.62,0-5.18,2.07-5.18,5.79v0c0,3.7,2.54,5.8,5.18,5.8A4.25,4.25,0,0,0,62.63,50,2.45,2.45,0,0,0,65,51.77h.65a.49.49,0,0,0,.49-.49h0v-.83a.48.48,0,0,0-.48-.49Zm-3.27-3.85a3.32,3.32,0,0,1-3.14,3.57c-1.69,0-3-1.37-3-3.57v0c0-2.16,1.35-3.57,3-3.57a3.31,3.31,0,0,1,3.14,3.57Z"/><path class="cls-2" d="M110.75,50h0a.49.49,0,0,1-.49-.49V41.08a.7.7,0,0,0-.7-.69h-1.17a.69.69,0,0,0-.69.69v1.11a4.35,4.35,0,0,0-3.81-1.91c-2.62,0-5.17,2.07-5.17,5.79v0c0,3.7,2.53,5.8,5.17,5.8A4.22,4.22,0,0,0,107.74,50a2.45,2.45,0,0,0,2.36,1.78h.65a.49.49,0,0,0,.49-.49v-.83a.49.49,0,0,0-.49-.49Zm-3.28-3.85a3.32,3.32,0,0,1-3.14,3.57c-1.69,0-3-1.37-3-3.57v0c0-2.16,1.35-3.57,3-3.57a3.31,3.31,0,0,1,3.14,3.57Z"/><path class="cls-2" d="M96.33,60.38c-.85,0-1.51.18-1.51,1v.77c0,.79.66,1,1.51,1s1.52-.21,1.52-1v-.78C97.85,60.56,97.19,60.38,96.33,60.38Z"/><path class="cls-2" d="M97,64.68H95.74a.72.72,0,0,0-.72.72h0V75.79a.72.72,0,0,0,.72.73H97a.73.73,0,0,0,.73-.73V65.4a.73.73,0,0,0-.73-.72Z"/><path class="cls-2" d="M89,64.57a4.19,4.19,0,0,0-3.63,2V65.4a.72.72,0,0,0-.72-.72H83.45a.73.73,0,0,0-.73.72V75.79a.73.73,0,0,0,.73.73h1.21a.75.75,0,0,0,.72-.83V69.43a2.56,2.56,0,0,1,5.11,0v6.36a.73.73,0,0,0,.72.73h1.21a.73.73,0,0,0,.73-.73V69C93.15,66.33,91.63,64.57,89,64.57Z"/><path class="cls-2" d="M127.63,64.7l-.07,0-.1,0a3.49,3.49,0,0,0-3.91,1.9V65.41a.73.73,0,0,0-.73-.73h-1.21a.73.73,0,0,0-.73.73V75.8a.73.73,0,0,0,.73.72h1.21a.73.73,0,0,0,.73-.72V71.4c0-3.56,1.85-4.19,2.92-4.11l.55.07h.14a.51.51,0,0,0,.5-.41l.27-1.71v-.08A.53.53,0,0,0,127.63,64.7Z"/><path class="cls-2" d="M75.21,64.57a6,6,0,0,0-6.17,6v.06a6.18,6.18,0,0,0,12.35,0v-.06A6,6,0,0,0,75.21,64.57Zm3.48,6.05v0a3.49,3.49,0,1,1-7,0v-.08a3.49,3.49,0,1,1,7,0Z"/><path class="cls-2" d="M113.33,64.57a6,6,0,0,0-6.18,6v.06a6.18,6.18,0,0,0,12.35,0v-.06A6,6,0,0,0,113.33,64.57Zm3.47,6.05v0a3.48,3.48,0,1,1-7,0v-.08a3.48,3.48,0,1,1,7,0Z"/><path class="cls-2" d="M66.93,60.93H65.72a.72.72,0,0,0-.58.29l-5,6.83-5-6.83a.72.72,0,0,0-.58-.29H53.34a.73.73,0,0,0-.73.72V75.79a.73.73,0,0,0,.73.73h1.21a.73.73,0,0,0,.73-.73V66l4.41,5.66h0l0,0h0a.52.52,0,0,0,.74.05l.05-.05h0l0,0h0L65,66v9.8a.73.73,0,0,0,.73.73h1.21a.72.72,0,0,0,.72-.73V61.65A.72.72,0,0,0,66.93,60.93Z"/><path class="cls-2" d="M105.83,64.68H103.3V61.44h0a.48.48,0,0,0-.09-.29.51.51,0,0,0-.71-.13h0l-1.27.89a1.35,1.35,0,0,0-.59,1.12v1.65h-.85a.73.73,0,0,0-.73.73v.74a.72.72,0,0,0,.73.73h.85v6.39c0,2.55,1.39,3.41,3.35,3.41a7,7,0,0,0,2.1-.4.43.43,0,0,0,.27-.53c0-.15-.21-1.14-.21-1.14,0-.25-.15-.44-.49-.39a5.72,5.72,0,0,1-.92.08,1.26,1.26,0,0,1-1.43-1.45v-6h2.53a.73.73,0,0,0,.72-.73h0V65.4a.72.72,0,0,0-.72-.72Z"/><path class="cls-3" d="M107,3.88a1.29,1.29,0,0,0-1.81-.32h0L73.1,26a1.3,1.3,0,0,0,1.07.56H105.9a1.31,1.31,0,0,0,1.31-1.31V4.61a1.35,1.35,0,0,0-.24-.73"/><path class="cls-3" d="M74.92,3.56a1.29,1.29,0,0,0-1.81.32,1.27,1.27,0,0,0-.24.73V25.29l15.26-12.5Z"/></g></svg>