<?xml version="1.0" encoding="UTF-8"?><svg id="Layer_1" xmlns="http://www.w3.org/2000/svg" viewBox="0 0 180 80"><defs><style>.cls-1{fill:none;}.cls-1,.cls-2,.cls-3{stroke-width:0px;}.cls-2{fill:#f2f2f2;}.cls-3{fill:#ee3d2c;}</style></defs><rect class="cls-1" width="180" height="80"/><g id="Primary_Logo_Lock-up"><path class="cls-2" d="m52.85,49.57v-21.64h-3.33v8.1c0,.12-.07.22-.19.27-.12.05-.24,0-.31-.07-1.13-1.33-2.89-2.07-4.82-2.07-4.12,0-7.35,3.47-7.35,7.9,0,2.17.75,4.17,2.12,5.64s3.23,2.27,5.23,2.27,3.66-.8,4.82-2.17c.07-.1.22-.12.31-.1.12.05.19.14.19.27v1.61h3.33Zm-7.93-2.63c-2.65,0-4.72-2.14-4.72-4.89s2.07-4.89,4.72-4.89,4.72,2.14,4.72,4.89-2.07,4.89-4.72,4.89Z"/><path class="cls-2" d="m70.64,49.57v-15.06h-3.3v1.52c0,.12-.07.22-.19.27-.12.05-.24,0-.31-.1-1.11-1.33-2.84-2.07-4.82-2.07-4.12,0-7.35,3.47-7.35,7.9s3.23,7.9,7.35,7.9c1.9,0,3.66-.8,4.82-2.19.07-.1.22-.12.31-.1.12.05.19.14.19.27v1.64h3.3v.02Zm-7.88-2.63c-2.65,0-4.72-2.14-4.72-4.89s2.07-4.89,4.72-4.89,4.72,2.14,4.72,4.89-2.07,4.89-4.72,4.89Z"/><path class="cls-2" d="m98.9,49.57v-15.06h-3.3v1.52c0,.12-.07.22-.19.27-.12.05-.24,0-.31-.1-1.11-1.33-2.84-2.07-4.82-2.07-4.15,0-7.35,3.47-7.35,7.93s3.23,7.9,7.35,7.9c1.9,0,3.66-.8,4.82-2.19.07-.1.22-.12.31-.1.12.05.19.14.19.27v1.64s3.3,0,3.3,0Zm-7.88-2.63c-2.65,0-4.72-2.14-4.72-4.89s2.07-4.89,4.72-4.89,4.72,2.14,4.72,4.89-2.07,4.89-4.72,4.89Z"/><path class="cls-2" d="m104.95,47.78s.07-.02.1-.02c.07,0,.17.05.22.1,1.13,1.33,2.89,2.07,4.82,2.07,4.12,0,7.35-3.47,7.35-7.9,0-2.17-.75-4.17-2.12-5.64-1.37-1.47-3.23-2.27-5.23-2.27s-3.66.8-4.82,2.17c-.07.1-.19.12-.31.1-.12-.05-.19-.14-.19-.27v-8.19h-3.33v21.64h3.33v-1.52c0-.12.07-.22.19-.27Zm-.34-5.74c0-2.75,2.07-4.89,4.72-4.89s4.72,2.14,4.72,4.89-2.07,4.89-4.72,4.89-4.72-2.17-4.72-4.89Z"/><path class="cls-2" d="m127.05,37.59c.31,0,.6.02.8.07v-3.42c-.12-.02-.34-.05-.55-.05-1.74,0-3.33.89-4.17,2.31-.07.12-.19.17-.31.12-.12-.02-.22-.14-.22-.27v-1.86h-3.3v15.09h3.33v-6.65c0-3.3,1.69-5.35,4.43-5.35Z"/><rect class="cls-2" x="129.95" y="34.51" width="3.37" height="15.09"/><path class="cls-2" d="m131.58,27.95c-1.13,0-2.05.92-2.05,2.05s.92,2.05,2.05,2.05,2.05-.92,2.05-2.05-.92-2.05-2.05-2.05Z"/><path class="cls-2" d="m143.2,34.12c-4.63,0-7.98,3.33-7.98,7.93,0,2.24.8,4.24,2.22,5.69,1.45,1.45,3.47,2.24,5.74,2.24,1.88,0,3.33-.36,6.07-2.39l-1.9-2c-1.35.89-2.6,1.33-3.83,1.33-2.8,0-4.89-2.1-4.89-4.87s2.1-4.87,4.89-4.87c1.33,0,2.55.43,3.78,1.33l2.12-2c-2.48-2.12-4.72-2.39-6.22-2.39Z"/><path class="cls-2" d="m155.11,42.94s.12-.07.19-.07h.02c.07,0,.14.05.22.1l5.33,6.6h4.1l-6.89-8.34c-.1-.12-.1-.29.02-.39l6.34-6.34h-4.07l-5.47,5.49c-.07.07-.19.1-.31.07-.1-.05-.17-.14-.17-.27v-11.86h-3.35v21.64h3.33v-5.88c0-.07.02-.17.1-.22l.63-.55Z"/><path class="cls-2" d="m170.39,49.95c2.72,0,5.49-1.66,5.49-4.82,0-2.07-1.3-3.49-3.95-4.36l-1.81-.6c-1.23-.41-1.81-.99-1.81-1.78,0-.92.82-1.54,1.98-1.54s2.1.72,2.72,1.98l2.68-1.45c-.99-2.02-3.04-3.28-5.4-3.28-2.99,0-5.16,1.93-5.16,4.55,0,2.1,1.25,3.49,3.83,4.31l1.86.6c1.3.41,1.86.94,1.86,1.78,0,1.28-1.18,1.74-2.19,1.74-1.35,0-2.55-.87-3.13-2.29l-2.72,1.45c.89,2.29,3.08,3.71,5.76,3.71Z"/><path class="cls-2" d="m79.89,49.81c1.06,0,2-.1,2.53-.17v-2.89c-.43.05-1.21.1-1.66.1-1.35,0-2.39-.24-2.39-3.16v-6.19c0-.17.12-.29.29-.29h3.25v-2.72h-3.25c-.17,0-.29-.12-.29-.29v-4.34h-3.33v4.36c0,.17-.12.29-.29.29h-2.31v2.72h2.31c.17,0,.29.12.29.29v7.01c0,5.28,3.52,5.28,4.84,5.28Z"/><polygon class="cls-3" points="27.95 37.61 16.72 43.95 4.7 37.18 4.12 37.49 4.12 42.41 16.72 49.5 27.95 43.18 27.95 45.78 16.72 52.12 4.7 45.35 4.12 45.66 4.12 46.51 16.72 53.59 29.3 46.51 29.3 41.59 28.73 41.28 16.72 48.03 5.47 41.71 5.47 39.11 16.72 45.42 29.3 38.34 29.3 33.49 28.68 33.13 16.72 39.86 6.05 33.88 16.72 27.88 25.5 32.82 26.27 32.38 26.27 31.78 16.72 26.41 4.12 33.49 4.12 34.26 16.72 41.35 27.95 35.01 27.95 37.61"/></g></svg>