<?xml version="1.0" encoding="UTF-8"?><svg id="Layer_1" xmlns="http://www.w3.org/2000/svg" xmlns:xlink="http://www.w3.org/1999/xlink" viewBox="0 0 180 80"><defs><style>.cls-1{fill:none;}.cls-2{fill:#fff;}.cls-3{clip-path:url(#clippath);}</style><clipPath id="clippath"><rect class="cls-1" x="54.9" y="4.91" width="70.19" height="70.19"/></clipPath></defs><rect class="cls-1" width="180" height="80"/><g class="cls-3"><path class="cls-2" d="M118.34,59.65c-1.05,2.38-2.34,4.66-3.85,6.78-1.38,2.13-3,4.09-4.83,5.85-1.67,1.65-3.88,2.63-6.22,2.77-2-.09-3.96-.55-5.78-1.38-1.96-.87-4.08-1.35-6.22-1.39-2.21.04-4.39.51-6.42,1.39-1.74.79-3.61,1.28-5.52,1.44-2.43-.06-4.74-1.08-6.42-2.83-1.92-1.83-3.63-3.87-5.09-6.09-2.29-3.28-4.09-6.88-5.34-10.69-1.45-4.07-2.22-8.36-2.26-12.69-.13-4.25.94-8.46,3.08-12.13,1.53-2.65,3.71-4.86,6.34-6.42,2.63-1.56,5.61-2.42,8.67-2.5,2.3.15,4.56.7,6.66,1.64,1.69.76,3.47,1.31,5.29,1.64,1.99-.43,3.94-1.04,5.83-1.82,2.53-1.04,5.25-1.53,7.99-1.44,2.6.08,5.14.74,7.44,1.95,2.3,1.21,4.29,2.93,5.82,5.02-2.43,1.28-4.46,3.22-5.85,5.6-1.39,2.38-2.08,5.09-2.01,7.84,0,2.1.42,4.17,1.25,6.1.83,1.92,2.05,3.66,3.58,5.09,1.43,1.38,3.09,2.49,4.91,3.27-.26,1.12-.62,2.21-1.06,3.27v-.26h0ZM104.77,6.34c-.02,3.64-1.39,7.13-3.83,9.82-3.08,3.59-6.79,5.65-10.87,5.34-.03-.44-.03-.88,0-1.33.11-3.69,1.56-7.22,4.08-9.92,1.38-1.54,3.05-2.8,4.91-3.7,1.75-.92,3.67-1.48,5.65-1.64.03.48.03.96,0,1.44l.07-.02h-.01Z"/></g></svg>