<svg id="Layer_1" data-name="Layer 1" xmlns="http://www.w3.org/2000/svg" viewBox="0 0 180 80"><defs><style>.cls-1{fill:none;}.cls-2{fill:#23a47f;}</style></defs><rect class="cls-1" width="180" height="80"/><rect class="cls-1" width="180" height="80"/><path class="cls-2" d="M22.53,39a5.72,5.72,0,0,1-1.78,4.1c-1.22,1.23-3,1.53-3,2.57,0,1.41,2.26,1,4.43,3.16a7.68,7.68,0,0,1,2.33,5.53,7.87,7.87,0,0,1-15.73,0,7.71,7.71,0,0,1,2.33-5.54c2.17-2.17,4.43-1.75,4.43-3.15,0-1-1.77-1.35-3-2.57a5.76,5.76,0,0,1,4-9.92c.61,0,1.17.09,1.62.09.83,0,1.26-.36,1.26-.94,0-.34-.15-.77-.15-1.23a1.94,1.94,0,0,1,3.88.06,2.06,2.06,0,0,1-1.56,1.9c-.55.18-1,.43-1,1C20.63,35.13,22.53,36.14,22.53,39Zm-.61,15.37a5.27,5.27,0,1,0-5.27,5.47A5.3,5.3,0,0,0,21.92,54.41ZM20.11,39a3.46,3.46,0,1,0-3.46,3.52A3.51,3.51,0,0,0,20.11,39Z"/><path class="cls-2" d="M33.55,33.53a1.67,1.67,0,0,1,1.71,1.66,1.63,1.63,0,0,1-1.68,1.65c-1,0-1.56-.64-2.57-.64a1.73,1.73,0,0,0-1.75,1.89v9.64a1.3,1.3,0,1,1-2.6,0v-13A1.3,1.3,0,0,1,28,33.44c1.31,0,1.07,1.26,2.38,1.26S32.05,33.53,33.55,33.53Z"/><path class="cls-2" d="M36.39,41.25c0-4.62,3.18-8,7.56-8a6.94,6.94,0,0,1,7.19,7,1.47,1.47,0,0,1-1.5,1.59H39.7c-.43,0-.59.15-.59.49a5.39,5.39,0,0,0,1.53,3.09,5.29,5.29,0,0,0,4,1.47A5.73,5.73,0,0,0,48,45.74a1.46,1.46,0,0,1,.89-.33A1.21,1.21,0,0,1,50,46.6a1.19,1.19,0,0,1-.43.95,7.9,7.9,0,0,1-5,1.65A7.82,7.82,0,0,1,36.39,41.25Zm10.83-4.41A4.42,4.42,0,0,0,44,35.55,4.83,4.83,0,0,0,40.52,37a3.78,3.78,0,0,0-1.19,2.24c0,.3.18.42.58.42h8c.36,0,.55-.12.55-.42A3.93,3.93,0,0,0,47.22,36.84Z"/><path class="cls-2" d="M53.77,41.25c0-4.62,3.18-8,7.56-8a6.94,6.94,0,0,1,7.19,7A1.47,1.47,0,0,1,67,41.83H57.08c-.43,0-.58.15-.58.49A5.33,5.33,0,0,0,58,45.41,5.25,5.25,0,0,0,62,46.88a5.73,5.73,0,0,0,3.37-1.14,1.46,1.46,0,0,1,.89-.33,1.21,1.21,0,0,1,1.16,1.19,1.19,1.19,0,0,1-.43.95,8.25,8.25,0,0,1-13.19-6.3ZM64.6,36.84a4.42,4.42,0,0,0-3.27-1.29A4.83,4.83,0,0,0,57.9,37a3.78,3.78,0,0,0-1.19,2.24c0,.3.18.42.58.42h8c.36,0,.55-.12.55-.42A3.93,3.93,0,0,0,64.6,36.84Z"/><path class="cls-2" d="M83.85,49.05a1.3,1.3,0,0,1-1.31-1.32V39.41a3.94,3.94,0,0,0-7.87,0v8.32a1.3,1.3,0,1,1-2.6,0v-13a1.29,1.29,0,0,1,1.25-1.29c1.29,0,1.23,1.17,1.9,1.17s1.59-1.32,4-1.32a6,6,0,0,1,5.94,6.12v8.32A1.31,1.31,0,0,1,83.85,49.05Z"/><path class="cls-2" d="M101.42,49.05a1.31,1.31,0,0,1-1.32-1.32V39.41a3.93,3.93,0,0,0-7.86,0v8.32a1.31,1.31,0,1,1-2.61,0V27.11a1.31,1.31,0,1,1,2.61,0v6.76c0,.37.15.58.55.58.67,0,1.59-1.16,4-1.16a6,6,0,0,1,5.94,6.12v8.32A1.3,1.3,0,0,1,101.42,49.05Z"/><path class="cls-2" d="M106.28,41.25a8,8,0,1,1,8,8A7.93,7.93,0,0,1,106.28,41.25Zm13.43,0a5.4,5.4,0,1,0-5.41,5.63A5.45,5.45,0,0,0,119.71,41.25Z"/><path class="cls-2" d="M127.18,33.44a1.3,1.3,0,0,1,1.31,1.32v8.32a3.94,3.94,0,0,0,7.87,0V34.76a1.3,1.3,0,1,1,2.6,0v13a1.29,1.29,0,0,1-1.26,1.29c-1.28,0-1.22-1.16-1.89-1.16s-1.6,1.31-4,1.31a6,6,0,0,1-5.94-6.12V34.76A1.3,1.3,0,0,1,127.18,33.44Z"/><path class="cls-2" d="M143.58,48.07a1.63,1.63,0,0,1-1-1.44,1.17,1.17,0,0,1,1.16-1.19c.77,0,1.1.46,1.75.79a5.49,5.49,0,0,0,2.84.71c2.08,0,3.12-.95,3.12-2.11,0-1.66-1.53-2-3.61-2.51-2.57-.68-5.05-1.44-5.05-4.41,0-2.63,2-4.62,5.6-4.62a7.24,7.24,0,0,1,3.77,1,1.47,1.47,0,0,1,.73,1.19,1.26,1.26,0,0,1-1.25,1.26,2.54,2.54,0,0,1-1.29-.61,3.59,3.59,0,0,0-2.05-.59c-2,0-2.94.89-2.94,2.09,0,1.56,1.5,1.92,3.64,2.44,2.51.62,5,1.41,5,4.44,0,2.63-2,4.68-5.72,4.68A9,9,0,0,1,143.58,48.07Z"/><path class="cls-2" d="M156.46,41.25c0-4.62,3.18-8,7.56-8a6.94,6.94,0,0,1,7.19,7,1.47,1.47,0,0,1-1.5,1.59h-9.94c-.43,0-.59.15-.59.49a5.39,5.39,0,0,0,1.53,3.09,5.29,5.29,0,0,0,3.95,1.47A5.73,5.73,0,0,0,168,45.74a1.46,1.46,0,0,1,.88-.33,1.21,1.21,0,0,1,1.17,1.19,1.22,1.22,0,0,1-.43.95,8.25,8.25,0,0,1-13.19-6.3Zm10.84-4.41A4.45,4.45,0,0,0,164,35.55,4.85,4.85,0,0,0,160.59,37a3.78,3.78,0,0,0-1.19,2.24c0,.3.18.42.58.42h8c.37,0,.55-.12.55-.42A4,4,0,0,0,167.3,36.84Z"/></svg>