<?xml version="1.0" encoding="UTF-8"?><svg id="a" xmlns="http://www.w3.org/2000/svg" viewBox="0 0 180 80"><defs><style>.b{fill:none;}</style></defs><rect class="b" width="180" height="80"/><rect class="b" width="180" height="80"/><g><g><g><path d="M59.21,52.36c-.38,.63-.87,1.08-1.47,1.36s-1.29,.41-2.05,.41c-.87,0-1.63-.17-2.29-.5-.66-.34-1.2-.79-1.63-1.37-.42-.57-.75-1.23-.97-1.98s-.33-1.53-.33-2.34,.1-1.53,.33-2.26c.22-.73,.54-1.37,.97-1.91,.42-.55,.96-1,1.61-1.33,.64-.34,1.39-.5,2.25-.5,.68,0,1.34,.15,1.96,.43,.62,.3,1.11,.72,1.47,1.29h.05v-5.82h3.18v16h-3.03v-1.48h-.03Zm-.14-5.71c-.09-.44-.24-.83-.46-1.16-.22-.34-.5-.6-.84-.82-.34-.21-.77-.32-1.3-.32s-.97,.1-1.32,.32c-.35,.21-.65,.49-.87,.83-.22,.34-.38,.74-.47,1.17-.1,.44-.15,.9-.15,1.38,0,.44,.06,.9,.16,1.34s.27,.84,.5,1.2,.52,.64,.88,.85c.35,.22,.77,.33,1.27,.33,.52,0,.96-.1,1.31-.32,.35-.21,.63-.49,.84-.84,.21-.35,.35-.75,.44-1.2s.14-.91,.14-1.39-.05-.95-.14-1.38Z"/><path d="M67.27,57.29c-.62,.4-1.47,.6-2.55,.6-.33,0-.65-.01-.98-.03-.32-.02-.65-.05-.98-.08v-2.62c.3,.03,.6,.06,.92,.09s.63,.03,.95,.02c.42-.05,.73-.21,.93-.49s.31-.59,.31-.95c0-.25-.05-.49-.14-.72l-4.06-10.87h3.38l2.62,7.93h.05l2.53-7.93h3.29l-4.84,13.03c-.34,.93-.82,1.61-1.44,2.02Z"/><path d="M75.97,42.25v1.62h.07c.4-.67,.92-1.16,1.57-1.47,.64-.31,1.3-.46,1.97-.46,.85,0,1.55,.11,2.1,.34s.98,.56,1.29,.97c.32,.41,.54,.91,.66,1.5,.13,.59,.19,1.24,.19,1.96v7.12h-3.18v-6.54c0-.96-.15-1.68-.44-2.14s-.83-.71-1.6-.71c-.87,0-1.49,.26-1.88,.77s-.58,1.37-.58,2.54v6.07h-3.19v-11.59h3.02Z"/><path d="M84.43,45.82c.05-.75,.23-1.37,.56-1.86s.75-.89,1.25-1.19c.51-.3,1.08-.51,1.71-.64,.64-.13,1.28-.19,1.91-.19,.58,0,1.17,.05,1.77,.13s1.14,.24,1.64,.48c.49,.24,.9,.57,1.21,1,.32,.42,.47,.99,.47,1.69v6.03c0,.52,.03,1.03,.09,1.5s.16,.83,.32,1.07h-3.23c-.06-.18-.11-.36-.15-.55s-.07-.38-.08-.57c-.51,.52-1.11,.89-1.79,1.09s-1.39,.32-2.11,.32c-.56,0-1.07-.07-1.55-.21s-.9-.34-1.25-.63-.64-.64-.84-1.07-.31-.95-.31-1.55c0-.66,.11-1.2,.34-1.63,.23-.42,.54-.76,.9-1.01,.36-.25,.79-.44,1.25-.57s.95-.23,1.42-.31,.95-.14,1.41-.18,.88-.11,1.23-.21,.64-.22,.85-.39c.21-.17,.31-.42,.3-.75,0-.34-.06-.62-.17-.82s-.26-.35-.44-.47-.4-.18-.65-.23c-.25-.03-.51-.06-.8-.06-.63,0-1.12,.14-1.48,.4-.35,.27-.57,.72-.63,1.34h-3.17Zm7.35,2.36c-.14,.13-.31,.22-.5,.28-.21,.07-.42,.13-.65,.17s-.48,.08-.73,.11-.51,.07-.76,.11c-.24,.05-.48,.1-.71,.18s-.43,.17-.6,.31c-.17,.13-.31,.28-.41,.48s-.16,.44-.16,.74,.06,.52,.16,.72,.25,.34,.42,.46c.18,.11,.39,.19,.63,.24s.49,.07,.74,.07c.63,0,1.12-.1,1.46-.32,.34-.21,.59-.46,.76-.75,.16-.3,.26-.58,.31-.89,.03-.3,.06-.54,.06-.72v-1.2h-.01Z"/><path d="M98.83,42.25v1.57h.05c.42-.59,.92-1.06,1.52-1.39s1.27-.49,2.03-.49,1.4,.14,2.01,.42,1.06,.79,1.38,1.5c.34-.51,.81-.96,1.4-1.34,.59-.39,1.29-.58,2.1-.58,.62,0,1.19,.08,1.7,.23,.52,.15,.97,.39,1.34,.72s.66,.76,.88,1.29c.21,.54,.32,1.17,.32,1.91v7.75h-3.18v-6.56c0-.39-.01-.75-.05-1.09-.03-.34-.11-.64-.25-.9-.14-.25-.33-.46-.59-.6s-.62-.23-1.06-.23-.81,.09-1.08,.26-.49,.4-.65,.67-.26,.59-.32,.95-.08,.71-.08,1.06v6.45h-3.18v-6.5c0-.34-.01-.68-.02-1.01-.01-.34-.08-.65-.19-.93s-.3-.51-.56-.68-.65-.26-1.15-.26c-.15,0-.34,.03-.59,.1s-.49,.19-.72,.38-.43,.46-.59,.81-.25,.81-.25,1.38v6.72h-3.18v-11.59h2.99Z"/><path d="M114.46,40.46v-2.62h3.18v2.62h-3.18Zm3.18,1.79v11.59h-3.18v-11.59h3.18Z"/><path d="M124.01,44.34c-.51,0-.93,.11-1.28,.34s-.63,.54-.84,.9-.36,.77-.46,1.21c-.09,.44-.14,.88-.14,1.31s.05,.84,.14,1.28,.24,.82,.43,1.17c.21,.35,.48,.64,.82,.87s.76,.34,1.25,.34c.76,0,1.34-.22,1.76-.64,.41-.42,.67-1,.77-1.71h3.07c-.21,1.54-.81,2.71-1.79,3.52-.99,.81-2.25,1.21-3.78,1.21-.87,0-1.66-.15-2.38-.43-.73-.3-1.34-.7-1.85-1.22-.51-.52-.9-1.15-1.19-1.87-.28-.73-.42-1.52-.42-2.38s.13-1.73,.39-2.5c.26-.77,.65-1.44,1.15-1.99,.51-.56,1.13-1,1.86-1.31,.73-.32,1.57-.47,2.51-.47,.68,0,1.34,.09,1.98,.27,.64,.18,1.21,.46,1.7,.82,.5,.36,.91,.82,1.22,1.37,.32,.55,.49,1.2,.54,1.94h-3.11c-.21-1.37-.99-2.03-2.35-2.03Z"/></g><g><path d="M74.64,74.97c-.62,.4-1.47,.6-2.55,.6-.33,0-.65-.01-.98-.03-.32-.02-.65-.05-.98-.08v-2.62c.3,.03,.6,.06,.92,.09s.63,.03,.95,.02c.42-.05,.73-.21,.93-.49s.31-.59,.31-.95c0-.25-.05-.49-.14-.72l-4.06-10.87h3.38l2.62,7.93h.05l2.53-7.93h3.29l-4.84,13.03c-.34,.93-.82,1.61-1.44,2.02Z"/><path d="M80.4,58.14v-2.62h3.18v2.62h-3.18Zm3.18,1.79v11.59h-3.18v-11.59h3.18Z"/><path d="M87.82,68.74c.48,.47,1.16,.7,2.06,.7,.64,0,1.2-.16,1.66-.48s.75-.66,.85-1.01h2.8c-.44,1.39-1.14,2.38-2.06,2.99-.92,.59-2.05,.9-3.36,.9-.91,0-1.73-.15-2.46-.43-.73-.3-1.36-.71-1.86-1.24-.51-.54-.9-1.19-1.17-1.93-.27-.75-.41-1.57-.41-2.46s.14-1.68,.42-2.42c.28-.75,.68-1.39,1.21-1.94s1.15-.98,1.87-1.29c.73-.32,1.53-.47,2.4-.47,.99,0,1.85,.19,2.58,.57s1.33,.89,1.8,1.54c.47,.64,.81,1.38,1.01,2.2s.28,1.69,.23,2.58h-8.37c.05,.99,.31,1.73,.79,2.2Zm3.59-6.1c-.38-.42-.96-.63-1.73-.63-.51,0-.93,.09-1.27,.26-.34,.17-.6,.39-.81,.64-.21,.25-.34,.52-.42,.81s-.13,.54-.15,.76h5.17c-.15-.82-.41-1.42-.8-1.85Z"/><path d="M98.87,55.52v16h-3.18v-16h3.18Z"/><path d="M107.93,70.04c-.38,.63-.87,1.08-1.47,1.36s-1.29,.41-2.05,.41c-.87,0-1.63-.17-2.29-.5-.66-.34-1.2-.79-1.63-1.37-.42-.57-.75-1.23-.97-1.98-.22-.75-.33-1.53-.33-2.34s.11-1.53,.33-2.26c.22-.73,.54-1.37,.97-1.91,.42-.55,.96-1,1.61-1.33,.64-.34,1.39-.5,2.25-.5,.68,0,1.34,.15,1.96,.43,.62,.3,1.11,.72,1.47,1.29h.05v-5.82h3.18v16h-3.03v-1.48h-.03Zm-.14-5.72c-.09-.44-.24-.83-.46-1.16s-.5-.6-.84-.82c-.34-.21-.77-.32-1.3-.32s-.97,.1-1.32,.32c-.35,.21-.65,.49-.87,.83s-.38,.74-.47,1.17c-.1,.44-.15,.9-.15,1.38,0,.44,.06,.9,.16,1.34,.1,.44,.27,.84,.5,1.2s.52,.64,.88,.85,.77,.33,1.27,.33c.52,0,.96-.1,1.31-.32,.35-.21,.63-.49,.84-.84,.21-.35,.35-.75,.44-1.2s.14-.91,.14-1.39-.05-.93-.14-1.38Z"/></g></g><g><path d="M104.5,12.78c-2.12-4.14-6.07-7.27-11.01-8.14-.6-.1-1.21-.18-1.81-.22l.02,8.39,12.8-.03Z"/><path d="M91.76,35.12c4.36-.26,8.35-2.39,11.03-5.71l-11.04,.02v5.69Z"/><path d="M89.98,35.13v-7.46l-.02-6.13h-5.28v7.92l.02,4.43c1.07,.47,2.21,.81,3.42,1.03,.63,.1,1.24,.18,1.86,.22Z"/><path d="M82.92,29.46v-7.91l-7.37,.02c.26,2.2,.99,4.29,2.1,6.13,.38,.62,.79,1.21,1.24,1.77,1.13,1.38,2.5,2.58,4.06,3.51l-.02-3.52Z"/><path d="M104.02,27.63c.92-1.55,1.58-3.29,1.93-5.17,.06-.32,.1-.64,.14-.96,.07-.59,.1-1.19,.1-1.78,0-1.8-.32-3.54-.91-5.17l-13.56,.03v6.95l.02,6.13,12.29-.03Z"/><path d="M82.89,19.78h7.05v-6.96l-.03-8.39c-5.48,.32-10.38,3.56-12.83,8.42-.28,.57-.55,1.16-.76,1.78-.28,.79-.5,1.62-.65,2.46-.16,.91-.24,1.82-.24,2.71l7.46-.02Z"/></g></g></svg>