<?xml version="1.0" encoding="UTF-8"?><svg id="Layer_1" xmlns="http://www.w3.org/2000/svg" viewBox="0 0 180 80"><defs><style>.cls-1{fill:none;}.cls-2{fill:#fff;}.cls-3{fill:#009ade;}</style></defs><rect class="cls-1" width="180" height="80"/><path class="cls-2" d="M22.76,38.77c-4.1,0-7.19,1.27-9.28,4.21v-19.25c0-.22-.18-.39-.4-.39h-3.69c-.22,0-.4.18-.4.39v44.59c0,.22.18.39.4.39h3.68c.22,0,.4-.18.4-.39v-3.4c1.08,1.47,2.42,2.56,4.01,3.27,1.59.71,3.35,1.06,5.27,1.06,3.85,0,6.86-1.34,9.02-4.02,2.17-2.68,3.25-6.44,3.25-11.28s-1.07-8.58-3.22-11.22c-2.15-2.64-5.17-3.97-9.05-3.97h0ZM28.68,61.94c-1.33,1.86-3.34,2.79-6.05,2.79-3.01,0-5.19-.83-6.55-2.49-1.36-1.66-2.04-4.42-2.04-8.28s.66-6.6,1.99-8.23c1.33-1.63,3.49-2.44,6.5-2.44,2.78,0,4.83.88,6.16,2.63,1.33,1.75,1.99,4.42,1.99,7.99s-.66,6.17-1.99,8.03h0Z"/><path class="cls-2" d="M103.23,38.71c-5.36,0-8.59,2.48-9.49,4.18v-3.24c0-.22-.18-.39-.4-.39h-3.69c-.22,0-.4.18-.4.39v28.67c0,.22.18.39.4.39h3.69c.22,0,.4-.18.4-.39v-14.67c0-3.84.72-6.59,2.16-8.25,1.44-1.67,3.7-2.89,6.8-2.89,2.34,0,4.05.59,5.15,1.77,1.1,1.18,1.65,2.98,1.65,5.38v18.66c0,.22.18.39.4.39h3.69c.22,0,.4-.18.4-.39v-18.83c0-3.76-.9-6.5-2.7-8.21-1.8-1.71-4.48-2.57-8.04-2.57h0Z"/><path class="cls-2" d="M140.45,40.08c-.77-.35-1.77-.65-3.01-.91-1.42-.3-2.84-.46-4.26-.46-4.4,0-7.8,1.34-10.18,4.03-2.38,2.69-3.57,6.5-3.57,11.42s1.17,8.52,3.52,11.14c2.35,2.63,5.66,3.94,9.94,3.94,2.89,0,5.31-.47,7.25-1.42.14-.07.22-.21.22-.36v-3.13c0-.28-.28-.47-.54-.37-2.4.92-4.75,1.37-7.04,1.37-2.88,0-5.05-.97-6.51-2.9-1.47-1.94-2.2-4.71-2.2-8.33,0-7.64,3-11.45,9.01-11.45.9,0,1.93.13,3.1.39,1.02.23,1.98.51,2.86.84.21.08.44-.02.51-.23l1.12-3.08c.07-.2-.02-.41-.22-.5Z"/><path class="cls-2" d="M81.01,40.31c-1.7-1.56-4.31-2.34-7.84-2.34-1.74,0-3.48.22-5.22.67-1.61.42-3.1.98-4.47,1.69-.18.09-.26.31-.18.5l1.09,2.69c.09.21.33.3.54.21,2.96-1.38,5.62-2.08,7.98-2.08,2.19,0,3.79.55,4.79,1.65.68.75,1.27,2.31,1.34,3.69l-4.14.03c-1.75.01-3.83.14-5.93.95-1.99.77-3.69,1.89-5.05,3.33-2.21,2.35-3.3,5.55-2.99,8.77.3,3.08,1.82,5.35,4.29,7.12,1.83,1.31,4.09,2.03,6.37,2.03,1.22,0,2.41-.2,3.53-.6,1.6-.57,2.95-1.44,4.08-2.5v2.17c0,.22.18.39.4.39h3.58c.22,0,.4-.18.4-.39v-20.3c0-3.44-.85-6.14-2.55-7.7h0ZM79.27,55.82c-.01,3.83-1.93,8.03-5.77,9.4-2.04.73-4.42.35-6.18-.91-3.37-2.42-3.44-7.36-.7-10.27,1-1.06,2.26-1.84,3.61-2.36,1.48-.57,3.03-.68,4.61-.69h4.45s-.02,4.84-.02,4.84h0Z"/><path class="cls-2" d="M57.24,39.25c-.82-.11-1.75-.21-3.19-.21-5.26.19-8.97,3.56-8.95,3.9,0-1.08,0-1.99,0-3.02,0-.22-.18-.4-.4-.4h-3.68c-.22,0-.4.18-.4.4v28.67c0,.22.18.39.4.39h3.69c.22,0,.4-.18.4-.39v-15.41c0-2.89.85-5.3,2.55-7.23,1.7-1.94,3.74-2.9,6.14-2.9.83,0,1.77.1,2.82.32.22.04.44-.1.47-.33l.5-3.33c.03-.22-.12-.42-.34-.45h0Z"/><path class="cls-2" d="M168.3,41.28c-1.8-1.71-4.48-2.57-8.04-2.57-5.36,0-8.59,2.48-9.49,4.18l-.2-5.73,4.81-2.94c.58.4,1.29.64,2.05.64,2,0,3.63-1.62,3.63-3.61s-1.63-3.61-3.63-3.61-3.63,1.62-3.63,3.61c0,.2.02.39.05.57l-3.39,2.09-.24-6.91,4.73-2.89c1.24.93,2.94,1.15,4.43.43,2.11-1.03,3-3.58,1.97-5.69-1.03-2.11-3.59-2.99-5.71-1.96-1.84.89-2.74,2.94-2.27,4.84l-3.26,2.01-.19-5.52c1.45-.56,2.48-1.96,2.48-3.6,0-2.13-1.74-3.86-3.88-3.86s-3.88,1.73-3.88,3.86c0,1.64,1.03,3.04,2.48,3.6l-.35,11.43-3.55-2.25c.08-.33.12-.66.12-1.01,0-2.47-2.02-4.48-4.49-4.48s-4.49,2.01-4.49,4.48,2.02,4.48,4.49,4.48c1.09,0,2.1-.39,2.87-1.04l4.94,3.12-.26,8.37-.14,4.45v22.56c0,.22.18.39.4.39h3.71c.22,0,.4-.18.4-.39v-14.67c0-3.84.72-6.59,2.16-8.25,1.33-1.54,3.37-2.7,6.11-2.87.2,0,.4-.02.6-.02h.07c2.33,0,4.05.59,5.14,1.77,1.1,1.18,1.65,2.98,1.65,5.38v14.57h0v4.09c0,.22.18.39.4.39h3.71c.22,0,.4-.18.4-.39v-18.83c0-3.76-.9-6.5-2.69-8.21h0Z"/><path class="cls-3" d="M148.51,12.27c-1.3,0-2.35,1.05-2.35,2.34s1.05,2.34,2.35,2.34,2.35-1.05,2.35-2.34-1.05-2.34-2.35-2.34Z"/><path class="cls-3" d="M157.38,29.16c-1.18,0-2.13.96-2.13,2.13s.96,2.13,2.13,2.13,2.13-.96,2.13-2.13-.96-2.13-2.13-2.13Z"/><path class="cls-3" d="M158.69,22.99c1.25-.6,1.76-2.11,1.16-3.35-.61-1.24-2.11-1.76-3.36-1.15-1.25.6-1.76,2.11-1.16,3.35.61,1.24,2.11,1.76,3.36,1.15Z"/><path class="cls-3" d="M138.84,23.68c-1.49,0-2.71,1.21-2.71,2.7s1.21,2.7,2.71,2.7,2.71-1.21,2.71-2.7-1.21-2.7-2.71-2.7Z"/></svg>