<?xml version="1.0" encoding="UTF-8"?><svg id="Layer_1" xmlns="http://www.w3.org/2000/svg" xmlns:xlink="http://www.w3.org/1999/xlink" viewBox="0 0 180 80"><defs><style>.cls-1{fill:none;}.cls-2{fill:url(#linear-gradient);}.cls-3{fill:#fff;}</style><linearGradient id="linear-gradient" x1="-5123.63" y1="3896.81" x2="-5123.63" y2="3766.07" gradientTransform="translate(-823.72 -6292.2) rotate(-135) scale(1 -1)" gradientUnits="userSpaceOnUse"><stop offset="0" stop-color="#2e27ad"/><stop offset="1" stop-color="#527fff"/></linearGradient></defs><rect class="cls-1" width="180" height="80"/><rect class="cls-1" width="180" height="80"/><g id="Reference"><rect id="Blue_Gradient" class="cls-2" x="57.31" y="7.31" width="65.37" height="65.37"/><g id="Icon_Test"><path class="cls-3" d="M92.23,51.99h-1.13c-.48,0-.87-.39-.87-.87V31.72c0-.48,.39-.87,.87-.87h10.29c.25,0,.48,.11,.65,.3l2.61,3.15-1.23,1.12-2.41-2.82h-9.07v17.72h.3v1.67Z"/><path class="cls-3" d="M108.15,55.14h-14.09c-.48,0-.87-.39-.87-.87v-19.39c0-.48,.39-.87,.87-.87h10.87c.22,0,.43,.09,.59,.24l3.22,3.26c.15,.16,.24,.37,.24,.59v16.2c-.02,.45-.38,.82-.84,.84Zm-13.25-1.63h12.41v-15.06l-2.73-2.74h-9.68v17.8Z"/><path class="cls-3" d="M108.15,39.81h-4.09c-.48,0-.87-.39-.87-.87v-4.1h1.67v3.25h3.25l.03,1.72Z"/><path class="cls-3" d="M100.36,50.59h-.55c-.43,0-.84-.18-1.12-.51-.34-.51-.47-1.14-.36-1.74-.05-1.55-.92-1.8-.92-1.8-.45-.17-.68-.67-.51-1.12,.09-.23,.27-.42,.51-.51,.08,0,.87-.32,.87-1.86,0-.92,.43-1.94,1.45-1.97h.58v1.68h-.28c-.01,.1-.01,.19,0,.29,.06,.97-.25,1.93-.87,2.68,.62,.75,.93,1.71,.87,2.68,0,.05,0,.1,0,.16-.01,.12-.01,.25,0,.37h.37l-.04,1.65Z"/><path class="cls-3" d="M102.7,50.59v-1.67h.32c0-.09,0-.19,0-.28-.06-.97,.25-1.93,.87-2.68-.62-.75-.93-1.71-.87-2.68,0-.05,0-.1,0-.16,.01-.12,.01-.24,0-.37h-.37v-1.68h.55c.43,0,.84,.18,1.12,.51,.34,.51,.47,1.14,.36,1.74,0,1.48,.87,1.74,.87,1.8,.37,.12,.62,.48,.6,.87,0,.38-.25,.7-.62,.79-.07,0-.87,.32-.87,1.87,0,.92-.43,1.94-1.45,1.96l-.51-.02Z"/><path class="cls-3" d="M85.41,31.02c-6.97,0-14.39-2.14-14.39-6.1s7.41-6.1,14.39-6.1,14.39,2.14,14.39,6.1-7.42,6.1-14.39,6.1Zm0-10.56c-7.5,0-12.72,2.34-12.72,4.45s5.23,4.44,12.72,4.44,12.71-2.34,12.71-4.44-5.22-4.45-12.71-4.45Z"/><rect class="cls-3" x="98.12" y="24.9" width="1.67" height="5.28"/><path class="cls-3" d="M85.41,61.22c-6.97,0-14.39-2.14-14.39-6.1V24.9h1.67v30.19c0,2.1,5.23,4.45,12.72,4.45s12.71-2.34,12.71-4.45h1.68c0,3.97-7.42,6.12-14.39,6.12Z"/><path class="cls-3" d="M85.43,41.58c-8.18,0-14.36-2.61-14.36-6.1h1.68c0,2.1,5.23,4.45,12.67,4.45,1.26,0,2.51-.07,3.76-.22l.19,1.66c-1.31,.15-2.63,.22-3.95,.21Z"/><path class="cls-3" d="M85.43,51.95c-8.18,0-14.36-2.61-14.36-6.1h1.68c0,2.1,5.23,4.45,12.67,4.45,1.26,0,2.51-.07,3.76-.21l.18,1.68c-1.31,.13-2.62,.19-3.94,.18Z"/></g></g></svg>