<?xml version="1.0" encoding="UTF-8"?><svg id="Layer_1" xmlns="http://www.w3.org/2000/svg" xmlns:xlink="http://www.w3.org/1999/xlink" viewBox="0 0 180 80"><defs><style>.cls-1{fill:none;}.cls-2{fill:url(#linear-gradient);}.cls-3{fill:#fff;}</style><linearGradient id="linear-gradient" x1="43.77" y1="423.1" x2="136.22" y2="515.56" gradientTransform="translate(0 509.33) scale(1 -1)" gradientUnits="userSpaceOnUse"><stop offset="0" stop-color="#4d27a8"/><stop offset="1" stop-color="#a166ff"/></linearGradient></defs><rect class="cls-1" width="180" height="80"/><rect class="cls-1" width="180" height="80"/><g id="Working"><rect id="Purple_Gradient" class="cls-2" x="57.31" y="7.31" width="65.37" height="65.37"/><g id="Icon_Test"><path class="cls-3" d="M90,61.79c-7.18,0-14.82-2.08-14.82-5.94V24.15h1.74v31.69c0,1.74,4.98,4.2,13.07,4.2s13.07-2.44,13.07-4.2V24.15h1.74v31.69c0,3.86-7.64,5.94-14.82,5.94Z"/><path class="cls-3" d="M90,61.79c-7.18,0-14.82-2.08-14.82-5.94V24.15h1.74v31.69c0,1.74,4.98,4.2,13.07,4.2s13.07-2.44,13.07-4.2V24.15h1.74v31.69c0,3.86-7.64,5.94-14.82,5.94Z"/><path class="cls-3" d="M90,30.09c-7.18,0-14.82-2.08-14.82-5.94s7.64-5.94,14.82-5.94,14.82,2.08,14.82,5.94-7.64,5.94-14.82,5.94Zm0-10.14c-8.1,0-13.07,2.44-13.07,4.2s4.98,4.19,13.07,4.19,13.07-2.44,13.07-4.19-4.98-4.2-13.07-4.2Z"/><rect class="cls-3" x="89.11" y="40.45" width="1.74" height="5.42" transform="translate(27.95 121.33) rotate(-77.19)"/><rect class="cls-3" x="93.96" y="38.5" width="5.49" height="1.74" transform="translate(24.58 114.87) rotate(-68.46)"/><rect class="cls-3" x="81.2" y="45.31" width="4.53" height="1.74" transform="translate(8.23 104.82) rotate(-66.89)"/><path class="cls-3" d="M81.72,53.31c-1.68,0-3.05-1.37-3.05-3.05s1.37-3.05,3.05-3.05,3.05,1.37,3.05,3.05h0c0,1.68-1.37,3.05-3.05,3.05Zm0-4.36c-.72,0-1.31,.59-1.31,1.31s.59,1.31,1.31,1.31,1.31-.59,1.31-1.31-.59-1.31-1.31-1.31Z"/><path class="cls-3" d="M85.21,45.13c-1.68,0-3.05-1.37-3.05-3.05s1.37-3.05,3.05-3.05,3.05,1.37,3.05,3.05-1.37,3.05-3.05,3.05Zm0-4.36c-.72,0-1.31,.59-1.31,1.31s.59,1.31,1.31,1.31,1.31-.59,1.31-1.31h0c0-.72-.59-1.31-1.31-1.31Z"/><path class="cls-3" d="M94.79,46.97c-1.68,0-3.05-1.37-3.05-3.05s1.37-3.05,3.05-3.05,3.05,1.37,3.05,3.05-1.37,3.05-3.05,3.05Zm0-4.36c-.72,0-1.31,.59-1.31,1.31s.59,1.31,1.31,1.31,1.31-.59,1.31-1.31-.59-1.31-1.31-1.31Z"/><path class="cls-3" d="M98.28,37.82c-1.68,0-3.05-1.37-3.05-3.05s1.37-3.05,3.05-3.05,3.05,1.37,3.05,3.05v.04c-.03,1.67-1.38,3-3.05,3.01Zm0-4.36c-.72,0-1.31,.59-1.31,1.31,0,.72,.59,1.31,1.31,1.31,.7,0,1.28-.56,1.31-1.26,.02-.72-.54-1.33-1.26-1.35-.01,0-.03,0-.04,0Z"/></g></g></svg>