<?xml version="1.0" encoding="UTF-8"?><svg id="Layer_1" xmlns="http://www.w3.org/2000/svg" viewBox="0 0 180 80"><defs><style>.cls-1{fill:none;}.cls-2{fill:#fff;}</style></defs><rect class="cls-1" width="180" height="80"/><path class="cls-2" d="M87.27,25.77v17.28c0,10.93-8.39,14.48-12.2,15.5-1.02.25-2.54-.25-3.05-1.78-.25-1.27.51-2.54,1.78-3.05,3.81-1.02,8.39-3.81,8.39-10.67v-17.28c0-1.27,1.02-2.54,2.54-2.54,1.27,0,2.54,1.02,2.54,2.54ZM44.84,46.86c1.02,2.03-1.02,4.83-3.56,3.3,0,0-9.66-6.35-16.77-9.15l-4.32,8.13c-.25.76-2.03,2.03-3.56,1.02-11.94-6.86-9.66-20.33,5.34-15.75l6.1-11.69c1.27-2.03,3.81-1.52,4.57,0l12.2,24.14ZM19.68,39.24c-9.66-2.8-4.57,3.81-2.54,5.08l2.54-5.08ZM36.2,41.02l-6.1-11.43-3.3,6.86c2.29.76,7.37,3.56,9.4,4.57ZM74.31,36.7c0,7.62-6.1,13.72-13.72,13.72h-8.13c-1.52,0-2.54-1.27-2.54-2.54v-22.11c0-1.52,1.27-2.54,2.54-2.54h8.13c7.62,0,13.72,6.1,13.72,13.47ZM69.23,36.7c0-4.57-3.81-8.39-8.39-8.39h-5.59v17.02h5.59c4.57,0,8.39-3.81,8.39-8.64ZM113.95,25.77v12.71c0,4.07-2.8,6.86-6.86,6.86s-6.86-2.8-6.86-6.86v-12.71c0-3.3-5.08-3.3-5.08,0v12.71c0,6.86,5.08,11.94,11.94,11.94s11.94-5.08,11.94-11.94v-12.71c0-3.3-5.08-3.3-5.08,0ZM168.33,23.23h-18.8c-3.3,0-3.3,5.08,0,5.08h6.86v19.57c0,3.3,5.08,3.3,5.08,0v-19.57h6.86c3.56,0,3.56-5.08,0-5.08ZM129.2,29.84c.25-2.29,4.83-3.56,8.64-.25,2.54,2.03,5.84-1.02,3.56-3.81-4.32-4.83-17.28-4.57-17.28,4.57,0,9.66,14.99,7.62,13.47,13.21-.76,2.54-6.61,3.56-9.4-.25-2.29-3.3-6.35,0-4.32,2.8,5.84,8.39,19.06,4.83,19.06-3.3,0-9.4-13.98-7.62-13.72-12.96Z"/></svg>