<svg id="Layer_1" data-name="Layer 1" xmlns="http://www.w3.org/2000/svg" viewBox="0 0 180 80"><defs><style>.cls-1{fill:none;}.cls-2{fill:#ffd040;}.cls-3{fill:#ffb600;}.cls-4{fill:#fdb615;}</style></defs><rect class="cls-1" width="180" height="80"/><path class="cls-2" d="M18.77,35.8c1.32,1.34,2,3.39,2,6.13v9.74a2.25,2.25,0,0,1-.64,1.69,2.44,2.44,0,0,1-1.76.62,2.29,2.29,0,0,1-1.69-.64A2.21,2.21,0,0,1,16,51.67v-.88a5.22,5.22,0,0,1-2.14,2.43,6.37,6.37,0,0,1-3.37.88,7.86,7.86,0,0,1-3.56-.8,6.27,6.27,0,0,1-2.51-2.2A5.46,5.46,0,0,1,3.51,48,4.89,4.89,0,0,1,4.6,44.6a6.66,6.66,0,0,1,3.58-1.8A32.64,32.64,0,0,1,15,42.24h1v-.91a4,4,0,0,0-.84-2.85,3.54,3.54,0,0,0-2.71-.9,8.58,8.58,0,0,0-2.36.34c-.79.23-1.74.55-2.83,1a4.11,4.11,0,0,1-1.52.52,1.49,1.49,0,0,1-1.17-.52,2,2,0,0,1-.46-1.36,2.06,2.06,0,0,1,.34-1.18,3.4,3.4,0,0,1,1.14-.94,13.6,13.6,0,0,1,3.32-1.2,18.1,18.1,0,0,1,3.81-.44C15.44,33.78,17.45,34.45,18.77,35.8Zm-4,13.37A4.82,4.82,0,0,0,16,45.72v-.84h-.72a27.54,27.54,0,0,0-4.15.24A4,4,0,0,0,9,46a2.11,2.11,0,0,0-.64,1.63,2.67,2.67,0,0,0,.9,2.1,3.13,3.13,0,0,0,2.21.82A4.29,4.29,0,0,0,14.74,49.17Z"/><path class="cls-2" d="M74.78,49a2.16,2.16,0,0,1,.42,1.4,2.43,2.43,0,0,1-1.47,2.08,13.33,13.33,0,0,1-3.08,1.21,12.55,12.55,0,0,1-3.28.46,10.15,10.15,0,0,1-7.46-2.72A9.93,9.93,0,0,1,57.15,44a11.35,11.35,0,0,1,1.2-5.31,8.79,8.79,0,0,1,3.37-3.6,9.58,9.58,0,0,1,4.93-1.27,8.81,8.81,0,0,1,4.6,1.16,7.8,7.8,0,0,1,3,3.28,10.83,10.83,0,0,1,1.08,5c0,1.14-.5,1.71-1.52,1.71H62.07a6.3,6.3,0,0,0,1.55,4,5.24,5.24,0,0,0,3.84,1.3A7.16,7.16,0,0,0,69.71,50a19.34,19.34,0,0,0,2.22-.88,4.69,4.69,0,0,1,1.75-.64A1.34,1.34,0,0,1,74.78,49ZM63.53,38.57a6,6,0,0,0-1.46,3.68h9a5.61,5.61,0,0,0-1.2-3.69,3.93,3.93,0,0,0-3.11-1.26,4.31,4.31,0,0,0-3.26,1.27Z"/><path class="cls-2" d="M95.56,35.78q1.71,2,1.72,6v9.82a2.31,2.31,0,0,1-.66,1.75A2.5,2.5,0,0,1,94.8,54,2.54,2.54,0,0,1,93,53.38a2.25,2.25,0,0,1-.68-1.75V42.09a5.18,5.18,0,0,0-.86-3.32,3.34,3.34,0,0,0-2.7-1,4.59,4.59,0,0,0-3.45,1.36A5.07,5.07,0,0,0,84,42.72v8.91a2.25,2.25,0,0,1-.68,1.75,2.58,2.58,0,0,1-1.84.64,2.47,2.47,0,0,1-1.81-.64A2.31,2.31,0,0,1,79,51.63V36.18a2.21,2.21,0,0,1,.68-1.68,2.58,2.58,0,0,1,1.84-.64,2.4,2.4,0,0,1,1.7.62,2.11,2.11,0,0,1,.66,1.62v1.08a6.68,6.68,0,0,1,2.67-2.52,8,8,0,0,1,3.79-.88A6.53,6.53,0,0,1,95.56,35.78Z"/><path class="cls-2" d="M118.3,53.4a2.22,2.22,0,0,1-.7-1.77V36.22a2.17,2.17,0,0,1,.7-1.76,2.6,2.6,0,0,1,1.77-.6,2.72,2.72,0,0,1,1.8.6,2.15,2.15,0,0,1,.72,1.76V51.63a2.2,2.2,0,0,1-.72,1.77,2.68,2.68,0,0,1-1.8.62A2.52,2.52,0,0,1,118.3,53.4Z"/><path class="cls-2" d="M142.85,34.22a2.16,2.16,0,0,1,1.18-.36,2.5,2.5,0,0,1,1.65.62,1.9,1.9,0,0,1,.74,1.54,2,2,0,0,1-.24,1L138.8,52.43a2.67,2.67,0,0,1-1,1.16,2.86,2.86,0,0,1-1.46.4,3,3,0,0,1-1.45-.4,2.53,2.53,0,0,1-1.06-1.16L126.38,37a1.92,1.92,0,0,1-.2-.91A2,2,0,0,1,127,34.5a2.7,2.7,0,0,1,1.78-.64,2.23,2.23,0,0,1,2.11,1.4l5.59,12.33L142,35.3A2.47,2.47,0,0,1,142.85,34.22Z"/><path class="cls-2" d="M166.24,49a2.16,2.16,0,0,1,.42,1.4,2.43,2.43,0,0,1-1.48,2.08,13.16,13.16,0,0,1-3.08,1.21,12.53,12.53,0,0,1-3.27.46,10.19,10.19,0,0,1-7.47-2.72A10,10,0,0,1,148.61,44a11.47,11.47,0,0,1,1.19-5.31,8.75,8.75,0,0,1,3.38-3.6,9.55,9.55,0,0,1,4.93-1.27,8.75,8.75,0,0,1,4.59,1.16,7.85,7.85,0,0,1,3.05,3.28,11,11,0,0,1,1.07,5c0,1.14-.5,1.71-1.51,1.71H153.53a6.25,6.25,0,0,0,1.56,4,5.19,5.19,0,0,0,3.83,1.3,7.16,7.16,0,0,0,2.25-.32,19.34,19.34,0,0,0,2.22-.88,4.66,4.66,0,0,1,1.76-.64A1.34,1.34,0,0,1,166.24,49ZM155,38.57a6,6,0,0,0-1.46,3.68h9a5.61,5.61,0,0,0-1.2-3.69,3.93,3.93,0,0,0-3.11-1.26A4.27,4.27,0,0,0,155,38.57Z"/><circle class="cls-3" cx="120.09" cy="28.85" r="2.95"/><path class="cls-2" d="M114.36,52.11a1.59,1.59,0,0,1-.78,1.45,3.61,3.61,0,0,1-2.21.42l-1.08-.08q-6.71-.48-6.71-7.18V38h-2c-.72,0,2.33-.4,1.94-.72s-1.76-.54-1.76-1.15.79-.15,1.18-.47-2.08-1.41-1.37-1.41h2V30.59a2.23,2.23,0,0,1,.68-1.71,2.58,2.58,0,0,1,1.84-.64,2.49,2.49,0,0,1,1.79.64,2.19,2.19,0,0,1,.68,1.71v3.67H112c.71,0-1.87,1.17-1.48,1.49s.74-.55.74.06a1.2,1.2,0,0,1-.51,1.14c-.39.32.72,0,0,0L108.57,38v9.06c0,2,.91,3,2.72,3.16l1.08.08C113.7,50.39,114.36,51,114.36,52.11Z"/><path class="cls-3" d="M104.87,34.26h7.24s.87,0,1,.21a1.68,1.68,0,0,1,.84,1.2,4.23,4.23,0,0,1-.08,1.28,1.21,1.21,0,0,1-.61.77,1.9,1.9,0,0,1-.86.28h-7.57Z"/><path class="cls-3" d="M108.78,34.26h-8a3.43,3.43,0,0,0-1.16.21,1.69,1.69,0,0,0-.92,1.2A3.68,3.68,0,0,0,98.77,37a1.21,1.21,0,0,0,.68.77,2.32,2.32,0,0,0,1,.28h8.38Z"/><path class="cls-2" d="M38.92,52.11a1.59,1.59,0,0,1-.78,1.45,3.59,3.59,0,0,1-2.21.42l-1.08-.08q-6.71-.48-6.71-7.18V38h-2c-.72,0,2.33-.4,1.94-.72s-1.77-.54-1.77-1.15.8-.15,1.19-.47-2.08-1.41-1.36-1.41h2V30.59a2.23,2.23,0,0,1,.68-1.71,2.61,2.61,0,0,1,1.84-.64,2.49,2.49,0,0,1,1.79.64,2.19,2.19,0,0,1,.68,1.71v3.67h3.4c.72,0-1.87,1.17-1.48,1.49s.74-.55.74.06A1.2,1.2,0,0,1,35.28,37c-.39.32.72,0,0,0L33.13,38v9.06c0,2,.91,3,2.72,3.16l1.08.08C38.26,50.39,38.92,51,38.92,52.11Z"/><path class="cls-3" d="M29.43,34.26h7.24a2.83,2.83,0,0,1,1,.21,1.65,1.65,0,0,1,.83,1.2A4.23,4.23,0,0,1,38.47,37a1.24,1.24,0,0,1-.61.77A1.94,1.94,0,0,1,37,38H29.43Z"/><path class="cls-3" d="M32.36,34.26H25.12s-.87,0-1,.21a1.68,1.68,0,0,0-.84,1.2A4.23,4.23,0,0,0,23.32,37a1.21,1.21,0,0,0,.61.77,1.9,1.9,0,0,0,.86.28h7.57Z"/><path class="cls-2" d="M56.25,52.11a1.61,1.61,0,0,1-.78,1.45,3.62,3.62,0,0,1-2.22.42l-1.07-.08q-6.72-.48-6.71-7.18V38h-2c-.72,0,2.33-.4,2-.72s-1.77-.54-1.77-1.15.8-.15,1.18-.47-2.08-1.41-1.37-1.41h2V30.59a2.23,2.23,0,0,1,.68-1.71A2.56,2.56,0,0,1,48,28.24a2.49,2.49,0,0,1,1.79.64,2.24,2.24,0,0,1,.69,1.71v3.67h3.39c.72,0-1.86,1.17-1.48,1.49s.74-.55.74.06A1.2,1.2,0,0,1,52.61,37c-.39.32.72,0,0,0L50.46,38v9.06c0,2,.91,3,2.72,3.16l1.08.08C55.58,50.39,56.25,51,56.25,52.11Z"/><path class="cls-3" d="M46.76,34.26H54s.86,0,1,.21a1.65,1.65,0,0,1,.84,1.2A4.23,4.23,0,0,1,55.8,37a1.22,1.22,0,0,1-.62.77,1.9,1.9,0,0,1-.86.28H46.76Z"/><path class="cls-3" d="M49.68,34.26H42.44s-.86,0-1,.21a1.65,1.65,0,0,0-.84,1.2A4.23,4.23,0,0,0,40.64,37a1.22,1.22,0,0,0,.62.77,1.86,1.86,0,0,0,.86.28h7.56Z"/><path class="cls-4" d="M176.49,35.23a4,4,0,1,1-4-3.92A3.94,3.94,0,0,1,176.49,35.23Zm-7.05,0a3,3,0,0,0,3.06,3.13,3,3,0,0,0,3-3.1,3,3,0,1,0-6.05,0Zm2.42,2.05h-.92V33.37a7.63,7.63,0,0,1,1.51-.12,2.48,2.48,0,0,1,1.37.29,1.08,1.08,0,0,1,.38.86,1,1,0,0,1-.81.91v0a1.15,1.15,0,0,1,.71,1,3.28,3.28,0,0,0,.29,1h-1a3.93,3.93,0,0,1-.31-1c-.07-.43-.31-.62-.81-.62h-.43Zm0-2.22h.43c.5,0,.91-.16.91-.57s-.26-.6-.83-.6a2.94,2.94,0,0,0-.51,0Z"/></svg>