<?xml version="1.0" encoding="UTF-8"?><svg id="Layer_1" xmlns="http://www.w3.org/2000/svg" xmlns:xlink="http://www.w3.org/1999/xlink" viewBox="0 0 180 80"><defs><style>.cls-1{fill:none;}.cls-2{fill:url(#linear-gradient);}.cls-3{fill:url(#linear-gradient-2);}.cls-4{fill:url(#radial-gradient);}</style><linearGradient id="linear-gradient" x1="71.05" y1="444.02" x2="75.74" y2="446.79" gradientTransform="translate(0 509.33) scale(1 -1)" gradientUnits="userSpaceOnUse"><stop offset="0" stop-color="#909ca9"/><stop offset="1" stop-color="#ededee"/></linearGradient><linearGradient id="linear-gradient-2" x1="67.3" y1="495.32" x2="71.08" y2="495.32" gradientTransform="translate(0 509.33) scale(1 -1)" gradientUnits="userSpaceOnUse"><stop offset="0" stop-color="#939fab"/><stop offset="1" stop-color="#dcdee1"/></linearGradient><radialGradient id="radial-gradient" cx="-2511.97" cy="3332.78" fx="-2511.97" fy="3332.78" r=".33" gradientTransform="translate(-17201.36 -101268.72) rotate(-169.7) scale(13.98 -28.97)" gradientUnits="userSpaceOnUse"><stop offset="0" stop-color="#ee352c"/><stop offset="1" stop-color="#a91d22"/></radialGradient></defs><rect class="cls-1" width="180" height="80"/><rect class="cls-1" width="180" height="80"/><g><path class="cls-2" d="M97.69,37.86l-12.84,4.2-11.17,4.92-3.13,.82c-.8,.75-1.63,1.52-2.53,2.31-.9,.79-1.91,1.63-2.61,2.2-.92,.76-1.78,1.6-2.55,2.52-.88,1.11-1.59,2.28-1.88,3.19-.53,1.63-.27,3.29,.75,4.81,1.31,1.94,3.94,3.93,7.02,5.27,2,.84,4.07,1.53,6.17,2.07,3.29,.83,9.65,1.73,13.16,1.88,.57,.03,1.13,.03,1.7,0,.08-.05,.63-1.09,1.25-2.37,2.15-4.39,3.7-8.53,4.55-12.04,.5-2.13,.9-4.98,1.17-8.35,.06-.95,.1-4.1,.03-5.16-.06-1.53-.22-3.05-.48-4.55-.04-.13-.05-.27-.03-.4,.03-.03,.16-.06,1.73-.53l-.32-.75v-.02Zm-2.93,1.71c.11,0,.43,2.98,.5,4.86,.02,.22,.02,.44-.02,.66-.08,0-1.63-.93-2.76-1.62-1.12-.69-2.82-1.83-3.11-2.07-.29-.24-.08-.08,.71-.35,1.38-.43,4.58-1.46,4.68-1.46v-.02Zm-6.54,2.15c.08,0,.3,.13,.85,.45,2,1.25,4.71,2.77,5.88,3.27,.35,.16,.4,.1-.43,.66-1.76,1.2-3.97,2.39-6.67,3.57l-.88,.38c.02-.18,.06-.36,.11-.53,.66-2.42,1.03-4.86,1.04-6.83q.02-.98,.1-.99c.08-.02-.02,.02,0,.02Zm-1.35,.51c.06,.06,.02,2.23-.06,2.82-.18,1.43-.48,2.84-.9,4.22-.06,.23-.14,.45-.22,.67-.03,.05-1.36-1.25-1.81-1.76-.7-.79-1.29-1.66-1.78-2.6-.22-.43-.58-1.3-.54-1.31,.03-.02,5.27-2.08,5.31-2.05l.02,.02Zm-6.35,2.5h.03c.06,.11,.11,.23,.14,.35,.42,1.03,.96,2,1.62,2.89,.66,.88,1.41,1.7,2.23,2.44l.48,.4c.06,.06,.08,.05-1.51,.66-1.83,.7-3.83,1.39-6.12,2.13l-1.63,.53c-.08,.03-.06-.02,.19-.42,1.14-1.78,2.87-5.26,3.83-7.73,.16-.43,.34-.85,.35-.95,.01-.06,.04-.11,.07-.15,.04-.04,.08-.08,.14-.1l.16-.03,.02-.02Zm-1.94,.8s-.46,1.06-.95,2c-.95,1.83-1.97,3.64-3.35,5.83l-.48,.77c-.05,.06-.06,.05-.22-.26-.35-.71-.6-1.47-.75-2.24-.14-.96-.12-1.93,.05-2.88,.13-.61,.11-.59,.4-.74,1.25-.63,5.26-2.52,5.31-2.47v-.02Zm16.73,.67v.4c-.02,2.44-.22,4.88-.58,7.29-.06,.38-.11,.69-.11,.7l-.61-.18c-1.55-.49-3.05-1.13-4.47-1.91-.95-.51-2.31-1.36-2.28-1.39l.9-.48c1.82-.94,3.59-1.98,5.31-3.11,.59-.4,1.49-1.04,1.68-1.22l.16-.11Zm-24.06,2.88s.03,.08-.03,.43c-.06,.35-.08,.72-.11,1.04-.08,1.41,.16,2.47,.85,3.89,.12,.24,.24,.49,.34,.74-.06,.06-6.49,1.94-8.51,2.5l-1.17,.32c-.06,.02-.08,.02-.05-.16,.22-1.43,1.31-3.29,2.82-4.86,1.01-1.04,1.81-1.67,3.19-2.45,.99-.56,2.52-1.41,2.63-1.44h.02l.03-.02Zm15.15,2.71l.53,.29c2.08,1.2,4.97,2.32,7.44,2.89l.22,.05-.3,.18c-1.3,.72-5.53,2.48-9.87,4.1l-1.36,.51-.22,.06,.4-.77c1.22-2.28,2.44-5.03,3.06-6.96,.08-.19,.13-.35,.13-.35h-.02Zm-1.54,.5c-.04,.15-.09,.3-.16,.45-.98,2.33-2.11,4.59-3.37,6.78-.35,.64-.66,1.15-.67,1.15l-.66-.38c-2.05-1.27-3.88-2.82-5.08-4.31l-.18-.21,.88-.24c2.91-.77,5.76-1.75,8.53-2.93l.71-.3Zm9.58,3.35c.02,.22-.48,2.23-.9,3.67-.42,1.44-.63,2.16-1.17,3.85-.24,.74-.43,1.35-.45,1.35l-.13-.03c-2.7-.47-5.34-1.21-7.89-2.21-.67-.27-1.65-.7-1.71-.75-.06-.05,.56-.29,1.3-.61,4.41-1.92,8.99-4.12,10.56-5.06,.11-.08,.23-.14,.35-.18l.03-.02Zm-22.15,.77s-1.22,1.79-2.93,4.22l-1.55,2.2c-.26,.37-.66,.95-.88,1.3l-.4,.62-.43-.37c-.65-.57-1.26-1.18-1.81-1.84-.83-1.04-1.39-2.13-1.62-3.14-.11-.46-.11-.7-.02-.72l5.16-1.22,3.46-.8,1.03-.24Zm1.23,.48l.3,.35c1.3,1.48,2.84,2.74,4.55,3.73,.19,.08,.38,.19,.54,.32-.06,.05-5.99,2.15-8.75,3.11l-2.82,.98-.19-.13-.18-.13,.29-.4c.91-1.31,2.05-2.77,4.55-5.77l1.71-2.07h-.02Zm7.76,5.53l.96,.34c1.18,.45,2.38,.82,3.61,1.12,1.79,.44,3.61,.76,5.45,.95,.21,.02,.34,.03,.29,.06-.05,.03-1.49,.51-2.55,.85-1.67,.53-6.76,2.04-10.91,3.22l-1.46,.42c-.15,0-.29-.04-.42-.11,.16-.23,.33-.45,.51-.66,1.41-1.69,2.72-3.45,3.93-5.29l.59-.9Zm-1.71,.05s-.67,1.12-1.88,3.01l-1.3,2.04-.66,1.07-.29,.5-.14-.03c-.35-.1-2.8-.96-3.46-1.22-.77-.31-1.53-.66-2.26-1.04-.77-.42-1.75-1.04-1.67-1.06l2.95-.8c4.25-1.15,6.6-1.83,8.16-2.31l.53-.14,.02-.02Zm12.08,2.84h.02c.03,.1-1.54,4.47-2.1,5.83-.13,.3-.18,.38-.24,.38l-3.83-.53c-2.42-.37-6.48-1.07-7.48-1.31l-.24-.05,1.44-.34c3.11-.7,4.6-1.07,6.11-1.54,1.96-.6,3.87-1.33,5.72-2.2,.2-.1,.41-.19,.62-.26h-.02Z"/><path class="cls-3" d="M84.45,7.94c-.21-.03-3.65,1.22-5.88,2.12-3,1.22-5.32,2.39-6.76,3.4-.53,.38-1.2,1.04-1.31,1.31-.04,.11-.06,.22-.06,.34l1.3,1.23,3.09,.99,7.37,1.31,8.43,1.44,.08-.72h-.06l-1.11-.18-.22-.4c-1.14-2.02-2.4-4.52-3.14-6.22-.55-1.27-1.03-2.58-1.41-3.91-.16-.66-.19-.71-.29-.71l-.02-.02Zm-.16,.5h.02s.05,.29,.08,.61c.17,1.39,.49,2.76,.95,4.09,.35,1.07,.35,1.01-.06,.88-.99-.27-5.42-1.04-8.64-1.49l-.95-.14s2.32-1.27,3.35-1.76c1.33-.61,4.98-2.13,5.26-2.18Zm-9.34,4.34l.38,.13c2.05,.71,7.23,1.68,10.08,1.92l.61,.06c-.19,.12-.4,.23-.61,.32-1.38,.69-2.88,1.54-3.94,2.18-.2,.14-.41,.25-.63,.35l-.45-.06-.38-.06-.98-.95c-1.71-1.67-3.05-2.93-3.56-3.43l-.53-.46Zm-.38,.3l1.36,1.71c.75,.95,1.51,1.86,1.67,2.07,.11,.12,.2,.25,.29,.38-.03,.03-1.99-.35-3.01-.58-1.03-.22-1.49-.35-2.15-.56l-.53-.18v-.13c.02-.66,.83-1.62,2.23-2.61l.13-.08,.02-.03Zm11.62,2.32s.08,.08,.21,.35c.34,.72,1.36,2.69,1.62,3.06,.08,.13,.21,.13-1.15-.08-3.29-.53-4.34-.71-4.34-.72l.22-.14c1.05-.59,2.04-1.27,2.97-2.05l.46-.38h.03l-.02-.03Z"/><path class="cls-4" d="M70.57,14.62c-.07,.13-.1,.28-.11,.42,0,.15,.03,.29,.09,.43,.13,.3,.5,.69,.91,1.07,0,0,4.31,4.22,4.84,4.81,2.39,2.76,3.43,5.47,3.53,9.22,.06,2.4-.4,4.52-1.54,6.97-2.02,4.41-6.28,9.26-12.85,14.67l.96-.32c.63-.46,1.46-.96,3.45-2.05,4.57-2.5,9.71-4.81,16.03-7.16,9.09-3.41,24.03-7.42,32.52-8.72l.88-.13-.13-.21c-.6-.95-1.25-1.86-1.96-2.74-1.86-2.31-4.12-4.18-6.89-5.74-3.8-2.13-8.72-3.78-14.95-5.02-1.17-.24-3.75-.67-5.85-.99-4.44-.69-7.32-1.17-10.48-1.71-1.14-.19-2.84-.48-3.96-.72-.87-.18-1.72-.41-2.56-.69-.71-.27-1.71-.54-1.92-1.36v-.02Zm2.5,2.44l.37,.11,1.41,.43,1.28,.34,1.07,.29c.06,.06,1.04,3.21,1.38,4.41,.13,.45,.22,.85,.21,.85-.09-.12-.18-.25-.24-.38-1.14-2.02-2.93-4.04-5-5.67-.17-.12-.33-.24-.48-.38v.02Zm4.78,1.31l.53,.08c1.65,.37,4.62,.93,6.51,1.25,.2,.02,.39,.06,.58,.13-.08,.07-.16,.12-.26,.16-.32,.16-1.62,.93-2.04,1.22-.98,.64-1.9,1.38-2.74,2.2l-.53,.51s-.06-.16-.11-.37c-.45-1.63-1.03-3.22-1.73-4.76-.07-.15-.14-.3-.19-.45t.02,.02l-.03,.02Zm8.4,1.6c.06,.02,.16,.35,.35,1.07,.36,1.45,.52,2.95,.46,4.44-.02,.4-.03,.79-.06,.83l-.03,.1-.5-.16c-1.04-.34-2.72-.82-4.17-1.23-.82-.22-1.49-.43-1.49-.45s1.2-1.27,1.71-1.71c.98-.87,3.64-2.92,3.72-2.88Zm.67,.1s4.02,.66,5.83,1.01c1.35,.26,3.3,.67,3.43,.72s-.14,.13-.8,.43c-2.22,.97-4.35,2.13-6.36,3.46l-.93,.61c-.02-.21-.02-.42-.02-.63,0-1.81-.35-3.6-1.04-5.27-.05-.11-.09-.22-.11-.34Zm10.32,2.04s-.1,.82-.21,1.28c-.35,1.44-1.3,3.59-2.45,5.61-.12,.23-.25,.45-.4,.66-.2-.09-.39-.19-.58-.3-1.22-.7-2.49-1.32-3.8-1.86l-.74-.32c-.06-.06,3.06-2.13,4.71-3.11,1.31-.8,3.45-1.99,3.48-1.94l-.02-.02Zm.74,.11c.08,0,1.86,.48,2.77,.75,2.25,.67,4.45,1.48,6.6,2.42l.71,.32-.5,.11c-3.82,.85-7.56,2.01-11.19,3.46l-.56,.21c.05-.17,.12-.34,.21-.5,1.04-2.2,1.71-4.5,1.88-6.46,.02-.19,.03-.34,.06-.34l.02,.02Zm-17.58,4.04s1.38,.29,2.1,.5c1.11,.3,3.46,1.09,3.46,1.15l-.58,.5c-1.27,1.06-2.5,2.18-3.96,3.59-.43,.42-.8,.75-.82,.75s-.03-.06-.02-.13c.22-1.63,.18-3.73-.13-5.85-.05-.27-.08-.5-.06-.51Zm28.35,.03c-.31,.55-.66,1.09-1.03,1.6-.58,.83-1.44,1.94-3.37,4.36l-2.55,3.21-.72,.9c-.1-.12-.19-.25-.27-.38-1.09-1.63-2.41-3.1-3.93-4.34l-.72-.58-.19-.16s1.65-.74,2.9-1.25c2.2-.9,5.18-1.96,7.42-2.64,1.17-.37,2.42-.72,2.45-.71Zm.75,.19c.2,.06,.39,.16,.56,.27,2.36,1.35,4.54,2.99,6.49,4.87,.51,.5,1.78,1.83,1.76,1.83l-.98,.08c-4.09,.3-9.31,1.17-14.34,2.39l-.66,.14s.35-.38,.83-.83c2.95-2.84,4.3-4.63,5.9-7.84l.43-.91Zm-21.64,2.21c.13,.03,1.39,.63,2.36,1.09s2.18,1.14,2.24,1.19l-1.03,.53c-1.83,.91-3.38,1.78-5.02,2.77l-.87,.51s-.03-.03,.24-.51c.9-1.68,1.57-3.47,1.97-5.34,.03-.14,.08-.24,.11-.24h-.02Zm-1.27,.24s-.3,1.22-.5,1.88c-.45,1.36-1.03,2.67-1.71,3.93l-.51,.9-.24,.38-.54-.53c-.53-.54-1.14-.99-1.81-1.33-.16-.07-.32-.17-.46-.27,0-.08,1.67-1.59,2.93-2.68,.91-.79,2.84-2.32,2.87-2.29l-.02,.02Zm7.73,3.17l.48,.3c1.16,.76,2.28,1.58,3.35,2.47,.56,.45,1.62,1.41,1.83,1.65l.11,.13-.79,.22c-4.44,1.23-7.89,2.32-11.89,3.8l-.85,.3c-.06,0-.11,.05,.9-.87,2.56-2.36,4.84-4.95,6.52-7.48l.34-.53Zm-2.04,.5s-1.31,1.89-2.1,2.95c-.79,1.06-2.64,3.38-3.8,4.76l-.93,1.06s-.03-.13-.03-.35c0-1.21-.29-2.4-.82-3.49-.22-.45-.26-.56-.21-.61,.05-.05,3.01-1.78,4.79-2.74,1.2-.64,3.09-1.59,3.11-1.57h-.02Zm-12.26,3.01l.5,.26c.59,.32,1.15,.7,1.67,1.12,.02,.02-.24,.22-.56,.46-.93,.66-2.32,1.71-3.14,2.37-.82,.66-.88,.71-.79,.56,.49-.72,.92-1.47,1.3-2.24,.31-.66,.59-1.34,.82-2.04,.04-.17,.1-.34,.19-.5h.02Zm3.27,2.56s.11,.08,.37,.46c.56,.85,.94,1.81,1.09,2.82v.19l-1.33,.51c-2.37,.93-4.57,1.83-6.06,2.52l-1.62,.77-.87,.42,.67-.5c2.9-2.1,5.42-4.41,7.29-6.73l.4-.48h.02l.03,.02Zm-1.51,.37s-1.07,1.3-1.83,2.05c-1.81,1.86-3.83,3.49-6.03,4.86l-.58,.37c-.06,.03,.02-.06,1.03-1.15,.64-.69,1.12-1.27,1.68-1.99,.26-.37,.59-.69,.98-.93,1.43-1.01,4.71-3.25,4.74-3.21Z"/></g></svg>