<?xml version="1.0" encoding="UTF-8"?><svg id="Layer_1" xmlns="http://www.w3.org/2000/svg" viewBox="0 0 180 80"><defs><style>.cls-1{fill:none;}.cls-2,.cls-3{fill:#3901f1;}.cls-3{fill-rule:evenodd;}</style></defs><rect class="cls-1" width="180" height="80"/><path class="cls-3" d="M44.95,40c0,8.27-6.7,14.97-14.97,14.97s-14.97-6.7-14.97-14.97,6.7-14.97,14.97-14.97,14.97,6.7,14.97,14.97ZM23.98,45.92h7.42c.11,0,.17-.14.11-.24l-6-7.43c-.09-.1-.23-.06-.26.06l-1.44,7.43c-.01.1.06.18.16.18ZM23.84,34.71h7.42c.1,0,.17.09.16.18l-1.44,7.43c-.03.11-.17.16-.26.06l-6-7.44c-.07-.09-.01-.23.11-.23ZM32.02,34.82c.01-.06.07-.11.14-.11h5.34c.09,0,.17.09.16.17l-1,4.83c-.01.07-.07.11-.14.11h-.16c-2.64,0-4.73-2.43-4.34-5Z"/><path class="cls-2" d="M56,33.67h5.33c.25,0,.42.14.36.42l-.31,1.72c1.06-1.53,2.58-2.44,4.14-2.44.78,0,1.61.31,2.06.72.25.25.25.39.08.64l-1.56,2.19c-.19.28-.33.25-.64.11-.31-.14-.69-.25-1.11-.25-1.86,0-3.42,1.22-4.14,4.92l-1.08,5.58c-.08.36-.36.44-.5.44h-2.83c-.22,0-.42-.19-.36-.44l2.11-10.72-1.78-2.5c-.14-.19-.03-.39.22-.39Z"/><path class="cls-2" d="M66.22,40.58c.72-4.36,3.92-7.22,8.08-7.22s6.22,3.36,5.61,7.03c-.14.94-.47,1.69-1.25,1.69h-9c.08,2.06,1.5,3.03,3.39,3.03,1.25,0,2.42-.47,3.31-1.06.22-.17.47-.25.64,0l1.03,1.61c.17.25.08.42-.17.64-1.33,1.22-3.5,1.78-5.47,1.78-4.44,0-6.86-3.28-6.17-7.5ZM76.69,39.64c.14-2.19-1.36-3.11-2.81-3.11-1.89,0-3.36,1.28-3.92,3.11h6.72Z"/><path class="cls-2" d="M93.36,47.39l3.22-16.45-1.58-2.11c-.08-.14.03-.33.22-.33h4.94c.28,0,.42.17.36.42l-1.44,7.25c1.11-1.67,2.78-2.81,4.72-2.81,3.11,0,4.89,2.67,4.22,5.94l-1.61,7.97c-.06.31-.31.44-.5.44h-2.92c-.28,0-.42-.17-.36-.44l1.44-7.19c.39-1.94-.14-3.14-1.33-3.14-2.22,0-3.97,2.5-4.72,6.03l-.94,4.42c-.03.17-.17.33-.36.33h-3.08c-.17,0-.31-.17-.28-.33Z"/><path class="cls-2" d="M109.03,40.75c.72-4.64,4-7.39,7.83-7.39,2.03,0,3.61.92,4.22,2.44l.33-1.69c.06-.31.28-.44.53-.44h2.69c.31,0,.42.19.36.44l-2.58,13.2c-.06.25-.22.42-.53.42h-2.72c-.25,0-.39-.14-.33-.42l.25-1.36c-1.28,1.44-2.86,2.17-4.58,2.17-3.92,0-6.11-3.25-5.47-7.36ZM115.61,44.75c2.25,0,3.92-1.89,4.25-4.11.33-2.22-.86-3.89-2.94-3.89-2.22,0-3.83,1.81-4.19,3.92-.36,2.14.72,4.08,2.89,4.08Z"/><path class="cls-2" d="M124.17,47.28l2.61-13.25c.06-.22.17-.36.33-.36h2.94c.25,0,.42.14.36.42l-.31,1.72c1.06-1.53,2.58-2.44,4.14-2.44.78,0,1.61.31,2.06.72.25.25.25.39.08.64l-1.56,2.19c-.19.28-.33.25-.64.11-.31-.14-.69-.25-1.11-.25-1.86,0-3.42,1.22-4.14,4.92l-1.08,5.58c-.08.36-.36.44-.5.44h-2.83c-.22,0-.42-.19-.36-.44Z"/><path class="cls-2" d="M133.86,51.75c-.17-.14-.17-.36-.06-.56l1.31-2.06c.14-.22.36-.28.53-.14,1.28.81,2.53,1.31,4.06,1.31,2.67,0,4.89-1.08,5.67-4.67-1.47,1.39-2.83,2.06-4.89,2.06-4.03,0-6.14-3.39-5.47-7.17.75-4.28,3.94-7.17,7.97-7.17,2.22,0,3.75,1.25,4.22,2.28l.33-1.53c.06-.31.25-.44.47-.44h2.72c.28,0,.42.17.36.44l-2.28,11.61c-1,5.06-4.5,7.69-9.25,7.69-2,0-4.25-.5-5.69-1.67ZM141.53,44.45c2.25,0,3.92-1.81,4.25-3.94.33-2.14-.86-3.75-2.94-3.75-2.22,0-3.83,1.75-4.19,3.78-.36,2.06.72,3.92,2.89,3.92Z"/><path class="cls-2" d="M151.2,40.58c.72-4.36,3.92-7.22,8.08-7.22s6.22,3.36,5.61,7.03c-.14.94-.47,1.69-1.25,1.69h-9c.08,2.06,1.5,3.03,3.39,3.03,1.25,0,2.42-.47,3.31-1.06.22-.17.47-.25.64,0l1.03,1.61c.17.25.08.42-.17.64-1.33,1.22-3.5,1.78-5.47,1.78-4.44,0-6.86-3.28-6.17-7.5ZM161.67,39.64c.14-2.19-1.36-3.11-2.81-3.11-1.89,0-3.36,1.28-3.92,3.11h6.72Z"/><path class="cls-2" d="M87.15,48.11c1.86,0,3.69-.53,5.36-2.11.25-.22.28-.53.11-.69l-1.53-1.69c-.14-.17-.36-.17-.56-.03-.64.47-1.67,1.03-2.89,1.03-2.19,0-3.42-1.72-3.14-3.89.28-2.14,1.97-3.86,4.11-3.86,1.17,0,1.92.42,2.75,1.25.22.22.36.22.61.03l1.97-1.69c.19-.17.25-.36.11-.58-1.19-1.69-3.06-2.5-5.11-2.5-4.14,0-7.5,3.08-8.06,7.17-.61,4.44,2.33,7.58,6.25,7.58Z"/></svg>