<svg id="Layer_1" data-name="Layer 1" xmlns="http://www.w3.org/2000/svg" viewBox="0 0 180 80"><defs><style>.cls-1{fill:none;}.cls-2{fill:#426da9;}.cls-3{fill:#6d2077;}.cls-4{fill:#af1685;}.cls-5{fill:#e63888;}.cls-6{fill:#004691;}.cls-7{fill:#1d4f91;}</style></defs><rect class="cls-1" width="180" height="80"/><path class="cls-2" d="M36.78,26.68h-5.7A3.07,3.07,0,0,1,28,23.61h0v-5.7a3.07,3.07,0,0,1,3.07-3.07h5.7a3.06,3.06,0,0,1,3.07,3.07v5.7a3.06,3.06,0,0,1-3.07,3.07"/><path class="cls-3" d="M22,39.46H15.62A3.45,3.45,0,0,1,12.16,36h0V29.6a3.46,3.46,0,0,1,3.46-3.46H22a3.45,3.45,0,0,1,3.45,3.46V36A3.44,3.44,0,0,1,22,39.46h0"/><path class="cls-4" d="M21.42,52.78H17.5a2.11,2.11,0,0,1-2.11-2.11h0V46.75a2.11,2.11,0,0,1,2.11-2.11h3.92a2.1,2.1,0,0,1,2.11,2.11v3.92a2.11,2.11,0,0,1-2.11,2.11h0"/><path class="cls-5" d="M31.94,65.16H27.31a2.5,2.5,0,0,1-2.5-2.49h0V58a2.49,2.49,0,0,1,2.5-2.49h4.63A2.49,2.49,0,0,1,34.44,58v4.64a2.49,2.49,0,0,1-2.5,2.49M48.92,29H45.71A1.73,1.73,0,0,1,44,27.29V24.08a1.74,1.74,0,0,1,1.73-1.73h3.21a1.73,1.73,0,0,1,1.72,1.73v3.21A1.72,1.72,0,0,1,48.92,29"/><path class="cls-6" d="M119.16,31.16A1.85,1.85,0,0,0,121,29.31h0a1.85,1.85,0,1,0-1.85,1.85Z"/><path class="cls-7" d="M51.64,50.89a1.45,1.45,0,0,1-1.25.64,1.82,1.82,0,0,1-.86-.21A1.64,1.64,0,0,1,48.85,50a1.22,1.22,0,0,1,.22-.71l4.29-6.76-4.29-6.76a1.4,1.4,0,0,1-.22-.75,1.48,1.48,0,0,1,.72-1.29,1.6,1.6,0,0,1,2.07.43l3.5,5.55,3.54-5.55A1.53,1.53,0,0,1,60,33.51a1.56,1.56,0,0,1,.79.21A1.49,1.49,0,0,1,61.47,35a1.42,1.42,0,0,1-.21.75L57,42.52l4.29,6.76a1.28,1.28,0,0,1,.21.71,1.61,1.61,0,0,1-.68,1.33,1.78,1.78,0,0,1-.85.21,1.48,1.48,0,0,1-1.26-.64l-3.54-5.51Zm15.3-15.27a9.24,9.24,0,0,1,15.41,6.81v.09a9.24,9.24,0,0,1-15.41,6.83v7.9a1.52,1.52,0,0,1-3,0V34.87a1.52,1.52,0,0,1,3,0v.75Zm6.15.71a6.17,6.17,0,1,0,6.19,6.19,6.12,6.12,0,0,0-6.19-6.19Zm35.44,4.51V50.1a1.55,1.55,0,0,1-1.5,1.47,1.53,1.53,0,0,1-1.54-1.47V34.87A1.53,1.53,0,0,1,107,33.4a1.58,1.58,0,0,1,1.5,1.4,7.76,7.76,0,0,1,4.61-1.54,1.62,1.62,0,0,1,1.68,1.5,1.66,1.66,0,0,1-1.68,1.57C110.75,36.41,108.53,37.26,108.53,40.84Zm10.65-7.44a1.53,1.53,0,0,0-1.53,1.47V50.1a1.53,1.53,0,0,0,1.53,1.47,1.56,1.56,0,0,0,1.51-1.47V34.87A1.56,1.56,0,0,0,119.18,33.4Zm19.42,1.47a1.53,1.53,0,0,1,1.54-1.47,1.55,1.55,0,0,1,1.5,1.47V50.1a1.55,1.55,0,0,1-1.5,1.47,1.53,1.53,0,0,1-1.54-1.47v-.75a9.24,9.24,0,0,1-15.41-6.81v-.09a9.24,9.24,0,0,1,15.41-6.83v-.75Zm-6.15,13.76a6.17,6.17,0,0,0,.09-12.33h-.09a6.17,6.17,0,1,0,0,12.33ZM157.12,41a4.87,4.87,0,0,0-4.75-4.76c-2.47,0-4.76,1-4.76,4.58V50.1a1.55,1.55,0,0,1-1.5,1.47,1.53,1.53,0,0,1-1.54-1.47V34.87a1.54,1.54,0,0,1,1.54-1.47,1.58,1.58,0,0,1,1.5,1.4,7.63,7.63,0,0,1,4.72-1.54c4.15,0,7.83,3.25,7.83,7.33V50.1a1.52,1.52,0,0,1-3,0V41ZM48,42a9.23,9.23,0,1,0-9.28,9.76h.09a9.07,9.07,0,0,0,6.4-2.61A1.6,1.6,0,0,0,45.75,48a1.56,1.56,0,0,0-1.53-1.53A1.78,1.78,0,0,0,43,47a5.65,5.65,0,0,1-4.18,1.6,6.12,6.12,0,0,1-6.12-5H46.65l.16,0A1.67,1.67,0,0,0,48,42ZM38.82,36.3a6.11,6.11,0,0,1,5.86,4.26H32.92A6.12,6.12,0,0,1,38.82,36.3ZM102.92,42a9.24,9.24,0,1,0-9.28,9.76h.09a9.07,9.07,0,0,0,6.4-2.61,1.6,1.6,0,0,0,.53-1.15,1.56,1.56,0,0,0-1.53-1.53,1.78,1.78,0,0,0-1.22.61,5.67,5.67,0,0,1-4.18,1.6,6.12,6.12,0,0,1-6.12-5h13.88l.12,0h.06A1.66,1.66,0,0,0,102.92,42ZM93.73,36.3a6.11,6.11,0,0,1,5.86,4.26H87.83A6.12,6.12,0,0,1,93.73,36.3Zm69.65,15.28a.25.25,0,0,1-.25-.25h0V48.75h-.58a.25.25,0,0,1-.24-.25h0a.23.23,0,0,1,.24-.25h1.67a.25.25,0,0,1,0,.5h-.58v2.58a.25.25,0,0,1-.25.25Zm3,0a.26.26,0,0,1-.25-.2l-.72-2.11v2.06a.25.25,0,0,1-.24.25h0a.26.26,0,0,1-.26-.25h0V48.61a.39.39,0,0,1,.38-.38.42.42,0,0,1,.37.28l.73,2.13.72-2.13a.38.38,0,0,1,.75.1v2.72a.25.25,0,0,1-.25.25h0a.25.25,0,0,1-.25-.25h0v-2l-.42,1.25-.29.86a.27.27,0,0,1-.25.19Z"/></svg>