<?xml version="1.0" encoding="UTF-8"?><svg id="Layer_1" xmlns="http://www.w3.org/2000/svg" viewBox="0 0 180 80"><defs><style>.cls-1{fill:none;}.cls-2{fill:#fff;fill-rule:evenodd;}.cls-3{fill:#ff6720;}</style></defs><rect class="cls-1" width="180" height="80"/><path class="cls-3" d="M35.3,20l-6.7,4.4v23.6h0c0,2.2-1.1,4.2-2.8,5.4-1.6-1.3-2.5-3.3-2.5-5.4v-1.3c0-1.3-1.3-2.7-1.3-4,0-.9.6-1.9,1-2.8.2-.4.3-.8.3-1.2,0-1.5-1.2-2.7-2.7-2.7s-2.6,1.2-2.6,2.7c0,.4.1.9.3,1.2.4.9,1,1.9,1,2.8,0,1.3-1.3,2.7-1.3,4v1.3c0,2.4.7,4.6,2,6.4-2.7-.9-4.7-3.4-4.7-6.4h0v-1.3c0-1.3-1.3-2.7-1.3-4,0-.9.6-1.9,1-2.8.2-.4.3-.8.3-1.2,0-1.5-1.2-2.7-2.7-2.7-1.4,0-2.6,1.2-2.6,2.7,0,.4.1.9.3,1.2.4.9,1,1.9,1,2.8,0,1.3-1.3,2.7-1.3,4v1.3h0c0,6.6,5.4,12,12,12s12-5.4,12-12h0v-21l1.3-.9,1.4.9v20.7c0,4.4-1.3,8.9-6.4,12,5.2,0,11.6-5.8,11.7-13.3v-22l-6.7-4.4Z"/><circle class="cls-3" cx="20.7" cy="31.4" r="2.7"/><circle class="cls-3" cx="20.7" cy="24.2" r="2.7"/><circle class="cls-3" cx="12.7" cy="31.5" r="2.7"/><circle class="cls-3" cx="12.7" cy="24.3" r="2.7"/><path id="SVGID" class="cls-2" d="M102.9,35h-3.1v3.9h3.1c1.3,0,2.1-.8,2.1-2s-.9-1.9-2.1-1.9ZM129.8,34.7c-1.3,0-2.2.6-2.6,1.9-.2.5-.3,1.2-.3,3.4s.1,2.9.3,3.4c.4,1.2,1.3,1.9,2.6,1.9s2.2-.6,2.6-1.9c.2-.5.3-1.2.3-3.4s-.1-2.9-.3-3.4c-.3-1.3-1.2-1.9-2.6-1.9ZM169.6,32.2c.2,0,.4.2.4.4v1.9c0,.2-.2.4-.4.4h-6.8v3.6h5.7c.2,0,.4.2.4.4v1.9c0,.2-.2.4-.4.4h-5.7v3.7h6.8c.2,0,.4.2.4.4v1.9c0,.2-.2.4-.4.4h-9.4c-.2,0-.4-.2-.4-.4v-14.6c0-.2.2-.4.4-.4,0,0,9.4,0,9.4,0ZM141.8,32.2c.2,0,.4.2.4.4v14.7c0,.2-.2.4-.4.4h-2.2c-.2,0-.4-.2-.4-.4v-14.7c0-.2.2-.4.4-.4h2.2ZM112.3,32.2c.2,0,.4.1.5.4l3.2,10.3,3.1-10.3c.1-.2.2-.3.5-.3h2.1c.1,0,.2.1.3.1.1.1.1.2,0,.3l-4.8,14.7c-.1.2-.2.3-.4.3h-1.8c-.2,0-.4-.1-.4-.3l-4.7-14.7v-.3c.1-.1.2-.1.3-.1l2.1-.1h0ZM102.9,32.2c2.9,0,5,2,5,4.7,0,1.9-1,3.5-2.8,4.3l3.1,6c.1.1.1.3,0,.4s-.2.2-.3.2h-2.4c-.2,0-.4-.1-.5-.3l-2.8-5.8h-2.4v5.7c0,.2-.2.4-.4.4h-2.2c-.2,0-.4-.2-.4-.4v-14.8c0-.2.2-.4.4-.4h5.7ZM93,32.2c.2,0,.4.2.4.4v1.9c0,.2-.2.4-.4.4h-6.8v3.6h5.7c.2,0,.4.2.4.4v1.9c0,.2-.2.4-.4.4h-5.7v3.7h6.8c.2,0,.4.2.4.4v1.9c0,.2-.2.4-.4.4h-9.4c-.2,0-.4-.2-.4-.4v-14.6c0-.2.2-.4.4-.4h9.4ZM151.5,32c2.4,0,4.3,1.2,5.2,3.4.1.2,0,.4-.2.5l-1.9.9c-.1.1-.2.1-.3,0-.1,0-.2-.1-.2-.2-.6-1.2-1.4-1.8-2.6-1.8-1.3,0-2.1.6-2.5,1.9-.2.6-.3,1.2-.3,3.4v.3c0,2,.1,2.6.3,3.1.4,1.3,1.3,1.9,2.5,1.9s2.1-.6,2.6-1.9c0-.1.1-.2.2-.2h.3l1.9.9c.2.1.3.3.2.5-.9,2.1-2.8,3.4-5.2,3.4-2.7,0-4.6-1.4-5.4-3.8-.3-1-.4-1.8-.4-4.2v-.3c0-2.1.1-2.9.4-3.9.8-2.5,2.7-3.9,5.4-3.9ZM74.2,32c1.8,0,3.7.6,5,1.6.2.2.2.3.1.6l-1.1,1.6c-.2.2-.4.2-.5.1-1.2-.8-2.3-1.2-3.5-1.2-1.3,0-2.2.7-2.2,1.8,0,.7.3,1.5,2.6,1.9l.8.1c3.1.4,4.6,2,4.6,4.6,0,3-2.2,4.9-5.8,4.9-2.1,0-4.3-.8-5.6-2.1-.2-.2-.2-.4-.1-.6l1.4-1.6c.1-.1.2-.1.3-.1s.2,0,.3.1c.9.7,2.3,1.6,4,1.6,1.6,0,2.6-.8,2.6-2,0-.8-.3-1.6-2.6-1.9l-.8-.1c-3.1-.4-4.7-2-4.7-4.5-.1-2.9,2.1-4.8,5.2-4.8ZM56.6,32.2c.2,0,.4.2.4.4v9.6c0,1.9,1,3.1,2.7,3.1s2.8-1.2,2.8-3.1v-9.6c0-.2.2-.4.4-.4h2.1c.2,0,.4.2.4.4v9.6c0,3.4-2.3,5.7-5.7,5.7s-5.7-2.3-5.7-5.7v-9.6c0-.2.2-.4.4-.4h2.2ZM129.8,32c2.8,0,4.7,1.3,5.5,3.8.3,1,.4,1.8.4,4.2s-.1,3.2-.4,4.2c-.8,2.4-2.7,3.8-5.5,3.8s-4.7-1.3-5.5-3.8c-.3-1-.4-1.8-.4-4.2v-.3c0-2.2.1-3,.4-3.9.9-2.5,2.8-3.8,5.5-3.8Z"/></svg>