<svg id="Layer_1" data-name="Layer 1" xmlns="http://www.w3.org/2000/svg" viewBox="0 0 180 80"><defs><style>.cls-1{fill:none;}</style></defs><rect class="cls-1" width="180" height="80"/><rect class="cls-1" width="180" height="80"/><path d="M28.12,23.25l1.55,2.69a1.89,1.89,0,0,1,0,1.79l-9.21,16,4.36,7.53a3.8,3.8,0,0,0,6.61,0l4.35-7.53-1.14-2L29.7,50.2a1.79,1.79,0,0,1-1.55.9,1.74,1.74,0,0,1-1.54-.9l-3.8-6.51,8.55-14.82,1.55,2.69a1.84,1.84,0,0,1,0,1.79L27,43.69l1.17,2,6.49-11.24,4.26,7.38a3.75,3.75,0,0,1,0,3.67L34.54,53a7.43,7.43,0,0,1-6.42,3.71A7.51,7.51,0,0,1,21.7,53l-4.32-7.5a3.7,3.7,0,0,1,0-3.67Z"/><path d="M48.22,31.25h3V48.94h-3Z"/><circle cx="55.23" cy="32.73" r="1.76"/><path d="M53.72,36.65h3V48.94h-3Z"/><path d="M64.68,36.34a6,6,0,0,0-6.21,6.24c0,3.83,2.41,6.17,6.24,6.17,1.51,0,3.12.78,3.12,2.47s-1.36,2.66-3.12,2.66-3.21-1.05-3.21-2.66h-3c0,3.31,2.66,5.5,6.24,5.5s6.14-2.1,6.14-5.5a4.14,4.14,0,0,0-2.53-4.07,4.91,4.91,0,0,0,2.6-4.6A6,6,0,0,0,64.68,36.34Zm0,9.91a3.39,3.39,0,0,1-3.21-3.67,3.23,3.23,0,1,1,6.39,0A3.4,3.4,0,0,1,64.71,46.25Z"/><path d="M79.68,36.34a4.58,4.58,0,0,0-3.82,1.82V31.22h-3V48.91h3V42.67a3.12,3.12,0,0,1,3-3.33c1.61,0,2.78.95,2.78,3.18v6.39h3V42.3C84.72,38.69,83.17,36.34,79.68,36.34Z"/><path d="M92.06,46.84a1,1,0,0,1-.86-.37,2,2,0,0,1-.28-1.17V39.24h2.44l.28-2.62H91V33.25l-3,.34v3.06H85.58v2.62H87.9v6.12a4.19,4.19,0,0,0,.89,2.87,3.4,3.4,0,0,0,2.63,1A5.12,5.12,0,0,0,93,49a4.57,4.57,0,0,0,1.39-.65l-1-1.94A2.15,2.15,0,0,1,92.06,46.84Z"/><path d="M104.51,42.33a8.69,8.69,0,0,0-4.11-1c-.83-.06-2.1-.24-2.1-1.32,0-.78.8-1.21,2.26-1.21a4.23,4.23,0,0,1,3,1.08l1.7-2a6.66,6.66,0,0,0-4.82-1.61c-2.25,0-5.21,1-5.21,3.83A3.35,3.35,0,0,0,96.91,43a9.61,9.61,0,0,0,3.89,1c.87.09,2.29.31,2,1.51-.15.83-1.17,1.08-1.88,1.11a8.69,8.69,0,0,1-2.32-.21,7.58,7.58,0,0,1-2.16-1L94.94,47.3a1.15,1.15,0,0,1,.18.16,8.54,8.54,0,0,0,7.23,1.6,4.08,4.08,0,0,0,3.49-3.83A3.06,3.06,0,0,0,104.51,42.33Z"/><path d="M114.48,36.34a4.89,4.89,0,0,0-4,1.95l-.1-1.67h-2.93V54.31l3-.34V47.49c.86,1.32,2.75,1.76,4,1.76,3.92,0,6.21-2.94,6.21-6.49a6.12,6.12,0,0,0-6.27-6.42Zm-.25,10.28a3.64,3.64,0,0,1-3.45-3.79c0-1.92,1.29-4,3.45-4s3.46,2.07,3.46,4A3.62,3.62,0,0,1,114.23,46.62Z"/><path d="M124.7,43.87a3.67,3.67,0,0,0,3.83,2.72,5.31,5.31,0,0,0,3.3-1.26l1.95,1.91a7.64,7.64,0,0,1-5.28,2,6.22,6.22,0,0,1-6.61-6.46,6.31,6.31,0,0,1,6.39-6.42c3.71,0,6.79,2.53,6.49,7.53Zm7.13-2.31a3.68,3.68,0,0,0-3.55-2.72,3.73,3.73,0,0,0-3.58,2.72Z"/><path d="M138.72,43.87a3.67,3.67,0,0,0,3.83,2.72,5.31,5.31,0,0,0,3.3-1.26l2,1.91a7.64,7.64,0,0,1-5.28,2,6.22,6.22,0,0,1-6.61-6.46,6.31,6.31,0,0,1,6.39-6.42c3.7,0,6.79,2.53,6.48,7.53Zm7.16-2.31a3.68,3.68,0,0,0-3.55-2.72,3.72,3.72,0,0,0-3.58,2.72Z"/><path d="M156.1,49.25a4.89,4.89,0,0,0,4-2l.1,1.64h2.93V31.25h-3V38.1c-.86-1.33-2.78-1.73-4.07-1.73-3.92,0-6.18,2.9-6.18,6.49a6.11,6.11,0,0,0,6.27,6.39ZM156.32,39a3.64,3.64,0,0,1,3.45,3.79c0,1.92-1.29,4-3.45,4s-3.46-2.07-3.46-4A3.64,3.64,0,0,1,156.32,39Z"/></svg>