<?xml version="1.0" encoding="UTF-8"?><svg id="Layer_1" xmlns="http://www.w3.org/2000/svg" viewBox="0 0 180 80"><defs><style>.cls-1{fill:none;}.cls-2{fill:#fff;}</style></defs><rect class="cls-1" width="180" height="80"/><path class="cls-2" d="M52.23,55.06l-8.89-31.03c-.14-.44-.48-.8-.91-.96-.53-.2-1.12-.09-1.54.28l-12.5,10.95-12.52-10.92c-.38-.33-.89-.46-1.38-.35-.53.15-.94.56-1.08,1.09l-8.88,30.95c-.16.51-.04,1.07.32,1.47.36.39.9.57,1.42.47l22.13-4.16,22.13,4.16c.84.12,1.63-.46,1.75-1.31.03-.22.02-.44-.04-.65ZM38.15,29.09l-4.76,9.55-3.09-2.7,7.85-6.84ZM26.48,35.96l-3.09,2.7-4.76-9.56,7.85,6.86ZM15.03,27.47l6.41,12.91-13.47,11.78,7.06-24.68ZM9.94,53.73l12.65-11.03,3.95,7.95-16.61,3.08ZM24.53,40.95l3.86-3.36,3.86,3.36-3.86,7.72-3.86-7.72ZM30.22,50.61l3.95-7.95,12.7,11.11-16.65-3.17ZM35.34,40.37l6.39-12.86,7.04,24.58-13.43-11.72Z"/><path class="cls-2" d="M68.31,44.53l-4.48-7.88v11.45c0,.16-.13.29-.29.29h-2.19c-.16,0-.29-.13-.29-.29h0v-16.41c0-.16.13-.29.29-.29h2.46c.11,0,.21.06.25.15l5.41,10.04,5.45-10.04c.05-.1.15-.15.25-.15h2.45c.16,0,.29.13.29.29h0v16.41c0,.16-.13.29-.29.29h-2.13c-.16,0-.29-.13-.29-.29h0v-11.45l-4.47,7.88c-.05.09-.15.15-.25.15h-1.94c-.1,0-.19-.06-.24-.15Z"/><path class="cls-2" d="M80.57,44.58c0-2.6,2.02-4.27,5.65-4.27h2.6v-.6c0-1.85-1.26-2.09-4.29-1.85-.77.15-1.52.41-2.22.77-.14.07-.3.01-.37-.12-.01-.03-.02-.06-.03-.09-.07-.58-.14-1.23-.19-1.63-.02-.11.04-.21.13-.26,1.39-.63,2.9-.97,4.43-.98,3.66,0,5.31,1.21,5.31,4.73v7.8c0,.16-.13.29-.29.29h-1.48c-.07,0-.13-.02-.19-.07l-.82-.73c-.97.78-2.2,1.18-3.44,1.12-2.67,0-4.8-1.4-4.8-4.09ZM88.82,45.15v-2.6h-2.5c-2.11,0-2.93.73-2.93,1.99s.93,1.82,2.38,1.82c1.1.07,2.19-.31,3-1.07.04-.04.06-.09.06-.14Z"/><path class="cls-2" d="M97.56,48.19l-4.19-11.99c-.06-.15.02-.31.17-.37.03-.01.07-.02.1-.02h2.36c.13,0,.24.08.28.2l3.09,9.53,3.17-9.53c.04-.12.15-.2.28-.2h2.32c.15,0,.28.12.29.27,0,.03,0,.07-.02.1l-4.18,12c-.04.12-.15.19-.27.19h-3.09c-.13.01-.26-.07-.3-.19Z"/><path class="cls-2" d="M109.67,43.18c.19,2.23,1.54,3.21,3.86,3.21,1.16-.02,2.3-.29,3.35-.77.12-.06.26,0,.32.12.01.02.02.05.02.08l.22,1.79c.02.12-.05.24-.15.29-1.23.57-2.58.84-3.94.79-4.49,0-6.6-2.79-6.6-6.6s2.23-6.55,5.82-6.55,5.82,2.74,5.82,6.65v.73c0,.16-.13.29-.29.29h-8.5l.05-.02ZM115.54,40.95c-.22-2.13-1.31-3.15-2.93-3.15s-2.74,1-2.93,3.15h5.87Z"/><path class="cls-2" d="M123.9,38.51v9.58c0,.16-.13.29-.29.29h-2.19c-.16,0-.29-.13-.29-.29v-11.98c0-.16.13-.29.29-.29h1.5c.08,0,.15.03.2.08l.7.87c.88-.82,2.04-1.27,3.24-1.24,3.17,0,5.15,1.99,5.15,5.78v6.79c0,.16-.13.29-.29.29h-2.17c-.16,0-.29-.13-.29-.29v-6.84c0-2.4-.9-3.47-2.81-3.47-.97-.04-1.94.2-2.77.7Z"/><path class="cls-2" d="M152.74,38.49v9.6c0,.16-.13.29-.29.29h-2.19c-.16,0-.29-.13-.29-.29v-12c0-.16.13-.29.29-.29h1.5c.08,0,.15.03.2.08l.7.87c.89-.82,2.07-1.26,3.27-1.21,3.17,0,5.17,1.99,5.17,5.78v6.81c0,.16-.13.29-.29.29h-2.19c-.16,0-.29-.13-.29-.29v-6.87c0-2.4-.9-3.47-2.81-3.47-.98-.05-1.96.19-2.8.7Z"/><path class="cls-2" d="M167.21,41.86v6.23c0,.16-.13.29-.29.29h-2.19c-.16,0-.29-.13-.29-.29v-17.12c0-.16.13-.29.29-.29h2.19c.16,0,.29.13.29.29v9.99l4.7-5.03c.05-.06.13-.09.21-.09h2.64c.16,0,.29.12.29.28,0,.08-.03.15-.08.21l-4.8,5.1,5.31,6.49c.1.12.09.3-.03.4-.05.05-.12.07-.19.07h-2.73c-.09,0-.17-.04-.22-.11l-5.08-6.41Z"/><path class="cls-2" d="M139.5,48.44c-2.57,0-4.41-1.34-4.41-4.57v-13.19c0-.16.13-.29.29-.29h2.19c.16,0,.29.13.29.29v13.04c0,1.81.63,2.51,2.06,2.51.29,0,.77-.05,1.12-.07.13-.01.25.08.26.22,0,0,0,.02,0,.02v1.67c0,.14-.1.27-.25.29-.51.06-1.03.1-1.54.09Z"/><path class="cls-2" d="M146.6,48.11c0,.16-.13.29-.29.29h-2.19c-.16,0-.29-.13-.29-.29h0v-12.04c0-.16.13-.29.29-.29h2.19c.16,0,.29.13.29.29h0v12.04Z"/><path class="cls-2" d="M145.23,30.53c.79-.12,1.53.43,1.65,1.22.02.14.02.29,0,.43-.06.91-.85,1.6-1.76,1.54-.82-.06-1.48-.71-1.54-1.54-.12-.79.43-1.53,1.22-1.65.14-.02.28-.02.43,0Z"/></svg>