<svg id="Layer_1" data-name="Layer 1" xmlns="http://www.w3.org/2000/svg" viewBox="0 0 180 80"><defs><style>.cls-1{fill:none;}.cls-2{fill:#717592;}.cls-2,.cls-3{fill-rule:evenodd;}.cls-3{fill:#6abf4b;}</style></defs><rect class="cls-1" width="180" height="80"/><rect class="cls-1" width="180" height="80"/><g id="Page-1"><g id="_20200729-OneTrust-RGB-Color" data-name="20200729-OneTrust-RGB-Color"><path id="Fill-1" class="cls-2" d="M12.08,57.29h.42a1.39,1.39,0,0,0,.87-.23.83.83,0,0,0,.29-.68.82.82,0,0,0-.24-.65,1.15,1.15,0,0,0-.76-.22h-.58Zm2.86-.95a1.82,1.82,0,0,1-.6,1.47,2.61,2.61,0,0,1-1.72.51h-.54v2.13H10.81v-6h1.91a2.48,2.48,0,0,1,1.65.47,1.68,1.68,0,0,1,.57,1.39Z"/><path id="Fill-2" class="cls-2" d="M17.75,57.13h.41a1.57,1.57,0,0,0,.88-.2.74.74,0,0,0,.29-.63.68.68,0,0,0-.29-.61,1.8,1.8,0,0,0-.91-.18h-.38Zm0,1v2.29H16.48v-6h1.74a3,3,0,0,1,1.8.44,1.76,1.76,0,0,1,.3,2.28,2,2,0,0,1-.82.65c.89,1.34,1.48,2.2,1.75,2.6h-1.4l-1.43-2.29Z"/><polygon id="Fill-3" class="cls-2" points="22.42 60.45 23.68 60.45 23.68 54.48 22.42 54.48 22.42 60.45"/><path id="Fill-4" class="cls-2" d="M29,54.48h1.28l-2,6H26.88l-2-6h1.28L27.26,58c.06.21.12.45.19.73a5,5,0,0,1,.12.58A11.78,11.78,0,0,1,27.88,58L29,54.48"/><path id="Fill-5" class="cls-2" d="M34.38,58l-.68-2.18c-.05-.17-.09-.3-.11-.4-.09.35-.34,1.21-.77,2.58Zm.73,2.49L34.68,59H32.5l-.43,1.42H30.71l2.1-6h1.55l2.11,6Z"/><path id="Fill-6" class="cls-2" d="M40.18,55.45a1.28,1.28,0,0,0-1.11.53,2.52,2.52,0,0,0-.39,1.5c0,1.33.5,2,1.5,2a4.65,4.65,0,0,0,1.52-.31v1.06a4.1,4.1,0,0,1-1.64.31,2.52,2.52,0,0,1-2-.79,3.35,3.35,0,0,1-.69-2.27,3.65,3.65,0,0,1,.34-1.63,2.35,2.35,0,0,1,1-1.07,2.87,2.87,0,0,1,1.49-.38,4,4,0,0,1,1.75.42l-.41,1c-.22-.1-.45-.2-.68-.28a1.91,1.91,0,0,0-.66-.11"/><polyline id="Fill-7" class="cls-2" points="45.25 56.94 46.49 54.48 47.86 54.48 45.88 58.12 45.88 60.45 44.62 60.45 44.62 58.16 42.64 54.48 44.01 54.48 45.25 56.94"/><path id="Fill-8" class="cls-2" d="M50.15,59.57a12.09,12.09,0,0,1-.72,2h-.9a19.54,19.54,0,0,0,.41-2.05h1.15l.06.1"/><path id="Fill-9" class="cls-2" d="M58,58.79a1.53,1.53,0,0,1-.58,1.27,2.54,2.54,0,0,1-1.62.47,3.79,3.79,0,0,1-1.69-.36V59a6.4,6.4,0,0,0,1,.38,2.8,2.8,0,0,0,.77.11,1.06,1.06,0,0,0,.64-.16.52.52,0,0,0,.22-.47.48.48,0,0,0-.1-.31,1.1,1.1,0,0,0-.29-.27c-.12-.08-.38-.21-.77-.4a4,4,0,0,1-.82-.49,2.09,2.09,0,0,1-.44-.55,1.58,1.58,0,0,1-.16-.74,1.52,1.52,0,0,1,.54-1.24,2.17,2.17,0,0,1,1.48-.46,3.68,3.68,0,0,1,.89.11,7.8,7.8,0,0,1,.88.31l-.41,1a5.52,5.52,0,0,0-.79-.28,2.54,2.54,0,0,0-.61-.07.82.82,0,0,0-.55.16.62.62,0,0,0-.12.73,1.16,1.16,0,0,0,.25.24,6.66,6.66,0,0,0,.8.42,3.23,3.23,0,0,1,1.15.8,1.56,1.56,0,0,1,.31,1"/><polyline id="Fill-10" class="cls-2" points="62.92 60.45 59.48 60.45 59.48 54.48 62.92 54.48 62.92 55.52 60.75 55.52 60.75 56.83 62.77 56.83 62.77 57.86 60.75 57.86 60.75 59.4 62.92 59.4 62.92 60.45"/><path id="Fill-11" class="cls-2" d="M67.12,55.45A1.28,1.28,0,0,0,66,56a2.52,2.52,0,0,0-.39,1.5c0,1.33.5,2,1.5,2a4.7,4.7,0,0,0,1.52-.31v1.06a4.13,4.13,0,0,1-1.64.31,2.52,2.52,0,0,1-2-.79,3.35,3.35,0,0,1-.69-2.27,3.8,3.8,0,0,1,.33-1.63,2.43,2.43,0,0,1,1-1.07,2.87,2.87,0,0,1,1.49-.38,4,4,0,0,1,1.74.42l-.4,1c-.23-.1-.45-.2-.68-.28a1.94,1.94,0,0,0-.66-.11"/><path id="Fill-12" class="cls-2" d="M75.19,54.48v3.86a2.2,2.2,0,0,1-.3,1.16,1.88,1.88,0,0,1-.86.76,3,3,0,0,1-1.32.27,2.56,2.56,0,0,1-1.79-.59,2.12,2.12,0,0,1-.63-1.62V54.48h1.26v3.65a1.49,1.49,0,0,0,.28,1,1.12,1.12,0,0,0,.91.33,1.1,1.1,0,0,0,.9-.33,1.5,1.5,0,0,0,.28-1V54.48h1.27"/><path id="Fill-13" class="cls-2" d="M78.33,57.13h.41a1.57,1.57,0,0,0,.88-.2.74.74,0,0,0,.29-.63.68.68,0,0,0-.29-.61,1.8,1.8,0,0,0-.91-.18h-.38Zm0,1v2.29H77.06v-6H78.8a3,3,0,0,1,1.8.44,1.76,1.76,0,0,1,.3,2.28,2,2,0,0,1-.82.65l1.75,2.6h-1.4L79,58.16Z"/><polygon id="Fill-14" class="cls-2" points="83 60.45 84.27 60.45 84.27 54.48 83 54.48 83 60.45"/><polyline id="Fill-15" class="cls-2" points="88.49 60.45 87.22 60.45 87.22 55.53 85.6 55.53 85.6 54.48 90.11 54.48 90.11 55.53 88.49 55.53 88.49 60.45"/><polyline id="Fill-16" class="cls-2" points="93.31 56.94 94.55 54.48 95.91 54.48 93.93 58.12 93.93 60.45 92.68 60.45 92.68 58.16 90.7 54.48 92.07 54.48 93.31 56.94"/><path id="Fill-17" class="cls-2" d="M102,55.82a.44.44,0,0,0-.14-.34.6.6,0,0,0-.38-.12.61.61,0,0,0-.43.13.43.43,0,0,0-.16.37,1.24,1.24,0,0,0,.39.79,2.2,2.2,0,0,0,.53-.39A.58.58,0,0,0,102,55.82Zm-1.46,2.9a.64.64,0,0,0,.26.55,1.06,1.06,0,0,0,.68.21,1.69,1.69,0,0,0,.92-.25l-1.35-1.34a1.68,1.68,0,0,0-.38.37A.78.78,0,0,0,100.57,58.72Zm4.62,1.73h-1.54l-.47-.47a2.94,2.94,0,0,1-1.76.55,2.48,2.48,0,0,1-1.58-.46,1.48,1.48,0,0,1-.58-1.24,1.79,1.79,0,0,1,.24-.95,2.45,2.45,0,0,1,.85-.74,2.48,2.48,0,0,1-.44-.67,1.62,1.62,0,0,1-.14-.7,1.23,1.23,0,0,1,.47-1,2.31,2.31,0,0,1,2.49,0,1.16,1.16,0,0,1,.45.95,1.52,1.52,0,0,1-.28.89,2.75,2.75,0,0,1-.91.76l1.16,1.13a4.88,4.88,0,0,0,.5-1.22H105a6.31,6.31,0,0,1-.4,1.07,4.76,4.76,0,0,1-.59.93l1.23,1.2Z"/><path id="Fill-18" class="cls-2" d="M111.22,57.09h2.36v3.1a6.76,6.76,0,0,1-2.12.34,2.62,2.62,0,0,1-2.06-.8,3.28,3.28,0,0,1-.71-2.28,3,3,0,0,1,.82-2.25,3.14,3.14,0,0,1,2.29-.81,4.37,4.37,0,0,1,1.78.37l-.42,1a3,3,0,0,0-1.36-.32,1.68,1.68,0,0,0-1.32.55,2.12,2.12,0,0,0-.49,1.48,2.33,2.33,0,0,0,.4,1.48,1.37,1.37,0,0,0,1.15.51,3.71,3.71,0,0,0,.81-.08V58.15h-1.13V57.09"/><path id="Fill-19" class="cls-2" d="M116.49,57.45a2.53,2.53,0,0,0,.37,1.51,1.35,1.35,0,0,0,1.14.51c1,0,1.51-.67,1.51-2s-.5-2-1.5-2a1.32,1.32,0,0,0-1.14.51A2.42,2.42,0,0,0,116.49,57.45Zm4.35,0a3.24,3.24,0,0,1-.73,2.28,3.18,3.18,0,0,1-4.22,0,3.24,3.24,0,0,1-.73-2.28,3.16,3.16,0,0,1,.74-2.28,2.76,2.76,0,0,1,2.11-.79,2.71,2.71,0,0,1,2.1.8,3.19,3.19,0,0,1,.73,2.27Z"/><path id="Fill-20" class="cls-2" d="M125.9,54.48h1.28l-2,6h-1.38l-2-6H123L124.15,58c.06.21.12.45.19.73a5,5,0,0,1,.12.58,11.78,11.78,0,0,1,.31-1.31l1.13-3.55"/><polyline id="Fill-21" class="cls-2" points="131.78 60.45 128.35 60.45 128.35 54.48 131.78 54.48 131.78 55.52 129.61 55.52 129.61 56.83 131.63 56.83 131.63 57.86 129.61 57.86 129.61 59.4 131.78 59.4 131.78 60.45"/><path id="Fill-22" class="cls-2" d="M134.71,57.13h.41a1.6,1.6,0,0,0,.89-.2.73.73,0,0,0,.28-.63.65.65,0,0,0-.29-.61,1.73,1.73,0,0,0-.9-.18h-.39Zm0,1v2.29h-1.26v-6h1.74a3,3,0,0,1,1.8.44,1.77,1.77,0,0,1,.29,2.28,1.92,1.92,0,0,1-.82.65c.9,1.34,1.48,2.2,1.76,2.6h-1.41l-1.42-2.29Z"/><path id="Fill-23" class="cls-2" d="M144.68,60.45h-1.61l-2.59-4.52h0c.05.8.08,1.37.08,1.71v2.81h-1.13v-6H141L143.57,59h0q-.06-1.17-.06-1.65V54.48h1.14v6"/><path id="Fill-24" class="cls-2" d="M149.52,58l-.68-2.18c-.05-.17-.08-.3-.1-.4q-.13.52-.78,2.58Zm.73,2.49L149.82,59h-2.17l-.44,1.42h-1.36l2.11-6h1.54l2.12,6Z"/><path id="Fill-25" class="cls-2" d="M158.08,60.45h-1.61l-2.59-4.52h0c0,.8.08,1.37.08,1.71v2.81h-1.13v-6h1.59L157,59h0q-.06-1.17-.06-1.65V54.48h1.14v6"/><path id="Fill-26" class="cls-2" d="M162.54,55.45a1.28,1.28,0,0,0-1.11.53,2.52,2.52,0,0,0-.39,1.5c0,1.33.5,2,1.5,2a4.7,4.7,0,0,0,1.52-.31v1.06a4.13,4.13,0,0,1-1.64.31,2.52,2.52,0,0,1-2-.79,3.35,3.35,0,0,1-.69-2.27,3.65,3.65,0,0,1,.34-1.63,2.35,2.35,0,0,1,1-1.07,2.87,2.87,0,0,1,1.49-.38,4,4,0,0,1,1.74.42l-.4,1c-.23-.1-.45-.2-.68-.28a1.91,1.91,0,0,0-.66-.11"/><polyline id="Fill-27" class="cls-2" points="169.19 60.45 165.75 60.45 165.75 54.48 169.19 54.48 169.19 55.52 167.01 55.52 167.01 56.83 169.03 56.83 169.03 57.86 167.01 57.86 167.01 59.4 169.19 59.4 169.19 60.45"/><path id="Fill-28" class="cls-3" d="M23.26,42.9a7.81,7.81,0,0,1-6.39-2.66c-1.47-1.78-2.21-4.44-2.21-7.92s.74-6.08,2.21-7.86a7.88,7.88,0,0,1,6.42-2.66,7.74,7.74,0,0,1,6.36,2.64c1.43,1.77,2.16,4.42,2.16,7.88s-.73,6.16-2.17,7.93A7.75,7.75,0,0,1,23.26,42.9Zm0-24.42c-4,0-7.06,1.22-9.22,3.63s-3.25,5.83-3.25,10.17,1.09,7.82,3.24,10.24,5.25,3.66,9.2,3.66a11.58,11.58,0,0,0,9.11-3.73c2.17-2.45,3.27-5.86,3.27-10.13s-1.1-7.7-3.26-10.14-5.23-3.7-9.09-3.7Z"/><path id="Fill-29" class="cls-3" d="M50.1,25.12a8.7,8.7,0,0,0-3.82.83,6.58,6.58,0,0,0-2.4,1.94l-.43-2.41h-3V45.82h3.58V35.16c0-2.48.46-4.28,1.37-5.33a5.41,5.41,0,0,1,4.32-1.58A4.19,4.19,0,0,1,53,29.35a4.87,4.87,0,0,1,1,3.4V45.82h3.58V32.64c0-2.59-.64-4.52-1.89-5.72a7.84,7.84,0,0,0-5.57-1.8"/><path id="Fill-30" class="cls-3" d="M70.94,28.22a4.09,4.09,0,0,1,3.37,1.4,6.06,6.06,0,0,1,1.19,3.84H65.81a6.7,6.7,0,0,1,1.55-3.79A4.58,4.58,0,0,1,70.94,28.22Zm0-3.1A8.12,8.12,0,0,0,64.43,28,11.8,11.8,0,0,0,62,35.81a10.64,10.64,0,0,0,2.62,7.61,9.38,9.38,0,0,0,7.12,2.76,17.23,17.23,0,0,0,3.47-.31,16.23,16.23,0,0,0,3.06-1l.18-.07V41.49l-.42.17A15.64,15.64,0,0,1,71.86,43a5.83,5.83,0,0,1-4.48-1.7,7.38,7.38,0,0,1-1.67-4.79H79.3V34.3a9.71,9.71,0,0,0-2.23-6.64A7.8,7.8,0,0,0,71,25.12Z"/><polyline id="Fill-31" class="cls-3" points="80.96 22.2 89.3 22.2 89.3 45.81 92.96 45.81 92.96 22.2 101.3 22.2 101.3 18.89 80.96 18.89 80.96 22.2"/><path id="Fill-32" class="cls-3" d="M113.52,25.12a6.27,6.27,0,0,0-3.57,1.1,8.63,8.63,0,0,0-2.4,2.51l-.3-3.25h-3V45.82h3.58V34.93a6.83,6.83,0,0,1,1.63-4.65,4.93,4.93,0,0,1,3.87-1.85,9.66,9.66,0,0,1,2.1.27l.31.06.5-3.36-.27-.06a12.64,12.64,0,0,0-2.42-.22"/><path id="Fill-33" class="cls-3" d="M132.59,36.15c0,2.48-.46,4.27-1.36,5.34a5.36,5.36,0,0,1-4.31,1.59A4.23,4.23,0,0,1,123.7,42a4.9,4.9,0,0,1-1-3.4V25.48h-3.62V38.69c0,2.59.63,4.5,1.88,5.69a7.87,7.87,0,0,0,5.6,1.8,8.81,8.81,0,0,0,3.85-.81,6.25,6.25,0,0,0,2.38-1.92l.38,2.37h3V25.48h-3.58V36.15"/><path id="Fill-34" class="cls-3" d="M149.07,34a29.75,29.75,0,0,1-3.42-1.44,3.7,3.7,0,0,1-1.21-1,2,2,0,0,1-.35-1.17,1.78,1.78,0,0,1,.94-1.59,6,6,0,0,1,3.06-.62,14,14,0,0,1,5.27,1.2l.27.11,1.29-3-.27-.12a16.24,16.24,0,0,0-6.35-1.32,9.52,9.52,0,0,0-5.56,1.45,4.74,4.74,0,0,0-2.08,4.05,4.92,4.92,0,0,0,.6,2.48,5.7,5.7,0,0,0,1.83,1.83,20.85,20.85,0,0,0,4,1.82,15.66,15.66,0,0,1,3.82,1.89,2.28,2.28,0,0,1-.23,3.77,6.86,6.86,0,0,1-3.45.71,12.48,12.48,0,0,1-3.07-.41,14.4,14.4,0,0,1-3-1.11l-.43-.22v3.43l.15.08a12.85,12.85,0,0,0,6.27,1.29,10,10,0,0,0,5.94-1.56,5.25,5.25,0,0,0,2.17-4.49,4.85,4.85,0,0,0-1.31-3.46A13,13,0,0,0,149.07,34"/><path id="Fill-35" class="cls-3" d="M168.81,42.77a9,9,0,0,1-1.14.23,8.87,8.87,0,0,1-1.48.12,2.65,2.65,0,0,1-2.11-.86,3.74,3.74,0,0,1-.77-2.54V28.4H169V25.48h-5.73V20.91h-2.24l-1.29,4.29-2.88,1.27V28.4h2.83V39.85c0,4.2,2,6.33,6,6.33A11.58,11.58,0,0,0,167.5,46a5.76,5.76,0,0,0,1.52-.41l.16-.08V42.66l-.37.11"/></g></g></svg>