<svg id="Layer_1" data-name="Layer 1" xmlns="http://www.w3.org/2000/svg" viewBox="0 0 180 80"><defs><style>.cls-1{fill:none;}.cls-2,.cls-3{fill:#293e40;}.cls-2,.cls-4{fill-rule:evenodd;}.cls-4{fill:#81b5a1;}</style></defs><rect class="cls-1" width="180" height="80"/><rect class="cls-1" width="180" height="80"/><g id="Layer_2" data-name="Layer 2"><g id="Layer_1-2" data-name="Layer 1-2"><path class="cls-2" d="M46.37,35.17a7.39,7.39,0,0,0-4.74,1.71V35.34H37.3V52.21h4.5V41.44a5.36,5.36,0,0,1,4.09-2.1,4.46,4.46,0,0,1,1.81.28V35.29a7.39,7.39,0,0,0-1.33-.12"/><path class="cls-2" d="M7.1,47.07a7.09,7.09,0,0,0,4.57,1.67c1.21,0,2.15-.6,2.15-1.43,0-2.54-8.1-1.6-8.1-7.06C5.72,37,8.84,35,12.16,35a10.47,10.47,0,0,1,5.72,1.7L15.73,40a5.71,5.71,0,0,0-3.22-1.15c-1.25,0-2.29.49-2.29,1.36,0,2.2,8.14,1.33,8.14,7.17,0,3.2-3.16,5.19-6.69,5.19a11.67,11.67,0,0,1-6.75-2.29Z"/><path class="cls-2" d="M35.38,43.62c0-4.7-3.29-8.62-8-8.62-5,0-8.17,4.1-8.17,8.79a8.42,8.42,0,0,0,8,8.78h.77a9.15,9.15,0,0,0,6.86-3L32.35,47a6,6,0,0,1-4.23,1.95,4.4,4.4,0,0,1-4.57-4H35.26A7,7,0,0,0,35.38,43.62Zm-11.55-2a3.65,3.65,0,0,1,3.6-3,3.35,3.35,0,0,1,3.33,3Z"/><polygon class="cls-2" points="58.43 45.64 63.03 35.34 67.72 35.34 59.98 52.21 56.87 52.21 49.15 35.34 53.82 35.34 58.43 45.64"/><path class="cls-2" d="M71.49,27.42a2.9,2.9,0,1,1-2.94,2.9,2.9,2.9,0,0,1,2.94-2.9h0"/><rect class="cls-3" x="69.24" y="35.34" width="4.5" height="16.87"/><path class="cls-2" d="M92.37,48.77a8.9,8.9,0,0,1-7.62,3.8,8.78,8.78,0,0,1,0-17.56h0a9,9,0,0,1,7.07,3.43l-3.15,2.7a4.88,4.88,0,0,0-3.89-2,4.57,4.57,0,0,0-4.57,4.57v.06a4.45,4.45,0,0,0,4.32,4.57h.32a4.9,4.9,0,0,0,4-2.23Z"/><path class="cls-2" d="M108.73,49.54a9.15,9.15,0,0,1-6.86,3,8.43,8.43,0,0,1-8.8-8c0-.25,0-.49,0-.74,0-4.69,3.19-8.79,8.18-8.79,4.64,0,7.93,3.92,7.93,8.62a7,7,0,0,1-.1,1.29H97.4a4.41,4.41,0,0,0,4.57,4A6,6,0,0,0,106.2,47Zm-4.19-7.93a3.42,3.42,0,0,0-3.32-3,3.65,3.65,0,0,0-3.61,3Z"/><path class="cls-2" d="M110.93,52.21V35.34h4.33V36.7A7.44,7.44,0,0,1,120,35a7.55,7.55,0,0,1,5.81,2.71c1.15,1.33,1.74,3,1.74,5.91v8.59h-4.51V43.28a4.16,4.16,0,0,0-1-3.17,3.55,3.55,0,0,0-2.53-.94,5.35,5.35,0,0,0-4.08,2.08v11Z"/><path class="cls-4" d="M139.16,35a9.87,9.87,0,0,0-6.79,17,2,2,0,0,0,2.54.14,7,7,0,0,1,8.4,0,2,2,0,0,0,2.55-.15,9.87,9.87,0,0,0-6.7-17m0,14.78a4.77,4.77,0,0,1-4.9-4.65v-.25a4.91,4.91,0,1,1,9.81-.48,3.84,3.84,0,0,1,0,.48,4.77,4.77,0,0,1-4.64,4.9h-.27"/><polygon class="cls-2" points="157.85 52.21 154.49 52.21 147.8 35.34 152.29 35.34 155.96 44.99 159.56 35.34 163.32 35.34 166.89 44.99 170.58 35.34 175.08 35.34 168.38 52.21 165.03 52.21 161.44 42.61 157.85 52.21"/><polygon class="cls-3" points="172.61 50.08 172.61 50.44 172.04 50.44 172.04 52.21 171.63 52.21 171.63 50.44 171.06 50.44 171.06 50.08 172.61 50.08"/><polygon class="cls-3" points="174.01 51.36 174.78 50.08 175.08 50.08 175.08 52.21 174.67 52.21 174.67 51.01 174.16 51.86 173.86 51.86 173.35 51.01 173.35 52.21 172.93 52.21 172.93 50.08 173.23 50.08 174.01 51.36"/></g></g></svg>