<?xml version="1.0" encoding="UTF-8"?><svg id="Layer_1" xmlns="http://www.w3.org/2000/svg" viewBox="0 0 180 80"><defs><style>.cls-1{fill:none;}.cls-2{fill:#ed9d4a;}.cls-3{fill:#e6e5e0;}.cls-4{fill:#b4b6b3;}.cls-5{fill:#ba7730;}.cls-6{fill:#8f212f;}.cls-7{fill:#c02439;}.cls-8{fill:#d7d8d2;}.cls-9{fill:#1c82ad;}.cls-10{fill:#1a1918;}.cls-11{fill:#4cb2d4;}</style></defs><rect class="cls-1" width="180" height="80"/><rect class="cls-1" width="180" height="80"/><g><rect class="cls-3" x="60.54" y="13.98" width="58.82" height="52.09"/><polyline class="cls-8" points="119.46 13.93 60.63 13.93 90.07 56.91 119.46 13.93"/><polyline class="cls-4" points="83.74 66.07 96.19 66.07 89.93 56.95 83.74 66.07"/><polyline class="cls-10" points="89.99 41.31 77.41 22.89 77.41 38.66 84.55 49.21 89.99 41.31"/><polyline class="cls-2" points="89.99 41.31 95.36 49.26 102.5 38.87 102.5 22.89 89.99 41.31"/><polyline class="cls-5" points="89.93 41.31 84.55 49.21 89.93 57.08 95.3 49.21 89.93 41.31"/><polyline class="cls-11" points="68.5 57.16 77.41 57.16 77.41 38.73 68.5 25.6 68.5 57.16"/><polyline class="cls-9" points="68.5 22.89 68.5 25.6 77.41 38.66 77.41 22.89 68.5 22.89"/><polyline class="cls-7" points="102.5 38.87 102.5 57.16 111.41 57.16 111.41 25.8 102.5 38.87"/><polyline class="cls-6" points="111.41 22.89 102.5 22.89 102.5 38.79 111.41 25.74 111.41 22.89"/></g></svg>