<?xml version="1.0" encoding="UTF-8"?><svg id="a" xmlns="http://www.w3.org/2000/svg" viewBox="0 0 180 80"><defs><style>.b{fill:none;}.c{fill:#ffb900;}.d{fill:#f25022;}.e{fill:#00a4ef;}.f{fill:#737373;}.g{fill:#7fba00;}</style></defs><rect class="b" width="180" height="80"/><rect class="b" width="180" height="80"/><g><path class="f" d="M77.12,30.22v19.55h-3.39v-15.33h-.05l-6.07,15.33h-2.25l-6.22-15.33h-.04v15.33h-3.14V30.22h4.87l5.62,14.49h.08l5.93-14.49h4.67Zm2.84,1.48c0-.55,.2-1,.59-1.37,.39-.37,.86-.55,1.41-.55,.58,0,1.06,.19,1.44,.57s.57,.83,.57,1.36-.19,.99-.59,1.35c-.39,.36-.87,.55-1.43,.55s-1.04-.19-1.43-.55c-.39-.37-.58-.82-.58-1.34Zm3.64,4.05v14.02h-3.3v-14.02h3.3Zm10.01,11.61c.49,0,1.03-.11,1.62-.34,.59-.23,1.14-.53,1.64-.9v3.07c-.53,.3-1.13,.53-1.79,.68-.67,.15-1.4,.23-2.2,.23-2.06,0-3.74-.65-5.03-1.96-1.29-1.3-1.94-2.97-1.94-5,0-2.25,.66-4.11,1.98-5.57,1.32-1.46,3.19-2.19,5.6-2.19,.62,0,1.24,.08,1.87,.24,.63,.16,1.13,.34,1.51,.55v3.16c-.51-.37-1.03-.66-1.56-.86-.52-.2-1.07-.31-1.63-.31-1.3,0-2.35,.42-3.15,1.27s-1.2,1.99-1.2,3.42,.38,2.52,1.15,3.31c.77,.79,1.82,1.18,3.13,1.18Zm12.66-11.85c.26,0,.5,.02,.71,.05,.21,.04,.38,.08,.53,.14v3.34c-.17-.13-.43-.25-.76-.36s-.73-.17-1.21-.17c-.81,0-1.49,.34-2.05,1.02s-.84,1.73-.84,3.15v7.08h-3.3v-14.01h3.3v2.21h.05c.3-.76,.76-1.36,1.36-1.79,.61-.43,1.34-.65,2.19-.65h0Zm1.42,7.45c0-2.32,.66-4.16,1.96-5.51,1.31-1.35,3.13-2.03,5.45-2.03,2.19,0,3.9,.65,5.13,1.96s1.85,3.06,1.85,5.28-.66,4.08-1.96,5.43c-1.31,1.34-3.09,2.02-5.35,2.02s-3.9-.64-5.17-1.91c-1.28-1.27-1.91-3.02-1.91-5.23Zm3.44-.11c0,1.46,.33,2.58,1,3.35s1.61,1.16,2.85,1.16,2.11-.38,2.74-1.16c.63-.77,.94-1.92,.94-3.44s-.33-2.65-.97-3.42c-.65-.77-1.56-1.15-2.73-1.15s-2.15,.4-2.82,1.21c-.67,.81-1.01,1.96-1.01,3.44h0Zm15.87-3.42c0,.47,.15,.84,.45,1.11,.3,.27,.96,.61,1.99,1.01,1.32,.53,2.25,1.12,2.77,1.78,.53,.66,.8,1.46,.8,2.39,0,1.32-.51,2.38-1.52,3.18s-2.39,1.2-4.11,1.2c-.58,0-1.23-.07-1.93-.21-.71-.14-1.3-.32-1.79-.54v-3.25c.6,.42,1.24,.75,1.94,1s1.32,.37,1.88,.37c.75,0,1.29-.1,1.65-.31s.53-.56,.53-1.05c0-.45-.19-.84-.55-1.15s-1.07-.67-2.09-1.09c-1.22-.51-2.08-1.08-2.59-1.72-.51-.64-.76-1.44-.76-2.43,0-1.26,.5-2.3,1.51-3.11,1-.81,2.31-1.22,3.91-1.22,.49,0,1.04,.05,1.65,.16,.61,.11,1.12,.25,1.53,.42v3.14c-.43-.29-.95-.54-1.53-.75-.58-.21-1.16-.31-1.73-.31-.63,0-1.12,.12-1.47,.37-.35,.25-.53,.59-.53,1.02h0Zm7.43,3.53c0-2.32,.66-4.16,1.96-5.51,1.31-1.35,3.13-2.03,5.45-2.03,2.19,0,3.9,.65,5.13,1.96s1.85,3.06,1.85,5.28-.66,4.08-1.96,5.43c-1.31,1.34-3.09,2.02-5.35,2.02s-3.9-.64-5.17-1.91c-1.28-1.27-1.91-3.02-1.91-5.23h0Zm3.44-.11c0,1.46,.33,2.58,1,3.35s1.61,1.16,2.85,1.16,2.11-.38,2.74-1.16c.63-.77,.94-1.92,.94-3.44s-.33-2.65-.97-3.42c-.65-.77-1.56-1.15-2.73-1.15s-2.15,.4-2.82,1.21c-.67,.81-1.01,1.96-1.01,3.44h0Zm21.91-4.4h-4.92v11.32h-3.34v-11.32h-2.34v-2.7h2.34v-1.95c0-1.47,.48-2.68,1.44-3.62s2.19-1.41,3.69-1.41c.4,0,.76,.02,1.06,.06s.58,.1,.82,.19v2.85c-.11-.06-.3-.14-.57-.23-.27-.09-.59-.14-.94-.14-.69,0-1.22,.22-1.6,.65-.37,.43-.56,1.07-.56,1.91v1.69h4.92v-3.15l3.31-1.01v4.16h3.34v2.7h-3.34v6.56c0,.86,.16,1.47,.47,1.83,.31,.35,.81,.53,1.48,.53,.19,0,.42-.05,.69-.14s.5-.2,.7-.33v2.73c-.21,.12-.56,.23-1.04,.33s-.96,.15-1.44,.15c-1.39,0-2.44-.37-3.13-1.11-.7-.74-1.04-1.86-1.04-3.35v-7.21h0Z"/><path class="d" d="M13.58,23.71h15.49v15.49H13.58v-15.49Z"/><path class="g" d="M30.68,23.71h15.49v15.49h-15.49v-15.49Z"/><path class="e" d="M13.58,40.81h15.49v15.49H13.58v-15.49Z"/><path class="c" d="M30.68,40.81h15.49v15.49h-15.49v-15.49Z"/></g></svg>