<?xml version="1.0" encoding="UTF-8"?><svg id="Layer_1" xmlns="http://www.w3.org/2000/svg" xmlns:xlink="http://www.w3.org/1999/xlink" viewBox="0 0 180 80"><defs><style>.cls-1{fill:none;}.cls-2{fill:url(#linear-gradient);}.cls-3{fill:#fff;}</style><linearGradient id="linear-gradient" x1="43.78" y1="423.11" x2="136.22" y2="515.56" gradientTransform="translate(0 509.33) scale(1 -1)" gradientUnits="userSpaceOnUse"><stop offset="0" stop-color="#4d27a8"/><stop offset="1" stop-color="#a166ff"/></linearGradient></defs><rect class="cls-1" width="180" height="80"/><g id="Working"><rect id="Purple_Gradient" class="cls-2" x="57.31" y="7.31" width="65.37" height="65.37"/><g id="Icon_Test"><path class="cls-3" d="m109.27,31.28h-.1v27.89h-38.35v-3.6h-.1c-.56-.01-1.12-.12-1.64-.32v4.79c0,.48.39.87.87.87h40.1c.48,0,.87-.39.87-.87v-29.06c-.52.2-1.08.3-1.64.3Zm.77-12.2h-40.1c-.48,0-.87.39-.87.87v26.59c.52-.2,1.08-.3,1.64-.3h.1v-25.42h38.35v1.08h.1c.56,0,1.12.09,1.64.3v-2.25c0-.48-.39-.87-.87-.87Z"/><path class="cls-3" d="m109.27,23.2c-1.87,0-3.39,1.52-3.39,3.39,0,.52.11,1.04.36,1.5l-14.58,14.82c-.25-.13-.52-.23-.79-.3v-6.89c1.8-.48,2.88-2.33,2.4-4.14-.48-1.8-2.33-2.88-4.14-2.4-1.48.39-2.51,1.74-2.51,3.27,0,.37.06.75.19,1.1l-14.49,14.36c-1.65-.88-3.7-.26-4.58,1.39s-.26,3.7,1.39,4.58c1.65.88,3.7.26,4.58-1.39.26-.49.4-1.04.4-1.6,0-.62-.18-1.22-.51-1.74l14.23-14.09c.38.32.84.55,1.32.66v6.89c-1.8.49-2.86,2.34-2.38,4.14.49,1.8,2.34,2.86,4.14,2.38,1.8-.49,2.86-2.34,2.38-4.14-.08-.3-.2-.59-.36-.85l14.53-14.73c1.56,1.03,3.66.6,4.68-.96,1.03-1.56.6-3.66-.96-4.68-.55-.36-1.19-.56-1.85-.56h-.05Zm-38.56,29.33c-.91,0-1.63-.74-1.63-1.65s.74-1.63,1.65-1.63c.9,0,1.63.74,1.63,1.64,0,.91-.73,1.64-1.64,1.64,0,0,0,0,0,0Zm17.64-20.05c-.01-.9.71-1.65,1.61-1.66.9-.01,1.65.71,1.66,1.61.01.9-.71,1.65-1.61,1.66h0c-.91,0-1.64-.73-1.64-1.64h0l-.03.03Zm1.64,15.03c-.91,0-1.65-.73-1.66-1.64,0-.91.73-1.65,1.64-1.66.91,0,1.65.73,1.66,1.64h0c0,.91-.73,1.65-1.64,1.66,0,0,0,0,0,0Zm19.28-19.28c-.91,0-1.65-.73-1.66-1.64,0-.91.73-1.65,1.64-1.66.91,0,1.65.73,1.66,1.64h0c0,.91-.73,1.65-1.64,1.66Z"/></g></g></svg>