<?xml version="1.0" encoding="UTF-8"?><svg id="Layer_1" xmlns="http://www.w3.org/2000/svg" viewBox="0 0 180 80"><defs><style>.cls-1{fill:none;}.cls-2{fill:#62d84e;}.cls-2,.cls-3{fill-rule:evenodd;}</style></defs><rect class="cls-1" width="180" height="80"/><path class="cls-3" d="M47.98,35.46c-1.76,0-3.25.62-4.46,1.61v-1.45h-4.07v15.87h4.24v-10.14c.58-.82,2.05-1.97,3.85-1.97.64,0,1.22.05,1.69.26v-4.07c-.41-.07-.83-.11-1.25-.11"/><path class="cls-3" d="M11.05,46.65c1.08.98,2.73,1.57,4.33,1.57,1.14,0,2.02-.56,2.02-1.34,0-2.39-7.65-1.53-7.65-6.64,0-3.04,2.93-4.93,6.06-4.93,2.05,0,4.3.78,5.34,1.61l-1.99,3.08c-.8-.62-1.88-1.1-3.02-1.1s-2.15.46-2.15,1.27c0,2.07,7.65,1.25,7.65,6.74,0,3.04-2.97,4.91-6.28,4.91-2.19,0-4.5-.75-6.36-2.13l2.05-3.04Z"/><path class="cls-3" d="M37.64,43.41c0-4.41-3.09-8.11-7.46-8.11-4.69,0-7.69,3.86-7.69,8.27,0,4.97,3.55,8.24,8.27,8.24,2.45,0,4.95-1.01,6.48-2.84l-2.41-2.42c-.75.82-2.19,1.83-3.97,1.83-2.25,0-4.04-1.53-4.27-3.76h10.94c.06-.35.1-.78.1-1.2ZM26.78,41.51c.2-1.43,1.63-2.78,3.39-2.78s2.99,1.37,3.13,2.78h-6.52Z"/><polygon class="cls-3" points="59.32 45.31 63.65 35.62 68.05 35.62 60.79 51.49 57.85 51.49 50.59 35.62 54.99 35.62 59.32 45.31"/><path class="cls-3" d="M71.61,28.18c1.53,0,2.77,1.17,2.77,2.71s-1.24,2.72-2.77,2.72-2.77-1.17-2.77-2.72,1.24-2.71,2.77-2.71"/><rect x="69.5" y="35.62" width="4.24" height="15.87"/><path class="cls-3" d="M91.24,48.25c-1.85,2.49-4.2,3.56-7.17,3.56-4.88,0-8.47-3.66-8.47-8.24s3.69-8.27,8.51-8.27c2.73,0,5.18,1.27,6.64,3.18l-2.99,2.65c-.84-1.11-2.11-1.89-3.65-1.89-2.45,0-4.27,1.93-4.27,4.35s1.79,4.32,4.37,4.32c1.73,0,3.09-1.05,3.78-2.09l3.25,2.44Z"/><path class="cls-3" d="M106.62,48.97c-1.53,1.83-4.04,2.84-6.48,2.84-4.72,0-8.27-3.26-8.27-8.24,0-4.41,2.99-8.27,7.69-8.27,4.37,0,7.46,3.7,7.46,8.11,0,.42-.04.85-.1,1.21h-10.94c.22,2.23,2.02,3.76,4.27,3.76,1.79,0,3.23-1.01,3.97-1.83l2.41,2.41ZM102.68,41.51c-.14-1.41-1.4-2.78-3.13-2.78s-3.19,1.34-3.39,2.78h6.52Z"/><path class="cls-3" d="M108.7,51.49v-15.87h4.07v1.27c1.2-.98,2.71-1.61,4.46-1.61,2.19,0,4.17.98,5.48,2.55,1.04,1.24,1.63,2.84,1.63,5.56v8.08h-4.23v-8.41c0-1.57-.36-2.39-.94-2.98-.56-.56-1.4-.88-2.37-.88-1.79,0-3.25,1.15-3.85,1.97v10.3h-4.25Z"/><path class="cls-2" d="M135.25,35.3c-5.06-.02-9.25,4.12-9.29,9.19-.02,2.68,1.1,5.12,2.91,6.83.66.62,1.67.68,2.39.12,1.05-.82,2.4-1.31,3.96-1.31s2.91.49,3.96,1.31c.72.56,1.73.48,2.4-.14,1.78-1.69,2.88-4.08,2.88-6.73-.02-5.11-4.13-9.25-9.2-9.27M135.19,49.2c-2.75,0-4.61-2.07-4.61-4.61s1.88-4.65,4.61-4.65,4.61,2.1,4.61,4.65c.01,2.55-1.87,4.61-4.61,4.61"/><polygon class="cls-3" points="152.81 51.49 149.66 51.49 143.36 35.62 147.59 35.62 151.04 44.69 154.42 35.62 157.95 35.62 161.3 44.69 164.79 35.62 169.02 35.62 162.73 51.49 159.57 51.49 156.19 42.46 152.81 51.49"/><path d="M169.07,49.7h-.36v.67h-.3v-1.84h.74c.33,0,.59.26.59.59,0,.23-.15.45-.37.53l.42.72h-.33l-.4-.67ZM168.71,49.42h.43c.16,0,.28-.14.28-.31s-.12-.31-.28-.31h-.43v.62Z"/><path d="M169.02,47.78c.94,0,1.71.77,1.71,1.71s-.77,1.71-1.71,1.71-1.71-.77-1.71-1.71c0-.94.77-1.71,1.71-1.71M169.02,47.51c-1.09,0-1.98.88-1.98,1.98s.88,1.98,1.98,1.98,1.98-.88,1.98-1.98-.88-1.98-1.98-1.98h0Z"/></svg>