<?xml version="1.0" encoding="UTF-8"?><svg id="Layer_1" xmlns="http://www.w3.org/2000/svg" viewBox="0 0 180 80"><defs><style>.cls-1{fill:none;}.cls-2{fill:#00ed64;}</style></defs><rect class="cls-1" width="180" height="80"/><path class="cls-2" d="M21.1,23.78c-1.59-1.88-2.95-3.79-3.23-4.19-.03-.03-.07-.03-.1,0-.28.4-1.64,2.31-3.23,4.19-13.61,17.36,2.14,29.07,2.14,29.07l.13.09c.12,1.81.41,4.41.41,4.41h1.17s.29-2.59.41-4.41l.13-.1s15.77-11.7,2.16-29.06ZM17.81,52.6s-.7-.6-.9-.91v-.03l.85-18.9c0-.06.09-.06.09,0l.85,18.9v.03c-.19.31-.9.91-.9.91Z"/><path class="cls-2" d="M47.3,48.61l-6.56-15.92v-.04h-5.12v1.07h.82c.25,0,.49.1.66.28.18.18.26.41.26.66l-.15,16.02c0,.5-.41.91-.91.92h-.84v1.07h4.98v-1.06h-.52c-.5-.03-.91-.44-.91-.94v-15.1l7.15,17.09c.1.25.34.41.6.41s.5-.16.6-.41l6.99-16.71.1,14.72c0,.51-.41.92-.93.94h-.53v1.06h5.83v-1.06h-.79c-.5,0-.91-.43-.93-.92l-.04-16.02c0-.51.41-.92.91-.94h.85v-1.08h-4.98l-6.56,15.96Z"/><path class="cls-2" d="M93.07,51.34c-.16-.16-.25-.38-.25-.64v-7.85c0-1.49-.44-2.66-1.33-3.5-.87-.83-2.08-1.26-3.59-1.26-2.11,0-3.78.85-4.94,2.52-.01.03-.06.04-.1.04s-.07-.03-.07-.07l-.55-2.09h-.91l-2.35,1.33v.73h.61c.28,0,.52.07.68.22.16.15.25.37.25.67v9.24c0,.26-.09.48-.25.64-.16.16-.38.25-.65.25h-.59v1.07h5.4v-1.07h-.59c-.27,0-.49-.09-.65-.25-.16-.16-.25-.38-.25-.64v-6.12c0-.78.18-1.55.5-2.31.34-.75.84-1.38,1.51-1.86.66-.48,1.46-.72,2.38-.72,1.03,0,1.82.32,2.3.97.49.64.74,1.48.74,2.47v7.55c0,.26-.09.48-.25.64-.16.16-.38.25-.65.25h-.59v1.07h5.4v-1.07h-.59c-.22.03-.43-.06-.61-.22Z"/><path class="cls-2" d="M142.41,33.86c-1.49-.79-3.16-1.21-4.96-1.21h-7.03v1.07h.69c.26,0,.5.1.73.34.22.22.34.47.34.74v15.84c0,.26-.12.52-.34.74-.22.22-.47.34-.73.34h-.69v1.07h7.03c1.8,0,3.47-.41,4.96-1.21,1.49-.8,2.71-1.97,3.59-3.47.88-1.5,1.33-3.31,1.33-5.37s-.45-3.86-1.33-5.37c-.89-1.53-2.09-2.71-3.59-3.5ZM144.51,42.7c0,1.88-.34,3.47-1,4.76-.66,1.28-1.54,2.24-2.62,2.86-1.08.62-2.28.93-3.57.93h-1.42c-.26,0-.5-.1-.73-.34-.22-.22-.34-.47-.34-.74v-14.94c0-.27.1-.5.34-.74.22-.22.47-.34.73-.34h1.42c1.29,0,2.49.31,3.57.93,1.08.62,1.96,1.58,2.62,2.86.66,1.28,1,2.89,1,4.77Z"/><path class="cls-2" d="M163.94,43.78c-.65-.75-1.9-1.38-3.38-1.72,2.04-1.02,3.08-2.44,3.08-4.28,0-1-.26-1.9-.8-2.66-.53-.77-1.28-1.38-2.24-1.81-.96-.43-2.08-.65-3.35-.65h-7.95v1.07h.63c.27,0,.5.1.74.34.22.22.34.47.34.74v15.84c0,.26-.12.52-.34.74-.22.22-.47.34-.74.34h-.69v1.07h8.63c1.31,0,2.54-.22,3.64-.66,1.11-.44,1.99-1.09,2.63-1.94.65-.85.97-1.9.97-3.11-.01-1.3-.4-2.4-1.18-3.3ZM154.04,50.92c-.22-.22-.34-.47-.34-.74v-7.11h4.1c1.45,0,2.55.37,3.32,1.1.77.74,1.15,1.69,1.15,2.87,0,.71-.18,1.4-.5,2.03-.34.65-.84,1.16-1.52,1.56-.66.4-1.49.6-2.45.6h-3.03c-.27.01-.5-.1-.74-.32ZM153.71,41.56v-6.32c0-.27.1-.5.34-.74.22-.22.47-.34.74-.34h1.95c1.4,0,2.43.35,3.08,1.03.65.69.97,1.58.97,2.66s-.31,2.02-.91,2.69c-.61.66-1.52,1-2.73,1h-3.44Z"/><path class="cls-2" d="M72.51,39.03c-1.13-.62-2.39-.94-3.75-.94s-2.64.31-3.75.94c-1.13.62-2.02,1.51-2.68,2.64-.66,1.13-1,2.45-1,3.92s.34,2.79,1,3.92c.66,1.13,1.55,2.02,2.68,2.64,1.13.62,2.39.94,3.75.94s2.64-.31,3.75-.94c1.13-.62,2.02-1.51,2.68-2.64.66-1.13,1-2.45,1-3.92s-.34-2.79-1-3.92c-.66-1.13-1.55-2.01-2.68-2.64ZM73.59,45.59c0,1.8-.44,3.27-1.32,4.33-.86,1.06-2.05,1.6-3.51,1.6s-2.65-.54-3.51-1.6c-.88-1.06-1.32-2.52-1.32-4.33s.44-3.27,1.32-4.33c.86-1.06,2.05-1.6,3.51-1.6s2.65.54,3.51,1.6c.88,1.07,1.32,2.52,1.32,4.33Z"/><path class="cls-2" d="M124.4,39.03c-1.13-.62-2.39-.94-3.75-.94s-2.64.31-3.75.94c-1.13.62-2.02,1.51-2.68,2.64s-1,2.45-1,3.92.34,2.79,1,3.92,1.55,2.02,2.68,2.64c1.13.62,2.39.94,3.75.94s2.64-.31,3.75-.94c1.13-.62,2.02-1.51,2.68-2.64s1-2.45,1-3.92-.34-2.79-1-3.92-1.57-2.01-2.68-2.64ZM125.48,45.59c0,1.8-.44,3.27-1.32,4.33-.86,1.06-2.05,1.6-3.51,1.6s-2.65-.54-3.51-1.6c-.88-1.06-1.32-2.52-1.32-4.33s.44-3.27,1.32-4.33c.86-1.06,2.05-1.6,3.51-1.6s2.65.54,3.51,1.6c.86,1.07,1.32,2.52,1.32,4.33Z"/><path class="cls-2" d="M103.47,38.09c-1.18,0-2.26.25-3.23.75-.97.5-1.74,1.18-2.29,2.05-.55.85-.83,1.81-.83,2.83,0,.91.21,1.75.63,2.51.41.72.97,1.33,1.68,1.83l-2.11,2.86c-.27.35-.29.83-.1,1.21.21.4.59.63,1.03.63h.6c-.59.4-1.06.87-1.39,1.43-.38.63-.58,1.3-.58,1.98,0,1.27.56,2.31,1.67,3.1,1.09.78,2.62,1.18,4.56,1.18,1.34,0,2.62-.22,3.79-.65,1.18-.43,2.14-1.06,2.85-1.89.72-.83,1.09-1.83,1.09-2.98,0-1.21-.44-2.06-1.47-2.89-.88-.69-2.27-1.06-4-1.06h-5.9s-.03-.01-.03-.01c0,0-.01-.03,0-.04l1.53-2.06c.41.19.8.31,1.14.38.35.07.75.1,1.19.1,1.24,0,2.36-.25,3.33-.75.97-.5,1.75-1.18,2.32-2.05.56-.85.84-1.81.84-2.83,0-1.09-.53-3.08-1.98-4.1,0-.01.01-.01.01-.01l3.17.35v-1.46h-5.07c-.8-.27-1.62-.4-2.48-.4ZM105.24,47.3c-.56.29-1.17.46-1.77.46-.99,0-1.86-.35-2.6-1.05-.74-.69-1.11-1.71-1.11-3.01s.37-2.31,1.11-3.01c.74-.69,1.61-1.05,2.6-1.05.62,0,1.21.15,1.77.46.56.29,1.02.75,1.39,1.36.35.6.55,1.36.55,2.24s-.18,1.65-.55,2.24c-.35.6-.83,1.06-1.39,1.36ZM101.24,52.74h4c1.11,0,1.81.22,2.29.69.47.47.71,1.11.71,1.84,0,1.08-.43,1.96-1.28,2.62-.86.66-2.01,1-3.42,1-1.24,0-2.27-.28-3.02-.81-.75-.53-1.14-1.34-1.14-2.37,0-.65.18-1.25.53-1.78.35-.53.78-.91,1.34-1.19Z"/><path class="cls-2" d="M168.11,52.54c-.29-.16-.51-.39-.69-.67-.16-.29-.25-.59-.25-.93s.09-.65.25-.93c.16-.29.39-.51.69-.67.29-.16.61-.25.98-.25s.69.09.98.25c.29.16.51.39.69.67.16.29.25.59.25.93s-.09.65-.25.93c-.16.29-.39.51-.69.67-.29.16-.61.25-.98.25s-.69-.09-.98-.25ZM169.91,52.33c.25-.13.42-.33.57-.56.13-.25.2-.52.2-.82s-.07-.58-.2-.82c-.13-.25-.32-.43-.57-.56-.25-.13-.51-.2-.82-.2s-.57.07-.82.2c-.25.13-.42.33-.57.56-.13.25-.2.52-.2.82s.07.58.2.82c.13.25.32.43.57.56.25.13.51.2.82.2s.58-.07.82-.2ZM168.3,51.82v-.13h.03s.09-.01.09-.01c.03,0,.06-.01.07-.03.03-.03.03-.04.03-.07v-1.35s-.01-.06-.03-.07c-.03-.03-.04-.03-.07-.03h-.12v-.14h.03s.76-.01.76-.01c.22,0,.38.04.51.14.13.1.19.23.19.41,0,.13-.04.26-.15.35-.1.1-.22.16-.36.17l.17.06.34.54s.06.06.1.06h.1v.14h-.01s-.45.01-.45.01h-.03s-.47-.8-.47-.8h-.12v.52s.01.06.03.07c.03.03.04.03.07.03h.12v.14h-.03s-.77.01-.77.01h-.03ZM169.04,50.88c.12,0,.22-.03.28-.1.06-.06.1-.16.1-.27s-.03-.2-.09-.27c-.06-.07-.15-.1-.25-.1h-.06s-.06.01-.07.03c-.03.03-.03.04-.03.07v.65h.12Z"/></svg>