<?xml version="1.0" encoding="UTF-8"?><svg id="Layer_1" xmlns="http://www.w3.org/2000/svg" xmlns:xlink="http://www.w3.org/1999/xlink" viewBox="0 0 180 80"><defs><style>.cls-1{fill:none;}.cls-2{mask:url(#mask);}.cls-3,.cls-4,.cls-5,.cls-6{fill-rule:evenodd;}.cls-3,.cls-7{fill:#fff;}.cls-8{mask:url(#mask-1);}.cls-4{fill:#1f1f1f;}.cls-5{fill:#8566ab;}.cls-6{fill:#f36b21;}</style><mask id="mask" x="14.2" y="29.41" width="19.58" height="19.58" maskUnits="userSpaceOnUse"><g id="mask-2"><polygon id="path-1" class="cls-3" points="14.2 29.41 33.78 29.41 33.78 48.98 14.2 48.98 14.2 29.41"/></g></mask><mask id="mask-1" x="27.4" y="29.41" width="19.58" height="19.58" maskUnits="userSpaceOnUse"><g id="mask-4"><polygon id="path-3" class="cls-3" points="27.4 29.41 46.97 29.41 46.97 48.98 27.4 48.98 27.4 29.41"/></g></mask></defs><rect class="cls-7" x="8" y="6.03" width="164" height="67.94" rx="4" ry="4"/><rect class="cls-1" width="180" height="80"/><g id="Desktop-_-Homepage-Design-"><g id="Desktop-_-Header-Design"><g id="horizontal-logo"><g id="Group"><g id="Group-3"><g class="cls-2"><path id="Fill-1" class="cls-5" d="M33.78,48.98H14.2v-19.58c10.82,0,19.57,8.76,19.58,19.58"/></g></g><g id="Group-6"><g class="cls-8"><path id="Fill-4" class="cls-6" d="M27.4,48.98h19.58v-19.58c-10.82,0-19.57,8.76-19.58,19.58"/></g></g><path id="Fill-7" class="cls-4" d="M77.18,41.95v7.03h-2.95v-6.66c0-2.18-1.04-3.24-2.83-3.24-1.93,0-3.28,1.24-3.28,3.67v6.22h-2.95v-6.66c0-2.18-1.04-3.24-2.83-3.24-1.96,0-3.28,1.24-3.28,3.67v6.22h-2.95v-12.4h2.81v1.7c.94-1.1,2.41-1.7,4.13-1.7,1.84,0,3.37.67,4.25,2.04,1.01-1.26,2.71-2.04,4.72-2.04,3.04,0,5.17,1.68,5.17,5.37"/><path id="Fill-9" class="cls-4" d="M78.78,42.87c0-3.7,2.77-6.31,6.55-6.31s6.57,2.61,6.57,6.31-2.74,6.33-6.57,6.33-6.55-2.63-6.55-6.33M88.99,42.87c0-2.36-1.57-3.86-3.67-3.86s-3.64,1.5-3.64,3.86,1.57,3.86,3.64,3.86,3.67-1.5,3.67-3.86"/><path id="Fill-11" class="cls-4" d="M105.51,41.96v7.02h-2.94v-6.65c0-2.18-1.07-3.23-2.71-3.23-2.03,0-3.41,1.24-3.41,3.69v6.19h-2.94v-12.41h2.8v1.74c.94-1.12,2.41-1.72,4.2-1.72,2.93,0,5,1.67,5,5.37"/><path id="Fill-13" class="cls-4" d="M119.79,43.8h-9.7c.35,1.8,1.85,2.96,4.01,2.96,1.39,0,2.48-.44,3.36-1.34l1.55,1.78c-1.11,1.32-2.85,2.01-4.98,2.01-4.14,0-6.83-2.66-6.83-6.33s2.71-6.31,6.39-6.31,6.25,2.52,6.25,6.38c0,.23-.02.58-.05.85M110.07,41.88h7.02c-.23-1.78-1.6-3-3.5-3s-3.24,1.2-3.52,3"/><path id="Fill-15" class="cls-4" d="M166.15,43.8h-9.7c.35,1.8,1.85,2.96,4.01,2.96,1.39,0,2.48-.44,3.36-1.34l1.55,1.78c-1.11,1.32-2.85,2.01-4.98,2.01-4.14,0-6.83-2.66-6.83-6.33s2.71-6.31,6.39-6.31,6.25,2.52,6.25,6.38c0,.23-.02.58-.05.85M156.43,41.88h7.02c-.23-1.78-1.6-3-3.5-3s-3.24,1.2-3.52,3"/><path id="Fill-17" class="cls-4" d="M122.6,33.07h2.72v3.5h2.96v2.67h-2.96v4.73c0,1.9.48,2.53,2.05,2.53h.91v2.48c-.57.15-1.15.23-1.58.23-2.91,0-4.1-1.77-4.1-5.14v-4.83h-1.69v-2.67h1.69v-3.5Z"/><path id="Fill-19" class="cls-4" d="M146.57,33.07h2.72v3.5h2.96v2.67h-2.96v4.73c0,1.9.48,2.53,2.05,2.53h.91v2.48c-.57.15-1.15.23-1.58.23-2.91,0-4.1-1.77-4.1-5.14v-4.83h-1.69v-2.67h1.69v-3.5Z"/><path id="Fill-21" class="cls-4" d="M139.96,36.56v1.06c-1.05-.66-2.34-1.04-3.79-1.04-3.78,0-6.55,2.61-6.55,6.3s2.77,6.32,6.55,6.32c1.45,0,2.74-.38,3.79-1.05v.82h2.8v-12.42h-2.8ZM136.17,46.74c-2.07,0-3.64-1.5-3.64-3.85s1.57-3.85,3.64-3.85,3.67,1.5,3.67,3.85-1.57,3.85-3.67,3.85h0Z"/></g></g></g></g></svg>