<?xml version="1.0" encoding="UTF-8"?><svg id="Layer_1" xmlns="http://www.w3.org/2000/svg" viewBox="0 0 180 80"><defs><style>.cls-1{fill:none;}.cls-2{fill:#fff;}</style></defs><rect class="cls-1" width="180" height="80"/><g id="QXM_RGB"><g id="QXM_RGB-2"><g id="QXM_RGB-3"><g id="RGB_qualtrics_XM"><path class="cls-2" d="M62.59,48.97c-.99,0-1.19-.73-1.19-1.99v-12.62c0-4.3-2.42-6.86-6.48-6.86-4.85,0-7.04,3.73-7.08,7.43v.16h3.22v-.16c-.02-1.32.43-2.55,1.24-3.36.66-.67,1.51-1.02,2.45-1.02,1.93,0,3.09,1.51,3.09,4.06v1.18l-3.89,1.84c-4.41,2.06-7.3,3.74-7.3,8.09,0,3.82,2.41,6.39,5.98,6.39,2.03,0,3.97-1,5.48-2.83.52,1.8,1.86,2.83,3.72,2.83.65,0,1.35-.14,2.01-.41l.09-.04v-3.11l-.22.12c-.32.17-.71.35-1.13.32h0ZM57.85,38.93v7.34c-.87,1.42-2.57,2.85-4.41,2.85-1.98,0-3.2-1.29-3.2-3.37,0-2.9,2.54-4.44,4.75-5.47l2.87-1.35h0Z"/><path class="cls-2" d="M80.71,20.51h-3.56l-.12,7.45h-3.09v3.22h3.22v15.47c0,3.47,1.62,5.39,4.57,5.39,1.16,0,2.3-.32,3.49-.99l.08-.05v-3.21l-.25.2c-.76.62-1.63.97-2.45.97-1.56,0-1.89-1.3-1.89-2.39v-15.4h5.08v-3.22h-5.08v-7.45h0Z"/><path class="cls-2" d="M39.38,46.03c-1.34,1.95-2.89,3.01-4.35,3.01-1.91,0-2.6-1.88-2.6-3.64v-17.43h-3.56v17.54c0,4.09,1.86,6.44,5.11,6.44,2.67,0,4.42-1.46,5.49-2.81l.06,2.37h3.41v-23.55h-3.56v18.06h0Z"/><path class="cls-2" d="M21.16,30.12c-.89-1.65-2.53-2.58-4.59-2.58s-3.8.98-5.12,2.76c-1.62,2.17-2.45,5.38-2.45,9.51,0,9.04,3.65,12.27,7.07,12.27,1.93,0,3.61-.8,4.68-2.2v13.17h3.56V27.97h-3.05l-.1,2.15h0ZM20.74,33.41v12.93c-.98,1.77-2.17,2.6-3.74,2.6-2.91,0-4.39-3.07-4.39-9.14s1.66-9.17,4.55-9.17c1.6,0,3,1.09,3.58,2.79h0Z"/><rect class="cls-2" x="66.82" y="16.96" width="3.56" height="34.73"/><rect class="cls-2" x="102.56" y="27.97" width="3.56" height="23.55"/><rect class="cls-2" x="102.56" y="20.51" width="3.56" height="4.06"/><path class="cls-2" d="M134.86,37.61h-.02c-2.22-1.16-3.78-2.12-3.78-4.11,0-1.73,1.22-2.89,3.05-2.89.98,0,1.8.34,2.37.98.71.78,1.04,2,.91,3.34l-.02.17h3.27v-.14c.12-2.22-.53-4.18-1.8-5.51-1.17-1.23-2.79-1.88-4.7-1.88-3.81,0-6.48,2.52-6.48,6.14,0,3.94,3.16,5.63,5.46,6.86,2.3,1.25,4.46,2.42,4.46,4.88,0,2.07-1.51,3.57-3.58,3.57-2.26,0-3.89-1.9-3.95-4.62v-.15h-3.3v.16c.11,4.78,2.89,7.75,7.25,7.75s6.98-2.76,6.98-6.88c0-4.42-3.25-6.14-6.11-7.66h0Z"/><path class="cls-2" d="M121.09,44.24c-.07,1.68-.53,3.06-1.31,3.87-.55.58-1.26.87-2.08.87-2.7,0-4.13-3.14-4.13-9.1s1.47-9.19,4.16-9.19c.77,0,1.42.27,1.94.81.72.75,1.16,2.03,1.24,3.59h3.32c-.04-2.46-.7-4.44-1.95-5.73-1.1-1.15-2.59-1.72-4.42-1.72-5.03,0-7.8,4.33-7.8,12.21s2.68,12.21,7.57,12.21c3.93,0,6.39-2.9,6.7-7.81h-3.24,0Z"/><path class="cls-2" d="M145.95,49.73c.07-.13.11-.28.11-.46,0-.25-.08-.45-.23-.59-.16-.14-.38-.21-.67-.21h-1.27v2.54h.68v-.85h.52l.46.85h.59l-.54-.99c.16-.06.27-.16.34-.29h0ZM145.4,49.59c-.08.05-.2.07-.36.07h-.47v-.68h.47c.16,0,.28.03.36.08.08.05.12.15.12.27s-.04.21-.12.25Z"/><path class="cls-2" d="M147.03,48.82c-.12-.27-.27-.51-.48-.71-.2-.19-.44-.35-.71-.46s-.57-.16-.89-.16-.61.06-.89.16c-.27.11-.51.27-.72.46-.2.19-.36.43-.48.71s-.17.58-.17.91.06.64.17.92.27.52.48.72.44.36.72.47c.27.11.57.16.89.16s.61-.05.89-.16c.27-.11.51-.27.71-.47s.36-.44.48-.72.17-.58.17-.92-.06-.64-.17-.91ZM146.59,50.48c-.09.22-.22.41-.38.58s-.34.28-.56.38c-.22.08-.45.13-.69.13s-.48-.05-.7-.13-.41-.21-.56-.38c-.16-.16-.28-.36-.38-.58-.09-.22-.14-.47-.14-.74s.05-.51.14-.73c.09-.22.22-.41.38-.58s.34-.28.56-.38c.21-.08.45-.13.7-.13s.47.05.69.13c.21.08.4.21.56.38s.28.36.38.58c.09.22.14.47.14.73s-.05.52-.14.74Z"/><path class="cls-2" d="M166.62,20.35l-3.06,10.84h-.04l-3.29-10.84h-7.19l-2.49,4.42-2.63-4.42h-3.69l4.3,6.95-4.72,7.79h3.5l3.01-5.12,3.11,5.12h5.54v-10.16h.04c.08.43.15.79.22,1.09.06.3.14.58.2.84s.14.5.21.74c.07.23.15.49.23.76l2.17,6.73h2.93l2.15-6.73c.16-.54.3-1.06.44-1.57s.25-1.07.36-1.7h.04v9.99h3.05v-14.74h-4.39,0ZM152.1,27.29l3.83-6.35v12.58l-3.83-6.23h0Z"/></g><path class="cls-2" d="M92.76,30.76l-.18-2.79h-3.4v23.72h3.56v-17.06s1.44-3.88,5.67-3.69c.38.02.54.05.77.06v-3.55h-.89c-2.51.1-3.89.89-5.52,3.3Z"/></g></g></g></svg>