<?xml version="1.0" encoding="UTF-8"?><svg id="Layer_1" xmlns="http://www.w3.org/2000/svg" xmlns:xlink="http://www.w3.org/1999/xlink" viewBox="0 0 180 80"><defs><style>.cls-1{fill:none;}.cls-2{fill:url(#linear-gradient);}.cls-3{fill:#fff;}</style><linearGradient id="linear-gradient" x1="43.78" y1="423.11" x2="136.22" y2="515.56" gradientTransform="translate(0 509.33) scale(1 -1)" gradientUnits="userSpaceOnUse"><stop offset="0" stop-color="#2e27ad"/><stop offset="1" stop-color="#527fff"/></linearGradient></defs><rect class="cls-1" width="180" height="80"/><rect class="cls-1" width="180" height="80"/><g id="Reference"><rect id="Blue_Gradient" class="cls-2" x="57.31" y="7.31" width="65.37" height="65.37"/><g id="Icon_Test"><path class="cls-3" d="M101.11,42.6l-5.76,5.75c1.04-.29,2.04-.7,2.98-1.21,.56,.35,.94,.92,1.04,1.57,0,1.6-3.38,3.33-8.4,4.04-1.55,.21-3.11,.32-4.67,.33h-.87c-7.04-.17-12.2-2.39-12.2-4.36,.1-.65,.48-1.22,1.04-1.57,2.74,1.53,7.17,2.43,12.04,2.43h.1l.49-1.74h-.58c-4.79,0-9.24-.95-11.6-2.45-.94-.62-1.46-1.29-1.47-1.87v-4.04c2.67,2.04,7.98,3.1,13.07,3.1,.69,0,1.38,0,2.05-.06l.5-1.74c-.87,.06-1.68,.09-2.55,.09-7.48,0-13.07-2.29-13.07-4.36,.1-.65,.48-1.22,1.04-1.57,2.41,1.35,6.1,2.2,10.29,2.39l.04-1.74c-4.12-.2-7.84-1.09-9.9-2.41-.93-.6-1.46-1.28-1.47-1.87v-4.03c2.67,2.04,7.98,3.1,13.07,3.1h.19l.92-1.74h-1.12c-7.48,0-13.07-2.29-13.07-4.36s5.6-4.36,13.07-4.36c2.52-.01,5.03,.28,7.48,.87h4.79c-2.61-1.6-7.13-2.61-12.26-2.61-7.18,0-14.82,2.13-14.82,6.1v7.02c.05,1.01,.53,1.94,1.32,2.57-.79,.64-1.27,1.59-1.32,2.61v6.97c.04,1.02,.52,1.97,1.32,2.61-.79,.64-1.27,1.59-1.32,2.61v6.97c0,.06,0,.12,0,.18,.24,3.83,7.73,5.88,14.82,5.88s14.58-2.06,14.82-5.9c0-.06,0-.12,0-.18v-6.97c-.03-1.02-.52-1.98-1.32-2.61,.8-.64,1.28-1.59,1.32-2.61v-.84Zm-1.74,13.07c0,2.06-5.6,4.36-13.07,4.36s-13.07-2.28-13.07-4.36v-4.01c2.67,2.02,7.98,3.09,13.07,3.09s10.41-1.06,13.07-3.09v4.01Z"/><circle class="cls-3" cx="75.84" cy="31.3" r="1.09"/><circle class="cls-3" cx="75.84" cy="43.5" r="1.09"/><circle class="cls-3" cx="75.84" cy="55.71" r="1.09"/><path class="cls-3" d="M88.47,52.19c-.15,0-.3-.04-.44-.12-.35-.2-.52-.62-.4-1l4.9-16.31h-4.93c-.48,0-.88-.38-.88-.86,0-.15,.03-.3,.11-.43l5.23-10.46c.15-.29,.45-.48,.78-.48h11.33c.48-.02,.89,.35,.91,.83,0,.11,0,.21-.04,.31l-2.23,6.7h4.89c.48,0,.87,.39,.87,.87,0,.22-.09,.44-.24,.6l-19.18,20.05c-.17,.19-.41,.3-.67,.3Zm.54-19.18h4.69c.27,0,.53,.13,.7,.35s.22,.5,.14,.77l-4.19,13.95,15.26-15.95h-4.06c-.48,.03-.89-.34-.92-.82,0-.11,0-.22,.05-.33l2.23-6.69h-9.59l-4.31,8.73Z"/></g></g></svg>