<?xml version="1.0" encoding="UTF-8"?><svg id="Layer_1" xmlns="http://www.w3.org/2000/svg" xmlns:xlink="http://www.w3.org/1999/xlink" viewBox="0 0 180 80"><defs><style>.cls-1{fill:none;}.cls-2{fill:url(#linear-gradient);}.cls-2,.cls-3{fill-rule:evenodd;}.cls-3{fill:#fff;}</style><linearGradient id="linear-gradient" x1="-1833.2" y1="2704.78" x2="-1833.2" y2="2690.42" gradientTransform="translate(9256 13528) scale(5 -5)" gradientUnits="userSpaceOnUse"><stop offset="0" stop-color="#00aeef"/><stop offset=".21" stop-color="#0097dc"/><stop offset=".52" stop-color="#007cc5"/><stop offset=".79" stop-color="#006cb8"/><stop offset="1" stop-color="#0066b3"/></linearGradient></defs><rect class="cls-1" width="180" height="80"/><rect class="cls-1" width="180" height="80"/><g><path class="cls-2" d="M17.41,75.91H90.78L162.59,4.09H17.41V75.91"/><path class="cls-3" d="M103.57,18.45h-14.34l.05,33.72-12.49-33.74h-12.38l-10.66,28.17c-1.13-7.17-8.55-9.64-14.38-11.5-3.85-1.24-7.94-3.06-7.9-5.07,.03-1.65,2.19-3.18,6.47-2.95,2.87,.15,5.41,.39,10.46,2.82l4.96-8.65c-4.6-2.34-10.97-3.82-16.19-3.83h-.03c-6.09,0-11.15,1.97-14.29,5.22-2.19,2.27-3.37,5.15-3.42,8.34-.08,4.39,1.53,7.49,4.9,9.98,2.85,2.09,6.5,3.45,9.72,4.44,3.97,1.23,7.21,2.3,7.17,4.57-.03,.83-.34,1.61-.94,2.23-.99,1.02-2.51,1.4-4.6,1.45-4.05,.09-7.05-.55-11.83-3.38l-4.42,8.76c4.78,2.72,9.85,4.08,15.61,4.08h1.3c5.01-.1,9.08-1.3,12.32-3.9,.19-.15,.35-.3,.52-.45l-.54,2.8,12.1-.04,2.17-5.56c2.28,.78,4.88,1.21,7.63,1.21s5.21-.41,7.45-1.14l1.51,5.49,21.71,.02,.05-12.67h4.62c11.16,0,17.76-5.68,17.76-15.21,0-10.61-6.42-15.23-20.07-15.23h0Zm-33.03,28.83c-1.67,0-3.23-.29-4.58-.8l4.53-14.29h.09l4.45,14.33c-1.34,.48-2.87,.76-4.49,.76h0Zm33.87-8.21h-3.15v-11.52h3.15c4.2,0,7.55,1.4,7.55,5.68,0,4.44-3.35,5.83-7.55,5.83"/></g></svg>