<?xml version="1.0" encoding="UTF-8"?><svg id="Layer_1" xmlns="http://www.w3.org/2000/svg" viewBox="0 0 180 80"><defs><style>.cls-1{fill:none;}.cls-2{fill:#00416b;}.cls-3{fill:#00a0df;}</style></defs><rect class="cls-1" width="180" height="80"/><polygon class="cls-2" points="28.98 29.75 28.62 29.75 19.06 50.24 21.39 50.24 28.7 34.21 36.24 50.24 38.41 50.24 28.98 29.75"/><path class="cls-2" d="m54.3,31.56c3.12,0,5.85,1.7,7.31,4.22l1.68-.97c-1.79-3.1-5.15-5.19-8.99-5.19-5.73,0-10.38,4.65-10.38,10.38s4.65,10.38,10.38,10.38c3.84,0,7.19-2.09,8.99-5.19l-1.68-.97c-1.46,2.52-4.19,4.22-7.31,4.22-4.66,0-8.44-3.78-8.44-8.44,0-4.66,3.78-8.44,8.44-8.44Z"/><rect class="cls-2" x="100.34" y="29.86" width="2.18" height="20.28"/><path class="cls-2" d="m123.66,29.62c-5.73,0-10.38,4.65-10.38,10.38s4.65,10.38,10.38,10.38,10.38-4.65,10.38-10.38c0-5.73-4.65-10.38-10.38-10.38Zm0,18.82c-4.66,0-8.44-3.78-8.44-8.44s3.78-8.44,8.44-8.44,8.44,3.78,8.44,8.44-3.78,8.44-8.44,8.44Z"/><path class="cls-2" d="m160.39,29.86l-8.54,9.46-8.54-9.46h-.53v20.28h2.03v-13.69c0-.15-.01-.31-.01-.47v-1.27l1.22,1.31s.01.01.02.02l1.4,1.5.23.25h0l4.19,4.49,5.82-6.24c.57-.69,1.4-1.88,1.4-1.88,0,0-.18,1.43-.18,2.3v13.69h2.03v-20.29h-.54Z"/><polygon class="cls-2" points="91.78 50.38 86.36 41.84 84.96 44.04 83.74 45.96 82.61 47.75 84.28 50.38 86.54 50.38 86.54 50.38 89.34 50.38 89.34 50.38 91.78 50.38"/><polygon class="cls-2" points="88.98 29.62 88.98 29.62 87.07 29.62 87.07 29.62 84.28 29.62 82.61 32.25 83.74 34.03 84.96 35.96 86.36 38.16 91.78 29.62 91.78 29.62 88.98 29.62"/><polygon class="cls-3" points="77.85 29.24 74.39 23.79 74.39 23.79 74.39 23.79 64.94 23.79 75.23 40 64.94 56.21 65.51 56.21 65.51 56.21 67.79 56.21 67.79 56.21 74.39 56.21 77.85 50.76 84.67 40 77.85 29.24"/></svg>