<?xml version="1.0" encoding="UTF-8"?><svg id="Layer_1" xmlns="http://www.w3.org/2000/svg" viewBox="0 0 180 80"><defs><style>.cls-1{fill:none;}.cls-2,.cls-3,.cls-4,.cls-5{isolation:isolate;}.cls-2,.cls-6{fill:#36c3f2;}.cls-2,.cls-5{opacity:.25;}.cls-3,.cls-4{opacity:.15;}.cls-3,.cls-7{fill:#ef3d55;}.cls-4,.cls-8{fill:#6a266d;}.cls-9{fill:#fff;}.cls-10,.cls-5{fill:#59c1a7;}</style></defs><rect class="cls-1" width="180" height="80"/><g id="Lines"><rect class="cls-5" x="26.66" y="42.4" width="23.52" height="11.85" transform="translate(-22.91 41.32) rotate(-45)"/><rect class="cls-2" x="32.39" y="19.8" width="11.85" height="23.52" transform="translate(-11.09 36.34) rotate(-45)"/><rect class="cls-3" x="15.5" y="36.58" width="11.85" height="23.52" transform="translate(-27.9 29.31) rotate(-45)"/><rect class="cls-4" x="10.06" y="25.24" width="23.52" height="11.85" transform="translate(-15.64 24.56) rotate(-45)"/></g><g id="Nodes"><circle class="cls-8" cx="29.89" cy="23.12" r="5.97"/><circle class="cls-6" cx="46.74" cy="40.03" r="5.97"/><circle class="cls-10" cx="29.89" cy="56.88" r="5.97"/><circle class="cls-7" cx="13.05" cy="39.97" r="5.97"/></g><g id="Iterable"><path class="cls-9" d="M104.7,32.96h-7.27c-.13,0-.24.11-.24.24v12.8c0,.13.11.24.24.24h7.27c.13,0,.24-.11.24-.24v-2.03c0-.13-.11-.24-.24-.24h-4.44c-.27,0-.46-.2-.46-.46v-2.1c0-.27.2-.46.46-.46h4.07c.13,0,.24-.11.24-.24v-1.83c0-.13-.11-.24-.24-.24h-4.07c-.27,0-.46-.2-.46-.46v-1.95c0-.27.2-.46.46-.46h4.44c.13,0,.24-.11.24-.24v-2.03c0-.15-.11-.27-.24-.27h0Z"/><path class="cls-9" d="M134.9,46.24c.09,0,.15-.04.2-.11s.04-.15.02-.22l-5.13-12.82c-.04-.09-.13-.15-.22-.15h-1.3c-.09,0-.18.07-.22.15l-5.13,12.8c-.02.07-.02.15.02.22.04.07.13.11.2.11h2.34c.11,0,.18-.07.22-.15l.64-1.77c.07-.18.24-.31.44-.31h4.31c.2,0,.38.13.44.31l.62,1.77c.04.09.11.15.22.15l2.32.02ZM130.52,41.54c-.09.13-.22.2-.38.2h-2.01c-.15,0-.29-.07-.38-.2s-.11-.29-.07-.42l.99-2.81c.09-.24.35-.38.6-.29.13.04.24.15.29.29l.99,2.81c.07.13.04.29-.04.42Z"/><path class="cls-9" d="M160.28,46.24c.13,0,.24-.11.24-.24v-2.03c0-.13-.11-.24-.24-.24h-3.78c-.27,0-.46-.2-.46-.46v-10.06c0-.13-.11-.24-.24-.24h-2.12c-.13,0-.24.11-.24.24v12.8c0,.13.11.24.24.24h6.61Z"/><path class="cls-9" d="M139.63,46.24h5.02c.77.02,1.55-.15,2.23-.53.6-.33,1.08-.82,1.41-1.39.31-.55.49-1.19.49-1.83.04-1.39-.75-2.67-2.01-3.29-.04-.02-.07-.07-.07-.11v-.07l.04-.07c.75-.62,1.17-1.55,1.15-2.52,0-.62-.15-1.22-.44-1.75-.31-.55-.77-.99-1.33-1.26-.69-.33-1.44-.51-2.21-.49h-4.27c-.15,0-.27.11-.27.27v12.78c-.02.15.11.27.24.27ZM141.99,35.88c0-.22.18-.4.4-.4h1.15c.44-.02.88.11,1.22.4.24.22.4.51.44.84.07.46-.11.91-.44,1.24-.33.31-.8.46-1.24.44h-1.15c-.22,0-.4-.18-.4-.4l.02-2.12ZM141.99,40.96c0-.22.18-.4.4-.4h1.77c.46-.02.93.13,1.28.46.33.29.51.69.51,1.13s-.18.86-.49,1.15c-.35.33-.82.49-1.3.46h-1.75c-.22,0-.42-.2-.42-.42h0v-2.39Z"/><path class="cls-9" d="M116.93,41.65c-.13-.22-.04-.49.15-.62.57-.35,1.06-.82,1.39-1.41.4-.69.62-1.48.6-2.3,0-.75-.2-1.48-.55-2.14-.38-.66-.93-1.24-1.59-1.61-.73-.42-1.55-.62-2.39-.62h-4.05c-.13,0-.24.11-.24.24v12.8c0,.13.11.24.24.24h2.12c.13,0,.24-.11.24-.24v-3.87c0-.27.2-.46.46-.46h.64c.18,0,.33.09.42.24l2.19,4.2c.04.09.13.13.22.13h2.41c.13,0,.24-.09.27-.22,0-.04,0-.09-.04-.13l-2.5-4.22ZM115.84,38.66c-.4.35-.93.53-1.46.51h-1.06c-.27,0-.46-.2-.46-.46v-2.76c0-.27.2-.46.46-.46h1.06c.53-.02,1.06.18,1.46.53.73.71.75,1.88.04,2.61-.02,0-.04.02-.04.04h0Z"/><path class="cls-9" d="M92.32,32.96h-8.38c-.13,0-.24.11-.24.24h0v2.03c0,.13.11.24.24.24h2.45c.27,0,.46.2.46.46h0v10.08c0,.13.11.24.24.24h2.14c.13,0,.24-.11.24-.24h0v-10.1c0-.27.2-.46.46-.46h2.37c.13,0,.24-.11.24-.24v-2.03c0-.11-.11-.22-.24-.22h0Z"/><path class="cls-9" d="M172.65,43.72h-4.44c-.27,0-.46-.2-.46-.46v-2.1c0-.27.2-.46.46-.46h4.07c.13,0,.24-.11.24-.24v-1.83c0-.13-.11-.24-.24-.24h-4.07c-.27,0-.46-.2-.46-.46v-1.95c0-.27.2-.46.46-.46h4.44c.13,0,.24-.11.24-.24v-2.03c0-.13-.11-.24-.24-.24h-7.27c-.13,0-.24.11-.24.24v12.8c0,.13.11.24.24.24h7.3c.13,0,.24-.11.24-.24v-2.03c-.02-.15-.13-.27-.27-.27Z"/><path class="cls-9" d="M78.75,43.7h-2.1c-.27,0-.46-.2-.46-.46h0v-7.32c0-.27.2-.46.46-.46h2.12c.13,0,.24-.11.24-.24h0v-2.03c0-.13-.11-.24-.24-.24h-7.91c-.13,0-.24.11-.24.24h0v2.06c0,.13.11.24.24.24h2.23c.27,0,.46.2.46.46v7.34c0,.24-.22.44-.46.44h-2.23c-.13,0-.24.11-.24.24h0v2.03c0,.13.11.24.24.24h2.87s.04.02.07.02h2.14s.04,0,.07-.02h2.76c.13,0,.24-.11.24-.24h0v-2.03c-.02-.15-.13-.27-.27-.27h0Z"/></g></svg>