<?xml version="1.0" encoding="UTF-8"?><svg id="Layer_1" xmlns="http://www.w3.org/2000/svg" viewBox="0 0 180 80"><defs><style>.cls-1{fill:none;}.cls-2,.cls-3{fill-rule:evenodd;}.cls-2,.cls-4{fill:#ff5551;}.cls-3{fill:#fff;}</style></defs><rect class="cls-1" width="180" height="80"/><path id="SVGID" class="cls-3" d="M14.42,44.61c-.15,0-.28.08-.35.2-.07.12-.07.28,0,.4.07.13,1.84,3.12,5.36,3.12s5.28-2.99,5.35-3.12c.07-.12.07-.28,0-.4-.07-.12-.21-.2-.35-.2h-10.01ZM13.42,35.91v4.07c0,.46.37.83.83.83h2.73c.46,0,.84-.37.84-.83v-2.71c0-.46-.37-.83-.84-.83h-1.9v-.53c0-1.03.85-1.87,1.9-1.87.46,0,.84-.37.84-.83s-.37-.83-.84-.83c-1.97,0-3.56,1.58-3.56,3.53ZM21.03,35.91v4.07c0,.46.37.83.84.83h2.73c.46,0,.83-.37.83-.83v-2.71c0-.46-.37-.83-.83-.83h-1.9v-.53c0-1.03.85-1.87,1.9-1.87.46,0,.83-.37.83-.83s-.37-.83-.83-.83c-1.97,0-3.56,1.58-3.56,3.53Z"/><path id="SVGID-2" class="cls-2" d="M13.77,25.35c-5.02,0-9.1,4.06-9.1,9.04v11.23c0,4.98,4.08,9.04,9.1,9.04h7.67l-5.06-3.61h-2.61c-3.01,0-5.46-2.43-5.46-5.42v-11.23c0-2.99,2.45-5.42,5.46-5.42h11.31c3.01,0,5.46,2.43,5.46,5.42v11.23c0,2.99-2.45,5.42-5.46,5.42h-2.15v3.61h2.15c5.02,0,9.11-4.05,9.11-9.04v-11.23c0-4.98-4.09-9.04-9.11-9.04h-11.31Z"/><path class="cls-4" d="M44.42,30.03c0-.67.34-1.01,1.01-1.01h.98c.67,0,1.01.34,1.01,1.01v8.07h3.24l5.05-8.41c.28-.49.64-.67,1.19-.67h1.13c.79,0,1.1.52.7,1.22l-5.6,9.02v.06l5.99,10.09c.43.67.12,1.19-.67,1.19h-1.25c-.55,0-.92-.21-1.19-.7l-5.35-9.2h-3.24v8.9c0,.67-.34,1.01-1.01,1.01h-.98c-.67,0-1.01-.34-1.01-1.01v-19.57h0Z"/><path class="cls-4" d="M61.75,36.15c0-.67.34-1.01,1.01-1.01h.95c.64,0,.98.34.98,1.01v8.23c0,2.14.46,3.85,2.9,3.85,3.18,0,5.05-2.78,5.05-5.84v-6.24c0-.67.34-1.01,1.01-1.01h.95c.64,0,1.01.34,1.01,1.01v13.45c0,.67-.37,1.01-1.01,1.01h-.86c-.67,0-1.01-.34-1.01-1.01v-1.38c0-.46.09-.89.09-.89h-.06c-.67,1.53-2.72,3.64-5.75,3.64-3.48,0-5.26-1.83-5.26-5.93v-8.9h0Z"/><path class="cls-4" d="M79.06,47.92l.31-.43c.4-.52.79-.55,1.41-.21.7.46,1.99,1.25,3.79,1.25,1.53,0,2.63-.73,2.63-2.05,0-3.03-7.98-2.02-7.98-7.25,0-2.93,2.57-4.46,5.6-4.46,2.14,0,3.55.73,4.28,1.19.55.28.64.79.34,1.35l-.28.46c-.31.55-.76.61-1.35.34-.64-.37-1.68-.89-3.15-.89s-2.6.64-2.6,1.96c0,3.09,7.98,1.99,7.98,7.25,0,2.63-2.23,4.56-5.57,4.56-2.57,0-4.34-1.04-5.2-1.68-.52-.34-.55-.86-.21-1.38Z"/><path class="cls-4" d="M94.04,37.71h-1.07c-.64,0-.98-.37-.98-1.01v-.4c0-.64.34-1.01,1.01-1.01h1.1v-3.39c0-.67.37-1.01,1.01-1.01h.89c.67,0,1.01.34,1.01,1.01v3.39h2.69c.67,0,1.01.37,1.01,1.01v.4c0,.64-.34,1.01-.98,1.01h-2.72v6.88c0,2.93,1.8,3.39,2.93,3.48.79.06,1.07.31,1.07,1.01v.64c0,.7-.4,1.01-1.22,1.01-3.06,0-5.75-1.77-5.75-5.69v-7.34h0Z"/><path class="cls-4" d="M110.92,34.77c4.62,0,8.35,3.39,8.35,8.07s-3.73,8.13-8.35,8.13-8.32-3.42-8.32-8.13,3.7-8.07,8.32-8.07ZM110.92,48.41c2.93,0,5.32-2.32,5.32-5.57s-2.38-5.5-5.32-5.5-5.32,2.29-5.32,5.5c0,3.24,2.41,5.57,5.32,5.57Z"/><path class="cls-4" d="M122.53,36.15c0-.67.37-1.01,1.01-1.01h.86c.67,0,1.01.34,1.01,1.01v1.38c0,.46-.09.89-.09.89h.06c.76-1.8,2.93-3.64,5.38-3.64,2.6,0,4.1,1.19,4.65,3.52h.06c.83-1.8,2.97-3.52,5.47-3.52,3.52,0,5.11,1.99,5.11,5.93v8.9c0,.67-.34,1.01-1.01,1.01h-.95c-.64,0-1.01-.34-1.01-1.01v-8.25c0-2.17-.43-3.88-2.72-3.88-2.87,0-4.59,2.97-4.59,5.93v6.21c0,.67-.34,1.01-.98,1.01h-.98c-.64,0-.98-.34-.98-1.01v-8.25c0-2.02-.31-3.88-2.69-3.88-2.93,0-4.65,3.06-4.65,5.93v6.21c0,.67-.34,1.01-1.01,1.01h-.95c-.64,0-1.01-.34-1.01-1.01v-13.45h0Z"/><path class="cls-4" d="M156.87,34.77c4.28,0,6.66,3.06,6.66,7.37,0,.55-.43,1.04-1.04,1.04h-10.33c.18,3.36,2.6,5.23,5.35,5.23,1.68,0,3-.7,3.7-1.22.58-.31,1.04-.24,1.38.34l.28.46c.31.52.21,1.04-.31,1.35-.92.64-2.75,1.65-5.23,1.65-4.86,0-8.19-3.52-8.19-8.1,0-4.92,3.34-8.1,7.74-8.1ZM160.57,41.22c-.09-2.72-1.71-4.13-3.76-4.13-2.26,0-4.1,1.53-4.53,4.13h8.29Z"/><path class="cls-4" d="M166.77,36.15c0-.67.37-1.01,1.01-1.01h.86c.67,0,1.01.34,1.01,1.01v1.77c0,.64-.09,1.16-.09,1.16h.06c.67-2.05,2.41-4.07,4.74-4.07.7,0,.98.34.98,1.01v.86c0,.67-.4,1.01-1.1,1.01-3.03,0-4.49,3.27-4.49,6.33v5.38c0,.67-.34,1.01-1.01,1.01h-.95c-.64,0-1.01-.34-1.01-1.01v-13.45Z"/></svg>