<svg id="Layer_1" data-name="Layer 1" xmlns="http://www.w3.org/2000/svg" viewBox="0 0 180 80"><defs><style>.cls-1{fill:none;}.cls-2{fill:#356ae6;}.cls-3{fill:#fff;}</style></defs><rect class="cls-1" width="180" height="80"/><rect class="cls-1" width="180" height="80"/><rect id="Rectangle" class="cls-2" x="60.38" y="10.38" width="59.24" height="59.24" rx="7.4"/><path class="cls-3" d="M87.89,41.34a2.8,2.8,0,0,0,1.65-.63l1.27-.88L91,39.7l-.2-.14c-.09-.07-9-6.28-10-6.87a1.26,1.26,0,0,0-1.31-.18A1.13,1.13,0,0,0,79,33.56v2.11l.07,0c.06.05,6.21,4.32,7.41,5.12A2.59,2.59,0,0,0,87.89,41.34Z"/><path class="cls-3" d="M99.89,37.62c-.54-.4-19.73-13.78-20.55-14.35l-.26-.18v3.28a2.17,2.17,0,0,0,1.24,1.95L96.86,39.85C95,41.12,81.17,50.73,80.3,51.29a2,2,0,0,0-1.16,2.09v3.53L99.88,42.07h0A2.66,2.66,0,0,0,101,40v-.37A2.34,2.34,0,0,0,99.89,37.62Z"/></svg>