<?xml version="1.0" encoding="UTF-8"?><svg id="Layer_1" xmlns="http://www.w3.org/2000/svg" viewBox="0 0 180 80"><defs><style>.cls-1{fill:none;}.cls-2{fill-rule:evenodd;}.cls-2,.cls-3{fill:#873eff;}</style></defs><rect class="cls-1" width="180" height="80"/><path class="cls-3" d="M29.67,60.99c4.73,0,8.53-2.34,11.39-7.71l6.37-11.91v10.1c0,5.96,3.85,9.52,9.81,9.52,4.67,0,8.12-2.04,11.45-7.71l14.66-24.76c3.21-5.43.93-9.52-6.13-9.52-3.8,0-6.25,1.23-8.47,5.37l-10.1,18.98v-16.88c0-5.02-2.39-7.48-6.83-7.48-3.5,0-6.31,1.52-8.47,5.72l-9.52,18.63v-16.7c0-5.37-2.22-7.65-7.59-7.65h-10.98c-4.15,0-6.25,1.93-6.25,5.49s2.22,5.61,6.25,5.61h4.5v21.32c0,6.02,4.03,9.58,9.93,9.58Z"/><path class="cls-2" d="M104.78,19.01c-11.97,0-21.14,8.94-21.14,21.02s9.23,20.97,21.14,20.97,21.02-8.94,21.08-20.97c0-12.09-9.17-21.02-21.08-21.02ZM104.78,48.09c-4.5,0-7.59-3.39-7.59-8.06s3.1-8.12,7.59-8.12,7.59,3.45,7.59,8.12-3.04,8.06-7.59,8.06Z"/><path class="cls-2" d="M128.84,40.03c0-12.09,9.17-21.02,21.08-21.02s21.08,8.99,21.08,21.02-9.17,20.97-21.08,20.97-21.08-8.88-21.08-20.97ZM142.38,40.03c0,4.67,2.98,8.06,7.53,8.06s7.59-3.39,7.59-8.06-3.1-8.12-7.59-8.12-7.53,3.45-7.53,8.12Z"/></svg>