<?xml version="1.0" encoding="UTF-8"?><svg id="Layer_1" xmlns="http://www.w3.org/2000/svg" xmlns:xlink="http://www.w3.org/1999/xlink" viewBox="0 0 180 80"><defs><style>.cls-1{fill:none;}.cls-2{clip-path:url(#clippath);}.cls-3{fill:#017737;}</style><clipPath id="clippath"><rect class="cls-1" x="3.97" y="16.43" width="172.05" height="47.14"/></clipPath></defs><rect class="cls-1" width="180" height="80"/><rect class="cls-1" width="180" height="80"/><g class="cls-2"><g><path class="cls-3" d="M36.91,28.88c1.71,0,3.1-1.39,3.1-3.1s-1.39-3.1-3.1-3.1-3.1,1.39-3.1,3.1,1.39,3.1,3.1,3.1Z"/><path class="cls-3" d="M39.7,30.43h-5.57v19.11h5.57V30.43Z"/><path class="cls-3" d="M126.54,28.88c1.71,0,3.1-1.39,3.1-3.1s-1.39-3.1-3.1-3.1-3.1,1.39-3.1,3.1,1.39,3.1,3.1,3.1Z"/><path class="cls-3" d="M129.32,30.43h-5.57v19.11h5.57V30.43Z"/><path class="cls-3" d="M169.82,39.36c0-5.45-4.35-9.34-9.57-9.34-5.87,0-10.15,4.08-10.15,9.95s4.01,9.95,10.15,9.95c5.23,0,8.7-3.24,9.34-6.83h-5.38c-.61,1.56-2.4,2.44-4.08,2.44-2.25-.04-3.93-1.37-4.42-4.27h14.07l.04-1.91Zm-14-1.56c.61-2.82,2.71-3.51,4.42-3.51s3.81,.88,4.08,3.51h-8.5Z"/><path class="cls-3" d="M145.99,30.43h5.72l-7.78,19.11h-5.87l-7.78-19.11h5.99l4.84,12.66,4.88-12.66Z"/><path class="cls-3" d="M115.36,33.48c1.3-2.02,3.36-3.32,5.72-3.32,.42,0,.95,.04,1.3,.15v5.23c-.46-.08-.95-.11-1.41-.11-3.59,0-5.45,2.63-5.45,6.41v7.7h-5.53v-14.07c0-.3-.12-.38-.46-.38h-1.91v-4.65h4.81c1.95,0,2.94,.92,2.94,2.63v.42Z"/><path class="cls-3" d="M106.63,44.89c-.3,0-.38-.08-.38-.38V25.44c0-1.91-.99-2.78-3.01-2.78h-4.84v4.61h1.79c.34,0,.46,.11,.46,.42v4.5c-.72-.95-2.75-2.17-5.45-2.17-5.38,0-9.31,4.08-9.31,9.95s3.78,9.95,9.15,9.95c3.01,0,5.15-1.53,5.95-2.78,.08,.84,.65,2.4,2.71,2.4h4.92v-4.65h-1.98Zm-10.45,.45c-2.67,0-4.61-2.06-4.61-5.38s1.98-5.3,4.65-5.3c3.01,0,4.54,2.67,4.54,5.26,0,4.04-2.44,5.42-4.58,5.42Z"/><path class="cls-3" d="M84.66,39.36c0-5.45-4.35-9.34-9.57-9.34-5.87,0-10.15,4.08-10.15,9.95s4.01,9.95,10.15,9.95c5.23,0,8.7-3.24,9.34-6.83h-5.38c-.61,1.56-2.4,2.44-4.08,2.44-2.25-.04-3.93-1.37-4.42-4.27h14.07l.04-1.91Zm-14-1.56c.61-2.82,2.71-3.51,4.42-3.51s3.81,.88,4.08,3.51h-8.5Z"/><path class="cls-3" d="M54.72,30.01c-3.13,0-5.34,1.64-6.18,3.05-.15-.8-.69-2.63-2.82-2.63h-4.65v4.65h1.91c.34,0,.42,.08,.42,.38v21.89h5.57v-8.47l-.04-1.37c.8,1.34,2.94,2.4,5.53,2.4,5.45,0,9.27-4.04,9.27-9.95,0-5.95-3.63-9.95-9-9.95Zm-1.41,15.33c-3.01,0-4.46-2.71-4.46-5.3,0-3.97,2.4-5.38,4.54-5.38,2.59,0,4.65,2.17,4.65,5.34,0,3.74-2.52,5.34-4.73,5.34Z"/><path class="cls-3" d="M32.82,39.97c0,5.91-3.81,9.95-9.27,9.95-2.59,0-4.73-1.07-5.53-2.4l.04,1.37v8.47h-5.57v-21.89c0-.3-.08-.38-.42-.38h-1.91v-4.65h4.65c2.14,0,2.67,1.83,2.82,2.63,.84-1.41,3.05-3.05,6.18-3.05,5.38,0,9,4,9,9.95Zm-5.68,.04c0-3.17-2.06-5.34-4.65-5.34-2.14,0-4.54,1.41-4.54,5.38,0,2.59,1.45,5.3,4.46,5.3,2.21,0,4.73-1.6,4.73-5.34Z"/></g></g></svg>