<svg id="Layer_1" data-name="Layer 1" xmlns="http://www.w3.org/2000/svg" viewBox="0 0 180 80"><defs><style>.cls-1{fill:none;}.cls-2{fill:#44b6e8;}.cls-3{fill:#248dcd;}.cls-4{fill:#fff;}</style></defs><rect class="cls-1" width="180" height="80"/><rect id="bounding_box" data-name="bounding box" class="cls-1" x="136.54" y="25.81" width="105.99" height="105.99"/><rect class="cls-1" width="180" height="80"/><path class="cls-1" d="M105.54,81a6.45,6.45,0,0,0,3.66-1.63,2,2,0,0,0,.5-1.67c-.24-1.5-2.14-2.55-4.2-3.27a5,5,0,0,0,1.75-2,2.08,2.08,0,0,0-.09-1.85c-.65-1.14-2.28-1.66-5-1.66h0a4.7,4.7,0,0,0,.87-2.53,2.11,2.11,0,0,0-.75-1.62,2.94,2.94,0,0,0-1.94-.59,8.62,8.62,0,0,0-2.51.46,5.25,5.25,0,0,0-.16-2,2.3,2.3,0,0,0-1.3-1.44,2.51,2.51,0,0,0-1-.2,6,6,0,0,0-3.42,1.55c-.52-1.93-1.51-3.11-2.8-3.26h-.25c-1.14,0-2.18.81-3,2.28a4.77,4.77,0,0,0-3.42-2.1,1.09,1.09,0,0,0-.36,0,2.4,2.4,0,0,0-1.68,1.13A5.59,5.59,0,0,0,79.66,63a8.13,8.13,0,0,0-3.88-1.42,2.67,2.67,0,0,0-1.21.26,2.2,2.2,0,0,0-1.14,1.47,4.65,4.65,0,0,0,.24,2.45,13.26,13.26,0,0,0-2.59-.29,3.78,3.78,0,0,0-2.74.84,2.07,2.07,0,0,0-.59,1.84A5.58,5.58,0,0,0,69.5,71c-2.6.28-5.43,1-6.12,2.59a2,2,0,0,0,.11,1.8,5.92,5.92,0,0,0,3.12,2.21c-2.77,1.33-4.93,3-4.89,4.67,0,1.2,1,2.62,5.35,2.62h1.14c-2.43,2.46-4.66,5.47-3.49,7.4a2.59,2.59,0,0,0,2.43,1.14,13.35,13.35,0,0,0,5.12-1.47A12,12,0,0,0,71.19,98a2.61,2.61,0,0,0,1.14,1.79,2.38,2.38,0,0,0,1.27.34c1.88,0,4.35-1.94,6.77-4.7.17,2.91.74,5.57,1.92,6.92a2.66,2.66,0,0,0,1.9,1h.11c2.41,0,4-3.35,5-6.58,1.64,2.84,3.5,4.78,5.25,4.78a2.32,2.32,0,0,0,.94-.19c2.09-.88,2.36-4.39,1.81-8.28,2.17,1.57,4.09,2.45,5.47,2.45h0a2.44,2.44,0,0,0,1.91-.81c1.31-1.53.25-4.28-1.14-6.73a14,14,0,0,0,2.42.27h0c2.27,0,3-.94,3.2-1.74C109.64,84.82,107.9,82.85,105.54,81Z"/><path class="cls-2" d="M77.15,50.66a11.57,11.57,0,0,1-6,1.54c-6.74,0-10.71-4.69-10.71-12.64,0-5.66,2.16-9.38,5-11.34A11.36,11.36,0,0,1,71.6,26.4a10.48,10.48,0,0,1,4.76,1.09,11.49,11.49,0,0,1,2.38,1.73l-3.12,4.21a6.24,6.24,0,0,0-3.87-1.92c-2.88,0-4.16,2.49-4.16,8.24,0,3.2.42,5.11,1.19,6.17a3.69,3.69,0,0,0,2.91,1.34,6.63,6.63,0,0,0,4.42-2l.38-.35,2.89,3.93A9.77,9.77,0,0,1,77.15,50.66Z"/><path class="cls-2" d="M98.5,48.74a10,10,0,0,1-8.09,3.41c-6.65,0-11-5-11-12.69s4.41-12.83,11-12.83a10.29,10.29,0,0,1,8.33,3.69c2,2.3,2.82,5,2.82,9C101.56,43.48,100.61,46.35,98.5,48.74ZM93.28,32.67a3.41,3.41,0,0,0-2.77-1.3,3.46,3.46,0,0,0-3.3,2.49,17.35,17.35,0,0,0-.69,5.46,17.07,17.07,0,0,0,.82,6.18,3.58,3.58,0,0,0,3.25,2c2.77,0,4-2.5,4-8.33C94.58,35.92,94.15,33.76,93.28,32.67Z"/><path class="cls-2" d="M119.6,52.29a5.6,5.6,0,0,1-1.9-2.38,9.22,9.22,0,0,1-6.46,2.38c-3.45,0-6.42-1.63-7.24-4a14.64,14.64,0,0,1-.52-4.88V27.68l6.32-1.19V42.23a9.67,9.67,0,0,0,.52,4,2.6,2.6,0,0,0,2.25,1.19,4.74,4.74,0,0,0,4-2.38V27.84l6.13-1.3V45.26a7.17,7.17,0,0,0,1.49,4.45Z"/><path class="cls-2" d="M144.74,49.36a8.78,8.78,0,0,1-6.56,2.79,10.29,10.29,0,0,1-5.12-1.3,13.54,13.54,0,0,1,.1,2v7.67L127,62.14V33.81a31.16,31.16,0,0,0-.38-6.18l5.69-1a11.24,11.24,0,0,1,.43,2.3,8.19,8.19,0,0,1,6-2.3,8.79,8.79,0,0,1,4.89,1.49c2.64,1.76,4.56,4.93,4.56,10.58C148.14,44,147.27,46.64,144.74,49.36Zm-4.22-15.47a3,3,0,0,0-3.06-2.06,6,6,0,0,0-4.26,1.87V45.6A6.06,6.06,0,0,0,136.77,47c3.17,0,4.41-2.15,4.41-7.75a17.5,17.5,0,0,0-.66-5.38Z"/><path class="cls-2" d="M167.61,52.86a6.87,6.87,0,0,1-3.44-3,11.32,11.32,0,0,1-1.49,1.28,8.41,8.41,0,0,1-4.93,1.35c-5.46,0-8.42-2.77-8.42-7.67,0-5.73,4-8.42,11.77-8.42a11.56,11.56,0,0,1,1.44.06v-1c0-2.73-.53-3.64-2.87-3.64-2.06,0-4.45,1-7.14,2.78L149.79,30a22.85,22.85,0,0,1,4-2,16.31,16.31,0,0,1,6.7-1.44c4.11,0,6.93,1.53,7.9,4.26a11.47,11.47,0,0,1,.43,4.4l-.15,8.23c0,2.68.15,3.82,2.3,5.45ZM162.16,41c-4.45,0-5.95.81-5.95,3.73a2.9,2.9,0,0,0,2.6,3.19l.23,0a4.67,4.67,0,0,0,3.34-1.68l.1-5.26Z"/><path class="cls-2" d="M46.17,36.12c-.84-.4-1.63-.76-2.38-1.07.78-.16,1.59-.35,2.38-.57,5.53-1.5,9.06-3.88,8.22-5.39s-5.53-1.58-10.83-.33c-.76.18-1.5.38-2.21.6.37-.55.73-1.11,1.07-1.69,2.23-3.94,2.66-7.31,1.19-7.94S39.12,21.3,36.54,25q-.57.84-1,1.68c-.17-.62-.37-1.19-.59-1.85C33.41,20.64,31,17.76,29.4,18s-2.11,3.71-.88,8.12c.19.66.39,1.3.63,1.92A17.32,17.32,0,0,0,27,27c-5.12-2.45-10.14-3.4-11.41-2.15s1.81,4.53,7.24,7.24c.8.39,1.57.75,2.32,1.07-.89.16-1.83.35-2.78.57C15.25,35.46,9,38.52,9.05,40.62s6.87,2.15,14.61,0c1-.28,2-.59,2.94-.9-.59.75-1.19,1.57-1.79,2.38C20.05,49,17.37,56.61,19.58,57.94S27.71,53.44,32,46.07c.53-.94,1-1.85,1.42-2.73.19.93.43,1.89.71,2.91,2.2,7.89,6.28,14.41,8.71,13.39s1.73-8.56-.94-15.89c-.35-.94-.71-1.82-1.07-2.66.79.48,1.64.93,2.52,1.38,6.53,3.29,12.51,4.38,13.09,2.38S52.22,39,46.17,36.12Z"/><g id="Layer_2" data-name="Layer 2"><path class="cls-3" d="M28.47,38.42c-.69.23-1.44.46-2.21.67a34,34,0,0,1-6.32,1.11c-5.31,4.11-9,8.59-8,10.31s6.21-.14,11.8-3.81a31.21,31.21,0,0,1,3.38-6.45C27.6,39.59,28,39,28.47,38.42Z"/><path class="cls-3" d="M27.26,33.39c-.6-.25-1.19-.52-1.81-.83a22.35,22.35,0,0,1-4.27-2.71c-5.4-.17-9.87.68-10.51,2.19s2.79,3.16,8,4a31.94,31.94,0,0,1,6.45-2.22C25.83,33.67,26.58,33.52,27.26,33.39Z"/><path class="cls-3" d="M30.26,29.32c-.2-.5-.37-1-.53-1.53a14.49,14.49,0,0,1-.61-4c-3-2.64-5.95-4.07-7.24-3.41s-.68,3.15,1.45,6.19a24.17,24.17,0,0,1,5.27,1.88C29.18,28.74,29.73,29,30.26,29.32Z"/><path class="cls-3" d="M39.93,30.36c.57-.18,1.19-.35,1.77-.49a23.27,23.27,0,0,1,4.76-.69c2.82-2.58,4-5,3-5.85s-3.76-.18-6.94,1.58A14,14,0,0,1,40.83,29C40.53,29.41,40.24,29.92,39.93,30.36Z"/><path class="cls-3" d="M33.66,41.09c-.31.65-.68,1.32-1.07,2a32.94,32.94,0,0,1-3.93,5.45c-.62,7,.43,12.93,2.79,13.09S36,56.4,37,49.86a27.92,27.92,0,0,1-2.82-6.63C34,42.5,33.8,41.78,33.66,41.09Z"/><path class="cls-3" d="M35.35,28.22c.25-.47.53-.92.83-1.37a16.57,16.57,0,0,1,2.67-3.12c-.09-3.34-1.06-5.72-2.38-5.87s-2.75,1.8-3.57,4.86a15.17,15.17,0,0,1,2,4Q35.14,27.44,35.35,28.22Z"/><path class="cls-3" d="M56.89,36.09c-.23-1.42-3.68-2.89-8.25-3.67a20.65,20.65,0,0,1-5,2c-.64.18-1.27.33-1.91.46.62.23,1.19.52,1.88.83a29.45,29.45,0,0,1,4.79,2.89C53.57,38.65,57.14,37.63,56.89,36.09Z"/><path class="cls-3" d="M39.34,39.44c.27.63.53,1.28.78,2a29.68,29.68,0,0,1,1.48,6c4.53,4.49,9,7,10.37,5.51s-.89-5.77-4.53-10.19a27.52,27.52,0,0,1-6.14-2.29C40.57,40.12,39.93,39.8,39.34,39.44Z"/></g><path class="cls-4" d="M48.44,38.58a28.71,28.71,0,0,0-4.86-2.89c-.63-.31-1.26-.6-1.88-.85.63-.11,1.26-.26,1.91-.44a21,21,0,0,0,5-2c1.39-.84,2.08-1.68,1.75-2.31s-1.85-1-3.88-.93a23.87,23.87,0,0,0-4.76.69c-.62.14-1.19.31-1.78.49.31-.44.6-.91.87-1.38a13.93,13.93,0,0,0,1.67-4.07c.26-1.3.09-2.24-.54-2.51s-1.84.21-3.09,1.32a16.31,16.31,0,0,0-2.68,3.12,13.63,13.63,0,0,0-.83,1.38c-.13-.5-.29-1-.47-1.51a14.71,14.71,0,0,0-2.07-4c-.86-1.19-1.76-1.8-2.46-1.67s-1.19,1.19-1.19,2.78a14.11,14.11,0,0,0,.61,4c.15.52.33,1,.52,1.54-.52-.29-1.07-.59-1.65-.86a23.83,23.83,0,0,0-5.31-1.89c-1.82-.4-3.24-.36-3.75.19s.08,1.78,1.6,3.07a22.35,22.35,0,0,0,4.27,2.71c.6.31,1.19.58,1.81.83-.68.13-1.4.28-2.13.46a31.85,31.85,0,0,0-6.44,2.22c-2.13,1-3.46,2.12-3.38,3s2,1.35,4.65,1.19a33,33,0,0,0,6.31-1.1c.77-.22,1.52-.44,2.21-.68-.43.57-.87,1.19-1.31,1.83a31.47,31.47,0,0,0-3.38,6.45c-.87,2.38-1,4.27-.09,4.76s2.93-.69,5-2.94a32.94,32.94,0,0,0,3.93-5.45c.39-.68.76-1.35,1.07-2,.14.69.32,1.41.54,2.14A28.1,28.1,0,0,0,37,49.82c1.27,2.1,2.62,3.33,3.57,3s1.37-2.52,1-5.32a29,29,0,0,0-1.46-6c-.25-.71-.51-1.36-.79-2,.6.36,1.19.7,1.92,1.05a27.25,27.25,0,0,0,6.19,2.29c2.07.45,3.57.35,3.83-.45S50.43,40.12,48.44,38.58Z"/></svg>