<svg id="Layer_1" data-name="Layer 1" xmlns="http://www.w3.org/2000/svg" xmlns:xlink="http://www.w3.org/1999/xlink" viewBox="0 0 180 80"><defs><style>.cls-1{fill:#fff;}.cls-1,.cls-3,.cls-6{fill-rule:evenodd;}.cls-2{fill:none;}.cls-3{fill:#33475b;}.cls-4{mask:url(#mask);}.cls-5{mask:url(#mask-2-2);}.cls-6{fill:#ff7a59;}</style><mask id="mask" x="105.98" y="32.49" width="22.91" height="31.35" maskUnits="userSpaceOnUse"><g id="mask-2"><polygon id="path-1" class="cls-1" points="128.89 63.84 105.98 63.84 105.98 32.49 128.89 32.49 128.89 63.84"/></g></mask><mask id="mask-2-2" x="112.96" y="17.03" width="43.4" height="46.15" maskUnits="userSpaceOnUse"><g id="mask-4"><polygon id="path-3" class="cls-1" points="112.95 17.03 156.36 17.03 156.36 63.18 112.95 63.18 112.95 17.03"/></g></mask></defs><rect class="cls-2" width="180" height="80"/><rect class="cls-2" width="180" height="80"/><g id="_--Marketing_Logos_HubSpot-Primary" data-name="--Marketing/Logos/HubSpot-Primary"><g id="Marketing_Logos_HubSpot-Primary" data-name="Marketing/Logos/HubSpot-Primary"><polygon id="Fill-1" class="cls-3" points="26.06 24.78 26.06 37.98 14.11 37.98 14.11 24.78 8.43 24.78 8.43 56.3 14.11 56.3 14.11 43.52 26.06 43.52 26.06 56.3 31.73 56.3 31.73 24.78 26.06 24.78"/><path id="Fill-2" class="cls-3" d="M49.89,46.11a4.7,4.7,0,1,1-9.39,0V32.61H35.13v13.5a10.07,10.07,0,1,0,20.13,0V32.61H49.89Z"/><path id="Fill-4" class="cls-3" d="M89.76,34c0-2.77,1.8-3.64,3.78-3.64,1.59,0,3.7,1.23,5.07,2.72l3.52-4.21a11,11,0,0,0-8.25-4.09C88,24.78,83.82,28.25,83.82,34c0,10.67,12.86,7.29,12.86,13.26a3.74,3.74,0,0,1-3.79,3.47c-3.18,0-4.21-1.58-5.67-3.25l-3.91,4.13a11.49,11.49,0,0,0,9.28,4.7c5.55,0,10-3.52,10-9,0-11.85-12.85-8.16-12.85-13.3"/><path id="Fill-6" class="cls-3" d="M169.27,51.26c-3.18,0-4.08-1.39-4.08-3.53V38.27h4.94v-4.8h-4.94V27.14l-5.46,2.49V48.91c0,4.93,3.35,7.41,8,7.41a10.84,10.84,0,0,0,2.15-.17l1.33-5c-.6,0-1.29.08-1.89.08"/><path id="Fill-8" class="cls-3" d="M70.33,50.82a6.21,6.21,0,1,1,6.12-6.2,6.16,6.16,0,0,1-6.12,6.2m0-18A8.21,8.21,0,0,0,64,35.35V25H58.65V44.2c0,7.19,5.13,12.12,10.89,12.12a11.87,11.87,0,0,0,12-11.77A11.5,11.5,0,0,0,70.37,32.77"/><g id="Group-12"><g class="cls-4"><path id="Fill-10" class="cls-3" d="M117.66,50.4a6.21,6.21,0,1,1,6.11-6.2,6.15,6.15,0,0,1-6.11,6.2m11.23-6.14a11.87,11.87,0,0,0-12-11.77c-5.76,0-10.89,4.93-10.89,12.12V63.84h5.39V53.47A8.2,8.2,0,0,0,117.69,56a11.5,11.5,0,0,0,11.2-11.78"/></g></g><g id="Group-15"><g class="cls-5"><path id="Fill-13" class="cls-6" d="M144.48,50.29a6.18,6.18,0,1,1,6.09-6.18,6.13,6.13,0,0,1-6.09,6.18m1.83-18.07V26.73a4.24,4.24,0,0,0,2.4-3.81v-.13a4.21,4.21,0,0,0-4.16-4.23h-.13a4.21,4.21,0,0,0-4.16,4.23v.13a4.24,4.24,0,0,0,2.4,3.81v5.49a11.67,11.67,0,0,0-5.61,2.51L122.18,23a4.61,4.61,0,0,0,.17-1.18,4.7,4.7,0,1,0-4.7,4.75,4.57,4.57,0,0,0,2.31-.63l14.62,11.54A12.18,12.18,0,0,0,134.76,51l-4.44,4.51a4,4,0,0,0-1.11-.18,3.92,3.92,0,1,0,3.86,3.92,3.8,3.8,0,0,0-.18-1.12l4.4-4.46a11.75,11.75,0,0,0,7.19,2.47,12.05,12.05,0,0,0,1.83-23.94"/></g></g></g></g></svg>