<svg id="Layer_1" data-name="Layer 1" xmlns="http://www.w3.org/2000/svg" viewBox="0 0 180 80"><defs><style>.cls-1{fill:none;}</style></defs><rect class="cls-1" width="180" height="80"/><path d="M158.14,45.87s-1.35-1.9-1.76-2.43-.65-.77-1.61-.14a13,13,0,0,1-7.21,2.63,8.29,8.29,0,0,1-5.37-1.77c.6-.27,1.22-.56,1.85-.91a34.83,34.83,0,0,0,7.53-5.5c6.48-6.58,4.44-16.31-3.58-16.31-7.55,0-13.49,7.34-13.49,15.51a18.68,18.68,0,0,0,.66,4.82c-.43.21-3.44,1.61-7,3.65-3.38-2.51-8.61-1.4-8.61-1.4,4.82-6.92,12.2-17.67,12.85-18.62.45-.64.37-1.27,0-2.26a2,2,0,0,0-1.88-1.42H115.19a1,1,0,0,0-1,.79c-.14.56-.45,2.51-.51,3.21a1.07,1.07,0,0,0,1.06,1.09h11.19l-10,14.3a1.19,1.19,0,0,0-.19.2c-1.45,2.09-3.68,5-6.43,5-1.6,0-3.71-1.19-3.71-5.07s1.61-11.86,2.65-18.14c.13-.67-.09-1.33-1.17-1.33h-2.63a1,1,0,0,0-1.06.91c-.16.95-.34,1.9-.49,2.82a6.92,6.92,0,0,0-6.55-4,11,11,0,0,0-7.93,3.21c-5.7,5.71-4.63,15-9.64,19.94-2.12,2.12-4.51,1.47-4.51-2.7,0-4.82,1.83-10.1,3.92-15.13a2.25,2.25,0,0,0-.34-2.11c-.56-.81-.77-1.23-1.77-1.23a69.91,69.91,0,0,1-9,1,28.11,28.11,0,0,1-3-.1V23c0-.71-.21-1.14-1-1.14H60.65c-.9,0-1.14.43-1.24,1.17-.43,3-1.25,14.2-6.87,19.8a5.24,5.24,0,0,1-1,.85,21.92,21.92,0,0,0,2.14-9.25c0-8-4.73-12.94-10.67-12.94a10.58,10.58,0,0,0-5.54,1.7c.83-4.82,1.61-9.43,1.88-11a3.11,3.11,0,0,0-.58-2.52c-.56-.87-1.06-1.27-1.81-1.27H28.16a1,1,0,0,0-1,.91,29.12,29.12,0,0,0-.5,3.22.89.89,0,0,0,1,1h6.42c-1,6.28-3,18.44-3.55,21.51a13.9,13.9,0,0,1-8.17,10.34,1,1,0,0,0-.64,1.31l0,.07A25,25,0,0,0,23,49.37a1.12,1.12,0,0,0,1.3.53,17.19,17.19,0,0,0,6.42-4A14.06,14.06,0,0,0,32,44.5c2.08,4.69,6.43,6.43,10.72,6.43a20,20,0,0,0,14-5.47c4.37-4.36,6.18-11.56,7-16.67a27.34,27.34,0,0,0,3.5.26,25.59,25.59,0,0,0,5.51-.64s-3,8-3,13.94c0,6.68,3.21,8.58,6.71,8.58s6.2-2.74,8-6.12A11.55,11.55,0,0,0,86.54,48a9,9,0,0,0,6.63,2.86A10.24,10.24,0,0,0,101.49,46,7.11,7.11,0,0,0,103.21,49a7.58,7.58,0,0,0,5.25,1.9c4.1,0,6.43-3.08,12.85-3.08a6.54,6.54,0,0,1,2.2.35,41.35,41.35,0,0,0-7.42,5.48c-5.26,5.25-5.52,12.2-2.07,15.66,4.21,4.19,10.15,2.07,13.91-1.61,4.35-4.37,5.62-12.62,3.12-18.26,3-1.61,5.6-2.78,6.21-3.07A11.91,11.91,0,0,0,147.54,51,17.49,17.49,0,0,0,158,47.47a1.14,1.14,0,0,0,.19-1.49ZM45.18,44A5.81,5.81,0,0,1,41,45.91a5,5,0,0,1-3.57-1.6c-3.37-3.38-3.07-11.68,1.27-16.06a6.05,6.05,0,0,1,4.3-1.9A5,5,0,0,1,46.58,28C49.74,31.17,49.92,39.34,45.18,44Zm48.19,1.8c-3.65,0-6-4.39-5.29-9.8S92.4,26.35,96,26.35c3.36,0,5.65,3.76,5.4,8.61-.1.71-.18,1.37-.24,2-1,5-4.34,8.93-7.78,8.93Zm30.3,19.08c-4.81,4.82-10.82-1.32-3.74-8.42a39.09,39.09,0,0,1,7-5A13.42,13.42,0,0,1,123.67,64.9Zm19.12-36.57c3.58-3.59,7.56-2.53,7.56,1s-4.06,7.1-9,9.91c-.46.27-1,.58-1.6.87a13,13,0,0,1-.29-2.85,13.53,13.53,0,0,1,3.31-8.85Z"/></svg>