<?xml version="1.0" encoding="UTF-8"?><svg id="Layer_1" xmlns="http://www.w3.org/2000/svg" viewBox="0 0 180 80"><defs><style>.cls-1{fill:none;}.cls-2{fill:#1977f3;fill-rule:evenodd;}</style></defs><rect class="cls-1" width="180" height="80"/><path class="cls-2" d="M122.23,40.19c0-17.8-14.43-32.23-32.23-32.23s-32.23,14.43-32.23,32.23c0,16.08,11.78,29.42,27.19,31.84v-22.52h-8.18v-9.32h8.18v-7.1c0-8.08,4.81-12.54,12.17-12.54,3.53,0,7.21,.63,7.21,.63v7.93h-4.07c-4,0-5.25,2.48-5.25,5.03v6.05h8.94l-1.43,9.32h-7.51v22.52c15.41-2.42,27.19-15.75,27.19-31.84h0Z"/><rect class="cls-1" width="180" height="80"/></svg>