<svg id="Layer_1" data-name="Layer 1" xmlns="http://www.w3.org/2000/svg" viewBox="0 0 180 80"><defs><style>.cls-1{fill:none;}.cls-2{fill:#1a1e22;}</style></defs><rect class="cls-1" width="180" height="80"/><rect class="cls-1" width="180" height="80"/><path class="cls-2" d="M173.74,34a1.07,1.07,0,0,0-1.21-1.08l-1.49,0,0,3.31h.82V35.1h.48l.71,1.14h1L173.18,35A1.08,1.08,0,0,0,173.74,34Zm-1.38.43h-.51v-.84h.59a.42.42,0,0,1,.46.35v0a.47.47,0,0,1-.49.47ZM52.24,49.26a2.4,2.4,0,0,1-2.33-2.68V39.3h5.68V34.15H49.92l-.05-5.9H43.58l.06,19.66a6.29,6.29,0,0,0,6.55,6.69,13.51,13.51,0,0,0,5.55-1v-5a7.29,7.29,0,0,1-3.5.68Zm15-15.43A10.27,10.27,0,0,0,56.89,44.41c0,6,4.5,10.16,10.7,10.16a10.92,10.92,0,0,0,8.78-3.82l-4.83-2.19a5.71,5.71,0,0,1-3.79,1.24c-2.16,0-4.33-1.11-4.63-3.38H77.5a9.51,9.51,0,0,0,.33-2.49c0-6.2-4.52-10.1-10.58-10.1Zm-4.12,8.61a4,4,0,0,1,4.28-4c2.41,0,4.23,1.36,4.23,3.69v.27ZM37.61,49.26a2.4,2.4,0,0,1-2.33-2.68V39.3H41V34.15H35.3l-.06-5.9H29L29,47.91a6.29,6.29,0,0,0,6.55,6.69,13.51,13.51,0,0,0,5.55-1v-5A7.19,7.19,0,0,1,37.61,49.26ZM15.54,33.83c-5.39,0-11,3.54-11,10.69,0,6,4,10.13,9.07,10.13a7.53,7.53,0,0,0,6.52-3.22l.19,2.87h6.08V44.77C26.36,37.51,21,33.83,15.54,33.83Zm0,15.32a4.63,4.63,0,0,1-4.71-4.9,4.62,4.62,0,0,1,4.71-4.9,4.91,4.91,0,0,1,0,9.8ZM172.23,31.42a3.16,3.16,0,1,0,3.27,3.08,3,3,0,0,0-3.27-3.08Zm.08,5.76a2.42,2.42,0,0,1-2.6-2.57A2.47,2.47,0,0,1,172.25,32a2.44,2.44,0,0,1,2.6,2.6,2.47,2.47,0,0,1-2.53,2.62Zm-30.79-3-4.39,12.73-4.44-12.73h-6.82l8.18,20.09h6.12l8.17-20.09Zm16.27-.35a10.27,10.27,0,0,0-10.34,10.58c0,6,4.5,10.16,10.7,10.16a10.88,10.88,0,0,0,8.77-3.82l-4.82-2.19a5.71,5.71,0,0,1-3.79,1.24c-2.17,0-4.33-1.11-4.63-3.38h14.38a9.94,9.94,0,0,0,.32-2.49c0-6.2-4.52-10.1-10.59-10.1Zm4.39,8.61h-8.5a4,4,0,0,1,4.28-4c2.41,0,4.22,1.36,4.22,3.69ZM121,25.35a3.64,3.64,0,0,0-3.9,3.57,3.91,3.91,0,0,0,7.8,0,3.6,3.6,0,0,0-3.9-3.57ZM92.5,33.8a7.36,7.36,0,0,0-6.36,3.46l-.22-3.08H79.86V54.27h6.28V43.74a4.6,4.6,0,0,1,4.39-4.44c2.49,0,3.63,1.86,3.63,4.22V54.24h6.25V42.55c0-5.1-3.1-8.75-7.91-8.75Zm19.18,15.46a2.4,2.4,0,0,1-2.33-2.68V39.3H115V34.15h-5.69l-.06-5.9H103l.06,19.66a6.29,6.29,0,0,0,6.55,6.69,13.51,13.51,0,0,0,5.55-1v-5a7.25,7.25,0,0,1-3.49.68Zm6.17-15.08V54.27h6.34V34.18a5.75,5.75,0,0,1-6.34,0Z"/></svg>