<?xml version="1.0" encoding="UTF-8"?><svg id="Layer_1" xmlns="http://www.w3.org/2000/svg" xmlns:xlink="http://www.w3.org/1999/xlink" viewBox="0 0 180 80"><defs><style>.cls-1{fill:none;}.cls-2{clip-path:url(#clippath);}.cls-3{fill:#2349e5;}.cls-3,.cls-4{fill-rule:evenodd;}.cls-4{fill:#fff;}</style><clipPath id="clippath"><rect class="cls-1" x="60" y="10" width="60" height="60"/></clipPath></defs><rect class="cls-1" width="180" height="80"/><rect class="cls-1" width="180" height="80"/><g class="cls-2"><g><path class="cls-3" d="M81.01,16.64l-4.99-4.99c-.25-.25-.59-.4-.95-.4h-13.63c-.36,0-.7,.14-.96,.39-.26,.25-.4,.6-.41,.95V56.2c0,.36,.14,.71,.4,.97,.26,.26,.6,.4,.97,.4h27.24v8.17h-16.35c-.19-.02-.38,0-.57,.06-.18,.06-.35,.16-.49,.28-.14,.13-.26,.29-.34,.46-.08,.18-.12,.37-.12,.56s.04,.38,.12,.56c.08,.18,.19,.33,.34,.46,.14,.13,.31,.22,.49,.28,.18,.06,.38,.08,.57,.06h35.43c.36,0,.7-.14,.96-.39,.26-.25,.4-.6,.41-.95,0-.36-.15-.71-.4-.96-.25-.25-.6-.4-.96-.4h-16.35v-8.17h27.24c.36,0,.71-.14,.97-.4,.26-.26,.4-.6,.4-.97V17.99c0-.36-.15-.7-.41-.95-.26-.25-.6-.39-.96-.39h-37.63Z"/><path class="cls-3" d="M61.37,65.67c-.36,0-.71,.14-.97,.4-.26,.26-.4,.6-.4,.97,0,.36,.15,.7,.41,.95,.26,.25,.6,.39,.96,.39s.7-.14,.95-.4c.25-.25,.39-.6,.39-.95,0-.36-.14-.7-.39-.96-.25-.26-.6-.4-.95-.41Z"/><path class="cls-3" d="M66.83,65.67c-.36,0-.71,.14-.97,.4-.26,.26-.4,.6-.4,.97,.04,.33,.2,.64,.45,.87s.57,.35,.91,.35,.66-.12,.91-.35,.41-.53,.45-.87c0-.36-.14-.7-.39-.96-.25-.26-.6-.4-.95-.41Z"/><path class="cls-3" d="M113.27,65.67c-.36,0-.7,.15-.95,.41-.25,.26-.39,.6-.39,.96,.04,.33,.2,.64,.45,.87,.25,.22,.57,.35,.91,.35s.66-.12,.91-.35c.25-.22,.41-.53,.45-.87,0-.36-.14-.71-.4-.97-.26-.26-.6-.4-.97-.4Z"/><path class="cls-3" d="M118.57,65.67c-.36,0-.7,.15-.95,.41-.25,.26-.39,.6-.39,.96s.14,.7,.39,.95c.25,.25,.6,.4,.95,.4s.7-.14,.96-.39c.26-.25,.4-.6,.41-.95,0-.36-.14-.71-.4-.97-.26-.26-.6-.4-.97-.4Z"/><path class="cls-4" d="M102.22,34.01c-.31-.24-.7-.37-1.1-.35h-1.48c-.08-.02-.16-.02-.23,0-.02,.04-.03,.08-.03,.12s0,.09,.03,.12v2.11s-.03,.08-.03,.12,0,.08,.03,.12c.02,.03,.04,.06,.08,.07,.03,.02,.07,.02,.11,.01h1.66c.39,.01,.76-.13,1.05-.38,.13-.13,.23-.28,.29-.45,.07-.17,.1-.35,.09-.53,0-.19-.04-.37-.12-.54s-.2-.31-.34-.43Zm3,2.91c-.34,.53-.83,.95-1.42,1.2-.68,.28-1.41,.42-2.15,.4h-2.15c-.12,0-.17,0-.17,.15v3.56c0,.06,0,.12-.01,.17-.02,.05-.05,.1-.09,.15-.1,.07-.21,.1-.33,.1h-2.28c-.09,.03-.18,.03-.27,0-.03-.09-.03-.18,0-.27v-10.47c0-.2,.08-.3,.27-.3h4.74c.76-.02,1.52,.1,2.23,.37,.66,.23,1.24,.65,1.67,1.2,.41,.56,.62,1.25,.6,1.95-.03,.65-.26,1.28-.65,1.8Zm-20.81-4.99c0-.08,.02-.15,.07-.21,.05-.06,.12-.1,.2-.1h8.87s.08,0,.11,0c.04,0,.07,.02,.1,.04,.03,.02,.06,.05,.08,.08,.02,.03,.03,.07,.04,.11v1.66c0,.18-.1,.27-.32,.27h-2.71c-.12,0-.17,0-.17,.13v8.52c0,.2-.08,.3-.27,.3h-2.53c-.17,0-.25-.08-.25-.28v-8.49c.02-.05,.02-.11,0-.17h-2.88c-.2,0-.32-.08-.32-.25l-.03-1.61Zm-10.12-.23s.06-.02,.09-.02,.06,0,.09,.02h7.72c.17,0,.23,.08,.23,.28v1.55c0,.23-.1,.35-.33,.35h-4.53c-.08-.02-.16-.02-.23,0-.01,.03-.02,.07-.02,.1s0,.07,.02,.1v1.85c0,.18,.08,.28,.23,.28h2.98c.2,0,.28,.08,.28,.27v1.66c0,.15-.08,.22-.25,.22h-3.06s-.06,0-.09,.01c-.03,0-.05,.03-.07,.05-.02,.02-.04,.05-.05,.07,0,.03-.01,.06-.01,.09v3.81c0,.06,0,.11,0,.17-.01,.05-.04,.11-.07,.15-.1,.07-.21,.1-.33,.1h-2.23c-.07,.02-.15,0-.21-.03-.06-.04-.11-.1-.14-.17-.02-.04-.02-.09,0-.13v-10.52s-.06-.1-.06-.16c0-.06,.01-.12,.05-.17v.08Z"/></g></g></svg>