<?xml version="1.0" encoding="UTF-8"?><svg id="Layer_1" xmlns="http://www.w3.org/2000/svg" viewBox="0 0 180 80"><defs><style>.cls-1{fill:none;}.cls-2{fill:#fff;}</style></defs><rect class="cls-1" width="180" height="80"/><path class="cls-2" d="M28.12,23.25l1.54,2.69c.31.56.31,1.24,0,1.79l-9.2,15.96,4.35,7.53c.68,1.17,1.95,1.91,3.3,1.91s2.62-.74,3.3-1.91l4.35-7.53-1.14-2.04-4.94,8.55c-.31.56-.93.9-1.54.9-.65,0-1.24-.34-1.54-.9l-3.8-6.51,8.55-14.82,1.54,2.69c.31.56.31,1.24,0,1.79l-5.96,10.34,1.17,2.04,6.48-11.24,4.26,7.38c.65,1.14.65,2.53,0,3.67l-4.32,7.5c-.65,1.14-2.72,3.71-6.42,3.71s-5.74-2.56-6.42-3.71l-4.32-7.5c-.65-1.14-.65-2.53,0-3.67l10.74-18.62Z"/><path class="cls-2" d="M48.22,31.25h2.99v17.69h-2.99v-17.69Z"/><circle class="cls-2" cx="55.23" cy="32.73" r="1.76"/><path class="cls-2" d="M53.72,36.65h3.03v12.29h-3.03v-12.29Z"/><path class="cls-2" d="M64.68,36.34c-3.43,0-6.21,2.41-6.21,6.24s2.41,6.18,6.24,6.18c1.51,0,3.12.77,3.12,2.47s-1.36,2.66-3.12,2.66-3.21-1.05-3.21-2.66h-3.03c0,3.3,2.66,5.5,6.24,5.5s6.14-2.1,6.14-5.5c0-1.57-.49-3.06-2.53-4.08,2.01-.93,2.59-3.06,2.59-4.6,0-3.8-2.81-6.21-6.24-6.21ZM64.71,46.25c-1.76,0-3.21-1.51-3.21-3.67s1.45-3.71,3.21-3.71,3.18,1.61,3.18,3.71-1.45,3.67-3.18,3.67Z"/><path class="cls-2" d="M79.68,36.34c-1.39,0-2.72.43-3.83,1.82v-6.95h-3.03v17.69h3.03v-6.24c0-1.82,1.24-3.33,3.03-3.33,1.61,0,2.78.96,2.78,3.18v6.39h3.03v-6.61c.03-3.61-1.51-5.96-5-5.96Z"/><path class="cls-2" d="M92.06,46.84c-.37,0-.68-.12-.86-.37s-.28-.62-.28-1.17v-6.05h2.44l.28-2.62h-2.69v-3.37l-3.06.34v3.06h-2.32v2.62h2.32v6.11c0,1.27.31,2.22.9,2.87s1.48.99,2.62.99c.52,0,1.02-.06,1.54-.22s.99-.37,1.39-.65l-1.05-1.95c-.4.28-.83.4-1.24.4Z"/><path class="cls-2" d="M104.51,42.33c-1.24-.77-2.69-.86-4.11-.96-.83-.06-2.1-.25-2.1-1.33,0-.77.8-1.2,2.25-1.2,1.17,0,2.19.28,3.06,1.08l1.7-1.98c-1.42-1.24-2.87-1.61-4.82-1.61-2.25,0-5.22.99-5.22,3.83,0,1.17.62,2.25,1.64,2.87,1.14.71,2.62.8,3.89.96.86.09,2.28.31,2.04,1.51-.15.83-1.17,1.08-1.88,1.11-.77.03-1.54-.03-2.32-.22-.8-.22-1.45-.59-2.16-1.05l-1.54,1.95c.09.06.19.15.19.15,1.98,1.64,4.72,2.16,7.22,1.61,1.88-.43,3.49-1.79,3.49-3.83.06-1.14-.31-2.28-1.33-2.9Z"/><path class="cls-2" d="M114.48,36.34c-1.39,0-3.03.59-3.98,1.95l-.09-1.67h-2.93v17.69l3.03-.34v-6.48c.86,1.33,2.75,1.76,4.04,1.76,3.92,0,6.21-2.93,6.21-6.48s-2.5-6.42-6.27-6.42h0ZM114.23,46.62c-2.07,0-3.46-1.88-3.46-3.8s1.3-3.95,3.46-3.95,3.46,2.07,3.46,3.95c.03,1.91-1.39,3.8-3.46,3.8Z"/><path class="cls-2" d="M124.7,43.87c.34,1.45,1.67,2.72,3.83,2.72,1.11,0,2.59-.56,3.3-1.27l1.95,1.91c-1.3,1.33-3.43,1.98-5.28,1.98-3.83,0-6.61-2.53-6.61-6.45,0-3.71,2.87-6.42,6.39-6.42,3.71,0,6.79,2.53,6.48,7.53h-10.07ZM131.83,41.56c-.34-1.45-1.79-2.72-3.55-2.72-1.64,0-3.15,1.11-3.58,2.72h7.13Z"/><path class="cls-2" d="M138.72,43.87c.34,1.45,1.67,2.72,3.83,2.72,1.11,0,2.59-.56,3.3-1.27l1.95,1.91c-1.3,1.33-3.43,1.98-5.28,1.98-3.83,0-6.61-2.53-6.61-6.45,0-3.71,2.87-6.42,6.39-6.42,3.71,0,6.79,2.53,6.48,7.53h-10.07ZM145.88,41.56c-.34-1.45-1.79-2.72-3.55-2.72-1.64,0-3.15,1.11-3.58,2.72h7.13Z"/><path class="cls-2" d="M156.1,49.25c1.39,0,3.03-.59,3.98-1.95l.09,1.64h2.93v-17.69h-3.03v6.85c-.86-1.33-2.78-1.73-4.08-1.73-3.92,0-6.18,2.9-6.18,6.48s2.5,6.39,6.27,6.39h0ZM156.32,38.97c2.07,0,3.46,1.88,3.46,3.8s-1.3,3.95-3.46,3.95-3.46-2.07-3.46-3.95,1.39-3.8,3.46-3.8Z"/></svg>