<?xml version="1.0" encoding="UTF-8"?><svg id="Layer_1" xmlns="http://www.w3.org/2000/svg" viewBox="0 0 180 80"><defs><style>.cls-1{fill:none;}.cls-2{fill:#95bf47;}.cls-3{fill:#fff;}.cls-4{fill:#5e8e3e;}</style></defs><rect class="cls-1" width="180" height="80"/><path class="cls-2" d="M46.72,26.49c-.03-.21-.21-.33-.36-.33s-3.16-.06-3.16-.06c0,0-2.52-2.43-2.76-2.7-.24-.24-.73-.18-.91-.12,0,0-.49.15-1.27.39-.12-.42-.33-.94-.61-1.49-.88-1.7-2.22-2.61-3.79-2.61h0c-.12,0-.21,0-.33.03-.06-.06-.09-.12-.15-.15-.7-.73-1.58-1.09-2.64-1.06-2.03.06-4.07,1.55-5.74,4.16-1.15,1.85-2.03,4.16-2.31,5.95-2.34.73-3.98,1.24-4.04,1.24-1.18.36-1.21.39-1.37,1.52-.06.85-3.16,24.8-3.16,24.8l25.98,4.49,11.26-2.79s-4.61-31.05-4.64-31.26ZM36.95,24.1c-.61.18-1.27.39-2,.64,0-1.03-.15-2.49-.61-3.7,1.55.24,2.31,2,2.61,3.07ZM33.58,25.13c-1.37.42-2.85.88-4.34,1.34.42-1.61,1.21-3.19,2.19-4.25.36-.39.88-.82,1.46-1.06.61,1.18.73,2.85.7,3.98ZM30.78,19.76c.49,0,.88.09,1.21.33-.55.27-1.09.7-1.58,1.24-1.31,1.4-2.31,3.55-2.7,5.65-1.24.39-2.46.76-3.55,1.09.73-3.31,3.49-8.23,6.62-8.32Z"/><path class="cls-4" d="M46.35,26.16c-.15,0-3.16-.06-3.16-.06,0,0-2.52-2.43-2.76-2.7-.09-.09-.21-.15-.33-.15v37.3l11.26-2.79s-4.58-31.05-4.61-31.26c-.06-.21-.24-.33-.39-.33Z"/><path class="cls-3" d="M33.85,31.96l-1.31,4.89s-1.46-.67-3.19-.55c-2.55.15-2.55,1.76-2.55,2.15.15,2.19,5.89,2.67,6.22,7.8.24,4.04-2.12,6.8-5.58,7.01-4.13.21-6.4-2.22-6.4-2.22l.88-3.73s2.31,1.73,4.13,1.61c1.18-.06,1.64-1.06,1.58-1.73-.18-2.85-4.86-2.67-5.16-7.38-.24-3.95,2.34-7.92,8.04-8.29,2.22-.15,3.34.42,3.34.42Z"/><path id="s" class="cls-3" d="M66.6,42.37c-1.31-.7-1.97-1.31-1.97-2.12,0-1.03.94-1.7,2.4-1.7,1.7,0,3.22.7,3.22.7l1.18-3.64s-1.09-.85-4.31-.85c-4.49,0-7.62,2.58-7.62,6.19,0,2.06,1.46,3.61,3.4,4.73,1.58.88,2.12,1.52,2.12,2.46s-.79,1.76-2.25,1.76c-2.15,0-4.22-1.12-4.22-1.12l-1.27,3.64s1.88,1.27,5.07,1.27c4.61,0,7.95-2.28,7.95-6.37-.03-2.22-1.7-3.79-3.7-4.95Z"/><path id="h" class="cls-3" d="M84.99,34.69c-2.28,0-4.07,1.09-5.43,2.73l-.06-.03,1.97-10.32h-5.13l-5.01,26.28h5.13l1.7-8.98c.67-3.4,2.43-5.49,4.07-5.49,1.15,0,1.61.79,1.61,1.91,0,.7-.06,1.58-.21,2.28l-1.94,10.29h5.13l2-10.62c.21-1.12.36-2.46.36-3.37.03-2.91-1.49-4.67-4.19-4.67Z"/><path id="o" class="cls-3" d="M100.84,34.69c-6.19,0-10.29,5.58-10.29,11.81,0,3.98,2.46,7.19,7.07,7.19,6.07,0,10.17-5.43,10.17-11.81.03-3.67-2.12-7.19-6.95-7.19ZM98.32,49.77c-1.76,0-2.49-1.49-2.49-3.37,0-2.94,1.52-7.74,4.31-7.74,1.82,0,2.43,1.58,2.43,3.1,0,3.16-1.55,8.01-4.25,8.01Z"/><path id="p" class="cls-3" d="M120.96,34.69c-3.46,0-5.43,3.07-5.43,3.07h-.06l.3-2.76h-4.55c-.21,1.85-.64,4.7-1.03,6.83l-3.58,18.82h5.13l1.43-7.62h.12s1.06.67,3,.67c6.04,0,9.99-6.19,9.99-12.44,0-3.46-1.55-6.56-5.31-6.56ZM116.04,49.83c-1.34,0-2.12-.76-2.12-.76l.85-4.8c.61-3.22,2.28-5.34,4.07-5.34,1.58,0,2.06,1.46,2.06,2.82,0,3.34-1.97,8.07-4.86,8.07Z"/><path id="dot" class="cls-3" d="M133.61,27.31c-1.64,0-2.94,1.31-2.94,2.97,0,1.52.97,2.58,2.43,2.58h.06c1.61,0,2.97-1.09,3-2.97,0-1.49-1-2.58-2.55-2.58Z"/><polygon id="i" class="cls-3" points="126.42 53.33 131.55 53.33 135.04 35.11 129.88 35.11 126.42 53.33"/><path id="f" class="cls-3" d="M148.12,35.08h-3.58l.18-.85c.3-1.76,1.34-3.31,3.07-3.31.91,0,1.64.27,1.64.27l1-4.04s-.88-.46-2.79-.46-3.64.52-5.04,1.7c-1.76,1.49-2.58,3.64-2.97,5.83l-.15.85h-2.4l-.76,3.88h2.4l-2.73,14.39h5.13l2.73-14.39h3.55l.73-3.88Z"/><path id="y" class="cls-3" d="M160.51,35.11s-3.22,8.1-4.64,12.54h-.06c-.09-1.43-1.27-12.54-1.27-12.54h-5.4l3.1,16.72c.06.36.03.61-.12.85-.61,1.15-1.61,2.28-2.79,3.1-.97.7-2.06,1.15-2.91,1.46l1.43,4.37c1.03-.21,3.22-1.09,5.04-2.79,2.34-2.19,4.52-5.58,6.74-10.2l6.28-13.51h-5.37Z"/></svg>