<?xml version="1.0" encoding="UTF-8"?><svg id="Layer_1" xmlns="http://www.w3.org/2000/svg" xmlns:xlink="http://www.w3.org/1999/xlink" viewBox="0 0 180 80"><defs><style>.cls-1{fill:none;}.cls-2{fill:url(#linear-gradient);}.cls-3{fill:#fff;}</style><linearGradient id="linear-gradient" x1="-7718.43" y1="2822.01" x2="-7718.43" y2="2691.27" gradientTransform="translate(-3418.52 -7367) rotate(-135) scale(1 -1)" gradientUnits="userSpaceOnUse"><stop offset="0" stop-color="#c8511b"/><stop offset="1" stop-color="#f90"/></linearGradient></defs><rect class="cls-1" width="180" height="80"/><rect class="cls-1" width="180" height="80"/><g id="Reference"><rect id="Orange_Gradient" class="cls-2" x="57.31" y="7.31" width="65.37" height="65.37"/><g id="Icon_Test"><path class="cls-3" d="M110.05,61.79h-10.74c-.34,0-.64-.19-.78-.5l-15.18-31.75h-6.42c-.48,0-.87-.39-.87-.87v-9.59c0-.48,.39-.87,.87-.87h13.42c.34,0,.64,.19,.78,.5l15.11,31.75h3.81c.48,0,.87,.39,.87,.87v9.59c0,.48-.39,.87-.87,.87Zm-10.19-1.74h9.32v-7.84h-3.49c-.34,0-.64-.19-.78-.5l-15.11-31.75h-11.99v7.84h6.1c.34,0,.64,.19,.78,.5l15.18,31.75Z"/><path class="cls-3" d="M81.27,61.79h-11.33c-.3,0-.58-.15-.74-.41-.17-.26-.19-.59-.04-.87l11.85-24.76c.14-.3,.45-.5,.78-.5h0c.33,0,.64,.19,.78,.49l5.67,11.67c.12,.24,.12,.52,0,.76l-6.19,13.07c-.13,.33-.44,.54-.79,.55Zm-9.94-1.74h9.39l5.78-12.2-4.7-9.72-10.47,21.92Z"/></g></g></svg>