<svg id="Layer_1" data-name="Layer 1" xmlns="http://www.w3.org/2000/svg" viewBox="0 0 180 80"><defs><style>.cls-1{fill:none;}.cls-2{fill:#09253b;}.cls-2,.cls-3{fill-rule:evenodd;}.cls-3{fill:#d90367;}</style></defs><rect class="cls-1" width="180" height="80"/><rect class="cls-1" width="180" height="80"/><g id="Landmarks-_-Brand-_-Logo" data-name="Landmarks-/-Brand-/-Logo"><path id="Combined-Shape" class="cls-2" d="M51.8,30.54a7.19,7.19,0,0,1,6.19,3c0-.33,0-.62,0-.94V31.11H61.9v15c0,5.92-3.32,9.6-9.24,9.6-4.53,0-7.55-2.38-8.49-5.93h4.39a4.19,4.19,0,0,0,4.1,2.46c3.93,0,5.41-2.46,5.41-6.89H58a6.83,6.83,0,0,1-6.08,3c-5.17,0-8.36-3.69-8.36-8.84C43.55,34.15,47.06,30.54,51.8,30.54ZM89.48,26v4.95h3.37v3.15H89.48V44c0,1.7.79,2.25,2.17,2.25a4.33,4.33,0,0,0,.88-.08v3.12a6,6,0,0,1-1.64.14c-3.43,0-5.63-1.12-5.63-4.71V34H82.53V30.89h2.73V26ZM34.54,30.54a5,5,0,0,1,1,.08v3.95a3.92,3.92,0,0,0-1.18-.13c-3.27,0-3.81,2.31-3.81,6v8.46H26.38V34.19c0-1.12,0-2.14,0-3.22h3.88v1.21c0,.4,0,.81,0,1.18A4.33,4.33,0,0,1,34.54,30.54Zm7.26.25v18.1H37.33V30.79Zm27.72-6.55v5c0,1.33,0,2.2-.08,3.58a6.34,6.34,0,0,1,5.45-2.61c4.12,0,6.5,2.91,6.5,7.34V48.89H77.26v-9.3c0-3.59-.81-5.87-3.67-5.87s-4.07,2.15-4.07,5.16v10H65.34V24.24Zm29.64,0V48.89h-4V24.24Zm68,5.73c4.16,0,6.53,2.7,6.53,7.54V48.89h-4.22V39.11c0-3.77-1-5.59-3.48-5.59s-3.95,2-3.95,4.74V48.89h-4.22V39c0-3.74-1-5.48-3.51-5.48-2.75,0-3.89,2.2-3.89,5.12V48.89h-4.22V33.38c0-1,0-1.84,0-2.83h4l0,1.15c0,.39,0,.75,0,1.16A5.9,5.9,0,0,1,155.64,30a5.7,5.7,0,0,1,5.41,3.11A7,7,0,0,1,167.15,30Zm-144.24.36a5.39,5.39,0,0,1-3.75,5.31,6.4,6.4,0,0,1,4.9,6.17c0,6-5.34,7.08-10,7.08H6.32V24.24h5.89C19.3,24.24,22.91,25.51,22.91,30.33Zm-8.46,7.59H10.59V45.1h2.63c3.59,0,6.38-.43,6.38-3.62C19.6,38.79,17.38,37.92,14.45,37.92ZM52.87,34c-3.13,0-5.06,2.14-5.06,5.45S49.63,45,52.87,45C55.76,45,58,43,58,39.41,58,36.21,56,34,52.87,34ZM13.63,28h-3v6.13h3.64C17,34,18.45,33.35,18.45,31,18.45,28.45,16.51,28,13.63,28Zm28.2-3.8v3.94H37.25V24.24Z"/><path id="Combined-Shape-2" data-name="Combined-Shape" class="cls-3" d="M111.38,30.54c4.33,0,7.6,2.55,11.87,6.83,4.27-4.28,7.54-6.83,11.87-6.83h.3c5.46.09,9.05,4,9,9.51s-3.47,9.41-9.17,9.41h-.22c-4.73,0-8.22-3.28-11.81-6.89-3.6,3.61-7.09,6.89-11.76,6.89h-.3c-5.68,0-9.17-4-9.17-9.41,0-5.58,3.68-9.51,9.25-9.51h.11Zm23.47,3.66c-3.33,0-5.87,2.09-9.52,5.69,2.81,2.66,5.79,6,9.62,6,3.38,0,5.3-2.41,5.3-5.8C140.25,36.4,138.39,34.2,134.85,34.2Zm-23.2,0c-3.54,0-5.41,2.22-5.41,5.88,0,3.36,1.92,5.8,5.3,5.8,3.76,0,6.81-3.33,9.63-6C117.38,36.29,115,34.2,111.65,34.2Z"/></g></svg>