<?xml version="1.0" encoding="UTF-8"?><svg id="Layer_1" xmlns="http://www.w3.org/2000/svg" xmlns:xlink="http://www.w3.org/1999/xlink" viewBox="0 0 180 80"><defs><style>.cls-1{fill:none;}.cls-2{clip-path:url(#clippath-1);}.cls-3{fill:#fff;}.cls-4{fill:#1868db;}.cls-5{fill:#101214;}.cls-6{clip-path:url(#clippath);}</style><clipPath id="clippath"><rect class="cls-1" x="36.48" y="26.39" width="30.19" height="30.43"/></clipPath><clipPath id="clippath-1"><rect class="cls-1" x="36.48" y="26.39" width="30.19" height="30.43"/></clipPath></defs><rect class="cls-1" width="180" height="80"/><path class="cls-3" d="M134.78,42.5c0,5.52,2.21,8.28,6.3,8.28,3.54,0,6.72-2.25,6.72-7.36v-1.84c0-5.11-2.9-7.36-6.26-7.36-4.46,0-6.76,2.94-6.76,8.28ZM147.8,54v-4.14c-1.47,3.04-4.23,4.6-7.77,4.6-6.12,0-9.2-5.2-9.2-11.96s3.22-11.96,9.66-11.96c3.36,0,5.93,1.52,7.31,4.51v-4.05h3.96v23h-3.96Z"/><path class="cls-3" d="M121.11,40.43v13.57h-3.86v-23h3.86v4.05c1.33-2.71,3.63-4.65,8.14-4.37v3.86c-5.06-.51-8.14,1.01-8.14,5.89Z"/><path class="cls-3" d="M106.58,24.93c0-1.75,1.15-2.76,2.76-2.76s2.76,1.01,2.76,2.76-1.15,2.76-2.76,2.76-2.76-1.01-2.76-2.76ZM107.32,54v-23h3.96v23h-3.96Z"/><path class="cls-3" d="M97.68,45.08v-21.3h4.14v21.02c0,5.57-2.44,9.38-8.14,9.38-2.16,0-3.82-.37-4.97-.78v-4c1.24.51,2.76.78,4.28.78,3.5,0,4.69-2.12,4.69-5.11Z"/><path class="cls-4" d="M28.25,28c0-6.63,5.37-12,12-12h24c6.63,0,12,5.37,12,12v24c0,6.63-5.37,12-12,12h-24c-6.63,0-12-5.37-12-12v-24Z"/><g class="cls-6"><path class="cls-3" d="M46.19,47.05h-2.7c-4.08,0-7.01-2.5-7.01-6.16h14.54c.75,0,1.24.54,1.24,1.29v14.63c-3.64,0-6.07-2.94-6.07-7.05v-2.72ZM53.38,39.77h-2.7c-4.08,0-7.01-2.45-7.01-6.11h14.54c.75,0,1.29.49,1.29,1.25v14.63c-3.64,0-6.12-2.94-6.12-7.05v-2.72ZM60.6,32.55h-2.7c-4.08,0-7.01-2.5-7.01-6.16h14.54c.75,0,1.24.54,1.24,1.25v14.63c-3.64,0-6.07-2.94-6.07-7.05v-2.68Z"/></g><path class="cls-5" d="M134.78,42.5c0,5.52,2.21,8.28,6.3,8.28,3.54,0,6.72-2.25,6.72-7.36v-1.84c0-5.11-2.9-7.36-6.26-7.36-4.46,0-6.76,2.94-6.76,8.28ZM147.8,54v-4.14c-1.47,3.04-4.23,4.6-7.77,4.6-6.12,0-9.2-5.2-9.2-11.96s3.22-11.96,9.66-11.96c3.36,0,5.93,1.52,7.31,4.51v-4.05h3.96v23h-3.96Z"/><path class="cls-5" d="M121.11,40.43v13.57h-3.86v-23h3.86v4.05c1.33-2.71,3.63-4.65,8.14-4.37v3.86c-5.06-.51-8.14,1.01-8.14,5.89Z"/><path class="cls-5" d="M106.58,24.93c0-1.75,1.15-2.76,2.76-2.76s2.76,1.01,2.76,2.76-1.15,2.76-2.76,2.76-2.76-1.01-2.76-2.76ZM107.32,54v-23h3.96v23h-3.96Z"/><path class="cls-5" d="M97.68,45.08v-21.3h4.14v21.02c0,5.57-2.44,9.38-8.14,9.38-2.16,0-3.82-.37-4.97-.78v-4c1.24.51,2.76.78,4.28.78,3.5,0,4.69-2.12,4.69-5.11Z"/><path class="cls-4" d="M28.25,28c0-6.63,5.37-12,12-12h24c6.63,0,12,5.37,12,12v24c0,6.63-5.37,12-12,12h-24c-6.63,0-12-5.37-12-12v-24Z"/><g class="cls-2"><path class="cls-3" d="M46.19,47.05h-2.7c-4.08,0-7.01-2.5-7.01-6.16h14.54c.75,0,1.24.54,1.24,1.29v14.63c-3.64,0-6.07-2.94-6.07-7.05v-2.72ZM53.38,39.77h-2.7c-4.08,0-7.01-2.45-7.01-6.11h14.54c.75,0,1.29.49,1.29,1.25v14.63c-3.64,0-6.12-2.94-6.12-7.05v-2.72ZM60.6,32.55h-2.7c-4.08,0-7.01-2.5-7.01-6.16h14.54c.75,0,1.24.54,1.24,1.25v14.63c-3.64,0-6.07-2.94-6.07-7.05v-2.68Z"/></g></svg>