<svg id="Layer_1" data-name="Layer 1" xmlns="http://www.w3.org/2000/svg" viewBox="0 0 180 80"><defs><style>.cls-1{fill:none;}.cls-2,.cls-3{fill:#0a2540;}.cls-2{fill-rule:evenodd;}</style></defs><rect class="cls-1" width="180" height="80"/><rect class="cls-1" width="180" height="80"/><path class="cls-2" d="M161,41c0-10.1-4.89-18.07-14.24-18.07s-15.07,8-15.07,18c0,11.87,6.71,17.87,16.33,17.87A22.08,22.08,0,0,0,159,56.22v-7.9a20.83,20.83,0,0,1-9.66,2.17c-3.83,0-7.22-1.34-7.66-6h19.3C160.94,44,161,41.93,161,41Zm-19.48-3.75c0-4.46,2.72-6.31,5.2-6.31s5,1.85,5,6.31Z"/><path class="cls-2" d="M116.47,22.92A11.16,11.16,0,0,0,108.74,26l-.51-2.44H99.55v46l9.86-2.09,0-11.17a11.08,11.08,0,0,0,7,2.49c7.07,0,13.5-5.68,13.5-18.19C129.89,29.15,123.38,22.92,116.47,22.92ZM114.11,50.1a5.93,5.93,0,0,1-4.66-1.85l0-14.64a5.87,5.87,0,0,1,4.7-1.93c3.59,0,6.07,4,6.07,9.19S117.74,50.1,114.11,50.1Z"/><polygon class="cls-2" points="85.98 20.59 95.88 18.46 95.88 10.45 85.98 12.54 85.98 20.59"/><rect class="cls-3" x="85.98" y="23.59" width="9.9" height="34.52"/><path class="cls-2" d="M75.36,26.51l-.63-2.92H66.21V58.11h9.86V34.71c2.33-3,6.28-2.48,7.5-2.05V23.59C82.31,23.11,77.69,22.25,75.36,26.51Z"/><path class="cls-2" d="M55.64,15l-9.63,2,0,31.6A9.91,9.91,0,0,0,56.19,58.82a15.23,15.23,0,0,0,6.9-1.3v-8C61.83,50,55.6,51.84,55.6,46V32h7.49v-8.4H55.6Z"/><path class="cls-2" d="M29,33.61c0-1.54,1.26-2.13,3.35-2.13A22,22,0,0,1,42.1,34V24.73a26,26,0,0,0-9.78-1.81c-8,0-13.33,4.18-13.33,11.16C19,45,34,43.24,34,47.93c0,1.81-1.58,2.41-3.79,2.41a24.5,24.5,0,0,1-10.77-3.16v9.39a27.33,27.33,0,0,0,10.77,2.25C38.4,58.82,44,54.76,44,47.69,44,35.94,29,38,29,33.61Z"/></svg>