<svg id="Layer_1" data-name="Layer 1" xmlns="http://www.w3.org/2000/svg" viewBox="0 0 180 80"><defs><style>.cls-1{fill:none;}.cls-2{fill:#25252b;}</style></defs><rect class="cls-1" width="180" height="80"/><rect class="cls-1" width="180" height="80"/><g id="layer1"><g id="g26"><path id="path14" class="cls-2" d="M41.4,28.11,32.34,51.87H38.5l1.67-4.59H48.8l1.7,4.59h6.31L47.75,28.11Zm.66,14.09,2.44-6.7,2.44,6.7ZM57.38,28.11h6.23V51.87H57.38Zm15.25,0H66.4V51.87H81.52l.93-5.24H72.63Z"/><path id="path16" class="cls-2" d="M114.75,37.12h-9.18v-9H80.42l-.93,5.41h7.32L83.56,51.87h6.23l3.26-18.35h6.29V51.87h6.23V42.53h9.18v9.34H121V28.11h-6.23Zm-87.91.64L22.2,36.68c-1.24-.28-2-.86-2-1.9,0-1.31,1.2-2.1,3-2.1A3.53,3.53,0,0,1,26.84,35h6.08c-.65-4.1-4-7.27-9.75-7.27-5.27,0-9.14,3.07-9.14,7.71,0,4,2.63,5.85,6.12,6.62l4.56,1c1.52.35,2.25.85,2.25,2,0,1.47-1.31,2.27-3.21,2.27s-3.33-.8-3.84-2.43H13.45c.86,4.75,4.73,7.44,10.42,7.44,5.19,0,9.29-2.79,9.29-7.66C33.16,40.93,30.91,38.73,26.84,37.76Zm116.48-1.55c0-5.19-3.53-8.1-8.64-8.1H123.93V51.87h6.23V44h2.16l5,7.86h6.89l-5.57-8.51a7.13,7.13,0,0,0,4.72-7.15ZM134,39.09h-3.86V33.35H134c2.21,0,3.22,1.13,3.22,2.87S136.22,39.09,134,39.09Zm26.46-11V41.63c0,3.37-1.6,5.11-4.16,5.11s-4.2-1.74-4.2-5.11V28.11h-6.23V42.17c0,6.55,4.08,10.11,10.35,10.11s10.31-3.56,10.31-10.07V28.11Z"/></g></g></svg>