<svg id="Layer_1" data-name="Layer 1" xmlns="http://www.w3.org/2000/svg" viewBox="0 0 180 80"><defs><style>.cls-1{fill:none;}.cls-2{fill:#007fd2;}</style></defs><rect class="cls-1" width="180" height="80"/><rect class="cls-1" width="180" height="80"/><path class="cls-2" d="M20.74,30.28a.44.44,0,0,0-.34-.2.44.44,0,0,0-.25.08c-.95.74-2.23,3.88-3.29,8h.94l5.63.07c-.49-1.89-1-3.51-1.39-4.82A15.69,15.69,0,0,0,20.74,30.28Z"/><path class="cls-2" d="M22.83,22.32A17.68,17.68,0,1,0,40.51,40,17.69,17.69,0,0,0,22.83,22.32Zm12.72,18h0a.18.18,0,0,1-.07,0s0,0,0,0l0,0,0,0h0a.93.93,0,0,1-.44.11H26.58c.06.28.14.59.22.94.46,2,1.68,7.25,3,7.25h.06c1,0,1.53-1.47,2.66-4.67l0,0,.61-1.72,0-.15h0a.41.41,0,0,1,.79.14.36.36,0,0,1,0,.11h0l-.05.16c-.12.38-.24.9-.39,1.51-.67,2.79-1.7,7-4.31,7h0c-1.69,0-2.7-2.71-3.13-3.87-.81-2.16-1.42-4.45-2-6.68H16.33l-1.6,5.12,0,0a.82.82,0,0,1-1.51-.43v0l.1-.59c.22-1.31.48-2.68.79-4.06H10.82A1.25,1.25,0,0,1,9.77,39.3a1.21,1.21,0,0,1,1-1.2,2.54,2.54,0,0,1,.39,0h.15l3.33.05c1.7-6.9,3.67-10.41,5.85-10.41,2.35,0,4.09,5.33,5.48,10.55v0c2.86.06,5.9.14,8.87.35l.12,0h.17a.93.93,0,0,1,.76.92A1,1,0,0,1,35.55,40.32Z"/><path class="cls-2" d="M50.33,44.42l-1.4,3.47H44.86L52.61,29.8H56.2l7.72,18.09H59.87l-1.4-3.47Zm4-10L51.73,41h5.34Z"/><path class="cls-2" d="M86.87,40.93v7H83.19V41.24c0-2-1-3.09-2.7-3.09a2.9,2.9,0,0,0-2.38,1.4,12.06,12.06,0,0,1,.11,1.37v7H74.54V41.24c0-2-1-3.1-2.73-3.1a3,3,0,0,0-2.25,1.43v8.3H65.88V35.22h3.68V36a4.12,4.12,0,0,1,3.12-1.17,5.27,5.27,0,0,1,4,1.8,6.13,6.13,0,0,1,4.6-1.8C84.44,34.82,86.87,37.23,86.87,40.93Z"/><path class="cls-2" d="M103,41.57a6.42,6.42,0,0,1-9.88,5.57V54H89.47V35.22h3.68V36a6.48,6.48,0,0,1,3.59-1A6.41,6.41,0,0,1,103,41.57Zm-3.62,0a3.39,3.39,0,0,0-3.28-3.52,3.51,3.51,0,0,0-3,1.49v4.05a3.57,3.57,0,0,0,3,1.45A3.37,3.37,0,0,0,99.41,41.57Z"/><path class="cls-2" d="M108.77,47.89h-3.68V29.11h3.68Z"/><path class="cls-2" d="M112.07,30.75a2.21,2.21,0,0,1,4.42,0,2.21,2.21,0,0,1-4.42,0Zm4.08,4.47V47.89h-3.68V35.22Z"/><path class="cls-2" d="M129.5,47.7a9.69,9.69,0,0,1-3.41.59c-3.07,0-5.08-2.17-5.08-5.45V38.32h-2.67v-3.1H121V30.7h3.65v4.52h4.57v3.1h-4.57v4.49a1.94,1.94,0,0,0,2.22,2.09,9.15,9.15,0,0,0,2.15-.34Z"/><path class="cls-2" d="M144.25,47.89h-3.68V47A5.65,5.65,0,0,1,137,48.28c-3.33,0-5.55-2.41-5.55-6.09v-7h3.68v6.64c0,2,1,3.1,2.72,3.1a3.77,3.77,0,0,0,2.78-1.58V35.22h3.68V47.89Z"/><path class="cls-2" d="M159.85,47.89h-3.67v-.74a6.48,6.48,0,0,1-3.59,1A6.6,6.6,0,1,1,156.18,36V29.11h3.68V47.89Zm-3.67-4.31v-4a3.54,3.54,0,0,0-3-1.45,3.34,3.34,0,0,0-3.28,3.46,3.37,3.37,0,0,0,3.28,3.52A3.53,3.53,0,0,0,156.18,43.58Z"/><path class="cls-2" d="M174.77,42.49h-9.33a3,3,0,0,0,3.28,2.64,2.33,2.33,0,0,0,2.14-1h3.83a6,6,0,0,1-6.05,4.1,6.55,6.55,0,0,1-6.83-6.72,6.45,6.45,0,0,1,6.72-6.74,6.12,6.12,0,0,1,6.32,6.47A7.81,7.81,0,0,1,174.77,42.49Zm-9.31-2.16h5.74a2.52,2.52,0,0,0-2.64-2.46A3,3,0,0,0,165.46,40.33Z"/></svg>