<?xml version="1.0" encoding="UTF-8"?><svg id="Layer_1" xmlns="http://www.w3.org/2000/svg" xmlns:xlink="http://www.w3.org/1999/xlink" viewBox="0 0 180 80"><defs><style>.cls-1{fill:none;}.cls-2{mask:url(#mask);}.cls-3,.cls-4,.cls-5{fill-rule:evenodd;}.cls-3,.cls-6{fill:#fff;}.cls-4{fill:#364045;}.cls-5{fill:#4050c6;}</style><mask id="mask" x="133.06" y="33.33" width="14.79" height="17.48" maskUnits="userSpaceOnUse"><g id="mask-2"><polygon id="path-1" class="cls-3" points="133.06 33.33 147.86 33.33 147.86 50.81 133.06 50.81 133.06 33.33"/></g></mask></defs><rect class="cls-6" x="8" y="6.03" width="164" height="67.94" rx="4" ry="4"/><rect class="cls-1" width="180" height="80"/><g id="TEMPLATES"><g id="_1440-R4-Home"><g id="Header"><g id="Medallia-Logo"><polygon id="Fill-1" class="cls-4" points="51.11 28.02 43.57 37.92 36.03 28.02 32.09 28.02 32.09 50.45 36.42 50.45 36.42 35.7 43.42 44.49 43.66 44.49 50.72 35.64 50.72 50.45 55.05 50.45 55.05 28.02 51.11 28.02"/><polygon id="Fill-2" class="cls-4" points="118.67 50.45 122.93 50.45 122.93 26.72 118.67 28.02 118.67 50.45"/><polygon id="Fill-3" class="cls-4" points="110.75 50.45 115.01 50.45 115.01 26.72 110.75 28.02 110.75 50.45"/><g id="Group-17"><path id="Fill-4" class="cls-4" d="M85.67,46.78l-.17.06s-.98.33-1.96.33h-.14c-.45,0-1.49,0-2.38-.68-1.02-.78-1.53-2.22-1.53-4.28,0-3.19,1.5-5.09,4.03-5.09.64,0,1.31.13,1.99.38l.16.06v9.23ZM85.67,33.79l-.31-.08c-.8-.21-1.74-.33-2.62-.33-1.45,0-3.52.3-5.16,1.75-1.73,1.52-2.6,3.99-2.6,7.32,0,3.02.82,5.26,2.45,6.66,1.33,1.15,3.19,1.73,5.53,1.73,2.86,0,5.49-.85,6.81-1.36l.11-.04v-22.57l-4.2,1.16v5.77Z"/><polygon id="Fill-6" class="cls-4" points="126.52 50.45 130.78 50.45 130.78 33.16 126.52 34.46 126.52 50.45"/><polygon id="Fill-8" class="cls-5" points="125.79 28.03 128.84 31.13 131.9 28.07 128.84 25.02 125.79 28.03"/><path id="Fill-10" class="cls-4" d="M102.76,46.31s-1.06,1.37-3.6,1.37c-1.54,0-2.54-.85-2.54-2.27,0-1.84,1.84-2.5,3.57-2.5,1.61,0,2.56.23,2.56.23v3.16ZM99.46,33.33c-3.12,0-5.32,1.22-5.32,1.22v3.49h.03c.68-.27,2.36-1.11,5.1-1.11,1.38,0,2.32.29,2.88.9.58.62.57,1.84.56,2.57,0,0-1.31-.33-2.87-.33-4.85,0-7.53,2.1-7.53,5.42s2.78,5.35,5.88,5.35,4.83-1.34,4.83-1.34v.92h4.08v-10.49c0-5.89-4.37-6.57-7.65-6.57h0Z"/><g id="Group-14"><g class="cls-2"><path id="Fill-12" class="cls-4" d="M143.5,46.31s-1.06,1.37-3.6,1.37c-1.54,0-2.54-.85-2.54-2.27,0-1.84,1.84-2.5,3.57-2.5,1.61,0,2.56.23,2.56.23v3.16ZM140.2,33.33c-3.12,0-5.32,1.22-5.32,1.22v3.49h.03c.68-.27,2.36-1.11,5.1-1.11,1.38,0,2.32.29,2.88.9.58.62.57,1.84.56,2.57,0,0-1.31-.33-2.87-.33-4.85,0-7.53,2.1-7.53,5.42s2.78,5.35,5.88,5.35,4.83-1.34,4.83-1.34v.92h4.08v-10.49c0-5.89-4.37-6.57-7.65-6.57h0Z"/></g></g><path id="Fill-15" class="cls-4" d="M62.01,40.58c0-.4.05-1.16.41-1.83.46-.86,1.5-1.88,3.23-1.88s2.69,1.03,3.09,1.89c.32.69.33,1.44.33,1.81h-7.06ZM72.87,41.83c0-3.05-.74-5.27-2.2-6.64-1.19-1.12-2.87-1.85-5-1.85-1.96,0-3.87.68-5.23,1.86-1.79,1.55-2.7,3.9-2.7,6.97,0,7.86,5.87,8.71,8.4,8.71s4.74-.89,5.65-1.3v-3.55c-.62.37-2.46,1.34-4.95,1.34-1.34,0-3.15-.5-4.2-2.11-.42-.64-.58-1.28-.64-1.64h10.83s.06-1.05.06-1.78h0Z"/></g></g></g></g></g></svg>