<?xml version="1.0" encoding="UTF-8"?><svg id="Layer_1" xmlns="http://www.w3.org/2000/svg" viewBox="0 0 180 80"><defs><style>.cls-1{fill:none;}.cls-2{fill:#1a1a1a;}</style></defs><rect class="cls-1" width="180" height="80"/><path class="cls-2" d="M110.64,9h-41.28c-5.72,0-10.36,4.64-10.36,10.36v41.28c0,5.72,4.64,10.36,10.36,10.36h41.28c5.72,0,10.36-4.64,10.36-10.36V19.36c0-5.72-4.64-10.36-10.36-10.36ZM109.73,56.46c0,1.81-1.46,3.27-3.27,3.27h-32.91c-1.81,0-3.27-1.46-3.27-3.27V23.55c0-1.81,1.46-3.27,3.27-3.27h32.91c1.8,0,3.27,1.46,3.27,3.27v32.91ZM83.42,48.41c-1.04,0-1.88-.84-1.88-1.89v-13.14c0-1.04.84-1.89,1.88-1.89h13.16c1.04,0,1.88.84,1.88,1.89v13.14c0,1.04-.84,1.89-1.88,1.89h-13.16Z"/></svg>