<?xml version="1.0" encoding="UTF-8"?><svg id="Layer_1" xmlns="http://www.w3.org/2000/svg" viewBox="0 0 180 80"><defs><style>.cls-1{fill:none;}.cls-2{fill:#5f01d1;}</style></defs><rect class="cls-1" width="180" height="80"/><rect class="cls-1" width="180" height="80"/><g id="layer1"><path id="path1139" class="cls-2" d="M18.26,29.79h8.54l4.97,12.72,5.03-12.72h8.31l-12.51,30.1h-8.36l3.43-7.98-9.4-22.13Z"/><path id="path1141" class="cls-2" d="M53.77,29.29c-6.41,0-10.47,5.75-10.47,11.48,0,6.45,4.45,11.56,10.35,11.56,4.4,0,6.06-2.68,6.06-2.68v2.09h7.45V29.79h-7.45v1.99s-1.85-2.5-5.94-2.5Zm1.58,7.05c2.96,0,4.49,2.34,4.49,4.45,0,2.28-1.64,4.51-4.49,4.51-2.36,0-4.5-1.93-4.5-4.41s1.72-4.55,4.5-4.55Z"/><path id="path1145" class="cls-2" d="M69.72,51.73V20.1h7.79v11.76s1.85-2.57,5.72-2.57c4.74,0,7.51,3.53,7.51,8.58v13.86h-7.73v-11.97c0-1.71-.81-3.36-2.66-3.36s-2.85,1.67-2.85,3.36v11.97h-7.79Z"/><path id="path1147" class="cls-2" d="M104.02,29.29c-7.34,0-11.72,5.58-11.72,11.57,0,6.81,5.3,11.46,11.75,11.46s11.72-4.44,11.72-11.35c0-7.56-5.73-11.68-11.75-11.68Zm.07,7.11c2.59,0,4.39,2.16,4.39,4.47,0,1.97-1.67,4.39-4.39,4.39-2.49,0-4.36-2-4.36-4.41s1.55-4.44,4.36-4.44Z"/><path id="path1153" class="cls-2" d="M128.75,29.29c-7.34,0-11.72,5.58-11.72,11.57,0,6.81,5.3,11.46,11.75,11.46s11.72-4.44,11.72-11.35c0-7.56-5.73-11.68-11.75-11.68Zm.07,7.11c2.59,0,4.39,2.16,4.39,4.47,0,1.97-1.67,4.39-4.39,4.39-2.49,0-4.36-2-4.36-4.41s1.55-4.44,4.36-4.44Z"/><circle id="path1155" class="cls-2" cx="146.64" cy="47.02" r="5.17"/><path id="path1157" class="cls-2" d="M153.51,39.95h-9.31l8.26-19.85h9.27l-8.23,19.85Z"/></g></svg>