<?xml version="1.0" encoding="UTF-8"?><svg id="Layer_1" xmlns="http://www.w3.org/2000/svg" viewBox="0 0 180 80"><defs><style>.cls-1{fill:none;}.cls-2{fill:#fff;}</style></defs><rect class="cls-1" width="180" height="80"/><path class="cls-2" d="M41.24,39.7c0-8.11-6.49-14.8-14.8-14.8-5.47,0-10.14,3.04-12.77,7.5l7.3,7.3c0-3.24,2.64-5.68,5.68-5.68,3.24,0,5.68,2.64,5.68,5.68s-2.43,5.68-5.68,5.68h-12.17c-3.04,0-5.47,2.43-5.47,5.47v3.65h17.84c7.91-.2,14.4-6.69,14.4-14.8"/><path class="cls-2" d="M108.55,37.87h6.89c2.64,0,4.06-1.22,4.06-3.65s-1.42-3.65-4.06-3.65h-6.89v7.3ZM112.4,43.55h-4.06v10.75h-6.08v-26.16c0-1.82,1.42-3.24,3.24-3.24h9.93c6.29,0,10.34,3.85,10.34,9.33,0,4.46-2.43,7.7-6.89,8.92l7.7,11.15h-7.3l-6.89-10.75ZM171,53.69c-1.22.81-2.64,1.42-4.26,1.42-4.26,0-6.29-2.84-6.29-7.1v-21.49l5.88-1.42v22.91c0,1.22.61,1.82,1.62,1.82.41,0,.61,0,1.01-.2l2.03,4.06ZM160.86,53.69c-1.22.81-2.64,1.42-4.26,1.42-4.26,0-6.29-2.84-6.29-7.1v-19.06l5.88-1.42v20.48c0,1.22.61,1.82,1.62,1.82.41,0,.61,0,1.01-.2l2.03,4.06ZM142.41,43.75c0-3.45-2.23-5.88-5.47-5.88s-5.47,2.23-5.47,5.88,2.23,5.88,5.47,5.88,5.47-2.43,5.47-5.88M125.58,43.75c0-6.49,4.87-11.15,11.35-11.15s11.56,4.46,11.56,11.15-4.87,11.15-11.56,11.15-11.35-4.66-11.35-11.15M58.27,42.53l4.26-11.35,4.26,11.35h-8.52ZM58.07,26.92l-10.75,27.37h6.49l2.23-6.08h12.77l2.23,6.08h6.69l-11.56-29.4h-4.87c-1.42,0-2.64.81-3.24,2.03M88.28,49.43c-3.24,0-5.47-2.23-5.47-5.88s2.23-5.88,5.47-5.88,5.47,2.23,5.47,5.88-2.23,5.88-5.47,5.88M93.35,35.24c-1.42-1.62-3.65-2.64-6.29-2.64-5.68,0-10.34,4.46-10.34,11.15s4.46,11.15,10.14,11.15c3.04,0,5.27-1.22,6.69-3.45l.2,2.84h5.27v-29.4h-2.43c-1.82,0-3.24,1.42-3.24,3.24v7.1Z"/></svg>