<?xml version="1.0" encoding="UTF-8"?><svg id="Layer_1" xmlns="http://www.w3.org/2000/svg" xmlns:xlink="http://www.w3.org/1999/xlink" viewBox="0 0 180 80"><defs><style>.cls-1{fill:none;}.cls-2{fill:url(#linear-gradient);}.cls-3{fill:#fff;}</style><linearGradient id="linear-gradient" x1="-5197.56" y1="795.89" x2="-5105.11" y2="703.44" gradientTransform="translate(839.67 -5111.33) rotate(-90) scale(1 -1)" gradientUnits="userSpaceOnUse"><stop offset="0" stop-color="#4d27a8"/><stop offset="1" stop-color="#a166ff"/></linearGradient></defs><rect class="cls-1" width="180" height="80"/><rect class="cls-1" width="180" height="80"/><g id="Working"><rect id="Purple_Gradient" class="cls-2" x="57.31" y="7.31" width="65.37" height="65.37"/><g id="Icon_Test"><path class="cls-3" d="M111.82,35.64v1.74h-7.69c-20.13,0-35.89-7.93-35.89-18.08,0-.37,.02-.73,.07-1.1h1.74c-.06,.36-.09,.73-.09,1.1,0,9,15.32,16.33,34.17,16.33h7.69Z"/><path class="cls-3" d="M111.82,39.13v1.74h-10.67c-17.06,0-29.32,2.76-32.91,7.4v-2.34c3.81-3.33,10.87-5.06,17.76-5.94h0c-6.91-.87-13.95-2.61-17.77-5.87v-2.55c3.55,4.65,15.58,7.45,32.34,7.54h11.25Z"/><path class="cls-3" d="M111.82,32.15v1.74h-3.61c-17.5,0-30.2-5.93-30.2-14.09v-1.6h1.84v1.6c0,6.97,12.2,12.35,28.37,12.35h3.6Z"/><path class="cls-3" d="M111.82,42.61v1.74h-7.69c-18.85,0-34.19,7.36-34.19,16.36,0,.36,.03,.72,.08,1.07h-1.74c-.05-.36-.07-.71-.07-1.07,0-10.15,15.79-18.1,35.94-18.1h7.67Z"/><path class="cls-3" d="M111.82,46.1v1.74h-3.61c-16.2,0-28.41,5.23-28.41,12.26v1.68h-1.74v-1.68c0-8.12,12.69-14.01,30.17-14.01h3.59Z"/></g></g></svg>