<svg id="Layer_1" data-name="Layer 1" xmlns="http://www.w3.org/2000/svg" viewBox="0 0 180 80"><defs><style>.cls-1{fill:none;}.cls-2{fill:#0061d5;}</style></defs><rect class="cls-1" width="180" height="80"/><rect class="cls-1" width="180" height="80"/><path class="cls-2" d="M144.32,61.17a4.25,4.25,0,0,1-.55,5.79,4.61,4.61,0,0,1-6.08-.55L128,54l-9.39,12.15c-1.38,1.93-4.14,1.93-6.07.55a4,4,0,0,1-.83-5.8l11-14.36-11-14.36a4.63,4.63,0,0,1,.83-6.07,4.63,4.63,0,0,1,6.07.83L128,39.35l9.66-11.87c1.38-1.93,3.87-2.21,6.08-.83,1.93,1.38,1.93,4.14.55,6.08L133.55,46.81ZM94.07,59.51a12.73,12.73,0,0,1-13-12.7,13,13,0,0,1,26,0A13.09,13.09,0,0,1,94.07,59.51Zm-38.1,0a12.73,12.73,0,0,1-13-12.7,13,13,0,0,1,25.95,0A12.73,12.73,0,0,1,56,59.51Zm38.1-33.69a21.38,21.38,0,0,0-18.78,11,21.49,21.49,0,0,0-19.05-11,22.67,22.67,0,0,0-13,4.15V12.29a4.25,4.25,0,0,0-4.14-4.14,4.32,4.32,0,0,0-4.42,4.14V47.08A21.16,21.16,0,0,0,56,67.79,21.73,21.73,0,0,0,75,56.47,21.62,21.62,0,0,0,93.79,67.79a21.34,21.34,0,0,0,21.54-21.26C115.6,35.21,105.94,25.82,94.07,25.82Z"/></svg>