<?xml version="1.0" encoding="UTF-8"?><svg id="Layer_1" xmlns="http://www.w3.org/2000/svg" viewBox="0 0 180 80"><defs><style>.cls-1{fill:none;}.cls-2{fill:#fff;}</style></defs><rect class="cls-1" width="180" height="80"/><g id="Logo_white"><path class="cls-2" d="M69.87,17.85c-6.17-.05-7.03,5.97-7.05,10.49-.02,4.53.77,10.63,6.93,10.65s7.03-6.05,7.05-10.58c.02-4.51-.77-10.53-6.93-10.56M69.68,50.84c-16.05-.1-23.23-10.75-23.15-22.6.07-11.85,7.37-22.34,23.42-22.24,16.05.1,23.23,10.65,23.15,22.51-.07,11.85-7.39,22.41-23.42,22.34"/><path class="cls-2" d="M110.27,17.85c-6.17-.05-7.03,5.97-7.05,10.49-.02,4.53.77,10.61,6.93,10.65,6.17.05,7.03-6.05,7.05-10.58.02-4.51-.77-10.53-6.93-10.56M110.08,50.84c-16.03-.1-23.23-10.75-23.15-22.6.07-11.85,7.37-22.34,23.39-22.24,16.03.1,23.23,10.65,23.15,22.51-.05,11.85-7.34,22.41-23.39,22.34"/><path class="cls-2" d="M52.64,50.84c11.56,5.16,23.56,7.46,36.64,7.53,13.72.07,24.16-2.52,37.33-7.53l-.07,14.23c-11.8,5.85-24.59,9-37.36,8.93-13.89-.07-23.92-2.93-36.64-8.93l.1-14.23Z"/></g></svg>