<svg id="Layer_1" data-name="Layer 1" xmlns="http://www.w3.org/2000/svg" viewBox="0 0 180 80"><defs><style>.cls-1{fill:none;}.cls-2{fill:#fff;}</style></defs><rect class="cls-1" width="180" height="80"/><rect class="cls-1" width="180" height="80"/><g id="PRIMARY_-_GHOST" data-name="PRIMARY - GHOST"><path class="cls-2" d="M111.16,51.67c-7.64-3.69-8.85-9.4-8.91-9.82a1.35,1.35,0,0,1,.43-1.44c.54-.51,3-2,3.64-2.47,1.11-.78,1.6-1.55,1.24-2.51a1.5,1.5,0,0,0-1.52-.9,3.05,3.05,0,0,0-.6.06c-1.22.27-2.41.88-3.09,1a.78.78,0,0,1-.26,0c-.36,0-.5-.16-.46-.6a44.62,44.62,0,0,0,.05-6.37A10.11,10.11,0,0,0,99,22.23a12.75,12.75,0,0,0-18.07,0,10.13,10.13,0,0,0-2.65,6.47,44.37,44.37,0,0,0,.06,6.37c0,.42-.1.6-.47.6a1.07,1.07,0,0,1-.25,0c-.68-.17-1.87-.78-3.09-1.05a3.05,3.05,0,0,0-.6-.06,1.51,1.51,0,0,0-1.52.9c-.36,1,.13,1.73,1.24,2.51.67.47,3.1,2,3.64,2.47a1.35,1.35,0,0,1,.43,1.44c-.06.43-1.28,6.14-8.91,9.83-.45.21-1.21.67.13,1.41,2.11,1.17,3.51,1,4.6,1.74.93.6.38,1.89,1,2.35.83.57,3.27,0,6.43,1,2.65.87,4.25,3.34,9,3.34S96.35,59,99,58.17c3.15-1,5.6-.43,6.43-1,.67-.46.13-1.75,1.05-2.35,1.09-.7,2.49-.57,4.6-1.74C112.37,52.35,111.61,51.89,111.16,51.67Z"/><path d="M114.49,51.24a3.45,3.45,0,0,0-1.74-1.84,2.86,2.86,0,0,0-.38-.2l-.68-.35a14.69,14.69,0,0,1-5.38-4.61,11.47,11.47,0,0,1-.92-1.64.8.8,0,0,1,0-.64,1.11,1.11,0,0,1,.3-.31l1.09-.71c.49-.32.89-.57,1.14-.75a6.24,6.24,0,0,0,2-2.17A4.25,4.25,0,0,0,106,31.76a5.29,5.29,0,0,0-1.19.13l-.31.07a34.65,34.65,0,0,0-.11-3.51,12.86,12.86,0,0,0-3.32-8,13.22,13.22,0,0,0-3.38-2.71,16.06,16.06,0,0,0-15.45,0,13.1,13.1,0,0,0-3.39,2.72,12.83,12.83,0,0,0-3.32,8c-.1,1.18-.12,2.39-.11,3.51l-.31-.07A5.94,5.94,0,0,0,74,31.76a4.21,4.21,0,0,0-4.09,2.69,4.31,4.31,0,0,0,.2,3.58,6.26,6.26,0,0,0,2,2.16c.25.18.65.44,1.14.76l1,.68a1.19,1.19,0,0,1,.33.34.83.83,0,0,1,0,.67,10.49,10.49,0,0,1-.91,1.6,14.72,14.72,0,0,1-5.23,4.54c-1.19.63-2.42,1-2.95,2.47a3.12,3.12,0,0,0,.87,3.31h0a4.73,4.73,0,0,0,1.26,1,13.67,13.67,0,0,0,3.08,1.23,2,2,0,0,1,.62.28c.37.32.32.8.8,1.5a3.5,3.5,0,0,0,.91.93,6,6,0,0,0,3.38.79,12.68,12.68,0,0,1,3.75.56,9.41,9.41,0,0,1,1.91,1A13.85,13.85,0,0,0,90,64.29a14,14,0,0,0,7.94-2.48,9.08,9.08,0,0,1,1.88-1,12.63,12.63,0,0,1,3.75-.56,5.94,5.94,0,0,0,3.37-.8,3.41,3.41,0,0,0,1-1.13c.35-.59.34-1,.67-1.3a2.11,2.11,0,0,1,.59-.27,13.72,13.72,0,0,0,3.12-1.24,4.78,4.78,0,0,0,1.32-1h0A3.11,3.11,0,0,0,114.49,51.24ZM111,53.1c-2.11,1.16-3.51,1-4.6,1.74-.93.6-.38,1.88-1.05,2.34-.83.58-3.27,0-6.43,1-2.6.86-4.26,3.33-9,3.33s-6.3-2.47-9-3.34c-3.15-1-5.6-.43-6.42-1s-.13-1.75-1.06-2.35c-1.09-.7-2.49-.57-4.6-1.73-1.34-.74-.58-1.2-.13-1.42,7.64-3.7,8.86-9.4,8.91-9.83a1.34,1.34,0,0,0-.43-1.44c-.54-.5-3-2-3.63-2.47-1.11-.77-1.6-1.55-1.24-2.5A1.49,1.49,0,0,1,74,34.53a2.54,2.54,0,0,1,.61.07c1.21.26,2.4.88,3.08,1a1.15,1.15,0,0,0,.26,0c.36,0,.49-.18.46-.6a46,46,0,0,1-.05-6.36A10.08,10.08,0,0,1,81,22.24a12.76,12.76,0,0,1,18.07,0,10.13,10.13,0,0,1,2.65,6.47,43,43,0,0,1-.06,6.37c0,.44.11.6.47.6a1,1,0,0,0,.25,0c.69-.17,1.87-.78,3.09-1.05a3.15,3.15,0,0,1,.61-.06,1.49,1.49,0,0,1,1.51.9c.36,1-.12,1.73-1.24,2.51-.67.47-3.09,2-3.64,2.47a1.35,1.35,0,0,0-.42,1.44c0,.43,1.27,6.14,8.91,9.83C111.61,51.89,112.37,52.35,111,53.1Z"/></g></svg>