<?xml version="1.0" encoding="UTF-8"?><svg id="Layer_1" xmlns="http://www.w3.org/2000/svg" viewBox="0 0 180 80"><defs><style>.cls-1{fill:none;}.cls-1,.cls-2{stroke-width:0px;}.cls-2{fill:#fff;}</style></defs><rect class="cls-1" width="180" height="80"/><path class="cls-2" d="m173.74,33.99c0-.65-.46-1.08-1.22-1.08l-1.49.03.03,3.3h.81v-1.14h.49l.7,1.14h.95l-.84-1.27c.35-.2.57-.57.57-.97Zm-1.38.43h-.51v-.84h.6c.22-.02.43.13.46.35v.03c0,.26-.23.47-.49.46-.02,0-.03,0-.05,0Zm-120.13,14.84c-1.38,0-2.33-1.08-2.33-2.68v-7.28h5.69v-5.15h-5.67l-.05-5.9h-6.28l.05,19.66c0,3.98,2.65,6.69,6.55,6.69,2.06,0,4.01-.3,5.55-1v-5.01c-1.1.51-2.3.74-3.51.68h0Zm15-15.44c-5.85,0-10.34,4.55-10.34,10.59s4.5,10.15,10.7,10.15c3.49,0,6.77-1.25,8.77-3.82l-4.82-2.19c-.97.89-2.46,1.25-3.79,1.25-2.17,0-4.33-1.11-4.63-3.38h14.38c.22-.81.33-1.65.32-2.49,0-6.2-4.52-10.1-10.57-10.1h-.01Zm-4.12,8.61c.19-2.71,2.14-3.95,4.28-3.95,2.41,0,4.22,1.35,4.22,3.68v.27h-8.5Zm-25.51,6.82c-1.38,0-2.33-1.08-2.33-2.68v-7.28h5.69v-5.15h-5.67l-.05-5.9h-6.28l.05,19.66c0,3.98,2.65,6.69,6.55,6.69,2.06,0,4.01-.3,5.55-1v-5.01c-1.1.51-2.3.74-3.51.68Zm-22.07-15.44c-5.39,0-11.05,3.55-11.05,10.7,0,5.96,4.01,10.13,9.07,10.13,2.9,0,5.09-1.16,6.53-3.22l.19,2.87h6.08v-9.53c0-7.26-5.35-10.94-10.82-10.94Zm0,15.33c-2.74,0-4.71-2.03-4.71-4.9s1.95-4.9,4.71-4.9c2.55,0,4.66,2.22,4.66,4.9s-2.11,4.9-4.66,4.9h0Zm156.68-17.74c-1.98.03-3.25,1.3-3.22,3.2s1.33,3.14,3.3,3.11c1.92-.03,3.22-1.3,3.2-3.22s-1.33-3.11-3.28-3.09h0Zm.08,5.77c-1.54.03-2.6-1-2.6-2.57s1-2.63,2.55-2.65,2.57,1,2.6,2.6c0,1.54-1.03,2.6-2.53,2.63h-.01Zm-30.79-3.01l-4.39,12.73-4.44-12.73h-6.82l8.18,20.09h6.12l8.18-20.09h-6.82Zm16.28-.35c-5.85,0-10.34,4.55-10.34,10.59s4.5,10.15,10.7,10.15c3.49,0,6.77-1.25,8.77-3.82l-4.82-2.19c-.97.89-2.46,1.25-3.79,1.25-2.17,0-4.33-1.11-4.63-3.38h14.38c.22-.81.33-1.65.32-2.49,0-6.2-4.52-10.1-10.59-10.1h0Zm4.39,8.61h-8.5c.19-2.71,2.14-3.95,4.28-3.95,2.41,0,4.22,1.35,4.22,3.68v.27Zm-41.16-17.09c-2.22,0-3.9,1.49-3.9,3.57s1.68,3.63,3.9,3.63,3.9-1.52,3.9-3.63-1.65-3.57-3.9-3.57h0Zm-28.52,8.45c-2.58-.04-5,1.27-6.36,3.47l-.22-3.09h-6.07v20.09h6.28v-10.53c.14-2.52,2.17-4.44,4.39-4.44,2.49,0,3.63,1.87,3.63,4.22v10.72h6.26v-11.7c0-5.09-3.1-8.75-7.91-8.75h0Zm19.17,15.46c-1.38,0-2.33-1.08-2.33-2.68v-7.28h5.69v-5.15h-5.69l-.05-5.9h-6.28l.05,19.66c0,3.98,2.65,6.69,6.55,6.69,2.06,0,4.01-.3,5.55-1v-5.01c-1.09.51-2.29.74-3.49.68h0Zm6.17-15.08v20.09h6.34v-20.09c-1.92,1.27-4.42,1.27-6.34,0h0Z"/></svg>