<svg id="Layer_1" data-name="Layer 1" xmlns="http://www.w3.org/2000/svg" viewBox="0 0 180 80"><defs><style>.cls-1{fill:none;}.cls-2{fill:#1c122e;}</style></defs><rect class="cls-1" width="180" height="80"/><rect class="cls-1" width="180" height="80"/><path class="cls-2" d="M31.42,39.23a13.09,13.09,0,0,0-3.91-1.6c-1.35-.38-2.47-.67-2.76-.82s-.67-.34-1.11-.58a1,1,0,0,1-.58-1,1.56,1.56,0,0,1,.82-1.36,4,4,0,0,1,2.23-.58A7,7,0,0,1,31,35.75a.31.31,0,0,0,.19.09.25.25,0,0,0,.19-.09l4.16-6.52a.33.33,0,0,0,0-.34c-2.47-2.18-5.75-3.24-9.76-3.24a14.24,14.24,0,0,0-9.37,3.14,9.82,9.82,0,0,0-3.87,7.83c0,2.56.68,4.3,2.13,5.26a14.4,14.4,0,0,0,4,2c1.3.38,2.12.62,2.66.82a5.4,5.4,0,0,1,1.49.82,1.4,1.4,0,0,1,.58,1.11,1.93,1.93,0,0,1-.87,1.55,3.68,3.68,0,0,1-2.22.62A7.42,7.42,0,0,1,14,45.27a.38.38,0,0,0-.2-.1h0a.26.26,0,0,0-.19.1L9.15,51.89a.3.3,0,0,0,0,.29,11.58,11.58,0,0,0,4.59,3.52,17.45,17.45,0,0,0,6.42,1,15.43,15.43,0,0,0,9.91-3.24h0a10.5,10.5,0,0,0,4.06-8.26A6.67,6.67,0,0,0,31.42,39.23Z"/><path class="cls-2" d="M83.51,13.57a.25.25,0,0,0-.2-.09H72.92a.23.23,0,0,0-.24.24l-5,41.74s0,.15,0,.19a.22.22,0,0,0,.19.1H78.34a.23.23,0,0,0,.24-.24l5-41.75A.44.44,0,0,0,83.51,13.57Z"/><path class="cls-2" d="M115.44,26.52a.26.26,0,0,0-.19-.1H104.86a.23.23,0,0,0-.24.25l-.34,2.65c-1.26-2.41-3.77-3.62-7.39-3.62A13.46,13.46,0,0,0,86.4,30.82,18.85,18.85,0,0,0,82,43.14c0,4.11.92,7.39,2.9,9.81a10,10,0,0,0,8.21,3.67A11.4,11.4,0,0,0,101,54l1.11-1.11-.92,2.51c0,.1,0,.15,0,.25a.41.41,0,0,0,.19.09h10.39a.23.23,0,0,0,.24-.24l3.43-28.79A.09.09,0,0,0,115.44,26.52Zm-23,14.88a8.13,8.13,0,0,1,2.08-4.78,5.61,5.61,0,0,1,4.16-1.84,4.41,4.41,0,0,1,3.57,1.5,5.63,5.63,0,0,1,1.26,4,7.93,7.93,0,0,1-1.89,5.41h0a5.47,5.47,0,0,1-4.44,2.13,4.35,4.35,0,0,1-3.58-1.5,5.88,5.88,0,0,1-1.2-4.11l0-.82Z"/><path class="cls-2" d="M136.56,39.23a14.53,14.53,0,0,0-3.92-1.6,23.44,23.44,0,0,1-2.75-.82,11.08,11.08,0,0,1-1.11-.58,1,1,0,0,1-.58-1,1.56,1.56,0,0,1,.82-1.36,3.93,3.93,0,0,1,2.22-.58,7,7,0,0,1,4.93,2.42.33.33,0,0,0,.19.09.25.25,0,0,0,.2-.09l4.05-6.52a.3.3,0,0,0,0-.34c-2.47-2.18-5.75-3.24-9.76-3.24a14.26,14.26,0,0,0-9.38,3.14,9.84,9.84,0,0,0-3.86,7.83c0,2.51.67,4.3,2.12,5.26a14.54,14.54,0,0,0,4,2c1.31.38,2.13.62,2.66.82a5.32,5.32,0,0,1,1.5.82,1.4,1.4,0,0,1,.58,1.11,1.93,1.93,0,0,1-.87,1.55,3.68,3.68,0,0,1-2.22.62,7.42,7.42,0,0,1-6.23-3.52.38.38,0,0,0-.2-.1h0a.26.26,0,0,0-.19.1l-4.49,6.62a.3.3,0,0,0,0,.29,11.52,11.52,0,0,0,4.59,3.52,17.45,17.45,0,0,0,6.42,1h.15a15.06,15.06,0,0,0,9.85-3.24h0a10.5,10.5,0,0,0,4.06-8.26C139.26,42.51,138.39,40.53,136.56,39.23Z"/><path class="cls-2" d="M168.73,28a8.93,8.93,0,0,0-6.47-2.27A10.22,10.22,0,0,0,155,28.65l0,0-1.59,1.89.63-3.29,1.59-13.48a.27.27,0,0,0-.05-.19.24.24,0,0,0-.19-.1H145a.23.23,0,0,0-.24.24l-5,41.75a.33.33,0,0,0,0,.19.26.26,0,0,0,.2.1h10.48a.23.23,0,0,0,.24-.24l1.79-14.93a20.19,20.19,0,0,1,.53-2.9,5.59,5.59,0,0,1,.73-1.4,3.18,3.18,0,0,1,1.3-1,4.11,4.11,0,0,1,1.84-.43,2.7,2.7,0,0,1,2.07.72,3.39,3.39,0,0,1,.78,2.52l-2.08,17.44a.27.27,0,0,0,0,.19.26.26,0,0,0,.19.1H168.3a.23.23,0,0,0,.24-.24l2.13-17.78.19-3.43h0A7.82,7.82,0,0,0,168.73,28Z"/><path class="cls-2" d="M64.9,29.23a10.36,10.36,0,0,0-8.26-3.53,9.9,9.9,0,0,0-7.29,2.61L48,29.71l.73-2.95a.43.43,0,0,0,0-.24.35.35,0,0,0-.19-.1H38a.23.23,0,0,0-.24.25L33,66.24a.34.34,0,0,0,0,.19.25.25,0,0,0,.2.09H43.65a.23.23,0,0,0,.24-.24l1.59-13.62c1.35,2.66,3.82,4,7.3,4h.09A13.24,13.24,0,0,0,63.41,51.5h0A20,20,0,0,0,67.8,38.7C67.9,34.73,66.93,31.59,64.9,29.23Zm-8.69,7.05a5.84,5.84,0,0,1,1.21,4.11,8.28,8.28,0,0,1-1.89,5.31,5.55,5.55,0,0,1-4.44,2.13,4.76,4.76,0,0,1-3.53-1.26,5.88,5.88,0,0,1-1.26-4.3h0V41.4a7.79,7.79,0,0,1,2.13-4.73,5.69,5.69,0,0,1,4.3-1.84A4,4,0,0,1,56.21,36.28Z"/></svg>