<?xml version="1.0" encoding="UTF-8"?><svg id="Layer_1" xmlns="http://www.w3.org/2000/svg" viewBox="0 0 180 80"><defs><style>.cls-1{fill:none;}.cls-2{fill:#7856ff;}</style></defs><rect class="cls-1" width="180" height="80"/><path class="cls-2" d="M9,50.58h9.72v-1.03h-.73c-1.42,0-1.76-.39-1.76-1.8v-12.81c.99-1.68,2.32-2.75,4-2.75,2.11,0,3.4,1.55,3.4,4.47v11.1c0,1.42-.35,1.8-1.72,1.8h-.78v1.03h9.5v-1.03h-.69c-1.42,0-1.76-.39-1.76-1.8v-11.57c0-.39,0-.78-.04-1.16.94-1.72,2.37-2.84,4.04-2.84,2.11,0,3.4,1.55,3.4,4.47v11.1c0,1.42-.35,1.8-1.72,1.8h-.78v1.03h9.5v-1.03h-.65c-1.46,0-1.8-.39-1.8-1.8v-11.57c0-4.34-2.45-6.75-6.02-6.75-2.67,0-4.99,1.46-6.24,4.39-.73-2.84-2.88-4.39-5.72-4.39-2.54,0-4.73,1.37-5.94,4.13v-3.61h-7.23v1.03h.86c1.46,0,1.8.39,1.8,1.8v14.97c0,1.42-.35,1.8-1.8,1.8h-.86v1.03ZM48.31,26.49c1.55,0,2.84-1.29,2.84-2.84s-1.29-2.84-2.84-2.84-2.84,1.29-2.84,2.84,1.29,2.84,2.84,2.84ZM43.49,50.58h9.55v-1.03h-.65c-1.42,0-1.76-.39-1.76-1.8v-17.8h-7.23v1.03h.86c1.46,0,1.8.39,1.8,1.8v14.97c0,1.42-.35,1.8-1.8,1.8h-.78v1.03h0ZM60.01,38.45h2.75c-.69-.43-.94-1.03-1.29-2.15l-1.03-3.83c-.47-1.72-.86-2.54-2.75-2.54h-3.96v1.03h.56c1.16,0,1.29.43,1.64,1.72l.9,3.36c.47,1.64,1.21,2.41,3.18,2.41h0ZM66.37,38.45h2.75c1.98,0,2.66-.78,3.14-2.41l.9-3.36c.35-1.29.51-1.72,1.64-1.72h.56v-1.03h-3.91c-1.94,0-2.32.78-2.75,2.54l-1.03,3.83c-.35,1.16-.61,1.72-1.29,2.15ZM62.76,42.06h3.61v-3.61h-3.61v3.61ZM53.73,50.58h3.96c1.89,0,2.28-.82,2.75-2.54l1.03-3.83c.35-1.12.6-1.72,1.29-2.15h-2.75c-1.98,0-2.71.78-3.18,2.41l-.9,3.36c-.35,1.29-.47,1.72-1.64,1.72h-.56v1.03h0ZM71.45,50.58h3.91v-1.03h-.56c-1.12,0-1.29-.43-1.64-1.72l-.9-3.36c-.47-1.64-1.16-2.41-3.14-2.41h-2.75c.69.43.94.99,1.28,2.15l1.03,3.83c.43,1.76.82,2.54,2.75,2.54h0ZM75.92,59.18h9.98v-1.03h-1.03c-1.37,0-1.72-.39-1.72-1.8v-8.21c1.25,1.85,3.36,2.97,5.85,2.97,4.69,0,8.43-4.13,8.43-11.27,0-6.45-3.53-10.41-8.09-10.41-2.67,0-4.9,1.55-6.19,4.3v-3.79h-7.23v1.03h.86c1.42,0,1.8.39,1.8,1.8v23.56c0,1.42-.39,1.8-1.8,1.8h-.86v1.03h0ZM87.7,32.09c2.8,0,5.08,2.62,5.08,7.83,0,5.68-2.11,8.77-4.99,8.77-1.85,0-3.48-.99-4.65-2.71v-10.67c1.12-2.11,2.71-3.23,4.56-3.23h0ZM104.22,51.01c2.8,0,5.03-1.33,6.71-4.34v.47c0,2.58,1.64,3.7,4.34,3.7.82,0,1.85-.08,2.54-.3v-1.07c-.35.08-.6.13-.86.13-1.08,0-1.42-.65-1.42-1.68v-11.01c0-5.08-2.84-7.48-7.61-7.48-3.18,0-6.28,1.46-8.26,3.01l.69,1.21c2.07-1.42,4.09-2.23,6.28-2.23,2.84,0,4.3,1.55,4.3,5.16v.94l-5.29,2.07c-4.82,1.98-6.58,3.83-6.58,6.62s1.98,4.82,5.16,4.82h0ZM103.57,45.07c0-2.15,1.25-3.7,3.79-4.82l3.57-1.55v6.71c-1.33,1.85-2.88,2.93-4.56,2.93s-2.8-1.16-2.8-3.27h0ZM118.67,50.58h9.81v-1.03h-.82c-1.42,0-1.76-.39-1.76-1.8v-12.77c.99-1.72,2.45-2.8,4.17-2.8,2.24,0,3.66,1.55,3.66,4.47v11.1c0,1.42-.35,1.8-1.72,1.8h-.82v1.03h9.76v-1.03h-.86c-1.46,0-1.8-.39-1.8-1.8v-11.57c0-4.34-2.58-6.75-6.24-6.75-2.66,0-4.9,1.37-6.15,4.13v-3.61h-7.23v1.03h.86c1.46,0,1.8.39,1.8,1.8v14.97c0,1.42-.35,1.8-1.8,1.8h-.86v1.03h0ZM152.12,51.1c2.84,0,5.51-1.29,7.44-2.84l-.65-.94c-1.72,1.25-3.66,1.8-5.46,1.8-4.39,0-6.97-3.1-6.97-9.12v-.78h13.59c-.08-5.81-3.66-9.76-8.86-9.76s-9.38,4.69-9.38,10.88c0,6.8,3.87,10.75,10.28,10.75h0ZM151.26,30.54c2.58,0,4.17,2.8,4.43,7.53h-9.12c.39-4.77,2.19-7.53,4.69-7.53h0ZM161.02,50.58h9.98v-1.03h-.99c-1.42,0-1.76-.39-1.76-1.8v-26.41h-7.23v1.03h.86c1.42,0,1.8.39,1.8,1.8v23.57c0,1.42-.39,1.8-1.8,1.8h-.86v1.03h0Z"/></svg>