<?xml version="1.0" encoding="UTF-8"?><svg id="Layer_1" xmlns="http://www.w3.org/2000/svg" xmlns:xlink="http://www.w3.org/1999/xlink" viewBox="0 0 180 80"><defs><style>.cls-1{fill:none;}.cls-2{fill:url(#linear-gradient);}.cls-3{fill:#fff;}</style><linearGradient id="linear-gradient" x1="-4799.28" y1="4031.16" x2="-4799.28" y2="3900.42" gradientTransform="translate(-499.37 -6157.85) rotate(-135) scale(1 -1)" gradientUnits="userSpaceOnUse"><stop offset="0" stop-color="#2e27ad"/><stop offset="1" stop-color="#527fff"/></linearGradient></defs><rect class="cls-1" width="180" height="80"/><rect class="cls-1" width="180" height="80"/><g id="Reference"><rect id="Blue_Gradient" class="cls-2" x="57.31" y="7.31" width="65.37" height="65.37"/><g id="Icon_Test"><path class="cls-3" d="M79.44,33.05c-6.76,0-13.95-2.05-13.95-5.84s7.17-5.84,13.95-5.84,13.95,2.05,13.95,5.84-7.2,5.84-13.95,5.84Zm0-9.94c-6.97,0-12.2,2.16-12.2,4.1s5.23,4.1,12.2,4.1,12.2-2.16,12.2-4.1-5.24-4.1-12.2-4.1Z"/><rect class="cls-3" x="91.66" y="27.47" width="1.74" height="14.82"/><path class="cls-3" d="M79.43,61.36c-6.75,0-13.95-2.02-13.95-5.78V27.47h1.74v28.12c0,1.92,5.23,4.05,12.2,4.05s12.2-2.14,12.2-4.05v-2.84h1.74v2.84c.03,3.76-7.19,5.76-13.95,5.76Z"/><path class="cls-3" d="M79.44,42.9c-6.75,0-13.95-2.05-13.95-5.84h1.74c0,1.94,5.23,4.1,12.2,4.1s12.2-2.16,12.2-4.1h1.74c-.02,3.79-7.19,5.84-13.95,5.84Z"/><path class="cls-3" d="M79.5,52.49c-6.75,0-13.95-2.05-13.95-5.84h1.74c0,1.94,5.23,4.1,12.2,4.1,2.85,.04,5.7-.37,8.42-1.22l.56,1.65c-2.9,.91-5.93,1.35-8.98,1.32Z"/><path class="cls-3" d="M99.89,62.11c-.48,0-.87-.39-.87-.87,0-5.99-6.84-12.85-12.86-12.85-.48,0-.87-.39-.87-.87s.39-.87,.87-.87c6.01,0,12.86-6.85,12.86-12.86,0-.48,.39-.87,.87-.87s.87,.39,.87,.87c0,6.01,6.84,12.86,12.86,12.86,.48,0,.87,.39,.87,.87s-.39,.87-.87,.87c-6.01,0-12.86,6.84-12.86,12.85,0,.48-.39,.87-.87,.87Zm-9.46-14.59c4.26,1.81,7.65,5.21,9.46,9.47,1.81-4.27,5.21-7.67,9.48-9.47-4.27-1.81-7.67-5.21-9.48-9.48-1.81,4.27-5.2,7.67-9.46,9.48Z"/><rect class="cls-3" x="103.87" y="26.6" width="1.74" height="5.23"/><rect class="cls-3" x="102.12" y="28.35" width="5.23" height="1.74"/><rect class="cls-3" x="94.28" y="17.89" width="1.74" height="5.23"/><rect class="cls-3" x="92.54" y="19.63" width="5.23" height="1.74"/></g></g></svg>