<?xml version="1.0" encoding="UTF-8"?><svg id="Layer_1" xmlns="http://www.w3.org/2000/svg" xmlns:xlink="http://www.w3.org/1999/xlink" viewBox="0 0 180 80"><defs><style>.cls-1{fill:rgba(255,255,255,0);}.cls-2{fill:none;}.cls-3{fill:url(#radial-gradient);}.cls-3,.cls-4{fill-rule:evenodd;}.cls-4{fill:#fff;}</style><radialGradient id="radial-gradient" cx="-2311.16" cy="3251.3" fx="-2311.16" fy="3251.3" r=".09" gradientTransform="translate(1848998 2601105.03) scale(800 -800)" gradientUnits="userSpaceOnUse"><stop offset="0" stop-color="#09f"/><stop offset=".61" stop-color="#a033ff"/><stop offset=".93" stop-color="#ff5280"/><stop offset="1" stop-color="#ff7061"/></radialGradient></defs><rect class="cls-2" width="180" height="80"/><rect class="cls-2" width="180" height="80"/><g id="logo"><rect id="bounding-box" class="cls-1" x="47.89" y="-2.11" width="84.21" height="84.21"/><g id="logo-2"><path id="Path" class="cls-3" d="M90,7.93c-18.53,0-32.89,13.57-32.89,31.91,0,9.59,3.93,17.88,10.33,23.6,.54,.48,.86,1.15,.88,1.88l.18,5.85c.06,1.87,1.99,3.08,3.69,2.33l6.53-2.88c.55-.24,1.17-.29,1.76-.13,3,.82,6.19,1.26,9.52,1.26,18.53,0,32.89-13.57,32.89-31.91S108.53,7.93,90,7.93Z"/><path id="Path-2" class="cls-4" d="M70.25,49.17l9.66-15.33c1.54-2.44,4.83-3.05,7.13-1.32l7.69,5.76c.71,.53,1.68,.53,2.38,0l10.38-7.88c1.39-1.05,3.19,.61,2.27,2.08l-9.66,15.33c-1.54,2.44-4.83,3.05-7.13,1.32l-7.69-5.76c-.71-.53-1.68-.53-2.38,0l-10.38,7.88c-1.39,1.05-3.19-.61-2.27-2.08Z"/></g></g></svg>