<?xml version="1.0" encoding="UTF-8"?><svg id="Layer_1" xmlns="http://www.w3.org/2000/svg" viewBox="0 0 180 80"><defs><style>.cls-1{fill:none;}.cls-2,.cls-3{fill-rule:evenodd;}.cls-2,.cls-4{fill:#fff;}.cls-3{fill:#62d84e;}</style></defs><rect class="cls-1" width="180" height="80"/><path class="cls-2" d="M47.98,35.46c-1.63,0-3.21.57-4.46,1.61v-1.44h-4.07v15.86h4.24v-10.14c.92-1.2,2.33-1.92,3.84-1.96.58-.03,1.16.06,1.7.25v-4.07c-.41-.07-.83-.11-1.24-.11"/><path class="cls-2" d="M11.05,46.65c1.21,1.02,2.74,1.58,4.33,1.57,1.14,0,2.02-.56,2.02-1.34,0-2.39-7.66-1.54-7.66-6.64,0-3.04,2.93-4.94,6.06-4.94,1.9,0,3.76.56,5.34,1.61l-1.98,3.07c-.87-.66-1.93-1.04-3.03-1.08-1.17,0-2.15.46-2.15,1.27,0,2.06,7.66,1.24,7.66,6.74,0,3.04-2.97,4.91-6.29,4.91-2.29-.02-4.51-.76-6.35-2.12l2.05-3.05Z"/><path class="cls-2" d="M37.64,43.41c0-4.41-3.09-8.11-7.46-8.11-4.69,0-7.69,3.86-7.69,8.27-.19,4.37,3.21,8.06,7.57,8.24.24,0,.47,0,.71,0,2.47.03,4.83-1,6.48-2.84l-2.41-2.42c-1.02,1.13-2.46,1.79-3.97,1.83-2.19.07-4.06-1.57-4.27-3.76h10.95c.07-.4.1-.81.1-1.22ZM26.79,41.51c.31-1.62,1.74-2.79,3.39-2.78,1.6,0,2.94,1.2,3.13,2.78h-6.52Z"/><polygon class="cls-2" points="59.32 45.31 63.65 35.63 68.05 35.63 60.79 51.49 57.85 51.49 50.59 35.63 54.99 35.63 59.32 45.31"/><path class="cls-2" d="M71.61,28.18c1.5.03,2.7,1.27,2.67,2.77s-1.27,2.7-2.77,2.67c-1.48-.03-2.67-1.24-2.67-2.72,0-1.5,1.22-2.72,2.72-2.72.02,0,.03,0,.05,0"/><rect class="cls-4" x="69.49" y="35.63" width="4.24" height="15.86"/><path class="cls-2" d="M91.24,48.25c-1.63,2.33-4.33,3.67-7.17,3.57-4.56.12-8.35-3.49-8.47-8.05-.12-4.56,3.49-8.35,8.05-8.47.15,0,.3,0,.45,0,2.59-.02,5.04,1.15,6.65,3.17l-3,2.65c-.85-1.17-2.2-1.88-3.65-1.9-2.34,0-4.25,1.88-4.26,4.23,0,.04,0,.08,0,.12-.08,2.31,1.74,4.24,4.04,4.32.11,0,.21,0,.32,0,1.53-.03,2.94-.81,3.78-2.09l3.26,2.45Z"/><path class="cls-2" d="M106.62,48.97c-1.65,1.84-4.01,2.88-6.48,2.84-4.37.2-8.07-3.17-8.27-7.54-.01-.23-.01-.47,0-.7,0-4.42,3-8.27,7.69-8.27,4.37,0,7.46,3.7,7.46,8.11,0,.41-.03.81-.1,1.21h-10.95c.21,2.18,2.08,3.83,4.27,3.76,1.52-.04,2.95-.71,3.98-1.83l2.41,2.42ZM102.68,41.51c-.19-1.58-1.53-2.78-3.13-2.78-1.65,0-3.08,1.16-3.39,2.78h6.52Z"/><path class="cls-2" d="M108.7,51.49v-15.86h4.07v1.27c1.25-1.04,2.83-1.61,4.46-1.6,2.11,0,4.12.93,5.47,2.55,1.22,1.59,1.8,3.57,1.63,5.56v8.07h-4.24v-8.41c.12-1.08-.22-2.16-.94-2.98-.64-.6-1.5-.91-2.38-.88-1.51.04-2.92.76-3.84,1.96v10.31h-4.24Z"/><path class="cls-3" d="M135.24,35.3c-5.12-.01-9.28,4.13-9.29,9.26,0,2.56,1.05,5,2.9,6.76.65.62,1.67.68,2.38.12,2.35-1.75,5.56-1.75,7.91,0,.72.55,1.74.49,2.4-.14,3.72-3.53,3.87-9.4.34-13.11-1.73-1.82-4.13-2.87-6.64-2.89M135.19,49.2c-2.48.07-4.55-1.89-4.62-4.37,0-.08,0-.16,0-.24,0-2.55,2.07-4.62,4.62-4.62s4.62,2.07,4.62,4.62c.07,2.48-1.89,4.55-4.38,4.62-.08,0-.16,0-.24,0"/><polygon class="cls-2" points="152.81 51.49 149.65 51.49 143.36 35.63 147.59 35.63 151.04 44.69 154.42 35.63 157.96 35.63 161.31 44.69 164.79 35.63 169.02 35.63 162.73 51.49 159.57 51.49 156.19 42.46 152.81 51.49"/><path class="cls-4" d="M169.06,49.69h-.36v.67h-.3v-1.84h.74c.33,0,.59.26.59.59h0c0,.24-.15.45-.36.54l.42.72h-.33l-.39-.68ZM168.71,49.42h.44c.17,0,.31-.14.31-.31s-.14-.31-.31-.31h-.43v.62Z"/><path class="cls-4" d="M169.02,47.78c.94,0,1.71.76,1.71,1.7s-.76,1.71-1.7,1.71c-.94,0-1.71-.76-1.71-1.7h0c0-.94.76-1.7,1.7-1.71M169.02,47.51c-1.09,0-1.98.89-1.98,1.98s.89,1.98,1.98,1.98c1.09,0,1.98-.89,1.98-1.98s-.89-1.98-1.98-1.98h0Z"/></svg>