<?xml version="1.0" encoding="UTF-8"?><svg id="Layer_1" xmlns="http://www.w3.org/2000/svg" xmlns:xlink="http://www.w3.org/1999/xlink" viewBox="0 0 180 80"><defs><style>.cls-1{fill:none;}.cls-2{fill:url(#linear-gradient);}.cls-3{clip-path:url(#clippath);}.cls-4{mask:url(#mask);}.cls-5{fill:url(#linear-gradient-3);}.cls-6{fill:url(#linear-gradient-2);}</style><clipPath id="clippath"><rect class="cls-1" x="55.29" y="5.29" width="69.42" height="69.42"/></clipPath><mask id="mask" x="63.97" y="5.29" width="52.07" height="69.42" maskUnits="userSpaceOnUse"/><linearGradient id="linear-gradient" x1="88.26" y1="503.68" x2="118.78" y2="438.99" gradientTransform="translate(0 509.33) scale(1 -1)" gradientUnits="userSpaceOnUse"><stop offset="0" stop-color="#e6ad10"/><stop offset="1" stop-color="#c87e0e"/></linearGradient><linearGradient id="linear-gradient-2" x1="76.52" y1="485.7" x2="102.18" y2="435.93" gradientTransform="translate(0 509.33) scale(1 -1)" gradientUnits="userSpaceOnUse"><stop offset="0" stop-color="#f6d751"/><stop offset="1" stop-color="#e6ad10"/></linearGradient><linearGradient id="linear-gradient-3" x1="67.16" y1="470.68" x2="81.34" y2="437.07" gradientTransform="translate(0 509.33) scale(1 -1)" gradientUnits="userSpaceOnUse"><stop offset="0" stop-color="#f9e589"/><stop offset="1" stop-color="#f6d751"/></linearGradient></defs><rect class="cls-1" width="180" height="80"/><rect class="cls-1" width="180" height="80"/><g class="cls-3"><g class="cls-4"><g><path class="cls-2" d="M116.03,5.29V74.71h-23.14V5.29h23.14Z"/><path d="M101.57,25.83v49.17h-23.14V22.93h20.25c1.6,0,2.89,1.3,2.89,2.89Z"/><path d="M101.57,26.98v49.17h-23.14V24.09h20.25c1.6,0,2.89,1.3,2.89,2.89Z"/><path class="cls-6" d="M101.57,25.54v49.17h-23.14V22.64h20.25c1.6,0,2.89,1.3,2.89,2.89Z"/><path class="cls-5" d="M63.97,40v34.71h23.14v-31.82c0-1.6-1.3-2.89-2.89-2.89h-20.25Z"/></g></g></g></svg>