<?xml version="1.0" encoding="UTF-8"?><svg id="Layer_1" xmlns="http://www.w3.org/2000/svg" viewBox="0 0 180 80"><defs><style>.cls-1{fill:none;}.cls-2{fill:#f22f46;}</style></defs><rect class="cls-1" width="180" height="80"/><rect class="cls-1" width="180" height="80"/><path class="cls-2" d="M36.03,34.37c0,2.59-2.13,4.72-4.72,4.72s-4.72-2.13-4.72-4.72,2.13-4.72,4.72-4.72,4.72,2.13,4.72,4.72Zm-4.72,6.55c-2.59,0-4.72,2.13-4.72,4.72s2.13,4.72,4.72,4.72,4.72-2.13,4.72-4.72-2.13-4.72-4.72-4.72Zm28.47-.91c0,12.64-10.2,22.84-22.84,22.84s-22.84-10.2-22.84-22.84,10.2-22.84,22.84-22.84,22.84,10.2,22.84,22.84Zm-6.09,0c0-9.29-7.46-16.75-16.75-16.75s-16.75,7.46-16.75,16.75,7.46,16.75,16.75,16.75,16.75-7.46,16.75-16.75Zm-11.11,.91c-2.59,0-4.72,2.13-4.72,4.72s2.13,4.72,4.72,4.72,4.72-2.13,4.72-4.72-2.13-4.72-4.72-4.72Zm0-11.27c-2.59,0-4.72,2.13-4.72,4.72s2.13,4.72,4.72,4.72,4.72-2.13,4.72-4.72-2.13-4.72-4.72-4.72Zm78.56-3.5c.15,0,.3,.15,.46,.3v4.87c0,.3-.3,.46-.46,.46h-8.07c-.3,0-.46-.3-.46-.46v-4.72c0-.3,.3-.46,.46-.46,0,0,8.07,0,8.07,0Zm-.15,6.85h-15.53c-.15,0-.46,.15-.46,.46l-1.98,7.61-.15,.46-2.44-8.07c0-.15-.3-.46-.46-.46h-6.09c-.15,0-.46,.15-.46,.46l-2.28,7.61-.15,.46-.15-.46-.91-3.81-.91-3.81c0-.15-.3-.46-.46-.46h-12.18v-6.55c0-.15-.3-.46-.61-.3l-7.61,2.44c-.3,0-.46,.15-.46,.46v4.11h-1.98c-.15,0-.46,.15-.46,.46v5.79c0,.15,.15,.46,.46,.46h1.98v7.16c0,5.02,2.74,7.31,7.77,7.31,2.13,0,4.11-.46,5.48-1.22v-6.09c0-.3-.3-.46-.46-.3-.76,.3-1.52,.46-2.13,.46-1.37,0-2.13-.61-2.13-2.13v-5.18h4.42c.15,0,.46-.15,.46-.46v-4.87l5.79,19.18c0,.15,.3,.46,.46,.46h6.39c.15,0,.46-.15,.46-.46l2.74-8.53,1.37,4.42,1.22,4.11c0,.15,.3,.46,.46,.46h6.39c.15,0,.46-.15,.46-.46l5.79-19.18v19.18c0,.15,.15,.46,.46,.46h7.77c.15,0,.46-.15,.46-.46v-20.25c0-.15-.15-.46-.3-.46Zm10.2-6.85h-7.77c-.15,0-.46,.15-.46,.46v26.95c0,.15,.15,.46,.46,.46h7.77c.15,0,.46-.15,.46-.46V26.45c0-.15-.15-.3-.46-.3Zm10.35,0h-8.07c-.15,0-.46,.15-.46,.46v4.72c0,.15,.15,.46,.46,.46h8.07c.15,0,.46-.15,.46-.46v-4.87c0-.15-.15-.3-.46-.3Zm-.15,6.85h-7.77c-.15,0-.46,.15-.46,.46v19.95c0,.15,.15,.46,.46,.46h7.77c.15,0,.46-.15,.46-.46v-19.95c0-.15-.15-.46-.46-.46Zm24.51,10.35c0,5.79-4.87,10.81-11.72,10.81s-11.57-5.02-11.57-10.81,4.87-10.81,11.72-10.81,11.57,5.02,11.57,10.81Zm-8.22,.15c0-2.13-1.52-3.81-3.35-3.65-1.98,0-3.35,1.67-3.35,3.65s1.52,3.65,3.35,3.65c1.98,0,3.35-1.67,3.35-3.65Z"/></svg>