<svg id="Layer_1" data-name="Layer 1" xmlns="http://www.w3.org/2000/svg" viewBox="0 0 180 80"><defs><style>.cls-1{fill:none;}.cls-2{fill:#0b2265;}</style></defs><rect class="cls-1" width="180" height="80"/><rect class="cls-1" width="180" height="80"/><path class="cls-2" d="M64.38,36.8V50.58h-6V38.73c0-2.9-1.33-4.35-3.62-4.35S51,35.83,51,38.73V50.58H44.91V29.3h4.72l1.33,3c1.45-1.81,3.14-3.38,6.28-3.38C61.72,28.94,64.38,32,64.38,36.8ZM20.26,22.65,8.41,50.58h8.22L28.36,22.65ZM32.1,28.94l-4.23,10.4h8.7ZM29.81,44.17l2.65,6.41h8.83l-2.66-6.41ZM85.29,31.48c1.57,1.57,2.29,4,2.29,6.77V50.58H82.75l-1-2.3a7.93,7.93,0,0,1-6.41,2.66c-4,0-7.25-2.3-7.25-6.53v-.12c0-4.59,3.51-6.77,8.58-6.77a15.38,15.38,0,0,1,5.2.85V38c0-2.54-1.57-3.87-4.59-3.87a12.76,12.76,0,0,0-5.44,1.09l-1.93-4.48a17.75,17.75,0,0,1,8.21-1.69C81.42,29.06,83.84,29.91,85.29,31.48ZM81.9,42A9.67,9.67,0,0,0,78,41.15c-2.53,0-4.23,1.09-4.23,2.9v.12c0,1.69,1.33,2.54,3.27,2.54,2.78,0,4.71-1.57,4.71-3.75V42Zm32.76-2.05v.12c0,7.13-4.6,11-9.67,11a8.19,8.19,0,0,1-6.65-3.14v9.43h-6v-28H97l1.33,3a8,8,0,0,1,6.65-3.5C109.82,28.94,114.66,32.81,114.66,39.94Zm-6.17,0c0-3.51-2.41-5.92-5.19-5.92s-5.2,2.29-5.2,5.92v.12c0,3.51,2.29,5.92,5.2,5.92s5.19-2.29,5.19-5.92Zm55.85-11c-3,0-4.84,1.69-6.29,3.38l-1.33-3H152V50.58h6V38.73c0-2.9,1.45-4.35,3.75-4.35s3.62,1.45,3.62,4.35V50.58h6.17V36.8C171.59,32,168.93,28.94,164.34,28.94Zm-19.22,2.54c1.57,1.57,2.29,4,2.29,6.77V50.58h-4.83l-1-2.3a7.92,7.92,0,0,1-6.4,2.66c-4,0-7.26-2.3-7.26-6.53v-.12c0-4.59,3.51-6.77,8.59-6.77a15.36,15.36,0,0,1,5.19.85V38c0-2.54-1.57-3.87-4.59-3.87a12.76,12.76,0,0,0-5.44,1.09l-1.93-4.48A17.76,17.76,0,0,1,138,29.06C141.25,29.06,143.67,29.91,145.12,31.48ZM141.73,42a9.58,9.58,0,0,0-3.86-.84c-2.54,0-4.24,1.09-4.24,2.9v.12c0,1.69,1.33,2.54,3.27,2.54,2.78,0,4.71-1.57,4.71-3.75V42Zm-23.45,8.59h6V22.65h-6Z"/></svg>