<svg id="Layer_1" data-name="Layer 1" xmlns="http://www.w3.org/2000/svg" xmlns:xlink="http://www.w3.org/1999/xlink" viewBox="0 0 180 80"><defs><style>.cls-1{fill:#fff;}.cls-1,.cls-3,.cls-6{fill-rule:evenodd;}.cls-2{fill:none;}.cls-4{mask:url(#mask);}.cls-5{mask:url(#mask-2-2);}.cls-6{fill:#ec2059;}</style><mask id="mask" x="149.17" y="29.51" width="21.93" height="21.93" maskUnits="userSpaceOnUse"><g id="mask-2"><polygon id="path-1" class="cls-1" points="171.1 51.44 171.1 29.51 149.18 29.51 149.18 51.44 171.1 51.44"/></g></mask><mask id="mask-2-2" x="9.99" y="25.74" width="33.1" height="33.1" maskUnits="userSpaceOnUse"><g id="mask-4"><polygon id="path-3" class="cls-1" points="9.99 58.84 43.09 58.84 43.09 25.74 9.99 25.74 9.99 58.84"/></g></mask></defs><rect class="cls-2" width="180" height="80"/><rect class="cls-2" width="180" height="80"/><g id="Page-1"><g id="pendo-logo-footer"><path id="Fill-1" class="cls-3" d="M69.67,40.35a7.44,7.44,0,1,1-7.44-7.44,7.45,7.45,0,0,1,7.44,7.44m-7.44-11a10.87,10.87,0,0,0-7.44,2.92v-3H51.27V58.84h3.52V48.4a11,11,0,1,0,7.44-19"/><path id="Fill-3" class="cls-3" d="M79.64,38.56a7.48,7.48,0,0,1,7.23-5.67,7.11,7.11,0,0,1,7,5.67Zm7.23-9.2a11,11,0,0,0,0,21.93,11.54,11.54,0,0,0,8.53-3.48l1-1.15.14-.14-.15-.14-2.29-2.11L94,44.13l-.14.15L92.8,45.43a8.11,8.11,0,0,1-5.93,2.34,7.49,7.49,0,0,1-7.23-5.68H97.55V40.33a10.71,10.71,0,0,0-10.68-11Z"/><path id="Fill-5" class="cls-3" d="M110.88,29.36a10,10,0,0,0-6.8,2.69V29.36h-3.52v22.1h3.52V40.18a6.82,6.82,0,1,1,13.6,0V51.46h3.53V40.18a10.6,10.6,0,0,0-10.33-10.82"/><path id="Fill-7" class="cls-3" d="M142.6,40.47A7.44,7.44,0,1,1,135.16,33a7.45,7.45,0,0,1,7.44,7.44ZM142.8,22h-.2V32.43a11,11,0,0,0-18.41,8,11,11,0,0,0,11,11,10.87,10.87,0,0,0,7.44-2.92v2.94h3.52V22H142.8Z"/><g class="cls-4"><path id="Fill-9" class="cls-3" d="M167.58,40.47A7.44,7.44,0,1,1,160.14,33a7.45,7.45,0,0,1,7.44,7.44m-7.44-11a11,11,0,1,0,11,11,11,11,0,0,0-11-11"/></g><g class="cls-5"><polygon id="Fill-12" class="cls-6" points="26.54 25.74 9.99 42.29 26.54 42.29 26.54 58.84 43.09 42.29 43.09 25.74 26.54 25.74"/></g></g></g></svg>