<?xml version="1.0" encoding="UTF-8"?><svg id="Layer_1" xmlns="http://www.w3.org/2000/svg" viewBox="0 0 180 80"><defs><style>.cls-1{fill:none;}.cls-2{fill:#ffd67f;}</style></defs><rect class="cls-1" width="180" height="80"/><g><path d="M85.76,32.24v4.66c0,.24-.24,.48-.6,.48h-.84c-4.54,0-7.41,2.63-7.41,7.88v11.94c0,.24-.24,.48-.48,.48h-5.02c-.24,0-.48-.24-.48-.48v-24.72c0-.24,.24-.48,.48-.48h4.66c.24,0,.48,.24,.48,.48v3.22c1.67-2.63,4.54-3.94,8.6-4.06,.36,0,.6,.24,.6,.6Z"/><path d="M113.11,22.56V57.08c0,.24-.24,.48-.48,.48h-4.78c-.24,0-.48-.24-.48-.48v-2.87c-2.03,2.39-5.02,3.58-8.48,3.58-7.41,0-12.9-5.14-12.9-13.14s5.49-13.02,12.9-13.02c3.34,0,6.21,1.07,8.24,3.46v-12.54c0-.24,.24-.48,.48-.48h5.02c.24,0,.48,.12,.48,.48Zm-5.85,22.22c0-4.9-3.34-8-7.64-8s-7.64,3.11-7.64,8,3.34,8,7.64,8c4.3-.12,7.64-3.22,7.64-8Z"/><path d="M118.49,32h5.02c.24,0,.48,.24,.48,.48v24.48c0,.24-.24,.48-.48,.48h-5.02c-.24,0-.48-.24-.48-.48v-24.48c0-.24,.24-.48,.48-.48Z"/><path d="M156.82,22.56v15.05c-.36,4.06-3.94,4.66-5.97,4.9-.12-7.29-4.3-10.63-11.59-10.63-3.94,0-7.76,.96-10.39,2.87-.24,.12-.24,.36-.12,.6l1.91,3.46c.12,.24,.48,.36,.72,.12,1.91-1.43,4.66-2.15,7.29-2.15,4.3,0,6.33,2.03,6.33,5.49v.36h-6.57c-7.76,0-10.63,3.34-10.63,7.64s3.7,7.64,9.55,7.64c3.82,0,6.57-1.19,8-3.46v2.63c0,.24,.24,.48,.48,.48h4.66c.24,0,.48-.24,.48-.48v-8.12c0-.12-.12-.24-.24-.24h-5.61c-.12,0-.24,.12-.24,.24v.6c-.96,2.63-3.58,3.94-6.45,3.94-3.11,0-4.9-1.43-4.9-3.58,0-1.91,1.07-3.34,5.14-3.34h12.18c9.55-.12,11.82-7.52,11.94-11.7-.24,7.41-2.87,10.99-5.61,12.54-.24,0-.36,.24-.36,.36v9.2c0,.24,.24,.48,.48,.48h5.02c.24,0,.48-.24,.48-.48v-22.1h0v-12.3c0-.24-.24-.48-.48-.48h-5.02c-.24,0-.48,.12-.48,.48Z"/><path d="M41.33,44.9c0-7.52,5.61-12.9,13.38-12.9s13.5,5.37,13.5,12.9-5.61,12.9-13.5,12.9c-7.64,0-13.38-5.37-13.38-12.9Zm20.9,0c0-4.78-3.22-7.88-7.52-7.88s-7.52,3.11-7.52,7.88,3.22,7.88,7.52,7.88,7.52-3.11,7.52-7.88Z"/><path class="cls-2" d="M117.65,24.59c0-1.79,1.43-3.11,3.34-3.11s3.34,1.31,3.34,2.99c0,1.79-1.43,3.22-3.34,3.22-1.91,.12-3.34-1.31-3.34-3.11Z"/><path d="M31.89,30.56c-4.18,0-7.88,1.43-10.63,3.94-2.63,2.51-4.06,6.09-4.06,10.03s1.43,7.52,4.18,10.03c2.63,2.51,6.45,3.94,10.63,3.94,3.58,0,6.69-1.07,9.08-3.11,.24-.12,.24-.48,.12-.6-.84-1.19-1.55-2.51-2.15-3.94-.12-.48-.72-.6-1.07-.24-1.55,1.79-3.58,2.63-6.09,2.63s-4.54-.84-6.09-2.27c-1.55-1.55-2.39-3.82-2.39-6.45s.84-4.78,2.39-6.33c1.55-1.55,3.7-2.39,6.09-2.39,2.75,0,5.02,1.19,6.57,3.34,.12,.12,.36,.12,.48,0,.6-1.67,1.43-3.11,2.51-4.42,.12-.24,.12-.48,0-.6-2.39-2.39-5.61-3.58-9.55-3.58Z"/></g><rect class="cls-1" width="180" height="80"/></svg>