<svg id="Layer_1" data-name="Layer 1" xmlns="http://www.w3.org/2000/svg" viewBox="0 0 180 80"><defs><style>.cls-1{fill:none;}.cls-2{fill:#c3c6cc;}.cls-3{fill:#e1e3e6;}.cls-4{fill:#262933;}</style></defs><rect class="cls-1" width="180" height="80"/><rect class="cls-1" width="180" height="80"/><path class="cls-2" d="M53.05,61.47l-9-9a1.51,1.51,0,0,0-2.14,0l-9,9A1.47,1.47,0,0,0,33.91,64H52a1.48,1.48,0,0,0,1.07-2.53Z"/><path class="cls-3" d="M53.35,29l-2.83-8.4a3,3,0,0,0-.6-1L5.84,63.66a1.37,1.37,0,0,0,1,.34H19.31a2.7,2.7,0,0,0,1.88-.77L52.75,31.67A2.54,2.54,0,0,0,53.35,29Z"/><path class="cls-2" d="M48.89,19l-8.4-2.83a2.54,2.54,0,0,0-2.66.6L6.27,48.31a2.66,2.66,0,0,0-.77,1.88V62.71a1.37,1.37,0,0,0,.34.95L49.92,19.58A3,3,0,0,0,48.89,19Z"/><path class="cls-4" d="M169.41,39.32a2.44,2.44,0,0,1-.33,1.4,2,2,0,0,1-.88.75,3.81,3.81,0,0,1-1.25.3c-.46,0-.93,0-1.39,0h-1.63v-5h1.79a11.2,11.2,0,0,1,1.3.07,3.61,3.61,0,0,1,1.2.31,2.15,2.15,0,0,1,.86.75,2.32,2.32,0,0,1,.33,1.33ZM170,52h4.49L172,48.37c-.42-.62-.85-1.22-1.28-1.79s-.79-1.06-1.08-1.43a3,3,0,0,0-.8-.87,4.78,4.78,0,0,0,4.42-5,5,5,0,0,0-1.86-4,5.17,5.17,0,0,0-2.11-1,14.1,14.1,0,0,0-3-.28h-6V52h3.69V44.51a1.87,1.87,0,0,1,1,.27,4,4,0,0,1,.73.63,13.73,13.73,0,0,1,.91,1.25c.37.54.91,1.36,1.62,2.44Zm-31.26,0h11.57V48.87h-7.81V44.08h5.85v-3h-5.89V37h7.05l.53-3h-11.3Zm-14.51,0,7-18h-3.89l-3.56,9.35c-.17.42-.32.86-.45,1.3s-.27.94-.38,1.38-.2.79-.26,1.08l-.1.43-.14-.43c-.06-.31-.15-.68-.26-1.12s-.24-.89-.39-1.38-.28-.92-.41-1.29L118.12,34H114l6.88,18ZM95,52h11.57V48.87H98.76V44.08h5.85v-3H98.72V37h7l.53-3H95ZM84.87,52l.7-3.06H78.26V34H74.5V52Z"/></svg>