<svg id="Layer_1" data-name="Layer 1" xmlns="http://www.w3.org/2000/svg" viewBox="0 0 180 80"><defs><style>.cls-1{fill:none;}.cls-2{fill:#0c0c0c;}.cls-3{fill:#dff200;}.cls-4{fill:#fff;}</style></defs><rect class="cls-1" width="180" height="80"/><g id="LOGOS"><path class="cls-2" d="M90,76.71h0A36.72,36.72,0,0,1,53.29,40h0A36.72,36.72,0,0,1,90,3.29h0A36.72,36.72,0,0,1,126.71,40h0A36.72,36.72,0,0,1,90,76.71Z"/><path class="cls-3" d="M103.54,35.81a3.5,3.5,0,1,0,3.5,3.5A3.5,3.5,0,0,0,103.54,35.81Z"/><path class="cls-4" d="M97.94,43.86,92.14,47a5.73,5.73,0,0,1,.06.84,5.61,5.61,0,1,1-1.41-3.72l5.39-2.9-7.24-11h-.17a3,3,0,1,1,3-3,3,3,0,0,1-.49,1.64l4.18,6.32a10.42,10.42,0,1,0-13.72-.3A13.78,13.78,0,1,0,97.12,56.72l2,3.07h9.32Z"/></g></svg>