<?xml version="1.0" encoding="UTF-8"?><svg id="Layer_1" xmlns="http://www.w3.org/2000/svg" viewBox="0 0 180 80"><defs><style>.cls-1{fill:none;}.cls-2{fill:#fff;}</style></defs><rect class="cls-1" width="180" height="80"/><polygon class="cls-2" points="26.55 42.59 14.65 42.59 14.65 55.12 9 55.12 9 24.2 14.65 24.2 14.65 37.15 26.55 37.15 26.55 24.2 32.19 24.2 32.19 55.12 26.55 55.12 26.55 42.59"/><path class="cls-2" d="M50.27,45.13c0,2.58-2.09,4.67-4.67,4.67-2.58,0-4.67-2.09-4.67-4.67v-13.24h-5.35v13.24c.38,5.53,5.18,9.71,10.71,9.33,5-.35,8.98-4.33,9.33-9.33v-13.24h-5.35v13.24Z"/><path class="cls-2" d="M89.95,33.25c0-2.71,1.8-3.57,3.77-3.57,1.58,0,3.68,1.21,5.05,2.67l3.51-4.13c-1.75-2.37-5.3-4.01-8.21-4.01-5.82,0-10.01,3.41-10.01,9.05,0,10.47,12.8,7.18,12.8,13.01,0,1.81-1.76,3.4-3.76,3.4-3.17,0-4.2-1.55-5.65-3.19l-3.89,4.05c2.48,3.06,5.56,4.61,9.24,4.61,5.52,0,9.97-3.45,9.97-8.83,0-11.63-12.8-8.01-12.8-13.05Z"/><path class="cls-2" d="M169.12,50.18c-3.17,0-4.07-1.37-4.07-3.46v-9.28h4.92v-4.71h-4.92v-6.22l-5.43,2.44v18.92c0,4.84,3.35,7.28,7.91,7.28.72.01,1.44-.04,2.14-.17l1.33-4.88c-.6.04-1.28.08-1.88.08Z"/><path class="cls-2" d="M70.66,32.04c-2.36-.1-4.65.82-6.29,2.53v-10.18h-5.37v18.86c0,7.06,5.12,11.9,10.86,11.9,6.38,0,11.96-4.92,11.96-11.55s-5.17-11.55-11.16-11.55ZM70.62,49.74c-3.36,0-6.08-2.73-6.08-6.09,0-3.36,2.73-6.08,6.09-6.08,3.36,0,6.08,2.73,6.08,6.09,0,3.36-2.72,6.08-6.08,6.08,0,0,0,0,0,0h0Z"/><path class="cls-2" d="M128.91,43.32c0-6.63-5.59-11.55-11.96-11.55-5.74,0-10.84,4.84-10.84,11.9v18.85h5.36v-10.17c1.64,1.7,3.94,2.62,6.3,2.51,5.99,0,11.14-4.99,11.14-11.54ZM123.82,43.25c0,3.36-2.73,6.09-6.09,6.08-3.36,0-6.09-2.73-6.08-6.09,0-3.36,2.73-6.09,6.09-6.08h0c3.36,0,6.08,2.72,6.08,6.08,0,0,0,0,0,0h0Z"/><path class="cls-2" d="M145.77,32.33v-5.39c1.45-.68,2.38-2.14,2.39-3.74v-.12c0-2.29-1.86-4.14-4.14-4.15h-.12c-2.29,0-4.14,1.86-4.15,4.15v.12c0,1.6.94,3.06,2.39,3.74v5.39c-2.05.32-3.98,1.16-5.59,2.46l-14.8-11.51c.11-.38.16-.77.17-1.17.04-2.61-2.05-4.76-4.66-4.8-2.61-.04-4.76,2.05-4.8,4.66-.04,2.61,2.05,4.76,4.66,4.8.84.01,1.68-.2,2.41-.62l14.58,11.35c-2.68,4.04-2.61,9.32.18,13.29l-4.42,4.41c-.36-.11-.73-.17-1.1-.18-2.11,0-3.83,1.71-3.83,3.83s1.71,3.83,3.83,3.83,3.83-1.71,3.83-3.83c0-.37-.06-.74-.18-1.1l4.42-4.37c5.18,3.97,12.59,2.99,16.56-2.19,3.97-5.18,2.99-12.59-2.19-16.56-1.58-1.21-3.44-2-5.4-2.3h-.02ZM143.95,50.06c-3.35,0-6.06-2.71-6.06-6.06s2.71-6.06,6.06-6.06,6.06,2.71,6.06,6.06-2.71,6.06-6.06,6.06h0Z"/></svg>