<?xml version="1.0" encoding="UTF-8"?><svg id="Layer_1" xmlns="http://www.w3.org/2000/svg" viewBox="0 0 180 80"><defs><style>.cls-1{fill:none;}.cls-2{fill:#333;}.cls-3{fill:#0dbdff;}</style></defs><rect class="cls-1" width="180" height="80"/><rect class="cls-1" width="180" height="80"/><g><path class="cls-3" d="M42.18,39.7c0-7.95-6.36-14.52-14.52-14.52-5.37,0-9.94,2.98-12.53,7.36l7.16,7.16c0-3.18,2.59-5.57,5.57-5.57,3.18,0,5.57,2.59,5.57,5.57s-2.39,5.57-5.57,5.57H15.93c-2.98,0-5.37,2.39-5.37,5.37v3.58H28.06c7.76-.2,14.12-6.56,14.12-14.52"/><path class="cls-2" d="M108.2,37.91h6.76c2.59,0,3.98-1.19,3.98-3.58s-1.39-3.58-3.98-3.58h-6.76v7.16Zm3.78,5.57h-3.98v10.54h-5.97V28.37c0-1.79,1.39-3.18,3.18-3.18h9.74c6.16,0,10.14,3.78,10.14,9.15,0,4.37-2.39,7.56-6.76,8.75l7.56,10.94h-7.16l-6.76-10.54Zm57.47,9.94c-1.19,.8-2.59,1.39-4.18,1.39-4.18,0-6.16-2.78-6.16-6.96V26.78l5.77-1.39v22.47c0,1.19,.6,1.79,1.59,1.79,.4,0,.6,0,.99-.2l1.99,3.98Zm-9.94,0c-1.19,.8-2.59,1.39-4.18,1.39-4.18,0-6.16-2.78-6.16-6.96V29.16l5.77-1.39v20.08c0,1.19,.6,1.79,1.59,1.79,.4,0,.6,0,.99-.2l1.99,3.98Zm-18.1-9.74c0-3.38-2.19-5.77-5.37-5.77s-5.37,2.19-5.37,5.77,2.19,5.77,5.37,5.77,5.37-2.39,5.37-5.77m-16.51,0c0-6.36,4.77-10.94,11.14-10.94s11.33,4.37,11.33,10.94-4.77,10.94-11.33,10.94-11.14-4.57-11.14-10.94m-66.02-1.19l4.18-11.14,4.18,11.14h-8.35Zm-.2-15.31l-10.54,26.85h6.36l2.19-5.97h12.53l2.19,5.97h6.56l-11.33-28.83h-4.77c-1.39,0-2.59,.8-3.18,1.99m29.63,22.07c-3.18,0-5.37-2.19-5.37-5.77s2.19-5.77,5.37-5.77,5.37,2.19,5.37,5.77-2.19,5.77-5.37,5.77m4.97-13.92c-1.39-1.59-3.58-2.59-6.16-2.59-5.57,0-10.14,4.37-10.14,10.94s4.37,10.94,9.94,10.94c2.98,0,5.17-1.19,6.56-3.38l.2,2.78h5.17V25.19h-2.39c-1.79,0-3.18,1.39-3.18,3.18v6.96Z"/></g></svg>