<?xml version="1.0" encoding="UTF-8"?><svg id="Layer_1" xmlns="http://www.w3.org/2000/svg" viewBox="0 0 180 80"><defs><style>.cls-1{fill:none;}.cls-2,.cls-3{fill:#3c323e;}.cls-3{fill-rule:evenodd;}</style></defs><rect class="cls-1" width="180" height="80"/><path class="cls-3" d="M9,33.4c0-3.82,1.5-5.8,4.04-5.8s4.04,1.98,4.04,5.8v11.57c0,3.82-1.5,5.8-4.04,5.8s-4.04-1.98-4.04-5.8v-11.57ZM36.21,27.61h-8.35c-7.49,0-8.08,3.23-8.08,7.55v8.05c0,4.5.55,7.56,8.11,7.56h8.32c7.51,0,8.07-3.22,8.07-7.54v-8.06c0-4.32-.58-7.56-8.07-7.56Z"/><path class="cls-2" d="M130.04,44.99c-2.41,0-3.64-1.98-3.64-4.42s1.21-4.31,3.64-4.31,3.64,1.96,3.64,4.31c-.02,2.48-1.26,4.42-3.64,4.42ZM106.48,36.26c1.41,0,2,.82,2,1.53,0,1.72-1.76,2.48-5.42,2.59,0-2.13,1.21-4.12,3.43-4.12ZM90.86,44.99c-2.28,0-3.23-1.85-3.23-4.42s.98-4.31,3.23-4.31,3.38,1.83,3.38,4.31-1.13,4.42-3.38,4.42ZM71.6,33.74h-3.56l5.9,13.53c-1.13,2.5-1.74,3.12-2.52,3.12-.82,0-1.61-.67-2.17-1.25l-1.56,2.07c1.06,1.12,2.52,1.77,4.01,1.77,1.87,0,3.3-1.08,4.12-3.02l6.81-16.25h-3.49l-3.56,9.7-3.99-9.68ZM165.84,36.26c1.74,0,2.08,1.19,2.08,3.97v7.31h3.08v-9.22c0-3.32-2.28-4.76-4.38-4.76-1.87,0-3.58,1.16-4.53,3.32-.54-2.07-2.28-3.32-4.3-3.32-1.76,0-3.51,1.12-4.47,3.21v-3.02h-3.08v13.77h3.08v-5.88c0-2.97,1.56-5.37,3.69-5.37,1.74,0,2.06,1.19,2.06,3.97v7.31h3.08l-.02-5.9c0-2.97,1.58-5.37,3.71-5.37ZM141.16,33.74h-1.46v13.77h3.08v-5.28c0-3.34,1.48-5.6,3.67-5.6.56,0,1.04.02,1.56.24l.48-3.25c-.39-.04-.74-.09-1.08-.09-2.17,0-3.73,1.49-4.64,3.4v-3.19h-1.6ZM130.04,33.52c-4.08,0-6.83,3.1-6.83,7.03s2.8,7.11,6.83,7.11,6.9-3.12,6.9-7.11c-.02-3.94-2.86-7.03-6.9-7.03ZM106.66,44.99c-1.61,0-2.8-.82-3.3-2.48,4.08-.17,8.07-1.16,8.07-4.76,0-2.07-2.04-4.2-4.97-4.2-3.95,0-6.62,3.21-6.62,7.03s2.62,7.11,6.55,7.11c2.73,0,4.47-1.1,5.84-2.69l-1.5-2.03c-1.58,1.62-2.56,2.03-4.08,2.03ZM91.47,33.52c-1.56,0-3.12.91-3.73,2.33v-2.11h-3.08v19.18h3.08v-6.85c.65.99,2.15,1.64,3.47,1.64,4.1,0,6.27-3.04,6.27-7.13-.02-4.05-2.15-7.05-6.01-7.05ZM69.86,28.22h-14.53v3h5.68v16.29h3.23v-16.29h5.62v-3ZM115.66,33.74h-1.84v2.76h1.84v11.01h3.08v-11.01h2.99v-2.76h-2.99v-2.15c0-1.38.56-1.85,1.84-1.85.48,0,.91.13,1.5.32l.69-2.59c-.56-.32-1.69-.45-2.43-.45-2.95,0-4.69,1.77-4.69,4.83v1.9Z"/></svg>