<svg id="Layer_1" data-name="Layer 1" xmlns="http://www.w3.org/2000/svg" viewBox="0 0 180 80"><defs><style>.cls-1{fill:none;}.cls-2{fill:#05cc79;}</style></defs><rect class="cls-1" width="180" height="80"/><path class="cls-2" d="M44,27a11.8,11.8,0,0,0-8.74,3.48c-2.65,2.69-3.93,6.58-3.93,11a15,15,0,0,0,4.22,11,11.86,11.86,0,0,0,8.65,3.36,11.82,11.82,0,0,0,9.24-3.85,11.37,11.37,0,0,0,2.32-5H49.55a5.3,5.3,0,0,1-1.33,2.32c-.95.95-2.15,1.32-4.06,1.32A6,6,0,0,1,40,48.9a7.33,7.33,0,0,1-2-5.21V43.4H56.42c0-.63,0-1.79,0-1.79v-.86a14.77,14.77,0,0,0-2.4-8.7A11.77,11.77,0,0,0,44,27ZM37.83,38.72v-.09a6.79,6.79,0,0,1,1.45-4.34A5.68,5.68,0,0,1,44,32.13a5.67,5.67,0,0,1,4.22,1.62,7,7,0,0,1,1.7,4.84v.08H37.83Z"/><path class="cls-2" d="M18.37,27c-3.15,0-6.42,1.32-8,4.22l-.12.21V27.7H4.29V55.11h6.5V43.23c0-2.19,0-4.72.91-6.67S14.18,33,16.54,33a4.29,4.29,0,0,1,3.65,1.41,6.29,6.29,0,0,1,1,3.85V55.11h6.5V36.81C27.64,31.1,24.21,27,18.37,27Z"/><path class="cls-2" d="M77.25,42.19c0,2.24-.42,4.72-2,6.26a4.56,4.56,0,0,1-3.44,1.4,4.42,4.42,0,0,1-3.73-1.44A5.88,5.88,0,0,1,67,44.51V27.7h-6.5V46c0,5.84,3.6,9.78,9.48,9.78,3.48,0,6.67-1.54,8-4.23v5.72l5.84-4.64V27.7h-6.5Z"/><path class="cls-2" d="M173.68,27.33c-3.23,0-6.58,1.28-7.86,4.43V27.7h-6V55.11h6.54V41.28a8.5,8.5,0,0,1,1.82-5.59,6.74,6.74,0,0,1,5.35-2.23,9.62,9.62,0,0,1,2.19.25V27.5A10.22,10.22,0,0,0,173.68,27.33Z"/><path class="cls-2" d="M122,48.82a3.05,3.05,0,0,1-.75-2.36V35.82h7v-5.3h-7V22.73l-6.5,5.18V47.08c0,5.26,2.73,8.41,8.24,8.41a20.77,20.77,0,0,0,5.59-.75V49.32a33.71,33.71,0,0,1-4.22.24A3.15,3.15,0,0,1,122,48.82Z"/><path class="cls-2" d="M103.83,39c-.58-.08-1.08-.16-1.53-.24a1.21,1.21,0,0,0-.42,0c-.08,0-.2,0-.29,0s-.16,0-.24,0L99.65,40l1.7-1.37c-1-.12-1.87-.25-3.4-.41s-3.23-.83-3.23-2.86A2.7,2.7,0,0,1,96.42,33a6.85,6.85,0,0,1,3.31-.66h0a7.4,7.4,0,0,1,5.8,2.57l.16.2,4.56-3.6a1,1,0,0,0-.17-.21s0-.08-.08-.12l0,0a3,3,0,0,0-.46-.54c-.12-.16-.29-.29-.41-.45-2.32-2.2-5.72-3.07-9-3.07a14.61,14.61,0,0,0-7.82,2.07,7.68,7.68,0,0,0-3.4,4.6,7.45,7.45,0,0,0-.21,1.65v.79a5,5,0,0,0,.09,1,7.7,7.7,0,0,0,6.17,6.13c.16,0,.37.08.53.13h0c.09,0,.21,0,.29,0a.31.31,0,0,1,.17,0c2.15.37,4.51.54,6.62.87,1.58.25,2.82,1.12,2.82,2.52A2.71,2.71,0,0,1,104,49.15a6.81,6.81,0,0,1-2.19,1,9.48,9.48,0,0,1-2.36.21A11.94,11.94,0,0,1,96.67,50a11.2,11.2,0,0,1-5.14-3.48l-4.59,3.69a14.36,14.36,0,0,0,3.89,3.39,17.25,17.25,0,0,0,16.48.29,7.56,7.56,0,0,0,4-6.54c0-.21,0-.37,0-.58C111.28,42.36,108.14,39.67,103.83,39Z"/><path class="cls-2" d="M144.08,27c-6.09,0-11,2.73-11.39,8.82h6.38c.2-2.49,2-3.81,5-3.81,3.72,0,4.63,1.74,4.63,4.3V38l-8.07.58c-5.22.37-9.27,3.4-9.27,8.61a11.52,11.52,0,0,0,.08,1.21c.54,4,3.89,7.37,9.81,7.37h.42c3.47-.25,6.08-2.07,7-4.1v3.43h6.42v-17a15.5,15.5,0,0,0-.79-5.55C152.77,28.49,148.76,27,144.08,27Zm4.63,17.18c0,4.06-2.89,6.25-7,6.25-2.07,0-3.9-1.32-3.9-3.43s2-3.44,3.94-3.6l7-.54Z"/><path class="cls-2" d="M173.1,49.81a2.65,2.65,0,1,0,2.61,2.65A2.58,2.58,0,0,0,173.1,49.81Zm0,4.85a2.2,2.2,0,1,1,2.11-2.2A2,2,0,0,1,173.1,54.66Z"/><path class="cls-2" d="M174.18,51.88a.88.88,0,0,0-1-.87h-1v2.78h.5v-1h.54l.45,1h.54l-.5-1.12A.77.77,0,0,0,174.18,51.88Zm-1,.46h-.54v-.87h.54c.24,0,.49.12.49.41A.44.44,0,0,1,173.19,52.34Z"/></svg>