<?xml version="1.0" encoding="UTF-8"?><svg id="Layer_1" xmlns="http://www.w3.org/2000/svg" viewBox="0 0 180 80"><defs><style>.cls-1{fill:none;}.cls-2{fill:#232426;}</style></defs><rect class="cls-1" width="180" height="80"/><rect class="cls-1" width="180" height="80"/><g><path class="cls-2" d="M98.7,22.35c0-.86,.33-1.69,.93-2.3,.6-.62,1.41-.98,2.27-1,.87,.01,1.71,.36,2.32,.98s.97,1.45,.98,2.32c-.02,.86-.38,1.68-1,2.28-.62,.6-1.45,.93-2.31,.92-.85,0-1.66-.35-2.25-.95-.6-.6-.94-1.41-.95-2.25h0Zm25.61,6.96c1.57,0,2.57,.87,2.57,2.77-.18,1.85-.63,3.67-1.36,5.38-1.26,3.4-2.57,7.28-3.98,11.69-.63-2.13-1.84-5.49-3.35-9.41l-1.31-3.59c-.61-1.45-.98-2.99-1.11-4.56-.04-.29-.02-.58,.06-.86,.08-.28,.22-.54,.41-.76,.19-.22,.42-.4,.68-.53s.55-.19,.84-.2v-.64h-10.98v.64c1.5,.14,2.71,1.57,4.31,5.82l6.99,18.48c.46,1.05,.67,2.19,.62,3.33-.05,1.14-.36,2.26-.91,3.26-.78,1.75-1.94,2.62-3.3,2.62-1.69,0-2.57-.73-2.57-2.23,0-.59,1.12-1.75,1.12-2.86,0-1.57-1.22-2.28-2.57-2.28-.43-.01-.86,.06-1.26,.22-.4,.16-.76,.41-1.05,.72-.3,.31-.52,.68-.67,1.09-.14,.41-.2,.84-.16,1.27,.06,1.48,.71,2.88,1.8,3.89s2.53,1.54,4.02,1.49c.72,.02,1.44-.09,2.12-.35s1.3-.64,1.82-1.13c.58-.43,1.31-1.94,1.7-2.67,.29-.58,.54-1.18,.73-1.8,.34-.82,.53-1.5,.67-1.94,.14-.44,.44-1.17,.78-2.28l.78-2.47c2.09-6.5,4.08-12.18,5.97-16.98,1.11-2.77,2.57-4.41,3.3-4.75,.39-.21,.82-.36,1.25-.44v-.64h-7.98v.68ZM47.73,52.26c-1.41-.24-2.62-1.51-2.62-4.17V15.94l-8,1.73v.68c1.36-.15,2.72,1.07,2.72,3.64v26.1c0,2.53-1.36,3.98-2.72,4.17l-.38,.05c-.69,.05-1.39-.07-2.02-.36-1.15-.53-2.11-1.41-2.74-2.52l-3.71-5.96c-.78-1.25-1.94-2.21-3.32-2.74-1.37-.53-2.88-.6-4.3-.21l4.17-4.61c3.14-3.49,6.07-5.72,8.83-6.64v-.64h-9.15v.64c2.35,.92,2.23,2.96-.49,6.16l-5.87,6.85V15.93l-8.01,1.74v.68c1.36,0,2.72,1.36,2.72,3.73v26c0,2.86-1.31,3.98-2.72,4.17v.63h10.63v-.63c-1.75-.24-2.62-1.57-2.62-4.17v-4.8l2.28-2.49,5.53,9.07c1.31,2.18,2.52,3.05,4.46,3.05h18.46v-.49s-.53-.07-1.14-.17Zm24.62,.07v.64s-5.44,1.95-7.09-1.36c-.44-.88-.68-1.84-.71-2.82-.75,1.45-1.88,2.66-3.28,3.5-1.4,.84-3,1.27-4.63,1.26-3.92,0-6.74-1.84-6.74-5.87,0-1.02,.3-2.02,.88-2.86,1.16-1.74,2.52-2.67,5.04-3.64,1.26-.48,2.35-.82,3.14-1.07,.78-.24,1.89-.49,3.14-.72l2.45-.59v-2.91c0-4.85-2.09-7.06-5-7.06-2.28,0-3.59,1.51-3.59,3.25,0,.96,.68,2.35,.68,3.4,0,1.36-1.22,2.35-2.91,2.35s-2.52-1.31-2.52-3.06,.87-3.35,2.67-4.71c1.71-1.32,3.8-2.04,5.96-2.04,6.81,0,9.79,3.23,9.9,10.33v10.83c.02,.7,.22,3.54,2.6,3.15h0Zm-7.79-12.81c-.29,.15-.96,.39-2.09,.78l-2.23,.82c-.56,.27-.97,.49-1.8,.93-.63,.3-1.21,.71-1.7,1.22-.82,.93-1.3,2.1-1.36,3.34,0,2.86,1.57,4.42,3.92,4.42,1.29-.04,2.53-.54,3.5-1.4,.56-.46,1.02-1.03,1.32-1.69,.3-.66,.45-1.38,.43-2.1v-6.3Zm89.83,1.29c.02,1.67-.29,3.33-.91,4.89s-1.55,2.96-2.73,4.16c-1.11,1.18-2.46,2.12-3.95,2.76-1.49,.64-3.1,.97-4.72,.97s-3.23-.33-4.72-.97c-1.49-.64-2.84-1.58-3.95-2.76-2.35-2.42-3.64-5.67-3.6-9.04-.02-1.66,.28-3.31,.9-4.85,.62-1.54,1.54-2.95,2.7-4.13,1.11-1.19,2.45-2.15,3.94-2.8,1.49-.65,3.1-.99,4.73-.99s3.24,.34,4.73,.99c1.49,.65,2.83,1.6,3.94,2.8,1.18,1.18,2.11,2.58,2.73,4.12,.63,1.54,.93,3.2,.91,4.86h0Zm-7.93-8.63c-.96-1.88-2.23-2.98-3.7-3.28-3-.6-5.65,2.48-6.64,7.39-.43,2.2-.53,4.45-.31,6.68,.21,2.25,.83,4.44,1.83,6.46,.96,1.87,2.23,2.97,3.71,3.27,3,.6,5.72-2.61,6.72-7.57,.84-4.18,.4-9.22-1.61-12.95h0Zm-41.74,15.91V28.63h-17.07v.59c2.28,.34,3.36,2.05,2.35,4.85-5.36,14.51-5.05,13.86-5.36,15.02-.34-1.11-1.11-3.86-2.35-7.3-1.24-3.44-2.09-5.72-2.42-6.74-1.31-4.02-.87-5.49,1.26-5.77v-.64h-11.07v.64c1.65,.34,3.14,2.23,4.32,5.62l1.69,4.41c1.87,4.77,4.06,11.35,4.79,13.58h3.68c1.18-3.44,5.94-17.25,6.57-18.62,.53-1.36,1.33-2.6,2.35-3.64,.89-.85,2.06-1.34,3.29-1.37,.35-.03,.7,.02,1.03,.14,.33,.12,.63,.31,.88,.55,.25,.24,.45,.54,.58,.86,.13,.32,.19,.67,.18,1.02v16.26c0,2.71-1.31,3.98-2.67,4.17v.63h10.58v-.63c-1.44-.2-2.6-1.46-2.6-4.17Z"/><path class="cls-2" d="M171.43,15.93h-18.55v12.7h18.55l-3.66-6.35,3.66-6.35Z"/><path class="cls-2" d="M172.45,27.74v.89h-.09v-.89h-.37v-.09h.78v.09h-.32Z"/><path class="cls-2" d="M173.37,28.63l-.34-.85v.85h-.09v-.98h.13l.34,.85,.34-.85h.13v.98h-.09v-.85l-.33,.85h-.08Z"/></g></svg>