<?xml version="1.0" encoding="UTF-8"?><svg id="Layer_1" xmlns="http://www.w3.org/2000/svg" xmlns:xlink="http://www.w3.org/1999/xlink" viewBox="0 0 180 80"><defs><style>.cls-1{fill:none;}.cls-2{fill:url(#linear-gradient);}.cls-3{fill:#fff;}</style><linearGradient id="linear-gradient" x1="1538.28" y1="2429.17" x2="1538.28" y2="2559.92" gradientTransform="translate(-2761.63 716.18) rotate(45) scale(1 -1)" gradientUnits="userSpaceOnUse"><stop offset="0" stop-color="#2e27ad"/><stop offset="1" stop-color="#527fff"/></linearGradient></defs><rect class="cls-1" width="180" height="80"/><rect class="cls-1" width="180" height="80"/><g id="Reference"><rect id="Blue_Gradient" class="cls-2" x="57.31" y="7.31" width="65.37" height="65.37"/><g id="Icon_Test"><path class="cls-3" d="M104.99,32.85c-.18-2.75-1.58-4.79-3.8-5.52-1.7-.56-3.57-.23-4.98,.87-.63-1.44-1.52-2.74-2.61-3.86-3.32-3.49-8.48-4.52-12.89-2.56-4.11,1.96-6.76,6.09-6.83,10.64v.64c-3.53,1.04-5.89,4.36-5.71,8.04-.07,3.16,1.54,6.13,4.24,7.78,.83,.48,1.78,.7,2.74,.64l7.84,.07v8.72c0,.33,.19,.63,.48,.78,.28,.13,.61,.11,.87-.07l12.93-9.42h6.75c.08,0,7.78-.67,7.78-8.42,0-5.92-4.56-7.77-6.8-8.32Zm-1.05,14.99h-6.97c-.18,0-.36,.06-.51,.17l-11.69,8.58v-7.84c0-.48-.39-.87-.87-.87h-8.72c-.63,.03-1.26-.12-1.8-.44-2.2-1.33-3.51-3.74-3.43-6.31-.17-3.15,2-5.94,5.09-6.55,.4-.1,.67-.46,.65-.87l-.08-1.32c.1-3.82,2.32-7.27,5.75-8.96,1.26-.56,2.63-.85,4.01-.87,2.63,.06,5.14,1.16,6.97,3.05,1.23,1.27,2.16,2.8,2.72,4.47,.11,.31,.38,.53,.7,.58,.32,.05,.64-.08,.83-.34,.92-1.27,2.55-1.81,4.04-1.32,1.66,.55,2.61,2.18,2.61,4.44-.07,.47,.24,.91,.71,.99,1.83,.31,6.1,1.6,6.1,6.75-.02,6.14-5.94,6.68-6.12,6.69Z"/><path class="cls-3" d="M99.15,33.03c-1.68,0-3.05,1.37-3.05,3.05-.01,.57,.14,1.13,.44,1.61l-3.08,3.49c.55,.25,1.02,.66,1.33,1.18l3.09-3.49c.4,.18,.83,.27,1.26,.26,1.68,0,3.05-1.37,3.05-3.05s-1.37-3.05-3.05-3.05Zm0,4.36c-.72,0-1.31-.59-1.31-1.31s.59-1.31,1.31-1.31,1.31,.59,1.31,1.31-.59,1.31-1.31,1.31Z"/><path class="cls-3" d="M94.79,42.35c-.3-.51-.75-.92-1.29-1.18-.41-.2-.87-.31-1.32-.31-.3,0-.59,.04-.87,.12l-3.02-4.61c.53-.55,.84-1.28,.85-2.05,0-1.68-1.37-3.05-3.05-3.05s-3.05,1.37-3.05,3.05c.01,.52,.16,1.04,.44,1.48l-3.72,3.69c-1.46-.83-3.33-.32-4.16,1.14-.83,1.46-.32,3.33,1.14,4.16,1.46,.83,3.33,.32,4.16-1.14,.26-.45,.39-.96,.4-1.48,0-.5-.12-1-.37-1.44l3.74-3.71c.66,.36,1.44,.45,2.17,.26l3.05,4.65c-.48,.55-.75,1.26-.75,1.99,0,1.68,1.37,3.05,3.05,3.05s3.05-1.37,3.05-3.05c0-.55-.15-1.1-.44-1.57Zm-16.56,1.13c-.72,0-1.31-.59-1.31-1.31s.59-1.31,1.31-1.31,1.31,.59,1.31,1.31-.59,1.31-1.31,1.31Zm7.84-7.84c-.72,0-1.31-.59-1.31-1.31s.59-1.31,1.31-1.31,1.31,.59,1.31,1.31-.59,1.31-1.31,1.31Zm6.1,9.59c-.72,0-1.31-.59-1.31-1.31s.59-1.31,1.31-1.31,1.31,.59,1.31,1.31-.59,1.31-1.31,1.31Z"/></g></g></svg>