<?xml version="1.0" encoding="UTF-8"?><svg id="Layer_1" xmlns="http://www.w3.org/2000/svg" xmlns:xlink="http://www.w3.org/1999/xlink" viewBox="0 0 180 80"><defs><style>.cls-1{mask:url(#mask-10);}.cls-2{fill:none;}.cls-2,.cls-3,.cls-4{stroke-width:0px;}.cls-5{mask:url(#mask);}.cls-6{mask:url(#mask-2-2);}.cls-7{mask:url(#mask-4-4);}.cls-3{fill:#fff;}.cls-3,.cls-4{fill-rule:evenodd;}.cls-4{fill:#fffefe;}.cls-8{mask:url(#mask-3);}.cls-9{mask:url(#mask-5);}.cls-10{mask:url(#mask-1);}.cls-11{mask:url(#mask-7);}.cls-12{mask:url(#mask-6);}.cls-13{mask:url(#mask-8);}.cls-14{mask:url(#mask-9);}</style><mask id="mask" x="110.22" y="68.28" width="8.05" height="8.03" maskUnits="userSpaceOnUse"><g id="mask-2"><polygon id="path-1" class="cls-3" points="110.22 68.28 118.27 68.28 118.27 76.31 110.22 76.31 110.22 68.28"/></g></mask><mask id="mask-1" x="51.93" y="4.46" width="88.3" height="71.85" maskUnits="userSpaceOnUse"><g id="mask-4"><polygon id="path-3" class="cls-3" points="51.93 76.31 140.24 76.31 140.24 4.46 51.93 4.46 51.93 76.31"/></g></mask><mask id="mask-2-2" x="51.93" y="4.46" width="88.3" height="71.85" maskUnits="userSpaceOnUse"><g id="mask-4-2"><polygon id="path-3-2" class="cls-3" points="51.93 76.31 140.24 76.31 140.24 4.46 51.93 4.46 51.93 76.31"/></g></mask><mask id="mask-3" x="51.93" y="4.46" width="88.3" height="71.85" maskUnits="userSpaceOnUse"><g id="mask-4-3"><polygon id="path-3-3" class="cls-3" points="51.93 76.31 140.24 76.31 140.24 4.46 51.93 4.46 51.93 76.31"/></g></mask><mask id="mask-4-4" x="51.93" y="4.46" width="88.3" height="71.85" maskUnits="userSpaceOnUse"><g id="mask-4-5"><polygon id="path-3-4" class="cls-3" points="51.93 76.31 140.24 76.31 140.24 4.46 51.93 4.46 51.93 76.31"/></g></mask><mask id="mask-5" x="51.93" y="4.46" width="88.3" height="71.85" maskUnits="userSpaceOnUse"><g id="mask-4-6"><polygon id="path-3-5" class="cls-3" points="51.93 76.31 140.24 76.31 140.24 4.46 51.93 4.46 51.93 76.31"/></g></mask><mask id="mask-6" x="51.93" y="4.46" width="88.3" height="71.85" maskUnits="userSpaceOnUse"><g id="mask-4-7"><polygon id="path-3-6" class="cls-3" points="51.93 76.31 140.24 76.31 140.24 4.46 51.93 4.46 51.93 76.31"/></g></mask><mask id="mask-7" x="51.93" y="4.46" width="88.3" height="71.85" maskUnits="userSpaceOnUse"><g id="mask-4-8"><polygon id="path-3-7" class="cls-3" points="51.93 76.31 140.24 76.31 140.24 4.46 51.93 4.46 51.93 76.31"/></g></mask><mask id="mask-8" x="51.93" y="4.46" width="88.3" height="71.85" maskUnits="userSpaceOnUse"><g id="mask-4-9"><polygon id="path-3-8" class="cls-3" points="51.93 76.31 140.24 76.31 140.24 4.46 51.93 4.46 51.93 76.31"/></g></mask><mask id="mask-9" x="51.93" y="4.46" width="88.3" height="71.85" maskUnits="userSpaceOnUse"><g id="mask-4-10"><polygon id="path-3-9" class="cls-3" points="51.93 76.31 140.24 76.31 140.24 4.46 51.93 4.46 51.93 76.31"/></g></mask><mask id="mask-10" x="51.93" y="4.46" width="88.3" height="71.85" maskUnits="userSpaceOnUse"><g id="mask-4-11"><polygon id="path-3-10" class="cls-3" points="51.93 76.31 140.24 76.31 140.24 4.46 51.93 4.46 51.93 76.31"/></g></mask></defs><rect class="cls-2" width="180" height="80"/><g id="FINAL"><g id="footer-desktop"><g id="NAV"><g id="footer-logo"><path id="Fill-1" class="cls-4" d="m106.21,31.53c0-14.95-12.15-27.06-27.14-27.06s-27.14,12.12-27.14,27.06v27.06h27.14c14.99,0,27.14-12.12,27.14-27.06m-15.51-4.19c1.85,0,3.35,1.5,3.35,3.34s-1.5,3.34-3.35,3.34-3.35-1.5-3.35-3.34,1.5-3.34,3.35-3.34m0,8.95c1.85,0,3.35,1.5,3.35,3.34s-1.5,3.34-3.35,3.34-3.35-1.5-3.35-3.34,1.5-3.34,3.35-3.34m-25.81-1.16h0v-14.72h5.91v14.71h0c0,2.29,1.85,4.13,4.13,4.13s4.13-1.85,4.13-4.12-1.85-4.12-4.13-4.12h-1.77v-5.89h1.77c5.55,0,10.04,4.48,10.04,10.01s-4.49,10.01-10.04,10.01-10.04-4.48-10.04-10.01"/><polygon id="Fill-3" class="cls-4" points="106.21 73.82 104.36 68.5 102.21 68.5 105.09 76.1 107.33 76.1 110.22 68.5 108.06 68.5 106.21 73.82"/><g id="Group-7"><g class="cls-5"><path id="Fill-5" class="cls-4" d="m114.24,68.28c-1.13,0-2.08.39-2.85,1.16-.78.78-1.16,1.73-1.16,2.85s.39,2.08,1.16,2.85c.78.78,1.73,1.16,2.85,1.16s2.08-.39,2.86-1.16c.78-.78,1.17-1.73,1.17-2.85s-.39-2.08-1.17-2.85c-.78-.78-1.73-1.16-2.86-1.16m1.48,5.52c-.4.4-.89.59-1.48.59s-1.08-.2-1.47-.59c-.39-.4-.59-.9-.59-1.51s.2-1.11.59-1.51c.39-.4.88-.59,1.47-.59s1.08.2,1.48.59c.4.4.59.9.59,1.51s-.2,1.11-.59,1.51"/></g></g><g class="cls-10"><polygon id="Fill-8" class="cls-4" points="119.31 76.1 121.27 76.1 121.27 68.5 119.31 68.5 119.31 76.1"/></g><g class="cls-6"><path id="Fill-10" class="cls-4" d="m127.56,74.1c-.31.18-.66.27-1.06.27-.59,0-1.07-.19-1.46-.59-.39-.39-.58-.88-.58-1.48s.19-1.11.58-1.5c.39-.39.87-.59,1.46-.59.39,0,.73.09,1.04.27.31.18.54.43.69.75l1.69-.99c-.31-.6-.78-1.07-1.38-1.43-.61-.36-1.28-.53-2.02-.53-1.15,0-2.1.39-2.87,1.16-.77.77-1.15,1.72-1.15,2.86s.38,2.09,1.15,2.86c.77.77,1.72,1.16,2.87,1.16.74,0,1.41-.18,2.02-.54.61-.36,1.08-.84,1.41-1.44l-1.7-.97c-.15.31-.38.56-.69.74"/></g><g class="cls-8"><path id="Fill-11" class="cls-4" d="m134.66,68.28c-1.18,0-2.14.38-2.89,1.15-.75.77-1.13,1.72-1.13,2.87s.38,2.11,1.14,2.87c.76.76,1.77,1.14,3.03,1.14,1.46,0,2.57-.54,3.32-1.63l-1.58-.91c-.39.51-.95.76-1.7.76-1.17,0-1.88-.48-2.14-1.43h5.73c.05-.28.08-.55.08-.81,0-1.14-.36-2.09-1.09-2.86-.73-.77-1.65-1.16-2.76-1.16h0Zm-1.99,3.3c.11-.49.34-.86.68-1.13.34-.27.78-.4,1.31-.4.45,0,.84.13,1.19.38.35.25.58.64.69,1.16h-3.88Z"/></g><g class="cls-7"><path id="Fill-12" class="cls-4" d="m56.36,68.26c-1.06,0-1.89.37-2.46,1.11v-3.94h-1.96v10.65h1.96v-.9c.58.74,1.4,1.11,2.46,1.11s1.9-.39,2.62-1.16c.72-.78,1.09-1.73,1.09-2.85s-.36-2.08-1.09-2.85c-.72-.78-1.6-1.16-2.62-1.16m1.15,5.56c-.4.4-.9.6-1.51.6s-1.11-.2-1.51-.6c-.4-.4-.59-.92-.59-1.54s.2-1.14.59-1.54c.4-.4.9-.6,1.51-.6s1.11.2,1.51.6c.4.4.6.92.6,1.54s-.2,1.14-.6,1.54"/></g><g class="cls-9"><path id="Fill-13" class="cls-4" d="m67.48,69.37c-.59-.74-1.41-1.11-2.48-1.11s-1.88.39-2.61,1.16c-.72.78-1.09,1.73-1.09,2.85s.36,2.08,1.09,2.85c.72.78,1.59,1.16,2.61,1.16,1.06,0,1.89-.37,2.48-1.11v.9h1.96v-7.6h-1.96v.9Zm-.6,4.45c-.4.4-.9.6-1.51.6s-1.11-.2-1.51-.6c-.4-.4-.59-.91-.59-1.54s.2-1.14.59-1.54c.4-.4.9-.6,1.51-.6s1.11.2,1.51.6c.4.4.6.92.6,1.54s-.2,1.14-.6,1.54h0Z"/></g><g class="cls-12"><polygon id="Fill-14" class="cls-4" points="76.71 69.78 76.71 68.47 71.01 68.47 71.01 70.31 74.07 70.31 70.86 74.77 70.86 76.08 76.86 76.08 76.86 74.24 73.48 74.24 76.71 69.78"/></g><g class="cls-11"><path id="Fill-15" class="cls-4" d="m83.9,69.37c-.59-.74-1.41-1.11-2.48-1.11s-1.88.39-2.61,1.16c-.72.78-1.09,1.73-1.09,2.85s.36,2.08,1.09,2.85c.72.78,1.59,1.16,2.61,1.16,1.06,0,1.89-.37,2.48-1.11v.9h1.96v-7.6h-1.96v.9Zm-.6,4.45c-.4.4-.9.6-1.51.6s-1.11-.2-1.51-.6c-.4-.4-.59-.91-.59-1.54s.2-1.14.59-1.54c.4-.4.9-.6,1.51-.6s1.11.2,1.51.6c.4.4.6.92.6,1.54s-.2,1.14-.6,1.54h0Z"/></g><g class="cls-13"><path id="Fill-16" class="cls-4" d="m93.32,69.37c-.59-.74-1.41-1.11-2.48-1.11s-1.88.39-2.61,1.16c-.72.78-1.09,1.73-1.09,2.85s.36,2.08,1.09,2.85c.72.78,1.59,1.16,2.61,1.16,1.06,0,1.89-.37,2.48-1.11v.9h1.96v-7.6h-1.96v.9Zm-.6,4.45c-.4.4-.9.6-1.51.6s-1.11-.2-1.51-.6c-.4-.4-.59-.91-.59-1.54s.2-1.14.59-1.54c.4-.4.9-.6,1.51-.6s1.11.2,1.51.6c.4.4.6.92.6,1.54s-.2,1.14-.6,1.54h0Z"/></g><g class="cls-14"><path id="Fill-17" class="cls-4" d="m98.81,69.78v-1.31h-1.96v7.6h1.96v-3.63c0-.73.24-1.25.71-1.57.47-.31,1.01-.44,1.6-.37v-2.19c-.52,0-.99.12-1.41.36-.42.24-.72.61-.9,1.09"/></g><g class="cls-1"><path id="Fill-18" class="cls-4" d="m138.32,68.29c0-.54.42-.95.96-.95s.96.42.96.95-.42.96-.96.96-.96-.42-.96-.96h0Zm1.73,0c0-.45-.34-.78-.78-.78s-.77.33-.77.78.33.78.77.78.78-.33.78-.78h0Zm-.91.18v.4h-.25v-1.11h.46c.22,0,.37.13.37.34,0,.15-.08.27-.21.33l.26.44h-.31l-.2-.4h-.12Zm.12-.2c.11,0,.2-.03.2-.16,0-.1-.08-.14-.19-.14h-.13v.31h.12Z"/></g></g></g></g></g></svg>