<?xml version="1.0" encoding="UTF-8"?><svg id="Layer_1" xmlns="http://www.w3.org/2000/svg" viewBox="0 0 180 80"><defs><style>.cls-1{fill:none;}.cls-2{fill:#18bfff;}.cls-3{fill:#fcb400;}.cls-4{fill:#fff;}.cls-5{fill:#f82b60;}</style></defs><rect class="cls-1" width="180" height="80"/><path class="cls-4" d="M74.5,42.58l-2.73-7.36c-.11-.3-.54-.3-.65,0l-2.73,7.36c-.08.23.08.47.32.47h5.46c.24,0,.41-.24.32-.47M75.77,46.72h-8.63c-.14,0-.27.09-.32.23l-1.7,4.58c-.05.14-.18.23-.32.23h-3.74c-.25,0-.41-.25-.32-.47l8.62-21.46c.05-.13.18-.22.32-.22h3.58c.14,0,.27.09.32.22l8.62,21.46c.09.23-.08.48-.32.48h-3.74c-.14,0-.27-.09-.32-.23l-1.7-4.58c-.05-.14-.18-.23-.32-.23M83.93,37.13h3.2c.19,0,.35.16.35.35v13.93c0,.19-.15.35-.35.35h-3.2c-.19,0-.35-.16-.35-.35v-13.93c0-.19.16-.35.35-.35M99.15,40.52c0,.19-.16.35-.35.35h-.1c-1.58,0-2.74.38-3.48,1.14-.74.76-1.11,2.02-1.11,3.77v5.64c0,.19-.15.35-.35.35h-3.17c-.19,0-.35-.16-.35-.35v-13.93c0-.19.16-.35.35-.35h3.14c.19,0,.35.16.35.35v2.76h.06c.38-1.14.98-2.01,1.8-2.63.82-.61,1.84-.92,3.04-.92h.16v3.83ZM107.91,40.39c-.19,0-.35.16-.35.35v5.79c0,.59.12,1.01.35,1.27.23.25.63.38,1.2.38h.32c.19,0,.35.15.35.35v2.92c0,.19-.16.35-.35.35h-1.36c-1.41,0-2.5-.36-3.26-1.09-.76-.73-1.14-1.81-1.14-3.24v-6.71c0-.19-.15-.35-.35-.35h-2c-.19,0-.35-.16-.35-.35v-2.57c0-.19.15-.35.35-.35h2c.19,0,.35-.15.35-.35v-5.16c0-.19.16-.35.35-.35h3.2c.19,0,.35.16.35.35v5.16c0,.19.16.35.35.35h2.31c.19,0,.35.16.35.35v2.57c0,.19-.15.35-.35.35h-2.31ZM122.56,47.42c.73-.76,1.09-1.75,1.09-2.98s-.36-2.22-1.09-2.98-1.68-1.14-2.86-1.14-2.14.38-2.86,1.14c-.73.76-1.09,1.75-1.09,2.98s.36,2.22,1.09,2.98c.73.76,1.68,1.14,2.86,1.14s2.14-.38,2.86-1.14M115.17,51.31c-1.08-.61-1.93-1.5-2.55-2.67-.62-1.17-.93-2.57-.93-4.19s.31-3.02.93-4.19c.62-1.17,1.47-2.06,2.55-2.67,1.08-.61,2.26-.92,3.55-.92,1.14,0,2.12.22,2.93.66.81.44,1.46,1.07,1.95,1.87h.06v-1.71c0-.19.16-.35.35-.35h3.17c.19,0,.35.16.35.35v13.93c0,.19-.15.35-.35.35h-3.17c-.19,0-.35-.15-.35-.35v-1.71h-.06c-.49.8-1.13,1.42-1.95,1.87-.81.44-1.79.66-2.93.66-1.29,0-2.47-.31-3.55-.92M140.7,47.42c.73-.76,1.09-1.75,1.09-2.98s-.36-2.22-1.09-2.98c-.73-.76-1.68-1.14-2.86-1.14s-2.14.38-2.86,1.14c-.73.76-1.09,1.75-1.09,2.98s.36,2.22,1.09,2.98c.73.76,1.68,1.14,2.86,1.14s2.14-.38,2.86-1.14M135.89,51.56c-.81-.44-1.46-1.07-1.95-1.87h-.06v1.71c0,.19-.15.35-.35.35h-3.2c-.19,0-.35-.15-.35-.35v-21.46c0-.19.16-.35.35-.35h3.2c.19,0,.35.16.35.35v9.24h.06c.49-.8,1.13-1.42,1.95-1.87.81-.44,1.79-.66,2.93-.66,1.29,0,2.47.31,3.55.92,1.08.61,1.93,1.5,2.55,2.67.62,1.17.93,2.57.93,4.19s-.31,3.02-.93,4.19c-.62,1.17-1.47,2.06-2.55,2.67-1.08.61-2.26.92-3.55.92-1.14,0-2.12-.22-2.93-.66M151.24,51.76h-3.2c-.19,0-.35-.16-.35-.35v-21.46c0-.19.15-.35.35-.35h3.2c.19,0,.35.16.35.35v21.46c0,.19-.16.35-.35.35M158.79,40.52c-.53.41-.89,1.01-1.07,1.79-.05.22.12.42.34.42h6.09c.21,0,.38-.19.34-.4-.12-.74-.44-1.33-.95-1.77-.6-.52-1.39-.78-2.36-.78s-1.77.24-2.39.73M166.59,38.7c1.24,1.36,1.87,3.29,1.87,5.78v.41c0,.19-.15.35-.35.35h-10.18c-.22,0-.38.2-.34.41.16.92.57,1.66,1.23,2.2.75.62,1.69.93,2.83.93,1.47,0,2.83-.57,4.08-1.72.15-.14.4-.11.51.06l1.56,2.23c.1.14.08.34-.05.46-.76.67-1.61,1.23-2.53,1.68-1.01.5-2.21.74-3.58.74-1.58,0-2.97-.32-4.15-.97-1.18-.64-2.1-1.55-2.75-2.72-.65-1.17-.98-2.53-.98-4.07s.32-2.9.95-4.08c.63-1.18,1.52-2.1,2.66-2.75,1.14-.65,2.47-.98,3.99-.98,2.24,0,3.98.68,5.22,2.04M87.9,31.98c0,1.31-1.06,2.36-2.36,2.36s-2.36-1.06-2.36-2.36,1.06-2.36,2.36-2.36,2.36,1.06,2.36,2.36"/><path class="cls-3" d="M29.77,23.36l-15.22,6.3c-.85.35-.84,1.55.01,1.89l15.28,6.06c1.34.53,2.84.53,4.18,0l15.28-6.06c.85-.34.86-1.54.01-1.89l-15.22-6.3c-1.39-.57-2.95-.57-4.34,0"/><path class="cls-2" d="M33.3,40.91v15.14c0,.72.73,1.21,1.4.95l17.03-6.61c.39-.15.64-.53.64-.95v-15.14c0-.72-.73-1.21-1.4-.95l-17.03,6.61c-.39.15-.64.53-.64.95"/><path class="cls-5" d="M29.32,41.7l-5.05,2.44-.51.25-10.67,5.11c-.68.33-1.54-.17-1.54-.92v-14.21c0-.27.14-.51.33-.68.08-.08.17-.14.26-.19.25-.15.62-.19.93-.07l16.18,6.41c.82.33.89,1.48.08,1.87"/><path d="M29.32,41.7l-5.05,2.44-12.4-10.45c.08-.08.17-.14.26-.19.25-.15.62-.19.93-.07l16.18,6.41c.82.33.89,1.48.08,1.87"/></svg>