<svg id="Layer_1" data-name="Layer 1" xmlns="http://www.w3.org/2000/svg" viewBox="0 0 180 80"><defs><style>.cls-1{fill:none;}.cls-2{fill:#39b54a;}</style></defs><rect class="cls-1" width="180" height="80"/><path class="cls-2" d="M175,54.51h-9.31c-1.2,0-1.2,0-1.75-1.08-1.6-3.11-3.14-6.25-4.83-9.31s-3.39-6.47-5.1-9.7c0-.08-.09-.15-.18-.29a1.48,1.48,0,0,0-.06.78c.53,6.27.2,12.54.29,18.82,0,.78,0,.78-.81.78h-5.68c-.45,0-.61-.13-.61-.58v-28c0-.43.12-.59.56-.58h9.31a.79.79,0,0,1,.79.52c2,3.66,4,7.37,5.88,11.09.77,1.49,1.5,3,2.34,4.45s1.45,2.63,2.19,4a2.12,2.12,0,0,0,.06-1c0-1-.13-1.93-.16-2.91-.16-5.12-.05-10.25-.08-15.38,0-.78,0-.78.79-.78H175Z"/><path class="cls-2" d="M43.93,55c-.75-.16-1.52-.06-2.28-.16a13.68,13.68,0,0,1-7-2.66,12.78,12.78,0,0,1-2.92-3.46,16.4,16.4,0,0,1-2-8.17,19.19,19.19,0,0,1,.85-6.82,11.66,11.66,0,0,1,8.25-8,20.74,20.74,0,0,1,9.53-.3,12.92,12.92,0,0,1,4.57,1.89c3,1.93,4.36,4.81,5,8.14a23.05,23.05,0,0,1-.34,10.48A11.34,11.34,0,0,1,54,51.82a12.61,12.61,0,0,1-6.13,2.79,17.76,17.76,0,0,1-3.08.3,1.44,1.44,0,0,0-.65.07ZM38.12,40a15.46,15.46,0,0,0,.2,2.8,7.91,7.91,0,0,0,1.61,3.8c1.71,2.24,5.28,2,7,1.12a5.23,5.23,0,0,0,2.52-3.53,13,13,0,0,0,.43-2.92,15.64,15.64,0,0,0-.74-6.44,4.89,4.89,0,0,0-1.51-2.18,6,6,0,0,0-4.86-1,4.36,4.36,0,0,0-3,1.82,8,8,0,0,0-1.48,3.66A16.21,16.21,0,0,0,38.12,40Z"/><path class="cls-2" d="M128.93,55c-.79-.16-1.59-.06-2.38-.16a14.33,14.33,0,0,1-6.62-2.36,11.32,11.32,0,0,1-4.41-6.42,22,22,0,0,1,0-12.35A11,11,0,0,1,121,26.81a14.53,14.53,0,0,1,5.64-1.69,22.14,22.14,0,0,1,6.55.28,12.12,12.12,0,0,1,6.27,3.19,12.32,12.32,0,0,1,3.1,5.67,23.62,23.62,0,0,1,.52,8.54,16.26,16.26,0,0,1-1.51,5.51,11,11,0,0,1-6.68,5.75,16.82,16.82,0,0,1-5.17.85,1.36,1.36,0,0,0-.6.07Zm-5.82-14.93a14.7,14.7,0,0,0,.56,4.27A5.15,5.15,0,0,0,126.86,48a6.5,6.5,0,0,0,2.36.3,4.84,4.84,0,0,0,5-3.61,12.83,12.83,0,0,0,.6-3.37,16.57,16.57,0,0,0-.5-5.82,5.42,5.42,0,0,0-2-3.06,5.52,5.52,0,0,0-2.86-.93,5.15,5.15,0,0,0-5.64,3.62,15,15,0,0,0-.71,4.93Z"/><path class="cls-2" d="M13,37.76c.81-1.17,1.58-2.33,2.4-3.46,2.06-2.79,4-5.68,5.92-8.53a.73.73,0,0,1,.68-.35h7.7c.15,0,.35-.06.43.11s-.08.26-.16.38c-2,2.87-4,5.77-6.07,8.6-.87,1.19-1.7,2.41-2.59,3.58a.6.6,0,0,0,0,.77c.77,1.36,1.48,2.76,2.3,4.09,2.24,3.65,4.2,7.46,6.35,11.16.16.29.13.42-.24.42H21.5a.6.6,0,0,1-.58-.39l-4-7.86c-.44-.85-1-1.61-1.39-2.5-.12-.28-.29-.27-.52-.12-.51.31-1,.63-1.54.91a.75.75,0,0,0-.41.76C13,48.16,13,51,13,53.81c0,.72,0,.72-.72.72H5.72c-.72,0-.72,0-.72-.69V26.08c0-.64,0-.66.66-.66h6.68c.66,0,.66,0,.66.68Z"/><path class="cls-2" d="M69.89,34.84v8.33a7.32,7.32,0,0,0,.47,2.62A3.49,3.49,0,0,0,73,48.18,6.25,6.25,0,0,0,76.43,48a3.55,3.55,0,0,0,2.26-2.74,10.08,10.08,0,0,0,.3-2.51V26.15c0-.72,0-.73.73-.73h6.67c.58,0,.61,0,.61.62V43a13.22,13.22,0,0,1-1.39,6.27,9.7,9.7,0,0,1-6.14,4.91,17.4,17.4,0,0,1-11.31-.34,9.25,9.25,0,0,1-5.61-6,15.69,15.69,0,0,1-.73-5V26.18c0-.72,0-.74.74-.74h6.67c.64,0,.67,0,.67.66v8.74Z"/><path class="cls-2" d="M91.5,40V26.12c0-.69,0-.7.71-.7h9.31a16.41,16.41,0,0,1,6.39,1.11A7.76,7.76,0,0,1,112.67,33a12,12,0,0,1-.75,6.46,8.6,8.6,0,0,1-5.74,4.9,19.9,19.9,0,0,1-6,.61c-.67,0-.67,0-.67.68v8.24c0,.69,0,.69-.67.69H92.17c-.67,0-.67,0-.67-.69Zm8-4.83V38c0,.34.12.49.46.47h1.27a3.42,3.42,0,0,0,3.47-3.37,4.36,4.36,0,0,0,0-.51A2.49,2.49,0,0,0,102.31,32a22.34,22.34,0,0,0-2.31-.12c-.34,0-.47.12-.46.47q0,1.41,0,2.82Z"/></svg>