<svg id="Layer_1" data-name="Layer 1" xmlns="http://www.w3.org/2000/svg" viewBox="0 0 180 80"><defs><style>.cls-1{fill:none;}.cls-2{fill:#ee1d3e;}</style></defs><rect class="cls-1" width="180" height="80"/><rect class="cls-1" width="180" height="80"/><rect id="bounding_box" data-name="bounding box" class="cls-1" x="136.54" y="25.81" width="105.99" height="105.99"/><path class="cls-2" d="M44.15,26.9A10.8,10.8,0,1,0,55,37.7,10.82,10.82,0,0,0,44.15,26.9Zm0,15.6a4.7,4.7,0,1,1,4.7-4.7A4.69,4.69,0,0,1,44.15,42.5ZM32,62.5a4.7,4.7,0,1,1,4.7-4.7A4.69,4.69,0,0,1,32,62.5Z"/><path d="M29.75,45a10.81,10.81,0,0,1-8.2,3.6c-5.8,0-11.2-4.2-11.2-10.9a10.67,10.67,0,0,1,10.7-10.8A10.87,10.87,0,0,1,29,30.1L27.35,32a8.71,8.71,0,0,0-6.3-2.6,8.4,8.4,0,0,0,.3,16.8,8.68,8.68,0,0,0,6.4-2.9Z"/><path d="M69.85,29.4h-1.2a7.23,7.23,0,0,0-6.5,4.6V48.2h-2.6V27.4h2.6v2.7a7.92,7.92,0,0,1,6.6-3.2,6.62,6.62,0,0,1,1.5.1Z"/><path d="M91.25,44.8a10.56,10.56,0,0,1-8.5,3.8c-5.8,0-10.4-4.4-10.4-10.8,0-6,4.1-10.8,9.9-10.8,5.6,0,9.7,4.4,9.7,10.2v.9H75c.2,4.4,3.1,8.2,7.8,8.2a8.21,8.21,0,0,0,6.6-3.1Zm-16.1-9.2h14.2a7,7,0,0,0-7-6.2A7.3,7.3,0,0,0,75.15,35.6Z"/><path d="M104.75,46.6a10.67,10.67,0,0,1-4.4-8.9,10.9,10.9,0,0,1,3.9-8.5,10.56,10.56,0,0,1,6.6-2.3,10,10,0,0,1,7.5,3.2V17.5H121V48.1h-2.5V45a9,9,0,0,1-7.5,3.5A9.59,9.59,0,0,1,104.75,46.6Zm13.6-13a9.18,9.18,0,0,0-7.5-4.2,7.88,7.88,0,0,0-5,1.8,8.52,8.52,0,0,0-2.9,6.6,8,8,0,0,0,8,8.3,8.38,8.38,0,0,0,7.4-4.6Z"/><path d="M128.45,30.3a9.11,9.11,0,0,1,7.3-3.4,9,9,0,0,1,7.4,3.5c1.1,1.5,1.8,3.2,1.8,6.6V48.1h-2.6V37.2c0-2.7-.5-4.1-1.2-5.1a6.49,6.49,0,0,0-5.4-2.8,8.29,8.29,0,0,0-7.2,4.3V48H126V27.4h2.5Z"/><path d="M167.15,48.1V45a9,9,0,0,1-7.5,3.5,10.35,10.35,0,0,1-6.2-2,10.67,10.67,0,0,1-4.4-8.9,10.9,10.9,0,0,1,3.9-8.5,10.56,10.56,0,0,1,6.6-2.3,10.12,10.12,0,0,1,7.6,3.3V27.4h2.5V48.2h-2.5Zm-.1-14.5a9.18,9.18,0,0,0-7.5-4.2,7.88,7.88,0,0,0-5,1.8,8.52,8.52,0,0,0-2.9,6.6,8,8,0,0,0,8,8.3,8.38,8.38,0,0,0,7.4-4.6Z"/></svg>