<?xml version="1.0" encoding="UTF-8"?><svg id="Layer_1" xmlns="http://www.w3.org/2000/svg" viewBox="0 0 180 80"><defs><style>.cls-1{fill:none;}.cls-2{fill:#0029d0;}.cls-3{fill:#b41ed8;}</style></defs><rect class="cls-1" width="180" height="80"/><rect class="cls-1" width="180" height="80"/><g><path class="cls-2" d="M166.09,33.68c-.08,.07-.17,.1-.27,.09h-.78v-.66h.78c.1,0,.2,.03,.27,.09,.07,.06,.11,.15,.1,.24,0,.09-.04,.17-.1,.23m.57,.24c.1-.15,.15-.32,.15-.49,0-.25-.1-.49-.29-.66-.19-.17-.45-.27-.71-.25h-1.39v2.92h.61v-1.05h.57l.62,1.08h.71l-.66-1.17c.16-.08,.3-.22,.39-.38"/><path class="cls-2" d="M167.72,35.26c-.23,.39-.54,.71-.92,.94-1.22,.7-2.78,.28-3.48-.93,0,0,0,0,0,0-.71-1.24-.29-2.81,.94-3.54,.39-.23,.83-.36,1.28-.35,.44,0,.88,.12,1.25,.35,.39,.23,.71,.56,.93,.95,.22,.39,.34,.83,.34,1.27,0,.46-.12,.91-.34,1.31m.51-2.87c-.28-.48-.67-.88-1.15-1.16-.96-.58-2.17-.58-3.13,0-.48,.28-.88,.68-1.16,1.16-.28,.47-.44,1.01-.45,1.56,0,1.14,.59,2.19,1.57,2.77,.47,.29,1.01,.44,1.56,.45,.55,0,1.09-.15,1.56-.45,.47-.29,.87-.69,1.15-1.17,.28-.49,.43-1.04,.42-1.61,.01-.54-.12-1.08-.38-1.56"/><path class="cls-2" d="M65.84,52.93l-9.85-19.67c-.27-.53,0-.89,.53-.89h2.34c.38-.01,.72,.21,.86,.56l8.43,17.12,8.41-17.12c.14-.35,.48-.57,.86-.56h2.35c.56,0,.78,.37,.53,.89l-9.9,19.68c-.14,.35-.49,.58-.87,.57h-2.87c-.36,0-.69-.23-.82-.56"/><path class="cls-2" d="M82.92,52.71v-19.6c-.07-.36,.17-.71,.53-.78h0c.08-.01,.16-.01,.24,0h2.03c.36-.07,.71,.17,.78,.53h0c.01,.08,.01,.16,0,.24v19.65c.07,.36-.17,.71-.54,.78-.08,.01-.16,.01-.24,0h-2.02c-.37,.06-.72-.19-.78-.56-.01-.07-.01-.15,0-.22v-.05Zm0-25v-2c-.06-.37,.19-.72,.56-.78h0c.07-.01,.15-.01,.22,0h2.03c.36-.07,.71,.17,.78,.53h0c.01,.08,.01,.16,0,.24v2.01c.07,.37-.17,.72-.54,.79,0,0,0,0,0,0-.08,.01-.16,.01-.24,0h-2.03c-.37,.06-.72-.19-.78-.56-.01-.07-.01-.15,0-.22"/><path class="cls-2" d="M108.98,40.4c0-3.91-.83-4.69-4.29-4.69h-6.09c-2.98,0-4.33,.68-4.33,4.69v5.11c0,3.95,1.34,4.63,4.33,4.63h6.08c3.46,0,4.29-.83,4.29-4.63v-5.11Zm3.54,.31v4.55c0,5.47-1.51,8.24-7.81,8.24h-4.46c-3.42,0-5.15-.88-5.98-2.75v2c.06,.37-.19,.72-.56,.78,0,0,0,0,0,0h0c-.07,0-.15,0-.22,0h-2.04c-.37,.06-.72-.19-.78-.56-.01-.07-.01-.15,0-.22V25.7c-.06-.37,.19-.72,.56-.78,0,0,0,0,0,0,.07-.01,.15-.01,.22,0h2.03c.37-.06,.71,.18,.78,.55v.02c.01,.07,.01,.15,0,.22v9.37c.83-1.84,2.56-2.74,5.98-2.74h4.47c6.3,.02,7.81,2.76,7.81,8.38"/><path class="cls-2" d="M133.26,41.54v-1.2c0-3.81-.83-4.63-4.32-4.63h-5.17c-3.5,0-4.33,.83-4.33,4.63v1.2h13.82Zm-17.35,3.62v-4.54c0-5.47,1.5-8.24,7.81-8.24h5.3c6.29,0,7.81,2.78,7.81,8.24v3.39c.06,.37-.19,.72-.56,.78-.07,.01-.15,.01-.22,0h-16.63v.71c0,3.91,.83,4.69,4.33,4.69h10.57c.36-.07,.71,.18,.78,.54,.01,.08,.01,.16,0,.24v1.84c.05,.34-.17,.67-.5,.75-.08,.01-.16,.01-.24,0h-10.68c-6.28-.05-7.78-2.8-7.78-8.4"/><path class="cls-2" d="M140.06,52.74v-1.84c-.07-.36,.17-.71,.53-.78h0c.08-.02,.16-.02,.24,0h10.76c3.36,0,4.29-.67,4.29-2.59s-.64-2.41-3.69-2.72l-6.32-.63c-4.81-.49-6.25-2.34-6.25-6.09s2.3-5.75,7.56-5.75h10.46c.36-.07,.71,.17,.78,.53h0c.01,.08,.01,.16,0,.24v1.84c.07,.36-.18,.71-.54,.78-.08,.01-.16,.01-.24,0h-10.4c-3.05,0-4.1,.78-4.1,2.68,0,1.79,.57,2.3,3.31,2.59l6.25,.68c5.42,.6,6.74,2.55,6.74,6.25,0,4.09-2.26,5.64-7.9,5.64h-10.72c-.37,.06-.71-.19-.76-.56h0c-.02-.09-.02-.18,0-.27"/><path class="cls-3" d="M41.29,32.76c4.28,0,6.21,2.04,7.02,3.36,.08,.13,.24,.17,.38,.1,0,0,0,0,0,0,.09-.05,.14-.14,.13-.24v-15.74c0-2.47-2-4.47-4.47-4.47h-11.65c-2.48-.02-4.5,1.98-4.51,4.45h0v8.04c-.01,2.48,1.99,4.49,4.46,4.51h8.64Z"/><path class="cls-2" d="M41.08,35.45h-9.26c-3.55-.02-6.42-2.92-6.4-6.47v-4.07h-5.83c-4.53,0-8.2,3.67-8.2,8.2v30.6c0,.29,.22,.53,.51,.53,.18,0,.36-.09,.45-.25,1.61-2.55,5.42-6.94,12.29-6.94h15.99c4.53,0,8.2-3.67,8.2-8.2v-5.29c0-3.93-3.11-8.11-7.75-8.11"/></g></svg>