<?xml version="1.0" encoding="UTF-8"?><svg id="Layer_1" xmlns="http://www.w3.org/2000/svg" viewBox="0 0 180 80"><defs><style>.cls-1{fill:none;}.cls-2{fill:#131b24;}.cls-2,.cls-3{fill-rule:evenodd;}.cls-3{fill:#304ddb;}</style></defs><rect class="cls-1" width="180" height="80"/><path class="cls-2" d="M77.4,29.59h-3.33v19.88h3.33v-19.88ZM40.45,30.04h3.44v8.03h8.82v-8.03h3.44v19.43h-3.44v-8.14h-8.82v8.14h-3.44v-19.43ZM58.28,42.26c0-4.69,2.66-7.62,6.91-7.62,4.01,0,6.46,2.59,6.46,6.69v1.98h-10.04c.15,2.11,1.41,3.56,3.65,3.56,1.8,0,2.74-.92,3.28-1.94l2.91,1.03c-1.04,2.15-3.09,3.71-6.31,3.71-4.44,0-6.86-2.97-6.86-7.43h0ZM68.3,40.84v-.12c0-2.15-1.3-3.27-3.16-3.27-2.02,0-3.25,1.34-3.5,3.39h6.65ZM80.62,34.92h3.3v2.21c.84-1.61,2.21-2.48,4.39-2.48,4.11,0,6.23,3.1,6.23,7.41s-2.13,7.41-6.25,7.41c-2.13,0-3.52-.85-4.35-2.44v7.74h-3.33v-19.85ZM87.59,46.62c2.29,0,3.63-1.72,3.63-4.57s-1.34-4.57-3.63-4.57-3.63,1.72-3.63,4.57,1.34,4.57,3.63,4.57ZM103.45,43.09l-3.43.6h0c.45,3.74,3.85,6.23,8.12,6.23s7.04-2.48,7.04-6.26c0-4.19-3.41-4.82-6.95-5.46-2.47-.45-4.52-.88-4.52-2.97,0-1.73,1.42-2.61,3.56-2.61,2.63,0,3.94,1.3,4.2,3.3l3.41-.58c-.5-3.46-3.21-5.75-7.45-5.75s-7.21,2.14-7.21,5.99c0,4.25,3.62,4.96,6.75,5.54,2.51.48,4.76.91,4.76,3.05,0,1.69-1.39,2.72-3.58,2.72-2.56,0-4.39-1.39-4.7-3.81ZM116.78,42.18c0-4.69,2.56-7.53,6.84-7.53,3.65,0,5.79,2.06,6.33,4.96l-3.23.57c-.34-1.71-1.41-2.66-3.1-2.66-2.24,0-3.51,1.61-3.51,4.69s1.2,4.62,3.46,4.62c1.72,0,2.82-.96,3.16-2.68l3.23.57c-.54,2.9-2.74,4.99-6.38,4.99-4.31,0-6.79-2.9-6.79-7.52ZM138.03,34.65c-4.23,0-6.9,2.91-6.9,7.52s2.66,7.52,6.9,7.52,6.91-2.91,6.91-7.52-2.68-7.52-6.91-7.52ZM141.61,42.17c0,3.05-1.31,4.67-3.58,4.67s-3.56-1.64-3.56-4.67,1.3-4.67,3.56-4.67,3.58,1.63,3.58,4.67ZM146.94,44.69v-9.77h3.33v8.68c0,1.9.8,3.1,2.54,3.1,2.01,0,3.24-1.56,3.24-3.59v-8.2h3.33v14.55h-3.3v-2.3c-.76,1.42-2.06,2.52-4.35,2.52-3.06,0-4.78-1.98-4.78-5h0ZM163.85,37.89v7.76c0,3.13,1.73,4.04,4.29,4.04.94,0,1.9-.12,2.78-.34l-.15-2.74c-.58.09-1.12.15-1.56.15-2.03,0-2.03-1.26-2.03-1.98v-6.9h3.48v-2.97h-3.48v-4.29l-3.33.93v3.36h-2.66v2.97h2.66Z"/><path class="cls-3" d="M20.98,32.96c2.21-2.23,2.21-5.86,0-8.09l-10.24,10.34c-2.21,2.23-2.21,5.86,0,8.09l10.24-10.34ZM10.76,55.05c-2.21-2.23-2.21-5.86,0-8.09l21.88-22.1c2.21,2.23,2.21,5.86,0,8.09l-21.88,22.1ZM22.41,55.14c-2.21-2.23-2.21-5.86,0-8.09l10.24-10.34c2.21,2.23,2.21,5.86,0,8.09l-10.24,10.34Z"/></svg>