<?xml version="1.0" encoding="UTF-8"?><svg id="Layer_1" xmlns="http://www.w3.org/2000/svg" viewBox="0 0 120 120"><defs><style>.cls-1{fill:none;}.cls-2{fill:#d9feff;}.cls-3{fill:#00292f;}</style></defs><rect class="cls-1" width="120" height="120"/><rect class="cls-3" x="11" y="10" width="98" height="98" rx="4" ry="4"/><path class="cls-2" d="M28,79c0,2.21,1.79,4,4,4h6.84c1.54,3.54,5.06,6,9.16,6s7.62-2.46,9.16-6h30.84c2.21,0,4-1.79,4-4s-1.79-4-4-4h-30.84c-1.54-3.54-5.06-6-9.16-6s-7.62,2.46-9.16,6h-6.84c-2.21,0-4,1.79-4,4ZM44,79c0-2.21,1.79-4,4-4s4,1.79,4,4-1.79,4-4,4-4-1.79-4-4ZM68,59c0-2.21,1.79-4,4-4s4,1.79,4,4-1.79,4-4,4-4-1.79-4-4ZM72,49c-4.1,0-7.62,2.46-9.16,6h-30.84c-2.21,0-4,1.79-4,4s1.79,4,4,4h30.84c1.54,3.54,5.06,6,9.16,6s7.62-2.46,9.16-6h6.84c2.21,0,4-1.79,4-4s-1.79-4-4-4h-6.84c-1.54-3.54-5.06-6-9.16-6ZM52,43c-2.21,0-4-1.79-4-4s1.79-4,4-4,4,1.79,4,4-1.79,4-4,4ZM61.16,35c-1.54-3.54-5.06-6-9.16-6s-7.62,2.46-9.16,6h-10.84c-2.21,0-4,1.79-4,4s1.79,4,4,4h10.84c1.54,3.54,5.06,6,9.16,6s7.62-2.46,9.16-6h26.84c2.21,0,4-1.79,4-4s-1.79-4-4-4h-26.84Z"/></svg>