<svg id="Layer_1" data-name="Layer 1" xmlns="http://www.w3.org/2000/svg" viewBox="0 0 180 80"><defs><style>.cls-1{fill:none;}</style></defs><rect class="cls-1" width="180" height="80"/><rect class="cls-1" width="180" height="80"/><path d="M52.23,55.06,43.34,24a1.48,1.48,0,0,0-.91-.95,1.54,1.54,0,0,0-1.54.27l-12.5,11L15.87,23.38a1.49,1.49,0,0,0-2.46.74L4.53,55.06A1.5,1.5,0,0,0,6.26,57l22.13-4.15L50.53,57a1.53,1.53,0,0,0,1.7-1.95Zm-14.08-26L33.4,38.64l-3.09-2.71ZM26.48,36l-3.09,2.71-4.75-9.56ZM15,27.47l6.41,12.9L8,52.15ZM9.94,53.73l12.65-11,3.95,7.95ZM24.53,41l3.86-3.36L32.25,41l-3.86,7.73Zm5.69,9.66,4-8L46.87,53.77Zm5.12-10.24,6.4-12.85,7,24.58Z"/><path d="M68.31,44.53l-4.48-7.88V48.1a.28.28,0,0,1-.28.28H61.36a.27.27,0,0,1-.28-.28h0V31.69a.28.28,0,0,1,.28-.29h2.46a.29.29,0,0,1,.25.15l5.41,10,5.45-10a.3.3,0,0,1,.26-.15h2.44a.29.29,0,0,1,.29.29h0V48.1a.28.28,0,0,1-.29.28H75.5a.27.27,0,0,1-.28-.28h0V36.65l-4.47,7.88a.31.31,0,0,1-.26.15H68.55A.3.3,0,0,1,68.31,44.53Z"/><path d="M80.57,44.58c0-2.59,2-4.27,5.65-4.27h2.6v-.6c0-1.85-1.26-2.08-4.3-1.85a7.87,7.87,0,0,0-2.21.78.28.28,0,0,1-.38-.13.29.29,0,0,1,0-.09c-.07-.58-.14-1.23-.2-1.63a.26.26,0,0,1,.13-.26,10.91,10.91,0,0,1,4.43-1c3.66,0,5.31,1.21,5.31,4.72v7.8a.29.29,0,0,1-.28.29H89.82a.24.24,0,0,1-.18-.07l-.82-.73a5.12,5.12,0,0,1-3.45,1.12C82.7,48.68,80.57,47.28,80.57,44.58Zm8.25.57V42.54h-2.5c-2.11,0-2.94.73-2.94,2s.93,1.82,2.38,1.82a4,4,0,0,0,3-1.07A.35.35,0,0,0,88.82,45.15Z"/><path d="M97.56,48.19l-4.19-12a.28.28,0,0,1,.16-.36.22.22,0,0,1,.11,0H96a.29.29,0,0,1,.28.2l3.09,9.53L102.53,36a.3.3,0,0,1,.28-.2h2.32a.28.28,0,0,1,.29.27.36.36,0,0,1,0,.1l-4.18,12a.28.28,0,0,1-.27.19H97.86A.27.27,0,0,1,97.56,48.19Z"/><path d="M109.67,43.18c.19,2.23,1.55,3.2,3.86,3.2a8.25,8.25,0,0,0,3.35-.77.24.24,0,0,1,.32.12.19.19,0,0,1,0,.07l.22,1.8a.29.29,0,0,1-.15.29,8.67,8.67,0,0,1-3.94.79c-4.49,0-6.6-2.79-6.6-6.6s2.23-6.55,5.82-6.55,5.83,2.74,5.83,6.65v.74a.29.29,0,0,1-.29.28h-8.49ZM115.54,41c-.22-2.14-1.31-3.15-2.93-3.15s-2.75,1-2.94,3.15Z"/><path d="M123.9,38.51v9.58a.29.29,0,0,1-.29.29h-2.18a.29.29,0,0,1-.29-.29v-12a.28.28,0,0,1,.29-.28h1.49a.28.28,0,0,1,.2.08l.71.87a4.52,4.52,0,0,1,3.24-1.23c3.18,0,5.15,2,5.15,5.77v6.79a.29.29,0,0,1-.28.29h-2.17a.29.29,0,0,1-.29-.29V41.28c0-2.4-.9-3.47-2.81-3.47A5,5,0,0,0,123.9,38.51Z"/><path d="M152.74,38.49v9.6a.29.29,0,0,1-.29.29h-2.19a.29.29,0,0,1-.28-.29v-12a.29.29,0,0,1,.28-.29h1.5a.25.25,0,0,1,.2.09l.71.87a4.53,4.53,0,0,1,3.27-1.21c3.17,0,5.17,2,5.17,5.77v6.82a.29.29,0,0,1-.29.28h-2.18a.29.29,0,0,1-.29-.28V41.26c0-2.4-.9-3.46-2.81-3.46A5,5,0,0,0,152.74,38.49Z"/><path d="M167.21,41.86v6.23a.29.29,0,0,1-.29.29h-2.18a.29.29,0,0,1-.29-.29V31a.29.29,0,0,1,.29-.29h2.18a.29.29,0,0,1,.29.29V41l4.7-5a.3.3,0,0,1,.21-.1h2.64a.29.29,0,0,1,.29.28.3.3,0,0,1-.08.21l-4.8,5.1,5.3,6.48a.29.29,0,0,1,0,.41.32.32,0,0,1-.19.07h-2.74a.29.29,0,0,1-.22-.11Z"/><path d="M139.5,48.44c-2.57,0-4.41-1.34-4.41-4.57V30.67a.29.29,0,0,1,.28-.28h2.19a.28.28,0,0,1,.28.28v13c0,1.81.63,2.51,2.07,2.51.29,0,.77,0,1.12-.07a.24.24,0,0,1,.26.22v1.69a.3.3,0,0,1-.25.29A13.25,13.25,0,0,1,139.5,48.44Z"/><path d="M146.6,48.11a.3.3,0,0,1-.3.3h-2.19a.29.29,0,0,1-.29-.3h0v-12a.29.29,0,0,1,.29-.29h2.19a.3.3,0,0,1,.3.29h0Z"/><path d="M145.23,30.53a1.45,1.45,0,0,1,1.65,1.22,1.55,1.55,0,0,1,0,.43,1.66,1.66,0,0,1-1.76,1.54,1.67,1.67,0,0,1-1.54-1.54,1.45,1.45,0,0,1,1.22-1.65A1.55,1.55,0,0,1,145.23,30.53Z"/></svg>