<svg id="Layer_1" data-name="Layer 1" xmlns="http://www.w3.org/2000/svg" viewBox="0 0 180 80"><defs><style>.cls-1{fill:none;}.cls-2{fill:#0c1724;}</style></defs><rect class="cls-1" width="180" height="80"/><rect class="cls-1" width="180" height="80"/><path class="cls-2" d="M31.5,48.66a6.1,6.1,0,0,1-.63,2.75,6.17,6.17,0,0,1-1.74,2.13,8.41,8.41,0,0,1-2.67,1.36,11.11,11.11,0,0,1-3.39.49,12,12,0,0,1-3.94-.6,12.14,12.14,0,0,1-3.5-2l1.94-3.14a12,12,0,0,0,2.5,1.7,5.19,5.19,0,0,0,2.29.53,3.46,3.46,0,0,0,2.32-.74,2.46,2.46,0,0,0,.86-2,3.34,3.34,0,0,0-.16-1,3.07,3.07,0,0,0-.58-1,8,8,0,0,0-1.17-1.07c-.48-.39-1.12-.87-1.9-1.44-.59-.42-1.18-.86-1.75-1.3a15.09,15.09,0,0,1-1.55-1.43,6.74,6.74,0,0,1-1.12-1.71,5.3,5.3,0,0,1-.43-2.16,5.66,5.66,0,0,1,2.17-4.5,7.25,7.25,0,0,1,2.41-1.26,10,10,0,0,1,3.06-.45,12.26,12.26,0,0,1,3.38.46,11.06,11.06,0,0,1,3,1.37L29.18,36.5a6.5,6.5,0,0,0-3.76-1.26,3.13,3.13,0,0,0-2,.62,2,2,0,0,0-.79,1.58,2.28,2.28,0,0,0,.69,1.62,25.29,25.29,0,0,0,2.4,2c1.14.84,2.09,1.58,2.83,2.2a12.93,12.93,0,0,1,1.78,1.78,5.06,5.06,0,0,1,.9,1.69A6.53,6.53,0,0,1,31.5,48.66Zm19.82-5.28a16.12,16.12,0,0,1-.27,2.81A10,10,0,0,1,50.12,49a6.22,6.22,0,0,1-1.71,2.1,4.21,4.21,0,0,1-2.68.84,5,5,0,0,1-4.27-2.17,9.91,9.91,0,0,1-1.56-5.92,10.54,10.54,0,0,1,1.58-6.14,5,5,0,0,1,4.29-2.27,4.72,4.72,0,0,1,4.06,2.13A10,10,0,0,1,51.32,43.38Zm6.27-.22a13.8,13.8,0,0,0-.72-4.58,10.45,10.45,0,0,0-2-3.55,9.38,9.38,0,0,0-3.15-2.32,9.6,9.6,0,0,0-4-.83,9.48,9.48,0,0,0-4.27.92A10.22,10.22,0,0,0,40,35.69l0-3.28H34.18V66.08h5.76V51.86a15.36,15.36,0,0,0,1.64,1.67,8.26,8.26,0,0,0,1.59,1.1,7,7,0,0,0,1.71.6,10.75,10.75,0,0,0,1.93.17,10,10,0,0,0,7.7-3.49A12.77,12.77,0,0,0,56.77,48,14,14,0,0,0,57.59,43.16Zm2.57,11.7h5.91V21.92H60.16Zm31.16,0V32.39H85.4v12.1a17.85,17.85,0,0,1-.13,2.5,6.72,6.72,0,0,1-.46,1.59,4.6,4.6,0,0,1-4.6,2.79,3.8,3.8,0,0,1-3.65-1.88A5,5,0,0,1,76,47.87a16.93,16.93,0,0,1-.16-2.62V32.39H69.91V45.16c0,.87,0,1.61,0,2.2A14.35,14.35,0,0,0,70.05,49c.06.47.13.88.21,1.24a4.43,4.43,0,0,0,.33,1,6.12,6.12,0,0,0,2.63,3.13,8.79,8.79,0,0,0,4.46,1,10,10,0,0,0,4.19-.83,11.06,11.06,0,0,0,3.5-2.72v3Zm25.51,0V42.11c0-.86,0-1.61,0-2.22a12.18,12.18,0,0,0-.11-1.6c-.06-.45-.14-.84-.22-1.18s-.2-.68-.31-1A6.26,6.26,0,0,0,113.53,33a8.51,8.51,0,0,0-4.47-1.1,9.86,9.86,0,0,0-4.19.84,11.06,11.06,0,0,0-3.5,2.72v-3h-6V54.87h6V42.76a17.36,17.36,0,0,1,.12-2.44,6.37,6.37,0,0,1,.42-1.64,4.15,4.15,0,0,1,1.78-2,5.64,5.64,0,0,1,2.86-.7,3.8,3.8,0,0,1,3.65,1.89,5.2,5.2,0,0,1,.56,1.61,16.63,16.63,0,0,1,.16,2.6V54.85Zm24.48-1.48-9-11.22L139.91,34l-4.48-1.93-7.93,9.2h-.63V21.92h-6V54.86h6V42.92l8.93,12.39Zm23.06-8.06V41.65l-17.94-9v4l13.9,6.78-13.9,6.86v4Zm-16.2-18.5a2,2,0,1,0,2,2A2,2,0,0,0,148.17,26.82Zm0,.32a1.71,1.71,0,1,1-1.62,1.7A1.66,1.66,0,0,1,148.18,27.14Zm-.38,1.91H148a.42.42,0,0,1,.49.39,1.58,1.58,0,0,0,.15.57h.38a1.68,1.68,0,0,1-.14-.56c0-.33-.17-.51-.38-.54v0a.56.56,0,0,0,.44-.54.51.51,0,0,0-.21-.46,1.1,1.1,0,0,0-.69-.18,3.57,3.57,0,0,0-.64.06V30h.36Zm0-1.05.25,0c.41,0,.55.2.55.39s-.26.39-.55.39h-.25Z"/></svg>