<?xml version="1.0" encoding="UTF-8"?><svg id="Layer_1" xmlns="http://www.w3.org/2000/svg" viewBox="0 0 180 80"><defs><style>.cls-1{fill:none;}.cls-2{fill-rule:evenodd;}</style></defs><rect class="cls-1" width="180" height="80"/><rect class="cls-1" width="180" height="80"/><path class="cls-2" d="M74.25,37.83h31.68v-9.6h-10.09c-1.06,0-2.53-.57-3.23-1.27-.7-.7-1.12-1.96-1.12-3.01V13.73h-25.64c-.09,0-.16,.04-.2,.09-.07,.05-.09,.11-.09,.21v51.97c0,.07,.04,.16,.09,.2,.04,.07,.14,.09,.2,.09h39.8c.09,0,.08-.04,.13-.09,.07-.04,.16-.14,.16-.2v-5.45h-31.67c-2.02,0-3.69-1.66-3.69-3.69v-15.34c0-2.03,1.66-3.69,3.69-3.69Zm10.01,12.38l3.07,.93c-.21,.86-.53,1.58-.98,2.16-.44,.58-.99,1.02-1.65,1.31-.66,.29-1.49,.44-2.51,.44-1.24,0-2.24-.18-3.02-.54-.78-.36-1.45-.99-2.02-1.89-.57-.9-.85-2.06-.85-3.46,0-1.88,.5-3.32,1.49-4.32,1-1.01,2.41-1.51,4.24-1.51,1.43,0,2.55,.29,3.37,.86,.82,.58,1.43,1.46,1.82,2.66l-3.09,.68c-.11-.34-.22-.6-.34-.75-.2-.27-.44-.47-.72-.62-.28-.15-.6-.21-.95-.21-.8,0-1.41,.32-1.83,.96-.32,.47-.48,1.22-.48,2.23,0,1.25,.19,2.11,.57,2.58,.38,.46,.92,.7,1.61,.7s1.18-.19,1.52-.57c.35-.38,.6-.92,.75-1.64Zm4.19,.89l3.33-.21c.07,.54,.22,.95,.44,1.23,.36,.46,.87,.69,1.55,.69,.5,0,.88-.12,1.15-.35,.27-.23,.41-.51,.41-.82s-.13-.56-.38-.79c-.25-.23-.85-.45-1.79-.66-1.54-.34-2.63-.8-3.28-1.38-.66-.57-.99-1.3-.99-2.19,0-.58,.17-1.13,.51-1.65,.34-.52,.84-.93,1.52-1.22,.68-.3,1.61-.44,2.79-.44,1.45,0,2.55,.27,3.31,.81,.76,.54,1.21,1.4,1.36,2.57l-3.3,.2c-.09-.51-.27-.89-.55-1.12-.28-.23-.67-.35-1.16-.35-.41,0-.71,.09-.92,.26-.2,.17-.31,.38-.31,.63,0,.18,.08,.34,.25,.48,.16,.15,.55,.29,1.17,.42,1.53,.33,2.63,.66,3.29,1,.66,.34,1.15,.76,1.45,1.25,.3,.5,.45,1.06,.45,1.68,0,.73-.2,1.4-.6,2.01-.4,.61-.96,1.08-1.68,1.4-.72,.32-1.63,.47-2.72,.47-1.93,0-3.26-.37-4-1.11-.74-.73-1.16-1.67-1.26-2.81Zm10.96-7.59h3.66l2.55,8.16,2.52-8.16h3.55l-4.21,11.34h-3.79l-4.29-11.34Zm10.19-5.68h4.85c2.03,0,3.69,1.66,3.69,3.69v15.34c0,2.03-1.67,3.69-3.69,3.69h-4.85v6.62c0,.79-.32,1.48-.83,2-.52,.52-1.22,.83-2,.83h-42.08c-.79,0-1.48-.31-2-.83-.52-.52-.83-1.22-.83-2V12.86c0-.79,.32-1.48,.83-2,.52-.52,1.24-.83,2-.83h28.67c.06-.02,.13-.02,.2-.02,.31,0,.63,.14,.85,.34h.04s.07,.04,.11,.09l14.64,14.82c.25,.25,.43,.59,.43,.97,0,.11-.02,.2-.04,.32v11.3Zm-14.78-14.17V14.36l10.46,10.59h-9.16c-.36,0-.67-.16-.92-.38-.22-.22-.38-.56-.38-.92Z"/></svg>