<?xml version="1.0" encoding="UTF-8"?><svg id="Layer_1" xmlns="http://www.w3.org/2000/svg" viewBox="0 0 180 80"><defs><style>.cls-1{fill:none;}.cls-2{fill:#5952ff;fill-rule:evenodd;}</style></defs><rect class="cls-1" width="180" height="80"/><rect class="cls-1" width="180" height="80"/><path class="cls-2" d="M163.53,39.01c.88,.93,1.32,2.18,1.32,3.76v8.35h-3.26v-7.4c0-.93-.27-1.67-.8-2.21-.53-.54-1.26-.81-2.17-.81-1.08,.02-1.93,.38-2.57,1.1-.63,.72-.95,1.63-.95,2.75v6.58h-3.24v-18.56h3.24v7.73c.91-1.75,2.52-2.64,4.81-2.68,1.53,0,2.73,.46,3.61,1.39h0Zm-18.85,1.49c-1.08,0-1.96,.37-2.63,1.1-.67,.73-1.01,1.68-1.01,2.85s.34,2.17,1.01,2.9c.67,.73,1.55,1.1,2.63,1.1,1.59,0,2.79-.52,3.59-1.58l2.02,1.67c-.6,.87-1.41,1.56-2.37,2-.98,.47-2.12,.7-3.41,.7s-2.48-.28-3.5-.85c-1.01-.55-1.83-1.38-2.38-2.39-.57-1.02-.85-2.2-.85-3.54s.29-2.54,.86-3.58c.55-1.01,1.38-1.85,2.39-2.4,1.02-.57,2.2-.85,3.53-.85,1.21,0,2.3,.21,3.25,.64s1.73,1.03,2.33,1.81l-1.97,1.88c-.9-.98-2.06-1.48-3.49-1.48h0Zm-8.96-2.75v13.38h-3.24v-2.13c-.46,.72-1.1,1.3-1.86,1.69-.76,.39-1.62,.59-2.6,.59-1.26,0-2.37-.29-3.33-.86-.96-.58-1.7-1.38-2.23-2.43-.53-1.04-.8-2.24-.8-3.59s.26-2.51,.8-3.54c.53-1.02,1.27-1.82,2.23-2.39,.95-.57,2.05-.85,3.3-.85,.98,0,1.85,.2,2.62,.59,.76,.39,1.4,.97,1.87,1.69v-2.15h3.24Zm-4.41,9.82c.68-.66,1.07-1.53,1.17-2.61v-.95c-.1-1.09-.49-1.96-1.17-2.61-.68-.66-1.54-.99-2.59-.99-1.11,0-2.02,.38-2.71,1.14-.7,.76-1.06,1.74-1.07,2.94,.01,1.2,.37,2.18,1.07,2.94,.7,.76,1.6,1.14,2.71,1.14,1.05,0,1.91-.33,2.59-.99Zm-12.89-8.09c1.07,1.22,1.61,2.93,1.61,5.13,0,.43,0,.76-.03,.98h-9.84c.22,.95,.66,1.7,1.33,2.24,.67,.54,1.5,.81,2.48,.81,.67,0,1.34-.13,1.96-.39,.62-.25,1.17-.63,1.63-1.11l1.74,1.83c-.67,.74-1.5,1.32-2.43,1.7-.96,.4-2.01,.6-3.18,.6-1.36,0-2.56-.28-3.6-.85-1.02-.55-1.85-1.38-2.4-2.39-.57-1.02-.85-2.2-.85-3.54s.29-2.52,.86-3.55c.56-1.02,1.39-1.85,2.4-2.41,1.03-.58,2.2-.86,3.51-.86,2.13,0,3.72,.61,4.8,1.83Zm-1.36,3.93c-.03-.98-.36-1.77-.97-2.35s-1.43-.88-2.44-.88c-.95,0-1.74,.29-2.38,.86-.64,.57-1.03,1.36-1.18,2.36h6.97Zm-13.73-5.07c.77-.46,1.67-.7,2.7-.71v3.15c-1.38-.08-2.48,.24-3.3,.96-.82,.72-1.23,1.71-1.23,2.94v6.45h-3.24v-13.38h3.24v2.58c.45-.87,1.06-1.53,1.83-1.99h0Zm-7.5,11.97c-1.06,.65-2.18,.98-3.34,.98s-2.08-.34-2.82-1.01c-.73-.68-1.1-1.67-1.1-2.99v-12.66l3.21-.38v4.06h3.81v2.38h-3.81v6.03c0,.62,.11,1.06,.35,1.31,.23,.26,.58,.39,1.05,.39,.5,0,1.13-.18,1.89-.55l.75,2.45h0Zm-13.25-12.56h3.21v7.5c0,4.38-3.04,6.01-6.13,6.01s-6.13-1.63-6.13-6.01v-7.5h3.21v7.62c0,1.68,1.25,3.04,2.92,3.04s2.92-1.36,2.92-3.04v-7.62h0Zm-15.71-3.18c1.39,.75,2.55,1.87,3.35,3.23,.81,1.37,1.22,2.89,1.22,4.55s-.41,3.19-1.22,4.56c-.81,1.37-1.96,2.49-3.35,3.26-1.42,.8-2.99,1.2-4.72,1.2s-3.3-.4-4.72-1.2c-1.39-.77-2.55-1.9-3.35-3.26-.81-1.38-1.22-2.9-1.22-4.56s.41-3.19,1.22-4.55c.8-1.36,1.96-2.47,3.35-3.23,1.42-.78,2.99-1.18,4.72-1.18s3.3,.39,4.72,1.17Zm-7.64,2.61c-.9,.51-1.65,1.25-2.17,2.15-.53,.91-.8,1.91-.8,3.01s.27,2.11,.81,3.03c.52,.9,1.27,1.65,2.17,2.18,.9,.53,1.89,.8,2.95,.8,1.03,0,2.03-.27,2.91-.8,.89-.53,1.62-1.28,2.13-2.18,.52-.92,.8-1.97,.78-3.03,0-1.1-.26-2.1-.78-3.01-.51-.89-1.24-1.63-2.13-2.15-.88-.52-1.89-.79-2.91-.79-1.04,0-2.06,.27-2.97,.79h0Zm-30.77-11.29c4.58,0,11.51,1.41,14.74,4.65,.82,.82,1.89,2.43,1.89,4.78,0,4.19-3.36,10.61-7.07,14.34-1.92,1.93-4.97,4.44-9.07,4.44s-7.08-2.74-7.96-3.63c-3.4-3.41-5.83-8.59-5.83-13.42,0-3.05,.87-5.71,3.07-7.93,2.04-2.05,5.57-3.24,10.24-3.24Zm5.67,16.7c1.55-1.56,1.97-3.47,1.97-4.52,0-.76-.2-1.89-1.15-2.84-1.46-1.47-3.08-1.88-4.84-1.88-2.23,0-3.73,.71-4.72,1.71-.78,.78-1.46,1.99-1.46,3.71s.91,3.37,1.9,4.36c.92,.92,2.36,1.6,3.81,1.6s2.95-.58,4.5-2.14Z"/></svg>