<svg id="Layer_1" data-name="Layer 1" xmlns="http://www.w3.org/2000/svg" viewBox="0 0 180 80"><defs><style>.cls-1{fill:none;}.cls-2{fill:#91c73d;}.cls-3{fill:#253750;}</style></defs><rect class="cls-1" width="180" height="80"/><rect class="cls-1" width="180" height="80"/><g id="home-page"><g id="Gravity-Mockup"><g id="NAV-BAR"><g id="logos_gravity_gravity-logo__rgb" data-name="logos/gravity/gravity-logo__rgb"><g id="payments"><path id="Shape" class="cls-2" d="M46.52,56.22a.18.18,0,0,1,.19-.18H49a2.15,2.15,0,1,1,0,4.3H47.79v2.28a.19.19,0,0,1-.19.18h-.89a.18.18,0,0,1-.19-.18h0Zm2.39,3a1,1,0,0,0,1-1,1,1,0,0,0-1-.94H47.78v1.94Zm7.94,3.39,3-6.51a.18.18,0,0,1,.16-.11h.1a.17.17,0,0,1,.17.11l3,6.51a.17.17,0,0,1-.17.25h-.84a.27.27,0,0,1-.28-.19l-.48-1H58.61l-.47,1a.29.29,0,0,1-.28.19H57A.17.17,0,0,1,56.85,62.56ZM61,60.5l-1-2.13h0l-.95,2.13Z"/><path id="Path" class="cls-2" d="M70.93,59.55l-2.21-3.23a.18.18,0,0,1,.16-.28h1a.2.2,0,0,1,.16.09l1.56,2.22,1.55-2.22a.17.17,0,0,1,.16-.09h1a.18.18,0,0,1,.15.28L72.2,59.54v3.09a.19.19,0,0,1-.19.18h-.9a.18.18,0,0,1-.18-.18h0V59.55Zm10.53-3.46a.17.17,0,0,1,.18-.15h.15A.19.19,0,0,1,82,56L84.1,60.6h0L86.27,56a.16.16,0,0,1,.16-.1h.16a.17.17,0,0,1,.18.15l1.14,6.49a.17.17,0,0,1-.17.23h-.89a.22.22,0,0,1-.18-.15L86.1,59h0l-1.7,3.81a.16.16,0,0,1-.17.1H84a.16.16,0,0,1-.16-.1L82.14,59h0l-.57,3.67a.2.2,0,0,1-.17.15h-.88a.18.18,0,0,1-.19-.23l1.16-6.49Zm13.23.13a.18.18,0,0,1,.19-.18h4a.18.18,0,0,1,.19.18V57a.19.19,0,0,1-.19.19H96v1.58h2.41a.2.2,0,0,1,.18.19v.8a.18.18,0,0,1-.18.18H96v1.69h2.88a.19.19,0,0,1,.19.19v.79a.19.19,0,0,1-.19.18h-4a.18.18,0,0,1-.19-.18h0Zm11.17-.1a.19.19,0,0,1,.18-.18h.24l4,4.28h0v-4a.19.19,0,0,1,.18-.19h.9a.19.19,0,0,1,.18.19v6.5a.19.19,0,0,1-.18.18h-.23l-4.07-4.44h0v4.16a.19.19,0,0,1-.18.19H106a.19.19,0,0,1-.18-.19V56.12Zm13.88,1.08h-1.48a.18.18,0,0,1-.19-.18h0v-.79a.18.18,0,0,1,.19-.18h4.24a.18.18,0,0,1,.19.18V57a.19.19,0,0,1-.19.19H121v5.43a.18.18,0,0,1-.18.18h-.91a.18.18,0,0,1-.18-.18Zm9,4.66.35-.6a.22.22,0,0,1,.3-.08h0a3.25,3.25,0,0,0,1.46.6.81.81,0,0,0,.89-.74c0-.5-.42-.83-1.23-1.16s-1.83-.94-1.83-2.09A1.93,1.93,0,0,1,130.9,56a3.52,3.52,0,0,1,1.95.65.22.22,0,0,1,.06.31l-.37.55c-.08.12-.22.2-.34.12a3.11,3.11,0,0,0-1.35-.53.78.78,0,0,0-.86.68c0,.45.36.76,1.15,1.08.94.37,2,.94,2,2.18a2.05,2.05,0,0,1-2.24,1.92,3.07,3.07,0,0,1-2.13-.76c-.08-.09-.13-.13-.05-.29Z"/></g><g id="gravity"><path id="Shape-2" data-name="Shape" class="cls-3" d="M42.6,26.24V46.4C42.6,58.28,33.81,61,29.15,61A13,13,0,0,1,16.76,52.8h6.75a7.51,7.51,0,0,0,6.08,2.76c3.33,0,7.24-2.32,7.55-7.7l-.09-.08A9.36,9.36,0,0,1,29,51.73a13.06,13.06,0,0,1-12.6-13.39,12.81,12.81,0,0,1,12.56-13,8.91,8.91,0,0,1,7.86,3.87h.08v-3ZM29.46,30.82a7.34,7.34,0,0,0-7.19,7.56,7.54,7.54,0,0,0,7.37,7.92c3.55,0,7-3,7-8C36.7,34.83,33.85,30.82,29.46,30.82Z"/><path id="Path-2" data-name="Path" class="cls-3" d="M46.7,26.24h5.41v2.18h.09c1.11-1.6,2.22-3,5.29-3H58v5.74c-5.37.22-5.37,4.44-5.37,5.91V50.93H46.7Z"/><path id="Shape-3" data-name="Shape" class="cls-3" d="M84.63,50.93H79.21V47.86a12.14,12.14,0,0,1-8.61,3.87c-6.35,0-12-5.07-12-13.3,0-7.56,5.5-13,12.34-13a10.51,10.51,0,0,1,8.16,4h.09V26.24h5.42ZM71.85,30.82c-4.84,0-7.33,4.19-7.33,7.88a7.37,7.37,0,0,0,7.33,7.6c4.08,0,7.19-3.2,7.19-7.78,0-5.11-3.69-7.7-7.19-7.7Z"/><path id="Path-3" data-name="Path" class="cls-3" d="M87.19,26.24h6.39l6,16.37h.14l5.59-16.37h6.48l-10,24.69H97.13Z"/><path id="Rectangle" class="cls-3" d="M114.27,26.24h5.9V50.93h-5.9Z"/><path id="Path-4" data-name="Path" class="cls-3" d="M126.73,31.49h-2.88V26.25h2.88V18h5.91v8.23h3.55v5.25h-3.55V50.93h-5.91Zm20.92,17.13-9-22.38h6.75L151,42.08l6-15.84h6.7L149.47,59.16h-6.34Z"/><path id="dot" class="cls-2" d="M120.46,20.35a3.24,3.24,0,0,1-3.24,3.25h0A3.25,3.25,0,0,1,114,20.35h0a3.26,3.26,0,0,1,3.25-3.26h0a3.25,3.25,0,0,1,3.25,3.25Z"/></g></g></g></g></g></svg>