<?xml version="1.0" encoding="UTF-8"?><svg id="Layer_1" xmlns="http://www.w3.org/2000/svg" viewBox="0 0 180 80"><defs><style>.cls-1{fill:none;}.cls-2{fill:#fff;}</style></defs><rect class="cls-1" width="180" height="80"/><g id="Layer_1-2"><g id="Group_164"><polygon class="cls-2" points="35.9 52.71 32.81 52.71 22.8 33.47 12.79 52.71 9.7 52.71 21.25 30.5 22.8 27.52 35.9 52.71"/><g id="Group_165"><g id="Group_164-2"><path id="Path_180" class="cls-2" d="M53.76,30.27c3.77-.01,7.22,2.13,8.88,5.52l.09.17h2.85l-.17-.43c-.84-2.11-2.24-3.95-4.05-5.33-5.51-4.19-13.38-3.13-17.57,2.38-1.3,1.7-2.14,3.71-2.44,5.83-.97,6.85,3.79,13.2,10.65,14.18.58.08,1.17.12,1.76.12,4.97,0,9.47-2.93,11.48-7.48l.19-.43h-2.9l-.09.16c-2.64,4.79-8.66,6.54-13.46,3.9s-6.54-8.66-3.9-13.46c1.74-3.16,5.07-5.13,8.68-5.13h0Z"/><path id="Path_181" class="cls-2" d="M93.31,52.71h-3.27l-6.03-8.19,1.63-2.22,7.66,10.4h0Z"/><rect id="Rectangle_141" class="cls-2" x="102" y="27.67" width="2.63" height="25.03"/><path id="Path_182" class="cls-2" d="M126.2,27.58c-6.94,0-12.56,5.63-12.56,12.56s5.63,12.56,12.56,12.56,12.56-5.63,12.56-12.56h0c0-6.94-5.63-12.56-12.56-12.56h0ZM126.2,49.95c-5.42,0-9.81-4.39-9.81-9.81s4.39-9.81,9.81-9.81,9.81,4.39,9.81,9.81c0,5.42-4.39,9.8-9.81,9.81h0Z"/><polygon class="cls-2" points="170.3 27.48 170.3 52.71 167.58 52.71 167.58 34.07 158.79 42.85 149.82 33.88 149.82 52.71 147.09 52.71 147.09 27.29 158.79 38.99 170.3 27.48"/><path id="Path_185" class="cls-2" d="M79.72,34.26h0l-4.82-6.54h-3.27l8.86,12.03-9.54,12.95h3.27l9.54-12.94-4.04-5.5s0,0,0,0Z"/><path id="Path_186" class="cls-2" d="M85.63,37.21l6.99-9.49h-3.26l-5.36,7.28,1.63,2.22h0Z"/></g></g></g></g></svg>