<svg id="Layer_1" data-name="Layer 1" xmlns="http://www.w3.org/2000/svg" viewBox="0 0 180 80"><defs><style>.cls-1{fill:none;}.cls-2{fill:#329fd9;}.cls-3{fill:#454545;}</style></defs><rect class="cls-1" width="180" height="80"/><rect class="cls-1" width="180" height="80"/><rect id="bounding_box" data-name="bounding box" class="cls-1" x="136.54" y="25.81" width="105.99" height="105.99"/><path class="cls-2" d="M42.3,54.4a14,14,0,0,1-8.7-3.1,15.63,15.63,0,0,0,3.6-6.7A6.55,6.55,0,0,0,42.3,47a6.9,6.9,0,0,0,0-13.8,6.55,6.55,0,0,0-5.1,2.4,18.11,18.11,0,0,0-3.6-6.7,13.41,13.41,0,0,1,8.7-3.1,14.3,14.3,0,0,1,0,28.6Z"/><path class="cls-2" d="M36.7,40H27.2A15.24,15.24,0,0,1,42.3,24.5v9.8A5.61,5.61,0,0,0,36.7,40Z"/><path class="cls-3" d="M21.5,33.1a6.9,6.9,0,0,0,0,13.8,6.55,6.55,0,0,0,5.1-2.4,18.11,18.11,0,0,0,3.6,6.7,13.41,13.41,0,0,1-8.7,3.1,14.35,14.35,0,0,1,0-28.7,14,14,0,0,1,8.7,3.1,15.63,15.63,0,0,0-3.6,6.7,6.64,6.64,0,0,0-5.1-2.3Z"/><path class="cls-3" d="M21.5,55.5V45.7A5.68,5.68,0,0,0,27.1,40h9.5A15.18,15.18,0,0,1,21.5,55.5Z"/><polygon class="cls-3" points="140.1 49.3 140.1 33.1 138.4 33.1 138.4 30.9 142.6 30.9 142.6 49.4 140.1 49.3"/><path class="cls-3" d="M78.7,35.8A5.41,5.41,0,0,0,75.5,34a6,6,0,0,0-7.1,4.9,6.15,6.15,0,0,0,4.8,7.2,5.5,5.5,0,0,0,3.6-.4,10.29,10.29,0,0,0,1.5,2.7,8.9,8.9,0,0,1-5.6.8,9.22,9.22,0,0,1,3.5-18.1A8.23,8.23,0,0,1,81.1,34a6.09,6.09,0,0,0-2.4,1.8Z"/><path class="cls-3" d="M111.1,49.3V41.8a6,6,0,0,0-.6-3.1,2.37,2.37,0,0,0-4,.2,4.7,4.7,0,0,0-.8,2.9v7.5h-2.8V41.5q0-3.9-2.7-3.9a2.31,2.31,0,0,0-2,1.2,5.57,5.57,0,0,0-.8,3v7.5H94.7V35.5h2.7v2.2h.1a4.65,4.65,0,0,1,4.3-2.5,4.07,4.07,0,0,1,2.4.8,3.09,3.09,0,0,1,1.1,2.1,4.87,4.87,0,0,1,4.5-2.9c3,0,4.2,1.9,4.2,5.6v8.5Z"/><path class="cls-3" d="M133.2,49.3V41.8a6,6,0,0,0-.6-3.1,2.37,2.37,0,0,0-4,.2,4.7,4.7,0,0,0-.8,2.9v7.5H125V41.5q0-3.9-2.7-3.9a2.31,2.31,0,0,0-2,1.2,5.57,5.57,0,0,0-.8,3v7.5h-2.7V35.5h2.7v2.2h.1a4.65,4.65,0,0,1,4.3-2.5,4.07,4.07,0,0,1,2.4.8,3.09,3.09,0,0,1,1.1,2.1,4.87,4.87,0,0,1,4.5-2.9c3,0,4.2,1.9,4.2,5.6v8.5Z"/><path class="cls-3" d="M85.8,35.4a6.9,6.9,0,1,0,6.7,6.9A6.81,6.81,0,0,0,85.8,35.4Zm0,11.3a4.4,4.4,0,1,1,4.3-4.4A4.35,4.35,0,0,1,85.8,46.7Z"/><path class="cls-3" d="M151.9,31c-2.7,0-6.2,1.8-6.2,9.2h0c0,7.4,3.8,9.2,6.2,9.2,2.8,0,6.2-1.8,6.2-9.2h0C158.1,32.8,154.6,31,151.9,31Zm0,16c-2.1,0-3.6-2.1-3.6-6.8s1.5-6.8,3.6-6.8,3.6,2.1,3.6,6.8S154,47,151.9,47Z"/><path class="cls-3" d="M172.5,40.1c0-7.4-3.5-9.2-6.2-9.2s-6.2,1.8-6.2,9.2h0c0,7.4,3.8,9.2,6.2,9.2,2.8.1,6.2-1.8,6.2-9.2ZM166.3,47c-2.1,0-3.6-2.1-3.6-6.8s1.5-6.8,3.6-6.8,3.6,2.1,3.6,6.8S168.4,47,166.3,47Z"/></svg>