<svg id="Layer_1" data-name="Layer 1" xmlns="http://www.w3.org/2000/svg" viewBox="0 0 180 80"><defs><style>.cls-1{fill:none;}.cls-2{fill:#213743;}.cls-2,.cls-3{fill-rule:evenodd;}.cls-3{fill:#1292ee;}</style></defs><rect class="cls-1" width="180" height="80"/><rect class="cls-1" width="180" height="80"/><path class="cls-2" d="M51.72,29.36a9.67,9.67,0,0,1,3.79,0l.05,0V50.25h-.05a9.67,9.67,0,0,1-3.79,0h-.06V41.78H43.07v8.47h0a9.53,9.53,0,0,1-1.91.2,9.09,9.09,0,0,1-1.88-.2h0V29.38l0,0a9.3,9.3,0,0,1,3.79,0l0,0v9.07h8.59V29.38Zm13.36,5.87a6.8,6.8,0,0,1,5.21,2c1.35,1.51,1.9,3.75,1.6,6.51v.07H61.43c0,2.81,1.26,4.17,3.74,4.17,1.77,0,3-.88,3.23-2.34v-.05h.06a6.54,6.54,0,0,1,3.18.27l0,0V46c-.26,2.45-2.4,4.93-6.56,4.93a6.83,6.83,0,0,1-5.53-2.24,8.84,8.84,0,0,1-1.71-5.8C57.89,38.08,60.58,35.23,65.08,35.23ZM65,37.94c-2.21,0-3.51,1.35-3.62,3.71h7a3.7,3.7,0,0,0-.85-2.77A3.32,3.32,0,0,0,65,37.94Zm9.44-8.58a8.22,8.22,0,0,1,3.56,0l0,0V50.25h0a8,8,0,0,1-3.56,0h0V29.38Zm13.89,5.87c4.27,0,6.71,2.87,6.71,7.85s-2.45,7.79-6.56,7.79a7.38,7.38,0,0,1-4-1.17v6.95l0,0a9.05,9.05,0,0,1-1.78.19,8.9,8.9,0,0,1-1.78-.19l-.06,0V35.89l.06,0a4.07,4.07,0,0,1,2.49,0l0,0,.22,1.1A8.09,8.09,0,0,1,88.34,35.23ZM84.4,39.34V46.8a5.47,5.47,0,0,0,3.16,1.08c2.55,0,3.9-1.65,3.9-4.75s-1.37-4.89-3.86-4.89a5.52,5.52,0,0,0-3.2,1.1ZM110.71,39c2.89,1.12,5.9,2.28,5.92,5.79,0,5.28-5,6.08-8,6.08s-5.48-.8-6.94-2.37a5.64,5.64,0,0,1-1.49-4.34v0l0,0A9.13,9.13,0,0,1,104,44l0,0v0a2.82,2.82,0,0,0,.68,2.31,5,5,0,0,0,3.79,1.26,4.66,4.66,0,0,0,3.41-1,2.47,2.47,0,0,0,.68-1.88c0-1.51-1.73-2.08-4.54-3.06l-1.9-.68-.32-.1c-2.06-.75-5.53-2-5.5-5.75s3.1-6,8.15-6h.09c2.72,0,4.87.76,6.21,2.19a5.82,5.82,0,0,1,1.53,4.41v0l-.06,0a9,9,0,0,1-3.82.09l0,0v0a3.17,3.17,0,0,0-.75-2.48,4.26,4.26,0,0,0-3.22-1.1,4.6,4.6,0,0,0-3.36,1.12,2.41,2.41,0,0,0-.7,1.82c.06,1.53,1.76,2.15,4.59,3.16l1.75.64Zm15-.76c-2.56,0-3.75,1.53-3.75,4.8s1.19,4.8,3.75,4.8A3,3,0,0,0,129,45.41v-.06h0a6.49,6.49,0,0,1,3.27.2l.06,0v0a5.51,5.51,0,0,1-1.73,3.54,7,7,0,0,1-4.93,1.71c-4.69,0-7.29-2.78-7.29-7.81s2.62-7.85,7.36-7.85a7,7,0,0,1,4.86,1.66,5.55,5.55,0,0,1,1.76,3.73v.06l-.05,0a7.64,7.64,0,0,1-3.31.19h0v0c-.13-1-.7-2.58-3.21-2.58Zm15.62-3c4.68,0,7.24,2.78,7.24,7.85s-2.56,7.81-7.24,7.81-7.24-2.78-7.24-7.81S136.7,35.23,141.37,35.23Zm3.72,7.83c0-3.24-1.21-4.82-3.72-4.82s-3.71,1.53-3.71,4.82,1.21,4.8,3.71,4.8,3.72-1.58,3.72-4.8Zm15.23-7.17a7.15,7.15,0,0,1,3.56,0l.05,0V50.25h-.05a4.78,4.78,0,0,1-2.6,0h0l-.35-1.64a7.1,7.1,0,0,1-5,2.24c-3.32,0-5.25-2-5.25-5.58V35.91l.06,0a7.65,7.65,0,0,1,3.56,0l0,0v8.54c0,2.35.75,3.34,2.49,3.34a5.17,5.17,0,0,0,3.49-1.47V35.91Zm14.82,11.56a5.43,5.43,0,0,1,0,2.94l0,0h0a14.23,14.23,0,0,1-2.69.31,4.49,4.49,0,0,1-2.9-.82c-1.24-1-1.35-2.85-1.35-4.63l0-6.38h-1.83l0-.06a6.48,6.48,0,0,1,0-3l0,0h1.83l0-3.95.05,0a8.22,8.22,0,0,1,3.56,0l.05,0v3.95h2.9l0,0a7.76,7.76,0,0,1,0,3l0,.05h-2.9v6.65a2.18,2.18,0,0,0,.59,1.78c.5.39,1.32.43,2.74.09l.07,0Z"/><path class="cls-3" d="M16.58,33.09l-9.78,10a7.9,7.9,0,0,1-2.14-5,7.43,7.43,0,0,1,2.14-5l9.93-10a7.31,7.31,0,0,1,2,5,7.46,7.46,0,0,1-2.14,5Zm4.3,13.82,9.88-10a7.52,7.52,0,0,1,2,5,7.4,7.4,0,0,1-2.16,5l-9.88,10a7.24,7.24,0,0,1-2-5,7.38,7.38,0,0,1,2.16-5Zm-.24-13.82,2.92-2.92,7.21-7.07a7.1,7.1,0,0,1,2,4.92,7.24,7.24,0,0,1-2.15,4.91L23.56,40l-2.92,2.92-4.15,4.15L13.57,50,6.66,56.9a7.1,7.1,0,0,1-2-4.92,7.25,7.25,0,0,1,2.16-4.91l6.91-6.92,2.76-2.92Z"/></svg>