<?xml version="1.0" encoding="UTF-8"?><svg id="Layer_1" xmlns="http://www.w3.org/2000/svg" xmlns:xlink="http://www.w3.org/1999/xlink" viewBox="0 0 180 80"><defs><style>.cls-1{fill:none;}.cls-2{fill:url(#linear-gradient);}.cls-3{fill:#fff;}</style><linearGradient id="linear-gradient" x1="606.56" y1="5474.44" x2="514.11" y2="5566.89" gradientTransform="translate(-5430.67 -520.33) rotate(90) scale(1 -1)" gradientUnits="userSpaceOnUse"><stop offset="0" stop-color="#b0084d"/><stop offset="1" stop-color="#ff4f8b"/></linearGradient></defs><rect class="cls-1" width="180" height="80"/><rect class="cls-1" width="180" height="80"/><g id="Reference"><rect id="Pink_Gradient" class="cls-2" x="57.31" y="7.31" width="65.37" height="65.37"/><g id="Icon_Test"><path class="cls-3" d="M105.67,37.82c-.02-2.17-1.37-4.11-3.41-4.86-1.53-.51-3.2-.23-4.49,.73-.57-1.24-1.35-2.37-2.32-3.33-3.03-3.11-7.66-4.02-11.64-2.28-3.69,1.72-6.08,5.39-6.15,9.46v.47c-2.15,.65-3.87,2.26-4.66,4.36h1.9c.81-1.49,2.23-2.55,3.89-2.9,.4-.1,.67-.46,.65-.87l-.07-1.11c.11-3.34,2.07-6.35,5.08-7.8,3.33-1.46,7.22-.69,9.75,1.92,1.09,1.1,1.91,2.44,2.41,3.91,.11,.3,.38,.52,.7,.57,.31,.04,.63-.09,.82-.34,.82-1.1,2.25-1.56,3.55-1.12,1.44,.48,2.26,1.88,2.26,3.78-.07,.47,.24,.91,.71,.99,1.6,.28,5.35,1.39,5.35,5.84,0,5.31-5.23,5.87-5.39,5.88h-18.09v1.74h18.2c2.44-.22,7.04-2.09,7.04-7.63,0-4.42-3.03-6.69-6.1-7.41Zm-35.74,15.04h-1.74v-1.74h1.74v1.74Zm7.84,0h-6.1v-1.74h6.1v1.74Zm6.97,0h-5.23v-1.74h5.23v1.74Zm-7.84-3.49h-7.84v-1.74h7.84v1.74Zm16.56,0h-10.46v-1.74h10.46v1.74Zm-8.72-3.49h-5.23v-1.74h5.23v1.74Zm-6.97,0h-6.97v-1.74h6.97v1.74Zm3.49,3.49h-2.61v-1.74h2.61v1.74Z"/></g></g></svg>