<?xml version="1.0" encoding="UTF-8"?><svg id="Layer_1" xmlns="http://www.w3.org/2000/svg" viewBox="0 0 180 80"><defs><style>.cls-1{fill:none;}.cls-2{fill:#fff;}.cls-3{fill:#e20017;}</style></defs><rect class="cls-1" width="180" height="80"/><path class="cls-2" d="M29.72,31.89h-5.99v16.24h2.66v-5.29h3.32c2.85.1,5.24-2.14,5.33-4.98,0-.16,0-.32,0-.48.17-2.85-2-5.31-4.86-5.48-.16,0-.31-.01-.47,0ZM32.43,37.4c.09,1.47-1.02,2.73-2.49,2.82-.07,0-.15,0-.22,0h-3.33v-5.68h3.32c1.48-.03,2.69,1.15,2.72,2.62,0,.08,0,.15,0,.23Z"/><path class="cls-2" d="M45.12,41.34h7.2v-2.66h-7.2v-4.13h7.36v-2.64h-10.01v16.21h10.04v-2.64h-7.38v-4.15Z"/><path class="cls-2" d="M71.32,37.13c.1-2.8-2.09-5.14-4.89-5.24-.15,0-.31,0-.46,0h-5.96v16.24h2.61v-13.58h3.35c1.43-.07,2.64,1.03,2.71,2.46.07,1.43-1.03,2.64-2.46,2.71-.08,0-.17,0-.25,0h-2.85v1.32l5.88,7.08h3.42l-5.07-6.03c2.36-.46,4.04-2.57,3.96-4.97Z"/><path class="cls-2" d="M84.72,38.66c-1.9-.18-3.36-.43-3.45-1.84-.06-.48.07-.96.35-1.36.71-.76,1.71-1.18,2.75-1.14,1.32-.01,2.78.55,3.08,1.89l.03.14,2.6-.1-.03-.19c-.45-3.19-3.28-4.32-5.57-4.32-1.9-.06-3.72.74-4.95,2.18-.69.89-1.01,2.02-.9,3.14h0c.29,3.69,3.86,4.05,5.78,4.24,1.69.17,3.11.39,3.35,1.43.04.17.06.34.06.51,0,1.49-1.76,2.42-3.39,2.42-1.49,0-3.12-.78-3.26-2.09h0l-.03-.41-2.66.05.03.62c.3,2.89,3.26,4.45,5.89,4.45,2.99,0,6.07-1.87,6.07-5.01,0-.36-.04-.73-.12-1.08-.61-2.56-3.19-3.21-5.63-3.52Z"/><path class="cls-2" d="M103.02,31.69l-6.52,16.44h2.85l.04-.11c.38-1.02.99-2.51,1.86-4.57h5.47l1.91,4.68h2.82l-6.51-16.44h-1.91ZM105.71,40.95h-3.47l1.75-4.92,1.71,4.92Z"/><path class="cls-2" d="M124.45,31.92h-5.87v16.21h5.87c2.27.08,4.46-.84,5.99-2.53,1.32-1.55,2.03-3.53,2-5.57.03-2.04-.68-4.02-2-5.57-1.52-1.69-3.71-2.62-5.99-2.54ZM129.82,40.03c.15,2.86-2.05,5.31-4.91,5.46-.15,0-.3,0-.45,0h-3.23v-10.94h3.23c2.87-.1,5.27,2.14,5.37,5.01,0,.16,0,.31,0,.47h0Z"/><path class="cls-2" d="M153.86,34.15c-3.17-3.23-8.37-3.28-11.6-.11-.04.04-.07.07-.11.11h0c-3.21,3.25-3.21,8.48,0,11.73,3.17,3.23,8.37,3.28,11.6.11.04-.04.08-.07.11-.11,3.21-3.25,3.21-8.48,0-11.73h0ZM153.61,40.01c.01,3.12-2.5,5.65-5.62,5.66-3.12-.03-5.63-2.59-5.6-5.72.02-1.48.61-2.89,1.65-3.94,1.04-1.06,2.46-1.67,3.94-1.67,3.12.01,5.63,2.55,5.62,5.66Z"/><path class="cls-3" d="M7.93,50.77h6.93v-2.66h-4.27v-16.22h4.27v-2.66h-6.93v21.53Z"/><path class="cls-3" d="M172.07,50.77h-6.93v-2.66h4.27v-16.22h-4.27v-2.66h6.93v21.53Z"/></svg>