<?xml version="1.0" encoding="UTF-8"?><svg id="Layer_1" xmlns="http://www.w3.org/2000/svg" viewBox="0 0 180 80"><defs><style>.cls-1{fill:none;}.cls-2{fill:#0073ff;}</style></defs><rect class="cls-1" width="180" height="80"/><rect class="cls-1" width="180" height="80"/><g><path class="cls-2" d="M73.99,31.05v3.51h-9.45v3.83h8.7v3.53h-8.7v7.37h-4.54V31.05h13.99Z"/><path class="cls-2" d="M77.71,31.02h3.93v3.09h-3.93v-3.09Zm0,4.75h3.93v13.51h-3.93v-13.51Z"/><path class="cls-2" d="M84.44,35.8h4.19c1.66,5.99,1.94,7.22,2.37,9.79,.54-2.99,.62-3.33,1.43-6.51l.83-3.3h4.08l-4.38,13.48h-4.15l-4.37-13.47Z"/><path class="cls-2" d="M112.4,45.84c-.46,.74-1.01,1.41-1.63,2.02-1.39,1.26-3.21,1.94-5.09,1.91-4.01,0-6.82-2.58-6.82-6.97,0-3.26,1.6-7.44,6.92-7.44,1.82-.06,3.58,.65,4.86,1.94,1.76,1.88,1.88,4.52,1.91,6.04h-9.63c0,1.68,.92,3.36,3.09,3.36s2.92-1.43,3.41-2.37l2.97,1.53Zm-3.96-5c-.03-.7-.3-1.38-.75-1.91-.53-.49-1.22-.76-1.94-.74-.76,0-1.49,.31-2.01,.88-.43,.51-.71,1.12-.8,1.78h5.5Z"/><path class="cls-2" d="M116.49,31.9h3.96v4.21h2.61v2.43h-2.63v6.1c0,.83,0,1.54,1.03,1.54l1.43-.05v3.09c-.69,.12-1.39,.19-2.09,.21-1.38,0-2.87-.07-3.75-1.32-.54-.8-.57-1.76-.57-3.04v-6.56h-1.96v-2.43h1.96l.02-4.18Z"/><path class="cls-2" d="M130.2,37.19c1.08-.95,2.46-1.49,3.9-1.54v3.53l-1.31,.21c-1.91,.33-2.5,.62-2.5,2.32v7.57h-3.96v-13.51h3.88v1.42Z"/><path class="cls-2" d="M136.98,39.63c-.02-1.17,.51-2.27,1.43-2.99,1.25-.97,2.84-1.18,4.42-1.18s5.67,.38,5.67,3.87v7.81c0,1.45,.07,1.66,.39,2.12h-3.87v-1.25c-1.03,.75-2.14,1.61-4.12,1.61-3.09,0-4.41-2.22-4.41-4.12,0-2.17,1.73-3.41,2.84-3.87,1.74-.56,3.52-.98,5.32-1.25v-.72c-.05-.62-.1-1.66-1.54-1.66-1.76,0-1.99,1.09-2.09,1.58l-4.01,.07Zm5.04,4.06c-.67,.26-1.71,.62-1.71,1.67,.04,.79,.72,1.4,1.51,1.37,.49-.02,.96-.17,1.37-.44,1.31-.83,1.37-2.06,1.4-3.46l-2.57,.86Z"/><path class="cls-2" d="M157.01,37.01c.37-.45,.83-.81,1.35-1.06,.78-.33,1.61-.5,2.45-.51,.83-.02,1.66,.16,2.41,.54,1.42,.75,1.78,1.96,1.78,4.06v9.24h-3.95v-7.59c.07-.68,0-1.36-.18-2.01-.32-.68-1.03-1.09-1.78-1.03-2.09,0-2.09,1.68-2.09,3.36v7.28h-3.96v-13.46h4.01l-.03,1.19Z"/><path class="cls-2" d="M35.74,40.02h4.19c.35,0,.62-.28,.62-.62,0-.09-.02-.17-.05-.25l-7.21-19.63c-.09-.24-.32-.39-.57-.4h-4.21c-.35,0-.62,.28-.62,.62,0,.07,.01,.14,.04,.21l7.22,19.68c.1,.24,.33,.39,.59,.39Z"/><path class="cls-2" d="M35,60.88h4.19c.35,0,.62-.28,.62-.62,0-.07-.01-.14-.04-.21L24.91,19.53c-.09-.24-.32-.4-.57-.4h-4.19c-.35,0-.62,.28-.62,.62,0,.07,.01,.14,.04,.21l14.87,40.52c.09,.23,.32,.39,.57,.39Z"/><path class="cls-2" d="M26.74,60.88h4.19c.33,0,.6-.25,.62-.57,0-.08-.01-.16-.04-.24l-7.24-19.65c-.09-.24-.32-.39-.57-.4h-4.21c-.33,.02-.59,.29-.59,.62,0,.07,.01,.14,.04,.2l7.21,19.66c.1,.24,.33,.39,.59,.39Z"/><path class="cls-2" d="M36.25,19.97l3.38,9.19c.09,.24,.32,.39,.57,.4h4.18c.35,0,.62-.28,.62-.62,0-.07-.01-.14-.04-.21l-3.38-9.2c-.09-.24-.32-.39-.57-.4h-4.19c-.35,0-.62,.28-.62,.62,0,.08,.02,.15,.06,.22Z"/><path class="cls-2" d="M19.01,60.88h4.19c.35,0,.62-.28,.62-.62,0-.07-.01-.14-.04-.21l-3.4-9.22c-.09-.24-.32-.4-.57-.4h-4.18c-.35,0-.62,.28-.62,.62,0,.07,.01,.15,.04,.22l3.38,9.22c.1,.24,.33,.4,.59,.39Z"/></g></svg>