<svg id="Layer_1" data-name="Layer 1" xmlns="http://www.w3.org/2000/svg" viewBox="0 0 180 80"><defs><style>.cls-1{fill:none;}.cls-2{fill:#0c2838;}.cls-3{fill:#40877e;}.cls-4{fill:#32d17e;}.cls-5{fill:#d9e506;}.cls-6{fill:#6984d1;}</style></defs><rect class="cls-1" width="180" height="80"/><rect class="cls-1" width="180" height="80"/><g id="_Gruppe_" data-name=" Gruppe "><path id="_Zusammengesetzter_Pfad_" data-name=" Zusammengesetzter Pfad " class="cls-2" d="M59.86,64.2v.25H51.25c.1,2,1.53,2.87,3.45,2.87A4.39,4.39,0,0,0,58.15,66L59.3,67.5a7,7,0,0,1-4.72,1.56c-3.12,0-5.41-1.69-5.41-4.77V64a5,5,0,0,1,4.88-5.12h.49a4.88,4.88,0,0,1,5.32,4.39A4.51,4.51,0,0,1,59.86,64.2ZM57.69,63a2.75,2.75,0,0,0-3-2.46h-.11A3,3,0,0,0,51.33,63Z"/><path id="_Zusammengesetzter_Pfad_2" data-name=" Zusammengesetzter Pfad 2" class="cls-2" d="M79,63.67v5.19h-2.3V63.62c0-1.82-.76-2.79-2.59-2.79A3.28,3.28,0,0,0,71.42,62v6.9h-2.3V63.32a2.15,2.15,0,0,0-1.79-2.46,1.89,1.89,0,0,0-.67,0,3.44,3.44,0,0,0-2.82,1.27v6.73h-2.3V59.1h2.05l.13,1.45a4.49,4.49,0,0,1,3.67-1.64,3.56,3.56,0,0,1,3.34,1.82,4.87,4.87,0,0,1,3.77-1.82C77.49,58.91,79,60.52,79,63.67Z"/><path id="_Zusammengesetzter_Pfad_3" data-name=" Zusammengesetzter Pfad 3" class="cls-2" d="M88.93,68.86a6.46,6.46,0,0,1-.21-1.15,5,5,0,0,1-3.81,1.4c-2.11,0-4.24-.86-4.24-3.09,0-2.45,1.92-3.21,4.35-3.21a9.14,9.14,0,0,1,3.64.76V63c0-1.75-1.25-2.3-3-2.3a5.25,5.25,0,0,0-3.44,1L81.44,60a9,9,0,0,1,4.43-1c2.76,0,4.84,1.15,4.78,4.22v3.12a10.34,10.34,0,0,0,.25,2.6Zm-.27-2.6V64.88a9.27,9.27,0,0,0-3.13-.57c-1.74,0-2.67.31-2.67,1.6s1.14,1.52,2.58,1.52A4.58,4.58,0,0,0,88.66,66.26Z"/><path id="_Zusammengesetzter_Pfad_4" data-name=" Zusammengesetzter Pfad 4" class="cls-2" d="M99.28,59.28,99,61.41a2.4,2.4,0,0,0-1.33-.36,2.59,2.59,0,0,0-2.37,2v5.81H93V59.1H95l.13,2.22A2.74,2.74,0,0,1,97.91,59,3.38,3.38,0,0,1,99.28,59.28Z"/><path id="_Zusammengesetzter_Pfad_5" data-name=" Zusammengesetzter Pfad 5" class="cls-2" d="M99.89,67.87l.75-1.85a5.92,5.92,0,0,0,3.93,1.32c1.79,0,2.88-.41,2.88-1.48s-1.23-1-3.29-1.24c-2.41-.29-3.85-.71-3.85-2.49s1.4-3.22,4.42-3.22a9.85,9.85,0,0,1,4.22.83l-.65,1.7a6.53,6.53,0,0,0-3.54-.81c-1.61,0-2.52.44-2.52,1.35s1.24.84,3.22,1.07c1.78.21,3.88.47,3.88,2.7S107.57,69,104.7,69A9.2,9.2,0,0,1,99.89,67.87Z"/><path id="_Zusammengesetzter_Pfad_6" data-name=" Zusammengesetzter Pfad 6" class="cls-2" d="M121.47,59.1A131.51,131.51,0,0,1,114.58,73l-2.17-.68a24.36,24.36,0,0,0,2.1-3.55L110,59.1h2.43l3.3,8,3.33-8Z"/><path id="_Zusammengesetzter_Pfad_7" data-name=" Zusammengesetzter Pfad 7" class="cls-2" d="M121.38,67.87l.75-1.85a5.9,5.9,0,0,0,3.93,1.32c1.8,0,2.88-.41,2.88-1.48s-1.23-1-3.29-1.24c-2.42-.29-3.85-.71-3.85-2.49s1.4-3.22,4.42-3.22a9.88,9.88,0,0,1,4.22.83l-.65,1.7a6.53,6.53,0,0,0-3.54-.81c-1.61,0-2.52.44-2.52,1.35s1.24.84,3.22,1.07c1.79.21,3.88.47,3.88,2.7S129.06,69,126.14,69A9.21,9.21,0,0,1,121.38,67.87Z"/></g><polygon class="cls-3" points="97.32 26.52 97.32 33.04 82.68 26.52 82.68 20.01 97.32 26.52"/><polygon class="cls-4" points="104.64 13.49 75.36 26.52 75.36 20.01 104.64 6.97 104.64 13.49"/><polygon class="cls-5" points="82.68 26.52 82.68 33.04 97.32 26.52 97.32 20.01 82.68 26.52"/><polygon class="cls-6" points="79.02 42.82 79.02 49.34 100.98 39.56 100.98 33.04 79.02 42.82"/></svg>