<?xml version="1.0" encoding="UTF-8"?><svg id="Layer_1" xmlns="http://www.w3.org/2000/svg" viewBox="0 0 180 80"><defs><style>.cls-1{fill:none;}.cls-2{fill:#123957;}</style></defs><rect class="cls-1" width="180" height="80"/><rect class="cls-1" width="180" height="80"/><g><path class="cls-2" d="M72.16,20.36c-5.5,0-6.28,5.27-6.31,9.28-.03,4.01,.68,9.43,6.21,9.46,5.53,.03,6.28-5.35,6.31-9.36,.03-4.01-.68-9.36-6.21-9.38Zm-.16,29.25c-14.38,0-20.77-9.54-20.77-20.02s6.59-19.82,20.98-19.74c14.38,.08,20.77,9.46,20.77,19.94s-6.62,19.89-20.95,19.82"/><path class="cls-2" d="M108.31,20.36c-5.45,0-6.21,5.27-6.21,9.28s.66,9.43,6.11,9.48c5.45,.05,6.21-5.4,6.21-9.41s-.69-9.33-6.14-9.36h.03Zm-.18,29.25c-14.16,0-20.45-9.53-20.45-20.05s6.52-19.79,20.63-19.71c14.11,.08,20.45,9.46,20.45,19.94s-6.52,19.89-20.66,19.82"/><path class="cls-2" d="M56.53,49.61c10.35,4.49,21.54,6.77,32.84,6.68,11.46,.15,22.83-1.99,33.43-6.3v12.62c-10.4,5.06-21.85,7.64-33.43,7.53-11.43,0-22.69-2.72-32.84-7.92v-12.62Z"/></g></svg>