<?xml version="1.0" encoding="UTF-8"?><svg id="Layer_1" xmlns="http://www.w3.org/2000/svg" viewBox="0 0 180 80"><defs><style>.cls-1{fill:none;}.cls-2{fill:#6a1b76;}.cls-3{fill-rule:evenodd;}</style></defs><rect class="cls-1" width="180" height="80"/><rect class="cls-1" width="180" height="80"/><g><path class="cls-2" d="M35.61,25.17c-8.24-3.31-17.62,.64-20.95,8.84-3.33,8.19,.65,17.51,8.89,20.82,8.24,3.31,17.62-.64,20.95-8.84,3.33-8.19-.65-17.51-8.89-20.82Zm5.15,19.33c-2.5,6.14-9.52,9.1-15.7,6.63-6.18-2.48-9.16-9.47-6.67-15.61,2.24-5.49,8.08-8.43,13.71-7.22,.67,.14,1.34,.33,2,.6,.66,.26,1.27,.59,1.86,.95l-1.57,3.87-3.7,9.09-3.85-1.54,3.69-9.09c-3.48-.42-6.95,1.5-8.32,4.89-1.65,4.05,.32,8.66,4.39,10.3,4.07,1.64,8.72-.32,10.36-4.37,.78-1.94,.74-4,.04-5.81l1.93-4.73c2.68,3.27,3.55,7.87,1.83,12.07Z"/><path class="cls-3" d="M126.59,29.88c0-1.3,1.04-2.33,2.31-2.33s2.35,1.03,2.35,2.33-1.03,2.3-2.35,2.3-2.31-1.03-2.31-2.3ZM62.19,49.72c-2.79-.06-4.93-2.06-5-5h12.56v-1.03c0-5.15-2.87-8.64-7.97-8.64-4.18,0-7.93,3.53-7.93,8.71,0,1.26,.2,2.39,.55,3.41,1.23,3.47,4.35,5.41,7.8,5.41,4.1,0,6.56-1.89,7.32-5.22h-3.23c-.52,1.43-1.72,2.41-4.09,2.36Zm-.38-11.83c2.93,0,4.48,1.85,4.55,4.22h-9.08c.14-2.12,1.79-4.22,4.52-4.22Zm54.4,11.7c-2.69,0-5.07-2.02-5.07-5.79s2.42-5.76,5.03-5.76c2.82,0,4.03,1.89,4.45,3.5h3.16l-.13-.68c-.13-.72-.36-1.42-.71-2.06-1.08-1.98-3.24-3.74-6.77-3.74-4.73,0-8.35,3.6-8.35,8.74s3.55,8.78,8.38,8.78c2.7,0,4.63-1.08,5.91-2.47,.89-.97,1.47-2.17,1.75-3.45l.1-.43-3.13-.02c-.38,1.3-1.51,3.39-4.62,3.39Zm14.3-14.03h-3.21v16.49h3.21v-16.49Zm24.95,2.37c1.21-2.06,3.18-2.85,5.11-2.85,3.96,0,5.93,2.85,5.93,6.52v10.46h-3.24v-9.91c0-2.3-.97-4.15-3.87-4.15-2.55,0-3.87,2.02-3.87,4.53v9.54h-3.24v-16.49h3.18v2.36Zm-7.48,10.16v-2.92h0v-4.1c0-3.22-1.93-6.04-6.9-6.04-3.59,0-6.45,2.2-6.8,5.35l3.11,.72c.21-1.92,1.48-3.33,3.76-3.33,2.52,0,3.59,1.34,3.59,2.95,0,.58-.27,1.1-1.27,1.23l-4.48,.65c-2.87,.41-5.03,2.06-5.03,5,0,2.61,2.18,4.94,5.56,4.94,2.9,0,4.55-1.51,5.3-2.67,.24,1.45,1.33,2.52,2.94,2.52,.86,0,1.56-.12,2.3-.49v-2.57s-.54,.12-.9,.12c-.71,0-1.15-.28-1.15-1.38Zm-3.25-3.1c0,3.6-2.14,4.87-4.79,4.87-1.66,0-2.69-1.17-2.69-2.4,0-1.47,1.03-2.26,2.42-2.47l5.08-.76v.76h0Zm-40.45,.18v2.92c0,1.11,.45,1.39,1.15,1.39,.37,0,.9-.12,.9-.12v2.57c-.74,.37-1.43,.49-2.3,.49-1.52,0-2.57-.94-2.89-2.25-.92,1.65-2.95,2.4-4.84,2.4-3.87,0-6.21-2.88-6.21-6.62v-10.39h3.24v9.91c0,2.26,1.03,4.25,3.76,4.25s3.93-1.71,3.93-4.22v-9.95h3.24v9.61h0Zm-27.9,2.95v-2.92h0V27.98h-3.24v20.37h0v.95c0,1.75,1.15,3.14,3,3.14,.82,0,1.54-.04,2.3-.3v-2.63s-.54,0-.9,0c-.7,0-1.15-.29-1.15-1.38Zm9.04-2.92v2.92c0,1.1,.45,1.38,1.15,1.38,.37,0,.9,0,.9,0v2.63c-.76,.26-1.48,.3-2.3,.3-1.85,0-3-1.39-3-3.14v-.95h0V27.98h3.24v17.23h0Z"/></g></svg>