<?xml version="1.0" encoding="UTF-8"?><svg id="Layer_1" xmlns="http://www.w3.org/2000/svg" viewBox="0 0 180 80"><defs><style>.cls-1{fill:none;}.cls-2{fill:#1d9bf0;}</style></defs><rect class="cls-1" width="180" height="80"/><rect class="cls-1" width="180" height="80"/><path class="cls-2" d="M120.91,24.14c.05,.69,.05,1.37,.05,2.06,0,21.08-16.04,45.38-45.38,45.38h0c-8.67,0-17.15-2.48-24.45-7.16,1.26,.15,2.53,.23,3.8,.23,7.18,0,14.16-2.4,19.81-6.84-6.83-.13-12.81-4.58-14.9-11.08,2.39,.46,4.85,.37,7.2-.27-7.44-1.5-12.79-8.04-12.79-15.63v-.2c2.22,1.23,4.7,1.92,7.24,2-7.01-4.68-9.17-14.01-4.94-21.3,8.1,9.96,20.05,16.02,32.87,16.66-1.29-5.54,.47-11.34,4.61-15.24,6.42-6.04,16.53-5.73,22.57,.69,3.57-.7,7-2.02,10.13-3.87-1.19,3.69-3.68,6.83-7.01,8.82,3.16-.37,6.25-1.22,9.16-2.51-2.14,3.21-4.84,6-7.96,8.26h0Z"/></svg>