<?xml version="1.0" encoding="UTF-8"?><svg id="Layer_1" xmlns="http://www.w3.org/2000/svg" viewBox="0 0 180 80"><defs><style>.cls-1{fill:none;}.cls-2{fill:#fe5000;}</style></defs><rect class="cls-1" width="180" height="80"/><rect class="cls-1" width="180" height="80"/><g id="v5"><g id="Homepage-Revamp-v5"><g id="Criteo-Logo-Orange"><path id="Path" class="cls-2" d="M69.06,52.91l-5.33-7.9c-.2-.29-.27-.65-.2-1,.07-.35,.27-.65,.57-.84,2.44-1.63,3.97-4.56,3.97-7.93,0-5.78-4.83-10.35-10.79-10.35h-12.8c-.23,0-.46,.09-.62,.26-.16,.16-.26,.39-.26,.62v5.6c0,.23,.18,.42,.41,.44,4.33,.23,7.81,3.97,7.81,8.23s-3.52,7.95-7.81,8.19c-.23,.01-.41,.2-.41,.44v5.43c0,.48,.39,.88,.88,.88h7.44c.48,0,.88-.39,.88-.88v-2.62c0-1.86,1.61-2.32,2.84-.85l3.12,3.91c.28,.28,.66,.44,1.06,.45h8.15c.49,0,.94-.27,1.17-.7,.23-.43,.2-.95-.07-1.36Z"/><path id="Path-2" class="cls-2" d="M73.14,24.88h6.45c.48,0,.88,.39,.88,.88v28.32c0,.48-.39,.88-.88,.88h-6.45c-.48,0-.88-.39-.88-.88V25.75c0-.48,.39-.88,.88-.88Z"/><path id="Path-3" class="cls-2" d="M90.93,32.3h-6.79c-.48,0-.87-.39-.88-.87v-5.68c0-.48,.39-.88,.88-.88h22.5c.48,0,.88,.39,.88,.88v5.68c0,.48-.39,.88-.88,.88h-6.63c-.24,0-.43,.2-.44,.44v21.33c0,.48-.39,.88-.88,.88h-6.45c-.48,0-.88-.39-.88-.88v-21.34c0-.24-.2-.44-.44-.44Z"/><path id="Path-4" class="cls-2" d="M111.31,24.88h20.42c.48,0,.88,.39,.88,.88v5.63c0,.23-.09,.45-.26,.62-.16,.16-.39,.26-.62,.26h-12.66c-.25,0-.45,.2-.45,.45v3.27c0,.12,.05,.23,.13,.31s.2,.13,.31,.12h11.76c.48,0,.88,.39,.88,.88v4.98c0,.48-.39,.88-.88,.88h-11.76c-.24,0-.44,.19-.45,.44v3.7c0,.24,.2,.44,.45,.44h13.01c.48,0,.88,.39,.88,.88v5.5c0,.48-.39,.88-.88,.88h-20.77c-.48,0-.88-.39-.88-.88V25.75c0-.23,.09-.46,.26-.62,.16-.16,.39-.26,.62-.26Z"/><path id="Shape" class="cls-2" d="M151.66,24.45c-9.19,0-16.57,6.98-16.57,15.57s7.38,15.53,16.57,15.53,16.61-6.95,16.61-15.53-7.38-15.57-16.61-15.57Zm0,23.78c-2.18,0-4.26-.86-5.8-2.39-1.54-1.54-2.4-3.63-2.39-5.8,0-4.44,3.67-8.24,8.2-8.24s8.24,3.84,8.24,8.24c0,4.44-3.74,8.2-8.23,8.2h0Z"/><path id="Path-5" class="cls-2" d="M28.12,24.45c4.68,0,8.87,2,11.86,5.18,.16,.18,.25,.41,.23,.65s-.13,.46-.31,.62l-4.25,3.56c-.35,.29-.85,.26-1.17-.05-1.7-1.67-3.97-2.61-6.35-2.62-4.53,0-8.2,3.45-8.2,8.15s3.67,8.11,8.2,8.11c2.38-.02,4.66-.96,6.35-2.62,.32-.31,.83-.34,1.17-.05l4.25,3.56c.18,.15,.3,.38,.31,.62s-.07,.47-.23,.65c-2.99,3.18-7.18,5.18-11.86,5.18-9.06,0-16.4-6.51-16.4-15.45s7.33-15.49,16.39-15.49Z"/></g></g></g></svg>