<?xml version="1.0" encoding="UTF-8"?><svg id="Layer_1" xmlns="http://www.w3.org/2000/svg" viewBox="0 0 180 80"><defs><style>.cls-1{fill:none;}.cls-2{fill:#fff;}</style></defs><rect class="cls-1" width="180" height="80"/><path class="cls-2" d="M87.56,15.44c1.46-1.04,3.42-1.04,4.88,0,2.97,2.05,6.6,3.44,10.23,3.44s7.31-1.43,10.21-3.44h0c1.57-1.12,3.71-1.03,5.17.22,1.9,1.57,4.29,2.77,6.68,3.33,2.27.53,3.68,2.8,3.15,5.07-.53,2.27-2.8,3.68-5.07,3.15-3.23-.75-5.93-2.18-7.68-3.3-3.83,2.06-8.12,3.42-12.47,3.42s-8-1.31-10.61-2.49c-.77-.36-1.46-.7-2.06-1.02-.59.32-1.28.67-2.06,1.02-2.61,1.19-6.4,2.49-10.61,2.49s-8.64-1.36-12.47-3.4c-1.77,1.11-4.45,2.55-7.68,3.3-2.27.53-4.54-.88-5.07-3.15s.88-4.54,3.15-5.07c2.38-.57,4.78-1.77,6.66-3.34,1.46-1.25,3.6-1.33,5.17-.22h0c2.93,2.02,6.68,3.44,10.23,3.44s7.26-1.4,10.23-3.44ZM92.44,53.45c2.97,2.05,6.6,3.44,10.23,3.44s7.31-1.43,10.21-3.44h0c1.57-1.12,3.71-1.03,5.17.22,1.9,1.57,4.29,2.77,6.68,3.33,2.27.53,3.68,2.8,3.15,5.07-.53,2.27-2.8,3.68-5.07,3.15-3.23-.75-5.93-2.18-7.68-3.3-3.83,2.06-8.12,3.42-12.47,3.42s-8-1.31-10.61-2.49c-.77-.36-1.46-.7-2.06-1.02-.59.32-1.28.67-2.06,1.02-2.61,1.19-6.4,2.49-10.61,2.49s-8.64-1.36-12.47-3.4c-1.77,1.11-4.45,2.55-7.68,3.3-2.27.53-4.54-.88-5.07-3.15s.88-4.54,3.15-5.07c2.39-.55,4.78-1.76,6.68-3.33,1.46-1.24,3.6-1.33,5.17-.22h0c2.92,2.01,6.66,3.43,10.21,3.43s7.26-1.4,10.23-3.44c1.46-1.04,3.42-1.04,4.88,0ZM92.44,34.44c2.97,2.05,6.6,3.44,10.23,3.44s7.31-1.43,10.21-3.44h0c1.57-1.12,3.71-1.03,5.17.22,1.9,1.57,4.29,2.77,6.68,3.33,2.27.53,3.68,2.8,3.15,5.07-.53,2.27-2.8,3.68-5.07,3.15-3.23-.75-5.93-2.18-7.68-3.3-3.83,2.06-8.12,3.42-12.47,3.42s-8-1.31-10.61-2.49c-.77-.36-1.46-.7-2.06-1.02-.59.32-1.28.67-2.06,1.02-2.61,1.19-6.4,2.49-10.61,2.49s-8.64-1.36-12.47-3.4c-1.77,1.11-4.45,2.55-7.68,3.3-2.27.53-4.54-.88-5.07-3.15s.88-4.54,3.15-5.07c2.39-.55,4.78-1.76,6.68-3.33,1.46-1.25,3.6-1.33,5.17-.22h0c2.92,2.01,6.66,3.43,10.21,3.43s7.26-1.4,10.23-3.44c1.46-1.04,3.42-1.04,4.88,0Z"/></svg>