<svg id="Layer_1" data-name="Layer 1" xmlns="http://www.w3.org/2000/svg" viewBox="0 0 180 80"><defs><style>.cls-1{fill:none;}.cls-2{fill:#29b5e8;}</style></defs><rect class="cls-1" width="180" height="80"/><g id="Page-1"><g id="Group"><path id="Path" class="cls-2" d="M38.53,50.71l-8.63-5a2.54,2.54,0,0,0-3.46.93,2.48,2.48,0,0,0-.33,1.51v9.74a2.53,2.53,0,1,0,5.05,0v-5.6L36,55.1a2.54,2.54,0,1,0,2.54-4.39"/><path id="Path-2" data-name="Path" class="cls-2" d="M17.07,40a2.5,2.5,0,0,0-1.24-2.19l-8.63-5A2.52,2.52,0,0,0,6,32.53a2.48,2.48,0,0,0-1.24,4.62L9.7,40l-5,2.87A2.48,2.48,0,0,0,6,47.52a2.42,2.42,0,0,0,1.23-.34l8.63-5A2.47,2.47,0,0,0,17.07,40"/><path id="Path-3" data-name="Path" class="cls-2" d="M9.16,29.33l8.63,5a2.6,2.6,0,0,0,3.86-2.24v-10a2.53,2.53,0,1,0-5,0v5.68l-4.9-2.83a2.54,2.54,0,1,0-2.54,4.39"/><path id="Combined-Shape" class="cls-2" d="M28.56,40.44a1,1,0,0,1-.24.59L24.9,44.45a1,1,0,0,1-.6.25h-.87a.93.93,0,0,1-.59-.25L19.41,41a1,1,0,0,1-.24-.59v-.87a1,1,0,0,1,.24-.6l3.43-3.42a.93.93,0,0,1,.59-.25h.87a1,1,0,0,1,.6.25L28.32,39a1,1,0,0,1,.24.6Zm-3-.42v0a.74.74,0,0,0-.18-.44l-1-1a.71.71,0,0,0-.44-.19h0a.73.73,0,0,0-.44.19l-1,1a.72.72,0,0,0-.18.44v0a.72.72,0,0,0,.18.44l1,1a.78.78,0,0,0,.44.18h0a.76.76,0,0,0,.44-.18l1-1A.72.72,0,0,0,25.51,40Z"/><path id="Path-4" data-name="Path" class="cls-2" d="M29.9,34.31l8.63-5A2.54,2.54,0,1,0,36,24.94l-4.83,2.79V22.09a2.53,2.53,0,1,0-5.05,0v9.78a2.53,2.53,0,0,0,3.79,2.44"/><path id="Path-5" data-name="Path" class="cls-2" d="M19.52,45.44a2.52,2.52,0,0,0-1.73.29l-8.63,5A2.54,2.54,0,1,0,11.7,55.1l4.9-2.82v5.63a2.53,2.53,0,1,0,5,0v-10a2.53,2.53,0,0,0-2.13-2.49"/><path id="Path-6" data-name="Path" class="cls-2" d="M43.92,33.74a2.53,2.53,0,0,0-3.46-.93l-8.63,5a2.59,2.59,0,0,0,0,4.46l8.63,5A2.54,2.54,0,0,0,43,42.84L38.11,40,43,37.2a2.53,2.53,0,0,0,.93-3.46"/><path id="Combined-Shape-2" data-name="Combined-Shape" class="cls-2" d="M176.51,39.44h0v.09a.84.84,0,0,1-.88.82H163.51a5.66,5.66,0,0,0,.12.84,5.73,5.73,0,0,0,5.48,4.61h1a5.12,5.12,0,0,0,2.58-1h0l.12-.09,0,0,.11-.09,0,0,.08-.07.06,0,.07-.06a.46.46,0,0,0,.07-.07l.06,0,.08-.08.05,0,.08-.09,0,0,.08-.1,0,0,.09-.1,0,0,.08-.1,0,0a.86.86,0,0,1,.07-.1l.06-.08a.18.18,0,0,0,.05-.07l.09-.12,0,0a3.78,3.78,0,0,0,.22-.33h0l0-.07,0,0,0,0,0,0,0,0,0,0,.06,0,.05,0,0,0,0,0,.07,0h0l.21,0a.85.85,0,0,1,.23,0h0l.09,0h0l.09.05h0a.94.94,0,0,1,.28,1.24h0l-.09.14,0,0a8.47,8.47,0,0,1-3.33,3l-.09,0h0a6.68,6.68,0,0,1-1.94.56h0l-.17,0H169.1a7.63,7.63,0,0,1,.06-15.26h.36a7.23,7.23,0,0,1,3.86,1.36h0l.18.14.09.07.09.07a7.84,7.84,0,0,1,2.76,5.47Zm-12.88-.82h11a5.58,5.58,0,0,0-11,0Z"/><path id="Combined-Shape-3" data-name="Combined-Shape" class="cls-2" d="M145.52,32.56a.85.85,0,0,1,.25.53V46.67a.88.88,0,1,1-1.76,0V44.88a7.08,7.08,0,0,1-1.1,1.09l0,0-.11.09a7,7,0,0,1-4.23,1.47,7.12,7.12,0,0,1-6-3.32l0-.05-.11-.19a.75.75,0,0,1-.07-.12.83.83,0,0,1-.07-.13l-.11-.19,0-.07a7.8,7.8,0,0,1-.83-3.17c0-.13,0-.26,0-.39s0-.26,0-.39a7.89,7.89,0,0,1,.83-3.18l0-.06.11-.19a.83.83,0,0,1,.07-.13.75.75,0,0,1,.07-.12l.11-.19,0-.05a7.12,7.12,0,0,1,6-3.32A7,7,0,0,1,143.06,34a7.18,7.18,0,0,1,.95,1V33.18a.28.28,0,0,1,0-.09.85.85,0,0,1,.25-.53h0a.1.1,0,0,1,0,0v0l0,0,0,0h0l.05,0h0l.07,0h0l.17,0h.35l.16,0h0l.06,0h0l0,0h0l0,0,0,0s0,0,0,0a.1.1,0,0,1,.05,0Zm-7,13.24a5.9,5.9,0,1,0-5.47-5.87c0,.1,0,.2,0,.3v.13c0,.06,0,.11,0,.17s0,.09,0,.13,0,.11,0,.16a.5.5,0,0,1,0,.12l0,.17s0,.06,0,.08,0,.14,0,.21l0,0A5.56,5.56,0,0,0,138.54,45.8Z"/><path id="Path-7" data-name="Path" class="cls-2" d="M123.44,25.94h-1l-.2,0h0L122,26h0a4.22,4.22,0,0,0-1.2.37h0l-.16.08,0,0-.13.08-.05,0-.1.07-.08.07-.07.05-.11.11,0,0-.14.14,0,0-.1.12a.21.21,0,0,0,0,.06l-.08.1,0,0-.08.13v0a4.27,4.27,0,0,0-.52,1.41v0a1.43,1.43,0,0,0,0,.22s0,0,0,.06,0,.13,0,.19,0,.08,0,.12a.77.77,0,0,0,0,.15c0,.06,0,.11,0,.17a.41.41,0,0,0,0,.11c0,.08,0,.16,0,.24v.06c0,.1,0,.21,0,.31v1.45h-1.83a1,1,0,0,0-.33.06.84.84,0,0,0-.56.79.92.92,0,0,0,.43.8.9.9,0,0,0,.46.15h1.83v12.9a.86.86,0,0,0,.23.53h0l.06.05h0a.1.1,0,0,0,0,0l0,0h0a.91.91,0,0,0,.49.14h.08a.84.84,0,0,0,.46-.2h0l0,0h0a.08.08,0,0,1,0,0,.92.92,0,0,0,.2-.6V33.89h2a.92.92,0,0,0,.89-.94h0v-.06h0a.81.81,0,0,0-.24-.51h0l0,0,0,0,0,0,0,0h0l-.06,0h0l-.07,0h0l-.07,0h-2.24V30.61a1.48,1.48,0,0,1,0-.21v-.06c0-.06,0-.13,0-.18v0c0-.07,0-.14,0-.21a3.62,3.62,0,0,1,.39-1.44v0l0-.05,0,0s0,0,0,0l.06-.07a1.67,1.67,0,0,1,1.11-.48h1.08a.9.9,0,1,0,0-1.8"/><path id="Path-8" data-name="Path" class="cls-2" d="M128.18,26h-.06l0,0h-.27a.89.89,0,0,0-.88.88v19.9a.89.89,0,0,0,.88.89h.28a.85.85,0,0,0,.62-.74.31.31,0,0,0,0-.1V26.77a.28.28,0,0,0,0-.09.85.85,0,0,0-.54-.71"/><path id="Path-9" data-name="Path" class="cls-2" d="M60.73,42.87a.61.61,0,0,0,0-.14s0-.07,0-.11,0-.07,0-.11,0-.08,0-.12,0-.06,0-.09l0-.13s0-.05,0-.07a.5.5,0,0,0-.05-.13s0,0,0-.06l-.06-.15a.1.1,0,0,1,0,0,1,1,0,0,1-.07-.15v0a3.34,3.34,0,0,0-.87-1.07h0l-.15-.13h0l-.1-.07a7.26,7.26,0,0,0-1.68-.85h0l0,0c-.41-.16-.83-.3-1.27-.45h0l-.15,0-.07,0-.45-.15-.35-.12-.2-.06h0l-.14,0c-.36-.11-.66-.22-.92-.31a6,6,0,0,1-1.11-.52h0a1.55,1.55,0,0,1-.79-1h0v-.09h0v-.11a.76.76,0,0,1,0-.15v0s0-.08,0-.11a.08.08,0,0,1,0,0s0-.07,0-.11v0l0-.13h0a2.47,2.47,0,0,1,1.18-1.29l.11,0,.1-.06.16-.07.1,0,.18-.07.09,0,.17,0,.11,0,.16,0,.11,0,.17,0,.09,0h.8a4.27,4.27,0,0,1,1.61.41l.09,0s0,0,.06,0l.12.07h0l.13.08h0l.14.09h0l.14.09.05,0c.1.07.27.2.41.32l.05,0c.11.09.21.18.31.25l0,0h0l0,0,.08.06h0l.08.05h0l.08,0h0l.1,0h0a.54.54,0,0,0,.22,0h0l.06,0h0l.09,0a0,0,0,0,0,0,0l.1-.07h0l.07-.07,0-.06h0c.15-.26.06-.6-.21-1a0,0,0,0,1,0,0l0,0a6.43,6.43,0,0,0-3.37-2h0l-.17,0H56l-.14,0h-1l-.21,0h-.06l-.24,0h0l-.24,0h0l-.24,0a0,0,0,0,1,0,0l-.48.1h0l-.23.06-.21.07h0l-.19.08h0l-.19.09h0l-.16.07,0,0-.16.08,0,0-.14.09s0,0,0,0a1.08,1.08,0,0,0-.18.11l-.2.15s0,0,0,0a3.87,3.87,0,0,0-.8.76s0,0,0,0l-.08.12-.06.09,0,.06-.08.15v0a3.73,3.73,0,0,0-.36,1.39v0c0,.1,0,.19,0,.3a1.85,1.85,0,0,0,0,.23v0a3,3,0,0,0,1.38,2.45l0,0,.11.08.08,0h0a10.68,10.68,0,0,0,2.76,1.1l.93.26.07,0c.52.17.92.31,1.25.44l.08,0h0c.18.08.37.16.54.25a4.16,4.16,0,0,1,.42.23,2.69,2.69,0,0,1,.8.71s0,0,0,0a.18.18,0,0,1,0,.07.08.08,0,0,1,0,0l0,.06,0,.05,0,0,0,.07s0,0,0,0l0,.08a0,0,0,0,0,0,0,.19.19,0,0,0,0,.08V43a0,0,0,0,1,0,0v.32s0,0,0,.06a.78.78,0,0,1,0,.14.06.06,0,0,1,0,0,1.56,1.56,0,0,1-.1.37h0a.89.89,0,0,1-.08.17h0a2,2,0,0,1-.23.34l-.14.16h0a2.22,2.22,0,0,1-.33.28h0l-.16.11h0l-.3.17-.12.06-.13.06-.1,0-.3.11h0l-.18.05,0,0-.57.12h0l-.27,0h-.94l-.21,0-.19,0-.16,0-.33-.06-.14,0-.17,0-.18,0-.12,0-.29-.1-.07,0q-.32-.12-.63-.27h0l-.57-.32,0,0-.4-.22h-.05l-.09,0h0l-.22-.06H50.7a.53.53,0,0,0-.37.15l-.07.07,0,0,0,0s0,0,0,0l0,.05v0l0,.05v0s0,0,0,.05v0l0,.06v.09h0a.22.22,0,0,0,0,.08v0s0,0,0,.07v0a.14.14,0,0,0,0,.06s0,0,0,0a1.58,1.58,0,0,0,.22.33,3.61,3.61,0,0,0,.4.36h0l.13.1h0a4.28,4.28,0,0,0,.42.26l.11.07.11.06.15.07.09.05.23.11,0,0,.25.11.11,0h0a8.63,8.63,0,0,0,2.61.55h.5a6.11,6.11,0,0,0,3.51-1.12h0a4,4,0,0,0,1.68-3.23c0-.09,0-.17,0-.24s0-.06,0-.09"/><path id="Path-10" data-name="Path" class="cls-2" d="M69.72,32.33h0a6.15,6.15,0,0,0-4.49,1.94V33.22a.87.87,0,0,0-.85-.89h-.09a.83.83,0,0,0-.53.25h0l0,0h0l0,0s0,0,0,0v0l0,0h0l0,.07c0,.06,0,.11,0,.17h0a.19.19,0,0,1,0,.08v13.8l0,0a.1.1,0,0,0,0,.07v0a.21.21,0,0,0,0,.06.93.93,0,0,0,.57.45h.41l.09,0h0a.8.8,0,0,0,.37-.28h0a.67.67,0,0,0,.13-.22v0h0l0-.13h0V38.56a4.57,4.57,0,0,1,4.49-4.47h0a4.47,4.47,0,0,1,4.47,4.47v8.21a.85.85,0,0,0,.25.53h0l0,0,0,0,0,0,0,0h0l0,0h0l.06,0h0l.16,0h.36l.16,0,.07,0h0l0,0h0l0,0a.05.05,0,0,0,0,0l0,0,0,0h0a.85.85,0,0,0,.25-.53.31.31,0,0,0,0-.1V38.56a6.24,6.24,0,0,0-6.21-6.23"/><path id="Combined-Shape-4" data-name="Combined-Shape" class="cls-2" d="M85.56,32.3a7.64,7.64,0,0,1,0,15.26l-.37,0h0l-.31,0h0a7,7,0,0,1-4.22-2.08l-.15-.14h0l-.07-.08L80.21,45a1.83,1.83,0,0,1-.13-.16l-.1-.12-.19-.25,0,0a7.86,7.86,0,0,1-1.36-3.39c0-.11,0-.23,0-.34v0c0-.11,0-.21,0-.32v-.07c0-.12,0-.25,0-.38s0-.26,0-.38v-.07c0-.11,0-.21,0-.32v0c0-.11,0-.23,0-.34a7.86,7.86,0,0,1,1.36-3.39l0,0,.19-.25.09-.12.14-.16.15-.17.08-.09h0l.13-.13a7.05,7.05,0,0,1,4.24-2.09h0l.31,0h0Zm5.45,7h0a6.1,6.1,0,0,0-1.49-3.43.64.64,0,0,1-.1-.13l-.07-.06-.13-.13-.12-.12L89,35.38l-.2-.17h0a5.19,5.19,0,0,0-2.68-1.14H85a5.19,5.19,0,0,0-2.69,1.14h0l-.2.17-.07.07-.13.12-.12.12-.07.07-.1.12a6.06,6.06,0,0,0-1.49,3.44h0a2.28,2.28,0,0,0,0,.26v0c0,.1,0,.2,0,.3a5.48,5.48,0,1,0,10.94,0v-.3s0,0,0,0S91,39.42,91,39.33Z"/><path id="Path-11" data-name="Path" class="cls-2" d="M114.05,32.68l0,0a.75.75,0,0,0-.33-.25h0l0,0h0a.78.78,0,0,0-.37,0h0a.91.91,0,0,0-.63.42h0l-.06.11h0l-4.21,11.52L105,36.54a.82.82,0,0,0-.12-.2,1,1,0,0,0-.74-.34H104a1,1,0,0,0-.69.53h0L100,44.42l-1.6-4.36-2.64-7.17a.49.49,0,0,0,0-.11h0a.79.79,0,0,0-.36-.34h0a1.13,1.13,0,0,0-.24-.08h-.35l0,0h0l-.06,0h0a.83.83,0,0,0-.36.31v0a.81.81,0,0,0-.12.37.83.83,0,0,0,0,.41l3.06,8.2,2,5.26h0a.74.74,0,0,0,.36.41h0l0,0h0a.18.18,0,0,0,.11,0h.08a1,1,0,0,0,.22,0l.12,0,.09,0h0l.09,0h0l.07,0,.05,0,0,0,.07-.06,0,0,.07-.08h0l.06-.09a.61.61,0,0,0,0-.12h0v0L104.17,39,107.51,47a.94.94,0,0,0,.12.22l0,0,.06.07,0,0,.06.06h0l.08.06h0l.09,0h0a.13.13,0,0,0,.08,0l.11,0h.11l.13,0h0l.1,0,0,0,.11,0h0l.12-.07a1.06,1.06,0,0,0,.32-.43h0l2.07-5.57,2.91-7.83a.86.86,0,0,0-.09-.81l0,0"/><path id="Path-12" data-name="Path" class="cls-2" d="M160.77,32.93s0,0,0,0,0,0,0,0a.43.43,0,0,0,0-.05v0s0,0,0-.06,0,0,0,0a.16.16,0,0,0,0-.07h0a.83.83,0,0,0-.16-.21h0a.83.83,0,0,0-1.1-.11s0,0,0,0l-.05,0-.06.06h0l-8.6,8.39v-14a.28.28,0,0,0,0-.09.87.87,0,0,0-.54-.71H150l0,0h-.27a.89.89,0,0,0-.88.88v19.9a.89.89,0,0,0,.88.89H150a.88.88,0,0,0,.62-.74.31.31,0,0,0,0-.1V43.32l2.89-2.9,5.63,6.8a.64.64,0,0,0,.13.15l0,0s0,0,0,0a.1.1,0,0,0,.05,0h0l.07,0h0l.08,0h0l.09,0h.14l.16,0h0a.71.71,0,0,0,.28-.09h0l.12-.08h0a.92.92,0,0,0,.14-1.17l-.07-.1-5.72-6.94,5.68-5.49a1,1,0,0,0,.27-.54h0v-.18"/></g></g></svg>