<?xml version="1.0" encoding="UTF-8"?><svg id="Layer_1" xmlns="http://www.w3.org/2000/svg" viewBox="0 0 180 80"><defs><style>.cls-1{fill:none;}.cls-1,.cls-2{stroke-width:0px;}.cls-2{fill:#fff;}</style></defs><rect class="cls-1" width="180" height="80"/><polygon class="cls-2" points="88.05 17.63 88.05 45.93 64.62 45.93 88.05 17.63"/><path class="cls-2" d="m88.05,7.48c0,6.47-5.25,11.72-11.72,11.72s-11.72-5.25-11.72-11.72h23.43Z"/><path class="cls-2" d="m91.91,45.93c0-6.47,5.25-11.72,11.72-11.72s11.72,5.25,11.72,11.72h-23.43Z"/><polygon class="cls-2" points="91.91 35.77 91.91 7.48 115.35 7.48 91.91 35.77"/><path class="cls-2" d="m105.02,70.13c1.21.03,2.37-.42,3.25-1.25l1.61,1.74c-1.06,1.09-2.54,1.91-4.83,1.91-3.93,0-6.47-2.6-6.47-6.13-.07-3.32,2.57-6.07,5.9-6.13.07,0,.14,0,.21,0,3.9,0,6.11,2.97,5.92,7.08h-9.22c.33,1.71,1.53,2.8,3.63,2.8m2.81-4.76c-.25-1.6-1.2-2.77-3.11-2.77-1.77,0-3.01,1-3.33,2.77h6.44Z"/><polygon class="cls-2" points="44.48 70 51.58 62.79 44.65 62.79 44.65 60.53 54.86 60.53 54.86 62.84 47.77 70.05 54.96 70.05 54.96 72.31 44.48 72.31 44.48 70"/><path class="cls-2" d="m62.93,70.13c1.21.03,2.37-.42,3.25-1.25l1.61,1.74c-1.06,1.09-2.54,1.91-4.83,1.91-3.93,0-6.47-2.6-6.47-6.13-.07-3.32,2.57-6.07,5.9-6.13.07,0,.14,0,.21,0,3.9,0,6.11,2.97,5.92,7.08h-9.22c.33,1.71,1.53,2.8,3.63,2.8m2.81-4.76c-.25-1.6-1.2-2.77-3.11-2.77-1.77,0-3.01,1-3.33,2.77h6.44Z"/><path class="cls-2" d="m83.84,66.39c0-3.76,2.82-6.13,5.91-6.13,1.51-.02,2.94.63,3.93,1.77v-6.95h2.51v17.2h-2.51v-1.63c-.97,1.19-2.42,1.87-3.95,1.86-3.01,0-5.89-2.38-5.89-6.12m9.98-.02c-.06-2.06-1.77-3.69-3.84-3.64-2.06.06-3.69,1.77-3.64,3.84.05,2.03,1.71,3.64,3.74,3.64,2.15,0,3.74-1.72,3.74-3.84"/><path class="cls-2" d="m112.24,69.78l2.27-1.18c.61,1.09,1.78,1.75,3.03,1.72,1.42,0,2.15-.73,2.15-1.55,0-.94-1.37-1.16-2.86-1.46-2.01-.42-4.09-1.09-4.09-3.51,0-1.86,1.77-3.58,4.57-3.56,2.2,0,3.83.87,4.76,2.28l-2.11,1.16c-.59-.88-1.59-1.38-2.65-1.34-1.35,0-2.04.66-2.04,1.41,0,.85,1.09,1.08,2.79,1.46,1.94.42,4.14,1.06,4.14,3.51,0,1.62-1.42,3.82-4.78,3.79-2.46,0-4.19-.99-5.18-2.73"/><polygon class="cls-2" points="129.02 67.05 127.03 69.21 127.03 72.27 124.52 72.27 124.52 55.08 127.03 55.08 127.03 66.34 132.35 60.5 135.4 60.5 130.79 65.54 135.52 72.27 132.68 72.27 129.02 67.05"/><path class="cls-2" d="m76.26,60.26c-2.98,0-5.48,1.93-5.48,5.14v6.88h2.55v-6.56c0-1.93,1.11-3.09,3.01-3.09s2.84,1.16,2.84,3.09v6.56h2.54v-6.88c0-3.2-2.51-5.14-5.48-5.14"/></svg>