<?xml version="1.0" encoding="UTF-8"?><svg id="Layer_1" xmlns="http://www.w3.org/2000/svg" xmlns:xlink="http://www.w3.org/1999/xlink" viewBox="0 0 180 80"><defs><style>.cls-1{fill:none;}.cls-2{clip-path:url(#clippath);}.cls-3{fill:#00b2e3;}.cls-4{fill:#5b6670;}</style><clipPath id="clippath"><rect class="cls-1" x="15.09" y="25.75" width="149.83" height="32.5"/></clipPath></defs><rect class="cls-1" width="180" height="80"/><rect class="cls-1" width="180" height="80"/><g class="cls-2"><g><path class="cls-4" d="M28.09,42h6.52v4.78c-1.79,1.28-3.95,1.96-6.15,1.93-5.21,0-8.67-3.83-8.67-9.12v-.07c0-4.88,3.57-8.99,8.26-8.99,2.66-.08,5.24,.9,7.17,2.73l2.81-3.4c-2.62-2.22-5.36-3.47-9.8-3.47-7.18-.08-13.07,5.67-13.15,12.84,0,.12,0,.23,0,.35v.07c0,7.44,5.24,13.12,13.22,13.12,3.91,0,7.69-1.42,10.64-3.98v-10.7h-10.85v3.9Z"/><path class="cls-4" d="M49.08,32.85c-2.53-.04-5.04,.51-7.32,1.59l1.22,3.55c1.73-.79,3.6-1.2,5.5-1.2,3.06,0,4.73,1.46,4.73,4.12v.36c-1.72-.56-3.51-.83-5.32-.8-4.48,0-7.79,2.04-7.79,6.3v.07c0,3.87,3.19,5.94,6.85,5.94,2.39,.08,4.69-.94,6.23-2.77v2.39h4.38v-11.43c0-5.14-2.77-8.13-8.46-8.13m4.19,12.58c0,2.39-2.19,4.04-5.1,4.04-2.08,0-3.72-1.02-3.72-2.85v-.07c0-1.86,1.64-2.99,4.41-2.99,1.51,0,3,.27,4.42,.8v1.07Z"/><rect class="cls-4" x="60.03" y="33.17" width="4.41" height="19.24"/><rect class="cls-4" x="59.84" y="26.03" width="4.73" height="4.19"/><path class="cls-4" d="M71.49,41.55c0-2.99,1.79-4.78,4.34-4.78s4.12,1.71,4.12,4.69v10.94h4.41v-12.24c0-4.48-2.51-7.4-6.85-7.4-2.46-.02-4.75,1.27-6.01,3.39v-2.99h-4.41v19.24h4.41v-10.85Z"/><path class="cls-4" d="M93.28,49.28c-2.3-.1-4.51-.94-6.3-2.39l-1.97,2.99c2.34,1.84,5.21,2.86,8.18,2.9,3.98,0,7.17-2,7.17-6.05v-.07c0-3.46-3.19-4.73-5.97-5.58-2.32-.76-4.39-1.35-4.39-2.73v-.07c0-1.13,.98-1.94,2.69-1.94,1.94,.13,3.81,.75,5.43,1.83l1.75-3.13c-2.1-1.38-4.55-2.14-7.06-2.19-3.83,0-6.85,2.22-6.85,5.87v.07c0,3.67,3.19,4.85,6.01,5.64,2.26,.69,4.3,1.2,4.3,2.69v.08c0,1.28-1.09,2.07-2.99,2.07"/><rect class="cls-4" x="101.38" y="25.97" width="4.73" height="4.19"/><polygon class="cls-4" points="101.56 33.17 101.56 52.41 103.32 52.41 105.97 52.41 105.97 51.33 105.97 33.17 101.56 33.17"/><path class="cls-4" d="M122.94,35.99c-1.6-2.1-4.1-3.32-6.74-3.28-4.39-.07-8.13,3.19-8.66,7.55-.07,.49-.11,.99-.11,1.49v.07c-.09,2.86,1.21,5.58,3.5,7.3,.3,.21,.61,.41,.93,.58l.23,.12,6.85-2.94c-.26,.07-.53,.13-.8,.17-.26,.03-.53,.05-.8,.06h-.39c-.25-.02-.51-.05-.76-.1-1.05-.19-2.02-.68-2.78-1.42-.31-.31-.58-.67-.8-1.05-.07-.13-.14-.26-.2-.38-.19-.41-.33-.83-.41-1.28,0-.05,0-.1,0-.14-.05-.31-.07-.62-.07-.93v-.11c0-.38,.03-.76,.1-1.13,0-.11,.06-.22,.08-.32,.06-.24,.14-.48,.24-.71,.13-.32,.3-.62,.49-.9,.39-.56,.89-1.03,1.47-1.39,.93-.54,2-.82,3.08-.8,1.04,0,2.06,.28,2.96,.8l.33,.2c.23,.15,.46,.32,.67,.51,.39,.35,.72,.76,.98,1.21,.09,.15,.17,.31,.24,.47,.1,.22,.18,.45,.25,.68,.14,.49,.2,.99,.21,1.49v.07c0,.45-.06,.91-.18,1.35-.13,.5-.34,.98-.61,1.41-.08,.12-.16,.24-.25,.35-.18,.22-.37,.44-.58,.63l-.33,.28c-.09,.08-.18,.15-.28,.22l-.26,.16,6.78-2.99v-10.18h-4.41v2.88Z"/><path class="cls-4" d="M134.24,40.18c.04-.21,.1-.42,.17-.62,.26-.85,.79-1.58,1.51-2.1,.35-.25,.74-.44,1.16-.56,.44-.13,.9-.19,1.36-.19,.18-.01,.37-.01,.55,0,.33,.03,.66,.1,.97,.22,.15,.05,.3,.11,.44,.18,.15,.07,.3,.16,.44,.26,.02,.03,.05,.05,.08,.06l4.78-2.05v-.04c-.06-.1-.12-.19-.19-.28-1.3-1.61-3.29-2.5-5.36-2.39-2.49-.02-4.79,1.29-6.05,3.43v-10.36h-4.41v16.53l4.52-1.94"/><polygon class="cls-4" points="153.43 27.82 149.02 27.82 149.02 33.58 149.02 33.86 153.43 32 153.43 27.82"/><path class="cls-3" d="M119.82,46.58c-.28,.12-.56,.22-.85,.29l-6.85,2.94c1.26,.65,2.66,.99,4.08,1,2.71,.03,5.26-1.3,6.78-3.55v1.49c.05,1.29-.28,2.58-.97,3.67-.99,1.47-2.72,2.23-5.12,2.23-2.43,0-4.81-.71-6.85-2.04l-1.64,3.32c2.6,1.53,5.58,2.33,8.6,2.3,3.46,0,6.15-.84,7.91-2.59,.87-.9,1.52-1.99,1.88-3.19,.39-1.31,.58-2.67,.56-4.04v-5.13l-6.82,2.93c-.23,.14-.46,.26-.7,.37"/><path class="cls-3" d="M140.92,37.47c.87,.68,1.43,1.69,1.55,2.79,.06,.38,.09,.77,.1,1.16v10.93h4.41v-12.25c.05-1.66-.4-3.29-1.28-4.69l-4.77,2.06Z"/><path class="cls-3" d="M129.7,52.34h4.41v-10.85c0-.39,.04-.77,.11-1.15l-4.52,1.94v10.07Z"/><path class="cls-3" d="M164.91,27.63v-.44h0l-9.34,3.91-6.55,2.76v13.17c0,3.3,1.4,4.89,3.56,5.42,.65,.15,1.31,.23,1.98,.22,.68,0,1.37-.07,2.03-.22,.68-.17,1.33-.44,1.94-.8v-3.59c-.84,.44-1.78,.66-2.73,.66-1.5,0-2.39-.69-2.39-2.39v-9.56l11.45-4.78h0l.05-4.36Z"/></g></g></svg>