<?xml version="1.0" encoding="UTF-8"?><svg id="Layer_1" xmlns="http://www.w3.org/2000/svg" viewBox="0 0 180 80"><defs><style>.cls-1{fill:none;}.cls-2{fill:#fff;}.cls-3{fill:#616466;}</style></defs><rect class="cls-1" width="180" height="80"/><path class="cls-3" d="m126,40c0,19.9-16.1,36-36,36s-36-16.1-36-36S70.1,4,90,4s36,16.1,36,36"/><path class="cls-2" d="m106.98,45.23c.95-1.36,2.17-3.19,3.26-6.05.14-.54-.54-.68-1.09-.75-1.77-.14-4.14,1.49-4.14,1.49,0,0-1.77.95-1.77.14,0-1.22,1.02-2.85,2.17-3.46.14-.07.2-.14.34-.14.2-.07.48-.14.75-.14h.07c.48,0,1.09.07,1.63.54,1.29,1.09,2.85-.82,1.9-1.77-.61-.61-2.04-1.22-3.06-1.29h-.27c-.14,0-.27,0-.41.07-2.38.61-5.77,5.09-5.77,7.06,0,1.29.48,1.63,1.7,1.63,1.77,0,3.67-2.04,5.43-2.24-.75,1.56-2.78,3.6-2.78,4.89,0,3.94,8.29,2.92,8.63,8.56.34,6.25-6.86,9.1-9.78,9.1-1.63,0-3.74-.2-5.03-1.15-.48-.27-2.38-1.29-2.65-4.28-.27-3.4,2.04-6.32,1.97-6.25-2.85,1.77-3.94,5.71-3.33,7.61.54,1.63,1.77,3.6,3.4,4.35,2.38,1.02,4.96,1.09,5.64,1.09,3.87,0,11.89-2.85,12.09-9.78.2-7.2-9.65-8.15-8.9-9.24"/><path class="cls-2" d="m95.91,40.07c0-1.15-1.43-5.71-2.72-5.5-1.09.14-1.9,2.04-2.99,2.04-1.02,0-2.11-2.24-3.19-2.04-1.29.27-2.04,3.6-3.12,3.6-1.49,0-1.22-5.3-3.26-5.3-.61,0-1.7,1.22-1.97,1.97v.07s-.27.75.61.61c1.09-.14,1.29-.82,1.97.27.75,1.02.41,7.81,1.9,7.81.82,0,2.11-3.74,2.92-3.6.68.07,1.9,2.78,2.51,2.72.82-.14,2.92-4.62,3.8-4.69,1.15-.07,1.97,3.87,3.06,3.87.54,0,.48-1.43.48-1.83"/><path class="cls-2" d="m69.22,36.94c.27,1.29,2.17,1.36,2.72,1.7.34.2.88.41.88.95,0,1.49-3.26,4.35-4.69,4.01-.41-.07-.54-.34-.82-.75-.41-.54-.61-1.02.41-1.29,1.49-.34,2.92-.88,2.92-1.63-.07-1.09-3.4-.68-3.6-2.11-.34-2.45,2.38-4.42,4.28-5.37l.27-.41c.34-.48.82-.95,1.43-.95.82,0,1.22.75,1.22,1.43,0,1.22-.75,1.77-1.83,1.77-1.02,0-3.53,1.56-3.19,2.65"/><path class="cls-3" d="m122.74,68.12c-1.43,0-2.51-1.15-2.51-2.51,0-1.43,1.15-2.51,2.51-2.51,1.43,0,2.51,1.15,2.51,2.51,0,1.36-1.09,2.51-2.51,2.51m0-4.75c-1.22,0-2.17.95-2.17,2.17s.95,2.17,2.17,2.17,2.17-1.02,2.17-2.17c0-1.22-.95-2.17-2.17-2.17m.68,3.67l-.75-1.15h-.54v1.15h-.41v-2.92h1.15c.48,0,.95.34.95.88,0,.68-.54.88-.75.88l.75,1.15h-.41Zm-.48-2.58h-.82v1.09h.82c.27,0,.54-.2.54-.54s-.27-.54-.54-.54"/></svg>