<svg id="Layer_1" data-name="Layer 1" xmlns="http://www.w3.org/2000/svg" viewBox="0 0 180 80"><defs><style>.cls-1{fill:none;}.cls-2{fill:#25b3e2;fill-rule:evenodd;}</style></defs><rect class="cls-1" width="180" height="80"/><rect class="cls-1" width="180" height="80"/><path class="cls-2" d="M56,51.59A12.31,12.31,0,1,0,43.64,39.28,12.32,12.32,0,0,0,56,51.59ZM56,16a23.33,23.33,0,1,1-23.4,23.33A23.36,23.36,0,0,1,56,16Z"/><path class="cls-2" d="M124,51.59a12.31,12.31,0,1,1,12.35-12.31A12.32,12.32,0,0,1,124,51.59M124,16a23.33,23.33,0,1,0,23.4,23.33A23.36,23.36,0,0,0,124,16"/><path class="cls-2" d="M84.45,75.13h11V4.87h-11Z"/></svg>