<svg id="Layer_1" data-name="Layer 1" xmlns="http://www.w3.org/2000/svg" viewBox="0 0 180 80"><defs><style>.cls-1{fill:none;}.cls-2{fill:#0a66c2;}</style></defs><rect class="cls-1" width="180" height="80"/><rect class="cls-1" width="180" height="80"/><path class="cls-2" d="M173.54,57.65a.75.75,0,0,0,.75-.74v0c0-.55-.34-.82-1-.82h-1.11V59h.42V57.68h.51v0l.8,1.26h.45l-.86-1.31Zm-.49-.29h-.48v-1h.61c.32,0,.69.05.69.47s-.37.52-.82.52"/><path class="cls-2" d="M10.14,25.73h6.19V48.28H27.79V54H10.14Z"/><path class="cls-2" d="M30.53,34.83h5.95V54H30.53Zm3-9.52a3.45,3.45,0,1,1-3.45,3.45,3.44,3.44,0,0,1,3.45-3.45h0"/><path class="cls-2" d="M61.35,25.72H67.3v16.9L74,34.82h7.29l-7.8,8.87L81.17,54H73.69l-6.31-9.47H67.3V54H61.35Z"/><path class="cls-2" d="M39.77,34.83h5.71v2.62h.08a6.29,6.29,0,0,1,5.64-3.1c6,0,7.14,4,7.14,9.13V54h-6V44.67c0-2.22,0-5.08-3.09-5.08S45.72,42,45.72,44.51V54H39.77Z"/><path class="cls-2" d="M93.86,42.18a3.56,3.56,0,0,0-3.48-3.65h-.17A4,4,0,0,0,86,42.18Zm5,8.49a10.53,10.53,0,0,1-8.14,3.81c-6,0-10.71-4-10.71-10.12s4.76-10.12,10.71-10.12c5.56,0,9,4,9,10.12v1.86H86A4.45,4.45,0,0,0,90.49,50a5.07,5.07,0,0,0,4.24-2.34Z"/><path class="cls-2" d="M112.2,39.46a4.51,4.51,0,0,0-4.76,4.88,4.76,4.76,0,1,0,9.52,0c0-2.91-1.78-4.88-4.76-4.88M122.44,54H117V51.44h-.08a7.49,7.49,0,0,1-5.92,3c-5.71,0-9.48-4.12-9.48-10,0-5.36,3.33-10.28,8.81-10.28,2.46,0,4.76.67,6.11,2.54h.08v-11h6Z"/><path class="cls-2" d="M162.59,54h-5.94V44.68c0-2.23,0-5.09-3.1-5.09S150,42,150,44.51V54H144V34.83h5.71v2.62h.08a6.25,6.25,0,0,1,5.63-3.09c6,0,7.14,4,7.14,9.12ZM137.32,32.22a3.46,3.46,0,1,1,3.45-3.46h0a3.45,3.45,0,0,1-3.45,3.46m3,21.77h-6V34.83h6Zm25.26-34.2H131.35a2.93,2.93,0,0,0-3,2.89V57a2.93,2.93,0,0,0,3,2.89h34.21a2.93,2.93,0,0,0,3-2.89V22.68a2.93,2.93,0,0,0-3-2.89"/><path class="cls-2" d="M173.1,54.74a2.74,2.74,0,1,0,.05,0Zm0,5.16a2.4,2.4,0,1,1,2.36-2.44v0a2.35,2.35,0,0,1-2.3,2.4h-.06"/></svg>