<?xml version="1.0" encoding="UTF-8"?><svg id="Layer_1" xmlns="http://www.w3.org/2000/svg" viewBox="0 0 180 80"><defs><style>.cls-1{fill:none;}.cls-2{fill:#0c0c0c;}</style></defs><rect class="cls-1" width="180" height="80"/><rect class="cls-1" width="180" height="80"/><path class="cls-2" d="M83.81,9.73c-12.1,2.32-21.75,11.97-24.07,24.07-3.73,19.05,10.04,35.78,28.06,37.07,1.16,.13,2.19-.9,2.19-2.06v-4.12c0-1.16-.9-1.93-1.93-2.06-11.58-1.03-20.72-10.81-20.72-22.65,0-13.26,11.46-23.81,24.97-22.53,11.71,1.16,20.34,11.71,20.34,23.56v2.06c0,2.83-2.32,5.15-5.15,5.15s-5.15-2.32-5.15-5.15v-15.45c0-1.16-.9-2.06-2.06-2.06h-4.12c-.9,0-1.67,.64-1.93,1.54-1.93-.9-3.99-1.54-6.31-1.54-7.98,0-14.42,6.44-14.42,14.42s6.44,14.42,14.42,14.42c3.35,0,6.44-1.16,9.01-3.09,2.96,3.86,7.98,6.05,13.39,4.89,6.18-1.29,10.56-7.08,10.56-13.52v-2.7c0-19.05-17.38-34.11-37.07-30.25Zm4.12,36.43c-3.35,0-6.18-2.7-6.18-6.18s2.83-6.18,6.18-6.18,6.18,2.83,6.18,6.18-2.83,6.18-6.18,6.18Z"/></svg>