<svg id="Layer_1" data-name="Layer 1" xmlns="http://www.w3.org/2000/svg" viewBox="0 0 180 80"><defs><style>.cls-1{fill:none;}.cls-2{fill:#252f3e;}.cls-3{fill:#f90;fill-rule:evenodd;}</style></defs><rect class="cls-1" width="180" height="80"/><path class="cls-2" d="M67.92,31.72a10.39,10.39,0,0,0,.37,3,18.6,18.6,0,0,0,1.08,2.42,1.44,1.44,0,0,1,.23.77,1.31,1.31,0,0,1-.64,1l-2.12,1.42a1.6,1.6,0,0,1-.87.3,1.56,1.56,0,0,1-1-.47,10.72,10.72,0,0,1-1.21-1.58c-.34-.58-.68-1.22-1-2a12.41,12.41,0,0,1-9.89,4.65,9.2,9.2,0,0,1-6.73-2.43,8.63,8.63,0,0,1-2.49-6.46,8.67,8.67,0,0,1,3.06-6.93A12.25,12.25,0,0,1,54.9,22.8a26.25,26.25,0,0,1,3.56.27c1.25.17,2.53.44,3.87.74V21.36c0-2.56-.53-4.35-1.58-5.39s-2.89-1.55-5.48-1.55a15.53,15.53,0,0,0-3.64.44A26.82,26.82,0,0,0,48,16a9.32,9.32,0,0,1-1.18.44,2,2,0,0,1-.54.1c-.47,0-.71-.33-.71-1V13.85a2.12,2.12,0,0,1,.24-1.18,2.53,2.53,0,0,1,.94-.7A19,19,0,0,1,51,10.45a20.3,20.3,0,0,1,5.25-.64c4,0,6.94.91,8.82,2.73s2.79,4.57,2.79,8.28v10.9ZM54.26,36.84a11,11,0,0,0,3.46-.61,7.42,7.42,0,0,0,3.2-2.15,5.45,5.45,0,0,0,1.15-2.16A12.14,12.14,0,0,0,62.4,29V27.58A28.26,28.26,0,0,0,59.31,27a24.42,24.42,0,0,0-3.17-.2,7.75,7.75,0,0,0-5,1.34A4.7,4.7,0,0,0,49.48,32a4.34,4.34,0,0,0,4.78,4.82Zm27,3.63A1.87,1.87,0,0,1,80,40.13a2.7,2.7,0,0,1-.7-1.31l-7.91-26a6.22,6.22,0,0,1-.31-1.35.74.74,0,0,1,.81-.84h3.3A1.82,1.82,0,0,1,76.5,11a2.79,2.79,0,0,1,.68,1.31l5.65,22.28,5.25-22.28A2.36,2.36,0,0,1,88.72,11a2.26,2.26,0,0,1,1.35-.34h2.69A2,2,0,0,1,94.1,11a2.22,2.22,0,0,1,.64,1.31l5.32,22.55,5.82-22.55a2.91,2.91,0,0,1,.68-1.31,2.12,2.12,0,0,1,1.31-.34H111a.75.75,0,0,1,.84.84,2.76,2.76,0,0,1-.07.54,4.78,4.78,0,0,1-.23.84l-8.11,26a2.55,2.55,0,0,1-.71,1.31,2.18,2.18,0,0,1-1.28.33H98.55a2.07,2.07,0,0,1-1.35-.33,2.42,2.42,0,0,1-.64-1.35L91.35,17.11,86.16,38.79a2.6,2.6,0,0,1-.64,1.34,2.05,2.05,0,0,1-1.34.34Zm43.25.91a21.91,21.91,0,0,1-5.18-.61,15.2,15.2,0,0,1-3.87-1.34,2.54,2.54,0,0,1-1-.94,2.49,2.49,0,0,1-.2-1V35.83c0-.71.27-1,.77-1a2.11,2.11,0,0,1,.61.1c.2.07.51.21.84.34a18.18,18.18,0,0,0,3.7,1.18,20.2,20.2,0,0,0,4,.4,9.06,9.06,0,0,0,4.91-1.11,3.62,3.62,0,0,0,1.75-3.2,3.25,3.25,0,0,0-.91-2.35,8.41,8.41,0,0,0-3.4-1.75l-4.88-1.52a10.22,10.22,0,0,1-5.38-3.43,8,8,0,0,1-1.68-4.88,7.42,7.42,0,0,1,.91-3.73,8.54,8.54,0,0,1,2.42-2.76,10.46,10.46,0,0,1,3.5-1.75,14.48,14.48,0,0,1,4.24-.58,17,17,0,0,1,2.25.14c.78.1,1.49.23,2.19.37s1.31.34,1.92.54a7,7,0,0,1,1.41.6,2.85,2.85,0,0,1,1,.84,1.78,1.78,0,0,1,.31,1.12v1.58c0,.7-.27,1.07-.78,1.07a3.5,3.5,0,0,1-1.28-.4,15.44,15.44,0,0,0-6.46-1.31,8.65,8.65,0,0,0-4.47.94,3.25,3.25,0,0,0-1.59,3,3.16,3.16,0,0,0,1,2.38,10.21,10.21,0,0,0,3.71,1.86L129.64,24a10.18,10.18,0,0,1,5.22,3.23,7.63,7.63,0,0,1,1.55,4.71,8.59,8.59,0,0,1-.88,3.91,9.06,9.06,0,0,1-2.45,3,10.79,10.79,0,0,1-3.74,1.88A16,16,0,0,1,124.53,41.38Z"/><path class="cls-3" d="M130.89,57.74c-11.07,8.17-27.16,12.52-41,12.52A74.15,74.15,0,0,1,39.85,51.17c-1-.94-.1-2.22,1.15-1.48A100.92,100.92,0,0,0,91.08,63a99.88,99.88,0,0,0,38.19-7.81C131.13,54.34,132.71,56.39,130.89,57.74Z"/><path class="cls-3" d="M135.5,52.49c-1.41-1.82-9.36-.88-13-.44-1.07.13-1.24-.81-.27-1.52,6.33-4.44,16.73-3.16,17.94-1.68s-.33,11.92-6.26,16.9c-.91.77-1.78.37-1.38-.64C133.92,61.77,136.91,54.27,135.5,52.49Z"/></svg>