<?xml version="1.0" encoding="UTF-8"?><svg id="Layer_1" xmlns="http://www.w3.org/2000/svg" viewBox="0 0 180 80"><defs><style>.cls-1{fill:none;}.cls-2{fill:#fff;}.cls-3{fill:#ff4500;}</style></defs><rect class="cls-1" width="180" height="80"/><rect class="cls-1" width="180" height="80"/><g><circle class="cls-3" cx="26.12" cy="40" r="17.01"/><path class="cls-2" d="M37.45,40c0-1.37-1.11-2.48-2.48-2.48-.67,0-1.27,.27-1.72,.7-1.7-1.22-4.03-2.01-6.63-2.1l1.13-5.32,3.69,.78c.04,.94,.81,1.69,1.76,1.69s1.77-.79,1.77-1.77-.79-1.77-1.77-1.77c-.7,0-1.29,.41-1.58,.99l-4.12-.88c-.11-.02-.23,0-.33,.06-.1,.06-.17,.16-.19,.28l-1.26,5.93c-2.64,.07-5.01,.86-6.73,2.1-.45-.43-1.05-.69-1.72-.69-1.37,0-2.48,1.11-2.48,2.48,0,1.01,.6,1.87,1.47,2.26-.04,.25-.06,.5-.06,.75,0,3.82,4.44,6.91,9.92,6.91s9.92-3.09,9.92-6.91c0-.25-.02-.5-.06-.75,.87-.39,1.48-1.25,1.48-2.27h0Zm-17.01,1.77c0-.98,.8-1.77,1.77-1.77s1.77,.79,1.77,1.77-.79,1.77-1.77,1.77-1.77-.79-1.77-1.77Zm9.88,4.68c-1.21,1.21-3.53,1.3-4.21,1.3s-3-.09-4.21-1.3c-.18-.18-.18-.47,0-.65,.18-.18,.47-.18,.65,0,.76,.76,2.39,1.03,3.56,1.03s2.8-.27,3.56-1.03c.18-.18,.47-.18,.65,0,.18,.18,.18,.47,0,.65h0Zm-.31-2.91c-.98,0-1.77-.79-1.77-1.77s.79-1.77,1.77-1.77,1.77,.8,1.77,1.77-.79,1.77-1.77,1.77Z"/><g><path class="cls-3" d="M64.78,49.73h-4.42l-3.47-6.1c-.33,.02-.59,.02-.76,.02h-1.46v6.08h-3.92v-17.6h6.35c1.17,0,2.22,.21,3.14,.64,.92,.43,1.65,1.04,2.17,1.86,.53,.81,.79,1.78,.79,2.9,0,1.04-.23,2-.7,2.86-.47,.86-1.13,1.57-2,2.12l4.27,7.22h0Zm-10.11-9.26h1.97c.53,0,1.01-.1,1.42-.3,.41-.2,.74-.48,.97-.85,.23-.37,.35-.79,.35-1.28s-.12-.91-.35-1.28c-.23-.37-.57-.65-1-.85s-.94-.3-1.52-.3h-1.83v4.85h0Z"/><path class="cls-3" d="M76.67,44.52h-8.64c.23,.75,.64,1.34,1.22,1.76,.59,.43,1.28,.64,2.1,.64,.57,0,1.14-.09,1.73-.27,.59-.18,1.04-.4,1.36-.64l1.17,2.82c-.49,.33-1.11,.6-1.85,.8-.74,.2-1.52,.3-2.35,.3-1.37,0-2.57-.28-3.59-.84-1.03-.56-1.82-1.33-2.38-2.33-.56-.99-.84-2.13-.84-3.41s.29-2.47,.86-3.48c.57-1.01,1.34-1.78,2.31-2.33,.97-.55,2.02-.82,3.17-.82s2.1,.25,3,.76c.9,.51,1.62,1.22,2.14,2.13s.78,1.96,.78,3.13c0,.6-.06,1.21-.19,1.8h0Zm-3.28-2.36c0-.76-.23-1.37-.69-1.81-.46-.45-1.06-.67-1.81-.67s-1.39,.22-1.9,.67c-.51,.45-.85,1.05-1.02,1.81h5.42Z"/><path class="cls-3" d="M87.94,31.34h3.77v18.39h-3.59v-1.54h-.06c-.49,.55-1.06,.97-1.71,1.28-.66,.3-1.38,.45-2.18,.45-1.05,0-2.03-.26-2.94-.79s-1.64-1.29-2.18-2.29c-.55-1-.82-2.17-.82-3.53s.28-2.58,.85-3.58c.57-1,1.32-1.76,2.24-2.27,.92-.52,1.91-.78,2.97-.78,.72,0,1.37,.12,1.98,.36,.6,.24,1.13,.59,1.59,1.04h.08v-6.76h0Zm-1.38,14.91c.47-.29,.85-.69,1.13-1.2,.28-.51,.42-1.1,.42-1.75s-.13-1.22-.4-1.73-.64-.91-1.11-1.19c-.47-.29-1.01-.43-1.61-.43s-1.13,.14-1.61,.42c-.47,.28-.85,.68-1.12,1.18-.27,.51-.41,1.08-.41,1.73s.13,1.23,.4,1.74c.27,.52,.64,.92,1.12,1.22,.48,.29,1.01,.44,1.6,.44s1.11-.14,1.58-.43h0Z"/><path class="cls-3" d="M102.96,31.34h3.77v18.39h-3.59v-1.54h-.06c-.49,.55-1.06,.97-1.71,1.28-.66,.3-1.38,.45-2.18,.45-1.05,0-2.03-.26-2.94-.79s-1.64-1.29-2.18-2.29c-.55-1-.82-2.17-.82-3.53s.28-2.58,.85-3.58c.57-1,1.32-1.76,2.24-2.27,.92-.52,1.91-.78,2.97-.78,.72,0,1.37,.12,1.98,.36,.6,.24,1.13,.59,1.59,1.04h.08v-6.76h0Zm-1.38,14.91c.47-.29,.85-.69,1.13-1.2,.28-.51,.42-1.1,.42-1.75s-.13-1.22-.4-1.73-.64-.91-1.11-1.19c-.47-.29-1.01-.43-1.61-.43s-1.13,.14-1.61,.42c-.47,.28-.85,.68-1.12,1.18-.27,.51-.41,1.08-.41,1.73s.13,1.23,.4,1.74c.27,.52,.64,.92,1.12,1.22,.48,.29,1.01,.44,1.6,.44s1.11-.14,1.58-.43h0Z"/><path class="cls-3" d="M109.91,35.09c-.35-.21-.63-.49-.83-.84-.2-.35-.3-.74-.3-1.16s.1-.82,.3-1.17c.2-.35,.48-.62,.83-.82,.35-.2,.74-.3,1.17-.3s.81,.1,1.16,.3c.35,.2,.63,.48,.83,.82,.2,.35,.3,.73,.3,1.16s-.1,.81-.3,1.16c-.2,.35-.48,.63-.83,.84-.35,.21-.74,.31-1.16,.31s-.82-.1-1.17-.31Zm3.04,14.64h-3.77v-12.85h3.77v12.85h0Z"/><path class="cls-3" d="M120.88,36.88h2.76v3.21h-2.76v9.63h-3.77v-9.63h-2.75v-3.21h2.75v-3.68h3.77v3.68h0Z"/><path class="cls-3" d="M146.01,49.73h-4.14l-1.36-3.52h-6.84l-1.36,3.52h-4.15l7.28-17.6h3.3l7.28,17.6h0Zm-8.88-13.01h-.1l-2.38,6.26h4.86l-2.39-6.26Z"/><path class="cls-3" d="M155.42,31.34h3.77v18.39h-3.59v-1.54h-.06c-.49,.55-1.06,.97-1.71,1.28-.66,.3-1.38,.45-2.18,.45-1.05,0-2.03-.26-2.94-.79s-1.64-1.29-2.18-2.29c-.55-1-.82-2.17-.82-3.53s.28-2.58,.85-3.58c.57-1,1.32-1.76,2.24-2.27,.92-.52,1.91-.78,2.97-.78,.72,0,1.37,.12,1.98,.36,.6,.24,1.13,.59,1.59,1.04h.08v-6.76h0Zm-1.38,14.91c.47-.29,.85-.69,1.13-1.2,.28-.51,.42-1.1,.42-1.75s-.13-1.22-.4-1.73c-.27-.51-.64-.91-1.11-1.19-.47-.29-1.01-.43-1.61-.43s-1.13,.14-1.61,.42c-.47,.28-.85,.68-1.12,1.18-.27,.51-.41,1.08-.41,1.73s.13,1.23,.4,1.74c.27,.52,.64,.92,1.12,1.22,.48,.29,1.01,.44,1.6,.44s1.11-.14,1.58-.43h0Z"/><path class="cls-3" d="M163.85,49.51c-.71-.27-1.33-.65-1.87-1.13-.54-.49-.94-1.04-1.21-1.66l3.03-1.27c.21,.41,.53,.76,.94,1.06,.41,.3,.87,.45,1.37,.45,.29,0,.55-.05,.76-.15,.21-.1,.38-.23,.48-.39,.11-.16,.16-.32,.16-.49,0-.36-.23-.64-.7-.86-.47-.21-1.07-.41-1.81-.6-.18-.06-.29-.09-.33-.1-1.05-.29-1.89-.75-2.52-1.38-.63-.62-.94-1.42-.94-2.39,0-.76,.2-1.43,.6-2.03s.95-1.06,1.64-1.39c.7-.33,1.48-.5,2.35-.5,.75,0,1.45,.12,2.11,.37,.66,.25,1.22,.58,1.7,1.01s.82,.91,1.04,1.43l-2.89,1.22c-.16-.26-.39-.52-.69-.76-.3-.24-.68-.36-1.12-.36-.37,0-.69,.1-.94,.29-.25,.2-.38,.44-.38,.72,0,.26,.12,.49,.35,.67,.23,.18,.52,.33,.85,.45,.34,.12,.81,.26,1.4,.42,.57,.15,1.1,.34,1.6,.57,.5,.23,.97,.6,1.4,1.12,.43,.52,.65,1.19,.65,2.01s-.22,1.49-.65,2.11c-.43,.62-1.02,1.1-1.76,1.44-.74,.34-1.54,.51-2.42,.51-.77,0-1.51-.14-2.22-.41h0Z"/></g></g></svg>