<?xml version="1.0" encoding="UTF-8"?><svg id="Layer_1" xmlns="http://www.w3.org/2000/svg" viewBox="0 0 180 80"><defs><style>.cls-1{fill:none;}.cls-2{fill:#fff;}</style></defs><rect class="cls-1" width="180" height="80"/><g id="layer1"><g id="g26"><path id="path14" class="cls-2" d="M41.4,28.11l-9.06,23.77h6.15l1.67-4.59h8.63l1.69,4.59h6.31l-9.05-23.77h-6.35ZM42.06,42.2l2.44-6.7,2.44,6.7h-4.88ZM57.38,28.11h6.23v23.77h-6.23v-23.77ZM72.63,28.11h-6.23v23.77h15.13l.93-5.25h-9.83v-18.52Z"/><path id="path16" class="cls-2" d="M114.75,37.12h-9.18v-9.02h-25.15l-.93,5.41h7.32l-3.25,18.36h6.23l3.25-18.36h6.3v18.36h6.23v-9.34h9.18v9.34h6.23v-23.77h-6.23v9.02ZM26.84,37.76l-4.65-1.08c-1.24-.27-1.98-.85-1.98-1.9,0-1.31,1.2-2.1,2.98-2.1,2.05,0,3.14,1,3.64,2.31h6.08c-.66-4.1-3.95-7.27-9.76-7.27-5.26,0-9.14,3.07-9.14,7.7,0,4.03,2.63,5.85,6.12,6.63l4.57.97c1.51.35,2.25.85,2.25,1.97,0,1.48-1.31,2.27-3.21,2.27-1.94,0-3.33-.8-3.84-2.44h-6.46c.85,4.75,4.73,7.44,10.42,7.44,5.19,0,9.29-2.79,9.29-7.66,0-3.68-2.25-5.88-6.32-6.85ZM143.32,36.21c0-5.19-3.52-8.1-8.64-8.1h-10.75v23.77h6.23v-7.87h2.16l4.96,7.87h6.89l-5.57-8.51c2.9-1.08,4.72-3.56,4.72-7.16h0ZM134.02,39.09h-3.86v-5.74h3.86c2.21,0,3.22,1.13,3.22,2.87s-1.01,2.87-3.22,2.87ZM160.48,28.11v13.52c0,3.37-1.61,5.11-4.16,5.11s-4.2-1.74-4.2-5.11v-13.52h-6.23v14.07c0,6.54,4.07,10.11,10.34,10.11s10.31-3.56,10.31-10.07v-14.11h-6.06Z"/></g></g></svg>