<?xml version="1.0" encoding="UTF-8"?><svg id="Layer_1" xmlns="http://www.w3.org/2000/svg" viewBox="0 0 180 80"><defs><style>.cls-1{fill:none;}.cls-1,.cls-2,.cls-3,.cls-4,.cls-5{stroke-width:0px;}.cls-2{fill:#34a853;}.cls-3{fill:#4285f4;}.cls-4{fill:#fbbc04;}.cls-5{fill:#ea4335;}</style></defs><rect class="cls-1" width="180" height="80"/><path class="cls-2" d="m97.52,62.53c-1.38,0-2.51-1.12-2.51-2.51v-20.03c0-1.38,1.12-2.51,2.51-2.51s2.51,1.12,2.51,2.51v20.03c0,1.38-1.12,2.51-2.51,2.51Z"/><path class="cls-2" d="m74.96,62.53c-1.38,0-2.51-1.12-2.51-2.51v-27.55c0-1.38,1.12-2.51,2.51-2.51s2.51,1.12,2.51,2.51v27.55c0,1.38-1.12,2.51-2.51,2.51Z"/><path class="cls-2" d="m86.24,65.07c-1.38,0-2.51-1.12-2.51-2.51V24.96c0-1.38,1.12-2.51,2.51-2.51s2.51,1.12,2.51,2.51v37.6c0,1.38-1.12,2.51-2.51,2.51Z"/><path class="cls-4" d="m86.24,65.07c-15.9,0-28.83-12.93-28.83-28.83h5.01c0,13.13,10.68,23.81,23.81,23.81s23.81-10.68,23.81-23.81h5.01c0,15.9-12.93,28.83-28.83,28.83Z"/><path class="cls-5" d="m115.07,36.24h-5.01c0-13.13-10.68-23.81-23.81-23.81s-23.81,10.68-23.81,23.81h-5.01c0-15.9,12.93-28.83,28.83-28.83s28.83,12.93,28.83,28.83Z"/><path class="cls-3" d="m120.08,72.59c-.64,0-1.28-.24-1.77-.73l-15.23-15.23c-.98-.98-.98-2.57,0-3.55s2.57-.98,3.55,0l15.23,15.23c.98.98.98,2.57,0,3.55-.49.49-1.13.73-1.77.73h0Z"/><path class="cls-3" d="m106.62,56.62l-3.55-3.55c9.29-9.29,9.29-24.39,0-33.68l3.55-3.55c5.44,5.44,8.44,12.68,8.44,20.38s-3,14.94-8.44,20.38h0Z"/></svg>