<svg id="Layer_1" data-name="Layer 1" xmlns="http://www.w3.org/2000/svg" xmlns:xlink="http://www.w3.org/1999/xlink" viewBox="0 0 180 80"><defs><style>.cls-1{fill:none;}.cls-2{fill:url(#linear-gradient);}</style><linearGradient id="linear-gradient" x1="-300.43" y1="1197.37" x2="-299.62" y2="1196.28" gradientTransform="matrix(24.61, 0, 0, -13.3, 7535.12, 15944.87)" gradientUnits="userSpaceOnUse"><stop offset="0.04" stop-color="#21dbaa"/><stop offset="0.36" stop-color="#00b4ef"/><stop offset="0.43" stop-color="#01a7ec"/><stop offset="0.57" stop-color="#0487e4"/><stop offset="0.68" stop-color="#0768dd"/><stop offset="0.96" stop-color="#5f1ae5"/></linearGradient></defs><rect class="cls-1" width="180" height="80"/><rect class="cls-1" width="180" height="80"/><g id="Group_3" data-name="Group 3"><g id="Group_2" data-name="Group 2"><g id="Group_1" data-name="Group 1"><path id="Path_1" data-name="Path 1" d="M65.12,45.6c-.9,0-1.08-.67-1.08-1.81V32.38c0-3.9-2.2-6.23-5.89-6.23-4.4,0-6.4,3.39-6.44,6.74V33h2.95v-.14a4.29,4.29,0,0,1,1.13-3.05A3.08,3.08,0,0,1,58,28.91c1.76,0,2.81,1.37,2.81,3.68v1.07l-3.51,1.66c-4,1.87-6.59,3.38-6.59,7.31,0,3.45,2.17,5.76,5.4,5.76a6.48,6.48,0,0,0,5-2.55,3.29,3.29,0,0,0,3.36,2.55A4.69,4.69,0,0,0,66.26,48l.09,0V45.2l-.2.11A2,2,0,0,1,65.12,45.6Zm-4.28-9.11v6.65a5.15,5.15,0,0,1-4,2.58,2.78,2.78,0,0,1-2.92-2.61,3.38,3.38,0,0,1,0-.45c0-2.63,2.3-4,4.3-5Z"/><path id="Path_2" data-name="Path 2" d="M81.53,19.79H78.42l-.11,6.79H75.46v2.9h2.85v14c0,3.15,1.47,4.88,4.15,4.88a6.43,6.43,0,0,0,3.17-.9l.07,0V44.53l-.22.18a3.6,3.6,0,0,1-2.23.88c-1.42,0-1.72-1.18-1.72-2.17V29.48h4.58v-2.9H81.53Z"/><path id="Path_3" data-name="Path 3" d="M44.14,43c-1.21,1.76-2.61,2.74-3.94,2.74-1.74,0-2.36-1.71-2.36-3.3V26.58H34.65v16c0,3.72,1.68,5.85,4.61,5.85a6.15,6.15,0,0,0,5-2.55l0,2.16h3.08V26.58h-3.2Z"/><path id="Path_4" data-name="Path 4" d="M27.63,28.52a4.51,4.51,0,0,0-4.16-2.34,5.81,5.81,0,0,0-4.66,2.5c-1.47,2-2.22,4.88-2.22,8.62,0,8.2,3.32,11.12,6.42,11.12a5.19,5.19,0,0,0,4.25-2v17h3.22V26.58H27.72Zm-.37,3V43.2c-.89,1.61-2,2.36-3.4,2.36-2.64,0-4-2.79-4-8.29C19.89,32,21.39,29,24,29A3.5,3.5,0,0,1,27.26,31.48Z"/><rect id="Rectangle_2" data-name="Rectangle 2" x="68.94" y="16.57" width="3.19" height="31.43"/><rect id="Rectangle_3" data-name="Rectangle 3" x="101.33" y="26.58" width="3.19" height="21.42"/><rect id="Rectangle_4" data-name="Rectangle 4" x="101.36" y="19.76" width="3.16" height="3.71"/><path id="Path_5" data-name="Path 5" d="M92.49,29.08l-.16-2.5h-3V48h3.2V32.59c1.45-2.94,3.32-3.34,5.11-3.34l.76.06V26.19h-.87C95.22,26.18,94,26.89,92.49,29.08Z"/><path id="Path_6" data-name="Path 6" d="M130.65,35.28l-.08.11h0l.07-.12h0c-2-1-3.43-1.91-3.43-3.71a2.55,2.55,0,0,1,2.46-2.63H130a2.81,2.81,0,0,1,2.15.89,3.91,3.91,0,0,1,.82,3V33h3v-.13a6.68,6.68,0,0,0-1.63-5,5.74,5.74,0,0,0-4.25-1.7c-3.45,0-5.86,2.28-5.86,5.55,0,3.57,2.85,5.09,4.94,6.21s4,2.19,4,4.41a3.13,3.13,0,0,1-3,3.24h-.22c-2,0-3.51-1.72-3.57-4.18v-.14h-3v.14c.1,4.33,2.61,7,6.56,7a5.94,5.94,0,0,0,6.31-5.53,5.3,5.3,0,0,0,0-.69C136.19,38.2,133.25,36.65,130.65,35.28Z"/><path id="Path_7" data-name="Path 7" d="M118.19,41.27A5.5,5.5,0,0,1,117,44.8a2.51,2.51,0,0,1-1.9.79c-2.46,0-3.76-2.87-3.76-8.29s1.35-8.36,3.79-8.36a2.35,2.35,0,0,1,1.77.73A5.2,5.2,0,0,1,118,32.94h3a7.54,7.54,0,0,0-1.77-5.22,5.41,5.41,0,0,0-4-1.57c-4.58,0-7.1,4-7.1,11.12S110.6,48.39,115,48.39c3.58,0,5.82-2.64,6.1-7.12Z"/></g><path id="Path_8" data-name="Path 8" d="M140.71,46.28a.76.76,0,0,0,.1-.41.69.69,0,0,0-.2-.53.82.82,0,0,0-.6-.19h-1.14v2.28h.57v-.81h.43l.39.81h.63l-.49-.89A.57.57,0,0,0,140.71,46.28Zm-.56-.18a.69.69,0,0,1-.31.06h-.4v-.58h.4a.49.49,0,0,1,.31.07.25.25,0,0,1,.1.23.23.23,0,0,1-.1.22Z"/><path id="Path_9" data-name="Path 9" d="M141.68,45.46a1.76,1.76,0,0,0-.43-.64,2,2,0,0,0-.65-.42,2.24,2.24,0,0,0-1.61,0,2,2,0,0,0-.65.42,1.9,1.9,0,0,0-.43.64,2.27,2.27,0,0,0,0,1.66,2.16,2.16,0,0,0,.43.65,2.13,2.13,0,0,0,.65.42,2.34,2.34,0,0,0,1.61,0,1.92,1.92,0,0,0,.65-.42,2,2,0,0,0,.43-.65A2.27,2.27,0,0,0,141.68,45.46Zm-.39,1.5a1.8,1.8,0,0,1-.34.52,1.57,1.57,0,0,1-.51.34,1.82,1.82,0,0,1-1.26,0,1.47,1.47,0,0,1-.51-.34,1.61,1.61,0,0,1-.34-.52,1.82,1.82,0,0,1,0-1.34,1.51,1.51,0,0,1,.34-.52,1.35,1.35,0,0,1,.51-.34,1.71,1.71,0,0,1,1.26,0,1.43,1.43,0,0,1,.51.34,1.67,1.67,0,0,1,.34.52A1.82,1.82,0,0,1,141.29,47Z"/></g><path id="Path_10" data-name="Path 10" class="cls-2" d="M159.45,19.65l-2.77,9.78h0l-3-9.78h-6.56l-2.25,4-2.37-4h-3.34l3.88,6.27-4.25,7h3.07l2.72-4.65,2.83,4.65h5V23.73h0c.07.38.14.71.2,1s.13.53.18.76.12.46.19.67.14.44.21.69l2,6.1h2.59l2-6.1c.15-.49.28-1,.41-1.42s.24-1,.33-1.55h0v9.07h2.83V19.64Zm-13.09,6.29,3.47-5.76v11.4Z"/></g></svg>