<?xml version="1.0" encoding="UTF-8"?><svg id="Layer_1" xmlns="http://www.w3.org/2000/svg" xmlns:xlink="http://www.w3.org/1999/xlink" viewBox="0 0 180 80"><defs><style>.cls-1{fill:none;}.cls-2{clip-path:url(#clippath);}.cls-3{fill:url(#radial-gradient-3);}.cls-4{fill:url(#radial-gradient-2);}.cls-5{fill:url(#radial-gradient);}</style><clipPath id="clippath"><rect class="cls-1" x="54.9" y="4.9" width="70.19" height="70.19"/></clipPath><radialGradient id="radial-gradient" cx="-2273.36" cy="3206.25" fx="-2273.36" fy="3206.25" r=".37" gradientTransform="translate(128597.08 181244.64) scale(56.52 -56.52)" gradientUnits="userSpaceOnUse"><stop offset="0" stop-color="#0f4497"/><stop offset="0" stop-color="#fff"/><stop offset=".06" stop-color="#f6eaea"/><stop offset=".2" stop-color="#dcafb2"/><stop offset=".35" stop-color="#c67d81"/><stop offset=".49" stop-color="#b35359"/><stop offset=".63" stop-color="#a5333a"/><stop offset=".76" stop-color="#9b1d24"/><stop offset=".89" stop-color="#950f17"/><stop offset="1" stop-color="#930a12"/></radialGradient><radialGradient id="radial-gradient-2" cx="-2281.02" cy="3215.16" fx="-2281.02" fy="3215.16" r=".37" gradientTransform="translate(156495.86 220449.39) scale(68.56 -68.56)" gradientUnits="userSpaceOnUse"><stop offset="0" stop-color="#fff"/><stop offset=".04" stop-color="#eff2f8"/><stop offset=".19" stop-color="#b4c5df"/><stop offset=".34" stop-color="#829dc9"/><stop offset=".49" stop-color="#587db7"/><stop offset=".63" stop-color="#3864a9"/><stop offset=".76" stop-color="#22529f"/><stop offset=".89" stop-color="#144899"/><stop offset="1" stop-color="#0f4497"/></radialGradient><radialGradient id="radial-gradient-3" cx="-2288.55" cy="3224.96" fx="-2288.55" fy="3224.96" r=".37" gradientTransform="translate(207371.54 292131.16) scale(90.57 -90.57)" gradientUnits="userSpaceOnUse"><stop offset="0" stop-color="#0f4497"/><stop offset="0" stop-color="#fff"/><stop offset=".08" stop-color="#e6f1e0"/><stop offset=".22" stop-color="#b7d5a5"/><stop offset=".36" stop-color="#8ebe73"/><stop offset=".5" stop-color="#6dab49"/><stop offset=".64" stop-color="#539c29"/><stop offset=".77" stop-color="#419213"/><stop offset=".89" stop-color="#368b05"/><stop offset="1" stop-color="#328900"/></radialGradient></defs><rect class="cls-1" width="180" height="80"/><rect class="cls-1" width="180" height="80"/><g class="cls-2"><g><path class="cls-5" d="M88.9,35.78c8.57,0,15.51-6.94,15.51-15.51s-6.95-15.51-15.51-15.51-15.51,6.95-15.51,15.51,6.95,15.51,15.51,15.51Z"/><path class="cls-4" d="M105.07,56.33c10.66,0,19.3-8.64,19.3-19.3s-8.64-19.3-19.3-19.3-19.3,8.64-19.3,19.3,8.64,19.3,19.3,19.3Z"/><path class="cls-3" d="M79.59,74.95c13.18,0,23.87-10.68,23.87-23.87s-10.68-23.87-23.87-23.87-23.87,10.68-23.87,23.87,10.68,23.87,23.87,23.87Z"/></g></g></svg>