<?xml version="1.0" encoding="UTF-8"?><svg id="Layer_1" xmlns="http://www.w3.org/2000/svg" xmlns:xlink="http://www.w3.org/1999/xlink" viewBox="0 0 180 80"><defs><style>.cls-1{fill:none;}.cls-2{clip-path:url(#clippath);}.cls-3{fill:#cd382b;}</style><clipPath id="clippath"><rect class="cls-1" x="56.88" y="6.88" width="66.24" height="66.24"/></clipPath></defs><rect class="cls-1" width="180" height="80"/><rect class="cls-1" width="180" height="80"/><g class="cls-2"><g><path class="cls-3" d="M66.35,39.84c0-2.34-.86-4.59-2.41-6.34-1.55-1.75-3.68-2.88-6-3.17-1.61,6.23-1.61,12.77,0,19,2.32-.29,4.45-1.41,6-3.16,1.55-1.75,2.4-4,2.41-6.34Z"/><path class="cls-3" d="M71.91,36.84c-.58,0-1.15,.17-1.64,.5-.48,.32-.86,.78-1.08,1.32-.22,.54-.28,1.13-.17,1.7,.11,.57,.39,1.1,.81,1.51,.41,.41,.94,.69,1.51,.81,.57,.11,1.16,.06,1.7-.17,.54-.22,1-.6,1.32-1.08,.32-.48,.5-1.05,.5-1.64,0-.78-.31-1.53-.86-2.08-.55-.55-1.3-.86-2.08-.86Z"/><path class="cls-3" d="M113.38,39.84c0,2.33,.86,4.59,2.41,6.34,1.55,1.75,3.68,2.87,6,3.16,1.59-6.23,1.59-12.77,0-19-2.32,.29-4.45,1.41-6,3.16-1.55,1.75-2.4,4.01-2.4,6.34Z"/><path class="cls-3" d="M107.8,36.84c-.58,0-1.15,.17-1.64,.5-.48,.32-.86,.78-1.08,1.32-.22,.54-.28,1.13-.17,1.7,.11,.57,.39,1.1,.81,1.51,.41,.41,.94,.69,1.51,.81,.57,.11,1.16,.06,1.7-.17,.54-.22,1-.6,1.32-1.08,.32-.48,.5-1.05,.5-1.64,0-.78-.31-1.53-.86-2.08-.55-.55-1.3-.86-2.08-.86Z"/><path class="cls-3" d="M89.74,63.44c-2.34,0-4.59,.86-6.34,2.4-1.75,1.55-2.87,3.68-3.16,6,6.23,1.59,12.76,1.59,18.99,0-.28-2.32-1.41-4.45-3.15-6-1.75-1.55-4-2.4-6.34-2.4Z"/><path class="cls-3" d="M89.74,54.86c-.58,0-1.15,.17-1.63,.49-.48,.32-.86,.78-1.08,1.31-.22,.53-.29,1.12-.18,1.69,.11,.57,.38,1.09,.79,1.51,.4,.41,.92,.7,1.49,.82,.57,.12,1.16,.07,1.69-.14,.54-.21,1-.58,1.34-1.05,.33-.47,.52-1.04,.53-1.62,0-.39-.06-.78-.2-1.15-.14-.37-.36-.7-.63-.98s-.6-.5-.96-.66-.75-.23-1.14-.23Z"/><path class="cls-3" d="M89.74,16.38c2.34,0,4.59-.86,6.34-2.4,1.75-1.55,2.87-3.68,3.15-6-6.23-1.59-12.76-1.59-18.99,0,.28,2.32,1.41,4.45,3.16,6,1.75,1.55,4,2.4,6.34,2.4Z"/><path class="cls-3" d="M89.74,18.95c-.58,0-1.15,.17-1.64,.5-.48,.32-.86,.78-1.08,1.32-.22,.54-.28,1.13-.17,1.7,.11,.57,.39,1.1,.81,1.51,.41,.41,.94,.69,1.51,.81,.57,.11,1.16,.06,1.7-.17,.54-.22,1-.6,1.32-1.08,.32-.48,.5-1.05,.5-1.64,0-.78-.31-1.53-.86-2.08-.55-.55-1.3-.86-2.08-.86Z"/><path class="cls-3" d="M106.46,56.49c-1.65,1.65-2.64,3.85-2.78,6.17-.14,2.33,.57,4.63,2,6.47,5.56-3.25,10.21-7.86,13.5-13.39-1.84-1.46-4.16-2.19-6.5-2.05-2.35,.14-4.56,1.13-6.22,2.8Z"/><path class="cls-3" d="M100.4,50.43c-.4,.42-.67,.94-.78,1.51-.1,.57-.04,1.15,.19,1.69s.6,.99,1.09,1.3c.48,.32,1.05,.49,1.62,.49s1.14-.17,1.62-.49c.48-.32,.86-.77,1.09-1.3s.29-1.12,.19-1.69c-.1-.57-.37-1.09-.78-1.51-.27-.28-.6-.51-.97-.67-.36-.15-.76-.23-1.15-.23s-.79,.08-1.15,.23c-.36,.15-.69,.38-.97,.67Z"/><path class="cls-3" d="M73.19,23.24c1.65-1.65,2.64-3.85,2.78-6.18,.14-2.33-.57-4.63-2-6.48-5.54,3.27-10.16,7.89-13.43,13.44,1.84,1.43,4.14,2.14,6.47,2,2.33-.14,4.52-1.13,6.18-2.78Z"/><path class="cls-3" d="M75.02,25.05c-.4,.42-.67,.94-.77,1.51-.1,.57-.04,1.15,.19,1.68s.6,.98,1.09,1.3c.48,.32,1.05,.49,1.62,.49s1.14-.17,1.62-.49c.48-.32,.86-.77,1.09-1.3s.29-1.12,.19-1.68c-.1-.57-.37-1.09-.77-1.51-.27-.29-.61-.52-.97-.67-.37-.16-.76-.24-1.16-.24s-.79,.08-1.16,.24c-.37,.16-.7,.38-.97,.67Z"/><path class="cls-3" d="M106.43,23.21c1.65,1.65,3.85,2.64,6.18,2.78,2.33,.14,4.63-.57,6.48-2-3.27-5.54-7.89-10.17-13.44-13.44-1.44,1.84-2.15,4.15-2,6.48,.14,2.33,1.13,4.53,2.78,6.18Z"/><path class="cls-3" d="M104.62,29.25c.4-.42,.67-.94,.77-1.51,.1-.57,.04-1.15-.19-1.68-.23-.53-.6-.98-1.09-1.3-.48-.32-1.05-.49-1.62-.49s-1.14,.17-1.62,.49c-.48,.32-.86,.77-1.09,1.3-.23,.53-.29,1.12-.19,1.68,.1,.57,.37,1.09,.77,1.51,.27,.29,.6,.52,.97,.67,.37,.16,.76,.24,1.16,.24s.79-.08,1.16-.24c.37-.16,.7-.38,.97-.67Z"/><path class="cls-3" d="M73.18,56.46c-1.66-1.64-3.86-2.62-6.19-2.75-2.33-.13-4.63,.59-6.46,2.03,3.26,5.55,7.88,10.17,13.43,13.44,1.45-1.85,2.18-4.16,2.04-6.51-.14-2.35-1.15-4.56-2.82-6.21Z"/><path class="cls-3" d="M75.02,50.4c-.4,.42-.67,.94-.77,1.51-.1,.57-.04,1.15,.19,1.68,.23,.53,.6,.98,1.09,1.3,.48,.32,1.05,.49,1.62,.49s1.14-.17,1.62-.49c.48-.32,.86-.77,1.09-1.3,.23-.53,.29-1.12,.19-1.68-.1-.57-.37-1.09-.77-1.51-.27-.29-.61-.52-.97-.67-.37-.16-.76-.24-1.16-.24s-.79,.08-1.16,.24c-.37,.16-.7,.38-.97,.67Z"/></g></g></svg>