<?xml version="1.0" encoding="UTF-8"?><svg id="Layer_1" xmlns="http://www.w3.org/2000/svg" xmlns:xlink="http://www.w3.org/1999/xlink" viewBox="0 0 180 80"><defs><style>.cls-1{fill:none;}.cls-2{clip-path:url(#clippath);}.cls-3{fill:#fbbc04;}.cls-4{fill:#34a853;}.cls-5{fill:#3b80ef;}</style><clipPath id="clippath"><rect class="cls-1" x="54.32" y="4.32" width="71.36" height="71.36"/></clipPath></defs><rect class="cls-1" width="180" height="80"/><rect class="cls-1" width="180" height="80"/><g class="cls-2"><g><path class="cls-3" d="M123.69,44.59l-29.1,29.1c-2.65,2.66-6.96,2.66-9.62,0-2.66-2.65-2.65-6.96,0-9.62l29.1-29.1c2.65-2.65,6.96-2.65,9.62,0,2.66,2.66,2.66,6.96,0,9.62Z"/><path class="cls-4" d="M89.78,75.68c3.76,0,6.8-3.04,6.8-6.8s-3.04-6.8-6.8-6.8-6.8,3.04-6.8,6.8,3.04,6.8,6.8,6.8Z"/><path class="cls-3" d="M99.74,20.64l-14.55,14.55,9.62,9.62,14.55-14.55c2.65-2.65,2.65-6.96,0-9.62-2.66-2.66-6.96-2.66-9.62,0Z"/><path class="cls-5" d="M80.26,59.36l14.55-14.55-9.62-9.62-14.55,14.55c-2.65,2.65-2.65,6.96,0,9.62,2.65,2.65,6.96,2.65,9.62,0Z"/><path class="cls-4" d="M94.84,44.78c2.66-2.66,2.66-6.96,0-9.62-2.66-2.66-6.96-2.66-9.62,0-2.66,2.66-2.66,6.96,0,9.62,2.66,2.66,6.96,2.66,9.62,0Z"/><path class="cls-5" d="M95.03,15.93l-29.1,29.1c-2.65,2.65-6.96,2.65-9.62,0-2.65-2.65-2.65-6.96,0-9.62L85.41,6.31c2.65-2.65,6.96-2.65,9.62,0,2.65,2.65,2.65,6.96,0,9.62Z"/><path class="cls-4" d="M90.22,17.92c3.76,0,6.8-3.04,6.8-6.8s-3.04-6.8-6.8-6.8-6.8,3.04-6.8,6.8,3.04,6.8,6.8,6.8Z"/></g></g></svg>