<?xml version="1.0" encoding="UTF-8"?><svg id="Layer_1" xmlns="http://www.w3.org/2000/svg" xmlns:xlink="http://www.w3.org/1999/xlink" viewBox="0 0 180 80"><defs><style>.cls-1{fill:none;}.cls-2{fill:url(#linear-gradient);}.cls-3{fill:#fff;}</style><linearGradient id="linear-gradient" x1="-5577.56" y1="415.89" x2="-5485.11" y2="323.44" gradientTransform="translate(459.67 -5491.33) rotate(-90) scale(1 -1)" gradientUnits="userSpaceOnUse"><stop offset="0" stop-color="#1b660f"/><stop offset="1" stop-color="#6cae3e"/></linearGradient></defs><rect class="cls-1" width="180" height="80"/><rect class="cls-1" width="180" height="80"/><g id="Reference"><rect id="Green_Gradient" class="cls-2" x="57.31" y="7.31" width="65.37" height="65.37"/><g id="Icon_Test"><path class="cls-3" d="M110.86,42.23c-.25-1.37-1.8-2.34-2.87-3.02-.34-.22-1.27-.57-1.35-.87,0-.22,.02-.44,.09-.65l.87-6.27c.25-1.84,.5-3.68,.75-5.52,.23-1.69-.58-2.82-1.96-3.77-2.81-1.94-6.47-2.73-9.77-3.27-4.14-.68-8.36-.81-12.53-.41-3.76,.28-7.45,1.16-10.92,2.61-1.87,.87-4.31,2.23-4,4.61,.87,7.08,1.9,14.14,2.85,21.21,.44,3.23,.87,6.47,1.31,9.7,.14,1.28,.96,2.39,2.14,2.9,2.7,1.46,6.05,1.88,9.07,2.16,4.01,.36,8.05,.18,12.01-.53,2.51-.46,7.18-1.22,7.58-4.36,.5-3.89,1.05-7.78,1.57-11.65l.19-1.19c1.42,.34,5.47,1.06,4.98-1.69Zm-22.12-22.28c5.23,0,11.22,.59,15.91,3.17,.72,.4,2.41,1.3,1.9,2.36s-2.07,1.6-3.03,1.98c-1.37,.51-2.78,.9-4.21,1.18-6.22,1.23-12.61,1.37-18.88,.39-2.83-.29-5.58-1.1-8.12-2.38-.63-.36-1.66-1-1.38-1.86,.23-.46,.59-.84,1.03-1.1,1.91-1.23,4.04-2.09,6.28-2.54,3.44-.83,6.97-1.23,10.51-1.21Zm13.67,36.74c-.13,1.02-1.81,1.53-2.61,1.81-1.66,.56-3.38,.94-5.13,1.15-3.87,.51-7.79,.51-11.65,0-2.42-.19-4.79-.83-6.97-1.89-.61-.26-1.01-.85-1.05-1.51-.87-6.91-1.87-13.82-2.8-20.74l-1.01-7.5c1.98,1.09,4.13,1.85,6.36,2.23,2.39,.49,4.81,.8,7.24,.95,4.78,.34,9.58,.08,14.29-.79,2.51-.36,4.93-1.17,7.16-2.39l-1.85,13.68c-4.42-1.46-8.73-3.2-12.92-5.23-.18-.07-.36-.15-.53-.25-.24-.17-.17-.09-.29-.36-.22-.5-.27-.87-.73-1.28-.85-.68-2.08-.54-2.76,.3-.68,.85-.54,2.08,.3,2.76,.39,.31,.88,.46,1.37,.43,.3-.05,.59-.14,.87-.26,.34-.1,.34-.09,.7,.08,4.24,2.07,8.61,3.86,13.07,5.37,.67,.22,.66,0,.66,.56-.03,.42-.08,.85-.17,1.26l-.56,4.16-1.01,7.45Zm-13.45-20.61c0,.24-.33,.21-.42,.06s.42-.39,.42-.06Zm17.17,6.1l.26-1.93c.87,.5,2.35,1.25,2.75,2.24-.85,.35-2.21-.11-3.01-.31Z"/></g></g></svg>