<?xml version="1.0" encoding="UTF-8"?><svg id="Layer_1" xmlns="http://www.w3.org/2000/svg" viewBox="0 0 180 80"><defs><style>.cls-1{fill:none;}.cls-1,.cls-2{stroke-width:0px;}.cls-2{fill:#0d9dda;}</style></defs><rect class="cls-1" width="180" height="80"/><path class="cls-2" d="m82.34,14.99c2.95-3.07,7.05-4.98,11.59-4.98,6.04,0,11.3,3.37,14.1,8.36,2.44-1.09,5.13-1.7,7.97-1.7,10.89,0,19.71,8.9,19.71,19.88s-8.82,19.88-19.71,19.88c-1.33,0-2.63-.13-3.88-.39-2.47,4.4-7.18,7.38-12.58,7.38-2.26,0-4.4-.52-6.3-1.45-2.5,5.89-8.34,10.02-15.13,10.02s-13.11-4.48-15.43-10.76c-1.01.21-2.06.33-3.14.33-8.43,0-15.26-6.9-15.26-15.42,0-5.71,3.07-10.69,7.63-13.36-.94-2.16-1.46-4.55-1.46-7.05,0-9.78,7.97-17.72,17.77-17.72,5.76,0,10.88,2.74,14.12,6.98Z"/></svg>