<?xml version="1.0" encoding="UTF-8"?><svg id="Layer_1" xmlns="http://www.w3.org/2000/svg" xmlns:xlink="http://www.w3.org/1999/xlink" viewBox="0 0 180 80"><defs><style>.cls-1{fill:none;}.cls-2{clip-path:url(#clippath);}.cls-3{fill:#fbbc04;}.cls-4{fill:#34a853;}.cls-5{fill:#3b80ef;}</style><clipPath id="clippath"><rect class="cls-1" x="56" y="6" width="68" height="68"/></clipPath></defs><rect class="cls-1" width="180" height="80"/><rect class="cls-1" width="180" height="80"/><g class="cls-2"><g><path class="cls-3" d="M122.1,44.37l-27.73,27.73c-2.53,2.53-6.63,2.53-9.16,0-2.53-2.53-2.53-6.63,0-9.16l27.73-27.73c2.53-2.53,6.63-2.53,9.16,0,2.53,2.53,2.53,6.63,0,9.17Z"/><path class="cls-4" d="M89.79,74c3.58,0,6.48-2.9,6.48-6.48s-2.9-6.48-6.48-6.48-6.48,2.9-6.48,6.48,2.9,6.48,6.48,6.48Z"/><path class="cls-3" d="M99.28,21.55l-13.87,13.86,9.16,9.16,13.87-13.86c2.53-2.53,2.53-6.63,0-9.16-2.53-2.53-6.63-2.53-9.16,0Z"/><path class="cls-5" d="M80.72,58.45l13.86-13.86-9.16-9.16-13.86,13.86c-2.53,2.53-2.53,6.63,0,9.16,2.53,2.53,6.63,2.53,9.16,0Z"/><path class="cls-4" d="M94.61,44.55c2.53-2.53,2.53-6.63,0-9.16-2.53-2.53-6.63-2.53-9.16,0-2.53,2.53-2.53,6.63,0,9.16,2.53,2.53,6.63,2.53,9.16,0Z"/><path class="cls-5" d="M94.79,17.06l-27.73,27.73c-2.53,2.53-6.63,2.53-9.16,0-2.53-2.53-2.53-6.63,0-9.16L85.63,7.9c2.53-2.53,6.63-2.53,9.16,0,2.53,2.53,2.53,6.63,0,9.16Z"/><path class="cls-4" d="M90.21,18.96c3.58,0,6.48-2.9,6.48-6.48s-2.9-6.48-6.48-6.48-6.48,2.9-6.48,6.48,2.9,6.48,6.48,6.48Z"/></g></g></svg>