<?xml version="1.0" encoding="UTF-8"?><svg id="Layer_1" xmlns="http://www.w3.org/2000/svg" viewBox="0 0 180 80"><defs><style>.cls-1{fill:none;}.cls-1,.cls-2,.cls-3{stroke-width:0px;}.cls-2{fill:#0c0c0c;}.cls-3{fill:#dff200;}</style></defs><rect class="cls-1" width="180" height="80"/><rect class="cls-2" x="54.96" y="19.45" width="69.87" height="44.21"/><path class="cls-3" d="m58.53,8.53c-4.96,0-8.99,4.03-8.99,8.99v44.96c0,4.96,4.03,8.99,8.99,8.99h62.95c4.96,0,8.99-4.03,8.99-8.99V17.52c0-4.96-4.03-8.99-8.99-8.99h-62.95Zm11.24,35.97h8.99c6.21,0,11.24,5.03,11.24,11.24,0,1.24-1.01,2.25-2.25,2.25h-26.98c-1.24,0-2.25-1.01-2.25-2.25,0-6.21,5.03-11.24,11.24-11.24Zm13.49-13.49c0,4.96-4.03,8.99-8.99,8.99s-8.99-4.03-8.99-8.99,4.03-8.99,8.99-8.99,8.99,4.03,8.99,8.99Zm17.98-4.5h17.98c1.24,0,2.25,1.01,2.25,2.25s-1.01,2.25-2.25,2.25h-17.98c-1.24,0-2.25-1.01-2.25-2.25s1.01-2.25,2.25-2.25Zm0,8.99h17.98c1.24,0,2.25,1.01,2.25,2.25s-1.01,2.25-2.25,2.25h-17.98c-1.24,0-2.25-1.01-2.25-2.25s1.01-2.25,2.25-2.25Zm0,8.99h17.98c1.24,0,2.25,1.01,2.25,2.25s-1.01,2.25-2.25,2.25h-17.98c-1.24,0-2.25-1.01-2.25-2.25s1.01-2.25,2.25-2.25Z"/></svg>