<svg id="Layer_1" data-name="Layer 1" xmlns="http://www.w3.org/2000/svg" viewBox="0 0 180 80"><defs><style>.cls-1{fill:none;}.cls-2,.cls-8{fill:#59c1a7;}.cls-2,.cls-3{opacity:0.25;}.cls-2,.cls-3,.cls-4,.cls-5{isolation:isolate;}.cls-3,.cls-7{fill:#36c3f2;}.cls-4,.cls-9{fill:#ef3d55;}.cls-4,.cls-5{opacity:0.15;}.cls-5,.cls-6{fill:#6a266d;}.cls-10{fill:#333332;}</style></defs><rect class="cls-1" width="180" height="80"/><rect class="cls-1" width="180" height="80"/><g id="Lines"><rect class="cls-2" x="26.66" y="42.4" width="23.52" height="11.85" transform="translate(-22.91 41.32) rotate(-45)"/><rect class="cls-3" x="32.39" y="19.8" width="11.85" height="23.52" transform="translate(-11.09 36.34) rotate(-45)"/><rect class="cls-4" x="15.5" y="36.58" width="11.85" height="23.52" transform="translate(-27.9 29.31) rotate(-45)"/><rect class="cls-5" x="10.06" y="25.24" width="23.52" height="11.85" transform="translate(-15.64 24.56) rotate(-45)"/></g><g id="Nodes"><circle class="cls-6" cx="29.89" cy="23.12" r="5.97"/><circle class="cls-7" cx="46.74" cy="40.03" r="5.97"/><circle class="cls-8" cx="29.89" cy="56.88" r="5.97"/><circle class="cls-9" cx="13.05" cy="39.97" r="5.97"/></g><g id="Iterable"><path class="cls-10" d="M104.7,33H97.43a.25.25,0,0,0-.25.24V46a.25.25,0,0,0,.25.24h7.27a.24.24,0,0,0,.24-.24V44a.25.25,0,0,0-.24-.25h-4.44a.45.45,0,0,1-.47-.46v-2.1a.45.45,0,0,1,.47-.46h4.06a.25.25,0,0,0,.25-.25V38.62a.25.25,0,0,0-.25-.24h-4.06a.46.46,0,0,1-.47-.47V36a.46.46,0,0,1,.47-.47h4.44a.24.24,0,0,0,.24-.24v-2a.25.25,0,0,0-.24-.26Z"/><path class="cls-10" d="M134.9,46.24a.23.23,0,0,0,.2-.11.28.28,0,0,0,0-.22L130,33.09a.25.25,0,0,0-.22-.15h-1.31a.27.27,0,0,0-.22.15l-5.12,12.8a.22.22,0,0,0,0,.22.24.24,0,0,0,.2.11h2.34a.23.23,0,0,0,.22-.15l.64-1.77A.48.48,0,0,1,127,44h4.31a.49.49,0,0,1,.45.31l.62,1.77a.23.23,0,0,0,.22.15Zm-4.38-4.7a.44.44,0,0,1-.38.2h-2a.44.44,0,0,1-.37-.2.5.5,0,0,1-.07-.42l1-2.81a.46.46,0,0,1,.88,0l1,2.81A.4.4,0,0,1,130.52,41.54Z"/><path class="cls-10" d="M160.28,46.24a.24.24,0,0,0,.24-.24V44a.25.25,0,0,0-.24-.25H156.5a.45.45,0,0,1-.47-.46V33.2a.24.24,0,0,0-.24-.24h-2.12a.25.25,0,0,0-.25.24V46a.25.25,0,0,0,.25.24Z"/><path class="cls-10" d="M139.63,46.24h5a4.27,4.27,0,0,0,2.23-.53,3.62,3.62,0,0,0,1.41-1.39,3.77,3.77,0,0,0,.49-1.83,3.57,3.57,0,0,0-2-3.3.11.11,0,0,1-.07-.11V39l.05-.07a3.18,3.18,0,0,0,1.15-2.52,3.65,3.65,0,0,0-.45-1.75,3.08,3.08,0,0,0-1.32-1.26,4.69,4.69,0,0,0-2.21-.48h-4.27a.25.25,0,0,0-.26.26V46A.23.23,0,0,0,139.63,46.24ZM142,35.88a.4.4,0,0,1,.4-.4h1.15a1.73,1.73,0,0,1,1.22.4,1.41,1.41,0,0,1,.44.84,1.46,1.46,0,0,1-.44,1.24,1.77,1.77,0,0,1-1.24.44h-1.15a.4.4,0,0,1-.4-.4ZM142,41a.4.4,0,0,1,.4-.4h1.77a1.76,1.76,0,0,1,1.28.47,1.47,1.47,0,0,1,.51,1.13,1.54,1.54,0,0,1-.49,1.14,1.72,1.72,0,0,1-1.3.47h-1.75a.44.44,0,0,1-.42-.42h0Z"/><path class="cls-10" d="M116.93,41.65a.45.45,0,0,1,.15-.62,3.94,3.94,0,0,0,1.39-1.42,4.35,4.35,0,0,0,.6-2.3,4.57,4.57,0,0,0-.55-2.14,4.31,4.31,0,0,0-1.59-1.61,4.76,4.76,0,0,0-2.39-.62h-4.05a.24.24,0,0,0-.24.24V46a.24.24,0,0,0,.24.24h2.12a.25.25,0,0,0,.25-.24V42.11a.45.45,0,0,1,.46-.46H114a.48.48,0,0,1,.42.24l2.19,4.2a.24.24,0,0,0,.22.13h2.41a.27.27,0,0,0,.27-.22.15.15,0,0,0,0-.13Zm-1.09-3a2.06,2.06,0,0,1-1.46.51h-1.06a.45.45,0,0,1-.46-.46V35.94a.45.45,0,0,1,.46-.46h1.06a2.12,2.12,0,0,1,1.46.53,1.86,1.86,0,0,1,0,2.61,0,0,0,0,0,0,0Z"/><path class="cls-10" d="M92.32,33H83.94a.24.24,0,0,0-.24.24h0v2a.24.24,0,0,0,.24.24H86.4a.45.45,0,0,1,.46.46h0V46a.25.25,0,0,0,.24.25h2.15a.25.25,0,0,0,.24-.25h0V35.92a.45.45,0,0,1,.47-.46h2.36a.25.25,0,0,0,.24-.25v-2a.24.24,0,0,0-.24-.22Z"/><path class="cls-10" d="M172.65,43.72h-4.44a.45.45,0,0,1-.46-.46v-2.1a.45.45,0,0,1,.46-.46h4.07a.25.25,0,0,0,.24-.25V38.62a.24.24,0,0,0-.24-.24h-4.07a.45.45,0,0,1-.46-.47V36a.45.45,0,0,1,.46-.47h4.44a.25.25,0,0,0,.25-.24v-2a.25.25,0,0,0-.25-.24h-7.27a.24.24,0,0,0-.24.24V46a.25.25,0,0,0,.24.25h7.3a.25.25,0,0,0,.24-.25V44A.29.29,0,0,0,172.65,43.72Z"/><path class="cls-10" d="M78.75,43.7h-2.1a.45.45,0,0,1-.47-.46h0V35.92a.45.45,0,0,1,.47-.46h2.12a.25.25,0,0,0,.24-.25h0v-2a.24.24,0,0,0-.24-.24H70.86a.25.25,0,0,0-.25.24h0v2.06a.25.25,0,0,0,.25.24h2.23a.45.45,0,0,1,.46.46v7.34a.45.45,0,0,1-.46.44H70.86a.25.25,0,0,0-.25.25h0v2a.25.25,0,0,0,.25.24h2.87s0,0,.07,0h2.14a.08.08,0,0,0,.07,0h2.76A.24.24,0,0,0,79,46h0V44a.28.28,0,0,0-.26-.27Z"/></g></svg>