<?xml version="1.0" encoding="UTF-8"?><svg id="Layer_1" xmlns="http://www.w3.org/2000/svg" xmlns:xlink="http://www.w3.org/1999/xlink" viewBox="0 0 180 80"><defs><style>.cls-1{fill:none;}.cls-2{fill:url(#linear-gradient);}.cls-3{fill:#fff;}</style><linearGradient id="linear-gradient" x1="-1153.85" y1="6533.3" x2="-1284.6" y2="6533.3" gradientTransform="translate(-5391.86 -3717.62) rotate(135) scale(1 -1)" gradientUnits="userSpaceOnUse"><stop offset="0" stop-color="#4d27a8"/><stop offset="1" stop-color="#a166ff"/></linearGradient></defs><rect class="cls-1" width="180" height="80"/><rect class="cls-1" width="180" height="80"/><g id="Reference"><rect id="Purple_Gradient" class="cls-2" x="57.31" y="7.31" width="65.37" height="65.37"/><g id="Icon_Test"><path class="cls-3" d="M97.53,60.2l-1.55-.8c.83-1.57,1.49-3.23,1.98-4.93l1.67,.49c-.52,1.82-1.22,3.57-2.1,5.25Zm1.62-15.96c-.3-4.88-1.89-9.6-4.59-13.67l1.46-.95c2.88,4.32,4.56,9.33,4.88,14.51l-1.74,.1Zm-11.5-21.03c-1.27-.94-2.61-1.77-4.03-2.48l.79-1.55c1.51,.74,2.94,1.62,4.29,2.61l-1.05,1.41Z"/><path class="cls-3" d="M94.79,46.45c-2.75-2.73-6.08-4.82-9.74-6.1l.54-1.66c3.9,1.37,7.44,3.59,10.37,6.49l-1.18,1.26Z"/><path class="cls-3" d="M101.98,56.86c-.32-.87-.69-1.67-1.09-2.48l1.56-.78c.43,.85,.82,1.72,1.16,2.61l-1.63,.65Z"/><path class="cls-3" d="M97.03,60.61l-.56-1.65c2.09-.7,4.04-1.76,5.78-3.11l1.07,1.38c-1.89,1.47-4.02,2.62-6.29,3.38Z"/><path class="cls-3" d="M69.32,39.56l-.4-1.69c1.93-.47,3.91-.73,5.9-.78l.04,1.74c-1.87,.04-3.73,.28-5.54,.72Z"/><path class="cls-3" d="M83.62,34.02l-1.46-.95c1.28-2.08,2.86-3.96,4.68-5.58l1.15,1.32c-1.7,1.51-3.17,3.27-4.37,5.21Z"/><path class="cls-3" d="M96.58,23.68l-.59-1.64c1.31-.49,2.66-.88,4.04-1.15l.32,1.74c-1.28,.24-2.54,.59-3.77,1.05Z"/><path class="cls-3" d="M79.32,58.74c-1.42-3.31-2.19-6.86-2.24-10.46,.03-1.39,.21-2.77,.54-4.11,.06-.31,.13-.62,.19-.94l1.74,.34c-.06,.33-.13,.65-.19,.96-.3,1.23-.47,2.49-.51,3.76,.04,3.38,.74,6.72,2.07,9.83l-1.61,.63Z"/><path class="cls-3" d="M90,61.79c-12.04,0-21.79-9.76-21.79-21.79,0-.44,0-.87,.04-1.32,.55-9.14,6.75-16.95,15.52-19.57,5.65-1.68,11.74-1,16.88,1.88,10.5,5.89,14.24,19.17,8.35,29.66-1.43,2.55-3.36,4.79-5.67,6.58-3.82,2.94-8.51,4.54-13.33,4.55Zm0-41.84c-1.94,0-3.87,.3-5.73,.87-8.06,2.41-13.76,9.59-14.28,17.98,0,.41-.04,.8-.04,1.19,0,11.07,8.98,20.05,20.05,20.05,2.2,0,4.39-.36,6.47-1.08,2.09-.7,4.05-1.75,5.79-3.11,8.76-6.78,10.36-19.37,3.59-28.12-3.79-4.9-9.64-7.77-15.84-7.78Z"/><path class="cls-3" d="M92.12,29.91c-2.13,0-3.86-1.73-3.86-3.86s1.73-3.86,3.86-3.86c2.13,0,3.86,1.73,3.86,3.86,0,0,0,0,0,0,0,2.13-1.72,3.85-3.85,3.85,0,0,0,0,0,0Zm0-5.97c-1.17,0-2.12,.95-2.12,2.12s.95,2.12,2.12,2.12,2.12-.95,2.12-2.12-.95-2.12-2.12-2.12h0Z"/><path class="cls-3" d="M80.23,42.07c-2.13,0-3.86-1.73-3.86-3.86,0-2.13,1.73-3.86,3.86-3.86,2.13,0,3.86,1.73,3.86,3.86,0,2.13-1.73,3.86-3.86,3.86Zm0-5.98c-1.17,0-2.12,.95-2.12,2.12s.95,2.12,2.12,2.12,2.12-.95,2.12-2.12c0-1.17-.93-2.13-2.1-2.14,0,0-.01,0-.02,0v.02Z"/><path class="cls-3" d="M99.4,53.25c-2.13,0-3.87-1.72-3.87-3.85,0-2.13,1.72-3.87,3.85-3.87,2.13,0,3.87,1.72,3.87,3.85,0,0,0,.01,0,.02,0,2.13-1.72,3.85-3.85,3.85h0Zm0-5.97c-1.17,0-2.12,.94-2.13,2.11,0,1.17,.94,2.12,2.11,2.13s2.12-.94,2.13-2.11c0,0,0,0,0,0,0-1.17-.94-2.11-2.11-2.12Z"/></g></g></svg>