<?xml version="1.0" encoding="UTF-8"?><svg id="Layer_1" xmlns="http://www.w3.org/2000/svg" xmlns:xlink="http://www.w3.org/1999/xlink" viewBox="0 0 180 80"><defs><style>.cls-1{fill:none;}.cls-2{clip-path:url(#clippath);}.cls-3{fill:#ff7900;}.cls-3,.cls-4{fill-rule:evenodd;}.cls-4{fill:#fff;}</style><clipPath id="clippath"><rect class="cls-1" x="60" y="10" width="60" height="60"/></clipPath></defs><rect class="cls-1" width="180" height="80"/><rect class="cls-1" width="180" height="80"/><g class="cls-2"><g><path class="cls-3" d="M81.13,16.73l-5.06-5.06c-.25-.25-.59-.4-.94-.4h-13.66c-.18,0-.36,.03-.52,.1-.17,.07-.32,.17-.44,.29s-.23,.28-.29,.44c-.07,.17-.1,.34-.1,.52V56.29c0,.36,.14,.71,.4,.96,.26,.25,.6,.4,.96,.4h27.28v8.26h-16.38c-.36,0-.71,.14-.96,.4-.26,.25-.4,.6-.4,.96s.14,.71,.4,.96c.26,.26,.6,.4,.96,.4h35.48c.36,0,.71-.14,.96-.4,.26-.25,.4-.6,.4-.96s-.14-.71-.4-.96c-.25-.26-.6-.4-.96-.4h-16.38v-8.18h27.28c.36,0,.71-.14,.96-.4,.25-.25,.4-.6,.4-.96V18.17c0-.36-.14-.71-.4-.96-.25-.26-.6-.4-.96-.4h-37.62v-.08Z"/><path class="cls-3" d="M61.47,65.91c-.27,0-.53,.08-.76,.23-.22,.15-.4,.36-.5,.61-.1,.25-.13,.52-.08,.79,.05,.26,.18,.51,.37,.7,.19,.19,.43,.32,.7,.37,.26,.05,.54,.03,.79-.08,.25-.1,.46-.28,.61-.5,.15-.22,.23-.49,.23-.76,0-.18-.03-.36-.1-.52-.07-.17-.17-.32-.29-.44-.13-.13-.28-.23-.44-.29-.17-.07-.34-.1-.52-.1Z"/><path class="cls-3" d="M66.93,65.91c-.27,0-.53,.08-.76,.23-.22,.15-.4,.36-.5,.61-.1,.25-.13,.52-.08,.79,.05,.26,.18,.51,.37,.7,.19,.19,.43,.32,.7,.37s.54,.03,.79-.08c.25-.1,.46-.28,.61-.5,.15-.22,.23-.49,.23-.76,0-.18-.03-.36-.1-.52-.07-.17-.17-.32-.29-.44-.13-.13-.28-.23-.44-.29-.17-.07-.34-.1-.52-.1Z"/><path class="cls-3" d="M113.45,65.91c-.27,0-.53,.08-.76,.23-.22,.15-.4,.36-.5,.61-.1,.25-.13,.52-.08,.79,.05,.26,.18,.51,.37,.7,.19,.19,.43,.32,.7,.37,.26,.05,.54,.03,.79-.08,.25-.1,.46-.28,.61-.5,.15-.22,.23-.49,.23-.76,0-.18-.03-.36-.1-.52s-.17-.32-.29-.44c-.13-.13-.28-.23-.44-.29-.17-.07-.34-.1-.52-.1Z"/><path class="cls-3" d="M118.75,65.91c-.27,0-.53,.08-.76,.23-.22,.15-.4,.36-.5,.61-.1,.25-.13,.52-.08,.79,.05,.26,.18,.51,.37,.7,.19,.19,.43,.32,.7,.37,.26,.05,.54,.03,.79-.08,.25-.1,.46-.28,.61-.5,.15-.22,.23-.49,.23-.76,0-.18-.03-.36-.1-.52-.07-.17-.17-.32-.29-.44-.13-.13-.28-.23-.44-.29-.17-.07-.34-.1-.52-.1Z"/><path class="cls-4" d="M109.91,33.13c-.32-.26-.73-.4-1.14-.38h-1.52s-.08-.03-.13-.03-.09,0-.13,.03c-.03,.08-.03,.16,0,.24v2.18c-.01,.08-.01,.16,0,.24,.03,.01,.07,.02,.1,.02s.07,0,.1-.02h1.72c.4,.02,.79-.12,1.1-.38,.14-.13,.24-.3,.31-.48,.07-.18,.1-.37,.09-.56-.02-.17-.07-.34-.16-.48-.09-.15-.2-.28-.34-.38Zm3.14,3c-.37,.55-.89,.99-1.5,1.26-.7,.29-1.46,.43-2.22,.42h-2.22c-.12,0-.18,0-.18,.16v3.7c.01,.06,0,.12-.02,.18-.02,.06-.06,.11-.1,.14-.11,.07-.23,.1-.36,.1h-2.34c-.11,0-.21-.03-.3-.1-.03-.08-.03-.18,0-.26v-10.86c0-.22,0-.34,.26-.34h4.92c.8-.02,1.59,.12,2.34,.4,.65,.26,1.22,.69,1.64,1.24,.4,.59,.62,1.29,.6,2,.02,.69-.16,1.37-.52,1.96Zm-21.6-5.26c0-.08,.02-.16,.07-.23,.05-.06,.13-.1,.21-.11h9.2s.08,0,.12,.01c.04,.01,.07,.03,.1,.06s.05,.06,.07,.09,.03,.07,.03,.11v1.7c0,.18,0,.26-.3,.26h-2.84c-.12,0-.16,0-.16,.18v8.82s0,.08,0,.12c-.01,.04-.03,.08-.06,.11-.03,.03-.06,.05-.1,.07-.04,.01-.08,.02-.12,.02h-2.62c-.18,0-.26-.1-.26-.3v-8.8c.01-.05,.01-.11,0-.16h-2.98c-.24,0-.34,0-.34-.26v-1.7Zm-10.52-.24s.05-.06,.08-.07c.03-.02,.07-.03,.1-.03h8c.16,0,.24,.1,.24,.28v1.62c0,.26,0,.4-.34,.4h-4.7c-.08-.03-.16-.03-.24,0-.02,.03-.03,.07-.03,.11s.01,.08,.03,.11v2c0,.2,0,.3,.22,.3h3.12s.08,0,.12,0c.04,.01,.07,.03,.1,.06,.03,.03,.05,.06,.06,.1,.01,.04,.01,.08,0,.12v1.7c0,.16,0,.24-.26,.24h-3.16c-.16,0-.24,0-.24,.2v4c.01,.06,0,.12-.02,.18-.02,.06-.06,.11-.1,.14-.12,.04-.24,.04-.36,0h-2.3s-.08,.02-.12,.01c-.04,0-.08-.02-.12-.04-.04-.02-.07-.05-.09-.08-.02-.03-.04-.07-.05-.11-.01-.02-.02-.05-.02-.07s0-.05,.02-.07v-10.88s0-.08,0-.12c.01-.04,.03-.07,.05-.1Zm-6,2.16c-.41-.17-.85-.25-1.3-.24-.45-.02-.9,.08-1.3,.3-.14,.07-.25,.17-.33,.3-.08,.13-.13,.27-.13,.42,0,.2,.09,.4,.24,.54,.25,.22,.55,.38,.88,.44l2.54,.68c.81,.18,1.55,.62,2.1,1.24,.44,.57,.68,1.28,.68,2,.03,.71-.17,1.41-.56,2-.42,.58-1.01,1.03-1.68,1.28-.81,.32-1.68,.48-2.56,.46-1.03,.01-2.05-.18-3-.56-.77-.27-1.44-.78-1.9-1.46-.02-.08-.02-.16,0-.24,0-.05,.03-.1,.05-.14,.03-.04,.06-.08,.11-.1l1.42-.96c.08-.06,.18-.1,.28-.12,.05,0,.09,0,.14,.03,.04,.02,.08,.05,.1,.09,.3,.4,.68,.74,1.12,1,.47,.22,.98,.32,1.5,.28,.52,.03,1.04-.07,1.52-.28,.16-.07,.3-.18,.39-.33,.1-.15,.15-.32,.15-.49,0-.46-.38-.82-1.14-1.02l-2.36-.62c-.84-.18-1.59-.62-2.16-1.26-.48-.55-.75-1.24-.79-1.97-.03-.73,.18-1.44,.61-2.03,.41-.57,.97-1.02,1.62-1.28,.76-.34,1.59-.5,2.42-.48,.86-.02,1.72,.14,2.52,.46,.67,.23,1.26,.64,1.72,1.18,.06,.08,.1,.17,.12,.26-.02,.07-.06,.14-.12,.18l-1.54,1.1h-.14c-.11-.03-.21-.09-.28-.18-.29-.21-.62-.37-.96-.48h.02Z"/></g></g></svg>