<?xml version="1.0" encoding="UTF-8"?><svg id="Layer_1" xmlns="http://www.w3.org/2000/svg" viewBox="0 0 180 80"><defs><style>.cls-1{fill:none;}</style></defs><rect class="cls-1" width="180" height="80"/><rect class="cls-1" width="180" height="80"/><path d="M57.31,7.31V72.69H122.69V7.31H57.31Zm35.58,50.99c0,6.36-3.74,9.27-9.18,9.27-4.92,0-7.76-2.54-9.22-5.62l5.01-3.02c.96,1.71,1.84,3.15,3.95,3.15s3.3-.79,3.3-3.87v-20.88h6.14v20.97h0Zm14.53,9.27c-5.71,0-9.4-2.71-11.19-6.27l5.01-2.89c1.31,2.15,3.04,3.74,6.06,3.74,2.54,0,4.17-1.27,4.17-3.04,0-2.1-1.66-2.85-4.48-4.09l-1.53-.66c-4.44-1.88-7.37-4.26-7.37-9.27,0-4.61,3.52-8.11,8.99-8.11,3.91,0,6.71,1.36,8.73,4.92l-4.79,3.06c-1.05-1.88-2.19-2.63-3.95-2.63s-2.93,1.14-2.93,2.63c0,1.84,1.14,2.58,3.78,3.74l1.53,.66c5.22,2.23,8.16,4.52,8.16,9.66,0,5.52-4.35,8.55-10.17,8.55h0Z"/></svg>