<?xml version="1.0" encoding="UTF-8"?><svg id="Layer_1" xmlns="http://www.w3.org/2000/svg" viewBox="0 0 180 80"><defs><style>.cls-1{fill:none;}.cls-2{fill:#fff;}.cls-3{fill:#8eceaf;}.cls-4{fill:#22a466;}.cls-5{fill:#1a8e5a;}</style></defs><rect class="cls-1" width="180" height="80"/><rect class="cls-1" width="180" height="80"/><g><path class="cls-4" d="M116.85,72.22c0,2.33-1.95,4.19-4.31,4.19h-45.07c-2.38,0-4.31-1.89-4.31-4.19V7.82c0-2.33,1.95-4.19,4.31-4.19h28.98l20.4,20.35v48.23Z"/><path class="cls-5" d="M98.68,23.47l18.16,16.89-.05-16.4-18.11-.49Z"/><path class="cls-3" d="M116.85,23.97h-16.13c-2.38,0-4.31-1.89-4.31-4.19V3.6l20.44,20.37Z"/><path class="cls-2" d="M91.73,59.57v-3.64h8.77v3.64h-8.77Zm-12.27-3.64h8.77v3.64h-8.77v-3.64Zm8.81-2.51h-8.77v-3.93h8.77v3.93Zm0-10.65v4.19h-8.77v-4.19h8.77Zm3.46,6.73h8.77v3.91h-8.77v-3.91Zm8.77-2.55h-8.77v-4.19h8.77v4.19Zm-24.46-7.57v23.59h27.96v-23.59h-27.96Z"/></g></svg>