<?xml version="1.0" encoding="UTF-8"?><svg id="Layer_1" xmlns="http://www.w3.org/2000/svg" viewBox="0 0 180 80"><defs><style>.cls-1{fill:none;}.cls-2{fill:#333e48;}.cls-3{fill:#4da3dc;}</style></defs><rect class="cls-1" width="180" height="80"/><rect class="cls-1" width="180" height="80"/><g><path class="cls-2" d="M38.89,39.05c-3.11,0-5.46,.97-7.05,3.21v-14.66c0-.17-.14-.3-.3-.3h-2.8c-.17,0-.3,.14-.3,.3h0V61.58c0,.17,.14,.3,.3,.3h2.8c.17,0,.3-.14,.3-.3h0v-2.57c.78,1.09,1.83,1.95,3.05,2.49,1.26,.55,2.63,.83,4,.81,2.64,.13,5.19-1.01,6.86-3.07,1.65-2.05,2.47-4.91,2.47-8.6s-.82-6.53-2.45-8.55c-1.68-2.05-4.23-3.19-6.88-3.06Zm4.51,17.66c-1.06,1.45-2.8,2.25-4.59,2.13-1.86,.17-3.7-.53-4.97-1.89-1.04-1.26-1.56-3.37-1.56-6.32s.5-5.04,1.51-6.27c1.01-1.24,2.65-1.86,4.94-1.86,1.8-.14,3.55,.61,4.68,2.01,1.13,1.82,1.66,3.95,1.51,6.09,.14,2.16-.4,4.31-1.53,6.16v-.05Z"/><path class="cls-2" d="M100.02,39c-4.07,0-6.52,1.89-7.21,3.18v-2.47c0-.17-.14-.3-.3-.3h-2.8c-.17,0-.3,.14-.3,.3h0v21.85c0,.17,.14,.3,.3,.3h2.8c.17,0,.3-.14,.3-.3h0v-11.18c0-2.93,.54-5.02,1.64-6.29,1.3-1.49,3.19-2.32,5.17-2.26,1.44-.12,2.86,.37,3.91,1.35,.92,1.16,1.37,2.62,1.25,4.09v14.22c0,.17,.14,.3,.3,.3h2.8c.17,0,.3-.14,.3-.3h0v-14.35c0-2.87-.68-4.95-2.05-6.26-1.71-1.4-3.91-2.08-6.11-1.9Z"/><path class="cls-2" d="M128.29,40.05c-.73-.31-1.48-.54-2.26-.7-1.06-.23-2.15-.35-3.24-.35-2.91-.18-5.75,.94-7.74,3.07-1.81,2.05-2.72,4.95-2.72,8.71s.89,6.59,2.67,8.49c1.95,2.07,4.71,3.17,7.55,3,1.9,.05,3.78-.34,5.5-1.13,.1-.05,.17-.16,.17-.27v-2.38c0-.17-.14-.3-.31-.3-.03,0-.07,0-.1,.02-1.7,.68-3.51,1.03-5.35,1.05-1.92,.12-3.78-.73-4.95-2.26-1.23-1.88-1.81-4.11-1.67-6.35,0-5.82,2.28-8.73,6.85-8.73,.79,.01,1.58,.11,2.36,.29,.74,.16,1.47,.38,2.18,.64,.15,.06,.32-.02,.38-.17,0,0,0,0,0-.01l.85-2.35c0-.12-.07-.23-.18-.28Z"/><path class="cls-2" d="M83.14,40.22c-1.29-1.19-3.28-1.78-5.96-1.78-1.34,0-2.67,.17-3.96,.51-1.17,.3-2.31,.73-3.38,1.29-.14,.07-.19,.24-.14,.38l.82,2.05c.07,.15,.24,.23,.4,.16,0,0,0,0,0,0,1.88-.96,3.95-1.5,6.06-1.58,1.34-.12,2.66,.34,3.63,1.26,.61,.81,.97,1.79,1.02,2.81h-3.15c-1.54-.04-3.07,.21-4.51,.72-1.45,.55-2.76,1.41-3.83,2.54-1.68,1.8-2.5,4.24-2.26,6.69,.2,2.21,1.4,4.21,3.26,5.43,1.41,1.01,3.1,1.55,4.84,1.55h0c.91,0,1.82-.16,2.68-.46,1.16-.41,2.21-1.06,3.1-1.91v1.66c0,.17,.14,.3,.3,.3h2.64c.17,0,.3-.14,.3-.3h0v-15.44c.05-2.62-.6-4.67-1.88-5.87Zm-1.32,11.82c0,2.92-1.47,6.12-4.39,7.16-1.58,.54-3.33,.28-4.69-.69-2.29-1.8-2.69-5.12-.89-7.41,.11-.15,.24-.28,.36-.42,.77-.8,1.7-1.41,2.74-1.8,1.12-.39,2.31-.57,3.5-.53h3.38v3.69s-.01,0-.01,0Z"/><path class="cls-2" d="M65.08,39.41c-.8-.11-1.61-.16-2.43-.16-3.99,.15-6.77,2.72-6.77,2.98v-2.26c0-.17-.14-.3-.3-.3h-2.8c-.17,0-.3,.14-.3,.3h0v21.85c0,.17,.14,.3,.3,.3h2.8c.17,0,.3-.14,.3-.3h0v-11.83c-.07-2.02,.63-3.98,1.94-5.52,1.13-1.42,2.84-2.25,4.66-2.26,.72,0,1.44,.09,2.14,.24,.16,.03,.33-.07,.36-.24,0,0,0,0,0-.01l.38-2.54c-.02-.15-.15-.26-.29-.26Z"/><path class="cls-2" d="M149.45,40.96c-1.7-1.42-3.89-2.12-6.1-1.95-4.07,0-6.52,1.89-7.21,3.18v-.24l-.15-4.13,3.65-2.26c1.25,.9,3,.62,3.91-.63,.9-1.25,.62-3-.63-3.91-1.25-.9-3-.62-3.9,.63-.43,.6-.61,1.34-.5,2.07l-2.58,1.59-.18-5.27,3.6-2.2c1.43,1.07,3.46,.77,4.53-.66,1.07-1.43,.77-3.46-.66-4.53-1.43-1.07-3.46-.77-4.53,.66-.58,.78-.78,1.77-.55,2.71l-2.48,1.53-.15-4.21c1.52-.59,2.27-2.29,1.69-3.81-.59-1.52-2.29-2.27-3.81-1.69s-2.27,2.29-1.69,3.81c.3,.77,.91,1.39,1.69,1.69l-.27,8.72-2.7-1.71c.41-1.82-.73-3.63-2.56-4.05-1.82-.41-3.63,.73-4.05,2.56-.41,1.82,.73,3.63,2.56,4.05,1.03,.23,2.11-.03,2.92-.71l3.76,2.38-.19,6.37h0l-.1,3.38v17.19c0,.17,.14,.3,.3,.3h2.82c.17,0,.3-.14,.3-.3h0v-11.18c0-2.93,.55-5.02,1.64-6.29,1.18-1.34,2.86-2.13,4.64-2.19h.52c1.43-.12,2.85,.37,3.9,1.35,.92,1.16,1.37,2.62,1.25,4.09v11.11h0v3.12c0,.17,.14,.3,.3,.3h2.82c.17,0,.3-.14,.3-.3h0v-14.35c-.05-2.87-.76-4.96-2.12-6.26Z"/><circle class="cls-3" cx="134.41" cy="20.64" r="1.78"/><circle class="cls-3" cx="141.15" cy="33.35" r="1.62"/><circle class="cls-3" cx="141.31" cy="25.37" r="1.91" transform="translate(3.16 64.44) rotate(-25.97)"/><circle class="cls-3" cx="127.07" cy="29.6" r="2.06"/></g></svg>