<svg id="Layer_1" data-name="Layer 1" xmlns="http://www.w3.org/2000/svg" viewBox="0 0 180 80"><defs><style>.cls-1{fill:none;}.cls-2{fill:#4fbe37;}.cls-3{fill:#fff;}</style></defs><rect class="cls-1" width="180" height="80"/><rect class="cls-1" width="180" height="80"/><g id="g10"><g id="g12"><path id="path14" class="cls-2" d="M123.73,73.73H56.27V6.27h67.46V73.73"/><path id="path16" class="cls-3" d="M95.88,41a3.24,3.24,0,0,1-.11-.69v-4.6h1.85v8.87l-5.91-4.89a2.93,2.93,0,0,1-.5-.57,2.76,2.76,0,0,1,.09.61v4.64H89.46V35.5l5.85,4.79a3.73,3.73,0,0,1,.57.67h0"/><path id="path18" class="cls-3" d="M112.58,35.67c2.92,0,3.67,1.15,3.67,2.8A2.59,2.59,0,0,1,113.58,41h-.19a.76.76,0,0,1,.35.2L117,44.33h-2.5L110,39.75h2.25c2,0,2.07-1.06,2.09-1.33,0-.69-.19-1.24-1.72-1.24H110v7.15h-1.92V35.67h4.49"/><path id="path20" class="cls-3" d="M98.45,40.12c0-3.63,3-4.58,5.59-4.58a13.53,13.53,0,0,1,2.88.29v1.84a10,10,0,0,0-2.89-.53c-2.42,0-3.6.94-3.6,3,0,1.68,1.27,2.75,3.6,2.75a9.5,9.5,0,0,0,3.07-.52v1.79a15.36,15.36,0,0,1-3.07.33c-2.73,0-5.59-1.33-5.59-4.35h0"/><path id="path22" class="cls-3" d="M77.69,35.89l1.8,1.69-.17.09a3.48,3.48,0,0,0-.38.22A7.5,7.5,0,0,0,77.77,39l-3.52,3.72a6.53,6.53,0,0,1-1.78,1.41l-1.8-1.7.17-.08a3.85,3.85,0,0,0,.38-.23A7.86,7.86,0,0,0,72.39,41l3.52-3.72a6.53,6.53,0,0,1,1.78-1.41h0"/><path id="path24" class="cls-3" d="M70.73,44.88a4.64,4.64,0,0,0,2-.41,6.76,6.76,0,0,0,.83-.54,8.69,8.69,0,0,0,1-.91l3.52-3.71A4.67,4.67,0,0,1,79.85,38l1.8,1.71-4.87,5.18c-.3.33-.63.65-.84.85a9.07,9.07,0,0,1-.76.62,7.16,7.16,0,0,1-4.37,1.41A7.75,7.75,0,0,1,63,40.2a7.65,7.65,0,0,1,7.48-7.91,7.43,7.43,0,0,1,2.66.39,10.35,10.35,0,0,1,1.47.66,8.77,8.77,0,0,0-1.48,1.33l-.72.78a5.06,5.06,0,0,0-1.85-.29,4.82,4.82,0,0,0-4.69,5,4.87,4.87,0,0,0,4.84,4.76h0"/><path id="path26" class="cls-3" d="M77.39,35.53a6.08,6.08,0,0,0-.83.54,9.6,9.6,0,0,0-1,.91L72,40.69A4.75,4.75,0,0,1,70.29,42l-1.8-1.71,4.86-5.18c.31-.33.63-.65.85-.85a7.7,7.7,0,0,1,.76-.62,7.16,7.16,0,0,1,4.37-1.41,7.75,7.75,0,0,1,7.79,7.54A7.71,7.71,0,0,1,77,47.32a11.13,11.13,0,0,1-1.48-.66A8.16,8.16,0,0,0,77,45.33l.73-.78a5.06,5.06,0,0,0,1.85.29,4.82,4.82,0,0,0,4.69-5,4.88,4.88,0,0,0-4.84-4.76,4.64,4.64,0,0,0-2,.41h0"/></g></g></svg>