<?xml version="1.0" encoding="UTF-8"?><svg id="Layer_1" xmlns="http://www.w3.org/2000/svg" viewBox="0 0 180 80"><defs><style>.cls-1{fill:none;}.cls-1,.cls-2,.cls-3,.cls-4,.cls-5{stroke-width:0px;}.cls-3{fill:#f79e1b;}.cls-4{fill:#ff5f00;}.cls-5{fill:#eb001b;}</style></defs><rect class="cls-1" width="180" height="80"/><rect class="cls-4" x="152.08" y="47.05" width="7.2" height="12.94"/><path class="cls-5" d="m152.54,53.52c0-2.62,1.23-4.96,3.14-6.47-1.4-1.11-3.17-1.76-5.09-1.76-4.54,0-8.23,3.69-8.23,8.23s3.69,8.23,8.23,8.23c1.92,0,3.69-.66,5.09-1.76-1.91-1.5-3.14-3.84-3.14-6.47"/><path class="cls-3" d="m169,53.52c0,4.54-3.69,8.23-8.23,8.23-1.92,0-3.69-.66-5.09-1.76,1.91-1.5,3.14-3.84,3.14-6.47s-1.23-4.96-3.14-6.47c1.4-1.11,3.17-1.76,5.09-1.76,4.54,0,8.23,3.69,8.23,8.23"/><path class="cls-3" d="m168.21,58.62v-.26h.1v-.06h-.27v.06h.1v.26h.07Zm.53,0v-.32h-.08l-.09.21-.1-.21h-.08v.32h.06v-.24l.09.2h.06l.09-.2v.24h.06Z"/><path class="cls-2" d="m130.17,51.21c.33,0,.64.07.93.19.29.12.54.29.76.52.21.23.38.49.51.79s.18.64.18,1.01-.06.7-.18,1.01-.29.57-.51.79c-.21.23-.46.4-.76.52-.29.12-.6.18-.93.18s-.63-.07-.88-.19c-.24-.12-.45-.29-.61-.5v.57h-1.04v-7.16h1.04v2.96c.17-.2.37-.37.61-.5.25-.12.54-.19.88-.19Zm-.12.98c-.21,0-.41.03-.59.11-.18.08-.33.18-.45.32s-.23.29-.29.49-.1.38-.1.61.03.42.1.61.17.35.29.49.27.24.45.32.37.11.59.11c.23,0,.42-.05.6-.12.18-.08.33-.19.45-.33.12-.14.21-.29.28-.49s.1-.38.1-.59-.03-.41-.1-.59-.16-.35-.28-.49-.27-.25-.45-.33c-.18-.09-.37-.12-.6-.12Z"/><path class="cls-2" d="m134.44,58.11h-1.15l1.71-3-2.11-3.78h1.16l1.53,2.74,1.47-2.74h1.14l-3.74,6.77Z"/><path class="cls-2" d="m17.1,24.55c1.12,0,2.08.24,2.89.7s1.46,1.09,1.96,1.84v-8.84h1.47v18.72h-1.47v-2.35c-.5.77-1.14,1.39-1.96,1.85s-1.77.7-2.89.7c-.86,0-1.66-.16-2.41-.47s-1.39-.76-1.93-1.31c-.54-.57-.97-1.22-1.29-2-.32-.77-.47-1.62-.47-2.52s.16-1.75.47-2.52.75-1.44,1.29-2,1.19-1.01,1.93-1.32c.75-.32,1.55-.47,2.41-.47Zm.16,1.39c-.7,0-1.35.12-1.93.38-.59.26-1.09.6-1.5,1.05-.42.44-.75.96-.98,1.56s-.35,1.24-.35,1.93.11,1.33.35,1.93.57,1.12.98,1.56c.43.44.93.79,1.51,1.04s1.22.37,1.92.37,1.33-.12,1.91-.37,1.09-.59,1.5-1.03c.43-.44.76-.96.98-1.56s.35-1.24.35-1.94-.11-1.36-.35-1.96c-.24-.6-.57-1.12-.98-1.56-.43-.44-.93-.78-1.5-1.03s-1.21-.38-1.91-.38Z"/><path class="cls-2" d="m28,42.22h-1.64l4.68-7.97-5.74-9.51h1.66l4.93,8.05,4.61-8.05h1.63l-10.13,17.48Z"/><path class="cls-2" d="m46.03,24.55c.76,0,1.46.11,2.09.34.63.23,1.18.55,1.63.98.45.43.8.94,1.05,1.55s.37,1.29.37,2.05v7.51h-1.47v-7.04c0-.61-.09-1.18-.26-1.66-.17-.5-.43-.92-.77-1.25-.34-.34-.75-.61-1.23-.79s-1.04-.27-1.66-.27c-.58,0-1.11.1-1.61.29s-.93.47-1.3.84-.66.79-.87,1.29-.32,1.05-.32,1.64v6.96h-1.48v-12.23h1.47v2.15c.24-.41.53-.76.85-1.05.33-.29.68-.53,1.06-.72s.78-.33,1.2-.42c.41-.1.83-.15,1.24-.15Z"/><path class="cls-2" d="m66.19,36.97h-1.47v-2.35c-.5.77-1.14,1.39-1.96,1.85s-1.77.7-2.89.7c-.86,0-1.66-.16-2.41-.47s-1.39-.76-1.93-1.31c-.54-.57-.97-1.22-1.29-2-.32-.77-.47-1.62-.47-2.52s.16-1.75.47-2.52.75-1.44,1.29-2,1.19-1.01,1.93-1.32,1.55-.47,2.41-.47c1.12,0,2.08.24,2.89.7s1.46,1.09,1.96,1.84v-2.35h1.47v12.23Zm-6.15-11.03c-.7,0-1.35.12-1.93.38-.59.26-1.09.6-1.5,1.05-.42.44-.75.96-.98,1.56s-.35,1.24-.35,1.93.11,1.33.35,1.93.57,1.12.98,1.56c.43.44.93.79,1.51,1.04s1.22.37,1.92.37,1.33-.12,1.91-.37,1.09-.59,1.5-1.03c.43-.44.76-.96.98-1.56s.35-1.24.35-1.94-.11-1.36-.35-1.96c-.24-.6-.57-1.12-.98-1.56-.43-.44-.93-.78-1.5-1.03s-1.22-.38-1.91-.38Z"/><path class="cls-2" d="m85.21,24.55c.76,0,1.46.11,2.1.34.63.23,1.18.55,1.63.98s.8.94,1.05,1.55.37,1.29.37,2.05v7.51h-1.48v-7.04c0-.61-.09-1.18-.27-1.66-.18-.5-.43-.92-.77-1.25-.34-.34-.75-.61-1.23-.79-.49-.18-1.05-.27-1.67-.27-.58,0-1.11.1-1.61.29-.5.19-.93.47-1.3.84s-.66.79-.87,1.29c-.21.5-.32,1.05-.32,1.64v6.96h-1.48v-7.04c0-.61-.09-1.18-.26-1.66-.17-.5-.43-.92-.77-1.25-.34-.34-.75-.61-1.23-.79-.49-.18-1.04-.27-1.66-.27-.58,0-1.11.1-1.61.29s-.93.47-1.3.84-.66.79-.87,1.29-.32,1.05-.32,1.64v6.96h-1.48v-12.23h1.47v2.15c.24-.41.53-.76.85-1.05.33-.29.68-.53,1.06-.72s.78-.33,1.2-.42c.42-.09.84-.14,1.27-.14.58,0,1.11.07,1.61.19s.95.32,1.36.55.76.54,1.06.89c.31.35.54.76.72,1.2.23-.5.51-.94.86-1.29.35-.36.72-.66,1.14-.88s.86-.4,1.32-.51.95-.17,1.42-.17Z"/><path class="cls-2" d="m94.92,19.27c.31,0,.55.1.76.32.2.2.31.46.31.77s-.1.55-.31.76-.45.29-.76.29-.55-.1-.76-.29c-.2-.2-.29-.45-.29-.76s.1-.57.29-.77.45-.32.76-.32Zm.75,17.7h-1.48v-12.23h1.48v12.23Z"/><path class="cls-2" d="m104.89,24.55c.92,0,1.75.16,2.53.49s1.44.79,1.98,1.41l-.96.99c-.47-.47-1.02-.85-1.61-1.11-.6-.26-1.25-.4-1.98-.4-.67,0-1.29.12-1.87.37s-1.07.59-1.5,1.03c-.43.44-.76.96-.99,1.56-.24.6-.36,1.25-.36,1.97s.12,1.37.36,1.97c.24.6.57,1.12.99,1.55.43.43.93.77,1.5,1.02s1.2.37,1.87.37c.72,0,1.4-.14,2.01-.42s1.15-.64,1.62-1.11l.93,1.02c-.55.61-1.22,1.09-1.99,1.41s-1.62.49-2.52.49-1.76-.16-2.53-.49c-.77-.32-1.42-.76-1.98-1.32s-.98-1.23-1.29-2-.46-1.61-.46-2.5.16-1.74.46-2.51.73-1.44,1.29-2,1.22-1.01,1.98-1.32c.76-.32,1.61-.47,2.52-.47Z"/><path class="cls-2" d="m118.82,42.22h-1.64l4.68-7.97-5.74-9.51h1.66l4.93,8.05,4.61-8.05h1.63l-10.13,17.48Z"/><path class="cls-2" d="m131.75,19.27c.31,0,.55.1.76.32.2.2.31.46.31.77s-.1.55-.31.76-.45.29-.76.29-.55-.1-.76-.29c-.2-.2-.29-.45-.29-.76s.1-.57.29-.77.45-.32.76-.32Zm.75,17.7h-1.48v-12.23h1.48v12.23Z"/><path class="cls-2" d="m141.52,24.55c.81,0,1.57.16,2.27.46.7.31,1.3.73,1.81,1.29.51.55.9,1.21,1.2,1.98.29.77.44,1.61.45,2.52,0,.11,0,.21-.01.32,0,.1-.01.19-.02.29h-10.25c.06.71.21,1.35.47,1.9.26.55.61,1.03,1.03,1.41.43.38.92.68,1.46.88.55.2,1.14.29,1.76.29.86,0,1.63-.16,2.31-.46.68-.32,1.29-.73,1.83-1.28l.79,1.02c-.38.38-.79.71-1.19.97-.41.26-.81.46-1.23.62-.42.16-.85.26-1.28.33-.43.06-.87.09-1.31.09-.89,0-1.72-.16-2.48-.46-.76-.31-1.4-.73-1.96-1.29-.54-.55-.97-1.22-1.28-1.99s-.45-1.63-.45-2.55.16-1.76.46-2.54c.31-.78.73-1.45,1.28-2,.54-.57,1.19-.99,1.92-1.31.75-.33,1.55-.49,2.41-.49Zm-.02,1.31c-.62,0-1.2.1-1.71.32-.52.21-.97.51-1.36.88-.4.37-.71.83-.96,1.35-.25.52-.41,1.1-.47,1.72h8.75c-.06-.63-.19-1.21-.43-1.74-.24-.52-.54-.97-.92-1.35-.37-.37-.81-.67-1.31-.87s-1.03-.31-1.59-.31Z"/><path class="cls-2" d="m151.7,36.97h-1.48v-18.72h1.48v18.72Z"/><path class="cls-2" d="m160.78,24.55c1.12,0,2.08.24,2.89.7s1.46,1.09,1.96,1.84v-8.84h1.47v18.72h-1.47v-2.35c-.5.77-1.14,1.39-1.96,1.85s-1.77.7-2.89.7c-.86,0-1.66-.16-2.41-.47s-1.39-.76-1.93-1.31c-.54-.57-.97-1.22-1.29-2-.32-.77-.47-1.62-.47-2.52s.16-1.75.47-2.52.75-1.44,1.29-2,1.19-1.01,1.93-1.32c.75-.32,1.55-.47,2.41-.47Zm.17,1.39c-.7,0-1.35.12-1.93.38-.59.26-1.09.6-1.5,1.05-.42.44-.75.96-.98,1.56s-.35,1.24-.35,1.93.11,1.33.35,1.93.57,1.12.98,1.56c.43.44.93.79,1.51,1.04.59.25,1.22.37,1.92.37s1.33-.12,1.91-.37,1.09-.59,1.5-1.03c.43-.44.76-.96.98-1.56s.35-1.24.35-1.94-.11-1.36-.35-1.96c-.24-.6-.57-1.12-.98-1.56-.43-.44-.93-.78-1.5-1.03s-1.22-.38-1.91-.38Z"/></svg>