<?xml version="1.0" encoding="UTF-8"?><svg id="Layer_1" xmlns="http://www.w3.org/2000/svg" viewBox="0 0 180 80"><defs><style>.cls-1{fill:none;}.cls-2{fill:#7f54b3;fill-rule:evenodd;}</style></defs><rect class="cls-1" width="180" height="80"/><rect class="cls-1" width="180" height="80"/><g><path class="cls-2" d="M61.29,26.99H20.24c-2.6,0-4.7,2.12-4.68,4.7v15.67c0,2.6,2.1,4.7,4.7,4.7h19.44l8.89,4.95-2.02-4.95h14.72c2.6,0,4.7-2.1,4.7-4.7v-15.67c0-2.6-2.1-4.7-4.7-4.7Zm-41.92,3.63c-.58,.04-1.01,.25-1.3,.64-.29,.37-.39,.85-.33,1.38,1.22,7.73,2.35,12.95,3.4,15.65,.41,.99,.89,1.46,1.44,1.42,.87-.06,1.9-1.26,3.11-3.59,.64-1.32,1.63-3.3,2.97-5.94,1.11,3.9,2.64,6.82,4.56,8.78,.54,.56,1.09,.8,1.63,.76,.47-.04,.85-.29,1.09-.74,.21-.39,.29-.85,.25-1.36-.12-1.88,.06-4.49,.58-7.86,.54-3.46,1.2-5.96,2-7.44,.16-.31,.23-.62,.21-.99-.04-.47-.25-.87-.64-1.18-.39-.31-.82-.45-1.3-.41-.6,.04-1.05,.33-1.36,.91-1.28,2.33-2.19,6.1-2.72,11.34-.78-1.98-1.44-4.31-1.96-7.05-.23-1.22-.78-1.79-1.69-1.73-.62,.04-1.13,.45-1.55,1.24l-4.52,8.6c-.74-2.99-1.44-6.64-2.08-10.95-.14-1.07-.74-1.57-1.79-1.48Zm39.73,1.48c1.46,.31,2.56,1.09,3.3,2.39,.66,1.11,.99,2.45,.99,4.06,0,2.12-.54,4.06-1.61,5.83-1.24,2.06-2.85,3.09-4.85,3.09-.35,0-.72-.04-1.11-.12-1.46-.31-2.56-1.09-3.3-2.39-.66-1.13-.99-2.49-.99-4.08,0-2.12,.54-4.06,1.61-5.81,1.26-2.06,2.87-3.09,4.85-3.09,.35,0,.72,.04,1.11,.12Zm-.87,11.15c.76-.68,1.28-1.69,1.57-3.05,.08-.47,.14-.99,.14-1.53,0-.6-.12-1.24-.37-1.88-.31-.8-.72-1.24-1.22-1.34-.74-.14-1.46,.27-2.14,1.28-.56,.78-.91,1.61-1.09,2.45-.1,.47-.14,.99-.14,1.51,0,.6,.12,1.24,.37,1.88,.31,.8,.72,1.24,1.22,1.34,.52,.1,1.07-.12,1.67-.66Zm-8.76-8.76c-.74-1.3-1.86-2.08-3.3-2.39-.39-.08-.76-.12-1.11-.12-1.98,0-3.59,1.03-4.85,3.09-1.07,1.75-1.61,3.69-1.61,5.81,0,1.59,.33,2.95,.99,4.08,.74,1.3,1.84,2.08,3.3,2.39,.39,.08,.76,.12,1.11,.12,2,0,3.61-1.03,4.85-3.09,1.07-1.77,1.61-3.71,1.61-5.83,0-1.61-.33-2.95-.99-4.06Zm-2.6,5.71c-.29,1.36-.8,2.37-1.57,3.05-.6,.54-1.15,.76-1.67,.66-.49-.1-.91-.54-1.22-1.34-.25-.64-.37-1.28-.37-1.88,0-.52,.04-1.03,.14-1.51,.19-.85,.54-1.67,1.09-2.45,.68-1.01,1.4-1.42,2.14-1.28,.49,.1,.91,.54,1.22,1.34,.25,.64,.37,1.28,.37,1.88,0,.54-.04,1.05-.14,1.53Z"/><path d="M71.21,34.31c-1.38,1.36-2.06,3.09-2.06,5.2,0,2.25,.68,4.08,2.04,5.46,1.36,1.38,3.13,2.08,5.34,2.08,.64,0,1.36-.1,2.14-.33v-3.34c-.72,.21-1.34,.31-1.88,.31-1.09,0-1.96-.37-2.62-1.09-.66-.74-.99-1.73-.99-2.99,0-1.18,.33-2.14,.97-2.89,.66-.76,1.46-1.13,2.45-1.13,.64,0,1.32,.1,2.06,.31v-3.34c-.68-.19-1.44-.27-2.25-.27-2.1-.02-3.83,.66-5.22,2.02Zm14.31-2.04c-1.9,0-3.38,.64-4.45,1.9-1.07,1.26-1.59,3.03-1.59,5.3,0,2.45,.54,4.33,1.59,5.63s2.6,1.96,4.62,1.96,3.46-.66,4.52-1.96,1.59-3.13,1.59-5.48-.54-4.16-1.61-5.44c-1.09-1.26-2.64-1.9-4.66-1.9Zm1.63,10.72c-.37,.58-.93,.87-1.63,.87-.66,0-1.15-.29-1.51-.87-.35-.58-.52-1.73-.52-3.48,0-2.7,.68-4.04,2.06-4.04s2.19,1.36,2.19,4.1c-.02,1.69-.23,2.85-.6,3.42Zm14.82-10.33l-.74,3.15c-.19,.8-.37,1.63-.54,2.47l-.41,2.19c-.39-2.19-.93-4.78-1.61-7.81h-4.78l-1.79,14.04h3.59l.97-9.67,2.45,9.67h2.56l2.35-9.65,1.01,9.65h3.75l-1.9-14.04h-4.91Zm17.17,0l-.74,3.15c-.19,.8-.37,1.63-.54,2.47l-.41,2.19c-.39-2.19-.93-4.78-1.61-7.81h-4.78l-1.79,14.04h3.59l.97-9.67,2.45,9.67h2.56l2.33-9.65,1.01,9.65h3.75l-1.9-14.04h-4.89Zm11.67,8.49h3.36v-2.91h-3.36v-2.58h3.88v-2.99h-7.67v14.04h7.69v-2.99h-3.9v-2.58Zm14.58-2.23c.39-.64,.6-1.3,.6-1.98,0-1.32-.52-2.37-1.55-3.13-1.03-.76-2.45-1.15-4.23-1.15h-4.41v14.04h3.79v-6.39h.06l3.07,6.39h4l-3.03-6.33c.72-.33,1.3-.8,1.69-1.44Zm-5.81-.23v-3.34c.91,.02,1.55,.16,1.94,.45,.39,.29,.58,.74,.58,1.4,0,.97-.85,1.46-2.52,1.48Zm8.64-4.39c-1.38,1.36-2.06,3.09-2.06,5.2,0,2.25,.68,4.08,2.04,5.46,1.36,1.38,3.13,2.08,5.34,2.08,.64,0,1.36-.1,2.14-.33v-3.34c-.72,.21-1.34,.31-1.88,.31-1.09,0-1.96-.37-2.62-1.09-.66-.74-.99-1.73-.99-2.99,0-1.18,.33-2.14,.97-2.89,.66-.76,1.46-1.13,2.45-1.13,.64,0,1.32,.1,2.06,.31v-3.34c-.68-.19-1.44-.27-2.25-.27-2.08-.02-3.84,.66-5.22,2.02Zm12.31,9.38v-2.56h3.36v-2.91h-3.36v-2.58h3.9v-2.99h-7.67v14.04h7.69v-2.99h-3.92v-.02Z"/></g></svg>