<?xml version="1.0" encoding="UTF-8"?><svg id="Layer_1" xmlns="http://www.w3.org/2000/svg" viewBox="0 0 180 80"><defs><style>.cls-1{fill:none;}</style></defs><rect class="cls-1" width="180" height="80"/><g id="Layer_1-2"><g id="Logo_Dark"><g id="Dark"><path d="M37.23,53.85c.58-.62,1.21-1.35,1.84-2.21.21-.28.18-.67-.06-.91l-11.34-11.55c-.28-.28-.06-.76.34-.74,4.2.28,10.3,1.06,13.64,3.19.45.29,1.04-.03,1.06-.56.05-1.31.01-3.45-.55-5.64-.04-.17-.14-.31-.29-.4-.81-.52-3.89-2.24-10.17-3.04-.4-.05-.52-.57-.19-.79,2.06-1.36,4.19-2.46,6.05-2.8.52-.1.74-.73.39-1.13-.79-.9-2.17-2.27-4.21-3.63-.13-.08-.28-.12-.43-.11-.87.09-4.08.74-9.82,5.35-.32.25-.78-.03-.7-.43.54-2.57,1.34-5.1,2.57-6.67.33-.43.04-1.06-.5-1.1-1.26-.09-3.23-.1-5.41.43-.12.03-.23.09-.31.17-.41.41-1.6,1.86-2.58,5.63-.08.32-.49.43-.72.19l-2.61-2.66c-.25-.25-.63-.28-.92-.07-.54.41-1.45,1.14-2.42,2.13-.99.97-1.72,1.88-2.13,2.42-.21.28-.18.67.07.92l2.66,2.61c.24.23.13.64-.19.72-3.77.98-5.22,2.17-5.63,2.58-.09.09-.14.19-.17.31-.52,2.19-.52,4.16-.42,5.41.04.54.67.83,1.1.5,1.56-1.22,4.1-2.03,6.67-2.57.4-.08.69.38.43.7-4.6,5.73-5.26,8.94-5.35,9.82-.01.15.03.3.11.43,1.35,2.04,2.72,3.42,3.63,4.21.4.35,1.03.14,1.13-.39.34-1.86,1.44-3.99,2.8-6.05.22-.34.74-.21.79.19.8,6.28,2.52,9.36,3.04,10.17.09.14.23.25.4.29,2.19.56,4.33.6,5.64.55.53-.02.85-.61.56-1.06-2.13-3.33-2.91-9.43-3.19-13.64-.03-.4.45-.62.74-.34l11.55,11.34c.25.24.63.27.91.06.86-.63,1.6-1.25,2.21-1.84h.01v-.02Z"/></g><polyline points="158.04 23.4 158.04 44.05 158.04 44.27 158.19 44.11 168.89 33.06 169.22 32.71 175.9 32.71 173.61 35 165.19 43.53 165.14 43.59 165.18 43.64 174 54.52 176 56.78 169.67 56.78 169.22 56.28 161.8 47.13 161.74 47.05 161.67 47.12 158.06 50.75 158.04 50.77 158.04 50.81 158.04 56.8 153.19 56.8 153.19 23.4 158.04 23.4"/><path d="M128.38,32.29h1.41v4.79c-4.4.01-9.4,1.04-9.4,8.7v11.01h-4.92v-24.15h4.92v3l.14-.14c2.14-2.06,4.93-3.2,7.85-3.2"/><path d="M104.73,25.79v6.83h6.56v4.68h-6.56v12.82c0,2.04.89,2.26,2.91,2.26h2.26v4.79h-2.6c-4.76,0-7.49-2.49-7.49-6.83v-24.55h4.92"/><path d="M86.61,32.3c3.03,0,6.52,1.18,8.92,2.99l-2.06,4.34-1.15-.73c-1.86-1.22-3.91-1.9-5.79-1.9-2.06,0-3.45.94-3.45,2.33s2.13,2.08,4.92,2.88c2.8.78,8.02,2.25,8.02,7.31,0,4.46-3.67,7.7-8.74,7.7-3.61,0-7.57-1.51-10.14-3.87l2.13-3.81.22-.39c.87.85,2.32,1.79,3.72,2.42,1.46.66,2.86.99,4.18.99,1.22,0,2.17-.22,2.8-.66.64-.45.97-1.07.97-1.86,0-.73-.35-1.29-1.13-1.82-.87-.58-1.96-1.02-3.25-1.31l-.25-.07c-3.71-1.07-8.32-2.4-8.32-7.18,0-4.27,3.54-7.36,8.41-7.36"/><path d="M70.74,23.4c1.85,0,3.36,1.51,3.36,3.36s-1.51,3.36-3.36,3.36-3.36-1.51-3.36-3.36,1.51-3.36,3.36-3.36"/><polyline points="73.25 32.62 73.25 56.8 68.4 56.8 68.4 32.62 73.25 32.62"/><path d="M58.11,23.4v26.73c0,2.04.89,2.26,2.91,2.26h2.26v4.79h-2.6c-4.76,0-7.49-2.49-7.49-6.83v-26.94h4.92"/><path d="M128.74,49.04v.08c0,5.31,4.73,8.17,9.17,8.17,2.27,0,4.31-.63,6.08-1.87l.14-.1v1.46h4.78v-14.85c0-2.86-.76-4.94-2.46-6.75-1.71-1.82-4.25-2.78-7.34-2.78h-5.65v4.77h5.52c2.98,0,4.97,1.77,5.31,4.73v.14s-2.84-1.69-6.16-1.48c0,0-9.4.28-9.4,8.46h0ZM144.39,48.38c0,2.68-2.26,4.15-6.36,4.15-2.27,0-4.57-1.25-4.57-3.62,0-.06-.08-1.52,1.02-2.78.9-1.04,2.36-1.6,4.3-1.69.13,0,.27,0,.4,0,2.91,0,5.22,1.55,5.22,1.55v2.39h0Z"/></g></g></svg>