<svg id="Layer_1" data-name="Layer 1" xmlns="http://www.w3.org/2000/svg" viewBox="0 0 180 80"><defs><style>.cls-1{fill:none;}.cls-2{fill:#34a853;}.cls-3{fill:#5bb974;}.cls-4{fill:#1e8e3e;}</style></defs><rect class="cls-1" width="180" height="80"/><rect class="cls-1" width="180" height="80"/><rect id="bounding_box" data-name="bounding box" class="cls-1" x="136.54" y="25.81" width="105.99" height="105.99"/><g id="Campaign_Manager" data-name="Campaign Manager"><path class="cls-2" d="M83.89,57.62a8.14,8.14,0,0,1-11.49,0L60.3,69.7A25.29,25.29,0,0,0,96.07,33.93L83.91,46.09A8.13,8.13,0,0,1,83.89,57.62Z"/><path class="cls-3" d="M107.58,33.92a8.15,8.15,0,0,1-11.51,0L83.93,46.07A25.29,25.29,0,0,0,119.7,10.3L107.58,22.42A8.13,8.13,0,0,1,107.58,33.92Z"/><path class="cls-4" d="M119.7,10.3h0A25.29,25.29,0,0,0,83.93,46.07L96.07,33.93a8.14,8.14,0,1,1,11.51-11.5h0A8.57,8.57,0,1,0,119.7,10.3Z"/><path class="cls-3" d="M96.07,33.93h0A25.29,25.29,0,0,0,60.3,69.7h0a9.2,9.2,0,0,0,13,0c3.59-3.59,2.68-8.52-.91-12.12h0a8.14,8.14,0,0,1,11.51-11.5h0A8.59,8.59,0,1,0,96.07,33.93Z"/></g></svg>