<?xml version="1.0" encoding="UTF-8"?><svg id="Layer_1" xmlns="http://www.w3.org/2000/svg" xmlns:xlink="http://www.w3.org/1999/xlink" viewBox="0 0 180 80"><defs><style>.cls-1{fill:none;}.cls-2{fill:url(#linear-gradient);}.cls-3{clip-path:url(#clippath);}.cls-4{mask:url(#mask);}.cls-5{clip-path:url(#clippath-1);}.cls-6{clip-path:url(#clippath-2);}.cls-7{fill:url(#linear-gradient-3);}.cls-8{fill:url(#linear-gradient-2);}</style><clipPath id="clippath"><rect class="cls-1" x="53.09" y="3.09" width="73.83" height="73.83"/></clipPath><clipPath id="clippath-1"><rect class="cls-1" x="53.09" y="3.09" width="73.83" height="73.83"/></clipPath><clipPath id="clippath-2"><rect class="cls-1" x="53.09" y="3.09" width="73.83" height="73.83"/></clipPath><mask id="mask" x="53.06" y="4.56" width="73.74" height="70.88" maskUnits="userSpaceOnUse"/><linearGradient id="linear-gradient" x1="100.19" y1="429.35" x2="57.12" y2="534.71" gradientTransform="translate(0 509.33) scale(1 -1)" gradientUnits="userSpaceOnUse"><stop offset="0" stop-color="#742774"/><stop offset="1" stop-color="#bb35a4"/></linearGradient><linearGradient id="linear-gradient-2" x1="80.66" y1="507.67" x2="116.04" y2="433.84" gradientTransform="translate(0 509.33) scale(1 -1)" gradientUnits="userSpaceOnUse"><stop offset="0" stop-color="#e48cc7"/><stop offset="1" stop-color="#d467b9"/></linearGradient><linearGradient id="linear-gradient-3" x1="106.84" y1="485.92" x2="117.6" y2="452.85" gradientTransform="translate(0 509.33) scale(1 -1)" gradientUnits="userSpaceOnUse"><stop offset="0" stop-color="#e9a1cb"/><stop offset="1" stop-color="#e48cc7"/></linearGradient></defs><rect class="cls-1" width="180" height="80"/><rect class="cls-1" width="180" height="80"/><g class="cls-3"><g class="cls-5"><g class="cls-6"><g class="cls-4"><g><path class="cls-2" d="M83.85,76.91L51.55,40,83.85,3.09l32.3,36.91-32.3,36.91Z"/><path d="M94.61,4.62l33.84,36.91-33.84,36.91-15.01-16.38c-1.08-1.18-1.08-2.98,0-4.16l13.11-14.3c1.08-1.18,1.08-2.98,0-4.16l-13.11-14.3c-1.08-1.18-1.08-2.98,0-4.16l15.01-16.38Z"/><path d="M94.61,3.38l33.84,36.91-33.84,36.91-15.01-16.38c-1.08-1.18-1.08-2.98,0-4.16l13.11-14.3c1.08-1.18,1.08-2.98,0-4.16l-13.11-14.3c-1.08-1.18-1.08-2.98,0-4.16L94.61,3.38Z"/><path class="cls-8" d="M94.61,3.09l33.84,36.91-33.84,36.91-15.01-16.38c-1.08-1.18-1.08-2.98,0-4.16l13.11-14.3c1.08-1.18,1.08-2.98,0-4.16l-13.11-14.3c-1.08-1.18-1.08-2.98,0-4.16L94.61,3.09Z"/><path class="cls-7" d="M109.27,24.02c1.22-1.33,3.32-1.33,4.54,0l14.65,15.98-14.65,15.98c-1.22,1.33-3.32,1.33-4.54,0l-11.79-12.87c-1.62-1.76-1.62-4.47,0-6.24l11.79-12.87Z"/></g></g></g></g></g></svg>