<?xml version="1.0" encoding="UTF-8"?><svg id="Layer_1" xmlns="http://www.w3.org/2000/svg" viewBox="0 0 180 80"><defs><style>.cls-1{fill:none;}.cls-2{fill:#430098;}</style></defs><rect class="cls-1" width="180" height="80"/><rect class="cls-1" width="180" height="80"/><path class="cls-2" d="M113.87,6.73h-47.73c-3.33,0-5.99,2.66-5.99,5.99v54.56c0,3.33,2.66,5.99,5.99,5.99h47.73c3.33,0,5.99-2.66,5.99-5.99V12.72c0-3.33-2.66-5.99-5.99-5.99Zm2.66,60.55c0,1.5-1.16,2.66-2.66,2.66h-47.73c-1.5,0-2.66-1.16-2.66-2.66V12.72c0-1.5,1.16-2.66,2.66-2.66h47.73c1.5,0,2.66,1.16,2.66,2.66v54.56Zm-41.41-3.99l7.48-6.65-7.48-6.65v13.31Zm26.94-26.95c-1.33-1.33-3.83-2.99-7.98-2.99-4.49,0-9.15,1.16-12.47,2.33V16.71h-6.65v28.78l4.66-2.16s7.65-3.49,14.3-3.49c3.33,0,4.16,1.83,4.16,3.49v19.96h6.65v-19.96c.17-.5,.17-4.16-2.66-6.99Zm-8.81-8.82h6.65c2.99-3.49,4.49-6.99,4.99-10.81h-6.65c-.67,3.83-2.33,7.32-4.99,10.81Z"/></svg>