<?xml version="1.0" encoding="UTF-8"?><svg id="Layer_1" xmlns="http://www.w3.org/2000/svg" viewBox="0 0 180 80"><defs><style>.cls-1{fill:none;}.cls-2{fill:#253b80;}.cls-3{fill:#222d65;}.cls-4{fill:#179bd7;}</style></defs><rect class="cls-1" width="180" height="80"/><rect class="cls-1" width="180" height="80"/><g><path class="cls-2" d="M70.21,29.41h-8.69c-.59,0-1.1,.43-1.19,1.02l-3.51,22.28c-.07,.44,.27,.84,.72,.84h4.15c.59,0,1.1-.43,1.19-1.02l.95-6.01c.09-.59,.6-1.02,1.19-1.02h2.75c5.72,0,9.03-2.77,9.89-8.26,.39-2.4,.02-4.29-1.11-5.61-1.23-1.45-3.42-2.22-6.33-2.22Zm1,8.14c-.48,3.12-2.86,3.12-5.16,3.12h-1.31l.92-5.82c.05-.35,.36-.61,.72-.61h.6c1.57,0,3.05,0,3.81,.89,.46,.53,.6,1.33,.42,2.42Z"/><path class="cls-2" d="M96.17,37.44h-4.16c-.35,0-.66,.26-.72,.61l-.18,1.16-.29-.42c-.9-1.31-2.91-1.74-4.91-1.74-4.6,0-8.52,3.48-9.29,8.37-.4,2.44,.17,4.77,1.55,6.39,1.27,1.49,3.08,2.12,5.24,2.12,3.7,0,5.76-2.38,5.76-2.38l-.19,1.16c-.07,.44,.27,.84,.71,.84h3.75c.6,0,1.1-.43,1.19-1.02l2.25-14.24c.07-.44-.27-.84-.71-.84Zm-5.8,8.1c-.4,2.38-2.29,3.97-4.69,3.97-1.21,0-2.17-.39-2.79-1.12-.61-.73-.85-1.77-.65-2.92,.37-2.36,2.29-4,4.66-4,1.18,0,2.14,.39,2.77,1.13,.63,.75,.89,1.79,.7,2.94Z"/><path class="cls-2" d="M118.33,37.44h-4.18c-.4,0-.77,.2-1,.53l-5.77,8.49-2.44-8.16c-.15-.51-.62-.86-1.16-.86h-4.11c-.5,0-.85,.49-.69,.96l4.6,13.51-4.33,6.11c-.34,.48,0,1.14,.59,1.14h4.18c.4,0,.77-.19,.99-.52l13.9-20.07c.33-.48,0-1.14-.59-1.14Z"/><path class="cls-4" d="M132.17,29.41h-8.69c-.59,0-1.1,.43-1.19,1.02l-3.51,22.28c-.07,.44,.27,.84,.71,.84h4.46c.41,0,.77-.3,.83-.71l1-6.31c.09-.59,.6-1.02,1.19-1.02h2.75c5.72,0,9.03-2.77,9.89-8.26,.39-2.4,.02-4.29-1.11-5.61-1.23-1.45-3.42-2.22-6.33-2.22Zm1,8.14c-.47,3.12-2.86,3.12-5.16,3.12h-1.31l.92-5.82c.05-.35,.36-.61,.71-.61h.6c1.57,0,3.05,0,3.81,.89,.46,.53,.59,1.33,.42,2.42Z"/><path class="cls-4" d="M158.14,37.44h-4.16c-.36,0-.66,.26-.71,.61l-.18,1.16-.29-.42c-.9-1.31-2.91-1.74-4.91-1.74-4.6,0-8.52,3.48-9.29,8.37-.4,2.44,.17,4.77,1.55,6.39,1.27,1.49,3.08,2.12,5.24,2.12,3.7,0,5.76-2.38,5.76-2.38l-.19,1.16c-.07,.44,.27,.84,.72,.84h3.75c.59,0,1.1-.43,1.19-1.02l2.25-14.24c.07-.44-.27-.84-.72-.84Zm-5.8,8.1c-.4,2.38-2.29,3.97-4.69,3.97-1.21,0-2.17-.39-2.79-1.12-.61-.73-.85-1.77-.65-2.92,.38-2.36,2.29-4,4.66-4,1.18,0,2.14,.39,2.77,1.13,.64,.75,.89,1.79,.7,2.94Z"/><path class="cls-4" d="M163.05,30.02l-3.57,22.69c-.07,.44,.27,.84,.71,.84h3.58c.6,0,1.1-.43,1.19-1.02l3.52-22.28c.07-.44-.27-.84-.71-.84h-4.01c-.35,0-.66,.26-.71,.61Z"/><path class="cls-2" d="M20.73,57.87l.66-4.22-1.48-.03h-7.07l4.91-31.14c.02-.09,.06-.18,.14-.24,.07-.06,.17-.1,.26-.1h11.92c3.96,0,6.69,.82,8.11,2.45,.67,.76,1.09,1.56,1.3,2.44,.22,.92,.22,2.02,0,3.36l-.02,.1v.86l.67,.38c.56,.3,1.01,.64,1.35,1.03,.57,.65,.94,1.48,1.1,2.46,.16,1.01,.11,2.21-.16,3.57-.3,1.57-.8,2.93-1.46,4.04-.61,1.03-1.39,1.88-2.32,2.54-.88,.63-1.93,1.1-3.12,1.41-1.15,.3-2.46,.45-3.9,.45h-.93c-.66,0-1.31,.24-1.81,.67-.51,.44-.84,1.03-.95,1.69l-.07,.38-1.17,7.44-.05,.27c-.01,.09-.04,.13-.07,.16-.03,.03-.08,.04-.12,.04,0,0-5.73,0-5.73,0Z"/><path class="cls-4" d="M40.78,30.57h0c-.04,.23-.08,.46-.12,.7-1.57,8.07-6.95,10.85-13.81,10.85h-3.5c-.84,0-1.55,.61-1.68,1.44h0l-1.79,11.35-.51,3.22c-.09,.54,.33,1.03,.88,1.03h6.2c.73,0,1.36-.53,1.47-1.26l.06-.32,1.17-7.41,.07-.41c.11-.73,.74-1.26,1.47-1.26h.93c6.01,0,10.71-2.44,12.08-9.5,.57-2.95,.28-5.41-1.24-7.14-.46-.52-1.03-.96-1.7-1.31Z"/><path class="cls-3" d="M39.14,29.92c-.24-.07-.49-.13-.74-.19-.26-.06-.52-.11-.79-.15-.94-.15-1.98-.22-3.08-.22h-9.34c-.23,0-.45,.05-.64,.15-.43,.21-.75,.61-.83,1.11l-1.99,12.58-.06,.37c.13-.83,.84-1.44,1.68-1.44h3.5c6.87,0,12.24-2.79,13.81-10.85,.05-.24,.09-.47,.12-.7-.4-.21-.83-.39-1.29-.54-.11-.04-.23-.07-.35-.11Z"/><path class="cls-2" d="M23.72,30.61c.08-.5,.4-.91,.83-1.11,.2-.09,.41-.15,.64-.15h9.34c1.11,0,2.14,.07,3.08,.22,.27,.04,.53,.09,.79,.15,.25,.06,.5,.12,.74,.19,.12,.04,.24,.07,.35,.11,.46,.15,.89,.34,1.29,.54,.47-2.98,0-5.01-1.62-6.85-1.78-2.02-4.98-2.89-9.09-2.89h-11.92c-.84,0-1.55,.61-1.68,1.44l-4.96,31.46c-.1,.62,.38,1.18,1.01,1.18h7.36l1.85-11.72,1.99-12.58Z"/></g></svg>