<?xml version="1.0" encoding="UTF-8"?><svg id="Layer_1" xmlns="http://www.w3.org/2000/svg" xmlns:xlink="http://www.w3.org/1999/xlink" viewBox="0 0 180 80"><defs><style>.cls-1{fill:none;}.cls-2{clip-path:url(#clippath);}.cls-3{fill:url(#linear-gradient);fill-rule:evenodd;}.cls-4{mask:url(#mask);}.cls-5{fill:url(#linear-gradient-3);}.cls-6{fill:url(#linear-gradient-4);}.cls-7{fill:url(#linear-gradient-2);}</style><clipPath id="clippath"><rect class="cls-1" x="53.09" y="3.09" width="73.83" height="73.83"/></clipPath><linearGradient id="linear-gradient" x1="123.98" y1="440.27" x2="70.01" y2="510.97" gradientTransform="translate(0 509.33) scale(1 -1)" gradientUnits="userSpaceOnUse"><stop offset="0" stop-color="#f69b63"/><stop offset="1" stop-color="#ffb685"/></linearGradient><mask id="mask" x="57.78" y="7.7" width="64.52" height="66.4" maskUnits="userSpaceOnUse"><g id="mask0"><path class="cls-3" d="m58.68,12.95c-1.94-1.94-.56-5.25,2.18-5.25h58.36c1.7,0,3.08,1.38,3.08,3.08v58.43c0,2.74-3.32,4.11-5.25,2.17l-8.54-8.55v6.33c0,2.74-3.31,4.11-5.25,2.17l-8.64-8.65v6.5c0,2.74-3.32,4.11-5.25,2.17l-30.64-30.73c-1.93-1.94-.56-5.25,2.18-5.25h6.42l-8.59-8.59c-1.94-1.94-.56-5.25,2.18-5.25h6.36l-8.58-8.59Z"/></g></mask><linearGradient id="linear-gradient-2" x1="137.04" y1="423.06" x2="76.35" y2="520.54" gradientTransform="translate(0 509.33) scale(1 -1)" gradientUnits="userSpaceOnUse"><stop offset="0" stop-color="#922717"/><stop offset=".51" stop-color="#d83b01"/></linearGradient><linearGradient id="linear-gradient-3" x1="70.25" y1="503.27" x2="121.87" y2="429.09" gradientTransform="translate(0 509.33) scale(1 -1)" gradientUnits="userSpaceOnUse"><stop offset="0" stop-color="#f69b63"/><stop offset="1" stop-color="#d83b01"/></linearGradient><linearGradient id="linear-gradient-4" x1="100.82" y1="438.69" x2="66.34" y2="483.78" xlink:href="#linear-gradient"/></defs><rect class="cls-1" width="180" height="80"/><g class="cls-2"><g class="cls-4"><g><path class="cls-7" d="m58.68,12.95c-1.94-1.94-.56-5.25,2.18-5.25h58.36c1.7,0,3.08,1.38,3.08,3.08v58.43c0,2.74-3.32,4.11-5.25,2.17L58.68,12.95Z"/><path d="m58.73,27.09c-1.94-1.94-.56-5.25,2.18-5.25h44.53c1.7,0,3.08,1.38,3.08,3.08v44.55c0,2.74-3.31,4.11-5.25,2.17L58.73,27.09Z"/><path d="m58.73,28.62c-1.94-1.94-.56-5.25,2.18-5.25h44.53c1.7,0,3.08,1.38,3.08,3.08v44.55c0,2.74-3.31,4.11-5.25,2.17L58.73,28.62Z"/><path class="cls-5" d="m58.73,26.79c-1.94-1.94-.56-5.25,2.18-5.25h44.53c1.7,0,3.08,1.38,3.08,3.08v44.55c0,2.74-3.31,4.11-5.25,2.17L58.73,26.79Z"/><path d="m58.72,40.93c-1.93-1.94-.56-5.25,2.18-5.25h30.64c1.7,0,3.08,1.38,3.08,3.08v30.73c0,2.74-3.32,4.11-5.25,2.17l-30.64-30.73Z"/><path d="m58.72,42.46c-1.93-1.94-.56-5.25,2.18-5.25h30.64c1.7,0,3.08,1.38,3.08,3.08v30.73c0,2.74-3.32,4.11-5.25,2.17l-30.64-30.73Z"/><path class="cls-6" d="m58.72,40.63c-1.93-1.94-.56-5.25,2.18-5.25h30.64c1.7,0,3.08,1.38,3.08,3.08v30.73c0,2.74-3.32,4.11-5.25,2.17l-30.64-30.73Z"/></g></g></g></svg>