<?xml version="1.0" encoding="UTF-8"?><svg id="Layer_1" xmlns="http://www.w3.org/2000/svg" xmlns:xlink="http://www.w3.org/1999/xlink" viewBox="0 0 180 80"><defs><style>.cls-1{fill:none;}.cls-2{fill:url(#linear-gradient-3);}.cls-2,.cls-3{isolation:isolate;opacity:.5;}.cls-4{fill:url(#linear-gradient);}.cls-5{clip-path:url(#clippath);}.cls-6{mask:url(#mask);}.cls-7{fill:#fff;}.cls-3{fill:#b0adff;}.cls-8{fill:url(#linear-gradient-2);}</style><clipPath id="clippath"><rect class="cls-1" x="54" y="4" width="72" height="72"/></clipPath><mask id="mask" x="63" y="3.25" width="52.5" height="75" maskUnits="userSpaceOnUse"><g id="mask0"><path class="cls-7" d="m115.5,27.29c0-3.17-1.99-6-4.98-7.06l-43.51-15.54c-1.95-.7-4.01.75-4.01,2.83v23.63c0,1.27.8,2.4,1.99,2.83l19.5,6.96c1.95.7,4.01-.75,4.01-2.83v-13.57c0-1.05,1.05-1.77,2.03-1.4l5.11,1.92c2.92,1.1,4.86,3.9,4.86,7.02v5.91l-22.03,8.05c-1.18.43-1.97,1.56-1.97,2.82v23.61c0,2.08,2.07,3.53,4.03,2.82l30.04-10.98c2.96-1.08,4.93-3.89,4.93-7.04v-29.97Z"/></g></mask><linearGradient id="linear-gradient" x1="80.27" y1="505.22" x2="94.23" y2="468.68" gradientTransform="translate(0 509.33) scale(1 -1)" gradientUnits="userSpaceOnUse"><stop offset="0" stop-color="#0b53ce"/><stop offset="1" stop-color="#7252aa"/></linearGradient><linearGradient id="linear-gradient-2" x1="96" y1="435.21" x2="96" y2="478.77" gradientTransform="translate(0 509.33) scale(1 -1)" gradientUnits="userSpaceOnUse"><stop offset="0" stop-color="#2266e3"/><stop offset="1" stop-color="#ae7fe2"/></linearGradient><linearGradient id="linear-gradient-3" x1="115.5" y1="457.33" x2="100.56" y2="457.33" gradientTransform="translate(0 509.33) scale(1 -1)" gradientUnits="userSpaceOnUse"><stop offset="0" stop-color="#94b9ff"/><stop offset=".29" stop-color="#94b9ff" stop-opacity=".52"/><stop offset="1" stop-color="#538fff" stop-opacity="0"/></linearGradient></defs><rect class="cls-1" width="180" height="80"/><g class="cls-5"><g class="cls-6"><path class="cls-4" d="m63,3.25l52.5,18.75v25.74c0,2.07-2.05,3.52-4.01,2.83l-10.99-3.92v-14.58c0-3.12-1.94-5.92-4.86-7.02l-5.11-1.92c-.98-.37-2.03.36-2.03,1.4v17.83l-25.5-9.11V3.25Z"/><path d="m115.5,27.55h0c0,3.15-1.97,5.97-4.93,7.05l-34.07,12.45v30l39-14.25V27.55Z"/><path d="m115.5,28.75h0c0,3.15-1.97,5.97-4.93,7.05l-34.07,12.45v30l39-14.25V28.75Z"/><path class="cls-8" d="m115.5,27.25h0c0,3.15-1.97,5.97-4.93,7.05l-34.07,12.45v30l39-14.25V27.25Z"/><path class="cls-2" d="m115.5,27.25h0c0,3.15-1.97,5.97-4.93,7.05l-34.07,12.45v30l39-14.25V27.25Z"/><path class="cls-3" d="m100.5,37.99l-12.01,4.39v17.59c0,1.05,1.05,1.77,2.03,1.4l5.12-1.93c2.92-1.1,4.86-3.9,4.86-7.02v-14.44Z"/></g></g></svg>